<?xml version="1.0" encoding="utf-8"?>
<!-- Generator: Adobe Illustrator 16.0.0, SVG Export Plug-In . SVG Version: 6.00 Build 0)  -->
<!DOCTYPE svg PUBLIC "-//W3C//DTD SVG 1.1//EN" "http://www.w3.org/Graphics/SVG/1.1/DTD/svg11.dtd">
<svg version="1.1" id="Layer_1" xmlns="http://www.w3.org/2000/svg" xmlns:xlink="http://www.w3.org/1999/xlink" x="0px" y="0px"
	 width="114px" height="60px" viewBox="0 0 114 60" enable-background="new 0 0 114 60" xml:space="preserve">
<g id="_x3C_Background_x3E__xA0_0_xA0_Image_1_">
</g>
<g id="_x3D___x5D_" opacity="0.902">
	<g>
		<path fill="#333333" d="M11.503,18.002c2.488,0,2.486-0.002,2.486-2.572c0-2.699,0-2.176,0-3.857C13.989,9.001,13.992,9,11.503,9
			c-2.489,0-2.486,0.001-2.486,2.572c0,1.682,0,1.158,0,3.857C9.017,18,9.015,18.002,11.503,18.002z M19.49,18.002
			c2.504,0,2.501-0.002,2.501-2.572c0-2.699,0-2.176,0-3.857C21.991,9.001,21.994,9,19.49,9c-2.503,0-2.501,0.001-2.501,2.572
			c0,1.682,0,1.158,0,3.857C16.989,18,16.987,18.002,19.49,18.002z M31,22c0-1.952,0.009-2.004-2.575-2.004
			C26.025,19.996,26,20.047,26,22c0,0.98-0.083,1-1,1H6c-0.93,0-1,0.165-1-1c0-1.953,0.158-2.004-2.421-2.004S0,20.048,0,22v2.697
			c0,1.298,0.01,1.309,1.29,1.309h28.428c1.282,0,1.292-0.011,1.292-1.309C31.009,23.4,31,22.831,31,22z"/>
	</g>
</g>
<g id="_x3D__x5D__booxi_6em_1_">
	<g id="booxi_2_">
		<g id="booxi">
			<g>
				<path fill="#FFFFFF" d="M111.505,22.993c2.493,0,2.487-0.01,2.487-1.495c0-1.486-0.021-1.488-2.504-1.488
					c-2.483,0-2.486,0.012-2.486,1.49S109.012,22.993,111.505,22.993z M111.49,25.014c-2.487,0-2.488-0.01-2.488,2.509
					c0,2.52,0,12.024,0,13.936c0,2.538,0.001,2.536,2.496,2.536c2.496,0,2.498-0.009,2.498-2.526c0-1.896,0-11.416,0-13.936
					S113.977,25.014,111.49,25.014z M104.573,24.994c-2.46,0-2.58,0.068-3.267,1.268c-0.207,0.365-0.664,1.145-1.188,2.04
					c-0.189,0.313-0.17,0.455,0.023,0.813c0.385,0.669,0.735,1.293,1.031,1.82c0.41,0.733,0.555,1.026,0.996,1.82
					c0.439,0.754,0.813,0.48,1.092,0c0.832-1.459,2.23-3.935,2.991-5.234C107.701,25.052,107.032,24.994,104.573,24.994z
					 M103.266,36.229c-0.279-0.479-0.649-0.752-1.092,0c-0.441,0.795-0.586,1.088-0.996,1.821c-0.296,0.528-0.646,1.152-1.031,1.822
					c-0.193,0.356-0.217,0.501-0.023,0.812c0.521,0.896,0.979,1.674,1.188,2.039c0.687,1.199,0.808,1.27,3.267,1.27
					s3.128-0.059,1.684-2.527C105.496,40.164,104.098,37.689,103.266,36.229z M65.486,24.993c-7.457,0-7.479-0.014-7.479,7.596
					v3.838c0,7.567-0.011,7.589,7.479,7.589c7.514,0,7.502-0.002,7.502-7.589v-3.817C72.988,25.015,72.984,24.993,65.486,24.993z
					 M67.995,36.415c0,2.563-0.017,2.576-2.515,2.576c-2.487,0-2.479-0.013-2.479-2.576v-3.863c0-2.555,0.009-2.551,2.479-2.551
					c2.509,0,2.515,0.019,2.515,2.551V36.415z M48.487,25.072c-0.633,0-1.842,0.002-2.494,0.146c0,0,0-0.143,0-2.675
					c0-2.531-0.01-2.53-2.503-2.53c-2.493,0-2.5-0.001-2.5,2.521s0,13.874,0,13.874c0,7.615-0.028,7.604,7.498,7.604
					c7.525,0,7.489,0.021,7.489-7.586c0-1.512,0-3.761,0-3.761C55.978,25.076,55.982,25.072,48.487,25.072z M51.016,36.415
					c0,2.563,0.019,2.588-2.489,2.588c-2.507,0-2.512-0.022-2.512-2.588v-3.847c0-2.553,0.014-2.57,2.51-2.57
					c2.48,0,2.491-0.022,2.491,2.566V36.415z M82.479,24.993c-7.471,0-7.494-0.014-7.494,7.596v3.838
					c0,7.567-0.01,7.589,7.494,7.589c7.529,0,7.521-0.002,7.521-7.589v-3.817C89.998,25.015,89.994,24.993,82.479,24.993z
					 M84.994,36.432c0,2.563-0.018,2.575-2.504,2.575c-2.477,0-2.467-0.012-2.467-2.575v-3.865c0-2.554,0.008-2.55,2.467-2.55
					c2.498,0,2.504,0.02,2.504,2.55V36.432z M100.051,31.645c-0.941-1.638-2.713-4.561-3.195-5.384
					c-0.703-1.198-0.828-1.267-3.354-1.267c-2.523,0-3.213,0.058-1.729,2.526c0.871,1.449,2.559,4.365,3.326,5.707
					c0.49,0.855,0.51,1.666,0,2.531c-0.791,1.358-3.19,5.457-3.332,5.696c-1.414,2.401-0.765,2.536,1.756,2.536
					s2.576-0.014,3.334-1.268c0.765-1.264,2.201-3.688,3.194-5.383C101.661,34.596,101.641,34.41,100.051,31.645z"/>
			</g>
		</g>
	</g>
	<g id="_x3D__x5D__1_">
		<g id="Shade" opacity="0.102">
			<g>
				<path d="M11.617,9.001c-0.042,0-0.07,0.001-0.113,0.001s-0.072-0.001-0.114-0.001c-2.362,0.001-2.373,0.045-2.373,2.571
					c0,1.104,0,1.262,0,2c0-2.571-0.002-2.572,2.486-2.572c2.488,0,2.486,0.001,2.486,2.572c0-0.738,0-0.896,0-2
					C13.989,9.046,13.979,9.002,11.617,9.001z M5,22c0-1.684,0.108-1.952-1.511-1.994H1.662C0.009,20.049,0,20.317,0,22
					c0,0.27,0,0.512,0,0.76c0,0.61,0,1.081,0,1.24c0-1.952,0-2.004,2.579-2.004C4.627,21.996,4.954,22.009,5,23
					c0.116,0,0.25,0,0.372,0C5.041,22.973,5,22.809,5,22z M19.611,9.001c-0.04,0-0.067,0.001-0.107,0.001
					c-0.046,0-0.077-0.001-0.121-0.001c-1.874,0-2.28,0.047-2.366,1.287c0,1.451,0,2.824,0,3.284c0-2.571-0.002-2.572,2.486-2.572
					c2.488,0,2.486,0.001,2.486,2.572c0-0.364,0-1.305,0-2.4C21.981,9.071,21.838,9.002,19.611,9.001z M31,22
					c0-1.683-0.002-1.951-1.656-1.994h-1.775C26.027,20.048,26,20.316,26,22c0,0.497-0.005,0.809-0.026,1c0.008,0,0.018,0,0.026,0
					c0.087-0.992,0.519-1.004,2.425-1.004C31.009,21.996,31,22.048,31,24c0,0.271,0.001-0.343,0.002-1.241
					C31.001,22.512,31,22.27,31,22z"/>
			</g>
		</g>
		<g id="Ticket" enable-background="new    ">
			<g id="Gradient">
				<g>
					
						<linearGradient id="SVGID_1_" gradientUnits="userSpaceOnUse" x1="-332.5176" y1="705.6777" x2="-332.5176" y2="680.9375" gradientTransform="matrix(1 0 0 1 348 -658)">
						<stop  offset="0.7312" style="stop-color:#FFFFFF"/>
						<stop  offset="0.7663" style="stop-color:#FBFBFB"/>
						<stop  offset="0.8021" style="stop-color:#EFEFEF"/>
						<stop  offset="0.8383" style="stop-color:#DADADA"/>
						<stop  offset="0.8746" style="stop-color:#BEBEBE"/>
						<stop  offset="0.9112" style="stop-color:#999999"/>
						<stop  offset="0.9474" style="stop-color:#6C6C6C"/>
						<stop  offset="0.9785" style="stop-color:#404040"/>
					</linearGradient>
					<path fill="url(#SVGID_1_)" d="M28.394,24.315c-1.141-0.589-2.664-1.378-2.664-1.378s-0.065,0.069-0.588,0.069
						c-0.288,0-19.168,0.002-19.422,0.002c-0.236,0-0.501-0.041-0.501-0.041s-1.651,0.79-2.648,1.349
						c-0.925,0.519-2.582,1.289-2.582,5.235c0,3.324,0,10.795,0,11.776c0,2.618,0,2.618,2.582,2.618c0.319,0,2.559,0,5.607,0
						c0.314,0.104,0.507,0.231,0.669,0.31c1.157,0.667,2.538,1.468,3.82,2.208c2.81,1.623,2.803,1.619,5.622-0.01
						c1.143-0.66,2.656-1.543,3.768-2.184c0.125-0.063,0.391-0.209,0.769-0.326c2.566,0,4.626,0,5.567,0c2.57,0,2.583,0,2.583-2.616
						s0-8.452,0-11.776C30.976,25.648,29.734,25.008,28.394,24.315z"/>
				</g>
			</g>
		</g>
		<g id="_x2D_v-">
			<path opacity="0.1" enable-background="new    " d="M6.807,26.023c0.888,0,1.261,0.231,1.533,0.4
				c0.065,0.04,4.215,2.688,4.215,2.688c1.538,0.984,2.334,1.477,3.131,1.477c0.794,0,1.589-0.489,3.116-1.464l4.075-2.61
				c0.242-0.146,0.81-0.49,1.691-0.49h5.789c-0.193-0.308-0.249-0.47-0.522-0.739h-5.267c-1.049,0-1.72,0.406-2.008,0.58
				l-4.088,2.618c-1.421,0.907-2.134,1.362-2.785,1.362c0,0-0.001,0-0.002,0c-0.652,0-1.369-0.461-2.799-1.375
				c0,0-4.168-2.66-4.223-2.693c-0.316-0.197-0.795-0.494-1.856-0.494H1.228c-0.276,0.338-0.276,0.338-0.529,0.739L6.807,26.023
				L6.807,26.023z"/>
		</g>
		<g id="v">
			<path opacity="0.1" enable-background="new    " d="M17.796,42.412c-0.53,0.314-1.361,0.768-1.852,1.045
				c-0.313,0.178-0.609,0.184-0.925,0c-0.497-0.285-1.764-0.994-1.852-1.045c-0.878-0.51-0.925-0.352-0.925,0.559
				c0,0.907-0.01,1.109,0.456,1.371c0.465,0.262,1.155,0.656,1.779,1.01c1.008,0.571,1.005,0.568,2.016-0.006
				c0.598-0.338,1.478-0.843,1.783-1.01c0.444-0.243,0.445-0.451,0.445-1.361S18.698,41.877,17.796,42.412z M18.09,42.975
				c0,0.326,0,0.662-0.032,0.76c-0.004,0-0.031,0.021-0.086,0.051c-0.206,0.111-0.677,0.381-1.146,0.646l-0.645,0.366
				c-0.307,0.175-0.615,0.351-0.699,0.351c-0.085,0-0.395-0.176-0.694-0.347c0,0-1.451-0.825-1.782-1.01
				c-0.087-0.048-0.11-0.071-0.112-0.074c-0.021-0.062-0.021-0.383-0.021-0.692c0-0.016,0-0.032,0-0.053l0.356,0.2
				c0.435,0.245,1.136,0.638,1.475,0.833c0.25,0.146,0.512,0.221,0.775,0.221c0.26,0,0.521-0.074,0.775-0.219l0.577-0.322
				c0.424-0.234,0.903-0.502,1.258-0.713C18.09,42.973,18.09,42.975,18.09,42.975z"/>
		</g>
	</g>
</g>
</svg>
