<svg xmlns="http://www.w3.org/2000/svg" width="40" height="40" viewBox="0 0 40 40">
  <defs>
    <style>
      .cls-1 {
        fill: #fff;
      }

      .cls-1, .cls-2, .cls-3 {
        fill-rule: evenodd;
      }

      .cls-2 {
        fill: #555;
      }

      .cls-3 {
        fill: #44ce5e;
      }
    </style>
  </defs>
  <path id="w" class="cls-1" d="M9,13H31V29H9V13Zm3-5h4v4H12V8ZM24,8h4v4H24V8Zm8-2.993a7,7,0,1,1-7,7A7,7,0,0,1,32,5.007Z"/>
  <path id="b" class="cls-2" d="M13,20.01h2v2H13v-2Zm2,5H13v-2h2v2Zm3,0H16v-2h2v2Zm-2-8h2v2H16v-2Zm2,5H16v-2h2v2Zm3,3H19v-2h2v2Zm-2-8h2v2H19v-2Zm2,5H19v-2h2v2Zm1-5h1.348a10.02,10.02,0,0,0,.65.981v1.024H22v-2Zm0,3h2v2H22v-2Zm0,3h2v2H22v-2Zm3-3h1.017a10,10,0,0,0,.981.651v1.354H25v-2Zm-3-8a10.05,10.05,0,0,0,.2,2H10v14H30v-6.2a10.04,10.04,0,0,0,2,.2v6.667a1.511,1.511,0,0,1-1.667,1.333h-21A1.238,1.238,0,0,1,8,28.677V11.344A1.239,1.239,0,0,1,9.333,10.01H12V8h4V10.01h6.2A10.045,10.045,0,0,0,22,12.011Zm-7-3H13v2h2v-2Z"/>
  <path id="g" class="cls-3" d="M32,20.008a8,8,0,1,1,8-8A8,8,0,0,1,32,20.008Zm3.919-6.247,0-.01-0.112-.506a2.649,2.649,0,0,0-1.862-2.18,2.5,2.5,0,1,0-3.875,0,2.636,2.636,0,0,0-1.875,2.183l-0.11.5,0,0.019a5.745,5.745,0,0,0-.081.954C28,16.433,30.155,17,32,17s4-.57,4-2.287A5.736,5.736,0,0,0,35.919,13.762ZM32,15.211c-1.706,0-2.286-.269-2.286-1.193a2.619,2.619,0,0,1,1.478-2.161,2.34,2.34,0,0,0,1.674-.014,2.487,2.487,0,0,1,1.419,2.175C34.286,14.822,33.378,15.211,32,15.211ZM32,10.5a1,1,0,1,1,1-1A1,1,0,0,1,32,10.5Z"/>
</svg>
