<svg xmlns="http://www.w3.org/2000/svg" width="40" height="40" viewBox="0 0 40 40">
  <defs>
    <style>
      .cls-1 {
        fill: #fff;
      }

      .cls-1, .cls-2, .cls-3 {
        fill-rule: evenodd;
      }

      .cls-2 {
        fill: #555;
      }

      .cls-3 {
        fill: #44ce5e;
      }
    </style>
  </defs>
  <path id="w" class="cls-1" d="M9,13H31V29H9V13Zm3-5h4v4H12V8ZM24,8h4v4H24V8Zm8-2.993a7,7,0,1,1-7,7A7,7,0,0,1,32,5.007Z"/>
  <path id="b" class="cls-2" d="M13,20.01h2v2H13v-2Zm2,5H13v-2h2v2Zm3,0H16v-2h2v2Zm-2-8h2v2H16v-2Zm2,5H16v-2h2v2Zm3,3H19v-2h2v2Zm-2-8h2v2H19v-2Zm2,5H19v-2h2v2Zm1-5h1.348a10.02,10.02,0,0,0,.65.981v1.024H22v-2Zm0,3h2v2H22v-2Zm0,3h2v2H22v-2Zm3-3h1.017a10,10,0,0,0,.981.651v1.354H25v-2Zm-3-8a10.05,10.05,0,0,0,.2,2H10v14H30v-6.2a10.04,10.04,0,0,0,2,.2v6.667a1.511,1.511,0,0,1-1.667,1.333h-21A1.238,1.238,0,0,1,8,28.677V11.344A1.239,1.239,0,0,1,9.333,10.01H12V8h4V10.01h6.2A10.045,10.045,0,0,0,22,12.011Zm-7-3H13v2h2v-2Z"/>
  <path id="g" class="cls-3" d="M32,20.008a8,8,0,1,1,8-8A8,8,0,0,1,32,20.008ZM36.609,9.837l-0.671-.672a0.469,0.469,0,0,0-.663-0.008l-4.524,4.527-2.023-2.027a0.47,0.47,0,0,0-.664.008l-0.672.672a0.469,0.469,0,0,0-.008.664l2.887,2.892a0.442,0.442,0,0,0,.313.126v0.006h0.333V16.018a0.442,0.442,0,0,0,.312-0.126L36.617,10.5A0.469,0.469,0,0,0,36.609,9.837Z"/>
</svg>
