<svg xmlns="http://www.w3.org/2000/svg" width="40" height="40" viewBox="0 0 40 40">
  <defs>
    <style>
      .cls-1 {
        fill: #fff;
      }

      .cls-1, .cls-2, .cls-3 {
        fill-rule: evenodd;
      }

      .cls-2 {
        fill: #555;
      }

      .cls-3 {
        fill: #44ce5e;
      }
    </style>
  </defs>
  <path id="w" class="cls-1" d="M11,10H29V30H11V10Zm-1,2h2V29H10V12Zm18,0h3v4H28V12Zm0,6h3v4H28V18Zm0,6h3v4H28V24ZM32,5.007a7,7,0,1,1-7,7A7,7,0,0,1,32,5.007Z"/>
  <path id="b" class="cls-2" d="M32,10.5a1,1,0,1,1,1-1A1,1,0,0,1,32,10.5ZM16,21.3V18.725c0-1.713,0-1.714,1.5-1.714s1.5,0,1.5,1.714V21.3c0,1.713,0,1.714-1.5,1.714S16,23.01,16,21.3ZM31.949,21.99H30v2h2v4H30v1.8a1.21,1.21,0,0,1-1.221,1.2H9.209A1.218,1.218,0,0,1,8,29.77V11.262A1.264,1.264,0,0,1,9.251,9.99L10,10,9.964,8.99h12.5a9.947,9.947,0,0,0-.41,2H12v18h5v0.005l1,1h4l1-1V28.99h5V21.154A9.955,9.955,0,0,0,31.949,21.99ZM29,26.99h2v-2H29v2ZM11,12H10V29h1V12ZM22.5,23.011c-1.5,0-1.5,0-1.5-1.714V18.725c0-1.713,0-1.714,1.5-1.714a7.334,7.334,0,0,1,.878.03,10,10,0,0,0,.607.913C23.994,18.164,24,18.407,24,18.725V21.3C24,23.01,24,23.011,22.5,23.011Z"/>
  <path id="g" class="cls-3" d="M32,20.008a8,8,0,1,1,8-8A8,8,0,0,1,32,20.008Zm3.919-6.247,0-.01-0.112-.506a2.649,2.649,0,0,0-1.862-2.18,2.5,2.5,0,1,0-3.875,0,2.636,2.636,0,0,0-1.875,2.183l-0.11.5,0,0.019a5.745,5.745,0,0,0-.081.954C28,16.433,30.155,17,32,17s4-.57,4-2.287A5.747,5.747,0,0,0,35.919,13.762ZM32,15.211c-1.706,0-2.286-.269-2.286-1.193a2.619,2.619,0,0,1,1.478-2.161,2.34,2.34,0,0,0,1.674-.014,2.487,2.487,0,0,1,1.419,2.175C34.286,14.822,33.378,15.211,32,15.211ZM32,10.5a1,1,0,1,1,1-1A1,1,0,0,1,32,10.5Z"/>
</svg>
