<svg xmlns="http://www.w3.org/2000/svg" width="40" height="40" viewBox="0 0 40 40">
  <defs>
    <style>
      .cls-1 {
        fill: #fff;
      }

      .cls-1, .cls-2, .cls-3 {
        fill-rule: evenodd;
      }

      .cls-2 {
        fill: #555;
      }

      .cls-3 {
        fill: #44ce5e;
      }
    </style>
  </defs>
  <path id="w" class="cls-1" d="M10,12H30V28H10V12ZM32,5.007a7,7,0,1,1-7,7A7,7,0,0,1,32,5.007Z"/>
  <path id="b" class="cls-2" d="M22,11.992c0,0.34.018,0.676,0.051,1.008H11V27H9V13a2,2,0,0,1,2-2H22.05C22.018,11.327,22,11.657,22,11.992Zm-6,9.294V18.714C16,17,16,17,17.5,17S19,17,19,18.714v2.572C19,23,19,23,17.5,23S16,23,16,21.286ZM31,27l3,1h0v2H6V28H6l3-1H31ZM18,28.01h4l1-1H17ZM29,27V21.533a9.953,9.953,0,0,0,2,.409V27H29Zm-5-8.286v2.572C24,23,24,23,22.5,23S21,23,21,21.286V18.714C21,17,21,17,22.5,17a7.526,7.526,0,0,1,.87.028,10.018,10.018,0,0,0,.614.926C23.994,18.162,24,18.4,24,18.714Z"/>
  <path id="g" class="cls-3" d="M32,20.008a8,8,0,1,1,8-8A8,8,0,0,1,32,20.008Zm3.386-9.2c-2.025-1.348-3.776-2.5-5.413-3.6a0.6,0.6,0,0,0-.683-0.156A0.523,0.523,0,0,0,29,7.667c0,1.939,0,4.441,0,6.514-0.006.911,0.671,1.324,1.247,0.742,1.253-1.268,1.633-1.733,1.633-1.733l2.053,3.624,1.18-.551-2.053-3.624s0.978-.262,2.316-0.465C36.206,12.047,36.169,11.334,35.386,10.813Z"/>
</svg>
