<svg xmlns="http://www.w3.org/2000/svg" width="40" height="40" viewBox="0 0 40 40">
  <defs>
    <style>
      .cls-1 {
        fill: #fff;
      }

      .cls-1, .cls-2, .cls-3 {
        fill-rule: evenodd;
      }

      .cls-2 {
        fill: #555;
      }

      .cls-3 {
        fill: #44ce5e;
      }
    </style>
  </defs>
  <path id="w" class="cls-1" d="M32,19.007a6.924,6.924,0,0,1-2-.325V30H23V22H17v8H10V18l10-8,5.43,4.344A6.983,6.983,0,1,1,32,19.007Z"/>
  <path id="b" class="cls-2" d="M22,11.992c0,0.2.018,0.391,0.03,0.586L20,11l-9,7V29.005h5V21h8v8.005h5V21.533a9.95,9.95,0,0,0,2,.409c0,2.036,0,5.191,0,7.058,0,1.584-.387,2-2.031,2C25.484,31,12.375,31,11,31a1.714,1.714,0,0,1-2-2V20H7V18L20,8l2.264,1.741A10,10,0,0,0,22,11.992ZM18,31h4V23H18v8Z"/>
  <path id="g" class="cls-3" d="M32,20.008a8,8,0,1,1,8-8A8,8,0,0,1,32,20.008ZM31.985,6.98a3.954,3.954,0,0,0-4.024,3.88c0,2.143,3.443,6.467,4.024,6.467S36.009,13,36.009,10.86A3.954,3.954,0,0,0,31.985,6.98ZM29.971,11a2,2,0,1,1,2,2A2,2,0,0,1,29.971,11Z"/>
</svg>
