<svg xmlns="http://www.w3.org/2000/svg" width="40" height="40" viewBox="0 0 40 40">
  <defs>
    <style>
      .cls-1 {
        fill: #fff;
      }

      .cls-1, .cls-2, .cls-3 {
        fill-rule: evenodd;
      }

      .cls-2 {
        fill: #555;
      }

      .cls-3 {
        fill: #44ce5e;
      }
    </style>
  </defs>
  <path id="w" class="cls-1" d="M32,19a6.947,6.947,0,0,1-1.057-.107C30.98,19.257,31,19.626,31,20a11,11,0,1,1-5.773-9.68A6.99,6.99,0,1,1,32,19Z"/>
  <path id="b" class="cls-2" d="M22,11.992a10.027,10.027,0,0,0,.159,1.727,12.665,12.665,0,0,0-.812,1.436c-0.873,1.748-.405,2.49-1.076,3.3s-2.693-1.75-3.7-1.01S16.3,19.328,17.578,20s2.423,1.615,3.364,1.48,2.911-.518,4.511-0.874c1.817-.4,1.347,3.03.4,5.653a12.2,12.2,0,0,1-1.366,2.745A10.085,10.085,0,0,0,29.9,21.768a10.029,10.029,0,0,0,1.92.215A12.024,12.024,0,1,1,22.706,8.318,9.959,9.959,0,0,0,22,11.992Zm-8.73,5.787a5.632,5.632,0,0,1-1.521-3.543A10.061,10.061,0,0,0,20,30.076a10.188,10.188,0,0,0,1.285-.093c0.021-.054.042-0.1,0.062-0.156,0.27-.808.006-0.884-1.55-1.816-2.018-1.213-.74-3.433-0.2-4.038s0.878-1.213-1.344-2.558S14.617,19.394,13.27,17.779Z"/>
  <path id="g" class="cls-3" d="M32,20.008a8,8,0,1,1,8-8A8,8,0,0,1,32,20.008ZM31.291,9H28v3.267h1.882c0,1.308-.647,2.333-1.882,2.333V16c2.189,0,3.294-1.474,3.294-3.733V9ZM36,9H32.7v3.267h1.882c0,1.308-.647,2.333-1.882,2.333V16C34.892,16,36,14.526,36,12.267V9Z"/>
</svg>
