<svg xmlns="http://www.w3.org/2000/svg" width="40" height="40" viewBox="0 0 40 40">
  <defs>
    <style>
      .cls-1 {
        fill: #fff;
      }

      .cls-1, .cls-2, .cls-3 {
        fill-rule: evenodd;
      }

      .cls-2 {
        fill: #555;
      }

      .cls-3 {
        fill: #44ce5e;
      }
    </style>
  </defs>
  <path id="w" class="cls-1" d="M32,19.007a7.016,7.016,0,0,1-1-.08V27H9V11H25.081A7,7,0,1,1,32,19.007Z"/>
  <path id="b" class="cls-2" d="M22,11.992S22,12,22,12H10v7.058l2.025-.81A1.975,1.975,0,0,1,12,18.006a2,2,0,0,1,4,0,1.978,1.978,0,0,1-.117.649l2.793,1.862a1.965,1.965,0,0,1,2.566-.067l2.538-2.769a10.024,10.024,0,0,0,.621.8l-2.548,2.78a2,2,0,1,1-3.734.085l-2.789-1.859a1.98,1.98,0,0,1-2.941-.306L10,20.139v5.854H30v-4.2a10.045,10.045,0,0,0,2,.2h0v4.8c0,0.662-1.046,1.2-1.721,1.2H9.209A1.217,1.217,0,0,1,8,26.772v-15.5a1.264,1.264,0,0,1,1.256-1.272H22.2A10.043,10.043,0,0,0,22,11.992ZM20,23a1,1,0,1,0-1-1A1,1,0,0,0,20,23Zm-6-4a1,1,0,1,0-1-1A1,1,0,0,0,14,19ZM17,29h6a2,2,0,0,1,2,2H15A2,2,0,0,1,17,29Z"/>
  <path id="g" class="cls-3" d="M32,20.008a8,8,0,1,1,8-8A8,8,0,0,1,32,20.008ZM36.75,11.5h-2.5L33.2,13.24,31,6l-2,5.5H27.25a0.889,0.889,0,0,0-.75.784,0.82,0.82,0,0,0,.75.716h2.5L31,10.5,33,17l2-4h1.75a0.82,0.82,0,0,0,.75-0.716A0.889,0.889,0,0,0,36.75,11.5Z"/>
</svg>
