<svg xmlns="http://www.w3.org/2000/svg" width="40" height="40" viewBox="0 0 40 40">
  <defs>
    <style>
      .cls-1 {
        fill: #fff;
      }

      .cls-1, .cls-2, .cls-3 {
        fill-rule: evenodd;
      }

      .cls-2 {
        fill: #555;
      }

      .cls-3 {
        fill: #44ce5e;
      }
    </style>
  </defs>
  <path id="w" class="cls-1" d="M31,11V28H27v3H26l-6-3H9V11H31Zm1-5.993a7,7,0,1,1-7,7A7,7,0,0,1,32,5.007Z"/>
  <path id="b" class="cls-2" d="M13,23V22h7v1H13Zm0-4H24.872a10.045,10.045,0,0,0,1.157,1H13V19Zm0-2V16h9.842a9.947,9.947,0,0,0,.512,1H13Zm9-5.027H10v15.02S15.448,27,20,27a7.314,7.314,0,0,1,1.742.5C22.412,27.749,26,30,26,30V28.274A1.059,1.059,0,0,1,27.244,27c1.169,0,2.74-.005,2.74-0.005v-5.2a10.056,10.056,0,0,0,2.016.2v5.287a1.658,1.658,0,0,1-1.679,1.7H28v3.57c0,0.489-.405.6-0.81,0.25-0.344-.3-7.166-3.819-7.166-3.819H9.689a1.658,1.658,0,0,1-1.679-1.7l0-15.516A1.736,1.736,0,0,1,9.722,10H22.2A10.037,10.037,0,0,0,22,11.973Z"/>
  <path id="b-2" data-name="b" class="cls-3" d="M32,20.008a8,8,0,1,1,8-8A8,8,0,0,1,32,20.008ZM31.673,9.846L28,13.512V16h2.49l3.668-3.666Zm4.1-.258L34.388,8.2a0.771,0.771,0,0,0-1.107,0l-0.493.5,2.464,2.527,0.519-.521A0.78,0.78,0,0,0,35.771,9.588Z"/>
</svg>
