<svg xmlns="http://www.w3.org/2000/svg" width="40" height="40" viewBox="0 0 40 40">
  <metadata><?xpacket begin="﻿" id="W5M0MpCehiHzreSzNTczkc9d"?>
<x:xmpmeta xmlns:x="adobe:ns:meta/" x:xmptk="Adobe XMP Core 5.6-c138 79.159824, 2016/09/14-01:09:01        ">
   <rdf:RDF xmlns:rdf="http://www.w3.org/1999/02/22-rdf-syntax-ns#">
      <rdf:Description rdf:about=""/>
   </rdf:RDF>
</x:xmpmeta>
                                                                                                    
                                                                                                    
                                                                                                    
                                                                                                    
                                                                                                    
                                                                                                    
                                                                                                    
                                                                                                    
                                                                                                    
                                                                                                    
                                                                                                    
                                                                                                    
                                                                                                    
                                                                                                    
                                                                                                    
                                                                                                    
                                                                                                    
                                                                                                    
                                                                                                    
                                                                                                    
                           
<?xpacket end="w"?></metadata>
<defs>
    <style>
      .cls-1 {
        fill: #fff;
      }

      .cls-1, .cls-2, .cls-3 {
        fill-rule: evenodd;
      }

      .cls-2 {
        fill: #555;
      }

      .cls-3 {
        fill: #44ce5e;
      }
    </style>
  </defs>
  <path id="w" class="cls-1" d="M32,19.007a7,7,0,1,1,7-7A7,7,0,0,1,32,19.007ZM20.023,18.8a4.883,4.883,0,1,1,4.953-4.883A4.924,4.924,0,0,1,20.023,18.8ZM20,20a6.412,6.412,0,0,0,3.829-1.347,8.491,8.491,0,0,1,4.727,5.728l0.251,1.032,0,0.02a10.672,10.672,0,0,1,.181,1.945c0,3.5-4.831,4.663-8.968,4.663s-8.968-1.162-8.968-4.663a10.669,10.669,0,0,1,.181-1.945l0.008-.039,0.247-1.012a8.491,8.491,0,0,1,4.727-5.729A6.2,6.2,0,0,0,20,20Z"/>
  <path id="b" class="cls-2" d="M22.011,11.789a2.953,2.953,0,1,0,.612,3.649,9.95,9.95,0,0,0,.931,1.892,4.916,4.916,0,1,1-3.531-8.3A4.946,4.946,0,0,1,22.3,9.6,9.985,9.985,0,0,0,22.011,11.789Zm-4.056,8.1-0.879.567a7.688,7.688,0,0,0-3.856,6.907c0.018,1,2.439,2.555,6.8,2.555,3.526,0,6.8-1.522,6.8-2.543,0-2.822-1.53-5.766-3.876-6.92,0,0-.9-0.492-0.976-0.567,0.449-.262,1.854-1.237,1.854-1.237a8.491,8.491,0,0,1,4.727,5.728l0.251,1.032,0,0.02a10.672,10.672,0,0,1,.181,1.945c0,3.5-4.831,4.663-8.968,4.663s-8.968-1.162-8.968-4.663a10.669,10.669,0,0,1,.181-1.945l0.008-.039,0.247-1.012a8.491,8.491,0,0,1,4.727-5.729A6.667,6.667,0,0,0,17.954,19.891Zm-4.926-2.272a3.2,3.2,0,0,1-3.715-2.537,3.158,3.158,0,0,1,2.574-3.662,3.214,3.214,0,0,1,1.306.036l0.2,0.046-0.093.179a5.233,5.233,0,0,0-.358.871l-0.041.132-0.138-.022a1.89,1.89,0,0,0-2.19,2.195A1.918,1.918,0,0,0,12.8,16.38a1.616,1.616,0,0,0,.22-0.062l0.17-.055,0.061,0.124a5.206,5.206,0,0,0,.494.805l0.12,0.162-0.188.077A3.233,3.233,0,0,1,13.029,17.619Zm-3.6-.287a3.523,3.523,0,0,0,.72.656l0.227,0.156-0.25.116A5.3,5.3,0,0,0,7.359,23c0,0.563.208,1.109,1.572,1.425l0.163,0.037-0.327,1.3-0.15-.036C6.569,25.246,6.081,24.275,6.081,23a6.549,6.549,0,0,1,3.145-5.707l0.117-.064ZM32.687,23a5.5,5.5,0,0,0-.112-1.036,10.032,10.032,0,0,0,1.274-.149A6.923,6.923,0,0,1,33.966,23c0,1.275-.488,2.245-2.535,2.731l-0.315-1.307C32.48,24.109,32.687,23.563,32.687,23Z"/>
  <path id="g" class="cls-3" d="M32,20.008a8,8,0,1,1,8-8A8,8,0,0,1,32,20.008ZM36.98,8.134c-0.014-.493-0.253-0.578-0.563-0.365v0L36.4,7.783c-0.027.019-.054,0.037-0.082,0.061l-0.859.732A5.149,5.149,0,0,0,34.09,7.539,4.933,4.933,0,0,0,32.2,7.005a5.163,5.163,0,0,0-1.936.24,5.025,5.025,0,0,0-1.767,1.028,5.22,5.22,0,0,0-1.243,1.655c-0.1.2-.247,0.614-0.247,0.614l1.4,0.5s0.111-.3.18-0.446a3.734,3.734,0,0,1,.886-1.181,3.594,3.594,0,0,1,1.259-.734,3.762,3.762,0,0,1,1.394-.171,3.563,3.563,0,0,1,1.341.38,3.843,3.843,0,0,1,.874.638l-0.908.774c-0.278.237-.277,0.648,0.135,0.713s1.886,0.3,2.58.4c0.6,0.091.809-.042,0.826-0.7C36.986,10.184,37,8.669,36.98,8.134Zm-1.388,4.781s-0.111.3-.181,0.45a3.77,3.77,0,0,1-.888,1.194,3.593,3.593,0,0,1-1.261.742,3.738,3.738,0,0,1-1.4.172,3.545,3.545,0,0,1-1.343-.384,3.852,3.852,0,0,1-.875-0.645l0.91-.783c0.279-.24.278-0.654-0.135-0.72s-1.889-.3-2.584-0.408c-0.6-.092-0.811.042-0.827,0.712C27,13.782,26.989,15.314,27,15.854c0.015,0.5.253,0.585,0.564,0.369v0l0.019-.017c0.027-.02.054-0.038,0.082-0.062l0.861-.74A5.164,5.164,0,0,0,29.9,16.456a4.908,4.908,0,0,0,1.895.539,5.127,5.127,0,0,0,1.939-.242,5.025,5.025,0,0,0,1.77-1.039,5.271,5.271,0,0,0,1.245-1.673c0.1-.2.248-0.621,0.248-0.621Z"/>
</svg>
