<svg xmlns="http://www.w3.org/2000/svg" width="40" height="40" viewBox="0 0 40 40">
  <metadata><?xpacket begin="﻿" id="W5M0MpCehiHzreSzNTczkc9d"?>
<x:xmpmeta xmlns:x="adobe:ns:meta/" x:xmptk="Adobe XMP Core 5.6-c138 79.159824, 2016/09/14-01:09:01        ">
   <rdf:RDF xmlns:rdf="http://www.w3.org/1999/02/22-rdf-syntax-ns#">
      <rdf:Description rdf:about=""/>
   </rdf:RDF>
</x:xmpmeta>
                                                                                                    
                                                                                                    
                                                                                                    
                                                                                                    
                                                                                                    
                                                                                                    
                                                                                                    
                                                                                                    
                                                                                                    
                                                                                                    
                                                                                                    
                                                                                                    
                                                                                                    
                                                                                                    
                                                                                                    
                                                                                                    
                                                                                                    
                                                                                                    
                                                                                                    
                                                                                                    
                           
<?xpacket end="w"?></metadata>
<defs>
    <style>
      .cls-1 {
        fill: #fff;
      }

      .cls-1, .cls-2, .cls-3 {
        fill-rule: evenodd;
      }

      .cls-2 {
        fill: #555;
      }

      .cls-3 {
        fill: #44ce5e;
      }
    </style>
  </defs>
  <path id="w" class="cls-1" d="M32,19.007a7,7,0,1,1,7-7A7,7,0,0,1,32,19.007ZM20.023,18.8a4.883,4.883,0,1,1,4.953-4.883A4.924,4.924,0,0,1,20.023,18.8ZM20,20a6.412,6.412,0,0,0,3.829-1.347,8.491,8.491,0,0,1,4.727,5.728l0.251,1.032,0,0.02a10.672,10.672,0,0,1,.181,1.945c0,3.5-4.831,4.663-8.968,4.663s-8.968-1.162-8.968-4.663a10.669,10.669,0,0,1,.181-1.945l0.008-.039,0.247-1.012a8.491,8.491,0,0,1,4.727-5.729A6.2,6.2,0,0,0,20,20Z"/>
  <path id="b" class="cls-2" d="M22.011,11.789a2.953,2.953,0,1,0,.612,3.649,9.95,9.95,0,0,0,.931,1.892,4.916,4.916,0,1,1-3.531-8.3A4.946,4.946,0,0,1,22.3,9.6,9.985,9.985,0,0,0,22.011,11.789Zm-4.056,8.1-0.879.567a7.688,7.688,0,0,0-3.856,6.907c0.018,1,2.439,2.555,6.8,2.555,3.526,0,6.8-1.522,6.8-2.543,0-2.822-1.53-5.766-3.876-6.92,0,0-.9-0.492-0.976-0.567,0.449-.262,1.854-1.237,1.854-1.237a8.491,8.491,0,0,1,4.727,5.728l0.251,1.032,0,0.02a10.672,10.672,0,0,1,.181,1.945c0,3.5-4.831,4.663-8.968,4.663s-8.968-1.162-8.968-4.663a10.669,10.669,0,0,1,.181-1.945l0.008-.039,0.247-1.012a8.491,8.491,0,0,1,4.727-5.729A6.667,6.667,0,0,0,17.954,19.891Zm-4.926-2.272a3.2,3.2,0,0,1-3.715-2.537,3.158,3.158,0,0,1,2.574-3.662,3.214,3.214,0,0,1,1.306.036l0.2,0.046-0.093.179a5.233,5.233,0,0,0-.358.871l-0.041.132-0.138-.022a1.89,1.89,0,0,0-2.19,2.195A1.918,1.918,0,0,0,12.8,16.38a1.616,1.616,0,0,0,.22-0.062l0.17-.055,0.061,0.124a5.206,5.206,0,0,0,.494.805l0.12,0.162-0.188.077A3.233,3.233,0,0,1,13.029,17.619Zm-3.6-.287a3.523,3.523,0,0,0,.72.656l0.227,0.156-0.25.116A5.3,5.3,0,0,0,7.359,23c0,0.563.208,1.109,1.572,1.425l0.163,0.037-0.327,1.3-0.15-.036C6.569,25.246,6.081,24.275,6.081,23a6.549,6.549,0,0,1,3.145-5.707l0.117-.064ZM32.687,23a5.5,5.5,0,0,0-.112-1.036,10.032,10.032,0,0,0,1.274-.149A6.923,6.923,0,0,1,33.966,23c0,1.275-.488,2.245-2.535,2.731l-0.315-1.307C32.48,24.109,32.687,23.563,32.687,23Z"/>
  <path id="g" class="cls-3" d="M32,20.008a8,8,0,1,1,8-8A8,8,0,0,1,32,20.008ZM36,11.5a0.5,0.5,0,0,0-.5-0.5H33V8.5A0.5,0.5,0,0,0,32.5,8h-1a0.5,0.5,0,0,0-.5.5V11H28.5a0.5,0.5,0,0,0-.5.5v1a0.5,0.5,0,0,0,.5.5H31v2.5a0.5,0.5,0,0,0,.5.5h1a0.5,0.5,0,0,0,.5-0.5V13h2.5a0.5,0.5,0,0,0,.5-0.5v-1Z"/>
</svg>
