<svg xmlns="http://www.w3.org/2000/svg" width="40" height="40" viewBox="0 0 40 40">
  <metadata><?xpacket begin="﻿" id="W5M0MpCehiHzreSzNTczkc9d"?>
<x:xmpmeta xmlns:x="adobe:ns:meta/" x:xmptk="Adobe XMP Core 5.6-c138 79.159824, 2016/09/14-01:09:01        ">
   <rdf:RDF xmlns:rdf="http://www.w3.org/1999/02/22-rdf-syntax-ns#">
      <rdf:Description rdf:about=""/>
   </rdf:RDF>
</x:xmpmeta>
                                                                                                    
                                                                                                    
                                                                                                    
                                                                                                    
                                                                                                    
                                                                                                    
                                                                                                    
                                                                                                    
                                                                                                    
                                                                                                    
                                                                                                    
                                                                                                    
                                                                                                    
                                                                                                    
                                                                                                    
                                                                                                    
                                                                                                    
                                                                                                    
                                                                                                    
                                                                                                    
                           
<?xpacket end="w"?></metadata>
<defs>
    <style>
      .cls-1 {
        fill: #fff;
      }

      .cls-1, .cls-2, .cls-3 {
        fill-rule: evenodd;
      }

      .cls-2 {
        fill: #555;
      }

      .cls-3 {
        fill: #44ce5e;
      }
    </style>
  </defs>
  <path id="w" class="cls-1" d="M32,19.007a6.971,6.971,0,0,1-6-3.447V29H14V20.992H10.981v-5H14V11H25.1A6.987,6.987,0,1,1,32,19.007Z"/>
  <path id="b" class="cls-2" d="M22,11.992S22,12,22,12H15v2H13V10h9.2A10.042,10.042,0,0,0,22,11.992Zm9,9.95V25H27v5H13V25H9V18a3,3,0,0,1,3-3H22.462A10.007,10.007,0,0,0,31,21.942ZM12,17a1,1,0,1,0,1,1A1,1,0,0,0,12,17Zm3,11H25V20H15v8Z"/>
  <path id="g" class="cls-3" d="M32,20.008a8,8,0,1,1,8-8A8,8,0,0,1,32,20.008ZM31.5,9.84a1.267,1.267,0,0,1,.74-0.176,4.39,4.39,0,0,1,1.15.117,5.78,5.78,0,0,1,.654.189l0.221-.024,0.4-1.411-0.089-.15a4.5,4.5,0,0,0-.789-0.237,5.392,5.392,0,0,0-.946-0.1V7H31.168V8.151A2.688,2.688,0,0,0,29.7,8.92a2.046,2.046,0,0,0-.6,1.477,1.9,1.9,0,0,0,.671,1.484,4.711,4.711,0,0,0,1.675.855,4.129,4.129,0,0,1,1.034.442,0.552,0.552,0,0,1,.3.447,0.475,0.475,0,0,1-.3.416,1.866,1.866,0,0,1-.851.177,4.13,4.13,0,0,1-1.1-.122,4.59,4.59,0,0,1-.884-0.259l-0.223-.042-0.394,1.57,0.074,0.122a4.056,4.056,0,0,0,.938.286,6.392,6.392,0,0,0,1.086.106V17h1.68V15.768a2.746,2.746,0,0,0,1.574-.8A2.1,2.1,0,0,0,35,13.465a2.032,2.032,0,0,0-.52-1.45,3.929,3.929,0,0,0-1.694-.953,5.669,5.669,0,0,1-1.173-.487,0.487,0.487,0,0,1-.291-0.389A0.425,0.425,0,0,1,31.5,9.84Z"/>
</svg>
