<svg xmlns="http://www.w3.org/2000/svg" width="40" height="40" viewBox="0 0 40 40">
  <defs>
    <style>
      .cls-1 {
        fill: #fff;
      }

      .cls-1, .cls-2, .cls-3 {
        fill-rule: evenodd;
      }

      .cls-2 {
        fill: #555;
      }

      .cls-3 {
        fill: #44ce5e;
      }
    </style>
  </defs>
  <path id="w" class="cls-1" d="M29,11H21V8L9,11V29l12,3V29h8V11Zm3-6a7,7,0,1,1-7,7A7,7,0,0,1,32,5Z"/>
  <path id="b" class="cls-2" d="M20,33L8.993,29.955A1.977,1.977,0,0,1,8,29V28H8V12H8V11a1.717,1.717,0,0,1,.993-0.955L20,7c1.5,0,2,.563,2,2V31C22,32.5,21.5,33,20,33ZM20,9L10,12V28l10,3V9ZM17,19a1,1,0,1,1-1,1A1,1,0,0,1,17,19Zm11,2.173a9.912,9.912,0,0,0,2,.637V28a2,2,0,0,1-2,2H24V28h4V21.173Z"/>
  <path id="g" class="cls-3" d="M32,20.008a8,8,0,1,1,8-8A8,8,0,0,1,32,20.008Zm3.861-5.548L33,12.049V7.364a0.357,0.357,0,0,0-.334-0.376H31.332A0.357,0.357,0,0,0,31,7.364v5.272a0.4,0.4,0,0,0,.043.173,0.387,0.387,0,0,0,.114.293l3.29,2.775a0.357,0.357,0,0,0,.5.029l0.945-.945A0.357,0.357,0,0,0,35.861,14.46Z"/>
</svg>
