<svg xmlns="http://www.w3.org/2000/svg" width="40" height="40" viewBox="0 0 40 40">
  <defs>
    <style>
      .cls-1 {
        fill: #fff;
      }

      .cls-1, .cls-2, .cls-3 {
        fill-rule: evenodd;
      }

      .cls-2 {
        fill: #555;
      }

      .cls-3 {
        fill: #44ce5e;
      }
    </style>
  </defs>
  <path id="w" class="cls-1" d="M10,12H30V29H10V12ZM6,20h8V30H6V20Zm3-2h2V32H9V18ZM29,6a7,7,0,1,1-7,7A7,7,0,0,1,29,6Z"/>
  <path id="b" class="cls-2" d="M19,12.991S19,13,19,13H11v3.014H9V13a2,2,0,0,1,2-2h8.2A10.045,10.045,0,0,0,19,12.991ZM9,17.009h4a2,2,0,0,1,2,2V31a2,2,0,0,1-2,2H7a2,2,0,0,1-2-2V19.006a2,2,0,0,1,2-2H9ZM11,18H9v0.99h2V18ZM9,32h2V31.01H9V32ZM6,20.006V30h8V20.006H6ZM34,28h0v2H16V27H31Zm-17-.99,1,1h4l1-1H17ZM29,27V22.991h0a10.043,10.043,0,0,0,2-.2V27H29Z"/>
  <path id="g" class="cls-3" d="M29,21.008a8,8,0,1,1,8-8A8,8,0,0,1,29,21.008Zm3.437-8.255s0,0,0,0A3.212,3.212,0,0,0,29.266,9.5a3.169,3.169,0,0,0-2.98,2.175c-0.059-.005-0.116-0.018-0.176-0.018A2.172,2.172,0,0,0,26.094,16v0h6.344v0A1.623,1.623,0,0,0,32.437,12.753Z"/>
</svg>
