<?xml version="1.0" encoding="utf-8"?>
<!-- Generator: Adobe Illustrator 16.0.0, SVG Export Plug-In . SVG Version: 6.00 Build 0)  -->
<!DOCTYPE svg PUBLIC "-//W3C//DTD SVG 1.1//EN" "http://www.w3.org/Graphics/SVG/1.1/DTD/svg11.dtd">
<svg version="1.1" id="W_1_" xmlns="http://www.w3.org/2000/svg" xmlns:xlink="http://www.w3.org/1999/xlink" x="0px" y="0px"
	 width="96.48px" height="124px" viewBox="-24.241 -31 96.48 124" enable-background="new -24.241 -31 96.48 124"
	 xml:space="preserve">
<g id="_x3D__x5D__2_">
	<path opacity="0.9" fill="#333333" enable-background="new    " d="M63.979,1.002c-8,0-8-0.002-8,7.994
		c0,4.012-0.029,4.006-4.008,4.006c-12.063,0-51.969,0-55.988,0s-4,0.012-4-4c0-7.998-0.03-8-8.014-8c-7.984,0-7.986,0.006-7.986,8
		c0,2.652,0,4.032,0,8s0.032,4,3.992,4h88.004c3.967,0,4-0.032,4-4s0-5.348,0-8C71.979,1.008,71.979,1.002,63.979,1.002z"/>
	<g opacity="0.9" enable-background="new    ">
		<path fill-rule="evenodd" clip-rule="evenodd" fill="#333333" d="M0.081-26.616c2.826-2.826,2.824-2.821,5.651,0.006
			c1.85,1.85,11.174,11.174,14.143,14.143c2.827,2.827,2.832,2.826,0.005,5.651c-2.826,2.826-2.824,2.821-5.651-0.005
			C11.26-9.79,1.936-19.114,0.086-20.964C-2.741-23.791-2.746-23.79,0.081-26.616z"/>
		<path fill-rule="evenodd" clip-rule="evenodd" fill="#333333" d="M19.883-26.618c-2.822-2.822-2.821-2.818-5.644,0.006
			C12.392-24.765,3.08-15.453,0.115-12.488c-2.824,2.823-2.828,2.822-0.006,5.644S2.93-4.026,5.753-6.85
			C8.718-9.814,18.03-19.126,19.877-20.974C22.701-23.797,22.706-23.796,19.883-26.618z"/>
		<path fill-rule="evenodd" clip-rule="evenodd" fill="#333333" d="M28.08-26.616c2.826-2.826,2.824-2.821,5.651,0.006
			c1.851,1.85,11.175,11.174,14.143,14.143c2.827,2.827,2.832,2.826,0.006,5.651c-2.826,2.826-2.824,2.821-5.651-0.005
			C39.26-9.79,29.936-19.114,28.086-20.964C25.259-23.791,25.255-23.79,28.08-26.616z"/>
		<path fill-rule="evenodd" clip-rule="evenodd" fill="#333333" d="M47.883-26.618c-2.822-2.822-2.82-2.818-5.644,0.006
			c-1.848,1.847-11.159,11.159-14.124,14.124c-2.823,2.823-2.828,2.822-0.006,5.644s2.82,2.818,5.645-0.006
			c2.964-2.964,12.276-12.276,14.124-14.124C50.701-23.797,50.705-23.796,47.883-26.618z"/>
	</g>
	<g id="Layer_10">
		<g id="shadow_2_" opacity="0.1">
			<g>
				<path d="M63.982,22.088c-3.533-1.777-8.004-3.936-8.004-3.936H-7.964c0,0-4.905,2.254-7.994,3.936
					c-2.865,1.559-7.991,3.878-7.991,15.758v35.459c0,7.875,0,7.875,7.991,7.875H-1.97c3.452,0,4.548,1.004,5.464,1.418
					c3.584,2.031,7.866,4.461,11.834,6.711c8.706,4.938,8.681,4.91,17.412-0.027c3.545-2.012,8.234-4.691,11.678-6.629
					c0.672-0.348,2.535-1.473,5.564-1.473h13.988c7.955,0,7.996,0,7.996-7.875V37.848C71.967,26.1,68.121,24.17,63.982,22.088z"/>
			</g>
		</g>
		<g id="Gradient">
			<g>
				
					<linearGradient id="SVGID_1_" gradientUnits="userSpaceOnUse" x1="-173.9487" y1="-988.9268" x2="-173.9487" y2="-913.6738" gradientTransform="matrix(1 0 0 -1 198 -901)">
					<stop  offset="0.7312" style="stop-color:#FFFFFF"/>
					<stop  offset="0.7663" style="stop-color:#FBFBFB"/>
					<stop  offset="0.8021" style="stop-color:#EFEFEF"/>
					<stop  offset="0.8383" style="stop-color:#DADADA"/>
					<stop  offset="0.8746" style="stop-color:#BEBEBE"/>
					<stop  offset="0.9112" style="stop-color:#999999"/>
					<stop  offset="0.9474" style="stop-color:#6C6C6C"/>
					<stop  offset="0.9785" style="stop-color:#404040"/>
				</linearGradient>
				<path fill="url(#SVGID_1_)" d="M64.053,16.956c-3.533-1.788-8.443-4.282-8.443-4.282s-0.012,0.301-1.631,0.301
					c-0.893,0-59.382,0.01-60.172,0.01c-0.729,0-1.158-0.311-1.158-0.311s-5.51,2.586-8.598,4.282c-2.868,1.574-8,3.918-8,15.899
					c0,10.102,0,32.793,0,35.773c0,7.959,0,7.959,8,7.959c0.985,0,7.924,0,17.372,0c0.97,0.316,1.569,0.709,2.073,0.947
					c3.584,2.029,7.866,4.459,11.834,6.709c8.706,4.93,8.681,4.902,17.414-0.033c3.541-2.012,8.232-4.684,11.676-6.627
					c0.387-0.201,1.213-0.639,2.383-0.992c7.947,0,14.334,0,17.248,0c7.961,0,8.002,0,8.002-7.955s0-25.676,0-35.773
					C72.051,21.004,68.203,19.059,64.053,16.956z"/>
			</g>
		</g>
		<path opacity="0.1" enable-background="new    " d="M-1.949,20.21c2.598,0,3.689,0.668,4.483,1.147
			c0.19,0.119,12.342,7.721,12.342,7.721c4.503,2.822,6.834,4.238,9.166,4.238c2.329,0,4.653-1.408,9.124-4.209l11.932-7.491
			c0.707-0.418,2.371-1.406,4.951-1.406h18.744c-0.797-0.882-1.688-1.552-2.633-2.122H50.049c-3.074,0-5.041,1.166-5.881,1.666
			l-11.969,7.514c-4.16,2.606-6.25,3.912-8.15,3.912c-0.005,0-0.007,0-0.011,0c-1.909,0-4.008-1.317-8.191-3.943
			c0,0-12.206-7.641-12.364-7.734c-0.93-0.558-2.33-1.414-5.432-1.414h-15.967c-0.817,0.528-1.676,1.196-2.483,2.122H-1.949
			L-1.949,20.21z"/>
		<path opacity="0.1" enable-background="new    " d="M32.572,66.758c-1.959,1.141-5.041,2.781-6.852,3.793
			c-1.158,0.633-2.252,0.66-3.424,0c-1.834-1.043-6.528-3.621-6.853-3.793c-3.25-1.852-3.424-1.277-3.424,2.027
			c0,3.293-0.036,4.027,1.686,4.977c1.723,0.941,4.276,2.371,6.584,3.656c3.73,2.074,3.721,2.066,7.46-0.012
			c2.213-1.23,5.471-3.059,6.598-3.668c1.645-0.887,1.65-1.637,1.65-4.941C35.996,65.492,35.91,64.813,32.572,66.758z M33.66,68.797
			c0,1.18,0,2.402-0.117,2.754c-0.02,0-0.113,0.074-0.32,0.18c-0.762,0.414-2.506,1.383-4.242,2.352l-2.387,1.328
			c-1.137,0.633-2.273,1.273-2.585,1.273c-0.313,0-1.458-0.637-2.568-1.258c0,0-5.37-2.992-6.594-3.664
			c-0.322-0.176-0.408-0.258-0.416-0.27c-0.078-0.23-0.078-1.395-0.078-2.516c0-0.063,0-0.129,0-0.191l1.317,0.719
			c1.61,0.875,4.204,2.309,5.459,3.031c0.926,0.523,1.896,0.789,2.867,0.789c0.964,0,1.934-0.266,2.875-0.781l2.131-1.176
			c1.572-0.863,3.342-1.824,4.656-2.582C33.66,68.789,33.66,68.793,33.66,68.797z"/>
	</g>
	<g id="Shade_1_" opacity="0.1">
		<g>
			<path d="M-13.812,1.094h-4.284c-5.568,0.063-5.846,0.646-5.854,6.064c0,0.458,0,0.906,0,1.344c0,1.55,0,2.946,0,3.938
				c0.008-6.039,0.328-6.069,7.966-6.069c5.934,0,7.523,0.032,7.952,2.718c0-0.292-0.002-0.602-0.002-0.968
				C-8.033,1.809-7.876,1.162-13.812,1.094z M71.965,8.12c0-6.312,0.156-6.958-5.777-7.026h-4.285
				c-5.568,0.063-5.846,0.646-5.854,6.064c0,0.458,0,0.906,0,1.344c0,1.55,0,2.946,0,3.938C56.057,6.4,56.375,6.37,64.016,6.37
				c5.934,0,7.523,0.032,7.951,2.718C71.967,8.796,71.965,8.488,71.965,8.12z"/>
		</g>
	</g>
</g>
</svg>
