<?xml version="1.0" encoding="utf-8"?>
<!-- Generator: Adobe Illustrator 16.0.0, SVG Export Plug-In . SVG Version: 6.00 Build 0)  -->
<!DOCTYPE svg PUBLIC "-//W3C//DTD SVG 1.1//EN" "http://www.w3.org/Graphics/SVG/1.1/DTD/svg11.dtd">
<svg version="1.1" id="W_1_" xmlns="http://www.w3.org/2000/svg" xmlns:xlink="http://www.w3.org/1999/xlink" x="0px" y="0px"
	 width="174px" height="88px" viewBox="0 0 174 88" enable-background="new 0 0 174 88" xml:space="preserve">
<g id="booxi_2_">
	<g id="shade" opacity="0.102">
		<g>
			<path d="M170.005,50.005c3.992,0,3.981-0.021,3.981-3.015s-0.032-2.999-4.008-2.999c-3.979,0-3.981,0.024-3.981,3.003
				C165.997,49.973,166.014,50.005,170.005,50.005z M169.98,52.001c-3.982,0-3.984-0.017-3.984,3.967c0,3.984,0,19.007,0,22.028
				c0,4.011,0.002,4.008,3.998,4.008c3.998,0,3.999-0.011,3.999-3.994c0-2.998,0-18.045,0-22.027
				C173.993,51.999,173.963,52.001,169.98,52.001z M160.09,52c-3.941,0-4.136,0.107-5.234,2.001
				c-0.334,0.577-1.063,1.808-1.898,3.224c-0.311,0.488-0.271,0.717,0.038,1.279c0.616,1.059,1.18,2.043,1.651,2.877
				c0.658,1.159,0.892,1.623,1.599,2.876c0.706,1.188,1.304,0.759,1.749,0c1.334-2.305,3.576-6.214,4.797-8.266
				C165.104,52.091,164.031,52,160.09,52z M157.992,69.742c-0.445-0.758-1.043-1.189-1.749,0c-0.707,1.254-0.938,1.717-1.597,2.877
				c-0.476,0.834-1.035,1.818-1.653,2.877c-0.312,0.563-0.347,0.791-0.038,1.279c0.836,1.416,1.566,2.646,1.9,3.224
				c1.099,1.894,1.293,2.001,5.232,2.001s5.016-0.091,2.699-3.991C161.57,75.957,159.326,72.048,157.992,69.742z M99.979,51.998
				c-11.938,0-11.977-0.021-11.977,11.977v6.051c0,11.934-0.018,11.966,11.977,11.966c12.033,0,12.016-0.005,12.016-11.966v-6.019
				C111.992,52.032,111.986,51.998,99.979,51.998z M103.996,69.989c0,3.987-0.025,4.006-4.025,4.006
				c-3.984,0-3.969-0.019-3.969-4.006V63.98c0-3.974,0.014-3.967,3.969-3.967c4.018,0,4.025,0.028,4.025,3.967V69.989z
				 M73.995,52.003c-1.014,0-2.95,0.003-3.993,0.233c0,0,0-0.229,0-4.234c0-4.009-0.016-4.007-4.008-4.007
				c-3.992,0-4.002-0.002-4.002,3.989c0,3.994,0,21.965,0,21.965c0,12.058-0.044,12.037,12.005,12.037s11.992,0.029,11.992-12.01
				c0-2.396,0-5.953,0-5.953C85.989,52.009,85.998,52.003,73.995,52.003z M77.994,69.98c0,3.987,0.031,4.023-3.985,4.023
				c-4.015,0-4.023-0.036-4.023-4.023v-5.984c0-3.971,0.021-3.998,4.019-3.998c3.972,0,3.989-0.035,3.989,3.993V69.98z
				 M125.977,51.998c-11.938,0-11.976-0.021-11.976,11.977v6.051c0,11.934-0.019,11.966,11.976,11.966
				c12.033,0,12.017-0.005,12.017-11.966v-6.019C137.991,52.032,137.986,51.998,125.977,51.998z M129.995,69.989
				c0,3.987-0.026,4.006-4.026,4.006c-3.982,0-3.967-0.019-3.967-4.006V63.98c0-3.974,0.012-3.967,3.967-3.967
				c4.018,0,4.026,0.028,4.026,3.967V69.989z M153.131,62.5c-1.469-2.584-4.232-7.2-4.988-8.5c-1.099-1.893-1.293-2-5.234-2
				c-3.943,0-5.02,0.091-2.7,3.988c1.36,2.289,3.993,6.896,5.192,9.012c0.768,1.354,0.795,2.632,0,4
				c-1.234,2.145-4.982,8.617-5.203,8.995c-2.209,3.793-1.191,4.005,2.74,4.005c3.937,0,4.021-0.021,5.205-2
				c1.193-1.995,3.438-5.824,4.988-8.5C155.646,67.162,155.613,66.87,153.131,62.5z"/>
		</g>
	</g>
	<g id="booxi">
		<g>
			<path fill="#FFFFFF" d="M170.005,48.005c3.992,0,3.981-0.021,3.981-3.015s-0.032-2.999-4.008-2.999
				c-3.979,0-3.981,0.024-3.981,3.003C165.997,47.973,166.014,48.005,170.005,48.005z M169.98,50.001
				c-3.982,0-3.984-0.017-3.984,3.967c0,3.984,0,19.007,0,22.028c0,4.011,0.002,4.008,3.998,4.008c3.998,0,3.999-0.011,3.999-3.994
				c0-2.998,0-18.045,0-22.027C173.993,49.999,173.963,50.001,169.98,50.001z M160.09,50c-3.941,0-4.136,0.107-5.234,2.001
				c-0.334,0.577-1.063,1.808-1.898,3.224c-0.311,0.488-0.271,0.717,0.038,1.279c0.616,1.059,1.18,2.043,1.651,2.877
				c0.658,1.159,0.892,1.623,1.599,2.876c0.706,1.188,1.304,0.759,1.749,0c1.334-2.305,3.576-6.214,4.797-8.266
				C165.104,50.091,164.031,50,160.09,50z M157.992,67.742c-0.445-0.758-1.043-1.189-1.749,0c-0.707,1.254-0.938,1.717-1.597,2.877
				c-0.476,0.834-1.035,1.818-1.653,2.877c-0.312,0.563-0.347,0.791-0.038,1.279c0.836,1.416,1.566,2.646,1.9,3.224
				c1.099,1.894,1.293,2.001,5.232,2.001s5.016-0.091,2.699-3.991C161.57,73.957,159.326,70.048,157.992,67.742z M99.979,49.998
				c-11.938,0-11.977-0.021-11.977,11.977v6.051c0,11.934-0.018,11.966,11.977,11.966c12.033,0,12.016-0.005,12.016-11.966v-6.019
				C111.992,50.032,111.986,49.998,99.979,49.998z M103.996,67.989c0,3.987-0.025,4.006-4.025,4.006
				c-3.984,0-3.969-0.019-3.969-4.006V61.98c0-3.974,0.014-3.967,3.969-3.967c4.018,0,4.025,0.028,4.025,3.967V67.989z
				 M73.995,50.003c-1.014,0-2.95,0.003-3.993,0.233c0,0,0-0.229,0-4.234c0-4.009-0.016-4.007-4.008-4.007
				c-3.992,0-4.002-0.002-4.002,3.989c0,3.994,0,21.965,0,21.965c0,12.058-0.044,12.037,12.005,12.037s11.992,0.029,11.992-12.01
				c0-2.396,0-5.953,0-5.953C85.989,50.009,85.998,50.003,73.995,50.003z M77.994,67.98c0,3.987,0.031,4.023-3.985,4.023
				c-4.015,0-4.023-0.036-4.023-4.023v-5.984c0-3.971,0.021-3.998,4.019-3.998c3.972,0,3.989-0.035,3.989,3.993V67.98z
				 M125.977,49.998c-11.938,0-11.976-0.021-11.976,11.977v6.051c0,11.934-0.019,11.966,11.976,11.966
				c12.033,0,12.017-0.005,12.017-11.966v-6.019C137.991,50.032,137.986,49.998,125.977,49.998z M129.995,67.989
				c0,3.987-0.026,4.006-4.026,4.006c-3.982,0-3.967-0.019-3.967-4.006V61.98c0-3.974,0.012-3.967,3.967-3.967
				c4.018,0,4.026,0.028,4.026,3.967V67.989z M153.131,60.5c-1.469-2.584-4.232-7.2-4.988-8.5c-1.099-1.893-1.293-2-5.234-2
				c-3.943,0-5.02,0.091-2.7,3.988c1.36,2.289,3.993,6.896,5.192,9.012c0.768,1.354,0.795,2.632,0,4
				c-1.234,2.145-4.982,8.617-5.203,8.995c-2.209,3.793-1.191,4.005,2.74,4.005c3.937,0,4.021-0.021,5.205-2
				c1.193-1.994,3.438-5.824,4.988-8.5C155.646,65.162,155.613,64.87,153.131,60.5z"/>
		</g>
	</g>
</g>
<g id="_x3D__x5D__2_">
	<path opacity="0.9" fill="#333333" enable-background="new    " d="M43.998,42c-4,0-4-0.001-4,3.997
		c0,2.006-0.014,2.003-2.004,2.003C31.963,48,12.01,48,10,48s-2,0.006-2-2c0-3.999-0.015-4-4.007-4C0.001,42,0,42.003,0,46
		c0,1.326,0,2.016,0,4s0.016,2,1.996,2h44.002c1.984,0,2-0.016,2-2s0-2.674,0-4C47.998,42.003,47.998,42,43.998,42z M29.999,40.001
		c3.997,0,3.992-0.002,3.992-4c0-4.198,0-3.385,0-6.001c0-3.998,0.004-4-3.992-4s-3.992,0.002-3.992,4c0,2.616,0,1.803,0,6.001
		C26.006,39.999,26.002,40.001,29.999,40.001z M17.999,40.001c3.997,0,3.992-0.002,3.992-4c0-4.198,0-3.385,0-6.001
		c0-3.998,0.004-4-3.992-4s-3.992,0.002-3.992,4c0,2.616,0,1.803,0,6.001C14.007,39.999,14.002,40.001,17.999,40.001z"/>
	<g id="Layer_10">
		<g id="shadow_2_" opacity="0.1">
			<g>
				<path d="M44,52.543c-1.767-0.889-4.002-1.968-4.002-1.968H8.027c0,0-2.453,1.127-3.997,1.968
					c-1.433,0.779-3.996,1.939-3.996,7.88V78.15c0,3.938,0,3.938,3.996,3.938h6.994c1.726,0,2.274,0.502,2.732,0.71
					c1.792,1.014,3.933,2.23,5.917,3.354c4.353,2.469,4.34,2.455,8.706-0.014c1.773-1.002,4.117-2.342,5.839-3.313
					c0.336-0.175,1.267-0.736,2.782-0.736h6.994c3.978,0,3.998,0,3.998-3.938V60.423C47.992,54.549,46.069,53.584,44,52.543z"/>
			</g>
		</g>
		<g id="Gradient">
			<g>
				
					<linearGradient id="SVGID_1_" gradientUnits="userSpaceOnUse" x1="24.0347" y1="788.459" x2="24.0347" y2="750.8359" gradientTransform="matrix(1 0 0 1 0 -703)">
					<stop  offset="0.7312" style="stop-color:#FFFFFF"/>
					<stop  offset="0.7663" style="stop-color:#FBFBFB"/>
					<stop  offset="0.8021" style="stop-color:#EFEFEF"/>
					<stop  offset="0.8383" style="stop-color:#DADADA"/>
					<stop  offset="0.8746" style="stop-color:#BEBEBE"/>
					<stop  offset="0.9112" style="stop-color:#999999"/>
					<stop  offset="0.9474" style="stop-color:#6C6C6C"/>
					<stop  offset="0.9785" style="stop-color:#404040"/>
				</linearGradient>
				<path fill="url(#SVGID_1_)" d="M44.035,49.977c-1.766-0.894-4.221-2.141-4.221-2.141s-0.006,0.15-0.816,0.15
					c-0.446,0-29.691,0.005-30.086,0.005c-0.364,0-0.579-0.155-0.579-0.155s-2.755,1.293-4.299,2.141c-1.434,0.787-4,1.959-4,7.95
					c0,5.05,0,16.396,0,17.886c0,3.978,0,3.978,4,3.978c0.493,0,3.962,0,8.686,0c0.485,0.158,0.785,0.354,1.037,0.472
					c1.792,1.014,3.933,2.229,5.917,3.354c4.353,2.466,4.34,2.452,8.707-0.015c1.771-1.006,4.116-2.342,5.838-3.314
					c0.193-0.1,0.606-0.32,1.191-0.496c3.974,0,7.167,0,8.624,0c3.98,0,4.001,0,4.001-3.977s0-12.838,0-17.887
					C48.034,52.001,46.11,51.027,44.035,49.977z"/>
			</g>
		</g>
		<path opacity="0.1" enable-background="new    " d="M11.034,51.604c1.299,0,1.845,0.334,2.242,0.574
			c0.095,0.059,6.171,3.86,6.171,3.86c2.251,1.411,3.417,2.119,4.583,2.119c1.164,0,2.327-0.704,4.562-2.104l5.965-3.746
			c0.354-0.209,1.186-0.703,2.476-0.703h9.372c-0.398-0.442-0.844-0.777-1.316-1.061h-8.056c-1.537,0-2.52,0.583-2.94,0.833
			l-5.985,3.757c-2.079,1.303-3.125,1.956-4.075,1.956c-0.002,0-0.003,0-0.005,0c-0.955,0-2.004-0.659-4.096-1.972
			c0,0-6.103-3.82-6.182-3.867c-0.465-0.279-1.165-0.707-2.716-0.707H3.051c-0.409,0.264-0.838,0.598-1.242,1.061H11.034
			L11.034,51.604z"/>
		<path opacity="0.1" enable-background="new    " d="M28.295,74.877c-0.98,0.57-2.52,1.391-3.426,1.896
			c-0.579,0.319-1.126,0.33-1.712,0c-0.917-0.52-3.264-1.807-3.426-1.896c-1.625-0.925-1.712-0.638-1.712,1.014
			c0,1.645-0.018,2.012,0.843,2.488c0.861,0.471,2.138,1.186,3.292,1.829c1.865,1.037,1.86,1.033,3.73-0.006
			c1.106-0.616,2.735-1.53,3.299-1.835c0.822-0.442,0.825-0.817,0.825-2.471C30.007,74.245,29.964,73.905,28.295,74.877z
			 M28.839,75.896c0,0.59,0,1.201-0.059,1.377c-0.009,0-0.057,0.037-0.16,0.09c-0.381,0.207-1.253,0.691-2.121,1.177l-1.193,0.664
			c-0.568,0.315-1.137,0.636-1.293,0.636c-0.156,0-0.729-0.318-1.284-0.628c0,0-2.685-1.497-3.297-1.833
			c-0.161-0.088-0.204-0.129-0.208-0.135c-0.039-0.114-0.039-0.696-0.039-1.258c0-0.031,0-0.064,0-0.096l0.659,0.362
			c0.805,0.438,2.102,1.155,2.729,1.513c0.463,0.262,0.948,0.396,1.434,0.396c0.482,0,0.966-0.134,1.437-0.392l1.066-0.588
			c0.786-0.428,1.671-0.912,2.328-1.291C28.839,75.893,28.839,75.895,28.839,75.896z"/>
	</g>
	<g id="Shade_1_" opacity="0.1">
		<g>
			<path d="M29.99,26c-4.01,0-4.005,0.002-4.005,4.199c0,1.461,0,1.915,0,2.673c0-4.197-0.005-4.199,4.005-4.199
				c4.008,0,4.003,0.002,4.003,4.199c0-0.758,0-1.212,0-2.673C33.994,26.002,33.999,26,29.99,26z M17.99,26
				c-4.01,0-4.005,0.002-4.005,4.199c0,1.461,0,1.915,0,2.673c0-4.197-0.005-4.199,4.005-4.199c4.008,0,4.003,0.002,4.003,4.199
				c0-0.758,0-1.212,0-2.673C21.994,26.002,21.999,26,17.99,26z M5.103,42.046H2.961c-2.784,0.031-2.923,0.323-2.927,3.032
				c0,0.229,0,0.453,0,0.672c0,0.775,0,1.473,0,1.969c0.004-3.02,0.164-3.035,3.983-3.035c2.967,0,3.762,0.015,3.976,1.359
				c0-0.146-0.001-0.301-0.001-0.484C7.992,42.403,8.071,42.079,5.103,42.046z M47.991,45.559c0-3.156,0.079-3.479-2.889-3.513
				H42.96c-2.784,0.031-2.923,0.323-2.927,3.032c0,0.229,0,0.453,0,0.672c0,0.775,0,1.473,0,1.969
				c0.004-3.02,0.164-3.035,3.983-3.035c2.967,0,3.762,0.015,3.976,1.359C47.992,45.896,47.991,45.742,47.991,45.559z"/>
		</g>
	</g>
</g>
<g id="Slogan_1_">
	<g id="Shade" opacity="0.102">
		<g>
			<path d="M3.681,7.9C1.871,7.477,1.16,7.243,1.16,5.818c0-1.221,0.786-1.722,2.24-1.722c0.86,0,2.907,0.25,2.907,0.25L6.41,3.251
				c0,0-1.869-0.313-3.011-0.313c-2.091,0-3.382,0.876-3.382,2.911c0,2.129,1.053,2.661,3.174,3.146
				c1.676,0.345,2.284,0.688,2.284,1.91c0,1.502-0.727,2.081-2.181,2.081c-1.053,0-3.026-0.266-3.026-0.266L0.15,13.817
				c0,0,2.032,0.329,3.16,0.329c2.062,0,3.322-0.939,3.322-3.288C6.632,8.918,5.728,8.386,3.681,7.9z M15.667,6.021
				c-1.023,0-2.254,0.532-2.685,0.705c-0.296-0.376-0.742-0.595-1.364-0.657c-0.238-0.031-0.52-0.016-0.816,0.016
				C9.838,6.147,8.949,6.711,8.949,6.711V6.179H7.836v7.826h1.113V7.682c0,0,0.994-0.58,1.987-0.58c1.35,0,1.558,0.705,1.558,2.865
				v4.038h1.112V9.936c0-0.939-0.059-1.895-0.178-2.254c0.029-0.016,1.068-0.58,2.076-0.58c1.409,0,1.558,0.799,1.558,3.193v3.71
				h1.112V9.936C18.174,7.039,17.685,6.021,15.667,6.021z M25.046,12.424V8.573c0-1.769-0.771-2.552-2.344-2.552
				c-1.142,0-2.922,0.313-2.922,0.313l0.044,1.018c0,0,1.75-0.203,2.833-0.203c0.815,0,1.291,0.438,1.291,1.424v0.642L21.604,9.45
				c-1.528,0.141-2.255,0.813-2.255,2.316c0,1.534,0.727,2.396,2.018,2.396c1.409,0,2.744-0.596,2.744-0.596
				c0.385,0.423,0.86,0.596,1.75,0.596l0.044-1.018C25.431,13.082,25.075,12.925,25.046,12.424z M23.948,12.675
				c0,0-1.291,0.47-2.418,0.47c-0.667,0-1.053-0.501-1.053-1.409c0-0.798,0.371-1.283,1.276-1.377l2.195-0.188V12.675z
				 M28.326,6.179h-1.112v7.826h1.112V8.323c0,0,1.187-0.799,2.581-1.08V6.021c-1.439,0.282-2.581,1.19-2.581,1.19V6.179z
				 M34.987,13.066c-0.979,0-1.068-0.47-1.068-2.176V7.243h2.344V6.179h-2.344V3.783h-1.112v2.396h-1.053v1.064h1.053v4.069
				c0,2.254,0.534,2.865,2.062,2.865c0.52,0,1.499-0.173,1.499-0.173l-0.06-1.018C36.307,12.987,35.402,13.066,34.987,13.066z
				 M46.767,12.143V8.604c0-1.847-0.846-2.583-2.433-2.583c-1.127,0-2.981,0.313-2.981,0.313l0.06,1.283c0,0,1.75-0.188,2.848-0.188
				c0.697,0,1.098,0.392,1.098,1.189v0.563l-2.077,0.188c-1.572,0.141-2.373,0.751-2.373,2.348c0,1.55,0.742,2.458,2.077,2.458
				c1.29,0,2.581-0.579,2.581-0.579c0.416,0.391,0.846,0.563,1.884,0.563l0.044-1.269C47.048,12.831,46.781,12.675,46.767,12.143z
				 M45.357,12.503c0,0-1.172,0.391-2.121,0.391c-0.579,0-0.905-0.423-0.905-1.205c0-0.735,0.341-1.127,1.112-1.189l1.914-0.156
				V12.503z M52.479,6.021c-0.979,0-2.032,0.643-2.032,0.643v-0.47h-1.395v11.224h1.395v-3.413c0.133,0.031,0.875,0.173,1.528,0.173
				c2.269,0,3.278-1.002,3.278-4.164C55.253,7.134,54.378,6.021,52.479,6.021z M51.886,12.831c-0.578,0-1.305-0.109-1.438-0.125
				V7.885c0,0,0.994-0.517,1.794-0.517c0.994,0,1.572,0.673,1.572,2.63C53.814,12.064,53.354,12.831,51.886,12.831z M62.879,10.014
				c0-2.88-0.875-3.992-2.774-3.992c-0.979,0-2.032,0.643-2.032,0.643v-0.47h-1.394v11.224h1.394v-3.413
				c0.134,0.031,0.875,0.173,1.528,0.173C61.871,14.178,62.879,13.176,62.879,10.014z M59.512,12.831
				c-0.579,0-1.305-0.109-1.439-0.125V7.885c0,0,0.994-0.517,1.795-0.517c0.994,0,1.572,0.673,1.572,2.63
				C61.44,12.064,60.98,12.831,59.512,12.831z M67.628,14.178c2.521,0,3.233-1.519,3.233-4.146c0-2.583-0.89-4.008-3.233-4.008
				c-2.433,0-3.263,1.394-3.263,4.008C64.365,12.722,65.091,14.178,67.628,14.178z M67.628,7.353c1.32,0,1.81,0.813,1.81,2.677
				c0,1.862-0.282,2.802-1.81,2.802s-1.839-0.86-1.839-2.802C65.789,8.104,66.204,7.353,67.628,7.353z M73.623,3.032h-1.409v1.644
				h1.409V3.032z M73.623,6.194h-1.409v7.811h1.409V6.194z M77.198,7.869c0,0,1.068-0.47,1.899-0.47
				c1.187,0,1.379,0.767,1.379,2.536v4.069h1.409V9.92c0-2.724-0.489-3.898-2.551-3.898c-0.919,0-2.136,0.627-2.136,0.627V6.194
				h-1.394v7.811h1.394C77.198,14.005,77.198,7.869,77.198,7.869z M84.187,11.281c0,2.254,0.519,2.896,2.136,2.896
				c0.519,0,1.513-0.188,1.513-0.188l-0.074-1.283c0,0-0.846,0.078-1.261,0.078c-0.846,0-0.92-0.438-0.92-1.847V7.524h2.181v-1.33
				h-2.181V3.846h-1.394v2.349h-0.994v1.33h0.994V11.281z M93.785,9.982v4.022h1.395V9.951c0-0.846-0.06-1.832-0.146-2.066
				C95.061,7.854,96.012,7.4,96.887,7.4c1.305,0,1.396,0.814,1.396,3.053v3.553h1.395V9.92c0-2.818-0.52-3.898-2.536-3.898
				c-0.964,0-2.104,0.47-2.641,0.689c-0.341-0.407-0.814-0.626-1.514-0.657c-0.223-0.016-0.504,0-0.785,0.047
				c-0.831,0.109-1.588,0.563-1.588,0.563v-0.47h-1.381v7.811h1.396V7.869c0,0,0.95-0.47,1.767-0.47
				C93.607,7.399,93.785,8.072,93.785,9.982z M104.305,14.178c1.262,0,2.952-0.329,2.952-0.329l-0.03-1.174
				c0,0-1.586,0.141-2.729,0.141c-1.32,0-1.795-0.688-1.795-2.098h4.717l0.089-1.08c0-2.504-1.022-3.616-3.069-3.616
				c-1.974,0-3.16,1.222-3.16,4.133C101.279,12.862,102.08,14.162,104.305,14.178z M104.438,7.337c1.188,0,1.679,0.595,1.679,2.223
				h-3.429C102.703,7.979,103.281,7.337,104.438,7.337z M112.717,6.021c-0.919,0-2.135,0.627-2.135,0.627V6.194h-1.395v7.811h1.395
				V7.869c0,0,1.066-0.47,1.898-0.47c1.186,0,1.379,0.767,1.379,2.536v4.069h1.408V9.92C115.27,7.196,114.779,6.021,112.717,6.021z
				 M117.57,11.281c0,2.254,0.52,2.896,2.136,2.896c0.519,0,1.513-0.188,1.513-0.188l-0.074-1.283c0,0-0.846,0.078-1.261,0.078
				c-0.845,0-0.919-0.438-0.919-1.847V7.524h2.18v-1.33h-2.18V3.846h-1.395v2.349h-0.994v1.33h0.994V11.281z M132.924,10.014
				c0-2.99-0.979-4.008-2.996-4.008c-0.652,0-1.602,0.36-1.602,0.36V3.048h-1.988v10.926c0,0,2.182,0.22,2.893,0.22
				C131.842,14.193,132.924,13.363,132.924,10.014z M129.23,12.299c-0.225,0-0.904-0.078-0.904-0.078V8.072
				c0,0,0.846-0.125,1.335-0.125c0.771,0,1.246,0.501,1.246,2.066C130.907,11.688,130.596,12.299,129.23,12.299z M137.229,14.193
				c2.58,0,3.412-1.69,3.412-4.102c0-2.41-0.832-4.086-3.412-4.086c-2.582,0-3.412,1.676-3.412,4.086
				C133.816,12.503,134.646,14.193,137.229,14.193z M137.229,7.9c1.1,0,1.396,0.751,1.396,2.191c0,1.44-0.297,2.207-1.396,2.207
				c-1.098,0-1.395-0.767-1.395-2.207C135.834,8.651,136.131,7.9,137.229,7.9z M144.943,14.193c2.58,0,3.412-1.69,3.412-4.102
				c0-2.41-0.832-4.086-3.412-4.086c-2.582,0-3.412,1.676-3.412,4.086C141.531,12.503,142.361,14.193,144.943,14.193z M144.943,7.9
				c1.098,0,1.395,0.751,1.395,2.191c0,1.44-0.297,2.207-1.395,2.207s-1.396-0.767-1.396-2.207
				C143.548,8.651,143.846,7.9,144.943,7.9z M153.727,14.005h2.24l-2.018-4.116l1.912-3.694h-2.225l-1.47,2.817l-0.757,0.156v-6.12
				h-1.986v10.957h1.986v-2.786l0.801-0.156L153.727,14.005z M158.355,3.032h-1.986v2.145h1.986V3.032z M158.355,6.194h-1.986v7.811
				h1.986V6.194z M161.591,8.229c0,0,0.935-0.267,1.425-0.267c0.889,0,1.037,0.768,1.037,1.957v4.085h1.988V9.92
				c0-2.536-0.535-3.914-2.611-3.914c-0.697,0-1.839,0.532-1.839,0.532V6.194h-1.987v7.811h1.987V8.229L161.591,8.229z
				 M166.71,15.43c0,1.909,1.409,2.332,3.575,2.332c1.913,0,3.516-0.782,3.516-2.786c0-1.753-0.713-2.363-3.234-2.363
				c-1.26,0-1.438-0.109-1.438-0.517c0-0.204,0.148-0.61,0.148-0.61c0.134,0.031,0.443,0.063,0.606,0.063
				c2.031,0,3.13-0.563,3.13-2.755c0-0.454-0.134-0.721-0.252-0.939h0.936V6.179l-2.284,0.047c0,0-0.847-0.204-1.498-0.204
				c-1.735,0-3.115,0.752-3.115,2.771c0,1.361,0.49,1.94,1.009,2.332c0,0-0.578,0.861-0.578,1.252c0,0.485,0.209,0.939,0.535,1.174
				C167.021,14.162,166.71,14.71,166.71,15.43z M169.898,7.807c0.802,0,1.158,0.281,1.158,0.986c0,0.751-0.371,1.001-1.174,1.001
				c-0.814,0-1.098-0.313-1.098-1.001C168.787,8.104,169.098,7.807,169.898,7.807z M169.068,14.318c0,0,0.92,0.109,1.334,0.109
				c1.099,0.016,1.396,0.078,1.396,0.673c0,0.563-0.534,0.783-1.498,0.783c-1.112,0-1.632-0.22-1.632-0.673
				C168.668,14.819,168.816,14.584,169.068,14.318z M61.339,20.246h3.159v9.532h1.127v-9.532h3.13v-1.135h-7.417L61.339,20.246
				L61.339,20.246z M72.94,21.962c-1.038,0-2.284,0.521-2.284,0.521V18.59h-1.112v11.188h1.112v-6.314c0,0,1.127-0.444,2.121-0.444
				c1.335,0,1.558,0.751,1.558,2.774v3.984h1.112v-4C75.447,23.004,74.987,21.962,72.94,21.962z M82.613,28.23v-3.77
				c0-1.731-0.771-2.498-2.344-2.498c-1.142,0-2.922,0.307-2.922,0.307l0.044,0.996c0,0,1.75-0.199,2.833-0.199
				c0.816,0,1.291,0.43,1.291,1.395v0.629l-2.344,0.229c-1.528,0.139-2.254,0.797-2.254,2.269c0,1.502,0.727,2.345,2.017,2.345
				c1.409,0,2.744-0.582,2.744-0.582c0.386,0.413,0.86,0.582,1.75,0.582l0.044-0.996C82.999,28.874,82.643,28.721,82.613,28.23z
				 M81.516,28.476c0,0-1.291,0.46-2.418,0.46c-0.667,0-1.053-0.49-1.053-1.379c0-0.782,0.371-1.257,1.276-1.349l2.195-0.185V28.476
				z M87.125,28.859c-0.98,0-1.069-0.46-1.069-2.131v-3.571H88.4v-1.042h-2.344V19.77h-1.112v2.345h-1.053v1.042h1.053v3.985
				c0,2.207,0.534,2.805,2.062,2.805c0.52,0,1.498-0.169,1.498-0.169l-0.061-0.996C88.443,28.782,87.539,28.859,87.125,28.859z
				 M100.225,28.476h-0.283L98.4,22.269h-1.483l-1.543,6.207h-0.281l-1.306-6.345h-1.395l1.631,7.647h2.3l1.319-5.563l1.319,5.563
				h2.313l1.646-7.647h-1.396L100.225,28.476z M106.738,21.962c-2.432,0-3.264,1.364-3.264,3.924c0,2.636,0.728,4.063,3.264,4.063
				c2.521,0,3.234-1.486,3.234-4.063C109.973,23.356,109.082,21.962,106.738,21.962z M106.738,28.629
				c-1.527,0-1.84-0.843-1.84-2.743c0-1.885,0.416-2.621,1.84-2.621c1.32,0,1.811,0.797,1.811,2.621
				C108.549,27.71,108.266,28.629,106.738,28.629z M112.496,22.131h-1.395v7.647h1.395v-5.364c0,0,1.053-0.658,2.418-0.935v-1.532
				c-1.365,0.275-2.418,1.088-2.418,1.088V22.131z M121.619,22.131h-1.587l-1.958,2.927l-1.01,0.093v-6.284h-1.395v10.912h1.395
				V26.56l1.039-0.092l1.986,3.311h1.586l-2.343-4.092L121.619,22.131z M125.077,25.227c-1.351-0.229-1.69-0.398-1.69-0.98
				c0-0.751,0.533-0.981,1.424-0.981c0.92,0,2.625,0.245,2.625,0.245l0.029-1.226c0,0-1.646-0.322-2.744-0.322
				c-1.408,0-2.744,0.598-2.744,2.314c0,1.563,0.832,1.946,2.688,2.269c1.318,0.215,1.631,0.367,1.631,1.012
				c0,0.827-0.504,1.072-1.631,1.072c-0.757,0-2.507-0.245-2.507-0.245l-0.062,1.241c0,0,1.691,0.322,2.687,0.322
				c1.81,0,2.923-0.644,2.923-2.438C127.703,26.008,127.035,25.549,125.077,25.227z M132.438,21.778v0.353h-0.801v1.854h0.801v5.793
				h1.986v-5.793h1.795v-1.854h-1.795v-0.337c0-0.767,0.148-1.058,0.713-1.058c0.475,0,1.127,0.03,1.127,0.03l0.029-1.67
				c0,0-1.201-0.199-1.689-0.199C132.986,18.897,132.438,19.571,132.438,21.778z M139.959,21.947c-2.582,0-3.412,1.64-3.412,4
				c0,2.36,0.83,4.016,3.412,4.016c2.58,0,3.411-1.655,3.411-4.016C143.37,23.586,142.539,21.947,139.959,21.947z M139.959,28.108
				c-1.098,0-1.395-0.751-1.395-2.161c0-1.41,0.297-2.146,1.395-2.146s1.395,0.735,1.395,2.146
				C141.354,27.358,141.057,28.108,139.959,28.108z M146.428,22.131h-1.988v7.647h1.988v-4.966c0,0,0.756-0.398,2.063-0.658v-2.207
				c-1.173,0.229-2.063,0.904-2.063,0.904V22.131z M155.744,27.771h-0.342l-1.351-5.64h-1.956l1.822,7.647h1.336l-0.758,3.203h1.959
				l2.596-10.851h-1.958L155.744,27.771z M162.658,21.947c-2.58,0-3.411,1.64-3.411,4c0,2.36,0.831,4.016,3.411,4.016
				s3.412-1.655,3.412-4.016C166.07,23.586,165.238,21.947,162.658,21.947z M162.658,28.108c-1.098,0-1.395-0.751-1.395-2.161
				c0-1.41,0.297-2.146,1.395-2.146s1.395,0.735,1.395,2.146C164.053,27.358,163.756,28.108,162.658,28.108z M171.486,27.848
				c0,0-0.937,0.261-1.424,0.261c-0.994,0-1.039-0.599-1.039-1.978v-4h-1.986v4c0,2.621,0.443,3.832,2.609,3.832
				c0.683,0,1.84-0.506,1.84-0.506v0.321h1.986v-7.647h-1.986V27.848z"/>
		</g>
	</g>
	<g id="Smart_appointment_booking_That_works_for_you">
		<g>
			<path fill="#FFFFFF" d="M3.681,5.9C1.871,5.477,1.16,5.243,1.16,3.818c0-1.221,0.786-1.722,2.24-1.722
				c0.86,0,2.907,0.25,2.907,0.25L6.41,1.251c0,0-1.869-0.313-3.011-0.313c-2.091,0-3.382,0.876-3.382,2.911
				c0,2.129,1.053,2.661,3.174,3.146c1.676,0.345,2.284,0.688,2.284,1.91c0,1.502-0.727,2.081-2.181,2.081
				c-1.053,0-3.026-0.266-3.026-0.266L0.15,11.817c0,0,2.032,0.329,3.16,0.329c2.062,0,3.322-0.939,3.322-3.288
				C6.632,6.918,5.728,6.386,3.681,5.9z M15.667,4.021c-1.023,0-2.254,0.532-2.685,0.705c-0.296-0.376-0.742-0.595-1.364-0.657
				c-0.238-0.032-0.52-0.016-0.816,0.016C9.838,4.147,8.949,4.711,8.949,4.711V4.179H7.836v7.826h1.113V5.682
				c0,0,0.994-0.58,1.987-0.58c1.35,0,1.558,0.705,1.558,2.865v4.038h1.112V7.936c0-0.939-0.059-1.895-0.178-2.254
				c0.029-0.017,1.068-0.58,2.076-0.58c1.409,0,1.558,0.799,1.558,3.193v3.71h1.112V7.936C18.174,5.039,17.685,4.021,15.667,4.021z
				 M25.046,10.424V6.573c0-1.769-0.771-2.552-2.344-2.552c-1.142,0-2.922,0.313-2.922,0.313l0.044,1.018
				c0,0,1.75-0.203,2.833-0.203c0.815,0,1.291,0.438,1.291,1.424v0.642L21.604,7.45c-1.528,0.141-2.255,0.813-2.255,2.316
				c0,1.534,0.727,2.396,2.018,2.396c1.409,0,2.744-0.596,2.744-0.596c0.385,0.423,0.86,0.596,1.75,0.596l0.044-1.018
				C25.431,11.082,25.075,10.925,25.046,10.424z M23.948,10.675c0,0-1.291,0.47-2.418,0.47c-0.667,0-1.053-0.501-1.053-1.409
				c0-0.798,0.371-1.283,1.276-1.377l2.195-0.188V10.675z M28.326,4.179h-1.112v7.826h1.112V6.323c0,0,1.187-0.799,2.581-1.08V4.021
				c-1.439,0.282-2.581,1.19-2.581,1.19V4.179z M34.987,11.066c-0.979,0-1.068-0.47-1.068-2.176V5.243h2.344V4.179h-2.344V1.783
				h-1.112v2.396h-1.053v1.064h1.053v4.069c0,2.254,0.534,2.865,2.062,2.865c0.52,0,1.499-0.173,1.499-0.173l-0.06-1.018
				C36.307,10.987,35.402,11.066,34.987,11.066z M46.767,10.143V6.604c0-1.847-0.846-2.583-2.433-2.583
				c-1.127,0-2.981,0.313-2.981,0.313l0.06,1.283c0,0,1.75-0.188,2.848-0.188c0.697,0,1.098,0.392,1.098,1.189v0.563l-2.077,0.188
				C41.71,7.51,40.909,8.12,40.909,9.717c0,1.55,0.742,2.458,2.077,2.458c1.29,0,2.581-0.58,2.581-0.58
				c0.416,0.392,0.846,0.564,1.884,0.564l0.044-1.269C47.048,10.831,46.781,10.675,46.767,10.143z M45.357,10.503
				c0,0-1.172,0.391-2.121,0.391c-0.579,0-0.905-0.423-0.905-1.205c0-0.735,0.341-1.127,1.112-1.189l1.914-0.157V10.503z
				 M52.479,4.021c-0.979,0-2.032,0.643-2.032,0.643v-0.47h-1.395v11.224h1.395v-3.413c0.133,0.031,0.875,0.173,1.528,0.173
				c2.269,0,3.278-1.002,3.278-4.164C55.253,5.134,54.378,4.021,52.479,4.021z M51.886,10.831c-0.578,0-1.305-0.109-1.438-0.125
				V5.885c0,0,0.994-0.517,1.794-0.517c0.994,0,1.572,0.673,1.572,2.63C53.814,10.064,53.354,10.831,51.886,10.831z M62.879,8.014
				c0-2.88-0.875-3.992-2.774-3.992c-0.979,0-2.032,0.643-2.032,0.643v-0.47h-1.394v11.224h1.394v-3.413
				c0.134,0.031,0.875,0.173,1.528,0.173C61.871,12.178,62.879,11.176,62.879,8.014z M59.512,10.831
				c-0.579,0-1.305-0.109-1.439-0.125V5.885c0,0,0.994-0.517,1.795-0.517c0.994,0,1.572,0.673,1.572,2.63
				C61.44,10.064,60.98,10.831,59.512,10.831z M67.628,12.178c2.521,0,3.233-1.519,3.233-4.146c0-2.583-0.89-4.008-3.233-4.008
				c-2.433,0-3.263,1.394-3.263,4.008C64.365,10.722,65.091,12.178,67.628,12.178z M67.628,5.353c1.32,0,1.81,0.813,1.81,2.677
				c0,1.862-0.282,2.802-1.81,2.802s-1.839-0.861-1.839-2.802C65.789,6.104,66.204,5.353,67.628,5.353z M73.623,4.194h-1.409v7.811
				h1.409V4.194z M73.623,1.032h-1.409v1.644h1.409V1.032z M77.198,5.869c0,0,1.068-0.47,1.899-0.47
				c1.187,0,1.379,0.767,1.379,2.536v4.069h1.409V7.92c0-2.724-0.489-3.898-2.551-3.898c-0.919,0-2.136,0.627-2.136,0.627V4.194
				h-1.394v7.811h1.394C77.198,12.005,77.198,5.869,77.198,5.869z M84.187,9.281c0,2.254,0.519,2.896,2.136,2.896
				c0.519,0,1.513-0.188,1.513-0.188l-0.074-1.283c0,0-0.846,0.078-1.261,0.078c-0.846,0-0.92-0.438-0.92-1.847V5.524h2.181v-1.33
				h-2.181V1.846h-1.394v2.349h-0.994v1.33h0.994V9.281z M93.785,7.982v4.022h1.395V7.951c0-0.846-0.06-1.832-0.146-2.066
				C95.061,5.854,96.012,5.4,96.887,5.4c1.305,0,1.396,0.814,1.396,3.053v3.553h1.395V7.92c0-2.818-0.52-3.898-2.536-3.898
				c-0.964,0-2.104,0.47-2.641,0.689c-0.341-0.407-0.814-0.626-1.514-0.657c-0.223-0.017-0.504,0-0.785,0.047
				c-0.831,0.109-1.588,0.563-1.588,0.563v-0.47h-1.381v7.811h1.396V5.869c0,0,0.95-0.47,1.767-0.47
				C93.607,5.399,93.785,6.072,93.785,7.982z M104.305,12.178c1.262,0,2.952-0.329,2.952-0.329l-0.03-1.174
				c0,0-1.586,0.141-2.729,0.141c-1.32,0-1.795-0.688-1.795-2.098h4.717l0.089-1.08c0-2.504-1.022-3.616-3.069-3.616
				c-1.974,0-3.16,1.222-3.16,4.133C101.279,10.862,102.08,12.162,104.305,12.178z M104.438,5.337c1.188,0,1.679,0.595,1.679,2.223
				h-3.429C102.703,5.979,103.281,5.337,104.438,5.337z M112.717,4.021c-0.919,0-2.135,0.627-2.135,0.627V4.194h-1.395v7.811h1.395
				V5.869c0,0,1.066-0.47,1.898-0.47c1.186,0,1.379,0.767,1.379,2.536v4.069h1.408V7.92C115.27,5.196,114.779,4.021,112.717,4.021z
				 M117.57,9.281c0,2.254,0.52,2.896,2.136,2.896c0.519,0,1.513-0.188,1.513-0.188l-0.074-1.283c0,0-0.846,0.078-1.261,0.078
				c-0.845,0-0.919-0.438-0.919-1.847V5.524h2.18v-1.33h-2.18V1.846h-1.395v2.349h-0.994v1.33h0.994V9.281z M132.924,8.014
				c0-2.99-0.979-4.008-2.996-4.008c-0.652,0-1.602,0.36-1.602,0.36V1.048h-1.988v10.926c0,0,2.182,0.22,2.893,0.22
				C131.842,12.193,132.924,11.363,132.924,8.014z M129.23,10.299c-0.225,0-0.904-0.078-0.904-0.078V6.072
				c0,0,0.846-0.125,1.335-0.125c0.771,0,1.246,0.501,1.246,2.066C130.907,9.688,130.596,10.299,129.23,10.299z M137.229,12.193
				c2.58,0,3.412-1.69,3.412-4.102c0-2.41-0.832-4.086-3.412-4.086c-2.582,0-3.412,1.676-3.412,4.086
				C133.816,10.503,134.646,12.193,137.229,12.193z M137.229,5.9c1.1,0,1.396,0.751,1.396,2.191c0,1.44-0.297,2.207-1.396,2.207
				c-1.098,0-1.395-0.767-1.395-2.207C135.834,6.651,136.131,5.9,137.229,5.9z M144.943,12.193c2.58,0,3.412-1.69,3.412-4.102
				c0-2.41-0.832-4.086-3.412-4.086c-2.582,0-3.412,1.676-3.412,4.086C141.531,10.503,142.361,12.193,144.943,12.193z M144.943,5.9
				c1.098,0,1.395,0.751,1.395,2.191c0,1.44-0.297,2.207-1.395,2.207s-1.396-0.767-1.396-2.207
				C143.548,6.651,143.846,5.9,144.943,5.9z M153.727,12.005h2.24l-2.018-4.116l1.912-3.694h-2.225l-1.47,2.817l-0.757,0.156v-6.12
				h-1.986v10.957h1.986V9.219l0.801-0.156L153.727,12.005z M158.355,1.032h-1.986v2.145h1.986V1.032z M158.355,4.194h-1.986v7.811
				h1.986V4.194z M161.591,6.229c0,0,0.935-0.267,1.425-0.267c0.889,0,1.037,0.768,1.037,1.957v4.085h1.988V7.92
				c0-2.536-0.535-3.914-2.611-3.914c-0.697,0-1.839,0.532-1.839,0.532V4.194h-1.987v7.811h1.987V6.229L161.591,6.229z
				 M166.71,13.43c0,1.909,1.409,2.332,3.575,2.332c1.913,0,3.516-0.782,3.516-2.786c0-1.753-0.713-2.363-3.234-2.363
				c-1.26,0-1.438-0.109-1.438-0.517c0-0.204,0.148-0.61,0.148-0.61c0.134,0.031,0.443,0.063,0.606,0.063
				c2.031,0,3.13-0.563,3.13-2.755c0-0.454-0.134-0.721-0.252-0.939h0.936V4.179l-2.284,0.047c0,0-0.847-0.204-1.498-0.204
				c-1.735,0-3.115,0.752-3.115,2.771c0,1.361,0.49,1.94,1.009,2.332c0,0-0.578,0.861-0.578,1.252c0,0.485,0.209,0.939,0.535,1.174
				C167.021,12.162,166.71,12.71,166.71,13.43z M169.898,5.807c0.802,0,1.158,0.281,1.158,0.986c0,0.751-0.371,1.001-1.174,1.001
				c-0.814,0-1.098-0.313-1.098-1.001C168.787,6.104,169.098,5.807,169.898,5.807z M169.068,12.318c0,0,0.92,0.109,1.334,0.109
				c1.099,0.016,1.396,0.078,1.396,0.673c0,0.563-0.534,0.783-1.498,0.783c-1.112,0-1.632-0.22-1.632-0.673
				C168.668,12.819,168.816,12.584,169.068,12.318z M61.339,18.246h3.159v9.532h1.127v-9.532h3.13v-1.135h-7.417L61.339,18.246
				L61.339,18.246z M72.94,19.962c-1.038,0-2.284,0.521-2.284,0.521V16.59h-1.112v11.188h1.112v-6.314c0,0,1.127-0.444,2.121-0.444
				c1.335,0,1.558,0.751,1.558,2.774v3.984h1.112v-4C75.447,21.004,74.987,19.962,72.94,19.962z M82.613,26.23v-3.77
				c0-1.731-0.771-2.498-2.344-2.498c-1.142,0-2.922,0.307-2.922,0.307l0.044,0.996c0,0,1.75-0.199,2.833-0.199
				c0.816,0,1.291,0.43,1.291,1.395v0.629l-2.344,0.229c-1.528,0.139-2.254,0.797-2.254,2.269c0,1.502,0.727,2.345,2.017,2.345
				c1.409,0,2.744-0.582,2.744-0.582c0.386,0.413,0.86,0.582,1.75,0.582l0.044-0.996C82.999,26.874,82.643,26.721,82.613,26.23z
				 M81.516,26.476c0,0-1.291,0.46-2.418,0.46c-0.667,0-1.053-0.49-1.053-1.379c0-0.782,0.371-1.257,1.276-1.349l2.195-0.185V26.476
				z M87.125,26.859c-0.98,0-1.069-0.46-1.069-2.131v-3.571H88.4v-1.042h-2.344V17.77h-1.112v2.345h-1.053v1.042h1.053v3.985
				c0,2.207,0.534,2.805,2.062,2.805c0.52,0,1.498-0.169,1.498-0.169l-0.061-0.996C88.443,26.782,87.539,26.859,87.125,26.859z
				 M100.225,26.476h-0.283L98.4,20.269h-1.483l-1.543,6.207h-0.281l-1.306-6.345h-1.395l1.631,7.647h2.3l1.319-5.563l1.319,5.563
				h2.313l1.646-7.647h-1.396L100.225,26.476z M106.738,19.962c-2.432,0-3.264,1.364-3.264,3.924c0,2.636,0.728,4.063,3.264,4.063
				c2.521,0,3.234-1.486,3.234-4.063C109.973,21.356,109.082,19.962,106.738,19.962z M106.738,26.629
				c-1.527,0-1.84-0.843-1.84-2.743c0-1.885,0.416-2.621,1.84-2.621c1.32,0,1.811,0.797,1.811,2.621
				C108.549,25.71,108.266,26.629,106.738,26.629z M112.496,20.131h-1.395v7.647h1.395v-5.364c0,0,1.053-0.659,2.418-0.935v-1.532
				c-1.365,0.275-2.418,1.088-2.418,1.088V20.131z M121.619,20.131h-1.587l-1.958,2.927l-1.01,0.093v-6.284h-1.395v10.912h1.395
				V24.56l1.039-0.092l1.986,3.311h1.586l-2.343-4.092L121.619,20.131z M125.077,23.227c-1.351-0.229-1.69-0.398-1.69-0.98
				c0-0.751,0.533-0.981,1.424-0.981c0.92,0,2.625,0.245,2.625,0.245l0.029-1.226c0,0-1.646-0.322-2.744-0.322
				c-1.408,0-2.744,0.598-2.744,2.314c0,1.563,0.832,1.946,2.688,2.269c1.318,0.214,1.631,0.367,1.631,1.012
				c0,0.827-0.504,1.072-1.631,1.072c-0.757,0-2.507-0.245-2.507-0.245l-0.062,1.241c0,0,1.691,0.322,2.687,0.322
				c1.81,0,2.923-0.644,2.923-2.438C127.703,24.008,127.035,23.549,125.077,23.227z M132.438,19.778v0.353h-0.801v1.854h0.801v5.793
				h1.986v-5.793h1.795v-1.854h-1.795v-0.337c0-0.767,0.148-1.058,0.713-1.058c0.475,0,1.127,0.03,1.127,0.03l0.029-1.67
				c0,0-1.201-0.199-1.689-0.199C132.986,16.897,132.438,17.571,132.438,19.778z M139.959,19.947c-2.582,0-3.412,1.64-3.412,4
				c0,2.36,0.83,4.016,3.412,4.016c2.58,0,3.411-1.655,3.411-4.016C143.37,21.586,142.539,19.947,139.959,19.947z M139.959,26.108
				c-1.098,0-1.395-0.751-1.395-2.161c0-1.41,0.297-2.146,1.395-2.146s1.395,0.735,1.395,2.146
				C141.354,25.358,141.057,26.108,139.959,26.108z M146.428,20.131h-1.988v7.647h1.988v-4.966c0,0,0.756-0.398,2.063-0.658v-2.207
				c-1.173,0.229-2.063,0.904-2.063,0.904V20.131z M155.744,25.771h-0.342l-1.351-5.64h-1.956l1.822,7.647h1.336l-0.758,3.203h1.959
				l2.596-10.851h-1.958L155.744,25.771z M162.658,19.947c-2.58,0-3.411,1.64-3.411,4c0,2.36,0.831,4.016,3.411,4.016
				s3.412-1.655,3.412-4.016C166.07,21.586,165.238,19.947,162.658,19.947z M162.658,26.108c-1.098,0-1.395-0.751-1.395-2.161
				c0-1.41,0.297-2.146,1.395-2.146s1.395,0.735,1.395,2.146C164.053,25.358,163.756,26.108,162.658,26.108z M171.486,25.848
				c0,0-0.937,0.261-1.424,0.261c-0.994,0-1.039-0.599-1.039-1.978v-4h-1.986v4c0,2.621,0.443,3.832,2.609,3.832
				c0.683,0,1.84-0.506,1.84-0.506v0.321h1.986v-7.647h-1.986V25.848z"/>
		</g>
	</g>
</g>
</svg>
