<?xml version="1.0" encoding="utf-8"?>
<!-- Generator: Adobe Illustrator 16.0.0, SVG Export Plug-In . SVG Version: 6.00 Build 0)  -->
<!DOCTYPE svg PUBLIC "-//W3C//DTD SVG 1.1//EN" "http://www.w3.org/Graphics/SVG/1.1/DTD/svg11.dtd">
<svg version="1.1" id="M_1_" xmlns="http://www.w3.org/2000/svg" xmlns:xlink="http://www.w3.org/1999/xlink" x="0px" y="0px"
	 width="56px" height="84px" viewBox="0 0 56 84" enable-background="new 0 0 56 84" xml:space="preserve">
<g id="_x3D___x5D__2_">
	<g id="_x3D__x5D__1_">
		<g id="_x3D___x5D_">
			<g>
				<path fill="#555555" d="M48.003,16c-4,0-4-0.001-4,3.998c0,2.005-0.016,2.002-2.004,2.002H14.005c-2.01,0-2,0.006-2-2
					c0-3.999-0.015-4-4.007-4c-3.992,0-3.993,0.003-3.993,4v4c0,1.984,0.016,2,1.996,2h44.002c1.982,0,2-0.016,2-2v-4
					C52.003,16.003,52.003,16,48.003,16z M34.004,14.001c3.997,0,3.992-0.002,3.992-4c0-4.198,0-3.385,0-6.001
					c0-3.998,0.004-4-3.992-4s-3.992,0.002-3.992,4c0,2.616,0,1.803,0,6.001C30.011,13.999,30.007,14.001,34.004,14.001z
					 M22.004,14.001c3.997,0,3.992-0.002,3.992-4c0-4.198,0-3.385,0-6.001c0-3.998,0.004-4-3.992-4s-3.992,0.002-3.992,4
					c0,2.616,0,1.803,0,6.001C18.012,13.999,18.007,14.001,22.004,14.001z"/>
			</g>
		</g>
	</g>
	<g id="Ticket_1_">
		<g id="Fake_White">
			<g>
				<path fill="#FFFFFF" d="M46.503,24H9.505c0,0-5.25,0-5.25,7.9v17.752c0,3.938,0,3.938,3.94,3.938h6.879
					c1.701,0,2.242,0.501,2.692,0.71c1.767,1.013,3.878,2.229,5.833,3.354c4.292,2.467,4.279,2.455,8.583-0.016
					c1.747-1.006,4.06-2.343,5.759-3.313c0.33-0.177,1.248-0.735,2.744-0.735h6.879c3.92,0,3.938,0,3.938-3.938V31.9
					C51.503,24.025,46.503,24,46.503,24z"/>
			</g>
		</g>
		<g id="_x2D_-_v_--__4px">
			<g>
				<path fill="#555555" d="M41.003,24.997c-1.535,0-2.52,0.537-2.938,0.767l-5.984,3.457c-2.08,1.199-3.124,1.803-4.077,1.803
					h-0.003c-0.956-0.002-2.006-0.606-4.098-1.815c0,0-6.102-3.515-6.182-3.56C17.257,25.391,16.556,25,15.004,25H6.505v0.978h8.5
					c1.3,0,1.845,0.307,2.244,0.527c0.095,0.055,6.17,3.553,6.17,3.553c2.251,1.301,3.418,1.948,4.584,1.948
					c1.163-0.001,2.325-0.646,4.563-1.937l5.965-3.445c0.354-0.191,1.186-0.646,2.474-0.646h8.5V25L41.003,24.997L41.003,24.997z"/>
			</g>
		</g>
		<g id="Ticket__x28_Full_x29_">
			<g>
				<path fill="#555555" d="M48.006,23.999H8.005c0,0-4,0.001-4,8.001v18c0,4,0,4,4,4h7c1.727,0,2.276,0.509,2.733,0.721
					c1.794,1.027,3.937,2.264,5.923,3.404c4.357,2.506,4.344,2.493,8.713-0.016c1.771-1.021,4.119-2.375,5.844-3.363
					C38.553,54.568,39.483,54,41.003,54h7c3.979,0,4,0,4-4V32C52.003,24,48.006,23.999,48.006,23.999z M50.003,50c0,2,0.01,2-2,2
					c-3.09,0-7.673,0-7.673,0c-0.013,0.021-0.021,0.035-0.021,0.035c-1.438,0-2.32,0.541-2.638,0.711
					c-1.632,0.941-3.854,2.234-5.533,3.204c-4.136,2.389-4.124,2.399-8.248,0.015c-1.88-1.088-3.908-2.265-5.607-3.242
					c-0.433-0.203-0.953-0.688-2.587-0.688c0,0-0.007-0.016-0.018-0.035c0.002,0-5.674,0-7.674,0s-2,0-2-2V32c0-8.021,6-8,6-8
					h31.999c0,0,6,0,6,8L50.003,50L50.003,50z"/>
			</g>
		</g>
		<g id="V__-_4_px">
			<g>
				<path fill="#555555" d="M32.289,48.798c-0.98,0.579-2.521,1.414-3.428,1.925c-0.582,0.326-1.128,0.34-1.714,0
					c-0.919-0.521-3.266-1.83-3.429-1.925c-1.625-0.938-1.714-0.646-1.714,1.026c0,1.674-0.018,2.047,0.844,2.527
					c0.862,0.479,2.14,1.207,3.294,1.854c1.868,1.06,1.862,1.05,3.734-0.007c1.106-0.624,2.736-1.559,3.302-1.861
					c0.822-0.443,0.825-0.832,0.825-2.509C34.004,48.156,33.96,47.813,32.289,48.798z M32.704,51.475
					c-0.384,0.209-1.214,0.684-2.095,1.178c-0.424,0.242-1.242,0.703-1.242,0.703c-0.674,0.381-1.16,0.654-1.363,0.654
					c-0.206,0-0.696-0.277-1.375-0.66l-0.841-0.476c-0.902-0.511-1.801-1.019-2.458-1.386c-0.337-0.188-0.337-0.188-0.336-1.564
					v-0.1c0-0.07,0-0.178,0.001-0.297c0.068,0.037,0.143,0.08,0.227,0.127c0.056,0.033,0.357,0.201,0.769,0.432
					c0.809,0.452,2.053,1.146,2.664,1.496c0.436,0.252,0.889,0.38,1.343,0.38c0.451,0,0.904-0.126,1.348-0.376
					c0.297-0.167,0.66-0.368,1.049-0.584c0.811-0.447,1.728-0.955,2.397-1.352c0.081-0.047,0.152-0.09,0.22-0.127
					c0.001,0.109,0.001,0.224,0.001,0.311C33.014,51.305,33.014,51.305,32.704,51.475z"/>
			</g>
		</g>
	</g>
</g>
<g id="booxi">
	<g>
		<path fill="#555555" d="M54.006,67.002c1.996,0,1.992-0.01,1.992-1.507s-0.019-1.499-2.007-1.499
			c-1.986,0-1.989,0.012-1.989,1.501S52.01,67.002,54.006,67.002z M53.993,68c-1.99,0-1.991-0.008-1.991,1.982
			c0,1.992,0,9.504,0,11.016c0,2.006,0.001,2.004,2,2.004C56,83.002,56,82.996,56,81.005c0-1.499,0-9.022,0-11.014
			C56,67.999,55.985,68,53.993,68z M49.049,68c-1.971,0-2.067,0.055-2.617,1.001c-0.167,0.288-0.532,0.903-0.95,1.61
			c-0.153,0.244-0.137,0.358,0.02,0.641c0.311,0.528,0.59,1.021,0.827,1.438c0.329,0.58,0.444,0.813,0.798,1.438
			c0.354,0.595,0.652,0.379,0.875,0c0.668-1.151,1.789-3.106,2.398-4.134C51.557,68.046,51.021,68,49.049,68z M48,76.871
			c-0.224-0.379-0.521-0.596-0.875,0c-0.354,0.627-0.47,0.857-0.798,1.438c-0.237,0.418-0.518,0.91-0.827,1.438
			c-0.155,0.28-0.173,0.396-0.021,0.642c0.42,0.707,0.784,1.321,0.951,1.609C46.981,82.945,47.078,83,49.049,83
			c1.972,0,2.508-0.046,1.351-1.995C49.789,79.979,48.668,78.023,48,76.871z M18.993,67.999c-5.969,0-5.988-0.011-5.988,5.987v3.025
			c0,5.967-0.009,5.982,5.988,5.982c6.016,0,6.007-0.002,6.007-5.982v-3.01C25.001,68.018,24.998,67.999,18.993,67.999z
			 M21.002,76.995c0,1.993-0.013,2.003-2.013,2.003c-1.992,0-1.984-0.01-1.984-2.003V73.99c0-1.986,0.006-1.983,1.984-1.983
			c2.008,0,2.013,0.017,2.013,1.983V76.995z M6.002,68.001c-0.507,0-1.475,0.002-1.997,0.117c0,0,0-0.113,0-2.117
			s-0.008-2.003-2.004-2.003S0,63.997,0,65.993s0,10.981,0,10.981c0,6.028-0.022,6.019,6.003,6.019s5.996,0.015,5.996-6.004
			c0-1.197,0-2.979,0-2.979C11.999,68.004,12.003,68.001,6.002,68.001z M8.001,76.99c0,1.994,0.015,2.013-1.992,2.013
			c-2.008,0-2.012-0.019-2.012-2.013v-2.992c0-1.984,0.011-1.999,2.01-1.999c1.985,0,1.994-0.019,1.994,1.996V76.99z M31.992,67.999
			c-5.969,0-5.988-0.011-5.988,5.987v3.025c0,5.967-0.009,5.982,5.988,5.982c6.017,0,6.008-0.002,6.008-5.982v-3.01
			C38,68.018,37.997,67.999,31.992,67.999z M34.002,76.995c0,1.993-0.015,2.003-2.014,2.003c-1.992,0-1.984-0.01-1.984-2.003V73.99
			c0-1.986,0.008-1.983,1.984-1.983c2.009,0,2.014,0.017,2.014,1.983V76.995z M45.567,73.25c-0.732-1.292-2.114-3.602-2.492-4.25
			c-0.551-0.945-0.646-1-2.618-1s-2.509,0.046-1.351,1.994c0.681,1.146,1.996,3.447,2.597,4.506c0.384,0.677,0.397,1.316,0,2
			c-0.617,1.072-2.49,4.309-2.603,4.497C37.998,82.895,38.506,83,40.473,83c1.968,0,2.011-0.011,2.603-1
			c0.598-0.997,1.719-2.912,2.494-4.25C46.825,75.581,46.812,75.436,45.567,73.25z"/>
	</g>
</g>
</svg>
