<?xml version="1.0" encoding="utf-8"?>
<!-- Generator: Adobe Illustrator 16.0.0, SVG Export Plug-In . SVG Version: 6.00 Build 0)  -->
<!DOCTYPE svg PUBLIC "-//W3C//DTD SVG 1.1//EN" "http://www.w3.org/Graphics/SVG/1.1/DTD/svg11.dtd">
<svg version="1.1" id="M_1_" xmlns="http://www.w3.org/2000/svg" xmlns:xlink="http://www.w3.org/1999/xlink" x="0px" y="0px"
	 width="174px" height="62px" viewBox="0 0 174 62" enable-background="new 0 0 174 62" xml:space="preserve">
<g id="interviewapp_2_">
	<g id="interviewapp">
		<g>
			<path fill="#555555" d="M169.98,24.001c-3.982,0-3.984-0.017-3.984,3.967c0,3.984,0,19.007,0,22.028
				c0,4.011,0.002,4.009,3.998,4.009c3.998,0,3.999-0.012,3.999-3.995c0-2.998,0-18.045,0-22.027
				C173.993,23.999,173.963,24.001,169.98,24.001z M170.005,22.005c3.992,0,3.981-0.021,3.981-3.015s-0.032-2.999-4.008-2.999
				c-3.979,0-3.981,0.024-3.981,3.003S166.014,22.005,170.005,22.005z M160.09,24c-3.941,0-4.136,0.107-5.234,2.001
				c-0.334,0.577-1.063,1.808-1.898,3.224c-0.311,0.488-0.271,0.717,0.038,1.279c0.616,1.059,1.18,2.043,1.651,2.877
				c0.658,1.159,0.892,1.623,1.599,2.877c0.706,1.188,1.304,0.758,1.749,0c1.334-2.306,3.576-6.215,4.797-8.267
				C165.104,24.091,164.031,24,160.09,24z M157.992,41.742c-0.445-0.758-1.043-1.189-1.749,0c-0.707,1.254-0.938,1.717-1.597,2.877
				c-0.476,0.834-1.035,1.818-1.653,2.877c-0.312,0.563-0.347,0.791-0.038,1.279c0.836,1.416,1.566,2.646,1.9,3.224
				c1.099,1.894,1.293,2.001,5.232,2.001s5.016-0.091,2.699-3.991C161.57,47.957,159.326,44.048,157.992,41.742z M99.979,23.999
				c-11.938,0-11.977-0.022-11.977,11.976v6.051c0,11.934-0.018,11.966,11.977,11.966c12.033,0,12.016-0.005,12.016-11.966v-6.019
				C111.992,24.032,111.986,23.999,99.979,23.999z M103.996,41.989c0,3.987-0.025,4.006-4.025,4.006
				c-3.984,0-3.969-0.019-3.969-4.006V35.98c0-3.974,0.014-3.967,3.969-3.967c4.018,0,4.025,0.028,4.025,3.967V41.989z
				 M73.996,24.003c-1.014,0-2.95,0.003-3.994,0.233c0,0,0-0.229,0-4.234c0-4.009-0.016-4.007-4.008-4.007
				c-3.992,0-4.002-0.002-4.002,3.991c0,3.992,0,21.963,0,21.963c0,12.058-0.044,12.037,12.005,12.037
				c12.05,0,11.992,0.029,11.992-12.01c0-2.396,0-5.953,0-5.953C85.989,24.009,85.998,24.003,73.996,24.003z M77.994,41.98
				c0,3.987,0.031,4.023-3.985,4.023c-4.015,0-4.023-0.036-4.023-4.023v-5.984c0-3.971,0.021-3.998,4.019-3.998
				c3.972,0,3.989-0.035,3.989,3.993V41.98z M125.977,23.999c-11.938,0-11.976-0.022-11.976,11.976v6.051
				c0,11.934-0.019,11.966,11.976,11.966c12.033,0,12.018-0.005,12.018-11.966v-6.019C137.992,24.032,137.986,23.999,125.977,23.999
				z M129.995,41.989c0,3.987-0.026,4.006-4.026,4.006c-3.982,0-3.967-0.019-3.967-4.006V35.98c0-3.974,0.012-3.967,3.967-3.967
				c4.018,0,4.026,0.028,4.026,3.967V41.989z M153.131,34.5c-1.469-2.584-4.232-7.2-4.988-8.5c-1.099-1.893-1.293-2-5.234-2
				c-3.943,0-5.02,0.091-2.7,3.988c1.36,2.289,3.993,6.896,5.192,9.012c0.768,1.354,0.795,2.632,0,4
				c-1.234,2.145-4.982,8.617-5.203,8.995c-2.209,3.793-1.191,4.005,2.74,4.005c3.937,0,4.021-0.021,5.205-2
				c1.193-1.994,3.438-5.824,4.988-8.5C155.646,39.162,155.613,38.87,153.131,34.5z"/>
		</g>
	</g>
</g>
<g id="_x3D___x5D__2_">
	<g id="_x3D__x5D__1_">
		<g id="_x3D___x5D_">
			<g>
				<path fill="#555555" d="M43.998,16c-4,0-4-0.001-4,3.998c0,2.005-0.014,2.002-2.004,2.002H10c-2.01,0-2,0.006-2-2
					c0-3.999-0.015-4-4.007-4C0.001,16,0,16.003,0,20v4c0,1.984,0.016,2,1.996,2h44.002c1.984,0,2-0.016,2-2v-4
					C47.998,16.003,47.998,16,43.998,16z M29.999,14.001c3.997,0,3.992-0.002,3.992-4c0-4.198,0-3.385,0-6.001
					c0-3.998,0.004-4-3.992-4s-3.992,0.002-3.992,4c0,2.616,0,1.803,0,6.001C26.006,13.999,26.002,14.001,29.999,14.001z
					 M17.999,14.001c3.997,0,3.992-0.002,3.992-4c0-4.198,0-3.385,0-6.001c0-3.998,0.004-4-3.992-4s-3.992,0.002-3.992,4
					c0,2.616,0,1.803,0,6.001C14.007,13.999,14.002,14.001,17.999,14.001z"/>
			</g>
		</g>
	</g>
	<g id="Ticket_1_">
		<g id="Fake_White">
			<g>
				<path fill="#FFFFFF" d="M42.498,24H5.5c0,0-5.25,0-5.25,7.9v17.752c0,3.938,0,3.938,3.94,3.938h6.879
					c1.701,0,2.242,0.501,2.692,0.71c1.767,1.013,3.878,2.229,5.833,3.354c4.292,2.467,4.279,2.455,8.583-0.016
					c1.747-1.003,4.059-2.34,5.757-3.313c0.331-0.177,1.248-0.735,2.744-0.735h6.88c3.92,0,3.939,0,3.939-3.938V31.9
					C47.498,24.025,42.498,24,42.498,24z"/>
			</g>
		</g>
		<g id="_x2D_-_v_--__4px">
			<g>
				<path fill="#555555" d="M36.998,24.997c-1.535,0-2.518,0.537-2.938,0.767l-5.985,3.457c-2.08,1.199-3.124,1.803-4.077,1.803
					h-0.003c-0.956-0.002-2.006-0.606-4.098-1.815c0,0-6.102-3.515-6.182-3.56c-0.463-0.258-1.164-0.649-2.716-0.649H2.5v0.978H11
					c1.3,0,1.845,0.307,2.244,0.527c0.095,0.055,6.17,3.553,6.17,3.553c2.251,1.301,3.418,1.948,4.584,1.948
					c1.163-0.001,2.325-0.646,4.561-1.937l5.965-3.445c0.355-0.191,1.186-0.646,2.474-0.646h8.5v-0.978L36.998,24.997L36.998,24.997
					z"/>
			</g>
		</g>
		<g id="Ticket__x28_Full_x29_">
			<g>
				<path fill="#555555" d="M44.001,23.999H4C4,23.999,0,24,0,32v18c0,4,0,4,4,4h7c1.727,0,2.276,0.509,2.733,0.721
					c1.794,1.027,3.937,2.264,5.923,3.404c4.357,2.506,4.344,2.493,8.713-0.016c1.772-1.019,4.12-2.375,5.844-3.363
					C34.548,54.568,35.48,54,36.998,54h7c3.98,0,4,0,4-4V32C47.998,24,44.001,23.999,44.001,23.999z M45.998,50c0,2,0.01,2-2,2
					c-3.09,0-7.673,0-7.673,0c-0.011,0.021-0.02,0.035-0.02,0.035c-1.437,0-2.319,0.541-2.637,0.711
					c-1.632,0.941-3.854,2.234-5.533,3.204c-4.136,2.389-4.124,2.399-8.248,0.015c-1.88-1.088-3.908-2.265-5.607-3.242
					c-0.433-0.203-0.953-0.688-2.587-0.688c0,0-0.007-0.016-0.018-0.035C11.676,52,6,52,4,52s-2,0-2-2V32c0-8.021,6-8,6-8h31.999
					c0,0,6,0,6,8L45.998,50L45.998,50z"/>
			</g>
		</g>
		<g id="V__-_4_px">
			<g>
				<path fill="#555555" d="M28.284,48.798c-0.981,0.579-2.521,1.414-3.428,1.925c-0.58,0.326-1.128,0.34-1.714,0
					c-0.919-0.523-3.266-1.83-3.429-1.925c-1.625-0.938-1.714-0.646-1.714,1.026c0,1.674-0.018,2.047,0.844,2.527
					c0.862,0.48,2.14,1.207,3.294,1.857c1.868,1.057,1.862,1.05,3.734-0.007c1.107-0.624,2.738-1.556,3.302-1.861
					c0.822-0.446,0.825-0.832,0.825-2.509C29.999,48.156,29.955,47.813,28.284,48.798z M28.699,51.475
					c-0.383,0.209-1.214,0.681-2.094,1.178c-0.425,0.242-1.243,0.703-1.243,0.703c-0.673,0.381-1.16,0.654-1.363,0.654
					c-0.206,0-0.696-0.277-1.375-0.66l-0.841-0.476c-0.902-0.511-1.801-1.019-2.458-1.386c-0.337-0.188-0.337-0.188-0.336-1.564
					v-0.1c0-0.07,0-0.178,0.001-0.297c0.068,0.037,0.143,0.08,0.227,0.128c0.056,0.032,0.357,0.2,0.769,0.431
					c0.809,0.452,2.053,1.146,2.664,1.496c0.436,0.252,0.889,0.38,1.343,0.38c0.451,0,0.904-0.126,1.348-0.376
					c0.296-0.167,0.66-0.368,1.049-0.584c0.809-0.447,1.726-0.955,2.397-1.352c0.081-0.047,0.154-0.09,0.22-0.127
					c0.001,0.112,0.001,0.224,0.001,0.311C29.009,51.305,29.009,51.305,28.699,51.475z"/>
			</g>
		</g>
	</g>
</g>
</svg>
