<?xml version="1.0" encoding="utf-8"?>
<!-- Generator: Adobe Illustrator 16.0.0, SVG Export Plug-In . SVG Version: 6.00 Build 0)  -->
<!DOCTYPE svg PUBLIC "-//W3C//DTD SVG 1.1//EN" "http://www.w3.org/Graphics/SVG/1.1/DTD/svg11.dtd">
<svg version="1.1" id="M_1_" xmlns="http://www.w3.org/2000/svg" xmlns:xlink="http://www.w3.org/1999/xlink" x="0px" y="0px"
	 width="47.998px" height="62px" viewBox="0 0 47.998 62" enable-background="new 0 0 47.998 62" xml:space="preserve">
<g id="_x3D___x5D__2_">
	<g id="_x3D__x5D__1_">
		<g id="_x3D___x5D_">
			<g>
				<path fill="#555555" d="M43.998,16c-4,0-4-0.001-4,3.998c0,2.005-0.014,2.002-2.004,2.002H10c-2.01,0-2,0.006-2-2
					c0-3.999-0.015-4-4.007-4C0.001,16,0,16.003,0,20v4c0,1.984,0.016,2,1.996,2h44.002c1.984,0,2-0.016,2-2v-4
					C47.998,16.003,47.998,16,43.998,16z M29.999,14.001c3.997,0,3.992-0.002,3.992-4c0-4.198,0-3.385,0-6.001
					c0-3.998,0.004-4-3.992-4s-3.992,0.002-3.992,4c0,2.616,0,1.803,0,6.001C26.006,13.999,26.002,14.001,29.999,14.001z
					 M17.999,14.001c3.997,0,3.992-0.002,3.992-4c0-4.198,0-3.385,0-6.001c0-3.998,0.004-4-3.992-4s-3.992,0.002-3.992,4
					c0,2.616,0,1.803,0,6.001C14.007,13.999,14.002,14.001,17.999,14.001z"/>
			</g>
		</g>
	</g>
	<g id="Ticket_1_">
		<g id="Fake_White">
			<g>
				<path fill="#FFFFFF" d="M42.498,24H5.5c0,0-5.25,0-5.25,7.9v17.752c0,3.938,0,3.938,3.94,3.938h6.879
					c1.701,0,2.242,0.501,2.692,0.71c1.767,1.013,3.878,2.229,5.833,3.354c4.292,2.467,4.279,2.455,8.583-0.016
					c1.747-1.004,4.059-2.341,5.757-3.313c0.331-0.177,1.248-0.735,2.744-0.735h6.88c3.92,0,3.939,0,3.939-3.938V31.9
					C47.498,24.025,42.498,24,42.498,24z"/>
			</g>
		</g>
		<g id="_x2D_-_v_--__4px">
			<g>
				<path fill="#555555" d="M36.998,24.997c-1.535,0-2.518,0.537-2.938,0.767l-5.985,3.457c-2.08,1.199-3.124,1.803-4.077,1.803
					h-0.003c-0.956-0.002-2.006-0.606-4.098-1.815c0,0-6.102-3.515-6.182-3.56C13.252,25.391,12.551,25,10.999,25H2.5v0.978H11
					c1.3,0,1.845,0.307,2.244,0.527c0.095,0.055,6.17,3.553,6.17,3.553c2.251,1.301,3.418,1.948,4.584,1.948
					c1.163-0.001,2.325-0.646,4.561-1.937l5.965-3.445c0.355-0.191,1.186-0.646,2.474-0.646h8.5V25L36.998,24.997L36.998,24.997z"/>
			</g>
		</g>
		<g id="Ticket__x28_Full_x29_">
			<g>
				<path fill="#555555" d="M44.001,23.999H4C4,23.999,0,24,0,32v18c0,4,0,4,4,4h7c1.727,0,2.276,0.509,2.733,0.721
					c1.794,1.027,3.937,2.264,5.923,3.404c4.357,2.506,4.344,2.493,8.713-0.016c1.772-1.02,4.12-2.375,5.844-3.363
					C34.548,54.568,35.48,54,36.998,54h7c3.98,0,4,0,4-4V32C47.998,24,44.001,23.999,44.001,23.999z M45.998,50c0,2,0.01,2-2,2
					c-3.09,0-7.673,0-7.673,0c-0.011,0.021-0.02,0.035-0.02,0.035c-1.437,0-2.319,0.541-2.637,0.711
					c-1.632,0.941-3.854,2.234-5.533,3.204c-4.136,2.389-4.124,2.399-8.248,0.015c-1.88-1.088-3.908-2.265-5.607-3.242
					c-0.433-0.203-0.953-0.688-2.587-0.688c0,0-0.007-0.016-0.018-0.035C11.676,52,6,52,4,52s-2,0-2-2V32c0-8.021,6-8,6-8h31.999
					c0,0,6,0,6,8L45.998,50L45.998,50z"/>
			</g>
		</g>
		<g id="V__-_4_px">
			<g>
				<path fill="#555555" d="M28.284,48.798c-0.981,0.579-2.521,1.414-3.428,1.925c-0.58,0.326-1.128,0.34-1.714,0
					c-0.919-0.522-3.266-1.83-3.429-1.925c-1.625-0.938-1.714-0.646-1.714,1.026c0,1.674-0.018,2.047,0.844,2.527
					c0.862,0.479,2.14,1.207,3.294,1.856c1.868,1.058,1.862,1.05,3.734-0.007c1.107-0.624,2.738-1.557,3.302-1.861
					c0.822-0.445,0.825-0.832,0.825-2.509C29.999,48.156,29.955,47.813,28.284,48.798z M28.699,51.475
					c-0.383,0.209-1.214,0.682-2.094,1.178c-0.425,0.242-1.243,0.703-1.243,0.703c-0.673,0.381-1.16,0.654-1.363,0.654
					c-0.206,0-0.696-0.277-1.375-0.66l-0.841-0.476c-0.902-0.511-1.801-1.019-2.458-1.386c-0.337-0.188-0.337-0.188-0.336-1.564
					v-0.1c0-0.07,0-0.178,0.001-0.297c0.068,0.037,0.143,0.08,0.227,0.127c0.056,0.033,0.357,0.201,0.769,0.432
					c0.809,0.452,2.053,1.146,2.664,1.496c0.436,0.252,0.889,0.38,1.343,0.38c0.451,0,0.904-0.126,1.348-0.376
					c0.296-0.167,0.66-0.368,1.049-0.584c0.809-0.447,1.726-0.955,2.397-1.352c0.081-0.047,0.154-0.09,0.22-0.127
					c0.001,0.111,0.001,0.224,0.001,0.311C29.009,51.305,29.009,51.305,28.699,51.475z"/>
			</g>
		</g>
	</g>
</g>
</svg>
