<?xml version="1.0" encoding="utf-8"?>
<!-- Generator: Adobe Illustrator 16.0.0, SVG Export Plug-In . SVG Version: 6.00 Build 0)  -->
<!DOCTYPE svg PUBLIC "-//W3C//DTD SVG 1.1//EN" "http://www.w3.org/Graphics/SVG/1.1/DTD/svg11.dtd">
<svg version="1.1" id="M_1_" xmlns="http://www.w3.org/2000/svg" xmlns:xlink="http://www.w3.org/1999/xlink" x="0px" y="0px"
	 width="174px" height="88px" viewBox="0 0 174 88" enable-background="new 0 0 174 88" xml:space="preserve">
<g id="interviewapp_2_">
	<g id="interviewapp">
		<g>
			<path fill-rule="evenodd" clip-rule="evenodd" fill="#555555" d="M169.98,50.001c-3.982,0-3.984-0.016-3.984,3.967
				s0,19.006,0,22.028c0,4.011,0.002,4.009,3.998,4.009c3.998,0,3.999-0.012,3.999-3.995c0-2.998,0-18.045,0-22.028
				C173.993,49.999,173.963,50.001,169.98,50.001z M170.005,48.005c3.992,0,3.981-0.02,3.981-3.015c0-2.994-0.032-2.999-4.008-2.999
				c-3.977,0-3.981,0.024-3.981,3.003S166.013,48.005,170.005,48.005z M160.09,50c-3.941,0-4.136,0.107-5.234,2.001
				c-0.334,0.577-1.064,1.807-1.9,3.223c-0.309,0.489-0.273,0.718,0.038,1.28c0.618,1.058,1.18,2.043,1.653,2.877
				c0.658,1.159,0.89,1.623,1.597,2.877c0.706,1.188,1.304,0.758,1.749,0c1.334-2.306,3.578-6.215,4.797-8.267
				C165.104,50.091,164.031,50,160.09,50z M157.992,67.742c-0.445-0.758-1.043-1.189-1.749,0c-0.707,1.254-0.938,1.717-1.597,2.877
				c-0.474,0.834-1.035,1.819-1.653,2.877c-0.312,0.563-0.347,0.791-0.038,1.28c0.836,1.416,1.566,2.646,1.9,3.223
				c1.099,1.894,1.293,2.001,5.234,2.001s5.015-0.091,2.699-3.991C161.57,73.957,159.326,70.048,157.992,67.742z M99.979,49.999
				c-11.939,0-11.977-0.022-11.977,11.975v6.052c0,11.932-0.018,11.964,11.977,11.964c12.032,0,12.014-0.003,12.014-11.964v-6.019
				C111.992,50.032,111.987,49.999,99.979,49.999z M103.996,67.989c0,3.988-0.025,4.006-4.025,4.006
				c-3.984,0-3.969-0.018-3.969-4.006v-6.008c0-3.973,0.014-3.968,3.969-3.968c4.017,0,4.025,0.03,4.025,3.968V67.989z
				 M73.996,50.003c-1.014,0-2.95,0.003-3.994,0.233c0,0,0-0.227,0-4.234c0-4.009-0.016-4.007-4.008-4.007s-4.002-0.002-4.002,3.991
				c0,3.992,0,21.963,0,21.963c0,12.058-0.044,12.037,12.005,12.037c12.05,0,11.992,0.029,11.992-12.009c0-2.395,0-5.953,0-5.953
				C85.989,50.009,85.998,50.003,73.996,50.003z M77.994,67.98c0,3.989,0.031,4.025-3.985,4.025c-4.015,0-4.023-0.036-4.023-4.025
				v-5.984c0-3.97,0.021-3.998,4.019-3.998c3.972,0,3.989-0.035,3.989,3.993V67.98z M125.977,49.999
				c-11.938,0-11.976-0.022-11.976,11.975v6.052c0,11.932-0.018,11.964,11.976,11.964c12.033,0,12.016-0.003,12.016-11.964v-6.019
				C137.992,50.032,137.986,49.999,125.977,49.999z M129.995,67.989c0,3.988-0.026,4.006-4.026,4.006
				c-3.982,0-3.967-0.018-3.967-4.006v-6.008c0-3.973,0.012-3.968,3.967-3.968c4.018,0,4.026,0.03,4.026,3.968V67.989z
				 M153.131,60.5c-1.469-2.584-4.233-7.2-4.988-8.5c-1.099-1.893-1.293-2-5.236-2s-5.018,0.091-2.7,3.988
				c1.361,2.29,3.993,6.896,5.193,9.012c0.767,1.353,0.795,2.632,0,4c-1.235,2.144-4.983,8.617-5.202,8.995
				c-2.209,3.793-1.193,4.005,2.74,4.005c3.935,0,4.021-0.021,5.205-2c1.193-1.994,3.436-5.824,4.988-8.5
				C155.646,65.162,155.613,64.87,153.131,60.5z"/>
		</g>
	</g>
</g>
<g id="_x3D___x5D__2_">
	<g id="_x3D__x5D__1_">
		<g id="_x3D___x5D_">
			<g>
				<path fill-rule="evenodd" clip-rule="evenodd" fill="#555555" d="M43.998,42c-4,0-4-0.001-4,3.998
					c0,2.005-0.014,2.002-2.004,2.002H10c-2.01,0-2,0.006-2-2c0-3.999-0.015-4-4.007-4S0,42.003,0,46v4c0,1.984,0.016,2,1.996,2
					h44.002c1.984,0,2-0.016,2-2v-4C47.998,42.003,47.998,42,43.998,42z M29.999,40.001c3.997,0,3.992-0.002,3.992-4
					c0-4.198,0-3.385,0-6.001c0-3.998,0.004-4-3.992-4s-3.992,0.002-3.992,4c0,2.616,0,1.803,0,6.001
					C26.006,39.999,26.002,40.001,29.999,40.001z M17.999,40.001c3.997,0,3.992-0.002,3.992-4c0-4.198,0-3.385,0-6.001
					c0-3.998,0.004-4-3.992-4s-3.992,0.002-3.992,4c0,2.616,0,1.803,0,6.001C14.007,39.999,14.002,40.001,17.999,40.001z"/>
			</g>
		</g>
	</g>
	<g id="Ticket_1_">
		<g id="Fake_White">
			<g>
				<path fill-rule="evenodd" clip-rule="evenodd" fill="#FFFFFF" d="M42.498,50H5.5c0,0-5.25,0-5.25,7.9v17.753
					c0,3.938,0,3.938,3.94,3.938h6.879c1.701,0,2.242,0.501,2.692,0.71c1.767,1.012,3.878,2.229,5.833,3.353
					c4.292,2.467,4.279,2.455,8.583-0.015c1.747-1.002,4.059-2.339,5.757-3.313c0.331-0.176,1.248-0.735,2.744-0.735h6.88
					c3.92,0,3.939,0,3.939-3.938V57.9C47.498,50.026,42.498,50,42.498,50z"/>
			</g>
		</g>
		<g id="_x2D_-_v_--__4px">
			<g>
				<path fill="#555555" d="M36.998,50.997c-1.535,0-2.518,0.537-2.938,0.767l-5.985,3.457c-2.08,1.199-3.124,1.802-4.077,1.802
					h-0.003c-0.956-0.001-2.006-0.607-4.098-1.816c0,0-6.102-3.513-6.182-3.558c-0.463-0.259-1.164-0.651-2.716-0.651H2.5v0.977H11
					c1.3,0,1.845,0.306,2.244,0.528c0.095,0.053,6.17,3.551,6.17,3.551c2.251,1.301,3.418,1.95,4.584,1.95
					c1.163-0.001,2.325-0.646,4.561-1.936l5.965-3.446c0.355-0.193,1.186-0.647,2.474-0.647h8.5v-0.977H36.998z"/>
			</g>
		</g>
		<g id="Ticket__x28_Full_x29_">
			<g>
				<path fill-rule="evenodd" clip-rule="evenodd" fill="#555555" d="M44.001,49.999H4C4,49.999,0,50,0,58v18c0,4,0,4,4,4h7
					c1.727,0,2.276,0.509,2.733,0.721c1.794,1.027,3.937,2.263,5.923,3.404c4.357,2.506,4.344,2.493,8.713-0.015
					c1.772-1.018,4.12-2.376,5.844-3.364C34.548,80.568,35.48,80,36.998,80h7c3.98,0,4,0,4-4V58
					C47.998,50,44.001,49.999,44.001,49.999z M45.998,76c0,2,0.01,2-2,2c-3.09,0-7.673,0-7.673,0
					c-0.011,0.021-0.02,0.035-0.02,0.035c-1.437,0-2.319,0.541-2.637,0.711c-1.632,0.941-3.854,2.235-5.533,3.204
					c-4.136,2.389-4.124,2.4-8.248,0.015c-1.88-1.088-3.908-2.265-5.607-3.243c-0.433-0.202-0.953-0.687-2.587-0.687
					c0,0-0.007-0.015-0.018-0.035C11.676,78,6,78,4,78c-2,0-2,0-2-2V58c0-8.021,6-8,6-8h31.999c0,0,6,0,6,8V76z"/>
			</g>
		</g>
		<g id="V__-_4_px">
			<g>
				<path fill="#555555" d="M28.284,74.798c-0.981,0.579-2.521,1.414-3.428,1.925c-0.58,0.326-1.128,0.339-1.714,0
					c-0.919-0.525-3.266-1.831-3.429-1.925c-1.625-0.938-1.714-0.646-1.714,1.026c0,1.674-0.018,2.047,0.844,2.528
					c0.862,0.481,2.14,1.206,3.294,1.858c1.868,1.055,1.862,1.05,3.734-0.007c1.107-0.624,2.738-1.554,3.302-1.861
					c0.822-0.448,0.825-0.832,0.825-2.509C29.999,74.156,29.955,73.813,28.284,74.798z M28.699,77.474
					c-0.383,0.209-1.214,0.68-2.094,1.179c-0.425,0.241-1.243,0.703-1.243,0.703c-0.673,0.38-1.16,0.654-1.363,0.654
					c-0.206,0-0.696-0.277-1.375-0.661l-0.841-0.475c-0.902-0.511-1.801-1.019-2.458-1.386c-0.337-0.188-0.337-0.188-0.336-1.564
					v-0.1c0-0.07,0-0.178,0.001-0.297c0.068,0.037,0.143,0.08,0.227,0.128c0.056,0.032,0.357,0.2,0.769,0.431
					c0.809,0.452,2.053,1.147,2.664,1.496c0.436,0.252,0.889,0.38,1.343,0.38c0.451,0,0.904-0.126,1.348-0.376
					c0.296-0.167,0.66-0.368,1.049-0.584c0.809-0.448,1.726-0.955,2.397-1.352c0.081-0.047,0.154-0.09,0.22-0.127
					c0.001,0.114,0.001,0.224,0.001,0.311C29.009,77.305,29.009,77.305,28.699,77.474z"/>
			</g>
		</g>
	</g>
</g>
<g id="Slogan_1_">
	<g id="Smart_appointment_booking_That_works_for_you">
		<g>
			<path fill-rule="evenodd" clip-rule="evenodd" fill="#555555" d="M3.681,5.9c-1.81-0.423-2.521-0.657-2.521-2.082
				c0-1.221,0.786-1.722,2.24-1.722c0.86,0,2.907,0.25,2.907,0.25L6.41,1.251c0,0-1.869-0.313-3.011-0.313
				c-2.091,0-3.382,0.876-3.382,2.911c0,2.129,1.053,2.661,3.174,3.146c1.676,0.345,2.284,0.688,2.284,1.91
				c0,1.502-0.727,2.081-2.181,2.081c-1.053,0-3.026-0.266-3.026-0.266L0.15,11.817c0,0,2.032,0.329,3.16,0.329
				c2.062,0,3.322-0.939,3.322-3.288C6.632,6.918,5.728,6.386,3.681,5.9z M15.667,4.021c-1.023,0-2.254,0.532-2.685,0.705
				c-0.296-0.376-0.742-0.595-1.364-0.657c-0.238-0.032-0.52-0.016-0.816,0.016C9.838,4.147,8.949,4.711,8.949,4.711V4.179H7.836
				v7.826h1.113V5.682c0,0,0.994-0.58,1.987-0.58c1.35,0,1.558,0.705,1.558,2.865v4.038h1.112V7.936
				c0-0.939-0.059-1.895-0.178-2.254c0.029-0.017,1.068-0.58,2.076-0.58c1.409,0,1.558,0.799,1.558,3.193v3.71h1.112V7.936
				C18.174,5.039,17.685,4.021,15.667,4.021z M25.046,10.424V6.573c0-1.769-0.771-2.552-2.344-2.552
				c-1.142,0-2.922,0.313-2.922,0.313l0.044,1.018c0,0,1.75-0.203,2.833-0.203c0.815,0,1.291,0.438,1.291,1.424v0.642L21.604,7.45
				c-1.528,0.141-2.255,0.813-2.255,2.316c0,1.534,0.727,2.396,2.018,2.396c1.409,0,2.744-0.596,2.744-0.596
				c0.385,0.423,0.86,0.596,1.75,0.596l0.044-1.018C25.431,11.082,25.075,10.925,25.046,10.424z M23.948,10.675
				c0,0-1.291,0.47-2.418,0.47c-0.667,0-1.053-0.501-1.053-1.409c0-0.798,0.371-1.283,1.276-1.377l2.195-0.188V10.675z
				 M28.326,4.179h-1.112v7.826h1.112V6.323c0,0,1.187-0.799,2.581-1.08V4.021c-1.439,0.282-2.581,1.19-2.581,1.19V4.179z
				 M34.987,11.066c-0.979,0-1.068-0.47-1.068-2.176V5.243h2.344V4.179h-2.344V1.783h-1.112v2.396h-1.053v1.064h1.053v4.069
				c0,2.254,0.534,2.865,2.062,2.865c0.52,0,1.499-0.173,1.499-0.173l-0.06-1.018C36.307,10.987,35.402,11.066,34.987,11.066z
				 M46.767,10.143V6.604c0-1.847-0.846-2.583-2.433-2.583c-1.127,0-2.981,0.313-2.981,0.313l0.06,1.283c0,0,1.75-0.188,2.848-0.188
				c0.697,0,1.098,0.392,1.098,1.189v0.563l-2.077,0.188c-1.572,0.141-2.373,0.751-2.373,2.348c0,1.55,0.742,2.458,2.077,2.458
				c1.29,0,2.581-0.58,2.581-0.58c0.416,0.392,0.846,0.564,1.884,0.564l0.044-1.269C47.048,10.831,46.781,10.675,46.767,10.143z
				 M45.357,10.503c0,0-1.172,0.391-2.121,0.391c-0.579,0-0.905-0.423-0.905-1.205c0-0.735,0.341-1.127,1.112-1.189l1.914-0.157
				V10.503z M52.479,4.021c-0.979,0-2.032,0.643-2.032,0.643v-0.47h-1.395v11.224h1.395v-3.413c0.133,0.031,0.875,0.173,1.528,0.173
				c2.269,0,3.278-1.002,3.278-4.164C55.253,5.134,54.378,4.021,52.479,4.021z M51.886,10.831c-0.578,0-1.305-0.109-1.438-0.125
				V5.885c0,0,0.994-0.517,1.794-0.517c0.994,0,1.572,0.673,1.572,2.63C53.814,10.064,53.354,10.831,51.886,10.831z M62.879,8.014
				c0-2.88-0.875-3.992-2.774-3.992c-0.979,0-2.032,0.643-2.032,0.643v-0.47h-1.394v11.224h1.394v-3.413
				c0.134,0.031,0.875,0.173,1.528,0.173C61.871,12.178,62.879,11.176,62.879,8.014z M59.512,10.831
				c-0.579,0-1.305-0.109-1.439-0.125V5.885c0,0,0.994-0.517,1.795-0.517c0.994,0,1.572,0.673,1.572,2.63
				C61.44,10.064,60.98,10.831,59.512,10.831z M67.628,12.178c2.521,0,3.233-1.519,3.233-4.148c0-2.583-0.89-4.008-3.233-4.008
				c-2.433,0-3.263,1.394-3.263,4.008C64.365,10.722,65.091,12.178,67.628,12.178z M67.628,5.353c1.32,0,1.81,0.813,1.81,2.677
				c0,1.862-0.282,2.802-1.81,2.802s-1.839-0.861-1.839-2.802C65.789,6.104,66.204,5.353,67.628,5.353z M73.623,1.032h-1.409v1.644
				h1.409V1.032z M73.623,4.194h-1.409v7.811h1.409V4.194z M77.198,5.869c0,0,1.068-0.47,1.899-0.47
				c1.187,0,1.379,0.767,1.379,2.536v4.069h1.409V7.92c0-2.724-0.489-3.898-2.551-3.898c-0.919,0-2.136,0.627-2.136,0.627V4.194
				h-1.394v7.811h1.394V5.869z M84.187,9.281c0,2.254,0.519,2.896,2.136,2.896c0.519,0,1.513-0.188,1.513-0.188l-0.074-1.283
				c0,0-0.846,0.078-1.261,0.078c-0.846,0-0.92-0.438-0.92-1.847V5.524h2.181v-1.33h-2.181V1.846h-1.394v2.349h-0.994v1.33h0.994
				V9.281z M93.785,7.982v4.022h1.395V7.951c0-0.846-0.06-1.832-0.148-2.066c0.029-0.031,0.979-0.485,1.854-0.485
				c1.306,0,1.395,0.814,1.395,3.053v3.553h1.395V7.92c0-2.818-0.52-3.898-2.537-3.898c-0.963,0-2.105,0.47-2.64,0.689
				c-0.341-0.407-0.815-0.626-1.513-0.657c-0.223-0.017-0.504,0-0.786,0.047c-0.831,0.109-1.587,0.563-1.587,0.563v-0.47h-1.38
				v7.811h1.394V5.869c0,0,0.95-0.47,1.766-0.47C93.607,5.399,93.785,6.072,93.785,7.982z M104.305,12.178
				c1.262,0,2.952-0.329,2.952-0.329l-0.03-1.174c0,0-1.586,0.141-2.729,0.141c-1.32,0-1.795-0.688-1.795-2.098h4.717l0.089-1.08
				c0-2.504-1.023-3.616-3.07-3.616c-1.973,0-3.159,1.222-3.159,4.133C101.279,10.862,102.08,12.162,104.305,12.178z M104.438,5.337
				c1.187,0,1.677,0.595,1.677,2.223h-3.427C102.703,5.979,103.281,5.337,104.438,5.337z M112.717,4.021
				c-0.919,0-2.135,0.627-2.135,0.627V4.194h-1.395v7.811h1.395V5.869c0,0,1.067-0.47,1.898-0.47c1.186,0,1.379,0.767,1.379,2.536
				v4.069h1.409V7.92C115.269,5.196,114.779,4.021,112.717,4.021z M117.57,9.281c0,2.254,0.52,2.896,2.136,2.896
				c0.519,0,1.513-0.188,1.513-0.188l-0.074-1.283c0,0-0.846,0.078-1.261,0.078c-0.845,0-0.919-0.438-0.919-1.847V5.524h2.18v-1.33
				h-2.18V1.846h-1.395v2.349h-0.994v1.33h0.994V9.281z M132.924,8.014c0-2.99-0.979-4.008-2.996-4.008
				c-0.652,0-1.602,0.36-1.602,0.36V1.048h-1.988v10.926c0,0,2.182,0.22,2.893,0.22C131.842,12.193,132.924,11.363,132.924,8.014z
				 M129.23,10.299c-0.223,0-0.904-0.078-0.904-0.078V6.072c0,0,0.846-0.125,1.335-0.125c0.771,0,1.246,0.501,1.246,2.066
				C130.907,9.688,130.596,10.299,129.23,10.299z M137.229,12.193c2.58,0,3.411-1.69,3.411-4.102c0-2.41-0.831-4.086-3.411-4.086
				c-2.582,0-3.412,1.676-3.412,4.086C133.816,10.503,134.646,12.193,137.229,12.193z M137.229,5.9c1.098,0,1.395,0.751,1.395,2.191
				s-0.297,2.207-1.395,2.207s-1.395-0.767-1.395-2.207S136.131,5.9,137.229,5.9z M144.943,12.193c2.581,0,3.412-1.69,3.412-4.102
				c0-2.41-0.831-4.086-3.412-4.086s-3.412,1.676-3.412,4.086C141.531,10.503,142.362,12.193,144.943,12.193z M144.943,5.9
				c1.098,0,1.395,0.751,1.395,2.191s-0.297,2.207-1.395,2.207s-1.395-0.767-1.395-2.207S143.846,5.9,144.943,5.9z M153.727,12.005
				h2.24l-2.018-4.116l1.913-3.694h-2.225l-1.469,2.817l-0.757,0.156v-6.12h-1.986v10.957h1.986V9.219l0.801-0.156L153.727,12.005z
				 M158.356,4.194h-1.987v7.811h1.987V4.194z M158.356,1.032h-1.987v2.145h1.987V1.032z M161.591,6.229
				c0,0,0.935-0.267,1.424-0.267c0.89,0,1.038,0.768,1.038,1.957v4.085h1.988V7.92c0-2.536-0.535-3.914-2.611-3.914
				c-0.697,0-1.839,0.532-1.839,0.532V4.194h-1.987v7.811h1.987V6.229z M166.71,13.43c0,1.909,1.409,2.332,3.575,2.332
				c1.913,0,3.516-0.782,3.516-2.786c0-1.753-0.713-2.363-3.234-2.363c-1.261,0-1.438-0.109-1.438-0.517
				c0-0.204,0.148-0.61,0.148-0.61c0.134,0.031,0.444,0.063,0.608,0.063c2.031,0,3.129-0.563,3.129-2.755
				c0-0.454-0.133-0.721-0.252-0.939h0.935V4.179l-2.284,0.047c0,0-0.846-0.204-1.498-0.204c-1.735,0-3.115,0.752-3.115,2.771
				c0,1.361,0.49,1.94,1.009,2.332c0,0-0.578,0.861-0.578,1.252c0,0.485,0.208,0.939,0.534,1.174
				C167.021,12.162,166.71,12.71,166.71,13.43z M169.898,5.807c0.802,0,1.158,0.281,1.158,0.986c0,0.751-0.371,1.001-1.172,1.001
				c-0.816,0-1.098-0.313-1.098-1.001C168.787,6.104,169.098,5.807,169.898,5.807z M169.068,12.318c0,0,0.92,0.109,1.335,0.109
				c1.098,0.016,1.395,0.078,1.395,0.673c0,0.563-0.534,0.783-1.498,0.783c-1.112,0-1.632-0.22-1.632-0.673
				C168.668,12.819,168.816,12.584,169.068,12.318z M61.339,18.246h3.159v9.532h1.127v-9.532h3.13v-1.135h-7.417V18.246z
				 M72.94,19.962c-1.038,0-2.284,0.521-2.284,0.521v-3.893h-1.112v11.188h1.112v-6.314c0,0,1.127-0.444,2.121-0.444
				c1.335,0,1.558,0.751,1.558,2.774v3.984h1.112v-4C75.447,21.004,74.987,19.962,72.94,19.962z M82.613,26.23V22.46
				c0-1.731-0.771-2.498-2.344-2.498c-1.142,0-2.922,0.307-2.922,0.307l0.044,0.996c0,0,1.75-0.199,2.833-0.199
				c0.816,0,1.291,0.43,1.291,1.395v0.629l-2.344,0.229c-1.528,0.139-2.254,0.797-2.254,2.269c0,1.502,0.727,2.345,2.017,2.345
				c1.409,0,2.744-0.582,2.744-0.582c0.386,0.413,0.86,0.582,1.75,0.582l0.044-0.996C82.999,26.874,82.643,26.721,82.613,26.23z
				 M81.516,26.476c0,0-1.291,0.46-2.418,0.46c-0.667,0-1.053-0.49-1.053-1.379c0-0.782,0.371-1.257,1.276-1.349l2.195-0.185V26.476
				z M87.125,26.859c-0.98,0-1.069-0.46-1.069-2.131v-3.571H88.4v-1.042h-2.344v-2.345h-1.112v2.345h-1.053v1.042h1.053v3.985
				c0,2.207,0.534,2.805,2.062,2.805c0.52,0,1.498-0.169,1.498-0.169l-0.06-0.996C88.444,26.782,87.539,26.859,87.125,26.859z
				 M100.224,26.476h-0.282l-1.542-6.207h-1.483l-1.543,6.207h-0.281l-1.306-6.345h-1.394l1.631,7.647h2.299l1.32-5.563l1.32,5.563
				h2.314l1.646-7.647h-1.395L100.224,26.476z M106.738,19.962c-2.432,0-3.263,1.364-3.263,3.924c0,2.636,0.727,4.062,3.263,4.062
				c2.521,0,3.234-1.486,3.234-4.062C109.973,21.356,109.082,19.962,106.738,19.962z M106.738,26.629
				c-1.527,0-1.839-0.843-1.839-2.743c0-1.885,0.415-2.621,1.839-2.621c1.32,0,1.811,0.797,1.811,2.621
				S108.266,26.629,106.738,26.629z M112.496,20.131h-1.395v7.647h1.395v-5.364c0,0,1.053-0.659,2.418-0.935v-1.532
				c-1.365,0.275-2.418,1.088-2.418,1.088V20.131z M121.619,20.131h-1.587l-1.958,2.927l-1.009,0.093v-6.284h-1.394v10.912h1.394
				V24.56l1.038-0.092l1.988,3.311h1.586l-2.343-4.092L121.619,20.131z M125.077,23.227c-1.351-0.229-1.69-0.398-1.69-0.98
				c0-0.751,0.533-0.981,1.424-0.981c0.92,0,2.625,0.245,2.625,0.245l0.029-1.226c0,0-1.646-0.322-2.744-0.322
				c-1.408,0-2.744,0.598-2.744,2.314c0,1.563,0.831,1.946,2.686,2.269c1.32,0.214,1.631,0.367,1.631,1.012
				c0,0.827-0.504,1.072-1.631,1.072c-0.757,0-2.507-0.245-2.507-0.245l-0.06,1.241c0,0,1.691,0.322,2.685,0.322
				c1.81,0,2.923-0.644,2.923-2.438C127.703,24.008,127.035,23.549,125.077,23.227z M132.438,19.778v0.353h-0.802v1.854h0.802v5.793
				h1.986v-5.793h1.795v-1.854h-1.795v-0.337c0-0.767,0.148-1.058,0.713-1.058c0.475,0,1.127,0.03,1.127,0.03l0.029-1.67
				c0,0-1.201-0.199-1.69-0.199C132.986,16.897,132.438,17.571,132.438,19.778z M139.959,19.947c-2.582,0-3.412,1.64-3.412,4
				s0.83,4.016,3.412,4.016c2.58,0,3.411-1.655,3.411-4.016S142.539,19.947,139.959,19.947z M139.959,26.108
				c-1.098,0-1.395-0.751-1.395-2.161s0.297-2.146,1.395-2.146s1.394,0.735,1.394,2.146S141.057,26.108,139.959,26.108z
				 M146.428,20.131h-1.988v7.647h1.988v-4.966c0,0,0.756-0.398,2.062-0.658v-2.207c-1.172,0.229-2.062,0.904-2.062,0.904V20.131z
				 M155.744,25.771h-0.341l-1.35-5.64h-1.958l1.824,7.647h1.336l-0.758,3.203h1.959l2.596-10.851h-1.958L155.744,25.771z
				 M162.658,19.947c-2.58,0-3.411,1.64-3.411,4s0.831,4.016,3.411,4.016c2.581,0,3.412-1.655,3.412-4.016
				S165.239,19.947,162.658,19.947z M162.658,26.108c-1.098,0-1.395-0.751-1.395-2.161s0.297-2.146,1.395-2.146
				s1.395,0.735,1.395,2.146S163.756,26.108,162.658,26.108z M171.486,25.848c0,0-0.935,0.261-1.424,0.261
				c-0.994,0-1.039-0.599-1.039-1.978v-4h-1.986v4c0,2.621,0.444,3.832,2.609,3.832c0.683,0,1.84-0.506,1.84-0.506v0.321h1.987
				v-7.647h-1.987V25.848z"/>
		</g>
	</g>
</g>
</svg>
