<?xml version="1.0" encoding="utf-8"?>
<!-- Generator: Adobe Illustrator 16.0.0, SVG Export Plug-In . SVG Version: 6.00 Build 0)  -->
<!DOCTYPE svg PUBLIC "-//W3C//DTD SVG 1.1//EN" "http://www.w3.org/Graphics/SVG/1.1/DTD/svg11.dtd">
<svg version="1.1" xmlns="http://www.w3.org/2000/svg" xmlns:xlink="http://www.w3.org/1999/xlink" x="0px" y="0px" width="30px"
	 height="30px" viewBox="0 0 30 30" enable-background="new 0 0 30 30" xml:space="preserve">
<g id="O_1_" enable-background="new    ">
	<g id="O">
		<g>
			<circle fill="#CCCCCC" cx="15" cy="15" r="13"/>
		</g>
	</g>
</g>
<g id="X_1_" enable-background="new    ">
	<g id="X">
		<g>
			<path fill-rule="evenodd" clip-rule="evenodd" fill="#FFFFFF" d="M17.385,14.993l3.529-3.525
				c0.334-0.334,0.336-0.874,0.004-1.207l-1.205-1.203c-0.334-0.333-0.875-0.331-1.209,0.003l-3.529,3.525l-3.346-3.343
				c-0.328-0.327-0.858-0.329-1.184-0.003l-1.18,1.179c-0.326,0.325-0.324,0.855,0.003,1.183l3.346,3.342l-3.446,3.443
				c-0.334,0.334-0.336,0.875-0.003,1.207l1.205,1.204c0.333,0.332,0.874,0.33,1.208-0.004l3.447-3.442l3.39,3.386
				c0.327,0.327,0.857,0.329,1.184,0.003l1.18-1.179c0.326-0.326,0.324-0.855-0.003-1.183L17.385,14.993z"/>
		</g>
	</g>
</g>
</svg>
