<?xml version="1.0" encoding="utf-8"?>
<!-- Generator: Adobe Illustrator 16.0.0, SVG Export Plug-In . SVG Version: 6.00 Build 0)  -->
<!DOCTYPE svg PUBLIC "-//W3C//DTD SVG 1.1//EN" "http://www.w3.org/Graphics/SVG/1.1/DTD/svg11.dtd">
<svg version="1.1" id="W_1_" xmlns="http://www.w3.org/2000/svg" xmlns:xlink="http://www.w3.org/1999/xlink" x="0px" y="0px"
	 width="174px" height="62px" viewBox="0 0 174 62" enable-background="new 0 0 174 62" xml:space="preserve">
<g id="interviewapp_2_">
	<g id="shade" opacity="0.102">
		<g>
			<path d="M170.005,24.006c3.992,0,3.981-0.021,3.981-3.015s-0.032-2.999-4.008-2.999c-3.979,0-3.981,0.024-3.981,3.003
				S166.014,24.006,170.005,24.006z M169.98,26.002c-3.982,0-3.984-0.017-3.984,3.967c0,3.984,0,19.007,0,22.029
				c0,4.01,0.002,4.008,3.998,4.008c3.998,0,3.999-0.012,3.999-3.994c0-2.998,0-18.045,0-22.028
				C173.993,26,173.963,26.002,169.98,26.002z M160.09,26.001c-3.941,0-4.136,0.107-5.234,2.001
				c-0.334,0.577-1.063,1.808-1.897,3.224c-0.312,0.489-0.271,0.717,0.038,1.28c0.615,1.059,1.18,2.043,1.65,2.877
				c0.658,1.158,0.893,1.623,1.6,2.875c0.706,1.189,1.304,0.76,1.749,0c1.334-2.305,3.575-6.213,4.797-8.265
				C165.104,26.092,164.031,26.001,160.09,26.001z M157.992,43.744c-0.445-0.758-1.043-1.189-1.749,0
				c-0.707,1.254-0.938,1.717-1.597,2.877c-0.477,0.834-1.035,1.818-1.653,2.877c-0.312,0.563-0.347,0.791-0.038,1.279
				c0.836,1.416,1.566,2.645,1.9,3.223c1.099,1.895,1.293,2.002,5.231,2.002s5.017-0.092,2.699-3.992
				C161.57,49.959,159.326,46.049,157.992,43.744z M99.979,26c-11.938,0-11.977-0.021-11.977,11.977v6.051
				c0,11.934-0.018,11.967,11.977,11.967c12.033,0,12.017-0.006,12.017-11.967v-6.02C111.992,26.034,111.986,26,99.979,26z
				 M103.996,43.99c0,3.988-0.025,4.006-4.025,4.006c-3.984,0-3.969-0.018-3.969-4.006v-6.008c0-3.975,0.014-3.967,3.969-3.967
				c4.018,0,4.025,0.027,4.025,3.967V43.99z M73.995,26.004c-1.014,0-2.95,0.003-3.993,0.233c0,0,0-0.229,0-4.234
				c0-4.009-0.016-4.007-4.008-4.007c-3.992,0-4.002-0.002-4.002,3.989c0,3.994,0,21.965,0,21.965
				c0,12.057-0.044,12.037,12.005,12.037s11.992,0.029,11.992-12.01c0-2.396,0-5.953,0-5.953
				C85.989,26.01,85.998,26.004,73.995,26.004z M77.994,43.982c0,3.986,0.031,4.021-3.985,4.021c-4.015,0-4.023-0.035-4.023-4.021
				v-5.984c0-3.971,0.021-3.998,4.019-3.998c3.972,0,3.989-0.035,3.989,3.992V43.982z M125.977,26
				c-11.938,0-11.976-0.021-11.976,11.977v6.051c0,11.934-0.019,11.967,11.976,11.967c12.033,0,12.018-0.006,12.018-11.967v-6.02
				C137.991,26.034,137.986,26,125.977,26z M129.995,43.99c0,3.988-0.026,4.006-4.026,4.006c-3.982,0-3.967-0.018-3.967-4.006
				v-6.008c0-3.975,0.012-3.967,3.967-3.967c4.018,0,4.026,0.027,4.026,3.967V43.99z M153.131,36.502
				c-1.469-2.584-4.232-7.201-4.988-8.5c-1.099-1.893-1.293-2-5.233-2c-3.943,0-5.021,0.091-2.7,3.988
				c1.359,2.29,3.993,6.895,5.191,9.012c0.769,1.354,0.795,2.631,0,4c-1.233,2.145-4.981,8.617-5.202,8.994
				c-2.21,3.793-1.191,4.006,2.739,4.006c3.938,0,4.021-0.021,5.205-2c1.193-1.996,3.438-5.824,4.988-8.5
				C155.646,41.164,155.613,40.871,153.131,36.502z"/>
		</g>
	</g>
	<g id="interviewapp">
		<g>
			<path fill="#FFFFFF" d="M170.005,22.006c3.992,0,3.981-0.021,3.981-3.015s-0.032-2.999-4.008-2.999
				c-3.979,0-3.981,0.024-3.981,3.003S166.014,22.006,170.005,22.006z M169.98,24.002c-3.982,0-3.984-0.017-3.984,3.967
				c0,3.984,0,19.007,0,22.029c0,4.01,0.002,4.008,3.998,4.008c3.998,0,3.999-0.012,3.999-3.994c0-2.998,0-18.045,0-22.028
				C173.993,24,173.963,24.002,169.98,24.002z M160.09,24.001c-3.941,0-4.136,0.107-5.234,2.001
				c-0.334,0.577-1.063,1.808-1.897,3.224c-0.312,0.488-0.271,0.717,0.038,1.279c0.615,1.059,1.18,2.043,1.65,2.877
				c0.658,1.158,0.893,1.623,1.6,2.875c0.706,1.189,1.304,0.76,1.749,0c1.334-2.305,3.575-6.213,4.797-8.265
				C165.104,24.092,164.031,24.001,160.09,24.001z M157.992,41.744c-0.445-0.758-1.043-1.189-1.749,0
				c-0.707,1.254-0.938,1.717-1.597,2.877c-0.477,0.834-1.035,1.818-1.653,2.877c-0.312,0.563-0.347,0.791-0.038,1.279
				c0.836,1.416,1.566,2.645,1.9,3.223c1.099,1.895,1.293,2.002,5.231,2.002s5.017-0.092,2.699-3.992
				C161.57,47.959,159.326,44.049,157.992,41.744z M99.979,24c-11.938,0-11.977-0.021-11.977,11.977v6.051
				c0,11.934-0.018,11.967,11.977,11.967c12.033,0,12.017-0.006,12.017-11.967v-6.02C111.992,24.034,111.986,24,99.979,24z
				 M103.996,41.99c0,3.988-0.025,4.006-4.025,4.006c-3.984,0-3.969-0.018-3.969-4.006v-6.008c0-3.975,0.014-3.967,3.969-3.967
				c4.018,0,4.025,0.027,4.025,3.967V41.99z M73.995,24.004c-1.014,0-2.95,0.003-3.993,0.233c0,0,0-0.229,0-4.234
				c0-4.009-0.016-4.007-4.008-4.007c-3.992,0-4.002-0.002-4.002,3.989c0,3.994,0,21.965,0,21.965
				c0,12.057-0.044,12.037,12.005,12.037s11.992,0.029,11.992-12.01c0-2.396,0-5.953,0-5.953
				C85.989,24.01,85.998,24.004,73.995,24.004z M77.994,41.982c0,3.986,0.031,4.021-3.985,4.021c-4.015,0-4.023-0.035-4.023-4.021
				v-5.984c0-3.971,0.021-3.998,4.019-3.998c3.972,0,3.989-0.035,3.989,3.992V41.982z M125.977,24
				c-11.938,0-11.976-0.021-11.976,11.977v6.051c0,11.934-0.019,11.967,11.976,11.967c12.033,0,12.018-0.006,12.018-11.967v-6.02
				C137.991,24.034,137.986,24,125.977,24z M129.995,41.99c0,3.988-0.026,4.006-4.026,4.006c-3.982,0-3.967-0.018-3.967-4.006
				v-6.008c0-3.975,0.012-3.967,3.967-3.967c4.018,0,4.026,0.027,4.026,3.967V41.99z M153.131,34.502
				c-1.469-2.584-4.232-7.201-4.988-8.5c-1.099-1.893-1.293-2-5.233-2c-3.943,0-5.021,0.091-2.7,3.988
				c1.359,2.289,3.993,6.895,5.191,9.012c0.769,1.354,0.795,2.631,0,4c-1.233,2.145-4.981,8.617-5.202,8.994
				c-2.21,3.793-1.191,4.006,2.739,4.006c3.938,0,4.021-0.021,5.205-2c1.193-1.994,3.438-5.824,4.988-8.5
				C155.646,39.164,155.613,38.871,153.131,34.502z"/>
		</g>
	</g>
</g>
<g id="_x3D__x5D__2_">
	<path opacity="0.9" fill="#333333" enable-background="new    " d="M43.998,16.001c-4,0-4-0.001-4,3.997
		c0,2.006-0.014,2.003-2.004,2.003c-6.031,0-25.984,0-27.994,0s-2,0.006-2-2c0-3.999-0.015-4-4.007-4c-3.992,0-3.993,0.003-3.993,4
		c0,1.326,0,2.016,0,4s0.016,2,1.996,2h44.002c1.984,0,2-0.016,2-2s0-2.674,0-4C47.998,16.004,47.998,16.001,43.998,16.001z
		 M29.999,14.002c3.997,0,3.992-0.002,3.992-4c0-4.198,0-3.385,0-6.001c0-3.998,0.004-4-3.992-4s-3.992,0.002-3.992,4
		c0,2.616,0,1.803,0,6.001C26.006,14,26.002,14.002,29.999,14.002z M17.999,14.002c3.997,0,3.992-0.002,3.992-4
		c0-4.198,0-3.385,0-6.001c0-3.998,0.004-4-3.992-4s-3.992,0.002-3.992,4c0,2.616,0,1.803,0,6.001
		C14.007,14,14.002,14.002,17.999,14.002z"/>
	<g id="Layer_10">
		<g id="shadow_2_" opacity="0.1">
			<g>
				<path d="M44,26.544c-1.767-0.889-4.002-1.968-4.002-1.968H8.027c0,0-2.453,1.127-3.997,1.968
					c-1.433,0.779-3.996,1.939-3.996,7.879v17.729c0,3.938,0,3.938,3.996,3.938h6.994c1.726,0,2.274,0.502,2.732,0.709
					c1.792,1.016,3.933,2.23,5.917,3.355c4.353,2.469,4.34,2.455,8.706-0.014c1.773-1.004,4.117-2.344,5.839-3.314
					c0.336-0.174,1.267-0.736,2.782-0.736h6.994c3.978,0,3.998,0,3.998-3.938V34.424C47.992,28.55,46.069,27.585,44,26.544z"/>
			</g>
		</g>
		<g id="Gradient">
			<g>
				
					<linearGradient id="SVGID_1_" gradientUnits="userSpaceOnUse" x1="24.0342" y1="-699.4604" x2="24.0342" y2="-661.8374" gradientTransform="matrix(1 0 0 -1 0 -640)">
					<stop  offset="0.7312" style="stop-color:#FFFFFF"/>
					<stop  offset="0.7663" style="stop-color:#FBFBFB"/>
					<stop  offset="0.8021" style="stop-color:#EFEFEF"/>
					<stop  offset="0.8383" style="stop-color:#DADADA"/>
					<stop  offset="0.8746" style="stop-color:#BEBEBE"/>
					<stop  offset="0.9112" style="stop-color:#999999"/>
					<stop  offset="0.9474" style="stop-color:#6C6C6C"/>
					<stop  offset="0.9785" style="stop-color:#404040"/>
				</linearGradient>
				<path fill="url(#SVGID_1_)" d="M44.035,23.978c-1.766-0.894-4.221-2.141-4.221-2.141s-0.006,0.15-0.816,0.15
					c-0.446,0-29.691,0.005-30.086,0.005c-0.364,0-0.579-0.155-0.579-0.155s-2.755,1.293-4.299,2.141c-1.434,0.787-4,1.959-4,7.95
					c0,5.051,0,16.396,0,17.887c0,3.979,0,3.979,4,3.979c0.493,0,3.962,0,8.686,0c0.485,0.158,0.785,0.354,1.037,0.473
					c1.792,1.014,3.933,2.229,5.917,3.354c4.353,2.465,4.34,2.451,8.707-0.016c1.771-1.006,4.116-2.342,5.838-3.314
					c0.193-0.1,0.606-0.32,1.191-0.496c3.974,0,7.167,0,8.624,0c3.98,0,4.001,0,4.001-3.977s0-12.838,0-17.887
					C48.034,26.002,46.11,25.029,44.035,23.978z"/>
			</g>
		</g>
		<path opacity="0.1" enable-background="new    " d="M11.034,25.605c1.299,0,1.845,0.334,2.242,0.574
			c0.095,0.059,6.171,3.86,6.171,3.86c2.251,1.411,3.417,2.119,4.583,2.119c1.164,0,2.327-0.704,4.562-2.104l5.965-3.746
			c0.354-0.209,1.186-0.703,2.476-0.703h9.372c-0.398-0.441-0.844-0.776-1.316-1.061h-8.056c-1.537,0-2.52,0.583-2.94,0.833
			l-5.985,3.757c-2.079,1.303-3.125,1.956-4.075,1.956c-0.002,0-0.003,0-0.005,0c-0.955,0-2.004-0.659-4.096-1.972
			c0,0-6.103-3.82-6.182-3.867c-0.465-0.279-1.165-0.707-2.716-0.707H3.051c-0.409,0.264-0.838,0.598-1.242,1.061H11.034
			L11.034,25.605z"/>
		<path opacity="0.1" enable-background="new    " d="M28.295,48.879c-0.98,0.57-2.52,1.391-3.426,1.896
			c-0.579,0.318-1.126,0.33-1.712,0c-0.917-0.521-3.264-1.809-3.426-1.896c-1.625-0.926-1.712-0.639-1.712,1.014
			c0,1.645-0.018,2.012,0.843,2.488c0.861,0.471,2.138,1.186,3.292,1.828c1.865,1.037,1.86,1.033,3.73-0.006
			c1.106-0.615,2.735-1.529,3.299-1.834c0.822-0.443,0.825-0.818,0.825-2.471C30.007,48.246,29.964,47.906,28.295,48.879z
			 M28.839,49.898c0,0.59,0,1.201-0.059,1.377c-0.009,0-0.057,0.037-0.16,0.09c-0.381,0.207-1.253,0.691-2.121,1.176l-1.193,0.664
			c-0.568,0.316-1.137,0.637-1.293,0.637c-0.156,0-0.729-0.318-1.284-0.629c0,0-2.685-1.496-3.297-1.832
			c-0.161-0.088-0.204-0.129-0.208-0.135c-0.039-0.115-0.039-0.697-0.039-1.258c0-0.031,0-0.064,0-0.096l0.659,0.361
			c0.805,0.438,2.102,1.154,2.729,1.514c0.463,0.262,0.948,0.395,1.434,0.395c0.482,0,0.966-0.133,1.437-0.391l1.066-0.588
			c0.786-0.43,1.671-0.912,2.328-1.291C28.839,49.895,28.839,49.896,28.839,49.898z"/>
	</g>
	<g id="Shade_1_" opacity="0.1">
		<g>
			<path d="M29.99,0.001c-4.01,0-4.005,0.002-4.005,4.199c0,1.461,0,1.915,0,2.673c0-4.197-0.005-4.199,4.005-4.199
				c4.008,0,4.003,0.002,4.003,4.199c0-0.758,0-1.212,0-2.673C33.994,0.003,33.999,0.001,29.99,0.001z M17.99,0.001
				c-4.01,0-4.005,0.002-4.005,4.199c0,1.461,0,1.915,0,2.673c0-4.197-0.005-4.199,4.005-4.199c4.008,0,4.003,0.002,4.003,4.199
				c0-0.758,0-1.212,0-2.673C21.994,0.003,21.999,0.001,17.99,0.001z M5.103,16.047H2.961c-2.784,0.031-2.923,0.323-2.927,3.032
				c0,0.229,0,0.453,0,0.672c0,0.775,0,1.473,0,1.969c0.004-3.02,0.164-3.035,3.983-3.035c2.967,0,3.762,0.016,3.976,1.359
				c0-0.146-0.001-0.301-0.001-0.484C7.992,16.404,8.071,16.081,5.103,16.047z M47.991,19.56c0-3.156,0.079-3.479-2.889-3.513H42.96
				c-2.784,0.031-2.923,0.323-2.927,3.032c0,0.229,0,0.453,0,0.672c0,0.775,0,1.473,0,1.969c0.004-3.02,0.164-3.035,3.983-3.035
				c2.967,0,3.762,0.016,3.976,1.359C47.992,19.898,47.991,19.744,47.991,19.56z"/>
		</g>
	</g>
</g>
</svg>
