<?xml version="1.0" encoding="utf-8"?>
<!-- Generator: Adobe Illustrator 16.0.0, SVG Export Plug-In . SVG Version: 6.00 Build 0)  -->
<!DOCTYPE svg PUBLIC "-//W3C//DTD SVG 1.1//EN" "http://www.w3.org/Graphics/SVG/1.1/DTD/svg11.dtd">
<svg version="1.1" id="W_1_" xmlns="http://www.w3.org/2000/svg" xmlns:xlink="http://www.w3.org/1999/xlink" x="0px" y="0px"
	 width="56px" height="84px" viewBox="0 0 56 84" enable-background="new 0 0 56 84" xml:space="preserve">
<g id="_x3D__x5D__2_">
	<path opacity="0.9" fill="#333333" enable-background="new    " d="M48.003,16.001c-4,0-4-0.001-4,3.997
		c0,2.006-0.016,2.003-2.004,2.003c-6.031,0-25.984,0-27.994,0s-2,0.006-2-2c0-3.999-0.015-4-4.007-4c-3.992,0-3.993,0.003-3.993,4
		c0,1.326,0,2.016,0,4s0.016,2,1.996,2h44.002c1.982,0,2-0.016,2-2s0-2.674,0-4C52.003,16.004,52.003,16.001,48.003,16.001z
		 M34.004,14.002c3.997,0,3.992-0.002,3.992-4c0-4.198,0-3.385,0-6.001c0-3.998,0.004-4-3.992-4s-3.992,0.002-3.992,4
		c0,2.616,0,1.803,0,6.001C30.011,14,30.007,14.002,34.004,14.002z M22.004,14.002c3.997,0,3.992-0.002,3.992-4
		c0-4.198,0-3.385,0-6.001c0-3.998,0.004-4-3.992-4s-3.992,0.002-3.992,4c0,2.616,0,1.803,0,6.001
		C18.012,14,18.007,14.002,22.004,14.002z"/>
	<g id="Layer_10">
		<g id="shadow_2_" opacity="0.1">
			<g>
				<path d="M48.005,26.544c-1.768-0.889-4.002-1.968-4.002-1.968H12.032c0,0-2.453,1.127-3.997,1.968
					c-1.433,0.779-3.996,1.939-3.996,7.879v17.729c0,3.938,0,3.938,3.996,3.938h6.994c1.726,0,2.274,0.502,2.732,0.709
					c1.792,1.016,3.933,2.23,5.917,3.355c4.353,2.469,4.34,2.455,8.706-0.014c1.771-1.007,4.117-2.347,5.839-3.314
					c0.337-0.174,1.269-0.736,2.782-0.736h6.994c3.979,0,3.998,0,3.998-3.938V34.424C51.997,28.55,50.073,27.585,48.005,26.544z"/>
			</g>
		</g>
		<g id="Gradient">
			<g>
				
					<linearGradient id="SVGID_1_" gradientUnits="userSpaceOnUse" x1="28.0396" y1="2220.4639" x2="28.0395" y2="2182.8379" gradientTransform="matrix(1 0 0 1 0 -2161)">
					<stop  offset="0.7312" style="stop-color:#FFFFFF"/>
					<stop  offset="0.7663" style="stop-color:#FBFBFB"/>
					<stop  offset="0.8021" style="stop-color:#EFEFEF"/>
					<stop  offset="0.8383" style="stop-color:#DADADA"/>
					<stop  offset="0.8746" style="stop-color:#BEBEBE"/>
					<stop  offset="0.9112" style="stop-color:#999999"/>
					<stop  offset="0.9474" style="stop-color:#6C6C6C"/>
					<stop  offset="0.9785" style="stop-color:#404040"/>
				</linearGradient>
				<path fill="url(#SVGID_1_)" d="M48.04,23.978c-1.768-0.894-4.223-2.141-4.223-2.141s-0.006,0.15-0.814,0.15
					c-0.446,0-29.691,0.005-30.086,0.005c-0.364,0-0.579-0.155-0.579-0.155s-2.755,1.293-4.299,2.141c-1.434,0.787-4,1.959-4,7.95
					c0,5.051,0,16.396,0,17.887c0,3.979,0,3.979,4,3.979c0.493,0,3.962,0,8.686,0c0.485,0.158,0.785,0.354,1.037,0.474
					c1.792,1.016,3.933,2.229,5.917,3.354c4.353,2.465,4.34,2.451,8.707-0.017c1.771-1.006,4.116-2.342,5.84-3.313
					c0.191-0.101,0.604-0.319,1.189-0.496c3.974,0,7.167,0,8.624,0c3.979,0,4.001,0,4.001-3.978c0-3.979,0-12.838,0-17.887
					C52.039,26.002,50.114,25.029,48.04,23.978z"/>
			</g>
		</g>
		<path opacity="0.1" enable-background="new    " d="M15.039,25.605c1.299,0,1.845,0.334,2.242,0.574
			c0.095,0.059,6.171,3.86,6.171,3.86c2.251,1.411,3.417,2.119,4.583,2.119c1.165,0,2.327-0.704,4.562-2.104l5.967-3.746
			c0.354-0.209,1.186-0.703,2.476-0.703h9.372c-0.398-0.441-0.844-0.776-1.316-1.061h-8.056c-1.537,0-2.521,0.583-2.94,0.833
			l-5.983,3.757c-2.08,1.303-3.125,1.956-4.075,1.956c-0.002,0-0.003,0-0.005,0c-0.955,0-2.004-0.659-4.096-1.972
			c0,0-6.103-3.82-6.182-3.867c-0.465-0.279-1.165-0.707-2.716-0.707H7.056c-0.409,0.264-0.838,0.598-1.242,1.061H15.039
			L15.039,25.605z"/>
		<path opacity="0.1" enable-background="new    " d="M32.3,48.879c-0.979,0.57-2.521,1.391-3.426,1.896
			c-0.579,0.315-1.126,0.33-1.712,0c-0.917-0.521-3.264-1.812-3.426-1.896c-1.625-0.926-1.712-0.639-1.712,1.014
			c0,1.646-0.018,2.015,0.843,2.488c0.861,0.471,2.138,1.186,3.292,1.828c1.865,1.037,1.86,1.033,3.73-0.006
			c1.106-0.615,2.735-1.529,3.3-1.834c0.821-0.443,0.824-0.818,0.824-2.471C34.012,48.246,33.969,47.906,32.3,48.879z
			 M32.844,49.898c0,0.59,0,1.201-0.06,1.377c-0.01,0-0.057,0.037-0.159,0.09c-0.381,0.207-1.253,0.691-2.121,1.176l-1.193,0.664
			c-0.568,0.316-1.137,0.637-1.292,0.637c-0.156,0-0.729-0.318-1.284-0.629c0,0-2.685-1.496-3.297-1.832
			c-0.161-0.088-0.204-0.129-0.208-0.135c-0.039-0.115-0.039-0.697-0.039-1.258c0-0.031,0-0.064,0-0.096l0.659,0.358
			c0.805,0.438,2.102,1.154,2.729,1.517c0.463,0.262,0.948,0.395,1.434,0.395c0.482,0,0.968-0.133,1.438-0.391l1.064-0.588
			c0.786-0.433,1.672-0.912,2.328-1.291C32.844,49.895,32.844,49.896,32.844,49.898z"/>
	</g>
	<g id="Shade_1_" opacity="0.1">
		<g>
			<path d="M33.995,0.001c-4.011,0-4.005,0.002-4.005,4.199c0,1.461,0,1.915,0,2.673c0-4.197-0.006-4.199,4.005-4.199
				c4.008,0,4.003,0.002,4.003,4.199c0-0.758,0-1.212,0-2.673C37.999,0.003,38.004,0.001,33.995,0.001z M21.995,0.001
				c-4.01,0-4.005,0.002-4.005,4.199c0,1.461,0,1.915,0,2.673c0-4.197-0.005-4.199,4.005-4.199c4.008,0,4.003,0.002,4.003,4.199
				c0-0.758,0-1.212,0-2.673C25.999,0.003,26.004,0.001,21.995,0.001z M9.108,16.047H6.966c-2.784,0.031-2.923,0.323-2.927,3.032
				c0,0.229,0,0.453,0,0.672c0,0.775,0,1.473,0,1.969c0.004-3.02,0.164-3.035,3.983-3.035c2.967,0,3.762,0.016,3.976,1.359
				c0-0.146-0.001-0.301-0.001-0.484C11.997,16.404,12.076,16.081,9.108,16.047z M51.996,19.56c0-3.156,0.077-3.479-2.89-3.513
				h-2.142c-2.784,0.031-2.923,0.323-2.927,3.032c0,0.229,0,0.453,0,0.672c0,0.775,0,1.473,0,1.969
				c0.004-3.02,0.162-3.035,3.982-3.035c2.967,0,3.762,0.016,3.977,1.359C51.997,19.898,51.996,19.744,51.996,19.56z"/>
		</g>
	</g>
</g>
<g id="shade" opacity="0.102">
	<g>
		<path d="M53.993,69c-1.99,0-1.991-0.008-1.991,1.982v11.016c0,2.006,0.001,2.004,1.999,2.004C56,84.002,56,83.996,56,82.005
			V70.991C56,69,55.985,69,53.993,69z M54.006,68.002c1.996,0,1.992-0.01,1.992-1.507s-0.019-1.5-2.007-1.5
			c-1.986,0-1.989,0.013-1.989,1.502S52.01,68.002,54.006,68.002z M49.049,69c-1.971,0-2.067,0.055-2.617,1.001
			c-0.167,0.288-0.532,0.903-0.95,1.61c-0.153,0.244-0.137,0.358,0.02,0.641c0.311,0.528,0.59,1.021,0.827,1.438
			c0.329,0.58,0.444,0.813,0.798,1.438c0.354,0.595,0.652,0.379,0.875,0c0.668-1.151,1.789-3.106,2.398-4.134
			C51.557,69.046,51.021,69,49.049,69z M48,77.871c-0.224-0.379-0.521-0.596-0.875,0c-0.354,0.627-0.47,0.857-0.798,1.438
			c-0.237,0.418-0.518,0.909-0.827,1.438c-0.155,0.28-0.173,0.396-0.021,0.642c0.42,0.707,0.784,1.321,0.951,1.609
			C46.981,83.945,47.078,84,49.049,84c1.972,0,2.508-0.046,1.351-1.995C49.789,80.979,48.668,79.023,48,77.871z M18.993,68.999
			c-5.969,0-5.988-0.011-5.988,5.987v3.025c0,5.967-0.009,5.982,5.988,5.982c6.016,0,6.007-0.002,6.007-5.982v-3.01
			C25,69.018,24.998,68.999,18.993,68.999z M21.002,77.994c0,1.994-0.013,2.003-2.013,2.003c-1.992,0-1.984-0.009-1.984-2.003V74.99
			c0-1.986,0.007-1.983,1.984-1.983c2.009,0,2.013,0.017,2.013,1.983V77.994z M6.002,69.001c-0.507,0-1.475,0.002-1.997,0.117
			c0,0,0-0.113,0-2.117s-0.008-2.003-2.004-2.003S0,64.997,0,66.993s0,10.981,0,10.981c0,6.027-0.022,6.019,6.003,6.019
			s5.996,0.015,5.996-6.004c0-1.197,0-2.979,0-2.979C11.999,69.004,12.003,69.001,6.002,69.001z M8.001,77.99
			c0,1.994,0.015,2.013-1.992,2.013c-2.008,0-2.012-0.019-2.012-2.013v-2.992c0-1.984,0.011-1.999,2.009-1.999
			c1.986,0,1.995-0.019,1.995,1.996V77.99z M31.992,68.999c-5.969,0-5.988-0.011-5.988,5.987v3.025c0,5.967-0.009,5.982,5.988,5.982
			c6.017,0,6.008-0.002,6.008-5.982v-3.01C38,69.018,37.997,68.999,31.992,68.999z M34.002,77.994c0,1.994-0.015,2.003-2.014,2.003
			c-1.992,0-1.984-0.009-1.984-2.003V74.99c0-1.986,0.008-1.983,1.984-1.983c2.008,0,2.014,0.017,2.014,1.983V77.994z M45.567,74.25
			c-0.732-1.292-2.114-3.602-2.492-4.25c-0.551-0.945-0.646-1-2.618-1c-1.974,0-2.509,0.046-1.351,1.994
			c0.681,1.146,1.996,3.447,2.597,4.506c0.384,0.677,0.397,1.316,0,2c-0.617,1.072-2.491,4.309-2.603,4.497
			C37.998,83.895,38.506,84,40.473,84c1.968,0,2.011-0.011,2.603-1c0.598-0.997,1.719-2.912,2.494-4.25
			C46.825,76.581,46.812,76.436,45.567,74.25z"/>
	</g>
</g>
<g id="booxi">
	<g>
		<path fill="#FFFFFF" d="M54.006,67.002c1.996,0,1.992-0.01,1.992-1.507s-0.019-1.499-2.007-1.499
			c-1.986,0-1.989,0.012-1.989,1.501S52.01,67.002,54.006,67.002z M53.993,68c-1.99,0-1.991-0.008-1.991,1.982
			c0,1.992,0,9.504,0,11.016c0,2.006,0.001,2.004,1.999,2.004C56,83.002,56,82.996,56,81.005c0-1.499,0-9.022,0-11.014
			C56,67.999,55.985,68,53.993,68z M49.049,68c-1.971,0-2.067,0.055-2.617,1c-0.167,0.289-0.532,0.904-0.95,1.611
			c-0.153,0.244-0.137,0.358,0.02,0.641c0.311,0.528,0.59,1.021,0.827,1.438c0.329,0.58,0.444,0.813,0.798,1.438
			c0.354,0.595,0.652,0.379,0.875,0c0.668-1.151,1.789-3.106,2.398-4.134C51.557,68.045,51.021,68,49.049,68z M48,76.871
			c-0.224-0.379-0.521-0.596-0.875,0c-0.354,0.627-0.47,0.857-0.798,1.438c-0.237,0.418-0.518,0.909-0.827,1.438
			c-0.155,0.28-0.173,0.396-0.021,0.642c0.42,0.707,0.784,1.321,0.951,1.609C46.981,82.945,47.078,83,49.049,83
			c1.972,0,2.508-0.046,1.351-1.996C49.789,79.979,48.668,78.023,48,76.871z M18.993,67.999c-5.969,0-5.988-0.011-5.988,5.987v3.025
			c0,5.967-0.009,5.982,5.988,5.982c6.016,0,6.007-0.002,6.007-5.982v-3.01C25,68.018,24.998,67.999,18.993,67.999z M21.002,76.994
			c0,1.994-0.013,2.003-2.013,2.003c-1.992,0-1.984-0.009-1.984-2.003V73.99c0-1.986,0.007-1.983,1.984-1.983
			c2.009,0,2.013,0.015,2.013,1.983V76.994z M6.002,68.001c-0.507,0-1.475,0.002-1.997,0.117c0,0,0-0.113,0-2.117
			s-0.008-2.003-2.004-2.003S0,63.997,0,65.993s0,10.981,0,10.981c0,6.027-0.022,6.019,6.003,6.019s5.996,0.015,5.996-6.004
			c0-1.197,0-2.979,0-2.979C11.999,68.004,12.003,68.001,6.002,68.001z M8.001,76.99c0,1.994,0.015,2.013-1.992,2.013
			c-2.008,0-2.012-0.019-2.012-2.013v-2.992c0-1.984,0.011-1.999,2.009-1.999c1.986,0,1.995-0.019,1.995,1.996V76.99z
			 M31.992,67.999c-5.969,0-5.988-0.011-5.988,5.987v3.025c0,5.967-0.009,5.982,5.988,5.982c6.017,0,6.008-0.002,6.008-5.982v-3.01
			C38,68.018,37.997,67.999,31.992,67.999z M34.002,76.994c0,1.994-0.015,2.003-2.014,2.003c-1.992,0-1.984-0.009-1.984-2.003V73.99
			c0-1.986,0.008-1.983,1.984-1.983c2.008,0,2.014,0.015,2.014,1.983V76.994z M45.567,73.25c-0.732-1.292-2.114-3.602-2.492-4.25
			c-0.551-0.945-0.646-1-2.618-1c-1.974,0-2.509,0.045-1.351,1.994c0.681,1.145,1.996,3.447,2.597,4.506
			c0.384,0.677,0.397,1.316,0,2c-0.617,1.072-2.491,4.309-2.603,4.497C37.998,82.895,38.506,83,40.473,83
			c1.968,0,2.011-0.011,2.603-1c0.598-0.997,1.719-2.912,2.494-4.25C46.825,75.581,46.812,75.436,45.567,73.25z"/>
	</g>
</g>
</svg>
