<?xml version="1.0" encoding="utf-8"?>
<!-- Generator: Adobe Illustrator 16.0.0, SVG Export Plug-In . SVG Version: 6.00 Build 0)  -->
<!DOCTYPE svg PUBLIC "-//W3C//DTD SVG 1.1//EN" "http://www.w3.org/Graphics/SVG/1.1/DTD/svg11.dtd">
<svg version="1.1" id="W_1_" xmlns="http://www.w3.org/2000/svg" xmlns:xlink="http://www.w3.org/1999/xlink" x="0px" y="0px"
	 width="47.998px" height="62px" viewBox="0 0 47.998 62" enable-background="new 0 0 47.998 62" xml:space="preserve">
<g id="_x3D__x5D__2_">
	<path opacity="0.9" fill="#333333" enable-background="new    " d="M43.998,16.001c-4,0-4-0.001-4,3.997
		c0,2.006-0.014,2.003-2.004,2.003c-6.031,0-25.984,0-27.994,0s-2,0.006-2-2c0-3.999-0.015-4-4.007-4c-3.992,0-3.993,0.003-3.993,4
		c0,1.326,0,2.016,0,4s0.016,2,1.996,2h44.002c1.984,0,2-0.016,2-2s0-2.674,0-4C47.998,16.004,47.998,16.001,43.998,16.001z
		 M29.999,14.002c3.997,0,3.992-0.002,3.992-4c0-4.198,0-3.385,0-6.001c0-3.998,0.004-4-3.992-4s-3.992,0.002-3.992,4
		c0,2.616,0,1.803,0,6.001C26.006,14,26.002,14.002,29.999,14.002z M17.999,14.002c3.997,0,3.992-0.002,3.992-4
		c0-4.198,0-3.385,0-6.001c0-3.998,0.004-4-3.992-4s-3.992,0.002-3.992,4c0,2.616,0,1.803,0,6.001
		C14.007,14,14.002,14.002,17.999,14.002z"/>
	<g id="Layer_10">
		<g id="shadow_2_" opacity="0.1">
			<g>
				<path d="M44,26.544c-1.767-0.889-4.002-1.968-4.002-1.968H8.027c0,0-2.453,1.127-3.997,1.968
					c-1.433,0.779-3.996,1.939-3.996,7.879v17.729c0,3.938,0,3.938,3.996,3.938h6.994c1.726,0,2.274,0.502,2.732,0.709
					c1.792,1.016,3.933,2.23,5.917,3.355c4.353,2.469,4.34,2.455,8.706-0.014c1.773-1.005,4.117-2.345,5.839-3.314
					c0.336-0.174,1.267-0.736,2.782-0.736h6.994c3.978,0,3.998,0,3.998-3.938V34.424C47.992,28.55,46.069,27.585,44,26.544z"/>
			</g>
		</g>
		<g id="Gradient">
			<g>
				
					<linearGradient id="SVGID_1_" gradientUnits="userSpaceOnUse" x1="24.0347" y1="1491.4629" x2="24.0347" y2="1453.8379" gradientTransform="matrix(1 0 0 1 0 -1432)">
					<stop  offset="0.7312" style="stop-color:#FFFFFF"/>
					<stop  offset="0.7663" style="stop-color:#FBFBFB"/>
					<stop  offset="0.8021" style="stop-color:#EFEFEF"/>
					<stop  offset="0.8383" style="stop-color:#DADADA"/>
					<stop  offset="0.8746" style="stop-color:#BEBEBE"/>
					<stop  offset="0.9112" style="stop-color:#999999"/>
					<stop  offset="0.9474" style="stop-color:#6C6C6C"/>
					<stop  offset="0.9785" style="stop-color:#404040"/>
				</linearGradient>
				<path fill="url(#SVGID_1_)" d="M44.035,23.978c-1.766-0.894-4.221-2.141-4.221-2.141s-0.006,0.15-0.816,0.15
					c-0.446,0-29.691,0.005-30.086,0.005c-0.364,0-0.579-0.155-0.579-0.155s-2.755,1.293-4.299,2.141c-1.434,0.787-4,1.959-4,7.95
					c0,5.051,0,16.396,0,17.887c0,3.979,0,3.979,4,3.979c0.493,0,3.962,0,8.686,0c0.485,0.158,0.785,0.354,1.037,0.474
					c1.792,1.014,3.933,2.229,5.917,3.354c4.353,2.465,4.34,2.451,8.707-0.016c1.771-1.006,4.116-2.342,5.838-3.314
					c0.193-0.1,0.606-0.32,1.191-0.496c3.974,0,7.167,0,8.624,0c3.98,0,4.001,0,4.001-3.977c0-3.978,0-12.838,0-17.887
					C48.034,26.002,46.11,25.029,44.035,23.978z"/>
			</g>
		</g>
		<path opacity="0.1" enable-background="new    " d="M11.034,25.605c1.299,0,1.845,0.334,2.242,0.574
			c0.095,0.059,6.171,3.86,6.171,3.86c2.251,1.411,3.417,2.119,4.583,2.119c1.164,0,2.327-0.704,4.562-2.104l5.965-3.746
			c0.354-0.209,1.186-0.703,2.476-0.703h9.372c-0.398-0.441-0.844-0.776-1.316-1.061h-8.056c-1.537,0-2.52,0.583-2.94,0.833
			l-5.985,3.757c-2.079,1.303-3.125,1.956-4.075,1.956c-0.002,0-0.003,0-0.005,0c-0.955,0-2.004-0.659-4.096-1.972
			c0,0-6.103-3.82-6.182-3.867c-0.465-0.279-1.165-0.707-2.716-0.707H3.051c-0.409,0.264-0.838,0.598-1.242,1.061H11.034
			L11.034,25.605z"/>
		<path opacity="0.1" enable-background="new    " d="M28.295,48.879c-0.98,0.57-2.52,1.391-3.426,1.896
			c-0.579,0.317-1.126,0.33-1.712,0c-0.917-0.521-3.264-1.81-3.426-1.896c-1.625-0.926-1.712-0.639-1.712,1.014
			c0,1.646-0.018,2.013,0.843,2.488c0.861,0.471,2.138,1.186,3.292,1.828c1.865,1.037,1.86,1.033,3.73-0.006
			c1.106-0.615,2.735-1.529,3.299-1.834c0.822-0.443,0.825-0.818,0.825-2.471C30.007,48.246,29.964,47.906,28.295,48.879z
			 M28.839,49.898c0,0.59,0,1.201-0.059,1.377c-0.009,0-0.057,0.037-0.16,0.09c-0.381,0.207-1.253,0.691-2.121,1.176l-1.193,0.664
			c-0.568,0.316-1.137,0.637-1.293,0.637c-0.156,0-0.729-0.318-1.284-0.629c0,0-2.685-1.496-3.297-1.832
			c-0.161-0.088-0.204-0.129-0.208-0.135c-0.039-0.115-0.039-0.697-0.039-1.258c0-0.031,0-0.064,0-0.096l0.659,0.36
			c0.805,0.438,2.102,1.154,2.729,1.515c0.463,0.262,0.948,0.395,1.434,0.395c0.482,0,0.966-0.133,1.437-0.391l1.066-0.588
			c0.786-0.431,1.671-0.912,2.328-1.291C28.839,49.895,28.839,49.896,28.839,49.898z"/>
	</g>
	<g id="Shade_1_" opacity="0.1">
		<g>
			<path d="M29.99,0.001c-4.01,0-4.005,0.002-4.005,4.199c0,1.461,0,1.915,0,2.673c0-4.197-0.005-4.199,4.005-4.199
				c4.008,0,4.003,0.002,4.003,4.199c0-0.758,0-1.212,0-2.673C33.994,0.003,33.999,0.001,29.99,0.001z M17.99,0.001
				c-4.01,0-4.005,0.002-4.005,4.199c0,1.461,0,1.915,0,2.673c0-4.197-0.005-4.199,4.005-4.199c4.008,0,4.003,0.002,4.003,4.199
				c0-0.758,0-1.212,0-2.673C21.994,0.003,21.999,0.001,17.99,0.001z M5.103,16.047H2.961c-2.784,0.031-2.923,0.323-2.927,3.032
				c0,0.229,0,0.453,0,0.672c0,0.775,0,1.473,0,1.969c0.004-3.02,0.164-3.035,3.983-3.035c2.967,0,3.762,0.016,3.976,1.359
				c0-0.146-0.001-0.301-0.001-0.484C7.992,16.404,8.071,16.081,5.103,16.047z M47.991,19.56c0-3.156,0.079-3.479-2.889-3.513H42.96
				c-2.784,0.031-2.923,0.323-2.927,3.032c0,0.229,0,0.453,0,0.672c0,0.775,0,1.473,0,1.969c0.004-3.02,0.164-3.035,3.983-3.035
				c2.967,0,3.762,0.016,3.976,1.359C47.992,19.898,47.991,19.744,47.991,19.56z"/>
		</g>
	</g>
</g>
</svg>
