<svg xmlns="http://www.w3.org/2000/svg" width="40" height="40" viewBox="0 0 40 40">
  <metadata><?xpacket begin="﻿" id="W5M0MpCehiHzreSzNTczkc9d"?>
<x:xmpmeta xmlns:x="adobe:ns:meta/" x:xmptk="Adobe XMP Core 5.6-c138 79.159824, 2016/09/14-01:09:01        ">
   <rdf:RDF xmlns:rdf="http://www.w3.org/1999/02/22-rdf-syntax-ns#">
      <rdf:Description rdf:about=""/>
   </rdf:RDF>
</x:xmpmeta>
                                                                                                    
                                                                                                    
                                                                                                    
                                                                                                    
                                                                                                    
                                                                                                    
                                                                                                    
                                                                                                    
                                                                                                    
                                                                                                    
                                                                                                    
                                                                                                    
                                                                                                    
                                                                                                    
                                                                                                    
                                                                                                    
                                                                                                    
                                                                                                    
                                                                                                    
                                                                                                    
                           
<?xpacket end="w"?></metadata>
<defs>
    <style>
      .cls-1 {
        fill: #fff;
      }

      .cls-1, .cls-2, .cls-3 {
        fill-rule: evenodd;
      }

      .cls-2 {
        fill: #555;
      }

      .cls-3 {
        fill: #44ce5e;
      }
    </style>
  </defs>
  <path id="w" class="cls-1" d="M11,11H29V29H11V11Zm6-3h6v4H17V8ZM32,5.007a7,7,0,1,1-7,7A7,7,0,0,1,32,5.007Z"/>
  <path id="b" class="cls-2" d="M14,18H24.02a10.053,10.053,0,0,0,.852,1H14V18Zm0,7V24h7v1H14Zm0-4H26v1H14V21Zm8-9.008A10.046,10.046,0,0,0,22.2,14H15.333l1.674-2.678V10H16l-1.5,2H12V29H28V21.154a9.912,9.912,0,0,0,2,.637V29a2,2,0,0,1-2,2H12a2,2,0,0,1-2-2V12a2,2,0,0,1,2-2h5.008V7.8A0.83,0.83,0,0,1,17.776,7h4.465a0.773,0.773,0,0,1,.721.732A9.942,9.942,0,0,0,22,11.992ZM20,8.5A1.5,1.5,0,1,0,21.5,10,1.5,1.5,0,0,0,20,8.5Z"/>
  <path id="g" class="cls-3" d="M32,20.008a8,8,0,1,1,8-8A8,8,0,0,1,32,20.008ZM36.609,9.837l-0.671-.672a0.469,0.469,0,0,0-.663-0.008l-4.524,4.527-2.023-2.027a0.47,0.47,0,0,0-.664.008l-0.672.672a0.469,0.469,0,0,0-.008.664l2.887,2.892a0.442,0.442,0,0,0,.313.126v0.006h0.333V16.018a0.441,0.441,0,0,0,.312-0.126L36.617,10.5A0.469,0.469,0,0,0,36.609,9.837Z"/>
</svg>
