<?xml version="1.0" encoding="utf-8"?>
<!-- Generator: Adobe Illustrator 16.0.3, SVG Export Plug-In . SVG Version: 6.00 Build 0)  -->
<!DOCTYPE svg PUBLIC "-//W3C//DTD SVG 1.1//EN" "http://www.w3.org/Graphics/SVG/1.1/DTD/svg11.dtd">
<svg version="1.1" xmlns="http://www.w3.org/2000/svg" xmlns:xlink="http://www.w3.org/1999/xlink" x="0px" y="0px" width="80px"
	 height="80px" viewBox="0 0 80 80" enable-background="new 0 0 80 80" xml:space="preserve">
<g id="white_1_" opacity="0.502" enable-background="new    ">
	<g id="white">
		<g>
			<path fill-rule="evenodd" clip-rule="evenodd" fill="#FFFFFF" d="M64,9.987c-7.731,0-14,6.269-14,14
				c0,0.686,0.065,1.354,0.161,2.013H22v28h36V36.622c1.82,0.866,3.85,1.365,6,1.365c7.732,0,14-6.268,14-14
				C78,16.256,71.732,9.987,64,9.987z"/>
		</g>
	</g>
</g>
<g id="website_x5F_www_x5F_settings_1_" opacity="0.502" enable-background="new    ">
	<g id="website_x5F_www_x5F_settings">
		<g>
			<path fill-rule="evenodd" clip-rule="evenodd" fill="#555555" d="M61,43.735c-1.386-0.209-2.723-0.558-4-1.035V51H23V27h21.251
				C44.102,26.014,44,25.012,44,23.984c0-0.333,0.033-0.656,0.05-0.984H23c-2.209,0-4,1.791-4,4v24l-6,2v4h54v-4l-6-2V43.735z
				 M44,53.021h-8l-2-2h12L44,53.021z M35.991,35.994l1.027,7.021L39,43l0.988-4.29L41,43l1.98,0.015l1.027-7.021L42,36v5l-1-5h-2
				l-1,5v-5L35.991,35.994z M26.991,35.994l1.027,7.021L30,43l0.988-4.29L32,43l1.98,0.015l1.027-7.021L33,36v5l-1-5h-2l-1,5v-5
				L26.991,35.994z M64,20.002c-2.212,0-4.004,1.79-4.004,3.998s1.792,3.998,4.004,3.998c2.211,0,4.004-1.79,4.004-3.998
				S66.211,20.002,64,20.002z M64,8.017c-8.836,0-16,7.164-16,16c0,8.837,7.164,16,16,16c8.837,0,16-7.163,16-16
				C80,15.181,72.837,8.017,64,8.017z M72.759,25.942l-2.395,0.269c-0.088,0.255-0.193,0.501-0.311,0.741l1.496,1.874
				c-0.269,0.513-0.798,1.14-1.203,1.544c-0.404,0.405-1.031,0.935-1.544,1.203l-1.88-1.5c-0.23,0.111-0.468,0.21-0.712,0.296
				l-0.269,2.39C65.39,32.932,64.572,33,64,33s-1.39-0.068-1.942-0.241l-0.268-2.386c-0.246-0.085-0.485-0.185-0.718-0.297
				l-1.875,1.497c-0.513-0.269-1.14-0.798-1.544-1.203c-0.405-0.404-0.935-1.031-1.203-1.544l1.489-1.866
				c-0.119-0.242-0.226-0.492-0.315-0.75l-2.383-0.268C55.068,25.39,55,24.572,55,24s0.068-1.39,0.241-1.942l2.38-0.268
				c0.091-0.259,0.193-0.513,0.313-0.757l-1.484-1.859c0.269-0.513,0.798-1.14,1.203-1.544c0.404-0.405,1.031-0.935,1.544-1.203
				l1.875,1.496c0.233-0.111,0.471-0.216,0.718-0.301l0.268-2.381C62.61,15.068,63.428,15,64,15s1.39,0.068,1.942,0.241l0.268,2.385
				c0.245,0.086,0.481,0.188,0.714,0.301l1.879-1.5c0.513,0.269,1.14,0.798,1.544,1.203c0.405,0.404,0.935,1.031,1.203,1.544
				l-1.491,1.868c0.118,0.241,0.22,0.491,0.31,0.747l2.391,0.269C72.932,22.61,73,23.428,73,24S72.932,25.39,72.759,25.942z M48,43
				l0.988-4.29L50,43l1.98,0.015l1.026-7.021L51,36v5l-1-5h-2l-1,5v-5l-2.009-0.006l1.026,7.021L48,43z"/>
		</g>
	</g>
</g>
</svg>
