<?xml version="1.0" encoding="utf-8"?>
<!-- Generator: Adobe Illustrator 16.0.3, SVG Export Plug-In . SVG Version: 6.00 Build 0)  -->
<!DOCTYPE svg PUBLIC "-//W3C//DTD SVG 1.1//EN" "http://www.w3.org/Graphics/SVG/1.1/DTD/svg11.dtd">
<svg version="1.1" xmlns="http://www.w3.org/2000/svg" xmlns:xlink="http://www.w3.org/1999/xlink" x="0px" y="0px" width="80px"
	 height="80px" viewBox="0 0 80 80" enable-background="new 0 0 80 80" xml:space="preserve">
<g id="white_1_" opacity="0.502" enable-background="new    ">
	<g id="white">
		<g>
			<path fill-rule="evenodd" clip-rule="evenodd" fill="#FFFFFF" d="M64,9.987c-7.731,0-14,6.269-14,14
				c0,0.004,0.001,0.008,0.001,0.013H16v32h40V35.467c2.269,1.584,5.023,2.52,8,2.52c7.732,0,14-6.268,14-14
				C78,16.256,71.732,9.987,64,9.987z"/>
		</g>
	</g>
</g>
<g id="developer_1_" opacity="0.502" enable-background="new    ">
	<g id="developer">
		<g>
			<path fill-rule="evenodd" clip-rule="evenodd" fill="#555555" d="M58,43.065c-1.41-0.442-2.744-1.051-4-1.778V54H18V26h26.102
				C44.035,25.337,44,24.665,44,23.984c0-0.67,0.036-1.332,0.101-1.984H18c-2.209,0-4,1.791-4,4v28l-6,2v4h56v-4l-6-2V43.065z
				 M40,56.021h-8l-2-2h12L40,56.021z M64,8.017c-8.836,0-16,7.164-16,16c0,8.837,7.164,16,16,16c8.837,0,16-7.163,16-16
				C80,15.181,72.837,8.017,64,8.017z M72.671,20.951l-10.346,9.784c-0.136,0.129-0.302,0.209-0.478,0.242v0.021h-0.666v-0.031
				c-0.31,0.06-0.637-0.008-0.873-0.232l-5.078-4.783c-0.381-0.362-0.373-0.956,0.018-1.327l1.415-1.344
				c0.391-0.371,1.017-0.379,1.397-0.017l3.255,3.066l8.529-8.066c0.381-0.362,1.006-0.354,1.396,0.017l1.413,1.343
				C73.044,19.995,73.052,20.589,72.671,20.951z M28.006,37.429c0,2.242,0,1.545,0,5.143C28.006,45.999,28.003,46,31,46
				s2.994-0.001,2.994-3.429c0-3.598,0-2.9,0-5.143C33.994,34.001,33.997,34,31,34S28.006,34.001,28.006,37.429z M38.006,37.429
				c0,2.242,0,1.545,0,5.143C38.006,45.999,38.003,46,41,46s2.994-0.001,2.994-3.429c0-3.598,0-2.9,0-5.143
				C43.994,34.001,43.997,34,41,34S38.006,34.001,38.006,37.429z"/>
		</g>
	</g>
</g>
</svg>
