<?xml version="1.0" encoding="utf-8"?>
<!-- Generator: Adobe Illustrator 16.0.3, SVG Export Plug-In . SVG Version: 6.00 Build 0)  -->
<!DOCTYPE svg PUBLIC "-//W3C//DTD SVG 1.1//EN" "http://www.w3.org/Graphics/SVG/1.1/DTD/svg11.dtd">
<svg version="1.1" xmlns="http://www.w3.org/2000/svg" xmlns:xlink="http://www.w3.org/1999/xlink" x="0px" y="0px" width="80px"
	 height="80px" viewBox="0 0 80 80" enable-background="new 0 0 80 80" xml:space="preserve">
<g id="white_1_" opacity="0.502" enable-background="new    ">
	<g id="white">
		<g>
			<path fill-rule="evenodd" clip-rule="evenodd" fill="#FFFFFF" d="M63.988,9.986c-6.339,0-11.688,4.215-13.411,9.994
				c-3.567-2.495-7.905-3.963-12.589-3.963c-12.15,0-22,9.851-22,22c0,12.15,9.85,22,22,22c12.15,0,22-9.85,22-22
				c0-0.208-0.01-0.415-0.016-0.622c1.272,0.381,2.619,0.592,4.017,0.592c7.731,0,14-6.269,14-14
				C77.988,16.254,71.72,9.986,63.988,9.986z"/>
		</g>
	</g>
</g>
<g id="search_x5F_seo_1_" opacity="0.502" enable-background="new    ">
	<g id="search_x5F_seo">
		<g>
			<path fill-rule="evenodd" clip-rule="evenodd" fill="#555555" d="M64,8.017c-8.836,0-16,7.164-16,16c0,8.837,7.164,16,16,16
				c8.837,0,16-7.163,16-16C80,15.181,72.837,8.017,64,8.017z M62.5,29c-3.866,0-7-3.134-7-7s3.134-7,7-7s7,3.134,7,7
				S66.366,29,62.5,29z M71.89,31.228l-1.095,1.138c-0.61,0.635-1.601,0.635-2.211,0L66.5,30.187
				c1.442-0.718,2.669-1.82,3.544-3.187l1.846,1.93C72.5,29.564,72.5,30.593,71.89,31.228z M54.025,50.154
				c-0.04-0.022-0.082-0.039-0.122-0.062c-0.395,0.519-0.813,1.016-1.255,1.492c0.036,0.02,0.075,0.035,0.111,0.055
				c-0.177,0.191-0.368,0.384-0.545,0.575c0,0,0,0-0.015,0c-2.163,2.162-4.562,3.722-7.225,4.693c0.057-0.08,0.104-0.162,0.16-0.242
				c-0.995,0.381-2.019,0.703-3.083,0.922c-0.043,0.053-0.08,0.106-0.124,0.159C40.974,57.924,40.03,57.956,39,58v-0.051
				C38.667,57.966,38.337,58,38,58s-0.667-0.034-1-0.051V58c-0.75-0.029-1.442-0.032-2.163-0.136
				c-0.043-0.052-0.084-0.105-0.128-0.157c-1.006-0.167-1.988-0.398-2.938-0.709c0.048,0.067,0.089,0.137,0.138,0.204
				c-3.017-0.927-5.71-2.59-8.108-4.987c-0.191-0.191-0.382-0.384-0.559-0.575c0.036-0.02,0.074-0.034,0.11-0.054
				c-0.441-0.476-0.859-0.973-1.252-1.489c-0.036,0.02-0.073,0.037-0.109,0.058C19.46,46.902,18.162,43.223,18,39h0.05
				C18.034,38.667,18,38.337,18,38s0.034-0.667,0.05-1H18c0.147-3.914,1.269-7.373,3.461-10.448c0.036,0.021,0.073,0.039,0.109,0.06
				c0.368-0.529,0.759-1.039,1.175-1.529c-0.03-0.017-0.062-0.029-0.092-0.046c0.368-0.427,0.736-0.839,1.148-1.235
				c2.384-2.398,5.092-4.062,8.093-5.004c-0.05,0.069-0.092,0.142-0.141,0.212c0.95-0.313,1.934-0.545,2.942-0.713
				c0.043-0.053,0.083-0.107,0.127-0.16C35.558,18.032,36.25,18.029,37,18v0.05c0.333-0.016,0.663-0.05,1-0.05s0.667,0.034,1,0.05
				V18c1.03,0.044,1.987,0.09,2.943,0.268c0.039,0.048,0.075,0.098,0.114,0.146c0.879,0.182,1.725,0.444,2.555,0.741
				c0.328-1.321,0.786-2.588,1.362-3.792C43.479,14.483,40.797,14,38,14c-13.255,0-24,10.745-24,24s10.745,24,24,24
				c11.262,0,20.707-7.758,23.295-18.22c-1.318-0.179-2.593-0.482-3.816-0.905C56.872,45.522,55.748,47.94,54.025,50.154z
				 M48.834,37H39v-6c2.088-0.05,4.069-0.36,5.997-0.8c-0.2-0.612-0.369-1.237-0.511-1.874C42.719,28.703,40.903,28.952,39,29
				v-8.949C38.667,20.032,38.337,20,38,20s-0.667,0.032-1,0.051V29c-2.679-0.059-5.194-0.506-7.623-1.183
				c0.83-2.487,2.001-4.844,3.493-7.065c-1.025,0.305-2.007,0.705-2.947,1.178c-0.952,1.704-1.755,3.468-2.37,5.313
				c-1.017-0.35-1.996-0.77-2.959-1.225c-0.439,0.491-0.854,1.003-1.238,1.54c1.184,0.583,2.396,1.095,3.637,1.524
				C26.317,31.614,26.059,34.219,26,37h-5.949C20.032,37.333,20,37.663,20,38s0.032,0.667,0.051,1H26
				c0.073,3.119,0.42,6.019,1.258,8.83c-1.152,0.378-2.266,0.833-3.353,1.346c0.415,0.522,0.85,1.027,1.319,1.5
				c0.865-0.386,1.742-0.738,2.638-1.036c0.564,1.523,1.258,2.998,2.058,4.429c0.95,0.479,1.942,0.881,2.979,1.188
				c-1.319-1.958-2.386-4.008-3.197-6.162C32.042,48.491,34.438,48.073,37,48v7.949C37.333,55.968,37.663,56,38,56
				s0.667-0.032,1-0.051V48c2.781,0.073,5.387,0.551,7.903,1.257c-0.754,1.998-1.742,3.895-2.928,5.706
				c1.076-0.379,2.105-0.855,3.077-1.423c0.639-1.197,1.196-2.429,1.676-3.695c0.693,0.251,1.379,0.524,2.054,0.823
				c0.466-0.47,0.898-0.971,1.311-1.489c-0.897-0.421-1.81-0.812-2.747-1.144c0.854-2.821,1.554-5.744,1.646-8.877
				C50.219,38.494,49.498,37.773,48.834,37z M37,46c-2.767,0.06-5.385,0.607-7.916,1.285C28.304,44.65,28.073,41.928,28,39h9V46z
				 M37,37h-9c0.059-2.575,0.201-5.004,0.833-7.343C31.438,30.362,34.13,30.926,37,31V37z M47.521,47.461
				C44.814,46.666,42.002,46.072,39,46v-7h10C48.926,41.987,48.345,44.769,47.521,47.461z M43.973,21.036
				c0.075,0.115,0.141,0.234,0.215,0.351c0.011-0.083,0.026-0.165,0.038-0.248C44.14,21.107,44.059,21.066,43.973,21.036z M62.5,18
				c-2.209,0-4,1.791-4,4s1.791,4,4,4s4-1.791,4-4S64.709,18,62.5,18z"/>
		</g>
	</g>
</g>
</svg>
