<?xml version="1.0" encoding="utf-8"?>
<!-- Generator: Adobe Illustrator 16.0.3, SVG Export Plug-In . SVG Version: 6.00 Build 0)  -->
<!DOCTYPE svg PUBLIC "-//W3C//DTD SVG 1.1//EN" "http://www.w3.org/Graphics/SVG/1.1/DTD/svg11.dtd">
<svg version="1.1" xmlns="http://www.w3.org/2000/svg" xmlns:xlink="http://www.w3.org/1999/xlink" x="0px" y="0px" width="80px"
	 height="80px" viewBox="0 0 80 80" enable-background="new 0 0 80 80" xml:space="preserve">
<g id="white_1_" opacity="0.502" enable-background="new    ">
	<g id="white">
		<g>
			<path fill-rule="evenodd" clip-rule="evenodd" fill="#FFFFFF" d="M63.993,12.009c-6.543,0-11.854,5.24-11.987,11.75
				c-3.609-3.549-8.555-5.744-14.017-5.744c-11.045,0-20,8.954-20,20s8.955,20,20,20c11.046,0,20-8.954,20-20
				c0-1.321-0.136-2.609-0.38-3.858c1.851,1.167,4.035,1.852,6.384,1.852c6.628,0,12-5.372,12-12
				C75.993,17.382,70.621,12.009,63.993,12.009z"/>
		</g>
	</g>
</g>
<g id="history_1_" opacity="0.502" enable-background="new    ">
	<g id="history">
		<g>
			<path fill-rule="evenodd" clip-rule="evenodd" fill="#555555" d="M37.994,57.779c-7.71,0-14.252-6.035-16.719-11.909h-4.46
				c2.668,9.41,11.407,16.131,21.179,16.131c10.938,0,20.035-8.021,21.724-18.487c-1.424-0.312-2.785-0.781-4.078-1.378
				C54.579,50.934,47.078,57.779,37.994,57.779z M26.221,33.909c-1.4-1.646-3.118-3.664-3.118-3.664l0.422-0.595
				c3.304-4.656,8.713-7.437,14.469-7.437c2.123,0,4.151,0.393,6.041,1.079c0.05-1.468,0.259-2.893,0.609-4.264
				c-2.1-0.667-4.333-1.029-6.65-1.029c-6.802,0-13.119,3.101-17.331,8.507l-0.598,0.768c0,0-2.177-1.893-3.922-3.41
				C14.784,22.504,14,23.104,14,24.313v9.25C14,35.188,14.729,36,16.313,36h9.25C27.188,36,27.218,34.906,26.221,33.909z
				 M40.004,28.767c0-0.437-0.299-0.791-0.668-0.791h-2.672c-0.369,0-0.668,0.354-0.668,0.791v10.468
				c0,0.927,0.238,1.873,0.161,1.797l8.705,8.701c0.296,0.287,0.75,0.311,1.017,0.051l1.927-1.879
				c0.267-0.26,0.242-0.703-0.053-0.991L40,40L40.004,28.767z M64.062,24.007c-0.016,0-0.03,0.005-0.047,0.005
				c-0.021,0-0.039-0.006-0.059-0.006C62.313,24.037,60,25.875,60,28c0,1.548,1.015,2,4,2c2.412,0,4-0.652,4-2
				C68,25.853,66.019,24.045,64.062,24.007z M64,8.017c-8.836,0-16,7.164-16,16c0,8.837,7.164,16,16,16c8.837,0,16-7.163,16-16
				C80,15.181,72.837,8.017,64,8.017z M64,33.004c-3.229,0-6.999-0.955-6.999-3.835c0-0.531,0.047-1.069,0.141-1.6l0.006-0.032
				l0.192-0.832c1.043-3.711,3.646-3.711,3.686-3.711c-1.214-0.915-2.012-2.355-2.012-3.99c0-2.762,2.243-5.008,5.001-5.008
				c2.757,0,5,2.246,5,5.008c0,1.635-0.798,3.075-2.012,3.99c0.305,0.012,2.675,0.215,3.656,3.711l0.196,0.849l0.003,0.016
				c0.094,0.53,0.141,1.068,0.141,1.6C70.999,32.049,67.229,33.004,64,33.004z M64.006,21.005c1.103,0,2-0.898,2-2.004
				c0-1.104-0.897-2.003-2-2.003s-2,0.898-2,2.003C62.006,20.106,62.903,21.005,64.006,21.005z"/>
		</g>
	</g>
</g>
</svg>
