<?xml version="1.0" encoding="utf-8"?>
<!-- Generator: Adobe Illustrator 16.0.3, SVG Export Plug-In . SVG Version: 6.00 Build 0)  -->
<!DOCTYPE svg PUBLIC "-//W3C//DTD SVG 1.1//EN" "http://www.w3.org/Graphics/SVG/1.1/DTD/svg11.dtd">
<svg version="1.1" xmlns="http://www.w3.org/2000/svg" xmlns:xlink="http://www.w3.org/1999/xlink" x="0px" y="0px" width="80px"
	 height="80px" viewBox="0 0 80 80" enable-background="new 0 0 80 80" xml:space="preserve">
<g id="white_1_" opacity="0.502" enable-background="new    ">
	<g id="white">
		<g>
			<path fill-rule="evenodd" clip-rule="evenodd" fill="#FFFFFF" d="M64,9.987c-7.731,0-14,6.269-14,14
				c0,0.686,0.065,1.354,0.161,2.013H42v-4h-4v4h-6v-4h-4v4h-6v34h36V36.622c1.82,0.866,3.85,1.365,6,1.365c7.732,0,14-6.268,14-14
				C78,16.256,71.732,9.987,64,9.987z"/>
		</g>
	</g>
</g>
<g id="notes_1_" opacity="0.502" enable-background="new    ">
	<g id="notes">
		<g>
			<path fill-rule="evenodd" clip-rule="evenodd" fill="#555555" d="M51.998,44.002H28.002v2.009h23.996V44.002z M28.002,52.011
				h23.996v-2.009H28.002V52.011z M55.991,58.014H24.007V28.02H26v2.994h7.992V28.02H36v2.994h7.992V28.02h0.415
				c-0.265-1.292-0.403-2.629-0.405-3.999h-0.01v-3.015H36v3.015h-2.008v-3.015H26v3.015h-3.333c-1.675,0-2.667,1.06-2.667,2.667
				v32.667c0,1.649,1.032,2.666,2.667,2.666h34c1.675,0,3.333-0.997,3.333-2.666V43.583c-1.396-0.284-2.734-0.721-4.009-1.278
				V58.014z M38.001,23.015h3.996v5.999h-3.996V23.015z M28.001,23.015h3.996v5.999h-3.996V23.015z M28.002,38.002v2.009h15.996
				v-2.009H28.002z M64,8.017c-8.836,0-16,7.164-16,16c0,8.837,7.164,16,16,16c8.837,0,16-7.163,16-16
				C80,15.181,72.837,8.017,64,8.017z M61.092,31h-4.085v-4.085l7.638-7.637l4.085,4.085L61.092,31z M71.624,20.468l-1.261,1.262
				l-4.085-4.086l1.261-1.261c0.51-0.51,1.306-0.51,1.815,0l2.27,2.27C72.134,19.162,72.134,19.959,71.624,20.468z"/>
		</g>
	</g>
</g>
</svg>
