<?xml version="1.0" encoding="utf-8"?>
<!-- Generator: Adobe Illustrator 16.0.3, SVG Export Plug-In . SVG Version: 6.00 Build 0)  -->
<!DOCTYPE svg PUBLIC "-//W3C//DTD SVG 1.1//EN" "http://www.w3.org/Graphics/SVG/1.1/DTD/svg11.dtd">
<svg version="1.1" xmlns="http://www.w3.org/2000/svg" xmlns:xlink="http://www.w3.org/1999/xlink" x="0px" y="0px" width="80px"
	 height="80px" viewBox="0 0 80 80" enable-background="new 0 0 80 80" xml:space="preserve">
<g id="white_1_" opacity="0.502" enable-background="new    ">
	<g id="white">
		<g>
			<path fill-rule="evenodd" clip-rule="evenodd" fill="#FFFFFF" d="M64,38.015c7.732,0,14-6.268,14-14c0-7.731-6.268-14-14-14
				c-7.731,0-14,6.269-14,14c0,0.287,0.025,0.567,0.043,0.851c-0.527-0.096-1.067-0.154-1.621-0.154
				c-1.675,0-3.224,0.489-4.579,1.282c-1.685-4.101-5.644-6.979-10.264-6.979c-6.149,0-11.132,5.099-11.132,11.392
				c0,1.498,0.301,2.922,0.815,4.234c-4.736,1.313-8.236,5.695-8.236,10.953c0,6.293,4.982,13.392,11.132,13.392h31.541
				c5.124,0,9.276-6.249,9.276-11.493c0-5.243-4.152-9.492-9.276-9.492c-0.284,0-0.551,0.06-0.828,0.085
				c0.239-0.544,0.427-1.116,0.566-1.707C59.395,37.419,61.627,38.015,64,38.015z"/>
		</g>
	</g>
</g>
<g id="technology_1_" opacity="0.502" enable-background="new    ">
	<g id="technology">
		<g>
			<path fill-rule="evenodd" clip-rule="evenodd" fill="#555555" d="M64.069,43.98c0.575,1.209,0.907,2.568,0.907,4.013
				c0,4.967-3.833,8.992-8.563,8.992H27.299c-5.676,0-10.275-4.83-10.275-10.791c0-4.981,3.231-9.134,7.603-10.377
				c-0.475-1.243-0.752-2.593-0.752-4.012c0-5.961,4.6-10.791,10.276-10.791c4.265,0,7.919,2.726,9.475,6.61
				c0.216-0.129,0.443-0.238,0.67-0.35C44.115,26.203,44,25.108,44,23.984c0-0.819,0.064-1.622,0.16-2.415
				C41.566,18.703,37.924,17,34,17c-7.721,0-14,6.581-14,14.667c0,0.647,0.041,1.296,0.126,1.934C15.806,36.157,13,40.987,13,46.333
				C13,54.422,19.279,61,27,61h29.75C63.504,61,69,55.242,69,48.167c0-1.631-0.301-3.188-0.832-4.624
				C66.845,43.823,65.475,43.977,64.069,43.98z M45,58.989h-8l-2-2h12L45,58.989z M43.006,40.429c0,2.242,0,1.545,0,5.143
				C43.006,48.999,43.003,49,46,49s2.994-0.001,2.994-3.429c0-3.598,0-2.9,0-5.143C48.994,37.001,48.997,37,46,37
				S43.006,37.001,43.006,40.429z M33.006,40.429c0,2.242,0,1.545,0,5.143C33.006,48.999,33.003,49,36,49s2.994-0.001,2.994-3.429
				c0-3.598,0-2.9,0-5.143C38.994,37.001,38.997,37,36,37S33.006,37.001,33.006,40.429z M64,8.017c-8.836,0-16,7.164-16,16
				c0,8.837,7.164,16,16,16c8.837,0,16-7.163,16-16C80,15.181,72.837,8.017,64,8.017z M54.503,19.856
				c0.606-1.267,1.442-2.381,2.486-3.311c1.041-0.93,2.23-1.621,3.534-2.056c1.247-0.416,2.582-0.558,3.872-0.479
				c1.332,0.102,2.603,0.46,3.784,1.066c1.012,0.516,1.937,1.243,2.733,2.076c0.808-0.688,1.468-1.251,1.719-1.465
				c0.056-0.048,0.109-0.083,0.163-0.122l0.039-0.034v0.005c0.621-0.426,1.098-0.254,1.126,0.73c0.032,1.07,0.012,4.102-0.015,5.162
				c-0.033,1.324-0.444,1.591-1.651,1.408c-1.388-0.21-4.354-0.679-5.16-0.807c-0.823-0.131-0.825-0.951-0.269-1.427
				c0.461-0.393,1.114-0.949,1.816-1.548c-0.51-0.488-1.127-0.96-1.748-1.276c-0.832-0.426-1.758-0.688-2.682-0.759
				c-0.979-0.054-1.918,0.053-2.789,0.341c-0.926,0.31-1.773,0.803-2.519,1.468c-0.744,0.665-1.342,1.459-1.772,2.363
				c-0.14,0.29-0.361,0.892-0.361,0.892l-2.803-1C54.008,21.085,54.313,20.257,54.503,19.856z M73.496,28.082
				c-0.606,1.28-1.444,2.405-2.49,3.346c-1.042,0.939-2.234,1.638-3.54,2.077c-1.248,0.421-2.585,0.563-3.878,0.484
				c-1.334-0.103-2.605-0.465-3.79-1.078c-1.014-0.521-1.939-1.256-2.737-2.098c-0.81,0.695-1.471,1.265-1.721,1.479
				c-0.057,0.049-0.11,0.085-0.164,0.124l-0.039,0.034v-0.005c-0.622,0.431-1.1,0.258-1.128-0.738
				c-0.032-1.081-0.012-4.144,0.015-5.216c0.033-1.339,0.445-1.607,1.654-1.423c1.39,0.212,4.36,0.686,5.168,0.815
				c0.824,0.132,0.827,0.961,0.27,1.44c-0.463,0.398-1.116,0.96-1.819,1.565c0.511,0.493,1.129,0.97,1.75,1.289
				c0.833,0.43,1.761,0.696,2.687,0.768c0.979,0.054,1.921-0.054,2.793-0.345c0.928-0.313,1.776-0.812,2.522-1.483
				c0.745-0.672,1.344-1.475,1.775-2.388c0.14-0.294,0.361-0.901,0.361-0.901l2.808,1.01C73.992,26.84,73.687,27.677,73.496,28.082z
				"/>
		</g>
	</g>
</g>
</svg>
