<?xml version="1.0" encoding="utf-8"?>
<!-- Generator: Adobe Illustrator 16.0.3, SVG Export Plug-In . SVG Version: 6.00 Build 0)  -->
<!DOCTYPE svg PUBLIC "-//W3C//DTD SVG 1.1//EN" "http://www.w3.org/Graphics/SVG/1.1/DTD/svg11.dtd">
<svg version="1.1" xmlns="http://www.w3.org/2000/svg" xmlns:xlink="http://www.w3.org/1999/xlink" x="0px" y="0px" width="80px"
	 height="80px" viewBox="0 0 80 80" enable-background="new 0 0 80 80" xml:space="preserve">
<g id="white_1_" opacity="0.502" enable-background="new    ">
	<g id="white">
		<g>
			<path fill-rule="evenodd" clip-rule="evenodd" fill="#FFFFFF" d="M64,9.993c-6.327,0-11.67,4.201-13.403,9.964
				c-3.568-2.498-7.909-3.968-12.596-3.968c-12.15,0-22,9.85-22,22s9.85,22,22,22c12.15,0,22-9.85,22-22
				c0-0.197-0.01-0.392-0.015-0.587c1.272,0.38,2.618,0.591,4.015,0.591c7.732,0,14-6.268,14-14C78,16.262,71.732,9.993,64,9.993z"
				/>
		</g>
	</g>
</g>
<g id="website_x5F_link_1_" opacity="0.502" enable-background="new    ">
	<g id="website_x5F_link">
		<g>
			<path fill-rule="evenodd" clip-rule="evenodd" fill="#555555" d="M38,58c-11.046,0-20-8.954-20-20s8.954-20,20-20
				c2.322,0,4.541,0.416,6.615,1.144c0.328-1.318,0.785-2.581,1.359-3.781C43.479,14.483,40.797,14,38,14c-13.255,0-24,10.745-24,24
				s10.745,24,24,24c11.262,0,20.707-7.758,23.295-18.22c-1.352-0.184-2.658-0.5-3.909-0.939C55.218,51.543,47.373,58,38,58z
				 M64,8.017c-8.836,0-16,7.164-16,16c0,8.837,7.164,16,16,16c8.837,0,16-7.163,16-16C80,15.181,72.837,8.017,64,8.017z M59.661,29
				h-2.786C54.181,29,52,26.764,52,24c0-2.762,2.181-5,4.875-5h2.786c1.428,0,2.761,1.867,3.339,3h-7
				c-0.928-0.001-0.847,0.625-0.973,1.453c-0.021,0.639-0.061,0.633,0.015,1.127C55.266,25.363,55.079,26,56,26h7
				C62.422,27.134,61.089,29,59.661,29z M59.117,25c-0.622,0-1.127-0.45-1.127-1.003s0.506-0.999,1.13-0.997h9.761
				c0.616,0,1.128,0.444,1.128,0.997S69.497,25,68.881,25H59.117z M71.125,29h-2.786c-1.428,0-2.761-1.866-3.339-3h7
				c0.921,0,0.733-0.637,0.958-1.42c0.075-0.494,0.035-0.488,0.015-1.127C72.847,22.625,72.928,21.999,72,22h-7
				c0.578-1.133,1.911-3,3.339-3h2.786C73.819,19,76,21.238,76,24C76,26.764,73.819,29,71.125,29z M32.58,27.12
				c-0.479,0.234-0.572,0.515-0.575,1.274c0.003,4.055,0.01,12.146,0.013,16.479c-0.012,1.905,0.744,2.063,1.933,0.885
				c1.792-1.87,4.184-4.367,4.184-4.367l4.231,8.609l2.36-1.151l-4.231-8.609c0,0,3.454-0.358,6.042-0.626
				c1.667-0.217,2.007-0.909,0.487-2.066c-3.439-2.656-9.86-7.615-13.078-10.101C33.34,26.985,33.059,26.887,32.58,27.12z"/>
		</g>
	</g>
</g>
</svg>
