<?xml version="1.0" encoding="utf-8"?>
<!-- Generator: Adobe Illustrator 16.0.3, SVG Export Plug-In . SVG Version: 6.00 Build 0)  -->
<!DOCTYPE svg PUBLIC "-//W3C//DTD SVG 1.1//EN" "http://www.w3.org/Graphics/SVG/1.1/DTD/svg11.dtd">
<svg version="1.1" xmlns="http://www.w3.org/2000/svg" xmlns:xlink="http://www.w3.org/1999/xlink" x="0px" y="0px" width="80px"
	 height="80px" viewBox="0 0 80 80" enable-background="new 0 0 80 80" xml:space="preserve">
<g id="white_1_" opacity="0.502" enable-background="new    ">
	<g id="white">
		<g>
			<path fill-rule="evenodd" clip-rule="evenodd" fill="#FFFFFF" d="M64,10c-6.701,0-12.295,4.711-13.67,11H40v-3h-4v3H25v36h11v4h4
				v-4h11V29.176C53.06,34.343,58.098,38,64,38c7.732,0,14-6.268,14-14S71.732,10,64,10z"/>
		</g>
	</g>
</g>
<g id="email_x5F_notifications_1_" opacity="0.502" enable-background="new    ">
	<g id="email_x5F_notifications">
		<g>
			<path fill-rule="evenodd" clip-rule="evenodd" fill="#555555" d="M64,8.017c-8.836,0-16,7.164-16,16c0,8.837,7.164,16,16,16
				c8.837,0,16-7.163,16-16C80,15.181,72.837,8.017,64,8.017z M72.671,20.951l-10.346,9.784c-0.136,0.129-0.302,0.209-0.478,0.242
				v0.021h-0.666v-0.031c-0.31,0.06-0.637-0.008-0.873-0.232l-5.078-4.783c-0.381-0.362-0.373-0.956,0.018-1.327l1.415-1.344
				c0.391-0.371,1.017-0.379,1.397-0.017l3.255,3.066l8.529-8.066c0.381-0.362,1.006-0.354,1.396,0.017l1.413,1.343
				C73.044,19.995,73.052,20.589,72.671,20.951z M49,37.183V55H27V25h17.051C44.034,24.661,44,24.327,44,23.984
				c0-2.461,0.466-4.807,1.279-6.984H27c-2.209,0-4,1.791-4,4v38c0,2.209,1.791,4,4,4h22c2.209,0,4-1.791,4-4V40.68
				C51.513,39.697,50.174,38.516,49,37.183z M36.009,20.015h3.982v1.974h-3.982V20.015z M39.991,60.978h-3.982v-3.983h3.982V60.978z
				 M31,36v2h10.006v-2H31z M31,44h14.01v-2H31V44z"/>
		</g>
	</g>
</g>
</svg>
