<?xml version="1.0" encoding="utf-8"?>
<!-- Generator: Adobe Illustrator 16.0.3, SVG Export Plug-In . SVG Version: 6.00 Build 0)  -->
<!DOCTYPE svg PUBLIC "-//W3C//DTD SVG 1.1//EN" "http://www.w3.org/Graphics/SVG/1.1/DTD/svg11.dtd">
<svg version="1.1" xmlns="http://www.w3.org/2000/svg" xmlns:xlink="http://www.w3.org/1999/xlink" x="0px" y="0px" width="80px"
	 height="80px" viewBox="0 0 80 80" enable-background="new 0 0 80 80" xml:space="preserve">
<g id="white_1_" opacity="0.502" enable-background="new    ">
	<g id="white">
		<g>
			<path fill-rule="evenodd" clip-rule="evenodd" fill="#FFFFFF" d="M34,19H22c-1.657,0-3,1.343-3,3v12c0,1.657,1.343,3,3,3h12
				c1.657,0,3-1.343,3-3V22C37,20.343,35.657,19,34,19z M58,43H46c-1.656,0-3,1.343-3,3v12c0,1.657,1.344,3,3,3h12
				c1.656,0,3-1.343,3-3V46C61,44.343,59.656,43,58,43z M34,43H22c-1.657,0-3,1.343-3,3v12c0,1.657,1.343,3,3,3h12
				c1.657,0,3-1.343,3-3V46C37,44.343,35.657,43,34,43z M58,19H46c-1.656,0-3,1.343-3,3v12c0,1.657,1.344,3,3,3h12
				c1.656,0,3-1.343,3-3V22C61,20.343,59.656,19,58,19z"/>
		</g>
	</g>
</g>
<g id="Badge_-_Y_7_" enable-background="new    ">
	<g id="Badge_-_Y">
		<g>
			<path fill-rule="evenodd" clip-rule="evenodd" fill="#FFCC33" d="M59,18H45c-1.656,0-3,1.343-3,3v14c0,1.657,1.344,3,3,3h14
				c1.656,0,3-1.343,3-3V21C62,19.343,60.656,18,59,18z M58,32c0,1.104-0.896,2-2,2h-8c-1.104,0-2-0.896-2-2v-8c0-1.104,0.896-2,2-2
				h8c1.104,0,2,0.896,2,2V32z"/>
		</g>
	</g>
</g>
<g id="Badge_-_Y_6_" enable-background="new    ">
	<g id="Badge_-_Y_1_">
		<g>
			<path fill-rule="evenodd" clip-rule="evenodd" fill="#FF3333" d="M35,42H21c-1.657,0-3,1.343-3,3v14c0,1.657,1.343,3,3,3h14
				c1.657,0,3-1.343,3-3V45C38,43.343,36.657,42,35,42z M34,56c0,1.104-0.896,2-2,2h-8c-1.104,0-2-0.896-2-2v-8c0-1.104,0.896-2,2-2
				h8c1.104,0,2,0.896,2,2V56z"/>
		</g>
	</g>
</g>
<g id="Badge_-_Y_5_" enable-background="new    ">
	<g id="Badge_-_Y_2_">
		<g>
			<path fill-rule="evenodd" clip-rule="evenodd" fill="#33CCFF" d="M59,42H45c-1.656,0-3,1.343-3,3v14c0,1.657,1.344,3,3,3h14
				c1.656,0,3-1.343,3-3V45C62,43.343,60.656,42,59,42z M58,56c0,1.104-0.896,2-2,2h-8c-1.104,0-2-0.896-2-2v-8c0-1.104,0.896-2,2-2
				h8c1.104,0,2,0.896,2,2V56z"/>
		</g>
	</g>
</g>
<g id="Badge_-_Y_4_" enable-background="new    ">
	<g id="Badge_-_Y_3_">
		<g>
			<path fill-rule="evenodd" clip-rule="evenodd" fill="#44CE5E" d="M35,18H21c-1.657,0-3,1.343-3,3v14c0,1.657,1.343,3,3,3h14
				c1.657,0,3-1.343,3-3V21C38,19.343,36.657,18,35,18z M34,32c0,1.104-0.896,2-2,2h-8c-1.104,0-2-0.896-2-2v-8c0-1.104,0.896-2,2-2
				h8c1.104,0,2,0.896,2,2V32z"/>
		</g>
	</g>
</g>
</svg>
