<?xml version="1.0" encoding="utf-8"?>
<!-- Generator: Adobe Illustrator 16.0.3, SVG Export Plug-In . SVG Version: 6.00 Build 0)  -->
<!DOCTYPE svg PUBLIC "-//W3C//DTD SVG 1.1//EN" "http://www.w3.org/Graphics/SVG/1.1/DTD/svg11.dtd">
<svg version="1.1" xmlns="http://www.w3.org/2000/svg" xmlns:xlink="http://www.w3.org/1999/xlink" x="0px" y="0px" width="80px"
	 height="80px" viewBox="0 0 80 80" enable-background="new 0 0 80 80" xml:space="preserve">
<g id="white_1_" opacity="0.502" enable-background="new    ">
	<g id="white">
		<g>
			<path fill-rule="evenodd" clip-rule="evenodd" fill="#FFFFFF" d="M55.677,50.04l-0.45-1.85c-2.411-8.152-8.47-10.272-8.47-10.272
				s-2.829,2.416-6.86,2.416c-4.031,0-6.778-2.415-6.778-2.415s-6.059,2.119-8.469,10.272l-0.442,1.814l-0.015,0.069
				c-0.215,1.156-0.324,2.33-0.324,3.488c0,6.278,8.656,8.362,16.069,8.362c7.413,0,16.068-2.084,16.068-8.362
				c0-1.158-0.108-2.332-0.323-3.488L55.677,50.04z M39.965,35.95c4.432,0,8.035-3.592,8.035-8.007c0-4.416-3.604-8.008-8.035-8.008
				c-4.431,0-8.035,3.592-8.035,8.008C31.93,32.358,35.534,35.95,39.965,35.95z M64,12c-6.627,0-12,5.373-12,12s5.373,12,12,12
				s12-5.373,12-12S70.627,12,64,12z"/>
		</g>
	</g>
</g>
<g id="personnel_1_" opacity="0.502" enable-background="new    ">
	<g id="personnel">
		<g>
			<path fill-rule="evenodd" clip-rule="evenodd" fill="#555555" d="M28.057,35.238c0.44-0.078,0.876-0.205,1.298-0.377l0.377-0.154
				l-0.241-0.324c-0.38-0.51-0.712-1.052-0.988-1.609l-0.122-0.248l-0.339,0.11c-0.144,0.048-0.288,0.096-0.44,0.123
				c-2.081,0.373-4.08-0.993-4.458-3.045c-0.378-2.051,1.008-4.021,3.089-4.394c0.404-0.073,0.826-0.071,1.291,0.004l0.276,0.045
				l0.082-0.264c0.183-0.594,0.424-1.18,0.717-1.743l0.186-0.357l-0.396-0.093c-0.865-0.202-1.743-0.227-2.611-0.071
				c-3.468,0.62-5.777,3.905-5.148,7.324C21.257,33.583,24.589,35.858,28.057,35.238z M16.718,45.999
				c0-3.895,2.17-7.924,5.529-9.479l0.5-0.232l-0.454-0.312c-0.543-0.374-1.028-0.815-1.439-1.313l-0.169-0.203l-0.233,0.127
				C16.572,36.7,14.162,41.34,14.162,46c0,2.551,0.977,4.491,5.071,5.463l0.3,0.071l0.654-2.609l-0.326-0.075
				C17.134,48.218,16.718,47.126,16.718,45.999z M57.614,50.826l-0.503-2.063c-2.691-9.093-9.454-11.456-9.454-11.456
				s-2.81,1.95-3.708,2.475c0.149,0.149,1.952,1.134,1.952,1.134c4.69,2.308,7.752,8.195,7.752,13.84
				c0,2.042-6.556,5.085-13.607,5.085c-8.729,0-13.571-3.115-13.607-5.11c-0.101-5.576,2.92-11.459,7.711-13.814l1.758-1.134
				c-1.934-0.891-3.474-2.475-3.474-2.475s-6.763,2.364-9.453,11.458l-0.493,2.023l-0.017,0.077c-0.24,1.29-0.361,2.599-0.361,3.891
				c0,7.002,9.662,9.326,17.937,9.326c8.273,0,17.936-2.324,17.936-9.326c0-1.292-0.121-2.601-0.361-3.891L57.614,50.826z
				 M40.047,37.593c2.764,0,5.264-1.125,7.063-2.93c-0.745-1.176-1.365-2.435-1.855-3.761c-1.035,1.784-2.98,2.991-5.209,2.991
				c-3.311,0-6.003-2.654-6.003-5.917s2.692-5.917,6.003-5.917c1.525,0,2.916,0.569,3.977,1.498
				c0.032-1.512,0.237-2.978,0.587-4.389c-1.367-0.703-2.916-1.106-4.562-1.106c-5.463,0-9.907,4.381-9.907,9.766
				S34.583,37.593,40.047,37.593z M64,8.017c-8.836,0-16,7.164-16,16c0,8.837,7.164,16,16,16c8.837,0,16-7.163,16-16
				C80,15.181,72.837,8.017,64,8.017z M64,31.016c-5.522,0-10-3.993-10-7.016s4.478-7.016,10-7.016S74,20.978,74,24
				S69.522,31.016,64,31.016z M64,18.738c-2.762,0-5,2.355-5,5.262s2.238,5.262,5,5.262s5-2.355,5-5.262S66.762,18.738,64,18.738z
				 M64,26.631c-1.381,0-2.5-1.178-2.5-2.631s1.119-2.631,2.5-2.631s2.5,1.178,2.5,2.631S65.381,26.631,64,26.631z M64,43.984
				c-0.278,0-0.55-0.03-0.825-0.042c0.129,0.681,0.2,1.37,0.2,2.057c0,1.126-0.416,2.218-3.144,2.849l0.63,2.614
				c4.094-0.973,5.07-2.913,5.07-5.463c0-0.705-0.062-1.408-0.169-2.104C65.181,43.946,64.595,43.984,64,43.984z"/>
		</g>
	</g>
</g>
</svg>
