<?xml version="1.0" encoding="utf-8"?>
<!-- Generator: Adobe Illustrator 16.0.3, SVG Export Plug-In . SVG Version: 6.00 Build 0)  -->
<!DOCTYPE svg PUBLIC "-//W3C//DTD SVG 1.1//EN" "http://www.w3.org/Graphics/SVG/1.1/DTD/svg11.dtd">
<svg version="1.1" xmlns="http://www.w3.org/2000/svg" xmlns:xlink="http://www.w3.org/1999/xlink" x="0px" y="0px" width="80px"
	 height="80px" viewBox="0 0 80 80" enable-background="new 0 0 80 80" xml:space="preserve">
<g id="white_1_" opacity="0.502" enable-background="new    ">
	<g id="white">
		<g>
			<path fill-rule="evenodd" clip-rule="evenodd" fill="#FFFFFF" d="M64,12c-6.627,0-12,5.373-12,12
				c0,0.641,0.064,1.265,0.161,1.879C48.541,22.248,43.533,20,38,20c-11.046,0-20,8.954-20,20s8.954,20,20,20s20-8.954,20-20
				c0-2.197-0.367-4.306-1.022-6.284C58.953,35.147,61.375,36,64,36c6.627,0,12-5.373,12-12S70.627,12,64,12z"/>
		</g>
	</g>
</g>
<g id="schedule_x5F_settings_1_" opacity="0.502" enable-background="new    ">
	<g id="schedule_x5F_settings">
		<g>
			<path fill-rule="evenodd" clip-rule="evenodd" fill="#555555" d="M36.389,41.594l10.614,6.301
				c0.352,0.209,0.783,0.118,0.964-0.203l1.307-2.329c0.181-0.321,0.042-0.751-0.31-0.96l-8.96-5.319V28.729
				c0-0.415-0.299-0.751-0.668-0.751h-2.672c-0.369,0-0.668,0.336-0.668,0.751v11.855c0,0.072,0.02,0.138,0.037,0.204
				C35.959,41.082,36.09,41.416,36.389,41.594z M37.995,57.998c-9.942,0-18.003-8.061-18.003-18.003s8.061-18.003,18.003-18.003
				c2.127,0,4.158,0.388,6.052,1.065c0.063-1.39,0.268-2.741,0.601-4.042C42.55,18.351,40.317,17.99,38,17.99
				c-12.156,0-22.01,9.854-22.01,22.01S25.844,62.01,38,62.01c10.958,0,20.043-8.01,21.727-18.494
				c-1.352-0.295-2.648-0.729-3.882-1.281C54.739,51.117,47.178,57.998,37.995,57.998z M64,8.017c-8.836,0-16,7.164-16,16
				c0,8.837,7.164,16,16,16c8.837,0,16-7.163,16-16C80,15.181,72.837,8.017,64,8.017z M72.759,25.942l-2.395,0.269
				c-0.088,0.255-0.193,0.501-0.311,0.741l1.496,1.874c-0.269,0.513-0.798,1.14-1.203,1.544c-0.404,0.405-1.031,0.935-1.544,1.203
				l-1.88-1.5c-0.23,0.111-0.468,0.21-0.712,0.296l-0.269,2.39C65.39,32.932,64.572,33,64,33s-1.39-0.068-1.942-0.241l-0.268-2.386
				c-0.246-0.085-0.485-0.185-0.718-0.297l-1.875,1.497c-0.513-0.269-1.14-0.798-1.544-1.203c-0.405-0.404-0.935-1.031-1.203-1.544
				l1.489-1.866c-0.119-0.242-0.226-0.492-0.315-0.75l-2.383-0.268C55.068,25.39,55,24.572,55,24s0.068-1.39,0.241-1.942l2.38-0.268
				c0.091-0.259,0.193-0.513,0.313-0.757l-1.484-1.859c0.269-0.513,0.798-1.14,1.203-1.544c0.404-0.405,1.031-0.935,1.544-1.203
				l1.875,1.496c0.233-0.111,0.471-0.216,0.718-0.301l0.268-2.381C62.61,15.068,63.428,15,64,15s1.39,0.068,1.942,0.241l0.268,2.385
				c0.245,0.086,0.481,0.188,0.714,0.301l1.879-1.5c0.513,0.269,1.14,0.798,1.544,1.203c0.405,0.404,0.935,1.031,1.203,1.544
				l-1.491,1.868c0.118,0.241,0.22,0.491,0.31,0.747l2.391,0.269C72.932,22.61,73,23.428,73,24S72.932,25.39,72.759,25.942z
				 M64,20.002c-2.212,0-4.004,1.79-4.004,3.998s1.792,3.998,4.004,3.998c2.211,0,4.004-1.79,4.004-3.998S66.211,20.002,64,20.002z"
				/>
		</g>
	</g>
</g>
</svg>
