<?xml version="1.0" encoding="utf-8"?>
<!-- Generator: Adobe Illustrator 16.0.3, SVG Export Plug-In . SVG Version: 6.00 Build 0)  -->
<!DOCTYPE svg PUBLIC "-//W3C//DTD SVG 1.1//EN" "http://www.w3.org/Graphics/SVG/1.1/DTD/svg11.dtd">
<svg version="1.1" xmlns="http://www.w3.org/2000/svg" xmlns:xlink="http://www.w3.org/1999/xlink" x="0px" y="0px" width="80px"
	 height="80px" viewBox="0 0 80 80" enable-background="new 0 0 80 80" xml:space="preserve">
<g id="white_1_" opacity="0.502" enable-background="new    ">
	<g id="white">
		<g>
			<circle fill="#FFFFFF" cx="64" cy="23.987" r="14"/>
		</g>
	</g>
</g>
<g id="cash_1_" opacity="0.502" enable-background="new    ">
	<g id="cash">
		<g>
			<path fill-rule="evenodd" clip-rule="evenodd" fill="#555555" d="M64,8.017c-8.836,0-16,7.164-16,16c0,8.837,7.164,16,16,16
				c8.837,0,16-7.163,16-16C80,15.181,72.837,8.017,64,8.017z M72.671,20.951l-10.346,9.784c-0.136,0.129-0.302,0.209-0.478,0.242
				v0.021h-0.666v-0.031c-0.31,0.06-0.637-0.008-0.873-0.232l-5.078-4.783c-0.381-0.362-0.373-0.956,0.018-1.327l1.415-1.344
				c0.391-0.371,1.017-0.379,1.397-0.017l3.255,3.066l8.529-8.066c0.381-0.362,1.006-0.354,1.396,0.017l1.413,1.343
				C73.044,19.995,73.052,20.589,72.671,20.951z M38.88,36.25c-1.993-0.702-3.44-1.357-4.301-1.947
				c-0.72-0.493-1.078-1.006-1.066-1.559c-0.016-0.511,0.202-0.964,0.665-1.385c0.48-0.435,1.426-0.679,2.712-0.705
				c1.742,0.032,3.16,0.231,4.214,0.592c1.077,0.368,1.885,0.706,2.399,1.005l0.697,0.406l0.693-2.745
				c-0.466-1.503-0.735-3.088-0.834-4.72c-0.469-0.172-0.974-0.333-1.517-0.48c-0.986-0.267-2.15-0.442-3.468-0.522v-4.191h-5.782
				v4.607c-2.45,0.555-4.372,1.588-5.718,3.076c-1.451,1.604-2.192,3.587-2.203,5.907c0.038,2.461,0.866,4.457,2.46,5.936
				c1.527,1.415,3.593,2.566,6.141,3.422c1.677,0.563,2.952,1.156,3.791,1.766c0.731,0.532,1.088,1.125,1.091,1.789
				c-0.026,0.724-0.375,1.253-1.097,1.665c-0.812,0.462-1.866,0.7-3.122,0.707c-1.44-0.019-2.791-0.226-4.017-0.614
				c-1.235-0.391-2.326-0.865-3.241-1.411l-0.705-0.419l-1.673,6.78l0.387,0.238c0.868,0.535,2.026,1.004,3.441,1.393
				c1.231,0.339,2.568,0.565,3.981,0.674v4.488h5.204l0.612-0.001v-4.929c2.662-0.545,4.717-1.617,6.113-3.19
				c1.496-1.684,2.254-3.712,2.256-6.021c0.028-2.307-0.613-4.258-1.906-5.8C43.824,38.549,41.736,37.267,38.88,36.25z"/>
		</g>
	</g>
</g>
</svg>
