<?xml version="1.0" encoding="utf-8"?>
<!-- Generator: Adobe Illustrator 16.0.3, SVG Export Plug-In . SVG Version: 6.00 Build 0)  -->
<!DOCTYPE svg PUBLIC "-//W3C//DTD SVG 1.1//EN" "http://www.w3.org/Graphics/SVG/1.1/DTD/svg11.dtd">
<svg version="1.1" xmlns="http://www.w3.org/2000/svg" xmlns:xlink="http://www.w3.org/1999/xlink" x="0px" y="0px" width="80px"
	 height="80px" viewBox="0 0 80 80" enable-background="new 0 0 80 80" xml:space="preserve">
<g id="white_1_" opacity="0.502" enable-background="new    ">
	<g id="white">
		<g>
			<path fill-rule="evenodd" clip-rule="evenodd" fill="#FFFFFF" d="M64,11.994c-6.166,0-11.24,4.659-11.913,10.652
				C48.695,18.611,43.487,16,38,16c-9.389,0-18,7.611-18,17v17c0,9.389,8.611,13,18,13s18-3.611,18-13V33
				c0-0.025-0.004-0.05-0.004-0.076c2.124,1.91,4.924,3.083,8.004,3.083c6.625,0,11.995-5.375,11.995-12.006
				C75.995,17.369,70.625,11.994,64,11.994z"/>
		</g>
	</g>
</g>
<g id="dispatch_rules_1_" opacity="0.502" enable-background="new    ">
	<g id="dispatch_rules">
		<g>
			<path fill-rule="evenodd" clip-rule="evenodd" fill="#555555" d="M30.006,39.429c0,2.242,0,1.545,0,5.143
				C30.006,47.999,30.003,48,33,48s2.994-0.001,2.994-3.429c0-3.598,0-2.9,0-5.143C35.994,36.001,35.997,36,33,36
				S30.006,36.001,30.006,39.429z M43,36c-2.997,0-2.994,0.001-2.994,3.429c0,2.242,0,1.545,0,5.143C40.006,47.999,40.003,48,43,48
				s2.994-0.001,2.994-3.429c0-3.598,0-2.9,0-5.143C45.994,36.001,45.997,36,43,36z M41,58h-6c-1.719,0-3,1.396-3,3
				c-5.519,0-10-4.962-10-10c-0.08,0,0-18,0-18c0-7.729,8.104-15,16-15c2.214,0,4.438,0.587,6.502,1.581
				c0.31-1.373,0.763-2.688,1.338-3.937C43.385,14.599,40.724,14,38,14c-10.172,0-19.57,8.146-20,18c-3.914,0-6,1.972-6,6v7
				c0,3.033,3.053,6,6,6h2c0,7.77,6.003,12,12,12c0,1.601,1.233,3,3,3h6c2.262,0,3.009-1.802,3.009-4.017S43.262,58,41,58z
				 M64,7.992c-8.832,0-15.992,7.167-15.992,16.009c0,8.841,7.16,16.009,15.992,16.009c8.833,0,15.993-7.168,15.993-16.009
				C79.993,15.159,72.833,7.992,64,7.992z M72.759,25.942l-2.395,0.269c-0.088,0.255-0.193,0.501-0.311,0.741l1.496,1.874
				c-0.269,0.513-0.798,1.14-1.203,1.544c-0.404,0.405-1.031,0.935-1.544,1.203l-1.88-1.5c-0.23,0.111-0.468,0.21-0.712,0.296
				l-0.269,2.39C65.39,32.932,64.572,33,64,33s-1.39-0.068-1.942-0.241l-0.268-2.386c-0.246-0.085-0.485-0.185-0.718-0.297
				l-1.875,1.497c-0.513-0.269-1.14-0.798-1.544-1.203c-0.405-0.404-0.935-1.031-1.203-1.544l1.489-1.866
				c-0.119-0.242-0.226-0.492-0.315-0.75l-2.383-0.268C55.068,25.39,55,24.572,55,24s0.068-1.39,0.241-1.942l2.38-0.268
				c0.091-0.259,0.193-0.513,0.313-0.757l-1.484-1.859c0.269-0.513,0.798-1.14,1.203-1.544c0.404-0.405,1.031-0.935,1.544-1.203
				l1.875,1.496c0.233-0.111,0.471-0.216,0.718-0.301l0.268-2.381C62.61,15.068,63.428,15,64,15s1.39,0.068,1.942,0.241l0.268,2.385
				c0.245,0.086,0.481,0.188,0.714,0.301l1.879-1.5c0.513,0.269,1.14,0.798,1.544,1.203c0.405,0.404,0.935,1.031,1.203,1.544
				l-1.491,1.868c0.118,0.241,0.22,0.491,0.31,0.747l2.391,0.269C72.932,22.61,73,23.428,73,24S72.932,25.39,72.759,25.942z M54,51
				h4c3.078,0,6-2.971,6-6v-1.016c-3.647,0-7.056-0.992-10-2.697V51z M64,20.002c-2.212,0-4.004,1.79-4.004,3.998
				s1.792,3.998,4.004,3.998c2.211,0,4.004-1.79,4.004-3.998S66.211,20.002,64,20.002z"/>
		</g>
	</g>
</g>
</svg>
