<?xml version="1.0" encoding="utf-8"?>
<!-- Generator: Adobe Illustrator 16.0.3, SVG Export Plug-In . SVG Version: 6.00 Build 0)  -->
<!DOCTYPE svg PUBLIC "-//W3C//DTD SVG 1.1//EN" "http://www.w3.org/Graphics/SVG/1.1/DTD/svg11.dtd">
<svg version="1.1" xmlns="http://www.w3.org/2000/svg" xmlns:xlink="http://www.w3.org/1999/xlink" x="0px" y="0px" width="80px"
	 height="80px" viewBox="0 0 80 80" enable-background="new 0 0 80 80" xml:space="preserve">
<g id="white_1_" opacity="0.502" enable-background="new    ">
	<g id="white">
		<g>
			<path fill-rule="evenodd" clip-rule="evenodd" fill="#FFFFFF" d="M37,22c-6.375,0-10,2-10,2s-0.624,9.393-2,16
				c-1.089,5.229-4,8-4,8v2h25c0,0-4-9.289-4-16C42,29.673,42.445,22,37,22z M64,12.013c-6.627,0-12,5.372-12,12
				c0,6.627,5.373,12,12,12c6.628,0,12-5.373,12-12C76,17.385,70.628,12.013,64,12.013z"/>
		</g>
	</g>
</g>
<g id="notifications_1_" opacity="0.502" enable-background="new    ">
	<g id="notifications">
		<g>
			<path fill-rule="evenodd" clip-rule="evenodd" fill="#555555" d="M34,60.021c3.292,0,3.996-1.353,3.996-4.005l-8.002-0.001
				C29.993,58.637,30.708,60.021,34,60.021z M64,8.017c-8.836,0-16,7.164-16,16c0,8.837,7.164,16,16,16c8.837,0,16-7.163,16-16
				C80,15.181,72.837,8.017,64,8.017z M72.671,20.951l-10.346,9.784c-0.136,0.129-0.302,0.209-0.478,0.242v0.021h-0.666v-0.031
				c-0.31,0.06-0.637-0.008-0.873-0.232l-5.078-4.783c-0.381-0.362-0.373-0.956,0.018-1.327l1.415-1.344
				c0.391-0.371,1.017-0.379,1.397-0.017l3.255,3.066l8.529-8.066c0.381-0.362,1.006-0.354,1.396,0.017l1.413,1.343
				C73.044,19.995,73.052,20.589,72.671,20.951z M48.61,45.846C47.988,45.589,46.669,43.588,46,42s-2-6.056-2-13
				s-3.762-9.021-8.979-9.021l-2.06,0.001C27.743,19.98,24,22.056,24,29c0,10.24-1.331,11.328-2,13s-2,3.592-2.611,3.844
				c0,0-1.382,0.231-1.382,1.562c0,0.868,0.001,1.054,0.001,1.83c0,2.046,0.658,2.782,2.638,2.782
				c1.063,0,19.672-0.002,26.688-0.003c2.029,0,2.646-0.67,2.646-2.823c0-0.675,0.004-0.823,0.008-1.699
				C49.987,46.067,48.61,45.846,48.61,45.846z M22.995,48.01C25.068,48.01,28,38.985,28,37c0,0,0.09-0.133,0.181-6.97
				c0.043-3.281,0.71-6.039,4.159-6.041h3.32c3.328,0.002,4.077,2.519,4.128,6.041C39.889,36.929,40,37,40,37
				c0,1.965,2.952,11.01,5.005,11.01H22.995z"/>
		</g>
	</g>
</g>
</svg>
