<?xml version="1.0" encoding="utf-8"?>
<!-- Generator: Adobe Illustrator 16.0.3, SVG Export Plug-In . SVG Version: 6.00 Build 0)  -->
<!DOCTYPE svg PUBLIC "-//W3C//DTD SVG 1.1//EN" "http://www.w3.org/Graphics/SVG/1.1/DTD/svg11.dtd">
<svg version="1.1" xmlns="http://www.w3.org/2000/svg" xmlns:xlink="http://www.w3.org/1999/xlink" x="0px" y="0px" width="80px"
	 height="80px" viewBox="0 0 80 80" enable-background="new 0 0 80 80" xml:space="preserve">
<g id="white_1_" opacity="0.502" enable-background="new    ">
	<g id="white">
		<g>
			<path fill-rule="evenodd" clip-rule="evenodd" fill="#FFFFFF" d="M64,12c-6.627,0-12,5.373-12,12c0,0.683,0.07,1.348,0.18,2H48
				v-4h-4v4H24v-6h-4v6h-6v30h40V30.627C56.149,33.864,59.824,36,64,36c6.627,0,12-5.373,12-12S70.627,12,64,12z"/>
		</g>
	</g>
</g>
<g id="calendar_1_" opacity="0.502" enable-background="new    ">
	<g id="calendar">
		<g>
			<path fill-rule="evenodd" clip-rule="evenodd" fill="#555555" d="M32.002,50.029h3.996v-4.009h-3.996V50.029z M38.002,50.029
				h3.996v-4.009h-3.996V50.029z M35.999,40.021h-3.996v4.009h3.996V40.021z M44.002,38.029h3.996v-2.084
				c-0.461-0.616-0.89-1.257-1.278-1.925h-2.718V38.029z M44.002,44.029h3.996v-4.009h-3.996V44.029z M51.991,54.014H16.007V30.02
				h28.925c-0.6-1.896-0.927-3.913-0.93-6.006h-0.001v-0.01c0-0.007-0.001-0.013-0.001-0.02s0.001-0.013,0.001-0.02v-3.95h0.396
				c0.137-0.683,0.308-1.353,0.513-2.009H42v4.015H25.992v-4.015H18v4.015h-3.333c-1.675,0-2.667,1.06-2.667,2.667v30.667
				c0,1.649,1.032,2.666,2.667,2.666h38c1.675,0,3.333-0.997,3.333-2.666V42.309c-1.435-0.627-2.773-1.427-4.009-2.358V54.014z
				 M20.001,20.015h3.996v3.999h-3.996V20.015z M41.998,40.021h-3.996v4.009h3.996V40.021z M41.998,34.021h-3.996v4.009h3.996
				V34.021z M20.002,50.029h3.996v-4.009h-3.996V50.029z M35.999,34.021h-3.996v4.009h3.996V34.021z M64,8.017
				c-8.836,0-16,7.164-16,16c0,8.837,7.164,16,16,16c8.837,0,16-7.163,16-16C80,15.181,72.837,8.017,64,8.017z M61.092,31h-4.085
				v-4.085l7.638-7.637l4.085,4.085L61.092,31z M71.624,20.468l-1.261,1.262l-4.085-4.086l1.261-1.261c0.51-0.51,1.306-0.51,1.815,0
				l2.27,2.27C72.134,19.162,72.134,19.959,71.624,20.468z M23.999,40.021h-3.996v4.009h3.996V40.021z M29.999,40.021h-3.996v4.009
				h3.996V40.021z M29.999,34.021h-3.996v4.009h3.996V34.021z M26.002,50.029h3.996v-4.009h-3.996V50.029z"/>
		</g>
	</g>
</g>
</svg>
