<?xml version="1.0" encoding="utf-8"?>
<!-- Generator: Adobe Illustrator 16.0.3, SVG Export Plug-In . SVG Version: 6.00 Build 0)  -->
<!DOCTYPE svg PUBLIC "-//W3C//DTD SVG 1.1//EN" "http://www.w3.org/Graphics/SVG/1.1/DTD/svg11.dtd">
<svg version="1.1" xmlns="http://www.w3.org/2000/svg" xmlns:xlink="http://www.w3.org/1999/xlink" x="0px" y="0px" width="80px"
	 height="80px" viewBox="0 0 80 80" enable-background="new 0 0 80 80" xml:space="preserve">
<g id="white_1_" opacity="0.502" enable-background="new    ">
	<g id="white">
		<g>
			<path fill-rule="evenodd" clip-rule="evenodd" fill="#FFFFFF" d="M64,12c-6.627,0-12,5.373-12,12s5.373,12,12,12s12-5.373,12-12
				S70.627,12,64,12z M41,21v-3h-4v3H26v36h11v4h4v-4h11V24v-3H41z"/>
		</g>
	</g>
</g>
<g id="email_x5F_notifications_1_" opacity="0.502" enable-background="new    ">
	<g id="email_x5F_notifications">
		<g>
			<path fill-rule="evenodd" clip-rule="evenodd" fill="#555555" d="M32,44h14.01v-2H32V44z M67,24c0,0,0-2.517,0-4
				c0-1.765-1.686-2-3-2s-3,0.355-3,2s0,4,0,4c0,1.88-0.965,3.005-2.001,3.005h10.005C68.125,27.005,67,25.84,67,24z M64,8.017
				c-8.836,0-16,7.164-16,16c0,8.837,7.164,16,16,16c8.837,0,16-7.163,16-16C80,15.181,72.837,8.017,64,8.017z M64.001,34.011
				c-1.646,0-2.003-0.692-2.003-2.003h4.001C65.999,33.334,65.647,34.011,64.001,34.011z M70,30H58c-0.989,0-2-0.977-2-2
				c0-0.388,0.005-0.363,0.005-0.797c0-0.665,0.691-0.781,0.691-0.781c0.305-0.126,0.98-1.547,1.137-1.922s0.502-3.235,0.502-4.983
				C58.335,16.045,61.391,15,64,15c2.608,0,5.668,1.045,5.668,4.517c0,2.254,0.245,4.481,0.495,4.981s0.832,1.797,1.144,1.925
				c0,0,0.688,0.111,0.688,0.823C71.993,27.684,72,27.663,72,28C72,29.076,71.015,30,70,30z M50,55H28V25h16.051
				C44.034,24.661,44,24.327,44,23.984c0-2.461,0.466-4.807,1.279-6.984H28c-2.209,0-4,1.791-4,4v38c0,2.209,1.791,4,4,4h22
				c2.209,0,4-1.791,4-4V41.287c-1.458-0.846-2.805-1.859-4-3.032V55z M37.009,20.015h3.982v1.974h-3.982V20.015z M40.991,60.978
				h-3.982v-3.983h3.982V60.978z M32,36v2h10.006v-2H32z"/>
		</g>
	</g>
</g>
</svg>
