<?xml version="1.0" encoding="utf-8"?>
<!-- Generator: Adobe Illustrator 16.0.3, SVG Export Plug-In . SVG Version: 6.00 Build 0)  -->
<!DOCTYPE svg PUBLIC "-//W3C//DTD SVG 1.1//EN" "http://www.w3.org/Graphics/SVG/1.1/DTD/svg11.dtd">
<svg version="1.1" xmlns="http://www.w3.org/2000/svg" xmlns:xlink="http://www.w3.org/1999/xlink" x="0px" y="0px" width="80px"
	 height="80px" viewBox="0 0 80 80" enable-background="new 0 0 80 80" xml:space="preserve">
<g id="white_1_" opacity="0.502" enable-background="new    ">
	<g id="white">
		<g>
			<path fill-rule="evenodd" clip-rule="evenodd" fill="#FFFFFF" d="M64,9.987c-6.345,0-11.697,4.225-13.416,10.013H18v4h-2v34h2v2
				h36v-4h4v-8h-4v-4h4v-7.378c1.82,0.866,3.85,1.365,6,1.365c7.732,0,14-6.268,14-14C78,16.256,71.732,9.987,64,9.987z M54,36
				v-2.224c0.842,0.86,1.798,1.603,2.837,2.224H54z"/>
		</g>
	</g>
</g>
<g id="clients_1_" opacity="0.502" enable-background="new    ">
	<g id="clients">
		<g>
			<path fill-rule="evenodd" clip-rule="evenodd" fill="#555555" d="M54,41.979v-0.692c-0.695-0.403-1.36-0.85-2-1.33v18.022H42
				v0.01l-2,2h-8l-2-2v-0.01H20v-36h24.102c0.137-1.38,0.415-2.717,0.818-4H15.927L16,20l-1.498-0.021
				c-1.387,0-2.511,1.14-2.511,2.545l0.001,37.017c0,1.35,1.086,2.444,2.426,2.444h39.147c1.349,0,2.441-1.073,2.441-2.397
				c0,0,0-1.376,0-3.608H60v-8h-3.993v-4H60v-0.396c-1.647-0.335-3.21-0.891-4.684-1.604H54z M18,58h-2V24h2V58z M58,49.979v4h-4v-4
				H58z M64,8.017c-8.836,0-16,7.164-16,16c0,8.837,7.164,16,16,16c8.837,0,16-7.163,16-16C80,15.181,72.837,8.017,64,8.017z
				 M72.671,20.951l-10.346,9.784c-0.136,0.129-0.302,0.209-0.478,0.242v0.021h-0.666v-0.031c-0.31,0.06-0.637-0.008-0.873-0.232
				l-5.078-4.783c-0.381-0.362-0.373-0.956,0.018-1.327l1.415-1.344c0.391-0.371,1.017-0.379,1.397-0.017l3.255,3.066l8.529-8.066
				c0.381-0.362,1.006-0.354,1.396,0.017l1.413,1.343C73.044,19.995,73.052,20.589,72.671,20.951z M38.006,37.449
				c0,2.242,0,1.545,0,5.144c0,3.427-0.003,3.429,2.994,3.429c2.998,0,2.994-0.002,2.994-3.429c0-3.599,0-2.901,0-5.144
				c0-3.427,0.004-3.429-2.994-3.429C38.003,34.021,38.006,34.022,38.006,37.449z M28.006,37.449c0,2.242,0,1.545,0,5.144
				c0,3.427-0.003,3.429,2.994,3.429c2.998,0,2.994-0.002,2.994-3.429c0-3.599,0-2.901,0-5.144c0-3.427,0.003-3.429-2.994-3.429
				C28.003,34.021,28.006,34.022,28.006,37.449z"/>
		</g>
	</g>
</g>
</svg>
