<?xml version="1.0" encoding="utf-8"?>
<!-- Generator: Adobe Illustrator 16.0.3, SVG Export Plug-In . SVG Version: 6.00 Build 0)  -->
<!DOCTYPE svg PUBLIC "-//W3C//DTD SVG 1.1//EN" "http://www.w3.org/Graphics/SVG/1.1/DTD/svg11.dtd">
<svg version="1.1" xmlns="http://www.w3.org/2000/svg" xmlns:xlink="http://www.w3.org/1999/xlink" x="0px" y="0px" width="80px"
	 height="80px" viewBox="0 0 80 80" enable-background="new 0 0 80 80" xml:space="preserve">
<g id="white_1_" opacity="0.502" enable-background="new    ">
	<g id="white">
		<g>
			<path fill-rule="evenodd" clip-rule="evenodd" fill="#FFFFFF" d="M64,11.989c-6.627,0-12,5.372-12,12
				c0,0.003,0.001,0.007,0.001,0.011H22v9h-6v4h-5v21h5v3h6v-3h5v-4h35V35.809c0.651,0.11,1.317,0.18,2,0.18c6.628,0,12-5.373,12-12
				C76,17.361,70.628,11.989,64,11.989z"/>
		</g>
	</g>
</g>
<g id="website_1_" opacity="0.502" enable-background="new    ">
	<g id="website">
		<g>
			<path fill-rule="evenodd" clip-rule="evenodd" fill="#555555" d="M24,26.001h20.102C44.035,25.338,44,24.665,44,23.984
				c0-0.67,0.036-1.332,0.101-1.984H24c-2.209,0-4,1.791-4,4.001v4.027h4V26.001z M24,32.018H14c-2.209,0-4,1.788-4,3.995V57.99
				c0,2.207,1.791,3.996,4,3.996h10c2.209,0,4-1.789,4-3.996V36.013C28,33.806,26.209,32.018,24,32.018z M18,34.012h2v1.931h-2
				V34.012z M21,59.991h-4v-1.989h4V59.991z M26,55.99H12V38.013h14V55.99z M64,8.017c-8.836,0-16,7.164-16,16
				c0,8.837,7.164,16,16,16c8.837,0,16-7.163,16-16C80,15.181,72.837,8.017,64,8.017z M73.5,26H70l-4,8l-4-13l-2.5,5h-5
				c-0.722,0-1.5-0.761-1.5-1.431C53,23.898,53.778,23,54.5,23H58l4-11l4.396,14.48L68.5,23h5c0.722,0,1.5,0.898,1.5,1.569
				C75,25.239,74.222,26,73.5,26z M64,43.984c-1.37,0-2.707-0.14-4-0.401v8.424H30v4.001h36c2.209,0,4-1.791,4-4.001h-6V43.984z"/>
		</g>
	</g>
</g>
</svg>
