<?xml version="1.0" encoding="utf-8"?>
<!-- Generator: Adobe Illustrator 16.0.3, SVG Export Plug-In . SVG Version: 6.00 Build 0)  -->
<!DOCTYPE svg PUBLIC "-//W3C//DTD SVG 1.1//EN" "http://www.w3.org/Graphics/SVG/1.1/DTD/svg11.dtd">
<svg version="1.1" xmlns="http://www.w3.org/2000/svg" xmlns:xlink="http://www.w3.org/1999/xlink" x="0px" y="0px" width="80px"
	 height="80px" viewBox="0 0 80 80" enable-background="new 0 0 80 80" xml:space="preserve">
<g id="white_1_" opacity="0.502" enable-background="new    ">
	<g id="white">
		<g>
			<path fill-rule="evenodd" clip-rule="evenodd" fill="#FFFFFF" d="M49.677,49.04l-0.45-1.85c-2.411-8.152-8.47-10.272-8.47-10.272
				s-2.829,2.416-6.86,2.416s-6.778-2.415-6.778-2.415s-6.059,2.119-8.469,10.272l-0.442,1.814l-0.015,0.069
				c-0.215,1.156-0.324,2.33-0.324,3.488c0,6.278,8.656,8.362,16.069,8.362c7.413,0,16.068-2.084,16.068-8.362
				c0-1.158-0.108-2.332-0.323-3.488L49.677,49.04z M33.965,34.95c4.431,0,8.035-3.592,8.035-8.007c0-4.416-3.604-8.008-8.035-8.008
				c-4.431,0-8.035,3.592-8.035,8.008C25.93,31.358,29.534,34.95,33.965,34.95z M64,12c-6.627,0-12,5.373-12,12s5.373,12,12,12
				s12-5.373,12-12S70.627,12,64,12z"/>
		</g>
	</g>
</g>
<g id="no_x5F_account_1_" opacity="0.502" enable-background="new    ">
	<g id="no_x5F_account">
		<g>
			<path fill-rule="evenodd" clip-rule="evenodd" fill="#555555" d="M50.59,57.788c0.898-1.146,1.424-2.505,1.424-4.12
				c0-1.29-0.122-2.599-0.362-3.888l-0.008-0.038l-0.505-2.063c-2.703-9.087-9.495-11.449-9.495-11.449s-2.822,1.95-3.725,2.474
				c0.15,0.149,1.961,1.133,1.961,1.133c4.712,2.306,7.786,8.189,7.786,13.831c0,0.271-0.125,0.559-0.343,0.854L50.59,57.788z
				 M34,36.518c5.486,0,9.95-4.378,9.95-9.76c0-5.381-4.463-9.759-9.95-9.759c-5.487,0-9.95,4.378-9.95,9.759
				C24.049,32.14,28.513,36.518,34,36.518z M33.998,20.993c3.324,0,6.029,2.652,6.029,5.913s-2.705,5.913-6.029,5.913
				s-6.029-2.652-6.029-5.913S30.673,20.993,33.998,20.993z M47.234,60.433c0.088-0.045,0.166-0.098,0.253-0.144l-3.524-3.524
				c-0.093,0.04-0.179,0.082-0.274,0.122L27.151,40.349c0.083-0.051,0.171-0.092,0.255-0.141l-2.979-2.98
				c-0.081,0.051-0.159,0.098-0.243,0.153l-6.827-6.827c-0.773-0.773-2.028-0.773-2.802,0c-0.773,0.773-0.773,2.028,0,2.802
				l6.601,6.601c-1.625,1.753-3.261,4.241-4.296,7.724l-0.495,2.022l-0.017,0.077c-0.241,1.289-0.363,2.597-0.363,3.888
				c0,6.998,9.705,9.32,18.015,9.32c3.041,0,6.267-0.313,9.137-1.05l6.445,6.444c0.773,0.774,2.027,0.774,2.801,0
				c0.774-0.773,0.774-2.027,0-2.802L47.234,60.433z M33.999,58.749c-8.768,0-13.63-3.113-13.667-5.107
				c-0.07-3.838,1.349-7.821,3.81-10.697l15.241,15.24C37.696,58.533,35.867,58.749,33.999,58.749z M64,8.017
				c-8.836,0-16,7.164-16,16c0,8.837,7.164,16,16,16c8.837,0,16-7.163,16-16C80,15.181,72.837,8.017,64,8.017z M72.671,20.951
				c0,0-9.146,8.728-10.021,9.478s-1.949,0.62-2.605,0.058s-4.813-4.534-4.813-4.534c-0.381-0.362-0.373-0.956,0.018-1.327
				l1.415-1.344c0.391-0.371,1.017-0.379,1.397-0.017l3.255,3.066l8.529-8.066c0.381-0.362,1.006-0.354,1.396,0.017l1.413,1.343
				C73.044,19.995,73.052,20.589,72.671,20.951z"/>
		</g>
	</g>
</g>
</svg>
