<?xml version="1.0" encoding="utf-8"?>
<!-- Generator: Adobe Illustrator 16.0.3, SVG Export Plug-In . SVG Version: 6.00 Build 0)  -->
<!DOCTYPE svg PUBLIC "-//W3C//DTD SVG 1.1//EN" "http://www.w3.org/Graphics/SVG/1.1/DTD/svg11.dtd">
<svg version="1.1" xmlns="http://www.w3.org/2000/svg" xmlns:xlink="http://www.w3.org/1999/xlink" x="0px" y="0px" width="80px"
	 height="80px" viewBox="0 0 80 80" enable-background="new 0 0 80 80" xml:space="preserve">
<g id="white_1_" opacity="0.502" enable-background="new    ">
	<g id="white">
		<g>
			<path fill-rule="evenodd" clip-rule="evenodd" fill="#FFFFFF" d="M64,11c-7.18,0-13,5.82-13,13h-5v-4h-2v4H24v-4h-4v4h-6v32h40
				V32.304C56.385,35.172,59.979,37,64,37c7.18,0,13-5.82,13-13S71.18,11,64,11z"/>
		</g>
	</g>
</g>
<g id="book_1_" opacity="0.502" enable-background="new    ">
	<g id="book">
		<g>
			<path fill-rule="evenodd" clip-rule="evenodd" fill="#555555" d="M36.006,39.449c0,2.242,0,1.545,0,5.144
				c0,3.427-0.003,3.429,2.994,3.429c2.998,0,2.994-0.002,2.994-3.429c0-3.599,0-2.901,0-5.144c0-3.427,0.004-3.429-2.994-3.429
				C36.003,36.021,36.006,36.022,36.006,39.449z M51.991,54.014H39.976L38,55.989h-8l-1.976-1.976H16.007V30.02h28.925
				c-0.6-1.896-0.927-3.913-0.93-6.006h-0.001v-0.01c0-0.007-0.001-0.013-0.001-0.02s0.001-0.013,0.001-0.02v-3.95h0.396
				c0.137-0.683,0.308-1.353,0.513-2.009H42v4.015H25.992v-4.015H18v4.015h-3.333c-1.675,0-2.667,1.06-2.667,2.667v30.667
				c0,1.649,1.032,2.666,2.667,2.666h38c1.675,0,3.333-0.997,3.333-2.666V42.309c-1.435-0.627-2.773-1.427-4.009-2.358V54.014z
				 M20.001,20.015h3.996v3.999h-3.996V20.015z M64,8.017c-8.836,0-16,7.164-16,16c0,8.837,7.164,16,16,16c8.837,0,16-7.163,16-16
				C80,15.181,72.837,8.017,64,8.017z M72,25c0,0.553-0.447,1-1,1h-5v5c0,0.553-0.447,1-1,1h-2c-0.553,0-1-0.447-1-1v-5h-5
				c-0.553,0-1-0.447-1-1v-2c0-0.553,0.447-1,1-1h5v-5c0-0.553,0.447-1,1-1h2c0.553,0,1,0.447,1,1v5h5c0.553,0,1,0.447,1,1V25z
				 M26.006,39.449c0,2.242,0,1.545,0,5.144c0,3.427-0.003,3.429,2.994,3.429c2.998,0,2.994-0.002,2.994-3.429
				c0-3.599,0-2.901,0-5.144c0-3.427,0.003-3.429-2.994-3.429C26.003,36.021,26.006,36.022,26.006,39.449z"/>
		</g>
	</g>
</g>
</svg>
