<?xml version="1.0" encoding="utf-8"?>
<!-- Generator: Adobe Illustrator 16.0.3, SVG Export Plug-In . SVG Version: 6.00 Build 0)  -->
<!DOCTYPE svg PUBLIC "-//W3C//DTD SVG 1.1//EN" "http://www.w3.org/Graphics/SVG/1.1/DTD/svg11.dtd">
<svg version="1.1" xmlns="http://www.w3.org/2000/svg" xmlns:xlink="http://www.w3.org/1999/xlink" x="0px" y="0px" width="80px"
	 height="80px" viewBox="0 0 80 80" enable-background="new 0 0 80 80" xml:space="preserve">
<g id="white_1_" opacity="0.502" enable-background="new    ">
	<g id="white">
		<g>
			<path fill-rule="evenodd" clip-rule="evenodd" fill="#FFFFFF" d="M64,11c-7.18,0-13,5.82-13,13h-5v-4h-2v4H24v-4h-4v4h-6v32h40
				V32.304C56.385,35.172,59.979,37,64,37c7.18,0,13-5.82,13-13S71.18,11,64,11z"/>
		</g>
	</g>
</g>
<g id="book_1_" opacity="0.502" enable-background="new    ">
	<g id="book">
		<g>
			<path fill-rule="evenodd" clip-rule="evenodd" fill="#555555" d="M53.991,54.014H41.976L40,55.989h-8l-1.976-1.976H18.007V30.02
				h26.925C44.329,28.115,44,26.088,44,23.984c0-0.663,0.036-1.317,0.1-1.964H27.992v-4.015H20v4.015h-3.333
				c-1.675,0-2.667,1.06-2.667,2.667v30.667c0,1.649,1.032,2.666,2.667,2.666h38c1.675,0,3.333-0.997,3.333-2.666V43.065
				c-1.413-0.443-2.75-1.054-4.009-1.784V54.014z M22.001,20.015h3.996v3.999h-3.996V20.015z M38.006,39.449
				c0,2.242,0,1.545,0,5.144c0,3.427-0.003,3.429,2.994,3.429c2.998,0,2.994-0.002,2.994-3.429c0-3.599,0-2.901,0-5.144
				c0-3.427,0.004-3.429-2.994-3.429C38.003,36.021,38.006,36.022,38.006,39.449z M28.006,39.449c0,2.242,0,1.545,0,5.144
				c0,3.427-0.003,3.429,2.994,3.429c2.998,0,2.994-0.002,2.994-3.429c0-3.599,0-2.901,0-5.144c0-3.427,0.003-3.429-2.994-3.429
				C28.003,36.021,28.006,36.022,28.006,39.449z M64,8.017c-8.836,0-16,7.164-16,16c0,8.837,7.164,16,16,16c8.837,0,16-7.163,16-16
				C80,15.181,72.837,8.017,64,8.017z M72.671,20.951l-10.346,9.784c-0.136,0.129-0.302,0.209-0.478,0.242v0.021h-0.666v-0.031
				c-0.31,0.06-0.637-0.008-0.873-0.232l-5.078-4.783c-0.381-0.362-0.373-0.956,0.018-1.327l1.415-1.344
				c0.391-0.371,1.017-0.379,1.397-0.017l3.255,3.066l8.529-8.066c0.381-0.362,1.006-0.354,1.396,0.017l1.413,1.343
				C73.044,19.995,73.052,20.589,72.671,20.951z"/>
		</g>
	</g>
</g>
</svg>
