<?xml version="1.0" encoding="utf-8"?>
<!-- Generator: Adobe Illustrator 16.0.3, SVG Export Plug-In . SVG Version: 6.00 Build 0)  -->
<!DOCTYPE svg PUBLIC "-//W3C//DTD SVG 1.1//EN" "http://www.w3.org/Graphics/SVG/1.1/DTD/svg11.dtd">
<svg version="1.1" xmlns="http://www.w3.org/2000/svg" xmlns:xlink="http://www.w3.org/1999/xlink" x="0px" y="0px" width="80px"
	 height="80px" viewBox="0 0 80 80" enable-background="new 0 0 80 80" xml:space="preserve">
<g id="white_1_" opacity="0.502" enable-background="new    ">
	<g id="white">
		<g>
			<path fill-rule="evenodd" clip-rule="evenodd" fill="#FFFFFF" d="M64,9.987c-7.731,0-14,6.269-14,14
				c0,0.004,0.001,0.008,0.001,0.013H22v9h-6v4h-5v21h5v3h6v-3h5v-4h35V37.828c0.655,0.094,1.319,0.159,2,0.159
				c7.732,0,14-6.268,14-14C78,16.256,71.732,9.987,64,9.987z"/>
		</g>
	</g>
</g>
<g id="website_1_" opacity="0.502" enable-background="new    ">
	<g id="website">
		<g>
			<path fill-rule="evenodd" clip-rule="evenodd" fill="#555555" d="M24,26.001h20.102C44.035,25.338,44,24.665,44,23.984
				c0-0.67,0.036-1.332,0.101-1.984H24c-2.209,0-4,1.791-4,4.001v4.027h4V26.001z M64,43.984c-1.37,0-2.707-0.14-4-0.401v8.424H30
				v4.001h36c2.209,0,4-1.791,4-4.001h-6V43.984z M64,8.017c-8.836,0-16,7.164-16,16c0,8.837,7.164,16,16,16c8.837,0,16-7.163,16-16
				C80,15.181,72.837,8.017,64,8.017z M73.234,20L62.456,30.785c-0.172,0.172-0.396,0.249-0.624,0.252v0.012h-0.666v-0.012
				c-0.229-0.003-0.453-0.08-0.626-0.253l-5.774-5.783c-0.361-0.361-0.354-0.956,0.017-1.327l1.345-1.344
				c0.371-0.371,0.965-0.379,1.327-0.017l4.047,4.054l9.049-9.054c0.361-0.362,0.955-0.354,1.325,0.017l1.343,1.343
				C73.589,19.044,73.596,19.638,73.234,20z M24,32.018H14c-2.209,0-4,1.788-4,3.995V57.99c0,2.207,1.791,3.996,4,3.996h10
				c2.209,0,4-1.789,4-3.996V36.013C28,33.806,26.209,32.018,24,32.018z M18,34.012h2v1.931h-2V34.012z M21,59.991h-4v-1.989h4
				V59.991z M26,55.99H12V38.013h14V55.99z"/>
		</g>
	</g>
</g>
</svg>
