<svg xmlns="http://www.w3.org/2000/svg" width="20" height="20" viewBox="0 0 20 20">
  <defs>
    <style>
      .cls-1 {
        fill: #fff;
      }

      .cls-2 {
        fill: #555;
        fill-rule: evenodd;
      }
    </style>
  </defs>
  <circle id="w" class="cls-1" cx="10" cy="10" r="7"/>
  <path id="b" class="cls-2" d="M10,18.008a8,8,0,1,1,8-8A8,8,0,0,1,10,18.008ZM9.5,5.027A5,5,0,0,0,10.017,15a5.1,5.1,0,0,0,.528-0.027,5.006,5.006,0,0,0,1.932-.611,0.7,0.7,0,1,0-.688-1.221,3.6,3.6,0,1,1,1.827-3.517,1.131,1.131,0,0,1-.32,1.065,0.542,0.542,0,0,1-.542.057,1.133,1.133,0,0,1-.536-0.975v0a2.207,2.207,0,1,0-.669,1.818,2.067,2.067,0,0,0,.633.438,1.938,1.938,0,0,0,1.94-.2,2.465,2.465,0,0,0,.892-2.344A5.021,5.021,0,0,0,9.5,5.027ZM10.02,10.8a0.8,0.8,0,1,1,.8-0.8A0.8,0.8,0,0,1,10.02,10.8Z"/>
</svg>
