<svg xmlns="http://www.w3.org/2000/svg" width="20" height="20" viewBox="0 0 20 20">
  <metadata><?xpacket begin="﻿" id="W5M0MpCehiHzreSzNTczkc9d"?>
<x:xmpmeta xmlns:x="adobe:ns:meta/" x:xmptk="Adobe XMP Core 5.6-c138 79.159824, 2016/09/14-01:09:01        ">
   <rdf:RDF xmlns:rdf="http://www.w3.org/1999/02/22-rdf-syntax-ns#">
      <rdf:Description rdf:about=""/>
   </rdf:RDF>
</x:xmpmeta>
                                                                                                    
                                                                                                    
                                                                                                    
                                                                                                    
                                                                                                    
                                                                                                    
                                                                                                    
                                                                                                    
                                                                                                    
                                                                                                    
                                                                                                    
                                                                                                    
                                                                                                    
                                                                                                    
                                                                                                    
                                                                                                    
                                                                                                    
                                                                                                    
                                                                                                    
                                                                                                    
                           
<?xpacket end="w"?></metadata>
<defs>
    <style>
      .cls-1 {
        fill: #555;
        fill-rule: evenodd;
      }
    </style>
  </defs>
  <path id="info" class="cls-1" d="M10,20A10,10,0,1,1,20,10,10,10,0,0,1,10,20ZM10,1a9,9,0,1,0,9,9A9,9,0,0,0,10,1Zm0.667,14H9.333A0.356,0.356,0,0,1,9,14.625V9.375A0.356,0.356,0,0,1,9.333,9h1.333A0.356,0.356,0,0,1,11,9.375v5.25A0.356,0.356,0,0,1,10.667,15Zm0-8H9.333A0.356,0.356,0,0,1,9,6.625V5.375A0.356,0.356,0,0,1,9.333,5h1.333A0.356,0.356,0,0,1,11,5.375v1.25A0.356,0.356,0,0,1,10.667,7Z"/>
</svg>
