<?xml version="1.0" encoding="utf-8"?>
<!-- Generator: Adobe Illustrator 16.0.0, SVG Export Plug-In . SVG Version: 6.00 Build 0)  -->
<!DOCTYPE svg PUBLIC "-//W3C//DTD SVG 1.1//EN" "http://www.w3.org/Graphics/SVG/1.1/DTD/svg11.dtd">
<svg version="1.1" xmlns="http://www.w3.org/2000/svg" xmlns:xlink="http://www.w3.org/1999/xlink" x="0px" y="0px" width="40px"
	 height="40px" viewBox="0 0 40 40" enable-background="new 0 0 40 40" xml:space="preserve">
<g id="Shape_1_1_" enable-background="new    ">
	<g id="Shape_1">
		<g>
			<path fill="#FFFFFF" d="M30,16c0.18-0.209-3,0-3,0v-2l-4-2l2-4l-2-2l-2,1l-3,9h-1l-3-8l-1-1l-2,1v3l2,5v3l-1,2l1,3l3,6h11v-1l1-2
				l2-6C30,21,29.82,16.209,30,16z"/>
		</g>
	</g>
</g>
<g id="about_x5F_us_1_" enable-background="new    ">
	<g id="about_x5F_us">
		<g>
			<path fill="#555555" d="M30.511,15.884c-0.421-0.698-1.069-1.179-1.824-1.352c-0.196-0.045-0.398-0.067-0.6-0.067
				c-0.194,0-0.388,0.021-0.576,0.063c-0.063-0.42-0.208-0.821-0.429-1.187c-0.423-0.699-1.07-1.179-1.824-1.352
				c-0.198-0.045-0.4-0.068-0.6-0.068c-0.085,0-0.17,0.005-0.255,0.013l0.976-3.188c0.16-0.812,0.016-1.644-0.406-2.342
				c-0.422-0.699-1.07-1.179-1.823-1.351c-0.198-0.046-0.401-0.068-0.603-0.068c-0.557,0-1.102,0.174-1.574,0.505
				c-0.649,0.454-1.095,1.15-1.255,1.962l-1.988,7.516c0,0-1.991-6.451-1.983-6.468c-0.16-0.812-0.606-1.508-1.256-1.963
				c-0.473-0.33-0.897-0.504-1.454-0.504c-0.201,0-0.524,0.022-0.723,0.068c-0.753,0.172-1.401,0.651-1.823,1.351
				c-0.422,0.698-0.566,1.53-0.406,2.342l2.766,8.044l-0.035,0.689c-0.79,0.5-1.329,1.374-1.43,2.346l-0.005,0.05
				c-0.008,0.096-0.014,0.19-0.014,0.287c0,0.038,0.002,0.08,0.004,0.113l0.003,0.049c0.006,0.085,0.017,0.183,0.029,0.27
				l0.005,0.039c0.102,0.723,0.381,1.903,0.598,2.765c0.427,1.714,1.415,3.065,2.04,4.003c0.296,0.445,0.748,1.043,1.297,1.552H15
				c-0.552,0-1,0.447-1,1v2c0,0.553,0.448,1,1,1h12c0.553,0,1-0.447,1-1v-2c0-0.421-0.261-0.779-0.629-0.927
				c0.506-0.423,0.922-0.956,1.162-1.56l0.607-1.522c0.457-1.149,0.815-3.027,0.815-4.274v-1.719l0.96-2.773
				C31.076,17.413,30.932,16.582,30.511,15.884z M24.657,14.081c0.062,0.001,0.123,0.008,0.184,0.021
				c0.231,0.053,0.43,0.2,0.56,0.414c0.129,0.214,0.172,0.469,0.123,0.718l-1.014,2.949c-0.307-0.117-0.63-0.177-0.959-0.177h-0.818
				l1.057-3.169C23.875,14.399,24.24,14.082,24.657,14.081z M12.047,9.346c-0.049-0.247-0.004-0.502,0.125-0.717
				c0.13-0.216,0.328-0.362,0.558-0.415c0.061-0.015,0.123-0.021,0.184-0.021c0.169,0,0.336,0.055,0.482,0.156
				c0.2,0.141,0.337,0.354,0.386,0.6L16,15.5c0.01,0.049,0.572,1.5,1.5,1.5H18c1.156,0,1.49-1.451,1.5-1.5l2.181-7.6
				c0.087-0.438,0.45-0.756,0.866-0.756c0.063,0,0.124,0.007,0.186,0.021c0.23,0.053,0.43,0.199,0.559,0.414
				c0.129,0.214,0.174,0.469,0.125,0.718l-1.453,5.601c-0.059,0.161-0.104,0.326-0.137,0.49l-1.146,3.618h-5.833l0.015-0.193
				c0.004-0.095-0.002-0.189-0.021-0.283L12.047,9.346z M27.291,26.226l-0.605,1.542c-0.25,0.635-1.063,1.214-1.703,1.214h-7.521
				c-0.605,0-1.108-0.68-1.5-1.166c-0.236-0.295-1.065-1.403-1.536-2.601c-0.333-0.846-0.584-1.693-0.73-2.324
				c-0.314-1.374-0.323-1.979-0.323-2.004C13.372,20.443,13.552,20,14,20h9.5c0.489,0,1.015,0.691,1.015,1.237
				c0,0.633-0.509,1.291-1.015,1.263c0,0-4.188,0-4.5,0s-0.472,0.008-0.644,0.117l-1.487,0.989c-0.483,0.32-0.614,0.975-0.292,1.457
				c0.196,0.293,0.523,0.468,0.876,0.468c0.208,0,0.41-0.061,0.584-0.176l1.482-0.841h4.165c0.782,0,1.33-0.505,1.865-1.056
				c0.274,0.179,0.574,0.308,0.888,0.38c0.196,0.044,0.398,0.067,0.599,0.067c0.285,0,0.566-0.046,0.836-0.134
				C27.758,24.637,27.536,25.604,27.291,26.226z M28.953,17.776l-1.048,3.215c-0.086,0.438-0.452,0.756-0.869,0.756
				c-0.061,0-0.122-0.008-0.183-0.021c-0.159-0.036-0.305-0.119-0.422-0.238c0.009-0.094,0.014-0.185,0.014-0.273
				c0-0.373-0.063-0.736-0.184-1.085l0.956-2.749c0.087-0.438,0.452-0.756,0.869-0.756c0.062,0,0.122,0.007,0.183,0.021
				c0.232,0.053,0.43,0.2,0.56,0.414C28.958,17.272,29.002,17.528,28.953,17.776z"/>
		</g>
	</g>
</g>
</svg>
