<?xml version="1.0" encoding="utf-8"?>
<!-- Generator: Adobe Illustrator 16.0.0, SVG Export Plug-In . SVG Version: 6.00 Build 0)  -->
<!DOCTYPE svg PUBLIC "-//W3C//DTD SVG 1.1//EN" "http://www.w3.org/Graphics/SVG/1.1/DTD/svg11.dtd">
<svg version="1.1" xmlns="http://www.w3.org/2000/svg" xmlns:xlink="http://www.w3.org/1999/xlink" x="0px" y="0px" width="40px"
	 height="40px" viewBox="0 0 40 40" enable-background="new 0 0 40 40" xml:space="preserve">
<g id="white_1_" enable-background="new    ">
	<g id="white">
		<g>
			<path fill-rule="evenodd" clip-rule="evenodd" fill="#FFFFFF" d="M32,5.008c-2.787,0-5.188,1.634-6.313,3.992H9v22h22V18.928
				c0.327,0.047,0.659,0.08,1,0.08c3.866,0,7-3.135,7-7C39,8.142,35.866,5.008,32,5.008z"/>
		</g>
	</g>
</g>
<g id="My_Account_1_" enable-background="new    ">
	<g id="My_Account">
		<g>
			<path fill-rule="evenodd" clip-rule="evenodd" fill="#555555" d="M22.029,12.57C21.434,12.216,20.747,12,20.006,12
				c-2.206,0-4,1.797-4,4.006c0,1.207,0.546,2.277,1.392,3.013c-0.257,0.101-2.269,0.971-3.111,3.834l-0.165,0.682l-0.005,0.025
				c-0.08,0.435-0.121,0.874-0.121,1.31c0,2.355,3.232,3.138,6,3.138c2.767,0,6-0.782,6-3.138c0-0.435-0.041-0.875-0.121-1.31
				l-0.002-0.013l-0.168-0.694c-0.825-2.805-2.774-3.697-3.097-3.828c0.466-0.403,0.829-0.915,1.073-1.489
				C22.721,16.1,22.134,14.4,22.029,12.57z M20.004,13.98c1.098,0,1.99,0.896,1.99,2c0,1.103-0.893,1.999-1.99,1.999
				c-1.097,0-1.99-0.896-1.99-1.999C18.014,14.877,18.907,13.98,20.004,13.98z M24.014,24.467c0,0.61-1.93,1.521-4.005,1.521
				c-2.569,0-3.993-0.932-4.004-1.528C15.975,22.791,17.59,20.704,19,20l-0.394-0.254c0.438,0.165,0.905,0.267,1.399,0.267
				c0.483,0,0.941-0.1,1.371-0.258L21,20C22.381,20.69,24.014,22.778,24.014,24.467z M32,4.009c-4.418,0-8,3.581-8,8
				c0,4.418,3.582,8,8,8s8-3.582,8-8C40,7.59,36.418,4.009,32,4.009z M36,12.5c0,0.276-0.224,0.5-0.5,0.5H33v2.5
				c0,0.276-0.224,0.5-0.5,0.5h-1c-0.276,0-0.5-0.224-0.5-0.5V13h-2.5c-0.276,0-0.5-0.224-0.5-0.5v-1c0-0.276,0.224-0.5,0.5-0.5H31
				V8.5C31,8.224,31.224,8,31.5,8h1C32.776,8,33,8.224,33,8.5V11h2.5c0.276,0,0.5,0.224,0.5,0.5V12.5z M30,30H10V10h12.199
				c0.142-0.696,0.357-1.364,0.635-2H10c-1.104,0-2,0.896-2,2v20c0,1.104,0.896,2,2,2h20c1.104,0,2-0.896,2-2v-8.008
				c-0.685,0-1.354-0.069-2-0.201V30z"/>
		</g>
	</g>
</g>
</svg>
