<?xml version="1.0" encoding="utf-8"?>
<!-- Generator: Adobe Illustrator 16.0.0, SVG Export Plug-In . SVG Version: 6.00 Build 0)  -->
<!DOCTYPE svg PUBLIC "-//W3C//DTD SVG 1.1//EN" "http://www.w3.org/Graphics/SVG/1.1/DTD/svg11.dtd">
<svg version="1.1" xmlns="http://www.w3.org/2000/svg" xmlns:xlink="http://www.w3.org/1999/xlink" x="0px" y="0px" width="40px"
	 height="40px" viewBox="0 0 40 40" enable-background="new 0 0 40 40" xml:space="preserve">
<g id="white_1_" enable-background="new    ">
	<g id="white">
		<g>
			<rect x="9" y="9" fill="#FFFFFF" width="22" height="22"/>
		</g>
	</g>
</g>
<g id="My_Account_1_" enable-background="new    ">
	<g id="My_Account">
		<g>
			<path fill-rule="evenodd" clip-rule="evenodd" fill="#555555" d="M19.995,28.007c2.767,0,6-0.782,6-3.138
				c0-0.435-0.041-0.875-0.121-1.31l-0.002-0.013l-0.168-0.694c-0.825-2.805-2.774-3.697-3.097-3.828
				c0.85-0.735,1.399-1.809,1.399-3.019c0-2.209-1.794-4.006-4-4.006c-2.206,0-4,1.797-4,4.006c0,1.207,0.546,2.277,1.392,3.013
				c-0.257,0.101-2.269,0.971-3.111,3.834l-0.165,0.682l-0.005,0.025c-0.08,0.435-0.121,0.874-0.121,1.31
				C13.995,27.225,17.227,28.007,19.995,28.007z M20.004,13.98c1.098,0,1.99,0.896,1.99,2c0,1.103-0.893,1.999-1.99,1.999
				c-1.097,0-1.99-0.896-1.99-1.999C18.014,14.877,18.907,13.98,20.004,13.98z M19,20l-0.394-0.254
				c0.438,0.165,0.905,0.267,1.399,0.267c0.483,0,0.941-0.1,1.371-0.258L21,20c1.381,0.69,3.014,2.778,3.014,4.467
				c0,0.61-1.93,1.521-4.005,1.521c-2.569,0-3.993-0.932-4.004-1.528C15.975,22.791,17.59,20.704,19,20z M30,8H10
				c-1.104,0-2,0.896-2,2v20c0,1.104,0.896,2,2,2h20c1.104,0,2-0.896,2-2V10C32,8.896,31.104,8,30,8z M30,30H10V10h20V30z"/>
		</g>
	</g>
</g>
</svg>
