<?xml version="1.0" encoding="utf-8"?>
<!-- Generator: Adobe Illustrator 16.0.0, SVG Export Plug-In . SVG Version: 6.00 Build 0)  -->
<!DOCTYPE svg PUBLIC "-//W3C//DTD SVG 1.1//EN" "http://www.w3.org/Graphics/SVG/1.1/DTD/svg11.dtd">
<svg version="1.1" xmlns="http://www.w3.org/2000/svg" xmlns:xlink="http://www.w3.org/1999/xlink" x="0px" y="0px" width="40px"
	 height="40px" viewBox="0 0 40 40" enable-background="new 0 0 40 40" xml:space="preserve">
<g id="Rectangle_3_1_" enable-background="new    ">
	<g id="Rectangle_3">
		<g>
			<path fill-rule="evenodd" clip-rule="evenodd" fill="#FFFFFF" d="M31,22l-2,1l-3,2h-2l-1-2h-4l-4-2h-5v7l2,1l2,1l8,1l2-1l4-2l5-3
				v-3H31z M19,12h-4v2h4V12z M27,17h-4v1h4V17z M27,9h-4v1h4V9z"/>
		</g>
	</g>
</g>
<g id="affiliate_1_" enable-background="new    ">
	<g id="affiliate">
		<g>
			<path fill-rule="evenodd" clip-rule="evenodd" fill="#555555" d="M31.135,21.178c-0.842,0-1.555,0.805-2.611,1.456
				c-1.338,0.824-2.443,1.511-3.733,1.605c-0.271-0.581-0.427-0.87-0.647-1.124c-0.875-1.016-2.535-1.133-3.707-1.133
				c-0.366,0-0.718,0.012-1.051,0.023c-0.208,0.01-0.39,0.017-0.536,0.017c-0.154,0-0.548-0.251-0.896-0.473l-0.027-0.017
				c-1.19-0.766-3.101-1.48-6.92-1.535c-0.002,0-0.003,0.001-0.005,0.001v-1.112c0-0.486-0.344-0.882-0.768-0.882H6.768
				C6.344,18.005,6,18.4,6,18.887v12.231c0,0.486,0.344,0.883,0.768,0.883h3.464c0.423,0,0.768-0.396,0.768-0.883v-1.249
				c0.038,0,0.075-0.001,0.113-0.001c0.396,0,1.732,0.634,2.618,1.054c1.955,0.927,4.389,1.079,6.412,1.079
				c3.012,0,13.857-5.062,13.857-7.884C34,22.276,32.93,21.178,31.135,21.178z M20.143,30.062c-1.592,0-3.806-0.049-5.604-0.9
				c-1.457-0.688-2.607-1.23-3.426-1.23c-0.039,0-0.076,0.014-0.113,0.021V22c3.223,0.047,4.817,0.479,5.894,1.173
				C17.556,23.595,18.279,24,19,24c0.162,0,0.219-0.048,0.459-0.058C19.725,23.933,19.653,24,20,24c1.641,0,2.533,0.211,2.68,0.381
				c0.038,0.046,0.299,0.289,0.248,0.633h-7.04c-0.489,0-0.887,0.447-0.887,0.996s0.398,0.996,0.887,0.996L22,27
				c1.321,0,6.65-1.97,7.773-2.886c0.346-0.285,1.156-0.95,1.363-0.999c0.695,0,0.931,0.253,0.932,0.989
				C31.898,24.97,23.451,30.062,20.143,30.062z M22.781,19.998h4.438c0.979,0,1.775-1.121,1.775-2.497
				c0-1.377-0.797-2.497-1.775-2.497h-4.438c-0.979,0-1.775,1.12-1.775,2.497C21.006,18.877,21.803,19.998,22.781,19.998z
				 M23.392,16.994h3.194c0.217,0,0.4,0.231,0.4,0.507c0,0.279-0.18,0.507-0.4,0.507h-3.194c-0.22,0-0.399-0.228-0.399-0.507
				C22.992,17.226,23.175,16.994,23.392,16.994z M14.782,15.998h4.438c0.979,0,1.775-1.121,1.775-2.497
				c0-1.377-0.797-2.497-1.775-2.497h-4.438c-0.979,0-1.775,1.12-1.775,2.497C13.006,14.877,13.803,15.998,14.782,15.998z
				 M15.392,12.994h3.195c0.217,0,0.399,0.231,0.399,0.507c0,0.279-0.179,0.507-0.399,0.507h-3.195c-0.22,0-0.399-0.228-0.399-0.507
				C14.992,13.226,15.175,12.994,15.392,12.994z M22.781,11.998h4.438c0.979,0,1.775-1.121,1.775-2.497
				c0-1.377-0.797-2.497-1.775-2.497h-4.438c-0.979,0-1.775,1.12-1.775,2.497C21.006,10.877,21.803,11.998,22.781,11.998z
				 M23.392,8.994h3.194c0.217,0,0.4,0.231,0.4,0.507c0,0.279-0.18,0.507-0.4,0.507h-3.194c-0.22,0-0.399-0.228-0.399-0.507
				C22.992,9.226,23.175,8.994,23.392,8.994z"/>
		</g>
	</g>
</g>
</svg>
