<?xml version="1.0" encoding="utf-8"?>
<!-- Generator: Adobe Illustrator 16.0.0, SVG Export Plug-In . SVG Version: 6.00 Build 0)  -->
<!DOCTYPE svg PUBLIC "-//W3C//DTD SVG 1.1//EN" "http://www.w3.org/Graphics/SVG/1.1/DTD/svg11.dtd">
<svg version="1.1" id="arrow_1_" xmlns="http://www.w3.org/2000/svg" xmlns:xlink="http://www.w3.org/1999/xlink" x="0px" y="0px"
	 width="40px" height="40px" viewBox="0 0 40 40" enable-background="new 0 0 40 40" xml:space="preserve">
<g id="arrow">
	<g>
		<path fill="#555555" d="M22.306,18.4c-0.583-0.952-1.426-2.313-1.874-3.022c-0.445-0.704-0.478-0.711-1.956-0.711
			c-1.479,0-1.86,0.075-1.03,1.424c0.083,0.134,1.491,2.436,1.955,3.198c0.299,0.486,0.288,0.941,0,1.422
			c-0.451,0.753-1.44,2.39-1.952,3.204c-0.871,1.386-0.467,1.418,1.015,1.418s1.555-0.038,1.968-0.711
			c0.283-0.462,1.322-2.104,1.874-3.022C23.238,20.046,23.25,19.942,22.306,18.4z"/>
	</g>
</g>
</svg>
