<?xml version="1.0" encoding="utf-8"?>
<!-- Generator: Adobe Illustrator 16.0.0, SVG Export Plug-In . SVG Version: 6.00 Build 0)  -->
<!DOCTYPE svg PUBLIC "-//W3C//DTD SVG 1.1//EN" "http://www.w3.org/Graphics/SVG/1.1/DTD/svg11.dtd">
<svg version="1.1" id="arrow_1_" xmlns="http://www.w3.org/2000/svg" xmlns:xlink="http://www.w3.org/1999/xlink" x="0px" y="0px"
	 width="40px" height="40px" viewBox="0 0 40 40" enable-background="new 0 0 40 40" xml:space="preserve">
<g id="arrow">
	<g>
		<path fill="#555555" d="M20.6,20.711c-0.299-0.486-0.288-0.941,0-1.422c0.451-0.753,1.439-2.39,1.951-3.204
			c0.871-1.386,0.468-1.418-1.014-1.418c-1.482,0-1.556,0.038-1.968,0.711c-0.284,0.462-1.323,2.104-1.875,3.022
			c-0.933,1.554-0.945,1.657,0,3.199c0.583,0.952,1.426,2.313,1.875,3.022c0.445,0.704,0.478,0.711,1.956,0.711
			c1.479,0,1.86-0.075,1.03-1.424C22.473,23.775,21.063,21.474,20.6,20.711z"/>
	</g>
</g>
</svg>
