<?xml version="1.0" encoding="utf-8"?>
<!-- Generator: Adobe Illustrator 16.0.0, SVG Export Plug-In . SVG Version: 6.00 Build 0)  -->
<!DOCTYPE svg PUBLIC "-//W3C//DTD SVG 1.1//EN" "http://www.w3.org/Graphics/SVG/1.1/DTD/svg11.dtd">
<svg version="1.1" xmlns="http://www.w3.org/2000/svg" xmlns:xlink="http://www.w3.org/1999/xlink" x="0px" y="0px" width="40px"
	 height="40px" viewBox="0 0 40 40" enable-background="new 0 0 40 40" xml:space="preserve">
<g id="arrow_x5F_r_3_" opacity="0.102" enable-background="new    ">
	<g id="arrow_x5F_r">
		<g>
			<path fill-rule="evenodd" clip-rule="evenodd" d="M19.167,22l4.541-4.643c0.373-0.382,0.373-1,0-1.382l-0.675-0.69
				c-0.373-0.381-0.979-0.381-1.352,0l-5.402,5.524c-0.318,0.325-0.348,0.814-0.124,1.19c-0.224,0.376-0.194,0.865,0.124,1.19
				l5.402,5.524c0.373,0.381,0.979,0.381,1.352,0l0.675-0.69c0.373-0.382,0.373-1,0-1.382L19.167,22z"/>
		</g>
	</g>
</g>
<g id="arrow_x5F_r_2_" enable-background="new    ">
	<g id="arrow_x5F_r_1_">
		<g>
			<path fill-rule="evenodd" clip-rule="evenodd" fill="#FFFFFF" d="M19.167,20l4.541-4.643c0.373-0.382,0.373-1,0-1.382
				l-0.675-0.69c-0.373-0.381-0.979-0.381-1.352,0l-5.402,5.524c-0.318,0.325-0.348,0.814-0.124,1.19
				c-0.224,0.376-0.194,0.865,0.124,1.19l5.402,5.524c0.373,0.381,0.979,0.381,1.352,0l0.675-0.69c0.373-0.382,0.373-1,0-1.382
				L19.167,20z"/>
		</g>
	</g>
</g>
</svg>
