<?xml version="1.0" encoding="utf-8"?>
<!-- Generator: Adobe Illustrator 16.0.0, SVG Export Plug-In . SVG Version: 6.00 Build 0)  -->
<!DOCTYPE svg PUBLIC "-//W3C//DTD SVG 1.1//EN" "http://www.w3.org/Graphics/SVG/1.1/DTD/svg11.dtd">
<svg version="1.1" xmlns="http://www.w3.org/2000/svg" xmlns:xlink="http://www.w3.org/1999/xlink" x="0px" y="0px" width="40px"
	 height="40px" viewBox="0 0 40 40" enable-background="new 0 0 40 40" xml:space="preserve">
<g id="Rectangle_1_1_" enable-background="new    ">
	<g id="Rectangle_1">
		<g>
			<rect x="8" y="11" fill="#FFFFFF" width="24" height="18"/>
		</g>
	</g>
</g>
<g id="associations_1_" enable-background="new    ">
	<g id="associations">
		<g>
			<path fill-rule="evenodd" clip-rule="evenodd" fill="#555555" d="M30.5,10h-5c-0.314-2.473-2.159-4-5.5-4s-5.185,1.527-5.5,4h-5
				c-2.561,0-2.565,2.889-2.494,3.282v14.089c0,1.45,1.169,2.629,2.607,2.629h20.774c1.438,0,2.607-1.179,2.607-2.629V13.264
				C33.063,12.822,33.038,10,30.5,10z M20,8c2.313,0,2.895,1.381,3,2h-6C17.105,9.381,17.686,8,20,8z M30.98,27.371
				C30.979,27.7,30.826,28,30.5,28H23l-1,1h-4l-1-1H9.5c-0.327,0-0.48-0.299-0.48-0.629L9,18.5c0.361,0.683,2.354,2.5,4,2.5h3.001
				v0.286C16.001,22.999,16,23,17.5,23s1.499-0.001,1.499-1.714V21h2.003v0.286C21.002,22.999,21,23,22.5,23
				s1.498-0.001,1.498-1.714V21H27c1.244,0,3.326-1.127,4-2L30.98,27.371z M31,17.5c0,0-2.42,2.5-4,2.5h-3.002v-1.286
				C23.998,17.001,24,17,22.5,17s-1.498,0.001-1.498,1.714V20h-2.003v-1.286C18.999,17.001,19,17,17.5,17s-1.499,0.001-1.499,1.714
				V20H13c-1.261,0-3.563-2.406-4-3c0-0.594,0-4.5,0-4.5C9.103,12.314,9.286,12,9.5,12h21c0.214,0,0.396,0.314,0.5,0.5V17.5z"/>
		</g>
	</g>
</g>
</svg>
