<?xml version="1.0" encoding="utf-8"?>
<!-- Generator: Adobe Illustrator 16.0.0, SVG Export Plug-In . SVG Version: 6.00 Build 0)  -->
<!DOCTYPE svg PUBLIC "-//W3C//DTD SVG 1.1//EN" "http://www.w3.org/Graphics/SVG/1.1/DTD/svg11.dtd">
<svg version="1.1" xmlns="http://www.w3.org/2000/svg" xmlns:xlink="http://www.w3.org/1999/xlink" x="0px" y="0px" width="40px"
	 height="40px" viewBox="0 0 40 40" enable-background="new 0 0 40 40" xml:space="preserve">
<g id="attachment_3_" enable-background="new    ">
	<g id="attachment">
		<g>
			<path fill="#FFFFFF" d="M21.658,8.005c-2.467,0-4.973,1.186-6.477,3.367c0,0-3.768,5.218-4.629,6.283
				c-0.636,0.771-1.729,2.172-0.943,3.678c0.655,1.202,1.69,1.193,1.69,1.193c-0.694,1.034-1.042,1.763-1.042,3.92
				c0,2.756,2.73,5.549,6.007,5.549c1.812,0,3.956-0.551,5.036-2.196l6.679-9.777c0.888-1.264,1.351-2.794,1.351-4.286
				C29.33,11.793,26.092,8.005,21.658,8.005z"/>
		</g>
	</g>
</g>
<g id="attachment_2_" enable-background="new    ">
	<g id="attachment_1_">
		<g>
			<path fill="#555555" d="M21.545,10.003c-1.756,0-3.541,0.868-4.611,2.465l-4.747,7.28c-0.137,0.196-0.192,0.308-0.192,0.504
				c0,0.531,0.466,1.036,1.043,1.036c0.329,0,0.604-0.14,0.795-0.42l4.83-7.281c0.658-0.952,1.757-1.512,2.882-1.512
				c2.003,0,3.374,1.792,3.374,3.584c0.027,0.7-0.191,1.372-0.576,1.96l-6.201,9.353c-0.412,0.616-0.988,0.896-1.619,0.896
				c-1.18,0-2.003-0.979-2.003-1.932c0-0.393,0.11-0.813,0.357-1.176l6.256-9.409c0.082-0.168,0.247-0.252,0.385-0.252
				c0.273,0,0.411,0.28,0.411,0.504c0,0.112-0.027,0.225-0.11,0.309l-4.692,7.168c-0.137,0.196-0.22,0.421-0.22,0.616
				c0,0.532,0.521,1.008,1.098,1.008c0.329,0.028,0.604-0.14,0.796-0.447l4.748-7.197c0.302-0.447,0.438-0.952,0.438-1.428
				c0-1.372-1.18-2.604-2.469-2.604c-0.824,0-1.592,0.364-2.059,1.147l-6.256,9.381c-0.495,0.757-0.741,1.568-0.741,2.381
				c0,2.017,1.701,4.061,4.034,4.061c1.29,0,2.579-0.645,3.348-1.849l6.201-9.353c0.632-0.924,0.961-2.044,0.961-3.136
				C27.005,12.775,24.7,10.003,21.545,10.003z"/>
		</g>
	</g>
</g>
</svg>
