<?xml version="1.0" encoding="utf-8"?>
<!-- Generator: Adobe Illustrator 16.0.0, SVG Export Plug-In . SVG Version: 6.00 Build 0)  -->
<!DOCTYPE svg PUBLIC "-//W3C//DTD SVG 1.1//EN" "http://www.w3.org/Graphics/SVG/1.1/DTD/svg11.dtd">
<svg version="1.1" xmlns="http://www.w3.org/2000/svg" xmlns:xlink="http://www.w3.org/1999/xlink" x="0px" y="0px" width="40px"
	 height="40px" viewBox="0 0 40 40" enable-background="new 0 0 40 40" xml:space="preserve">
<g id="Rectangle_3_1_" enable-background="new    ">
	<g id="Rectangle_3">
		<g>
			<path fill-rule="evenodd" clip-rule="evenodd" fill="#FFFFFF" d="M9,13v16h22V13H9z M15,9h-2v2h2V9z M27,9h-2v2h2V9z"/>
		</g>
	</g>
</g>
<g id="book_1_" enable-background="new    ">
	<g id="book">
		<g>
			<path fill-rule="evenodd" clip-rule="evenodd" fill="#555555" d="M17.5,24.011c1.499,0,1.497-0.001,1.497-1.715
				c0-1.799,0-1.45,0-2.571c0-1.714,0.001-1.715-1.497-1.715s-1.497,0.001-1.497,1.715c0,1.121,0,0.772,0,2.571
				C16.003,24.01,16.001,24.011,17.5,24.011z M22.5,24.011c1.498,0,1.497-0.001,1.497-1.715c0-1.799,0-1.45,0-2.571
				c0-1.714,0.001-1.715-1.497-1.715s-1.497,0.001-1.497,1.715c0,1.121,0,0.772,0,2.571C21.003,24.01,21.002,24.011,22.5,24.011z
				 M30.666,10.011h-2.67V8.003H24v2.008h-8.004V8.003H12v2.008H9.333C8.496,10.011,8,10.54,8,11.344v17.333
				c0,0.825,0.516,1.334,1.333,1.334h21c0.837,0,1.666-0.499,1.666-1.334V11.344C32,10.54,31.515,10.011,30.666,10.011z M25,9.007
				h1.998v2H25V9.007z M13,9.007h1.998v2H13V9.007z M22,29.011h-4l-1-1h6L22,29.011z M29.996,28.007H10.003V14.01h19.993V28.007z"/>
		</g>
	</g>
</g>
</svg>
