<?xml version="1.0" encoding="utf-8"?>
<!-- Generator: Adobe Illustrator 16.0.0, SVG Export Plug-In . SVG Version: 6.00 Build 0)  -->
<!DOCTYPE svg PUBLIC "-//W3C//DTD SVG 1.1//EN" "http://www.w3.org/Graphics/SVG/1.1/DTD/svg11.dtd">
<svg version="1.1" xmlns="http://www.w3.org/2000/svg" xmlns:xlink="http://www.w3.org/1999/xlink" x="0px" y="0px" width="40px"
	 height="40px" viewBox="0 0 40 40" enable-background="new 0 0 40 40" xml:space="preserve">
<g id="Fake_White_1_" enable-background="new    ">
	<g id="Fake_White">
		<g>
			<path fill="#FFFFFF" d="M29.249,16H10.75c0,0-2.625,0-2.625,3.95c0,2.5,0,8.138,0,8.877c0,1.969,0,1.969,1.97,1.969
				c0.212,0,1.559,0,3.44,0c0.851,0,1.121,0.251,1.346,0.354c0.884,0.507,1.939,1.114,2.917,1.677
				c2.146,1.233,2.139,1.228,4.291-0.008c0.873-0.5,2.029-1.169,2.878-1.656c0.166-0.087,0.625-0.367,1.373-0.367
				c1.568,0,2.826,0,3.439,0c1.96,0,1.97,0,1.97-1.969c0-1.97,0-6.377,0-8.877C31.749,16.014,29.249,16,29.249,16z"/>
		</g>
	</g>
</g>
<g id="_x2D_-_v_--__4px_1_" enable-background="new    ">
	<g id="_x2D_-_v_--__4px">
		<g>
			<path fill="#555555" d="M26.499,17.03c-0.768,0-1.259,0.268-1.47,0.383l-2.992,1.729c-1.039,0.6-1.563,0.9-2.038,0.9
				c0,0-0.001,0-0.001,0c-0.478,0-1.003-0.304-2.049-0.907c0,0-3.051-1.757-3.091-1.779c-0.232-0.13-0.582-0.325-1.358-0.325H9.25
				v0.957h4.25c0.65,0,0.922,0.152,1.122,0.264c0.047,0.026,3.085,1.775,3.085,1.775c1.126,0.65,1.709,0.975,2.292,0.975
				c0.581,0,1.163-0.322,2.28-0.967l2.982-1.724c0.178-0.097,0.594-0.323,1.237-0.323h4.25V17.03H26.499z"/>
		</g>
	</g>
</g>
<g id="Ticket__x28_Full_x29__1_" enable-background="new    ">
	<g id="Ticket__x28_Full_x29_">
		<g>
			<path fill-rule="evenodd" clip-rule="evenodd" fill="#555555" d="M30.001,17.012h-2.573c0.573,0.063,2.571,0.497,2.571,3.544
				c0,2.82,0,6.111,0,7.569c0,0.854,0.005,0.854-0.909,0.854c-1.404,0-3.488,0-3.488,0c-0.004,0.009-0.008,0.016-0.008,0.016
				c-0.654,0-1.055,0.23-1.199,0.304c-0.742,0.402-1.752,0.955-2.515,1.369c-1.88,1.021-1.874,1.026-3.75,0.006
				c-0.854-0.465-1.776-0.967-2.548-1.386c-0.197-0.086-0.433-0.293-1.176-0.293c0,0-0.003-0.007-0.008-0.016c0,0-2.58,0-3.488,0
				c-0.909,0-0.909,0-0.909-0.854c0-0.855,0-4.737,0-7.569c0-3.048,1.988-3.482,2.566-3.544H10c0,0-2-0.012-2,2.988
				c0,2.539,0,8.25,0,9c0,2,0,2,2,2c0.227,0,1.301,0,3.5,0c0.863,0,1.138,0.254,1.366,0.36c0.897,0.514,1.969,1.132,2.961,1.702
				c2.178,1.253,2.172,1.247,4.356-0.008c0.887-0.508,2.061-1.188,2.923-1.682C25.274,31.284,25.74,31,26.499,31
				c1.861,0,2.827,0,3.5,0c1.989,0,2,0,2-2s0-6.461,0-9C31.999,16.938,30.001,17.012,30.001,17.012z"/>
		</g>
	</g>
</g>
<g id="V__-_4_px_1_" enable-background="new    ">
	<g id="V__-_4_px">
		<g>
			<path fill="#555555" d="M22.143,26.524c-0.491,0.289-1.262,0.707-1.715,0.962c-0.289,0.163-0.564,0.169-0.857,0
				c-0.459-0.263-1.633-0.916-1.714-0.962C17.044,26.055,17,26.1,17,26.85s-0.009,0.555,0.422,0.795
				c0.431,0.241,1.07,0.604,1.647,0.93c0.933,0.527,0.931,0.524,1.867-0.003c0.554-0.313,1.369-0.777,1.65-0.932
				C22.998,27.416,23,27.479,23,26.854S22.978,26.031,22.143,26.524z"/>
		</g>
	</g>
</g>
<g id="_x3D___x5D__1_" enable-background="new    ">
	<g id="_x3D___x5D_">
		<g>
			<path fill-rule="evenodd" clip-rule="evenodd" fill="#555555" d="M29.999,12c-2,0-2-0.001-2,1.999
				c0,1.003-0.007,1.001-1.003,1.001H13c-1.005,0-1,0.003-1-1c0-2-0.008-2-2.004-2S8,12.002,8,14v2c0,0.992,0.008,1,0.998,1h22.001
				c0.991,0,1-0.008,1-1v-2C31.999,12.002,31.999,12,29.999,12z M23,11c1.998,0,1.995-0.001,1.995-2c0-2.099,0-1.691,0-3
				c0-1.999,0.003-2-1.995-2c-1.999,0-1.996,0.001-1.996,2c0,1.309,0,0.901,0,3C21.004,10.999,21.001,11,23,11z M17,11
				c1.998,0,1.996-0.001,1.996-2c0-2.099,0-1.691,0-3c0-1.999,0.002-2-1.996-2s-1.996,0.001-1.996,2c0,1.309,0,0.901,0,3
				C15.003,10.999,15.001,11,17,11z"/>
		</g>
	</g>
</g>
</svg>
