<?xml version="1.0" encoding="utf-8"?>
<!-- Generator: Adobe Illustrator 16.0.0, SVG Export Plug-In . SVG Version: 6.00 Build 0)  -->
<!DOCTYPE svg PUBLIC "-//W3C//DTD SVG 1.1//EN" "http://www.w3.org/Graphics/SVG/1.1/DTD/svg11.dtd">
<svg version="1.1" xmlns="http://www.w3.org/2000/svg" xmlns:xlink="http://www.w3.org/1999/xlink" x="0px" y="0px" width="40px"
	 height="40px" viewBox="0 0 40 40" enable-background="new 0 0 40 40" xml:space="preserve">
<g id="Rectangle_2_1_" enable-background="new    ">
	<g id="Rectangle_2">
		<g>
			<path fill-rule="evenodd" clip-rule="evenodd" fill="#FFFFFF" d="M32,5.008c-3.167,0-5.841,2.105-6.704,4.992H12l-2.97,3H9v0.03
				V17h2v13h1h16h1V18.325c0.91,0.434,1.925,0.683,3,0.683c3.866,0,7-3.135,7-7C39,8.142,35.866,5.008,32,5.008z"/>
		</g>
	</g>
</g>
<g id="for_x5F_business_1_" enable-background="new    ">
	<g id="for_x5F_business">
		<g>
			<path fill-rule="evenodd" clip-rule="evenodd" fill="#555555" d="M30,29v-7.209c-0.696-0.141-1.364-0.358-2-0.637v7.852h-5.006
				L22,30h-4l-0.994-0.994H12V19h12.873c-0.596-0.605-1.11-1.289-1.537-2.03c-0.109,0.012-0.22,0.022-0.335,0.022
				c-1.102,0-2-0.596-2-1.33v-2.66h1.051C22.018,12.67,22,12.333,22,11.992C22,10.95,22.16,9.945,22.456,9H9.75L7,12.963v2.703
				C7,17.303,8.482,19,10,19v10c-1.518,0-2,0.363-2,2h24C32,29.363,31.52,29,30,29z M15,13.002h4v2.66c0,0.734-0.896,1.33-2,1.33
				c-1.102,0-2-0.596-2-1.33V13.002z M9,15.662v-2.66h4v2.66c0,0.734-0.896,1.33-2,1.33C9.898,16.992,9,16.396,9,15.662z
				 M21.003,22.714c0,1.121,0,0.772,0,2.572c0,1.713-0.001,1.714,1.497,1.714s1.497-0.001,1.497-1.714c0-1.8,0-1.451,0-2.572
				c0-1.713,0.001-1.714-1.497-1.714S21.003,21.001,21.003,22.714z M16.003,22.714c0,1.121,0,0.772,0,2.572
				c0,1.713-0.001,1.714,1.497,1.714s1.497-0.001,1.497-1.714c0-1.8,0-1.451,0-2.572c0-1.713,0.001-1.714-1.497-1.714
				S16.003,21.001,16.003,22.714z M32,4.009c-4.418,0-8,3.581-8,8c0,4.418,3.582,8,8,8s8-3.582,8-8C40,7.59,36.418,4.009,32,4.009z
				 M35.773,14.969l-1.73,1.177l-2.092-2.797l-2.038,2.903l-1.729-1.139l2.1-2.895l-3.289-1.046l0.678-2.015l3.177,0.967
				l0.093-3.374l2.177,0.025l0.028,3.479l3.227-1.021l0.622,1.918l-3.227,1.021L35.773,14.969z"/>
		</g>
	</g>
</g>
</svg>
