<?xml version="1.0" encoding="utf-8"?>
<!-- Generator: Adobe Illustrator 16.0.0, SVG Export Plug-In . SVG Version: 6.00 Build 0)  -->
<!DOCTYPE svg PUBLIC "-//W3C//DTD SVG 1.1//EN" "http://www.w3.org/Graphics/SVG/1.1/DTD/svg11.dtd">
<svg version="1.1" xmlns="http://www.w3.org/2000/svg" xmlns:xlink="http://www.w3.org/1999/xlink" x="0px" y="0px" width="40px"
	 height="40px" viewBox="0 0 40 40" enable-background="new 0 0 40 40" xml:space="preserve">
<g id="white_1_" enable-background="new    ">
	<g id="white">
		<g>
			<polygon fill-rule="evenodd" clip-rule="evenodd" fill="#FFFFFF" points="13,15 13,18 15,18 15,27 25,27 25,18 27,18 27,15 			
				"/>
		</g>
	</g>
</g>
<g id="business_x5F_mini_1_" enable-background="new    ">
	<g id="business_x5F_mini">
		<g>
			<path fill-rule="evenodd" clip-rule="evenodd" fill="#555555" d="M26.25,12h-12.5L11,14.963v2.703C11,19.303,12.482,20,14,20v6
				c-1.518,0-2,0.363-2,2h16c0-1.637-0.48-2-2-2v-6c1.52,0,3-0.697,3-2.334v-2.703L26.25,12z M13,16.997v-1.996h4v1.996
				C17,17.547,15.828,18,15,18C14.174,18,13,17.547,13,16.997z M18,26.006h-2V20h2V26.006z M18,16.997v-1.996h4v1.996
				C22,17.547,20.828,18,20,18C19.174,18,18,17.547,18,16.997z M24,26.006h-5V20h5V26.006z M27,16.997C27,17.547,25.828,18,25,18
				c-0.826,0-2-0.453-2-1.003v-1.996h4V16.997z"/>
		</g>
	</g>
</g>
</svg>
