<?xml version="1.0" encoding="utf-8"?>
<!-- Generator: Adobe Illustrator 16.0.0, SVG Export Plug-In . SVG Version: 6.00 Build 0)  -->
<!DOCTYPE svg PUBLIC "-//W3C//DTD SVG 1.1//EN" "http://www.w3.org/Graphics/SVG/1.1/DTD/svg11.dtd">
<svg version="1.1" xmlns="http://www.w3.org/2000/svg" xmlns:xlink="http://www.w3.org/1999/xlink" x="0px" y="0px" width="40px"
	 height="40px" viewBox="0 0 40 40" enable-background="new 0 0 40 40" xml:space="preserve">
<g id="white_1_" enable-background="new    ">
	<g id="white">
		<g>
			<path fill-rule="evenodd" clip-rule="evenodd" fill="#FFFFFF" d="M32,5.008c-3.167,0-5.841,2.105-6.704,4.992H11l-2,3v4h3v13h17
				V18.325c0.91,0.434,1.925,0.683,3,0.683c3.866,0,7-3.135,7-7C39,8.142,35.866,5.008,32,5.008z"/>
		</g>
	</g>
</g>
<g id="business_1_" enable-background="new    ">
	<g id="business">
		<g>
			<path fill-rule="evenodd" clip-rule="evenodd" fill="#555555" d="M16.003,22.714c0,1.121,0,0.772,0,2.572
				c0,1.713-0.001,1.714,1.497,1.714s1.497-0.001,1.497-1.714c0-1.8,0-1.451,0-2.572c0-1.713,0.001-1.714-1.497-1.714
				S16.003,21.001,16.003,22.714z M32,4.009c-4.418,0-8,3.581-8,8c0,4.418,3.582,8,8,8s8-3.582,8-8C40,7.59,36.418,4.009,32,4.009z
				 M36,12.5c0,0.276-0.224,0.5-0.5,0.5H33v2.5c0,0.276-0.224,0.5-0.5,0.5h-1c-0.276,0-0.5-0.224-0.5-0.5V13h-2.5
				c-0.276,0-0.5-0.224-0.5-0.5v-1c0-0.276,0.224-0.5,0.5-0.5H31V8.5C31,8.224,31.224,8,31.5,8h1C32.776,8,33,8.224,33,8.5V11h2.5
				c0.276,0,0.5,0.224,0.5,0.5V12.5z M30,29v-7.209c-0.696-0.141-1.364-0.358-2-0.637v7.852h-5.006L22,30h-4l-0.994-0.994H12V19
				h12.873c-0.596-0.605-1.11-1.289-1.537-2.03c-0.109,0.012-0.22,0.022-0.335,0.022c-1.102,0-2-0.596-2-1.33v-2.66h1.051
				C22.018,12.67,22,12.333,22,11.992C22,10.95,22.16,9.945,22.456,9H9.75L7,12.963v2.703C7,17.303,8.482,19,10,19v10
				c-1.518,0-2,0.363-2,2h24C32,29.363,31.52,29,30,29z M15,13.002h4v2.66c0,0.734-0.896,1.33-2,1.33c-1.102,0-2-0.596-2-1.33
				V13.002z M9,15.662v-2.66h4v2.66c0,0.734-0.896,1.33-2,1.33C9.898,16.992,9,16.396,9,15.662z M21.003,22.714
				c0,1.121,0,0.772,0,2.572c0,1.713-0.001,1.714,1.497,1.714s1.497-0.001,1.497-1.714c0-1.8,0-1.451,0-2.572
				c0-1.713,0.001-1.714-1.497-1.714S21.003,21.001,21.003,22.714z"/>
		</g>
	</g>
</g>
</svg>
