<?xml version="1.0" encoding="utf-8"?>
<!-- Generator: Adobe Illustrator 16.0.0, SVG Export Plug-In . SVG Version: 6.00 Build 0)  -->
<!DOCTYPE svg PUBLIC "-//W3C//DTD SVG 1.1//EN" "http://www.w3.org/Graphics/SVG/1.1/DTD/svg11.dtd">
<svg version="1.1" xmlns="http://www.w3.org/2000/svg" xmlns:xlink="http://www.w3.org/1999/xlink" x="0px" y="0px" width="40px"
	 height="40px" viewBox="0 0 40 40" enable-background="new 0 0 40 40" xml:space="preserve">
<g id="Rectangle_2_1_" enable-background="new    ">
	<g id="Rectangle_2">
		<g>
			<path fill-rule="evenodd" clip-rule="evenodd" fill="#FFFFFF" d="M9,13v4h22v-4H9z M12,30h16V19H12V30z"/>
		</g>
	</g>
</g>
<g id="for_x5F_business_1_" enable-background="new    ">
	<g id="for_x5F_business">
		<g>
			<path fill-rule="evenodd" clip-rule="evenodd" fill="#555555" d="M30.25,9H9.75L7,12.963v2.703C7,17.303,8.482,19,10,19v10
				c-1.518,0-2,0.363-2,2h24c0-1.637-0.48-2-2-2V19c1.52,0,3-1.697,3-3.334v-2.703L30.25,9z M21,13.002h4v2.66
				c0,0.734-0.896,1.33-2,1.33c-1.102,0-2-0.596-2-1.33V13.002z M15,13.002h4v2.66c0,0.734-0.896,1.33-2,1.33
				c-1.102,0-2-0.596-2-1.33V13.002z M9,15.662v-2.66h4v2.66c0,0.734-0.896,1.33-2,1.33C9.898,16.992,9,16.396,9,15.662z M28,29.006
				h-5.006L22,30h-4l-0.994-0.994H12V19h16V29.006z M31,15.662c0,0.734-0.896,1.33-2,1.33c-1.102,0-2-0.596-2-1.33v-2.66h4V15.662z
				 M17.5,27c1.499,0,1.497-0.001,1.497-1.714c0-1.8,0-1.451,0-2.572c0-1.713,0.001-1.714-1.497-1.714s-1.497,0.001-1.497,1.714
				c0,1.121,0,0.772,0,2.572C16.003,26.999,16.001,27,17.5,27z M22.5,27c1.498,0,1.497-0.001,1.497-1.714c0-1.8,0-1.451,0-2.572
				c0-1.713,0.001-1.714-1.497-1.714s-1.497,0.001-1.497,1.714c0,1.121,0,0.772,0,2.572C21.003,26.999,21.002,27,22.5,27z"/>
		</g>
	</g>
</g>
</svg>
