<?xml version="1.0" encoding="utf-8"?>
<!-- Generator: Adobe Illustrator 16.0.0, SVG Export Plug-In . SVG Version: 6.00 Build 0)  -->
<!DOCTYPE svg PUBLIC "-//W3C//DTD SVG 1.1//EN" "http://www.w3.org/Graphics/SVG/1.1/DTD/svg11.dtd">
<svg version="1.1" xmlns="http://www.w3.org/2000/svg" xmlns:xlink="http://www.w3.org/1999/xlink" x="0px" y="0px" width="40px"
	 height="40px" viewBox="0 0 40 40" enable-background="new 0 0 40 40" xml:space="preserve">
<g id="white_1_" enable-background="new    ">
	<g id="white">
		<g>
			<polygon fill-rule="evenodd" clip-rule="evenodd" fill="#FFFFFF" points="27,13 27,10 25,10 25,13 15,13 15,10 13,10 13,13 
				10,13 10,28 30,28 30,13 			"/>
		</g>
	</g>
</g>
<g id="calendar_1_" enable-background="new    ">
	<g id="calendar">
		<g>
			<path fill-rule="evenodd" clip-rule="evenodd" fill="#555555" d="M23.999,20.011h-1.998v2.004h1.998V20.011z M23.999,17.011
				h-1.998v2.004h1.998V17.011z M23.999,23.011h-1.998v2.004h1.998V23.011z M20.999,17.011h-1.998v2.004h1.998V17.011z
				 M26.999,17.011h-1.998v2.004h1.998V17.011z M26.999,20.011h-1.998v2.004h1.998V20.011z M29.666,11.011h-1.67V9.003H24v2.008
				h-8.004V9.003H12v2.008h-1.667C9.496,11.011,9,11.54,9,12.344v15.333c0,0.825,0.516,1.334,1.333,1.334h19
				c0.837,0,1.666-0.499,1.666-1.334V12.344C31,11.54,30.515,11.011,29.666,11.011z M25,10.007h1.998v2H25V10.007z M13,10.007h1.998
				v2H13V10.007z M28.996,27.007H11.003V15.01h17.993V27.007z M17.999,23.011h-1.998v2.004h1.998V23.011z M14.999,20.011h-1.998
				v2.004h1.998V20.011z M14.999,23.011h-1.998v2.004h1.998V23.011z M17.999,20.011h-1.998v2.004h1.998V20.011z M20.999,23.011
				h-1.998v2.004h1.998V23.011z M17.999,17.011h-1.998v2.004h1.998V17.011z M20.999,20.011h-1.998v2.004h1.998V20.011z"/>
		</g>
	</g>
</g>
</svg>
