<?xml version="1.0" encoding="utf-8"?>
<!-- Generator: Adobe Illustrator 16.0.0, SVG Export Plug-In . SVG Version: 6.00 Build 0)  -->
<!DOCTYPE svg PUBLIC "-//W3C//DTD SVG 1.1//EN" "http://www.w3.org/Graphics/SVG/1.1/DTD/svg11.dtd">
<svg version="1.1" xmlns="http://www.w3.org/2000/svg" xmlns:xlink="http://www.w3.org/1999/xlink" x="0px" y="0px" width="40px"
	 height="40px" viewBox="0 0 40 40" enable-background="new 0 0 40 40" xml:space="preserve">
<g id="calendar_3_" opacity="0.102" enable-background="new    ">
	<g id="calendar">
		<g>
			<path fill-rule="evenodd" clip-rule="evenodd" d="M23.999,19.011h-1.998v2.004h1.998V19.011z M23.999,22.011h-1.998v2.004h1.998
				V22.011z M20.999,19.011h-1.998v2.004h1.998V19.011z M23.999,25.011h-1.998v2.004h1.998V25.011z M26.999,22.011h-1.998v2.004
				h1.998V22.011z M26.999,19.011h-1.998v2.004h1.998V19.011z M14.999,22.011h-1.998v2.004h1.998V22.011z M17.999,25.011h-1.998
				v2.004h1.998V25.011z M14.999,25.011h-1.998v2.004h1.998V25.011z M29.666,13.011h-1.67v-2.008H24v2.008h-8.004v-2.008H12v2.008
				h-1.667C9.496,13.011,9,13.54,9,14.344v15.333c0,0.825,0.516,1.334,1.333,1.334h19c0.837,0,1.666-0.499,1.666-1.334V14.344
				C31,13.54,30.515,13.011,29.666,13.011z M25,12.007h1.998v2H25V12.007z M13,12.007h1.998v2H13V12.007z M28.996,29.007H11.003
				V17.01h17.993V29.007z M20.999,22.011h-1.998v2.004h1.998V22.011z M20.999,25.011h-1.998v2.004h1.998V25.011z M17.999,19.011
				h-1.998v2.004h1.998V19.011z M17.999,22.011h-1.998v2.004h1.998V22.011z"/>
		</g>
	</g>
</g>
<g id="calendar_2_" enable-background="new    ">
	<g id="calendar_1_">
		<g>
			<path fill-rule="evenodd" clip-rule="evenodd" fill="#FFFFFF" d="M23.999,20.011h-1.998v2.004h1.998V20.011z M20.999,17.011
				h-1.998v2.004h1.998V17.011z M23.999,17.011h-1.998v2.004h1.998V17.011z M23.999,23.011h-1.998v2.004h1.998V23.011z
				 M14.999,23.011h-1.998v2.004h1.998V23.011z M26.999,17.011h-1.998v2.004h1.998V17.011z M26.999,20.011h-1.998v2.004h1.998
				V20.011z M29.666,11.011h-1.67V9.003H24v2.008h-8.004V9.003H12v2.008h-1.667C9.496,11.011,9,11.54,9,12.344v15.333
				c0,0.825,0.516,1.334,1.333,1.334h19c0.837,0,1.666-0.499,1.666-1.334V12.344C31,11.54,30.515,11.011,29.666,11.011z M25,10.007
				h1.998v2H25V10.007z M13,10.007h1.998v2H13V10.007z M28.996,27.007H11.003V15.01h17.993V27.007z M17.999,23.011h-1.998v2.004
				h1.998V23.011z M17.999,20.011h-1.998v2.004h1.998V20.011z M14.999,20.011h-1.998v2.004h1.998V20.011z M20.999,20.011h-1.998
				v2.004h1.998V20.011z M17.999,17.011h-1.998v2.004h1.998V17.011z M20.999,23.011h-1.998v2.004h1.998V23.011z"/>
		</g>
	</g>
</g>
</svg>
