<?xml version="1.0" encoding="utf-8"?>
<!-- Generator: Adobe Illustrator 16.0.0, SVG Export Plug-In . SVG Version: 6.00 Build 0)  -->
<!DOCTYPE svg PUBLIC "-//W3C//DTD SVG 1.1//EN" "http://www.w3.org/Graphics/SVG/1.1/DTD/svg11.dtd">
<svg version="1.1" xmlns="http://www.w3.org/2000/svg" xmlns:xlink="http://www.w3.org/1999/xlink" x="0px" y="0px" width="40px"
	 height="40px" viewBox="0 0 40 40" enable-background="new 0 0 40 40" xml:space="preserve">
<g id="Rectangle_1_1_" enable-background="new    ">
	<g id="Rectangle_1">
		<g>
			<rect x="10" y="11" fill="#FFFFFF" width="20" height="18"/>
		</g>
	</g>
</g>
<g id="categories_1_" enable-background="new    ">
	<g id="categories">
		<g>
			<path fill-rule="evenodd" clip-rule="evenodd" fill="#555555" d="M18.333,23h8.333C26.851,23,27,22.776,27,22.5
				S26.851,22,26.666,22h-8.333C18.149,22,18,22.224,18,22.5S18.149,23,18.333,23z M18.333,20h8.333C26.851,20,27,19.776,27,19.5
				S26.851,19,26.666,19h-8.333C18.149,19,18,19.224,18,19.5S18.149,20,18.333,20z M19,17h7c0.553,0,1-0.447,1-1v-1
				c0-0.553-0.447-1-1-1h-7c-0.552,0-1,0.447-1,1v1C18,16.553,18.448,17,19,17z M14,17h1c0.552,0,1-0.447,1-1v-1
				c0-0.553-0.448-1-1-1h-1c-0.552,0-1,0.447-1,1v1C13,16.553,13.448,17,14,17z M29,10H11c-1.104,0-2,0.896-2,2v16
				c0,1.104,0.896,2,2,2h18c1.104,0,2-0.896,2-2V12C31,10.896,30.104,10,29,10z M29,28H11V12h18V28z M18.333,26h8.333
				C26.851,26,27,25.776,27,25.5S26.851,25,26.666,25h-8.333C18.149,25,18,25.224,18,25.5S18.149,26,18.333,26z"/>
		</g>
	</g>
</g>
</svg>
