<?xml version="1.0" encoding="utf-8"?>
<!-- Generator: Adobe Illustrator 16.0.0, SVG Export Plug-In . SVG Version: 6.00 Build 0)  -->
<!DOCTYPE svg PUBLIC "-//W3C//DTD SVG 1.1//EN" "http://www.w3.org/Graphics/SVG/1.1/DTD/svg11.dtd">
<svg version="1.1" xmlns="http://www.w3.org/2000/svg" xmlns:xlink="http://www.w3.org/1999/xlink" x="0px" y="0px" width="40px"
	 height="40px" viewBox="0 0 40 40" enable-background="new 0 0 40 40" xml:space="preserve">
<g id="O_1_" opacity="0.502" enable-background="new    ">
	<g id="O">
		<g>
			<circle fill="#555555" cx="20" cy="20" r="16"/>
		</g>
	</g>
</g>
<g id="_x39__1_" enable-background="new    ">
	<g id="_x39_">
		<g>
			<path fill="#FFFFFF" d="M19.893,12.988c-2.926,0-4.883,1.558-4.883,4.529c0,2.931,1.695,4.386,4.58,4.386
				c0.968,0,2.542-0.492,2.542-0.472c0,1.681-0.848,2.89-2.684,2.89c-1.695,0-3.753-0.308-3.753-0.308l-0.242,2.541
				c0,0,2.3,0.451,3.995,0.451c3.41,0,5.549-1.722,5.549-7.091C24.998,15.284,23.404,12.988,19.893,12.988z M19.833,19.321
				c-1.231,0-1.957-0.554-1.957-1.804s0.787-1.864,2.018-1.864c1.553,0,2.259,1.434,2.259,3.258
				C22.152,18.911,20.922,19.321,19.833,19.321z"/>
		</g>
	</g>
</g>
</svg>
