<?xml version="1.0" encoding="utf-8"?>
<!-- Generator: Adobe Illustrator 16.0.0, SVG Export Plug-In . SVG Version: 6.00 Build 0)  -->
<!DOCTYPE svg PUBLIC "-//W3C//DTD SVG 1.1//EN" "http://www.w3.org/Graphics/SVG/1.1/DTD/svg11.dtd">
<svg version="1.1" xmlns="http://www.w3.org/2000/svg" xmlns:xlink="http://www.w3.org/1999/xlink" x="0px" y="0px" width="40px"
	 height="40px" viewBox="0 0 40 40" enable-background="new 0 0 40 40" xml:space="preserve">
<g id="O_1_" opacity="0.502" enable-background="new    ">
	<g id="O">
		<g>
			<circle fill="#555555" cx="20" cy="20" r="16"/>
		</g>
	</g>
</g>
<g id="_x38__1_" enable-background="new    ">
	<g id="_x38_">
		<g>
			<path fill="#FFFFFF" d="M23.379,19.792c1.133-0.942,1.432-1.475,1.432-3.094c0-2.378-2.008-3.71-4.831-3.71
				c-2.862,0-4.751,1.353-4.751,3.689c0,1.435,0.298,2.172,1.432,3.114c-1.054,0.902-1.65,1.66-1.65,3.525
				c0,2.849,2.206,3.688,4.969,3.688s5.03-1.065,5.03-3.914C25.01,21.391,24.433,20.694,23.379,19.792z M20.02,15.693
				c1.213,0,1.85,0.41,1.85,1.435c0,0.656-0.339,1.107-0.975,1.558h-1.75c-0.636-0.45-0.974-0.901-0.974-1.558
				C18.171,16.104,18.827,15.693,20.02,15.693z M19.98,24.301c-1.352,0-2.027-0.594-2.027-1.64c0-0.655,0.377-1.168,1.192-1.496
				h1.75c0.775,0.308,1.173,0.841,1.173,1.496C22.067,23.707,21.332,24.301,19.98,24.301z"/>
		</g>
	</g>
</g>
</svg>
