<?xml version="1.0" encoding="utf-8"?>
<!-- Generator: Adobe Illustrator 16.0.0, SVG Export Plug-In . SVG Version: 6.00 Build 0)  -->
<!DOCTYPE svg PUBLIC "-//W3C//DTD SVG 1.1//EN" "http://www.w3.org/Graphics/SVG/1.1/DTD/svg11.dtd">
<svg version="1.1" xmlns="http://www.w3.org/2000/svg" xmlns:xlink="http://www.w3.org/1999/xlink" x="0px" y="0px" width="40px"
	 height="40px" viewBox="0 0 40 40" enable-background="new 0 0 40 40" xml:space="preserve">
<g id="O_1_" opacity="0.502" enable-background="new    ">
	<g id="O">
		<g>
			<circle fill="#555555" cx="20" cy="20" r="16"/>
		</g>
	</g>
</g>
<g id="_x35__1_" enable-background="new    ">
	<g id="_x35_">
		<g>
			<path fill="#FFFFFF" d="M20.232,17.995c-0.695,0-2.087,0.375-2.087,0.375l0.348-2.622h6.067v-2.747h-8.763l-0.479,7.513
				l2.305,0.479c0,0,0.979-0.313,2.283-0.313c1.24,0,2,0.583,2,1.769c0,1.104-0.782,1.811-1.935,1.811
				c-1.805,0-4.653-0.499-4.653-0.499l-0.326,2.56c0,0,2.849,0.687,5.087,0.687c3.132,0,4.914-1.728,4.914-4.724
				C24.994,19.285,23.364,17.995,20.232,17.995z"/>
		</g>
	</g>
</g>
</svg>
