<?xml version="1.0" encoding="utf-8"?>
<!-- Generator: Adobe Illustrator 16.0.0, SVG Export Plug-In . SVG Version: 6.00 Build 0)  -->
<!DOCTYPE svg PUBLIC "-//W3C//DTD SVG 1.1//EN" "http://www.w3.org/Graphics/SVG/1.1/DTD/svg11.dtd">
<svg version="1.1" xmlns="http://www.w3.org/2000/svg" xmlns:xlink="http://www.w3.org/1999/xlink" x="0px" y="0px" width="40px"
	 height="40px" viewBox="0 0 40 40" enable-background="new 0 0 40 40" xml:space="preserve">
<g id="O_1_" opacity="0.502" enable-background="new    ">
	<g id="O">
		<g>
			<circle fill="#555555" cx="20" cy="20" r="16"/>
		</g>
	</g>
</g>
<g id="_x36__1_" enable-background="new    ">
	<g id="_x36_">
		<g>
			<path fill="#FFFFFF" d="M20.408,18.092c-0.968,0-2.542,0.532-2.542,0.512c0-1.864,0.848-2.89,2.684-2.89
				c1.694,0,3.753,0.308,3.753,0.308l0.242-2.582c0,0-2.301-0.451-3.995-0.451c-3.41,0-5.548,1.701-5.548,7.07
				c0,4.488,1.553,6.947,5.104,6.947c3.007,0,4.883-1.476,4.883-4.529C24.988,19.424,23.415,18.092,20.408,18.092z M20.105,24.342
				c-1.694,0-2.259-1.517-2.259-3.3c0,0,1.231-0.307,2.32-0.368c1.252,0,1.957,0.532,1.957,1.803
				C22.123,23.788,21.397,24.342,20.105,24.342z"/>
		</g>
	</g>
</g>
</svg>
