<?xml version="1.0" encoding="utf-8"?>
<!-- Generator: Adobe Illustrator 16.0.0, SVG Export Plug-In . SVG Version: 6.00 Build 0)  -->
<!DOCTYPE svg PUBLIC "-//W3C//DTD SVG 1.1//EN" "http://www.w3.org/Graphics/SVG/1.1/DTD/svg11.dtd">
<svg version="1.1" xmlns="http://www.w3.org/2000/svg" xmlns:xlink="http://www.w3.org/1999/xlink" x="0px" y="0px" width="40px"
	 height="40px" viewBox="0 0 40 40" enable-background="new 0 0 40 40" xml:space="preserve">
<g id="O_1_" opacity="0.502" enable-background="new    ">
	<g id="O">
		<g>
			<circle fill="#555555" cx="20" cy="20" r="16"/>
		</g>
	</g>
</g>
<g id="_x33__1_" enable-background="new    ">
	<g id="_x33_">
		<g>
			<path fill="#FFFFFF" d="M23.201,19.629c0.967-0.656,1.552-1.435,1.552-2.91c0-2.521-1.149-3.73-4.656-3.73
				c-1.612,0-3.93,0.533-3.93,0.533l0.242,2.479c0,0,1.915-0.267,3.487-0.267c1.169,0,1.996,0.369,1.996,1.435
				c0,0.677-0.786,1.578-1.693,1.578h-2.681v2.562h2.681c1.149,0,1.936,0.431,1.936,1.435c0,1.045-0.705,1.517-2.076,1.517
				c-1.532,0-3.79-0.287-3.79-0.287l-0.262,2.541c0,0,2.479,0.492,4.454,0.492c3.246,0,4.535-1.476,4.535-4.324
				C24.994,20.858,24.31,20.243,23.201,19.629z"/>
		</g>
	</g>
</g>
</svg>
