<?xml version="1.0" encoding="utf-8"?>
<!-- Generator: Adobe Illustrator 16.0.0, SVG Export Plug-In . SVG Version: 6.00 Build 0)  -->
<!DOCTYPE svg PUBLIC "-//W3C//DTD SVG 1.1//EN" "http://www.w3.org/Graphics/SVG/1.1/DTD/svg11.dtd">
<svg version="1.1" xmlns="http://www.w3.org/2000/svg" xmlns:xlink="http://www.w3.org/1999/xlink" x="0px" y="0px" width="40px"
	 height="40px" viewBox="0 0 40 40" enable-background="new 0 0 40 40" xml:space="preserve">
<g id="white_1_" enable-background="new    ">
	<g id="white">
		<g>
			<polygon fill-rule="evenodd" clip-rule="evenodd" fill="#FFFFFF" points="31,16 31,12 29,12 29,10 11,10 11,12 10,12 10,29 
				11,29 11,30 29,30 29,28 31,28 31,24 29,24 29,22 31,22 31,18 29,18 29,16 			"/>
		</g>
	</g>
</g>
<g id="clients_1_" enable-background="new    ">
	<g id="clients">
		<g>
			<path fill="#555555" d="M22.5,23.011c1.498,0,1.497-0.001,1.497-1.715c0-1.799,0-1.45,0-2.571c0-1.714,0.001-1.715-1.497-1.715
				s-1.497,0.001-1.497,1.715c0,1.121,0,0.772,0,2.571C21.003,23.01,21.002,23.011,22.5,23.011z M32,15.989v-4h-1.996v-1.772
				c0-0.59-0.33-1.228-1.004-1.228H9.964L10,10L9.251,9.989c-0.693,0-1.255,0.57-1.255,1.273l0,18.508
				c0,0.675,0.543,1.223,1.213,1.223h19.574c0.674,0,1.221-0.537,1.221-1.199c0,0,0-0.688,0-1.805H32v-4h-1.996v-2H32v-4h-1.996v-2
				H32z M11,29h-1V12h1V29z M28,28.989h-5v0.006l-1,1h-4l-1-1v-0.006h-5v-18h16V28.989z M31,24.989v2h-2v-2H31z M31,18.989v2h-2v-2
				H31z M29,14.989v-2h2v2H29z M17.5,23.011c1.499,0,1.497-0.001,1.497-1.715c0-1.799,0-1.45,0-2.571
				c0-1.714,0.001-1.715-1.497-1.715s-1.497,0.001-1.497,1.715c0,1.121,0,0.772,0,2.571C16.003,23.01,16.001,23.011,17.5,23.011z"/>
		</g>
	</g>
</g>
</svg>
