<?xml version="1.0" encoding="utf-8"?>
<!-- Generator: Adobe Illustrator 16.0.0, SVG Export Plug-In . SVG Version: 6.00 Build 0)  -->
<!DOCTYPE svg PUBLIC "-//W3C//DTD SVG 1.1//EN" "http://www.w3.org/Graphics/SVG/1.1/DTD/svg11.dtd">
<svg version="1.1" xmlns="http://www.w3.org/2000/svg" xmlns:xlink="http://www.w3.org/1999/xlink" x="0px" y="0px" width="40px"
	 height="40px" viewBox="0 0 40 40" enable-background="new 0 0 40 40" xml:space="preserve">
<g id="clients_3_" opacity="0.102" enable-background="new    ">
	<g id="clients">
		<g>
			<path d="M32,17.989v-4h-1.996c0-1.009,0-1.671,0-1.772c0-0.59-0.33-1.228-1.004-1.228H9.964L10,12l-0.749-0.011
				c-0.693,0-1.255,0.57-1.255,1.273l0,18.508c0,0.675,0.543,1.223,1.213,1.223h19.574c0.674,0,1.221-0.537,1.221-1.199
				c0,0,0-0.688,0-1.805H32v-4h-1.996c0-0.645,0-1.313,0-2H32v-4h-1.996c0-0.685,0-1.356,0-2H32z M11,31h-1V14h1V31z M28,30.989h-5
				v0.006l-1,1h-4l-1-1v-0.006h-5v-18h16V30.989z M31,26.989v2h-2v-2H31z M31,20.989v2h-2v-2H31z M29,16.989v-2h2v2H29z
				 M22.5,25.011c1.498,0,1.497-0.001,1.497-1.715c0-1.799,0-1.45,0-2.571c0-1.714,0.001-1.715-1.497-1.715
				s-1.497,0.001-1.497,1.715c0,1.121,0,0.772,0,2.571C21.003,25.01,21.002,25.011,22.5,25.011z M17.5,25.011
				c1.499,0,1.497-0.001,1.497-1.715c0-1.799,0-1.45,0-2.571c0-1.714,0.001-1.715-1.497-1.715s-1.497,0.001-1.497,1.715
				c0,1.121,0,0.772,0,2.571C16.003,25.01,16.001,25.011,17.5,25.011z"/>
		</g>
	</g>
</g>
<g id="clients_2_" enable-background="new    ">
	<g id="clients_1_">
		<g>
			<path fill="#FFFFFF" d="M22.5,23.011c1.498,0,1.497-0.001,1.497-1.715c0-1.799,0-1.45,0-2.571c0-1.714,0.001-1.715-1.497-1.715
				s-1.497,0.001-1.497,1.715c0,1.121,0,0.772,0,2.571C21.003,23.01,21.002,23.011,22.5,23.011z M17.5,23.011
				c1.499,0,1.497-0.001,1.497-1.715c0-1.799,0-1.45,0-2.571c0-1.714,0.001-1.715-1.497-1.715s-1.497,0.001-1.497,1.715
				c0,1.121,0,0.772,0,2.571C16.003,23.01,16.001,23.011,17.5,23.011z M32,15.989v-4h-1.996v-1.772c0-0.59-0.33-1.228-1.004-1.228
				H9.964L10,10L9.251,9.989c-0.693,0-1.255,0.57-1.255,1.273l0,18.508c0,0.675,0.543,1.223,1.213,1.223h19.574
				c0.674,0,1.221-0.537,1.221-1.199c0,0,0-0.688,0-1.805H32v-4h-1.996v-2H32v-4h-1.996v-2H32z M11,29h-1V12h1V29z M28,28.989h-5
				v0.006l-1,1h-4l-1-1v-0.006h-5v-18h16V28.989z M31,24.989v2h-2v-2H31z M31,18.989v2h-2v-2H31z M29,14.989v-2h2v2H29z"/>
		</g>
	</g>
</g>
</svg>
