<?xml version="1.0" encoding="utf-8"?>
<!-- Generator: Adobe Illustrator 16.0.0, SVG Export Plug-In . SVG Version: 6.00 Build 0)  -->
<!DOCTYPE svg PUBLIC "-//W3C//DTD SVG 1.1//EN" "http://www.w3.org/Graphics/SVG/1.1/DTD/svg11.dtd">
<svg version="1.1" id="linkedin_1_" xmlns="http://www.w3.org/2000/svg" xmlns:xlink="http://www.w3.org/1999/xlink" x="0px"
	 y="0px" width="40px" height="40px" viewBox="0 0 40 40" enable-background="new 0 0 40 40" xml:space="preserve">
<g id="linkedin">
	<g>
		<path fill-rule="evenodd" clip-rule="evenodd" fill="#007BB6" d="M11.01,26.99h4.002V16.007H11.01V26.99z M25.395,15.457
			c-1.621,0-2.43,0.59-3.459,1.896v-1.382h-3.924v11.001h3.979v-6.04c0-1.274,0.521-2.52,1.986-2.52s2.062,1.245,2.062,2.49v6.069
			H30v-6.318C30,16.266,27.016,15.457,25.395,15.457z M13.009,10.335c-1.335,0-2.416,0.975-2.416,2.172
			c0,1.198,1.081,2.17,2.416,2.17c1.334,0,2.415-0.972,2.415-2.17C15.424,11.31,14.343,10.335,13.009,10.335z"/>
	</g>
</g>
</svg>
