<?xml version="1.0" encoding="utf-8"?>
<!-- Generator: Adobe Illustrator 16.0.0, SVG Export Plug-In . SVG Version: 6.00 Build 0)  -->
<!DOCTYPE svg PUBLIC "-//W3C//DTD SVG 1.1//EN" "http://www.w3.org/Graphics/SVG/1.1/DTD/svg11.dtd">
<svg version="1.1" id="Shape_1_1_" xmlns="http://www.w3.org/2000/svg" xmlns:xlink="http://www.w3.org/1999/xlink" x="0px" y="0px"
	 width="40px" height="40px" viewBox="0 0 40 40" enable-background="new 0 0 40 40" xml:space="preserve">
<g id="Shape_1">
	<g>
		<path fill-rule="evenodd" clip-rule="evenodd" fill="#DF5138" d="M29.01,13.993v-3.989h-0.998v3.989h-3.988v0.997h3.988v3.989
			h0.998V14.99h3.988v-0.997H29.01z M22.807,10.004c0,0-4.608,0-6.144,0c-2.754,0-5.347,2.103-5.347,4.539
			c0,2.489,1.877,4.498,4.68,4.498c0.195,0,0.384-0.004,0.57-0.018c-0.182,0.352-0.312,0.746-0.312,1.156
			c0,0.692,0.369,1.253,0.836,1.711c-0.353,0-0.693,0.011-1.065,0.011c-3.412,0-6.037,2.189-6.037,4.46
			c0,2.236,2.878,3.636,6.29,3.636c3.889,0,6.037-2.225,6.037-4.461c0-1.793-0.524-2.867-2.147-4.024
			c-0.555-0.396-1.617-1.359-1.617-1.926c0-0.663,0.188-0.99,1.179-1.771c1.016-0.801,1.736-1.925,1.736-3.233
			c0-1.558-0.689-3.076-1.981-3.577h1.948L22.807,10.004z M20.66,25.15c0.049,0.207,0.076,0.421,0.076,0.639
			c0,1.807-1.156,3.219-4.471,3.219c-2.358,0-4.061-1.504-4.061-3.312c0-1.771,2.112-3.245,4.471-3.22
			c0.55,0.006,1.063,0.096,1.528,0.247C19.483,23.621,20.401,24.128,20.66,25.15z M16.885,18.41
			c-1.583-0.048-3.087-1.785-3.36-3.879c-0.273-2.096,0.788-3.699,2.371-3.651c1.582,0.048,3.087,1.729,3.36,3.823
			C19.529,16.799,18.467,18.458,16.885,18.41z"/>
	</g>
</g>
</svg>
