<?xml version="1.0" encoding="utf-8"?>
<!-- Generator: Adobe Illustrator 16.0.0, SVG Export Plug-In . SVG Version: 6.00 Build 0)  -->
<!DOCTYPE svg PUBLIC "-//W3C//DTD SVG 1.1//EN" "http://www.w3.org/Graphics/SVG/1.1/DTD/svg11.dtd">
<svg version="1.1" xmlns="http://www.w3.org/2000/svg" xmlns:xlink="http://www.w3.org/1999/xlink" x="0px" y="0px" width="40px"
	 height="40px" viewBox="0 0 40 40" enable-background="new 0 0 40 40" xml:space="preserve">
<g id="contact_x5F_b_3_" opacity="0.102" enable-background="new    ">
	<g id="contact_x5F_b">
		<g>
			<path fill-rule="evenodd" clip-rule="evenodd" d="M29.938,20.796c0,0,0.002,0.005,0.004,0.01c0,0,0,0.001,0.001,0.002
				C29.941,20.804,29.939,20.8,29.938,20.796z M30.005,21.053c-0.009-0.061-0.022-0.122-0.04-0.183l-0.023-0.037l-0.003-0.017
				l0.007-0.001c-0.001-0.001-0.002-0.006-0.004-0.01c-0.018-0.05-0.039-0.096-0.064-0.14l-0.021-0.04
				c-0.027-0.046-0.06-0.092-0.092-0.134l-0.002,0.001c-0.031-0.042-0.064-0.081-0.103-0.116c-0.028-0.029-0.06-0.057-0.092-0.083
				c-0.008-0.006-8.662-6.985-8.662-6.985c-0.249-0.201-0.571-0.313-0.905-0.313c-0.335,0-0.657,0.112-0.902,0.312l-8.646,6.972
				c-0.04,0.03-0.077,0.063-0.111,0.098c-0.038,0.036-0.071,0.074-0.103,0.116l-0.001-0.001c-0.033,0.043-0.065,0.089-0.093,0.136
				l-0.021,0.039c-0.004,0.007-0.012,0.021-0.012,0.021c-0.019,0.034-0.034,0.069-0.048,0.106c-0.001,0.004-0.003,0.007-0.004,0.011
				c0,0,0.002-0.005,0.003-0.008l-0.003,0.008l0.004,0.001l-0.008,0.035l-0.021,0.033c-0.018,0.06-0.031,0.119-0.04,0.18
				l-0.003,0.021c-0.005,0.044-0.006,0.082-0.006,0.126v8.585c0,0.2,0.055,0.399,0.159,0.575c0.022,0.038,0.048,0.075,0.077,0.111
				c0.123,0.166,0.291,0.302,0.487,0.395c0.028,0.014,0.057,0.026,0.085,0.037c0.051,0.021,0.105,0.04,0.16,0.054
				c0.062,0.017,0.122,0.028,0.182,0.037c0.068,0.01,0.137,0.014,0.207,0.014h17.316c0.136,0,0.27-0.018,0.408-0.057
				c0.13-0.037,0.253-0.092,0.367-0.162l0.019-0.012c0.353-0.231,0.563-0.603,0.563-0.993V21.21
				C30.016,21.161,30.014,21.116,30.005,21.053z M20,14.995l7.723,6.118l-4.479,3.549l-2.89-2.288c-0.201-0.16-0.506-0.16-0.705,0
				l-2.889,2.288l-4.481-3.551L20,14.995z M12.013,22.162l3.952,3.13l-3.952,3.129V22.162z M12.871,29.001l4.242-3.361L20,23.353
				l2.888,2.287l4.244,3.361H12.871z M27.987,28.419l-3.95-3.129l3.95-3.128V28.419z"/>
		</g>
	</g>
</g>
<g id="contact_x5F_b_2_" enable-background="new    ">
	<g id="contact_x5F_b_1_">
		<g>
			<path fill-rule="evenodd" clip-rule="evenodd" fill="#FFFFFF" d="M29.938,18.796c0,0,0.002,0.005,0.004,0.01
				c0,0,0,0.001,0.001,0.002C29.941,18.804,29.939,18.8,29.938,18.796z M30.005,19.053c-0.009-0.061-0.022-0.122-0.04-0.183
				l-0.023-0.037l-0.003-0.017l0.007-0.001c-0.001-0.001-0.002-0.006-0.004-0.01c-0.018-0.05-0.039-0.096-0.064-0.14l-0.021-0.04
				c-0.027-0.046-0.06-0.092-0.092-0.134l-0.002,0.001c-0.031-0.042-0.064-0.081-0.103-0.116c-0.028-0.029-0.06-0.057-0.092-0.083
				c-0.008-0.006-8.662-6.985-8.662-6.985c-0.249-0.201-0.571-0.313-0.905-0.313c-0.335,0-0.657,0.112-0.902,0.312l-8.646,6.972
				c-0.04,0.03-0.077,0.063-0.111,0.098c-0.038,0.036-0.071,0.074-0.103,0.116l-0.001-0.001c-0.033,0.043-0.065,0.089-0.093,0.136
				l-0.021,0.039c-0.004,0.007-0.012,0.021-0.012,0.021c-0.019,0.034-0.034,0.069-0.048,0.106c-0.001,0.004-0.003,0.007-0.004,0.011
				c0,0,0.002-0.004,0.003-0.008l-0.003,0.008l0.004,0.001l-0.008,0.035l-0.021,0.033c-0.018,0.06-0.031,0.119-0.04,0.18
				l-0.003,0.021c-0.005,0.044-0.006,0.082-0.006,0.126v8.585c0,0.2,0.055,0.399,0.159,0.575c0.022,0.038,0.048,0.075,0.077,0.111
				c0.123,0.166,0.291,0.302,0.487,0.395c0.028,0.014,0.057,0.026,0.085,0.037c0.051,0.021,0.105,0.04,0.16,0.054
				c0.062,0.017,0.122,0.028,0.182,0.037c0.068,0.01,0.137,0.014,0.207,0.014h17.316c0.136,0,0.27-0.018,0.408-0.057
				c0.13-0.037,0.253-0.092,0.367-0.162l0.019-0.012c0.353-0.231,0.563-0.603,0.563-0.993V19.21
				C30.016,19.161,30.014,19.116,30.005,19.053z M20,12.995l7.723,6.118l-4.479,3.549l-2.89-2.288c-0.201-0.16-0.506-0.16-0.705,0
				l-2.889,2.288l-4.481-3.551L20,12.995z M12.013,20.162l3.952,3.13l-3.952,3.129V20.162z M12.871,27.001l4.242-3.361L20,21.353
				l2.888,2.287l4.244,3.361H12.871z M27.987,26.419l-3.95-3.129l3.95-3.128V26.419z"/>
		</g>
	</g>
</g>
</svg>
