<?xml version="1.0" encoding="utf-8"?>
<!-- Generator: Adobe Illustrator 16.0.0, SVG Export Plug-In . SVG Version: 6.00 Build 0)  -->
<!DOCTYPE svg PUBLIC "-//W3C//DTD SVG 1.1//EN" "http://www.w3.org/Graphics/SVG/1.1/DTD/svg11.dtd">
<svg version="1.1" xmlns="http://www.w3.org/2000/svg" xmlns:xlink="http://www.w3.org/1999/xlink" x="0px" y="0px" width="40px"
	 height="40px" viewBox="0 0 40 40" enable-background="new 0 0 40 40" xml:space="preserve">
<g id="white_1_" enable-background="new    ">
	<g id="white">
		<g>
			<polygon fill="#FFFFFF" points="20,10 9,19 9,30 31,30 31,19 			"/>
		</g>
	</g>
</g>
<g id="contact_x5F_us_1_" enable-background="new    ">
	<g id="contact_x5F_us">
		<g>
			<path fill-rule="evenodd" clip-rule="evenodd" fill="#555555" d="M31.908,18.49c0,0,0.002,0.005,0.004,0.011
				c0,0.001,0.001,0.002,0.002,0.003C31.912,18.499,31.91,18.495,31.908,18.49z M8.087,18.501c0.001-0.004,0.004-0.008,0.005-0.012
				l0.001-0.004C8.092,18.491,8.087,18.501,8.087,18.501z M31.989,18.802c-0.011-0.074-0.027-0.147-0.05-0.222l-0.025-0.046
				l-0.005-0.02l0.008-0.002c-0.001,0-0.003-0.006-0.005-0.012c-0.021-0.06-0.046-0.116-0.077-0.169l-0.025-0.05
				c-0.033-0.056-0.071-0.111-0.11-0.162l-0.002,0.001c-0.037-0.052-0.078-0.099-0.123-0.142c-0.034-0.035-0.071-0.069-0.109-0.101
				c-0.01-0.008-10.381-8.499-10.381-8.499C20.786,9.135,20.4,9,20,9c-0.402,0-0.788,0.136-1.081,0.379l-10.36,8.482
				c-0.048,0.036-0.092,0.076-0.134,0.119c-0.045,0.044-0.085,0.09-0.123,0.141L8.301,18.12c-0.04,0.052-0.078,0.108-0.112,0.165
				l-0.024,0.047C8.16,18.341,8.15,18.358,8.15,18.358c-0.022,0.041-0.041,0.085-0.057,0.131l-0.005,0.012l0.004,0.001l-0.009,0.044
				l-0.024,0.039c-0.021,0.073-0.038,0.146-0.048,0.22L8.007,18.83C8.001,18.884,8,18.931,8,18.984v10.527
				c0,0.244,0.066,0.486,0.191,0.7c0.027,0.047,0.058,0.092,0.092,0.136c0.147,0.201,0.348,0.366,0.583,0.48
				c0.034,0.017,0.068,0.031,0.103,0.045c0.061,0.025,0.125,0.048,0.192,0.064c0.073,0.021,0.146,0.035,0.217,0.045
				C9.459,30.994,9.542,31,9.625,31h20.75c0.163,0,0.324-0.022,0.49-0.068c0.154-0.046,0.303-0.112,0.438-0.198l0.022-0.014
				C31.748,30.438,32,29.986,32,29.512V18.993C32.001,18.934,31.999,18.88,31.989,18.802z M20,11.044l9.678,7.851l-5.613,4.554
				l-3.621-2.937c-0.252-0.205-0.634-0.205-0.884,0l-3.621,2.937l-5.616-4.557L20,11.044z M9.992,20.24l4.953,4.017l-4.953,4.015
				V20.24z M11.066,29.015l5.316-4.313L20,21.768l3.619,2.935l5.318,4.313H11.066z M30.009,28.269l-4.95-4.015l4.95-4.014V28.269z"
				/>
		</g>
	</g>
</g>
</svg>
