<svg xmlns="http://www.w3.org/2000/svg" width="40" height="40" viewBox="0 0 40 40">
  <defs>
    <style>
      .cls-1 {
        fill: #555;
        fill-rule: evenodd;
      }
    </style>
  </defs>
  <path id="youtube" class="cls-1" d="M33.993,19.033v1.933q0,1.293-.15,2.861-0.067.776-.133,1.293l-0.05.289a7.074,7.074,0,0,1-.2.685,3.483,3.483,0,0,1-.865,1.567,3.823,3.823,0,0,1-1.6.9,3.544,3.544,0,0,1-.682.122q-0.383.045-.532,0.061-2.445.167-6.369,0.228L20.971,29H19.99q-1.812-.015-3.908-0.046-4.207-.076-5.6-0.2-0.034-.015-0.6-0.076Q9.43,28.62,9.1,28.544a3.69,3.69,0,0,1-1.713-.883,3.709,3.709,0,0,1-.865-1.567,4.816,4.816,0,0,1-.183-0.685L6.27,25.12Q6.2,24.6,6.137,23.827,6,22.259,6,20.966V19.033q0-1.293.133-2.846L6.27,14.894a9.571,9.571,0,0,1,.249-0.989,3.7,3.7,0,0,1,.865-1.552,3.74,3.74,0,0,1,1.6-.913,5.95,5.95,0,0,1,.7-0.122q0.2-.03.516-0.061,2.445-.152,6.369-0.213Q18.51,11,19.99,11l0.981,0.015q1.231,0,2.461.03,3.908,0.061,6.353.213c0.1,0.01.277,0.031,0.532,0.061A6.072,6.072,0,0,1,31,11.44a3.738,3.738,0,0,1,1.6.913,3.48,3.48,0,0,1,.865,1.552,5.953,5.953,0,0,1,.249.989l0.133,1.293Q33.993,17.74,33.993,19.033Zm-1.866.193v1.546A22.421,22.421,0,0,1,32,23.061q-0.058.621-.115,1.035l-0.043.231a5.313,5.313,0,0,1-.173.548,2.739,2.739,0,0,1-.749,1.254,3.4,3.4,0,0,1-1.384.718,3.3,3.3,0,0,1-.591.1q-0.332.036-.461,0.049-2.119.134-5.52,0.182l-2.119.024H19.991q-1.571-.012-3.387-0.037-3.646-.061-4.857-0.158-0.029-.012-0.519-0.061-0.389-.049-0.677-0.11a3.3,3.3,0,0,1-1.485-.706,2.916,2.916,0,0,1-.749-1.254,3.614,3.614,0,0,1-.159-0.548L8.1,24.1q-0.057-.414-0.115-1.035Q7.87,21.807,7.87,20.773V19.227q0-1.035.115-2.277L8.1,15.915a7.175,7.175,0,0,1,.216-0.791,2.915,2.915,0,0,1,.749-1.242,3.317,3.317,0,0,1,1.384-.73,5.559,5.559,0,0,1,.605-0.1q0.173-.024.447-0.049,2.119-.122,5.52-0.171,1.686-.037,2.969-0.036l0.851,0.012q1.067,0,2.133.024,3.387,0.049,5.506.171,0.13,0.012.461,0.049a5.669,5.669,0,0,1,.591.1,3.314,3.314,0,0,1,1.384.73,2.738,2.738,0,0,1,.749,1.242,4.458,4.458,0,0,1,.216.791L32,16.95A22.075,22.075,0,0,1,32.127,19.227ZM16.994,24L25,20.008,16.994,16v8h0Z"/>
</svg>
