<?xml version="1.0" encoding="utf-8"?>
<!-- Generator: Adobe Illustrator 16.0.0, SVG Export Plug-In . SVG Version: 6.00 Build 0)  -->
<!DOCTYPE svg PUBLIC "-//W3C//DTD SVG 1.1//EN" "http://www.w3.org/Graphics/SVG/1.1/DTD/svg11.dtd">
<svg version="1.1" xmlns="http://www.w3.org/2000/svg" xmlns:xlink="http://www.w3.org/1999/xlink" x="0px" y="0px" width="40px"
	 height="40px" viewBox="0 0 40 40" enable-background="new 0 0 40 40" xml:space="preserve">
<g id="white_1_" enable-background="new    ">
	<g id="white">
		<g>
			<rect x="10" y="12" fill="#FFFFFF" width="20" height="16"/>
		</g>
	</g>
</g>
<g id="developers_1_" enable-background="new    ">
	<g id="developers">
		<g>
			<path fill-rule="evenodd" clip-rule="evenodd" fill="#555555" d="M17.5,23c1.499,0,1.497-0.001,1.497-1.714
				c0-1.8,0-1.451,0-2.572c0-1.713,0.001-1.714-1.497-1.714s-1.497,0.001-1.497,1.714c0,1.121,0,0.772,0,2.572
				C16.003,22.999,16.001,23,17.5,23z M22.5,23c1.498,0,1.497-0.001,1.497-1.714c0-1.8,0-1.451,0-2.572
				c0-1.713,0.001-1.714-1.497-1.714s-1.497,0.001-1.497,1.714c0,1.121,0,0.772,0,2.572C21.003,22.999,21.002,23,22.5,23z M31,27V13
				c0-1.104-0.896-2-2-2H11c-1.104,0-2,0.896-2,2v14l-3,1v2h28v-2L31,27z M22,28.011h-4l-1-1h6L22,28.011z M29,27H11V13h18V27z"/>
		</g>
	</g>
</g>
</svg>
