<?xml version="1.0" encoding="utf-8"?>
<!-- Generator: Adobe Illustrator 16.0.0, SVG Export Plug-In . SVG Version: 6.00 Build 0)  -->
<!DOCTYPE svg PUBLIC "-//W3C//DTD SVG 1.1//EN" "http://www.w3.org/Graphics/SVG/1.1/DTD/svg11.dtd">
<svg version="1.1" xmlns="http://www.w3.org/2000/svg" xmlns:xlink="http://www.w3.org/1999/xlink" x="0px" y="0px" width="40px"
	 height="40px" viewBox="0 0 40 40" enable-background="new 0 0 40 40" xml:space="preserve">
<g id="done_3_" opacity="0.102" enable-background="new    ">
	<g id="done">
		<g>
			<path fill-rule="evenodd" clip-rule="evenodd" d="M29.719,16.625l-1.342-1.344c-0.371-0.37-0.965-0.378-1.326-0.017l-9.049,9.054
				l-4.047-4.054c-0.362-0.361-0.956-0.354-1.328,0.018l-1.344,1.344c-0.371,0.37-0.378,0.965-0.017,1.326l5.774,5.784
				c0.172,0.172,0.397,0.254,0.625,0.26V29h0.021c0.009,0,0.018,0,0.027,0h0.57c0.01,0,0.019,0,0.028,0h0.021v-0.004
				c0.228-0.006,0.452-0.088,0.624-0.26l10.778-10.785C30.098,17.59,30.09,16.996,29.719,16.625z"/>
		</g>
	</g>
</g>
<g id="done_2_" enable-background="new    ">
	<g id="done_1_">
		<g>
			<path fill-rule="evenodd" clip-rule="evenodd" fill="#FFFFFF" d="M29.719,14.625l-1.342-1.344
				c-0.371-0.37-0.965-0.378-1.326-0.017l-9.049,9.054l-4.047-4.054c-0.362-0.361-0.956-0.354-1.328,0.018l-1.344,1.344
				c-0.371,0.37-0.378,0.965-0.017,1.326l5.774,5.784c0.172,0.172,0.397,0.254,0.625,0.26V27h0.021c0.009,0,0.018,0,0.027,0h0.57
				c0.01,0,0.019,0,0.028,0h0.021v-0.004c0.228-0.006,0.452-0.088,0.624-0.26l10.778-10.785
				C30.098,15.59,30.09,14.996,29.719,14.625z"/>
		</g>
	</g>
</g>
</svg>
