<?xml version="1.0" encoding="utf-8"?>
<!-- Generator: Adobe Illustrator 16.0.0, SVG Export Plug-In . SVG Version: 6.00 Build 0)  -->
<!DOCTYPE svg PUBLIC "-//W3C//DTD SVG 1.1//EN" "http://www.w3.org/Graphics/SVG/1.1/DTD/svg11.dtd">
<svg version="1.1" xmlns="http://www.w3.org/2000/svg" xmlns:xlink="http://www.w3.org/1999/xlink" x="0px" y="0px" width="40px"
	 height="40px" viewBox="0 0 40 40" enable-background="new 0 0 40 40" xml:space="preserve">
<g id="download_3_" opacity="0.102" enable-background="new    ">
	<g id="download">
		<g>
			<path fill-rule="evenodd" clip-rule="evenodd" d="M20,12c-5.523,0-10,4.478-10,10s4.477,10,10,10c5.522,0,10-4.478,10-10
				S25.522,12,20,12z M20,30.004c-4.42,0-8.004-3.584-8.004-8.004c0-4.421,3.583-8.004,8.004-8.004c4.42,0,8.004,3.583,8.004,8.004
				C28.004,26.42,24.42,30.004,20,30.004z M23,22.667c-0.183-0.001-0.541-0.001-1-0.001c0-1.969,0-3.619,0-5.666
				c0-0.983,0.016-1-1-1c-1.106,0-0.893,0-2,0c-1.025,0-1,0.017-1,1c0,2.044,0,3.672,0,5.67c-0.372,0-0.714-0.001-1-0.003
				c-0.856,0-1.276,0.519-0.812,1.053c0.455,0.523,2.128,2.445,2.917,3.339c0.686,0.777,1.096,0.834,1.829,0.011
				c0.588-0.658,2.207-2.55,2.783-3.268C24.284,23.095,23.951,22.667,23,22.667z"/>
		</g>
	</g>
</g>
<g id="download_2_" enable-background="new    ">
	<g id="download_1_">
		<g>
			<path fill-rule="evenodd" clip-rule="evenodd" fill="#FFFFFF" d="M20,10c-5.523,0-10,4.478-10,10s4.477,10,10,10
				c5.522,0,10-4.478,10-10S25.522,10,20,10z M20,28.004c-4.42,0-8.004-3.584-8.004-8.004c0-4.421,3.583-8.004,8.004-8.004
				c4.42,0,8.004,3.583,8.004,8.004C28.004,24.42,24.42,28.004,20,28.004z M23,20.667c-0.183-0.001-0.541-0.001-1-0.001V15
				c0-0.983,0.016-1-1-1c-1.106,0-0.893,0-2,0c-1.025,0-1,0.017-1,1v5.67c-0.372,0-0.714-0.001-1-0.003
				c-0.856,0-1.276,0.519-0.812,1.053c0.455,0.523,2.128,2.445,2.917,3.339c0.686,0.777,1.096,0.834,1.829,0.011
				c0.588-0.658,2.207-2.55,2.783-3.268C24.284,21.095,23.951,20.667,23,20.667z"/>
		</g>
	</g>
</g>
</svg>
