<?xml version="1.0" encoding="utf-8"?>
<!-- Generator: Adobe Illustrator 16.0.0, SVG Export Plug-In . SVG Version: 6.00 Build 0)  -->
<!DOCTYPE svg PUBLIC "-//W3C//DTD SVG 1.1//EN" "http://www.w3.org/Graphics/SVG/1.1/DTD/svg11.dtd">
<svg version="1.1" xmlns="http://www.w3.org/2000/svg" xmlns:xlink="http://www.w3.org/1999/xlink" x="0px" y="0px" width="40px"
	 height="40px" viewBox="0 0 40 40" enable-background="new 0 0 40 40" xml:space="preserve">
<g id="white_1_" enable-background="new    ">
	<g id="white">
		<g>
			<path fill-rule="evenodd" clip-rule="evenodd" fill="#FFFFFF" d="M32.004,4.986c-3.865,0-7,3.134-7,7
				c0,0.005,0.001,0.009,0.001,0.014H10v17h20V18.691c0.636,0.19,1.307,0.295,2.004,0.295c3.866,0,7-3.134,7-7
				S35.87,4.986,32.004,4.986z"/>
		</g>
	</g>
</g>
<g id="edit_1_" enable-background="new    ">
	<g id="edit">
		<g>
			<path fill-rule="evenodd" clip-rule="evenodd" fill="#555555" d="M14,17v1h7.99v-1H14z M14,24h11.99v-1H14V24z M25.99,20H14v1
				h11.99V20z M29,28H11V13h11.051C22.018,12.668,22,12.333,22,11.992c0-0.335,0.018-0.666,0.05-0.992H11c-1.104,0-2,0.896-2,2v15
				c0,1.104,0.896,2,2,2h18c1.104,0,2-0.896,2-2v-6.059c-0.689-0.068-1.358-0.207-2-0.408V28z M32,4.009c-4.418,0-8,3.581-8,8
				c0,4.418,3.582,8,8,8s8-3.582,8-8C40,7.59,36.418,4.009,32,4.009z M30.494,16h-2.49v-2.488l3.513-3.51l2.489,2.488L30.494,16z
				 M35.771,10.7l-0.52,0.521l-2.465-2.526l0.494-0.496c0.311-0.312,0.796-0.312,1.106,0l1.384,1.39
				C36.082,9.9,36.082,10.388,35.771,10.7z"/>
		</g>
	</g>
</g>
</svg>
