<?xml version="1.0" encoding="utf-8"?>
<!-- Generator: Adobe Illustrator 16.0.0, SVG Export Plug-In . SVG Version: 6.00 Build 0)  -->
<!DOCTYPE svg PUBLIC "-//W3C//DTD SVG 1.1//EN" "http://www.w3.org/Graphics/SVG/1.1/DTD/svg11.dtd">
<svg version="1.1" xmlns="http://www.w3.org/2000/svg" xmlns:xlink="http://www.w3.org/1999/xlink" x="0px" y="0px" width="40px"
	 height="40px" viewBox="0 0 40 40" enable-background="new 0 0 40 40" xml:space="preserve">
<g id="info_3_" opacity="0.102" enable-background="new    ">
	<g id="info">
		<g>
			<path fill-rule="evenodd" clip-rule="evenodd" d="M20,12c-5.523,0-10,4.478-10,10s4.477,10,10,10c5.522,0,10-4.478,10-10
				S25.522,12,20,12z M20,30.004c-4.42,0-8.004-3.583-8.004-8.004c0-4.42,3.583-8.004,8.004-8.004c4.42,0,8.004,3.584,8.004,8.004
				C28.004,26.421,24.42,30.004,20,30.004z M20.666,17h-1.333C19.149,17,19,17.168,19,17.375v5.25C19,22.832,19.149,23,19.333,23
				h1.333C20.851,23,21,22.832,21,22.625v-5.25C21,17.168,20.851,17,20.666,17z M20.666,25h-1.333C19.149,25,19,25.168,19,25.375
				v1.25C19,26.832,19.149,27,19.333,27h1.333C20.851,27,21,26.832,21,26.625v-1.25C21,25.168,20.851,25,20.666,25z"/>
		</g>
	</g>
</g>
<g id="info_2_" enable-background="new    ">
	<g id="info_1_">
		<g>
			<path fill-rule="evenodd" clip-rule="evenodd" fill="#FFFFFF" d="M20,10c-5.523,0-10,4.478-10,10s4.477,10,10,10
				c5.522,0,10-4.478,10-10S25.522,10,20,10z M20,28.004c-4.42,0-8.004-3.583-8.004-8.004c0-4.42,3.583-8.004,8.004-8.004
				c4.42,0,8.004,3.584,8.004,8.004C28.004,24.421,24.42,28.004,20,28.004z M20.666,15h-1.333C19.149,15,19,15.168,19,15.375v5.25
				C19,20.832,19.149,21,19.333,21h1.333C20.851,21,21,20.832,21,20.625v-5.25C21,15.168,20.851,15,20.666,15z M20.666,23h-1.333
				C19.149,23,19,23.168,19,23.375v1.25C19,24.832,19.149,25,19.333,25h1.333C20.851,25,21,24.832,21,24.625v-1.25
				C21,23.168,20.851,23,20.666,23z"/>
		</g>
	</g>
</g>
</svg>
