<?xml version="1.0" encoding="utf-8"?>
<!-- Generator: Adobe Illustrator 16.0.3, SVG Export Plug-In . SVG Version: 6.00 Build 0)  -->
<!DOCTYPE svg PUBLIC "-//W3C//DTD SVG 1.1//EN" "http://www.w3.org/Graphics/SVG/1.1/DTD/svg11.dtd">
<svg version="1.1" xmlns="http://www.w3.org/2000/svg" xmlns:xlink="http://www.w3.org/1999/xlink" x="0px" y="0px" width="32px"
	 height="32px" viewBox="0 0 32 32" enable-background="new 0 0 32 32" xml:space="preserve">
<g id="personnel_3_" opacity="0.102" enable-background="new    ">
	<g id="personnel">
		<g>
			<path fill-rule="evenodd" clip-rule="evenodd" d="M25.82,15.293l-0.117-0.063l-0.084,0.102c-0.205,0.249-0.447,0.47-0.72,0.656
				l-0.227,0.156l0.25,0.116c1.679,0.777,2.765,2.792,2.765,4.739c0,0.563-0.208,1.109-1.572,1.425l0.315,1.308
				c2.047-0.487,2.535-1.457,2.535-2.731C28.966,18.67,27.76,16.35,25.82,15.293z M4.359,21c0-1.948,1.085-3.962,2.764-4.74
				l0.25-0.115l-0.227-0.156c-0.271-0.187-0.514-0.408-0.72-0.656l-0.084-0.103l-0.117,0.063C4.286,16.351,3.081,18.67,3.081,21
				c0,1.275,0.488,2.245,2.535,2.731l0.15,0.035l0.327-1.305l-0.163-0.037C4.567,22.109,4.359,21.563,4.359,21z M10.028,15.619
				c0.22-0.039,0.438-0.103,0.649-0.188l0.188-0.077l-0.121-0.162c-0.19-0.255-0.356-0.525-0.494-0.805l-0.062-0.124l-0.169,0.056
				c-0.072,0.023-0.144,0.048-0.22,0.062c-1.041,0.186-2.04-0.497-2.229-1.522c-0.189-1.026,0.504-2.012,1.544-2.197
				c0.202-0.036,0.413-0.035,0.645,0.002l0.138,0.022l0.041-0.132c0.091-0.297,0.212-0.59,0.358-0.871l0.093-0.18l-0.198-0.046
				C9.761,9.354,9.322,9.343,8.888,9.42C7.154,9.73,6,11.373,6.314,13.082S8.295,15.93,10.028,15.619z M21.999,15.61
				c1.731,0.32,3.405-0.808,3.73-2.515c0.326-1.707-0.819-3.357-2.55-3.678c-0.435-0.081-0.873-0.071-1.307,0.027L21.676,9.49
				l0.091,0.18c0.146,0.284,0.265,0.578,0.353,0.873l0.04,0.132l0.138-0.021c0.234-0.036,0.445-0.035,0.646,0.002
				c1.039,0.192,1.726,1.183,1.529,2.207c-0.194,1.024-1.198,1.701-2.238,1.509c-0.079-0.015-0.152-0.04-0.256-0.075l-0.133-0.045
				l-0.063,0.124c-0.139,0.278-0.307,0.548-0.498,0.802l-0.123,0.162l0.189,0.078C21.563,15.505,21.779,15.569,21.999,15.61z
				 M24.807,23.413l-0.251-1.031c-1.346-4.547-4.728-5.729-4.728-5.729s-1.404,0.976-1.854,1.237
				c0.074,0.074,0.977,0.566,0.977,0.566c2.345,1.154,3.875,4.098,3.875,6.921c0,1.021-3.277,2.542-6.803,2.542
				c-4.365,0-6.786-1.558-6.804-2.556c-0.05-2.788,1.46-5.729,3.855-6.907l0.879-0.566c-0.967-0.445-1.737-1.237-1.737-1.237
				s-3.382,1.183-4.727,5.729l-0.247,1.013l-0.008,0.038c-0.12,0.646-0.181,1.299-0.181,1.945c0,3.501,4.831,4.663,8.968,4.663
				c4.137,0,8.968-1.162,8.968-4.663c0-0.646-0.061-1.3-0.181-1.945L24.807,23.413z M16.023,16.797c2.73,0,4.953-2.19,4.953-4.883
				s-2.223-4.883-4.953-4.883c-2.731,0-4.954,2.19-4.954,4.883S13.292,16.797,16.023,16.797z M16.022,9.029
				c1.655,0,3.001,1.327,3.001,2.958c0,1.632-1.346,2.959-3.001,2.959s-3.001-1.327-3.001-2.959
				C13.021,10.356,14.367,9.029,16.022,9.029z"/>
		</g>
	</g>
</g>
<g id="personnel_2_" enable-background="new    ">
	<g id="personnel_1_">
		<g>
			<path fill-rule="evenodd" clip-rule="evenodd" fill="#FFFFFF" d="M25.82,13.293l-0.117-0.063l-0.084,0.102
				c-0.205,0.249-0.447,0.47-0.72,0.656l-0.227,0.156l0.25,0.116c1.679,0.777,2.765,2.792,2.765,4.739
				c0,0.563-0.208,1.109-1.572,1.425l0.315,1.308c2.047-0.487,2.535-1.457,2.535-2.731C28.966,16.67,27.76,14.35,25.82,13.293z
				 M4.359,19c0-1.948,1.085-3.962,2.764-4.74l0.25-0.115l-0.227-0.156c-0.271-0.187-0.514-0.408-0.72-0.656l-0.084-0.103
				l-0.117,0.063C4.286,14.351,3.081,16.67,3.081,19c0,1.275,0.488,2.245,2.535,2.731l0.15,0.035l0.327-1.305l-0.163-0.037
				C4.567,20.109,4.359,19.563,4.359,19z M10.028,13.619c0.22-0.039,0.438-0.103,0.649-0.188l0.188-0.077l-0.121-0.162
				c-0.19-0.255-0.356-0.525-0.494-0.805l-0.062-0.124l-0.169,0.056c-0.072,0.023-0.144,0.048-0.22,0.062
				c-1.041,0.186-2.04-0.497-2.229-1.522C7.383,9.831,8.076,8.846,9.116,8.66c0.202-0.036,0.413-0.035,0.645,0.002l0.138,0.022
				L9.94,8.553c0.091-0.297,0.212-0.59,0.358-0.871l0.093-0.18l-0.198-0.046C9.761,7.354,9.322,7.343,8.888,7.42
				C7.154,7.73,6,9.373,6.314,11.082S8.295,13.93,10.028,13.619z M21.999,13.61c1.731,0.32,3.405-0.808,3.73-2.515
				c0.326-1.707-0.819-3.357-2.55-3.678c-0.435-0.081-0.873-0.071-1.307,0.027L21.676,7.49l0.091,0.18
				c0.146,0.284,0.265,0.578,0.353,0.873l0.04,0.132l0.138-0.021c0.234-0.036,0.445-0.035,0.646,0.002
				c1.039,0.192,1.726,1.183,1.529,2.207c-0.194,1.024-1.198,1.701-2.238,1.509c-0.079-0.015-0.152-0.04-0.256-0.075l-0.133-0.045
				l-0.063,0.124c-0.139,0.278-0.307,0.548-0.498,0.802l-0.123,0.162l0.189,0.078C21.563,13.505,21.779,13.569,21.999,13.61z
				 M24.807,21.413l-0.251-1.031c-1.346-4.547-4.728-5.729-4.728-5.729s-1.404,0.976-1.854,1.237
				c0.074,0.074,0.977,0.566,0.977,0.566c2.345,1.154,3.875,4.098,3.875,6.921c0,1.021-3.277,2.542-6.803,2.542
				c-4.365,0-6.786-1.558-6.804-2.556c-0.05-2.788,1.46-5.729,3.855-6.907l0.879-0.566c-0.967-0.445-1.737-1.237-1.737-1.237
				s-3.382,1.183-4.727,5.729l-0.247,1.013l-0.008,0.038c-0.12,0.646-0.181,1.299-0.181,1.945c0,3.501,4.831,4.663,8.968,4.663
				c4.137,0,8.968-1.162,8.968-4.663c0-0.646-0.061-1.3-0.181-1.945L24.807,21.413z M16.023,14.797c2.73,0,4.953-2.19,4.953-4.883
				s-2.223-4.883-4.953-4.883c-2.731,0-4.954,2.19-4.954,4.883S13.292,14.797,16.023,14.797z M16.022,7.029
				c1.655,0,3.001,1.327,3.001,2.958c0,1.632-1.346,2.959-3.001,2.959s-3.001-1.327-3.001-2.959
				C13.021,8.356,14.367,7.029,16.022,7.029z"/>
		</g>
	</g>
</g>
</svg>
