<?xml version="1.0" encoding="utf-8"?>
<!-- Generator: Adobe Illustrator 16.0.0, SVG Export Plug-In . SVG Version: 6.00 Build 0)  -->
<!DOCTYPE svg PUBLIC "-//W3C//DTD SVG 1.1//EN" "http://www.w3.org/Graphics/SVG/1.1/DTD/svg11.dtd">
<svg version="1.1" xmlns="http://www.w3.org/2000/svg" xmlns:xlink="http://www.w3.org/1999/xlink" x="0px" y="0px" width="40px"
	 height="40px" viewBox="0 0 40 40" enable-background="new 0 0 40 40" xml:space="preserve">
<g id="Rectangle_1_1_" enable-background="new    ">
	<g id="Rectangle_1">
		<g>
			<rect x="10" y="10" fill="#FFFFFF" width="20" height="19"/>
		</g>
	</g>
</g>
<g id="featured_1_" enable-background="new    ">
	<g id="featured">
		<g>
			<path fill-rule="evenodd" clip-rule="evenodd" fill="#555555" d="M29,9H11c-1.104,0-2,0.896-2,2v18c0,1.104,0.896,2,2,2h18
				c1.104,0,2-0.896,2-2V11C31,9.896,30.104,9,29,9z M29,29H11V11h18V29z M15.421,24.563l2.074,1.439l2.446-3.668l2.511,3.532
				l2.076-1.485l-2.406-3.531l3.872-1.29l-0.746-2.424l-3.872,1.29l-0.034-4.394l-2.613-0.032l-0.111,4.262l-3.812-1.221
				l-0.813,2.545l3.947,1.321L15.421,24.563z"/>
		</g>
	</g>
</g>
</svg>
