<?xml version="1.0" encoding="utf-8"?>
<!-- Generator: Adobe Illustrator 16.0.0, SVG Export Plug-In . SVG Version: 6.00 Build 0)  -->
<!DOCTYPE svg PUBLIC "-//W3C//DTD SVG 1.1//EN" "http://www.w3.org/Graphics/SVG/1.1/DTD/svg11.dtd">
<svg version="1.1" xmlns="http://www.w3.org/2000/svg" xmlns:xlink="http://www.w3.org/1999/xlink" x="0px" y="0px" width="40px"
	 height="40px" viewBox="0 0 40 40" enable-background="new 0 0 40 40" xml:space="preserve">
<g id="Rectangle_1_1_" enable-background="new    ">
	<g id="Rectangle_1">
		<g>
			<polygon fill-rule="evenodd" clip-rule="evenodd" fill="#FFFFFF" points="31,11 13,11 13,15 9,15 9,28 13,28 13,31 15,31 20,28 
				27,28 27,24 31,24 			"/>
		</g>
	</g>
</g>
<g id="send_x5F_feedback_1_" enable-background="new    ">
	<g id="send_x5F_feedback">
		<g>
			<path fill-rule="evenodd" clip-rule="evenodd" fill="#555555" d="M12.522,22.003h10.952c0.286,0,0.518-0.228,0.518-0.508
				c0-0.281-0.231-0.509-0.518-0.509H12.522c-0.286,0-0.518,0.228-0.518,0.509C12.005,21.775,12.237,22.003,12.522,22.003z
				 M31.986,11.764c0-0.974-0.766-1.763-1.709-1.763H13.708c-0.943,0-1.708,0.789-1.708,1.763v2.237H9.708
				C8.765,14.001,8,14.79,8,15.764v11.516c0,0.974,0.736,1.699,1.679,1.699h2.325v3.57c0,0.488,0.405,0.602,0.81,0.249
				c0.344-0.3,7.166-3.819,7.166-3.819h6.33c0.943,0,1.68-0.726,1.68-1.699l-0.004-11.516c0-0.974-0.766-1.763-1.709-1.763H14.016
				v-2.028h15.988v11.02c0,0-0.546,0.003-2.004,0.005v1.981h2.311c0.943,0,1.68-0.726,1.68-1.699L31.986,11.764z M26.004,15.973
				v11.02c0,0-1.451,0.008-6.004,0.008c-0.327,0-1.075,0.249-1.742,0.499C17.588,27.749,14,30,14,30s0-0.909,0-1.726
				c0-0.958-0.365-1.276-1.244-1.276c-1.169,0-2.74-0.006-2.74-0.006v-11.02H26.004z M12.522,19.003h10.952
				c0.286,0,0.518-0.228,0.518-0.508c0-0.281-0.231-0.509-0.518-0.509H12.522c-0.286,0-0.518,0.228-0.518,0.509
				C12.005,18.775,12.237,19.003,12.522,19.003z M12.522,25.003h6.952c0.286,0,0.518-0.228,0.518-0.508
				c0-0.281-0.231-0.509-0.518-0.509h-6.952c-0.286,0-0.518,0.228-0.518,0.509C12.005,24.775,12.237,25.003,12.522,25.003z"/>
		</g>
	</g>
</g>
</svg>
