<?xml version="1.0" encoding="utf-8"?>
<!-- Generator: Adobe Illustrator 16.0.0, SVG Export Plug-In . SVG Version: 6.00 Build 0)  -->
<!DOCTYPE svg PUBLIC "-//W3C//DTD SVG 1.1//EN" "http://www.w3.org/Graphics/SVG/1.1/DTD/svg11.dtd">
<svg version="1.1" xmlns="http://www.w3.org/2000/svg" xmlns:xlink="http://www.w3.org/1999/xlink" x="0px" y="0px" width="40px"
	 height="40px" viewBox="0 0 40 40" enable-background="new 0 0 40 40" xml:space="preserve">
<g id="Rectangle_1_1_" enable-background="new    ">
	<g id="Rectangle_1">
		<g>
			<rect x="9" y="9" fill="#FFFFFF" width="22" height="22"/>
		</g>
	</g>
</g>
<g id="help_1_" enable-background="new    ">
	<g id="help">
		<g>
			<path fill-rule="evenodd" clip-rule="evenodd" fill="#555555" d="M20.502,23.969h-1c-0.338,0-0.5,0.119-0.5,0.5v1
				c0,0.419,0.125,0.5,0.5,0.5s0.586-0.001,1,0c0.415,0.002,0.506-0.111,0.5-0.5c-0.005-0.381,0-0.657,0-1
				S20.879,23.969,20.502,23.969z M30,8H10c-1.104,0-2,0.896-2,2v20c0,1.104,0.896,2,2,2h20c1.104,0,2-0.896,2-2V10
				C32,8.896,31.104,8,30,8z M30,30H10V10h20V30z M16.5,18h1.001c0.419,0,0.5-0.135,0.5-0.5v-1c0-0.405,0.12-0.5,0.5-0.5h3.001
				c0.414,0,0.501,0.138,0.501,0.5v3c0,0.443-0.045,0.5-0.501,0.5c-0.455,0-0.424,0.001-1.271,0.001s-1.229,0.394-1.229,1.189v1.242
				c0,0.398,0.156,0.567,0.498,0.567h1c0.466,0,0.5-0.186,0.5-0.5s0.074-0.5,0.501-0.5h1.251c0.756,0,1.248-0.528,1.248-1.259
				v-5.524c0-0.73-0.484-1.219-1.281-1.219h-5.462c-0.798,0-1.261,0.407-1.261,1.219c0,0.811,0,2.224,0,2.224
				C15.998,17.887,16.122,18,16.5,18z"/>
		</g>
	</g>
</g>
</svg>
