<?xml version="1.0" encoding="utf-8"?>
<!-- Generator: Adobe Illustrator 16.0.0, SVG Export Plug-In . SVG Version: 6.00 Build 0)  -->
<!DOCTYPE svg PUBLIC "-//W3C//DTD SVG 1.1//EN" "http://www.w3.org/Graphics/SVG/1.1/DTD/svg11.dtd">
<svg version="1.1" id="privacy_x5F_legal_1_" xmlns="http://www.w3.org/2000/svg" xmlns:xlink="http://www.w3.org/1999/xlink"
	 x="0px" y="0px" width="32px" height="32px" viewBox="0 0 32 32" enable-background="new 0 0 32 32" xml:space="preserve">
<g id="privacy_x5F_legal">
	<g>
		<path fill-rule="evenodd" clip-rule="evenodd" fill="#555555" d="M6,7h16v6h2V7c0-1.26-0.652-2-2-2H6C4.677,5,4,5.636,4,7
			L3.998,23.865c0,1.447,0.611,2.111,1.993,2.111L16,26v-2H6V7z M19.475,10.003c0.285,0,0.518-0.228,0.518-0.508
			c0-0.281-0.232-0.509-0.518-0.509H8.522c-0.286,0-0.518,0.228-0.518,0.509c0,0.28,0.231,0.508,0.518,0.508H19.475z M19.992,12.495
			c0-0.281-0.232-0.509-0.518-0.509H8.522c-0.286,0-0.518,0.228-0.518,0.509c0,0.28,0.231,0.508,0.518,0.508h10.952
			C19.76,13.003,19.992,12.775,19.992,12.495z M15.992,15.495c0-0.281-0.231-0.509-0.518-0.509H8.522
			c-0.286,0-0.518,0.228-0.518,0.509c0,0.28,0.231,0.508,0.518,0.508h6.952C15.761,16.003,15.992,15.775,15.992,15.495z M8,20
			c0,1.104,0.896,2,2,2s2-0.896,2-2s-0.896-2-2-2S8,18.896,8,20z M19,17v3h2v-3h4v3h2v-3c0-1.104-0.896-2-2-2h-4
			C19.896,15,19,15.896,19,17z M27,21h-8c-0.553,0-1,0.447-1,1v6c0,0.553,0.447,1,1,1h8c0.553,0,1-0.447,1-1v-6
			C28,21.447,27.553,21,27,21z M24,27h-2v-4h2V27z"/>
	</g>
</g>
</svg>
