<?xml version="1.0" encoding="utf-8"?>
<!-- Generator: Adobe Illustrator 16.0.0, SVG Export Plug-In . SVG Version: 6.00 Build 0)  -->
<!DOCTYPE svg PUBLIC "-//W3C//DTD SVG 1.1//EN" "http://www.w3.org/Graphics/SVG/1.1/DTD/svg11.dtd">
<svg version="1.1" xmlns="http://www.w3.org/2000/svg" xmlns:xlink="http://www.w3.org/1999/xlink" x="0px" y="0px" width="40px"
	 height="40px" viewBox="0 0 40 40" enable-background="new 0 0 40 40" xml:space="preserve">
<g id="marketing_3_" opacity="0.102" enable-background="new    ">
	<g id="marketing">
		<g>
			<path fill-rule="evenodd" clip-rule="evenodd" d="M31,12.005H9.251c-0.693,0-1.255,0.57-1.255,1.272l0,15.495
				c0,0.675,0.543,1.222,1.213,1.222h21.074c0.674,0,1.721-0.536,1.721-1.198c0,0,0-14.975,0-15.564S31.674,12.005,31,12.005z
				 M30,27.992H10v-5.854l2.39-0.956c0.364,0.498,0.947,0.824,1.61,0.824c0.514,0,0.977-0.199,1.331-0.518l2.789,1.859
				C18.047,23.555,18,23.773,18,24.006c0,1.104,0.896,2,2,2s2-0.896,2-2c0-0.263-0.054-0.513-0.146-0.742l3.209-3.501
				c0.281,0.15,0.597,0.243,0.938,0.243c1.104,0,2-0.896,2-2c0-0.048-0.011-0.093-0.014-0.141L30,17.194V27.992z M13,20.003
				c0-0.553,0.448-1,1-1s1,0.447,1,1c0,0.552-0.448,1-1,1S13,20.555,13,20.003z M19,24.003c0-0.553,0.448-1,1-1c0.553,0,1,0.447,1,1
				c0,0.552-0.447,1-1,1C19.448,25.003,19,24.555,19,24.003z M25,18.003c0-0.553,0.447-1,1-1s1,0.447,1,1c0,0.552-0.447,1-1,1
				S25,18.555,25,18.003z M30,16.139l-2.327,0.776c-0.356-0.546-0.972-0.909-1.673-0.909c-1.104,0-2,0.896-2,2
				c0,0.4,0.12,0.771,0.322,1.083l-3.08,3.36c-0.343-0.273-0.771-0.443-1.242-0.443c-0.51,0-0.97,0.196-1.323,0.511l-2.793-1.862
				C15.954,20.45,16,20.234,16,20.006c0-1.104-0.896-2-2-2s-2,0.896-2,2c0,0.084,0.015,0.164,0.025,0.246L10,21.062v-7.058h20
				V16.139z M23,30.996h-6c-1.104,0-2,0.896-2,2.001h10C25,31.892,24.104,30.996,23,30.996z"/>
		</g>
	</g>
</g>
<g id="marketing_2_" enable-background="new    ">
	<g id="marketing_1_">
		<g>
			<path fill-rule="evenodd" clip-rule="evenodd" fill="#FFFFFF" d="M31,10.005H9.251c-0.693,0-1.255,0.57-1.255,1.272l0,15.495
				c0,0.675,0.543,1.222,1.213,1.222h21.074c0.674,0,1.721-0.536,1.721-1.198c0,0,0-14.975,0-15.564S31.674,10.005,31,10.005z
				 M30,25.992H10v-5.854l2.39-0.956c0.364,0.497,0.947,0.824,1.61,0.824c0.514,0,0.977-0.199,1.331-0.518l2.789,1.859
				C18.047,21.555,18,21.773,18,22.006c0,1.104,0.896,2,2,2s2-0.896,2-2c0-0.263-0.054-0.513-0.146-0.742l3.209-3.501
				c0.281,0.15,0.597,0.243,0.938,0.243c1.104,0,2-0.896,2-2c0-0.048-0.011-0.093-0.014-0.141L30,15.194V25.992z M13,18.003
				c0-0.553,0.448-1,1-1s1,0.447,1,1c0,0.552-0.448,1-1,1S13,18.555,13,18.003z M19,22.003c0-0.553,0.448-1,1-1c0.553,0,1,0.447,1,1
				c0,0.552-0.447,1-1,1C19.448,23.003,19,22.555,19,22.003z M25,16.003c0-0.553,0.447-1,1-1s1,0.447,1,1c0,0.552-0.447,1-1,1
				S25,16.555,25,16.003z M30,14.139l-2.327,0.776c-0.356-0.546-0.972-0.909-1.673-0.909c-1.104,0-2,0.896-2,2
				c0,0.4,0.12,0.771,0.322,1.083l-3.08,3.36c-0.343-0.273-0.771-0.443-1.242-0.443c-0.51,0-0.97,0.196-1.323,0.511l-2.793-1.862
				C15.954,18.45,16,18.234,16,18.006c0-1.104-0.896-2-2-2s-2,0.896-2,2c0,0.084,0.015,0.165,0.025,0.246L10,19.062v-7.058h20
				V14.139z M23,28.996h-6c-1.104,0-2,0.896-2,2.001h10C25,29.892,24.104,28.996,23,28.996z"/>
		</g>
	</g>
</g>
</svg>
