<?xml version="1.0" encoding="utf-8"?>
<!-- Generator: Adobe Illustrator 16.0.0, SVG Export Plug-In . SVG Version: 6.00 Build 0)  -->
<!DOCTYPE svg PUBLIC "-//W3C//DTD SVG 1.1//EN" "http://www.w3.org/Graphics/SVG/1.1/DTD/svg11.dtd">
<svg version="1.1" id="menu_1_" xmlns="http://www.w3.org/2000/svg" xmlns:xlink="http://www.w3.org/1999/xlink" x="0px" y="0px"
	 width="40px" height="40px" viewBox="0 0 40 40" enable-background="new 0 0 40 40" xml:space="preserve">
<g id="menu">
	<g>
		<path fill-rule="evenodd" clip-rule="evenodd" fill="#555555" d="M27.396,13h-14.8c-0.332,0-0.6,0.268-0.6,0.599v1.798
			c0,0.331,0.269,0.6,0.6,0.6h14.8c0.331,0,0.6-0.269,0.6-0.6v-1.798C27.996,13.268,27.728,13,27.396,13z M27.396,17.991h-14.8
			c-0.332,0-0.6,0.27-0.6,0.604v1.811c0,0.333,0.269,0.604,0.6,0.604h14.8c0.331,0,0.6-0.271,0.6-0.604v-1.811
			C27.996,18.261,27.728,17.991,27.396,17.991z M27.396,23.004h-14.8c-0.332,0-0.6,0.268-0.6,0.6V25.4c0,0.331,0.269,0.6,0.6,0.6
			h14.8c0.331,0,0.6-0.269,0.6-0.6v-1.797C27.996,23.271,27.728,23.004,27.396,23.004z"/>
	</g>
</g>
</svg>
