<svg xmlns="http://www.w3.org/2000/svg" width="40" height="40" viewBox="0 0 40 40">
  <defs>
    <style>
      .cls-1 {
        fill: #fff;
        fill-rule: evenodd;
      }
    </style>
  </defs>
  <path id="menu" class="cls-1" d="M27.4,26H12.6a0.6,0.6,0,0,1-.6-0.6V23.6a0.6,0.6,0,0,1,.6-0.6H27.4a0.6,0.6,0,0,1,.6.6v1.8A0.6,0.6,0,0,1,27.4,26Zm0-4.991H12.6a0.6,0.6,0,0,1-.6-0.6V18.595a0.6,0.6,0,0,1,.6-0.6H27.4a0.6,0.6,0,0,1,.6.6v1.811A0.6,0.6,0,0,1,27.4,21.009ZM27.4,16H12.6a0.6,0.6,0,0,1-.6-0.6V13.6a0.6,0.6,0,0,1,.6-0.6H27.4a0.6,0.6,0,0,1,.6.6v1.8A0.6,0.6,0,0,1,27.4,16Z"/>
</svg>
