<?xml version="1.0" encoding="utf-8"?>
<!-- Generator: Adobe Illustrator 16.0.0, SVG Export Plug-In . SVG Version: 6.00 Build 0)  -->
<!DOCTYPE svg PUBLIC "-//W3C//DTD SVG 1.1//EN" "http://www.w3.org/Graphics/SVG/1.1/DTD/svg11.dtd">
<svg version="1.1" xmlns="http://www.w3.org/2000/svg" xmlns:xlink="http://www.w3.org/1999/xlink" x="0px" y="0px" width="40px"
	 height="40px" viewBox="0 0 40 40" enable-background="new 0 0 40 40" xml:space="preserve">
<g id="contact_x5F_b_3_" opacity="0.102" enable-background="new    ">
	<g id="contact_x5F_b">
		<g>
			<path fill-rule="evenodd" clip-rule="evenodd" d="M27.987,28.419l-3.95-3.129l3.178-2.517c-0.308-0.168-0.604-0.354-0.891-0.553
				l-3.081,2.441l-2.89-2.288c-0.201-0.16-0.506-0.16-0.705,0l-2.889,2.288l-4.481-3.551L20,14.995l2.439,1.933
				c-0.265-0.865-0.409-1.781-0.429-2.728c-0.664-0.536-1.105-0.892-1.105-0.892c-0.249-0.201-0.571-0.313-0.905-0.313
				c-0.335,0-0.657,0.112-0.902,0.312l-8.646,6.972c-0.04,0.03-0.077,0.063-0.111,0.098c-0.038,0.036-0.071,0.074-0.103,0.116
				l-0.001-0.001c-0.033,0.043-0.065,0.089-0.093,0.136l-0.021,0.039c-0.004,0.007-0.012,0.021-0.012,0.021
				c-0.019,0.034-0.034,0.069-0.048,0.106c-0.001,0.004-0.003,0.007-0.004,0.011c0,0,0.002-0.005,0.003-0.008l-0.003,0.008
				l0.004,0.001l-0.008,0.035l-0.021,0.033c-0.018,0.06-0.031,0.119-0.04,0.18l-0.003,0.021c-0.005,0.044-0.006,0.082-0.006,0.126
				v8.585c0,0.2,0.055,0.399,0.159,0.575c0.022,0.038,0.048,0.075,0.077,0.111c0.123,0.166,0.291,0.302,0.487,0.395
				c0.028,0.014,0.057,0.026,0.085,0.037c0.051,0.021,0.105,0.04,0.16,0.054c0.062,0.017,0.122,0.028,0.182,0.037
				c0.068,0.009,0.137,0.014,0.207,0.014h17.316c0.136,0,0.27-0.018,0.408-0.057c0.13-0.037,0.253-0.092,0.367-0.162l0.019-0.012
				c0.353-0.231,0.563-0.603,0.563-0.993v-5.992c-0.706-0.143-1.384-0.363-2.027-0.646V28.419z M12.013,22.162l3.952,3.13
				l-3.952,3.129V22.162z M12.871,29.001l4.242-3.361L20,23.353l2.888,2.287l4.244,3.361H12.871z M32,6.009c-4.418,0-8,3.581-8,8
				c0,4.418,3.582,8,8,8s8-3.582,8-8C40,9.59,36.418,6.009,32,6.009z M32,19.005c-0.822,0-1.001-0.346-1.001-1.001H33
				C33,18.667,32.824,19.005,32,19.005z M35.996,16.298c0,0.538-0.154,0.706-0.662,0.706c-1.754,0-6.406,0.001-6.672,0.001
				c-0.494,0-0.66-0.185-0.66-0.696c0-0.193,0-0.49,0-0.707c0-0.333,0.346-0.391,0.346-0.391c0.152-0.063,0.568-0.588,0.568-0.961
				l0.001-0.023c0,0,0.251-0.232,0.251-1.968c0-1.736,1.019-2.264,2.322-2.264h1.016c1.305,0,2.328,0.527,2.328,2.264
				c0,1.735,0.248,1.99,0.248,1.99c0,0.373,0.416,0.898,0.571,0.962c0,0,0.345,0.056,0.345,0.412
				C35.996,15.842,35.996,16.129,35.996,16.298z M33.334,13.943c0,0-0.111-0.181-0.111-0.887c0-0.705-0.364-1.059-0.891-1.059
				h-0.664c-0.525,0-0.89,0.401-0.89,1.059c0,0.658-0.111,0.887-0.111,0.887c0,0.752-0.253,1.059-0.667,1.059h4.002
				C33.65,15.002,33.334,14.679,33.334,13.943z"/>
		</g>
	</g>
</g>
<g id="contact_x5F_b_2_" enable-background="new    ">
	<g id="contact_x5F_b_1_">
		<g>
			<path fill-rule="evenodd" clip-rule="evenodd" fill="#FFFFFF" d="M27.987,26.419l-3.95-3.129l3.178-2.517
				c-0.308-0.168-0.604-0.354-0.891-0.553l-3.081,2.441l-2.89-2.288c-0.201-0.16-0.506-0.16-0.705,0l-2.889,2.288l-4.481-3.551
				L20,12.995l2.439,1.933c-0.265-0.865-0.409-1.781-0.429-2.728c-0.664-0.536-1.105-0.892-1.105-0.892
				c-0.249-0.201-0.571-0.313-0.905-0.313c-0.335,0-0.657,0.112-0.902,0.312l-8.646,6.972c-0.04,0.03-0.077,0.063-0.111,0.098
				c-0.038,0.036-0.071,0.074-0.103,0.116l-0.001-0.001c-0.033,0.043-0.065,0.089-0.093,0.136l-0.021,0.039
				c-0.004,0.007-0.012,0.021-0.012,0.021c-0.019,0.034-0.034,0.069-0.048,0.106c-0.001,0.004-0.003,0.007-0.004,0.011
				c0,0,0.002-0.004,0.003-0.008l-0.003,0.008l0.004,0.001l-0.008,0.035l-0.021,0.033c-0.018,0.06-0.031,0.119-0.04,0.18
				l-0.003,0.021c-0.005,0.044-0.006,0.082-0.006,0.126v8.585c0,0.2,0.055,0.399,0.159,0.575c0.022,0.038,0.048,0.075,0.077,0.111
				c0.123,0.166,0.291,0.302,0.487,0.395c0.028,0.014,0.057,0.026,0.085,0.037c0.051,0.021,0.105,0.04,0.16,0.054
				c0.062,0.017,0.122,0.028,0.182,0.037c0.068,0.01,0.137,0.014,0.207,0.014h17.316c0.136,0,0.27-0.018,0.408-0.057
				c0.13-0.037,0.253-0.092,0.367-0.162l0.019-0.012c0.353-0.231,0.563-0.603,0.563-0.993v-5.992
				c-0.706-0.143-1.384-0.363-2.027-0.646V26.419z M12.013,20.162l3.952,3.13l-3.952,3.129V20.162z M12.871,27.001l4.242-3.361
				L20,21.353l2.888,2.287l4.244,3.361H12.871z M33.334,11.943c0,0-0.111-0.181-0.111-0.887c0-0.705-0.364-1.059-0.891-1.059h-0.664
				c-0.525,0-0.89,0.401-0.89,1.059c0,0.658-0.111,0.887-0.111,0.887c0,0.752-0.253,1.059-0.667,1.059h4.002
				C33.65,13.002,33.334,12.679,33.334,11.943z M32,4.009c-4.418,0-8,3.581-8,8c0,4.418,3.582,8,8,8s8-3.582,8-8
				C40,7.59,36.418,4.009,32,4.009z M32,17.005c-0.822,0-1.001-0.346-1.001-1.001H33C33,16.667,32.824,17.005,32,17.005z
				 M35.996,14.298c0,0.538-0.154,0.706-0.662,0.706c-1.754,0-6.406,0.001-6.672,0.001c-0.494,0-0.66-0.185-0.66-0.696v-0.707
				c0-0.333,0.346-0.391,0.346-0.391c0.152-0.063,0.568-0.588,0.568-0.961l0.001-0.023c0,0,0.251-0.232,0.251-1.968
				c0-1.736,1.019-2.264,2.322-2.264h1.016c1.305,0,2.328,0.527,2.328,2.264c0,1.735,0.248,1.99,0.248,1.99
				c0,0.373,0.416,0.898,0.571,0.962c0,0,0.345,0.056,0.345,0.412C35.996,13.842,35.996,14.129,35.996,14.298z"/>
		</g>
	</g>
</g>
</svg>
