<?xml version="1.0" encoding="utf-8"?>
<!-- Generator: Adobe Illustrator 16.0.0, SVG Export Plug-In . SVG Version: 6.00 Build 0)  -->
<!DOCTYPE svg PUBLIC "-//W3C//DTD SVG 1.1//EN" "http://www.w3.org/Graphics/SVG/1.1/DTD/svg11.dtd">
<svg version="1.1" xmlns="http://www.w3.org/2000/svg" xmlns:xlink="http://www.w3.org/1999/xlink" x="0px" y="0px" width="40px"
	 height="40px" viewBox="0 0 40 40" enable-background="new 0 0 40 40" xml:space="preserve">
<g id="Shape_1_1_" enable-background="new    ">
	<g id="Shape_1">
		<g>
			<polygon fill="#FFFFFF" points="29,15 22,12 19,12 17,14 10,14 8,20 10,24 18,32 24,32 25,31 26,30 28,30 28,29 30,29 31,25 
				33,23 			"/>
		</g>
	</g>
</g>
<g id="partners_1_" enable-background="new    ">
	<g id="partners">
		<g>
			<path fill="#555555" d="M35.934,23.002c-0.067-0.37-2.426-7.742-3.494-10.632c-0.479-1.209-0.722-1.303-1.496-1.007
				c-1.771,0.676-2.966,1.407-3.071,1.46c-0.19,0.092-0.337,0.271-0.399,0.491c-0.013,0.041-0.005,0.084-0.01,0.126
				c-0.922-0.539-2.095-1.188-3.383-1.789c-0.905-0.424-1.855-0.638-2.824-0.638c-1.417,0-2.889,0.484-4.167,1.33
				c-0.075-0.048-0.157-0.083-0.246-0.096c-0.918-0.137-3.492,0.169-4.802,0.238c0.011-0.104,0.021-0.207,0.029-0.307
				c0.031-0.363-0.173-0.698-0.489-0.819c-1.959-0.503-3.419-0.965-3.609-0.998c-0.396-0.063-0.699,0.03-0.832,0.644
				c-0.745,2.677-1.669,6.584-3.137,12.187C4,23.533,4.229,23.832,4.557,23.913c-0.289-0.07,3.066,1.103,3.796,1.022
				c0.285-0.026,0.526-0.221,0.617-0.497c0.011-0.034,0.049-0.146,0.107-0.321c1.592,1.628,4.523,4.624,6.293,6.42
				c1.969,1.999,3.686,2.436,5.057,2.436c0.135,0,0.771-0.007,0.905-0.022c0.568-0.068,0.563-0.294,0.939-0.653
				c0.403,0.169,0.846,0.259,1.288,0.259c0.422,0,0.828-0.078,1.211-0.232c0.506-0.203,0.922-0.531,1.216-0.95
				c0.165,0.029,0.335,0.046,0.507,0.046c0.49,0,0.99-0.125,1.443-0.36c0.6-0.311,1.063-0.797,1.317-1.379
				c0.536-0.014,1.056-0.233,1.505-0.635c0.974-0.868,1.226-2.247,0.643-3.514c-0.085-0.185-0.201-0.39-0.332-0.603l0.124-0.103
				c0.063,0.112,0.128,0.212,0.173,0.29c0.156,0.229,0.676,0.443,1.072,0.338c1.162-0.308,2.442-1.289,2.994-1.51
				C35.8,23.798,36,23.373,35.934,23.002z M29.494,27.524c-0.104,0.092-0.227,0.148-0.322,0.148c-0.045,0-0.084-0.012-0.121-0.039
				c-0.104-0.073-0.219-0.117-0.34-0.146c-0.779-0.724-3.312-3.293-4.771-4.787c-0.177-0.181-0.409-0.28-0.653-0.28
				c-0.263,0-0.516,0.12-0.691,0.328c-0.348,0.408-0.328,1.047,0.043,1.425c0.037,0.039,3.598,3.684,4.779,4.793
				c-0.101,0.142-0.242,0.241-0.35,0.298c-0.18,0.093-0.392,0.146-0.582,0.146c-0.156,0-0.287-0.036-0.35-0.097
				c-0.098-0.096-0.213-0.165-0.336-0.212c-1.084-0.977-3.615-3.481-3.934-3.861c-0.178-0.212-0.432-0.333-0.697-0.333
				c-0.241,0-0.471,0.098-0.646,0.274c-0.375,0.375-0.4,1.013-0.057,1.422c0.373,0.441,2.553,2.603,3.787,3.749
				c-0.053,0.035-0.111,0.066-0.18,0.095c-0.152,0.062-0.33,0.095-0.514,0.095c-0.207,0-0.6-0.044-0.905-0.336
				c-0.134-0.126-0.296-0.209-0.468-0.244c-0.822-0.787-1.817-1.854-2.521-2.658C19.496,27.111,19.253,27,19,27
				c-0.233,0-0.454,0.091-0.623,0.259c-0.356,0.355-0.376,0.952-0.044,1.332c0.617,0.705,1.451,1.604,2.215,2.365
				c-0.153,0.004-0.559,0.006-0.606,0.006c0.099,0-1.009,0.289-3.228-1.95c-2.104-2.124-5.823-6.043-6.903-7.183
				c0.627-2.029,1.453-4.893,1.923-7.338c0.791-0.051,2.298-0.308,3.493-0.439c-0.941,1.258-1.829,3.303-1.483,4.851
				c0.19,0.85,0.728,1.466,1.515,1.736c0.364,0.125,0.729,0.188,1.084,0.188c1.894,0,3.169-1.82,3.645-2.535
				c0.531-0.058,0.682-0.104,1.389-0.371c2.855,2.105,7.426,6.634,8.275,8.479C29.95,27.049,29.607,27.424,29.494,27.524z
				 M30.174,23.67c-2.074-2.633-5.904-6.173-8.114-7.71c-0.161-0.112-0.351-0.171-0.546-0.171c-0.113,0-0.225,0.021-0.33,0.06
				l-0.396,0.15c-0.678,0.258-0.678,0.258-1.165,0.306l-0.283,0.029c-0.291,0.03-0.549,0.192-0.711,0.443
				c-0.785,1.222-1.474,2.034-2.289,2.034c-0.15,0-0.309-0.027-0.47-0.083c-0.142-0.049-0.196-0.114-0.234-0.281
				c-0.2-0.889,0.636-2.72,1.435-3.539c1.151-1.177,2.715-1.88,4.184-1.88c0.697,0,1.38,0.153,2.027,0.456
				c2.478,1.155,4.462,2.352,5.245,2.839c0.756,2.105,1.643,4.991,2.186,6.903L30.174,23.67z"/>
		</g>
	</g>
</g>
</svg>
