<?xml version="1.0" encoding="utf-8"?>
<!-- Generator: Adobe Illustrator 16.0.0, SVG Export Plug-In . SVG Version: 6.00 Build 0)  -->
<!DOCTYPE svg PUBLIC "-//W3C//DTD SVG 1.1//EN" "http://www.w3.org/Graphics/SVG/1.1/DTD/svg11.dtd">
<svg version="1.1" xmlns="http://www.w3.org/2000/svg" xmlns:xlink="http://www.w3.org/1999/xlink" x="0px" y="0px" width="40px"
	 height="40px" viewBox="0 0 40 40" enable-background="new 0 0 40 40" xml:space="preserve">
<g id="Rectangle_1_1_" enable-background="new    ">
	<g id="Rectangle_1">
		<g>
			<rect x="18" y="20" fill="#FFFFFF" width="4" height="6"/>
		</g>
	</g>
</g>
<g id="password_1_" enable-background="new    ">
	<g id="password">
		<g>
			<path fill="#555555" d="M18,14.989h4v3h2v-3c0-1.104-0.896-2-2-2h-4c-1.104,0-2,0.896-2,2v3h2V14.989z M24,18.989h-8
				c-0.552,0-1,0.448-1,1v6c0,0.553,0.448,1,1,1h8c0.553,0,1-0.447,1-1v-6C25,19.438,24.553,18.989,24,18.989z M21,24.989h-2v-4h2
				V24.989z"/>
		</g>
	</g>
</g>
</svg>
