<?xml version="1.0" encoding="utf-8"?>
<!-- Generator: Adobe Illustrator 16.0.0, SVG Export Plug-In . SVG Version: 6.00 Build 0)  -->
<!DOCTYPE svg PUBLIC "-//W3C//DTD SVG 1.1//EN" "http://www.w3.org/Graphics/SVG/1.1/DTD/svg11.dtd">
<svg version="1.1" xmlns="http://www.w3.org/2000/svg" xmlns:xlink="http://www.w3.org/1999/xlink" x="0px" y="0px" width="40px"
	 height="40px" viewBox="0 0 40 40" enable-background="new 0 0 40 40" xml:space="preserve">
<g id="personnel_3_" enable-background="new    ">
	<g id="personnel">
		<g>
			<path fill-rule="evenodd" clip-rule="evenodd" fill="#FFFFFF" d="M28.811,25.433l-0.004-0.02l-0.251-1.031
				c-1.346-4.547-4.728-5.729-4.728-5.729S22.25,20,20,20s-3.783-1.347-3.783-1.347s-3.382,1.183-4.727,5.729l-0.247,1.013
				l-0.008,0.038c-0.12,0.646-0.181,1.299-0.181,1.945c0,3.501,4.831,4.663,8.968,4.663c4.137,0,8.968-1.162,8.968-4.663
				C28.991,26.732,28.931,26.078,28.811,25.433z M20.023,18.797c2.73,0,4.953-2.19,4.953-4.883s-2.223-4.883-4.953-4.883
				c-2.731,0-4.954,2.19-4.954,4.883S17.292,18.797,20.023,18.797z"/>
		</g>
	</g>
</g>
<g id="personnel_2_" enable-background="new    ">
	<g id="personnel_1_">
		<g>
			<path fill-rule="evenodd" clip-rule="evenodd" fill="#555555" d="M30.82,17.293l-0.117-0.063l-0.084,0.102
				c-0.205,0.249-0.447,0.47-0.72,0.656l-0.227,0.156l0.25,0.116c1.679,0.777,2.765,2.792,2.765,4.739
				c0,0.563-0.208,1.109-1.572,1.425l0.315,1.308c2.047-0.487,2.535-1.457,2.535-2.731C33.966,20.67,32.76,18.35,30.82,17.293z
				 M9.427,17.332l-0.084-0.103l-0.117,0.063C7.286,18.351,6.081,20.67,6.081,23c0,1.275,0.488,2.245,2.535,2.731l0.15,0.035
				l0.327-1.305l-0.163-0.037C7.567,24.109,7.359,23.563,7.359,23c0-1.948,1.085-3.962,2.764-4.74l0.25-0.115l-0.227-0.156
				C9.875,17.802,9.633,17.58,9.427,17.332z M13.028,17.619c0.22-0.039,0.438-0.103,0.649-0.188l0.188-0.077l-0.121-0.162
				c-0.19-0.255-0.356-0.525-0.494-0.805l-0.062-0.124l-0.169,0.056c-0.072,0.023-0.144,0.048-0.22,0.062
				c-1.041,0.186-2.04-0.497-2.229-1.522c-0.189-1.026,0.504-2.012,1.544-2.197c0.202-0.036,0.413-0.035,0.645,0.002l0.138,0.022
				l0.041-0.132c0.091-0.297,0.212-0.59,0.358-0.871l0.093-0.18l-0.198-0.046c-0.433-0.102-0.872-0.113-1.306-0.036
				C10.154,11.73,9,13.373,9.314,15.082S11.295,17.93,13.028,17.619z M26.999,17.61c1.731,0.32,3.405-0.808,3.73-2.515
				c0.326-1.707-0.819-3.357-2.55-3.678c-0.435-0.081-0.873-0.071-1.307,0.027l-0.197,0.045l0.091,0.18
				c0.146,0.284,0.265,0.578,0.353,0.873l0.04,0.132l0.138-0.021c0.234-0.036,0.445-0.035,0.646,0.002
				c1.039,0.192,1.726,1.183,1.529,2.207c-0.194,1.024-1.198,1.701-2.238,1.509c-0.079-0.015-0.152-0.04-0.256-0.075l-0.133-0.045
				l-0.063,0.124c-0.139,0.278-0.307,0.548-0.498,0.802l-0.123,0.162l0.189,0.078C26.563,17.505,26.779,17.569,26.999,17.61z
				 M28.807,25.413l-0.251-1.031c-1.346-4.547-4.728-5.729-4.728-5.729s-1.404,0.976-1.854,1.237
				c0.074,0.074,0.977,0.566,0.977,0.566c2.345,1.154,3.875,4.098,3.875,6.921c0,1.021-3.277,2.542-6.803,2.542
				c-4.365,0-6.786-1.558-6.804-2.556c-0.05-2.788,1.46-5.729,3.855-6.907l0.879-0.566c-0.967-0.445-1.737-1.237-1.737-1.237
				s-3.382,1.183-4.727,5.729l-0.247,1.013l-0.008,0.038c-0.12,0.646-0.181,1.299-0.181,1.945c0,3.501,4.831,4.663,8.968,4.663
				c4.137,0,8.968-1.162,8.968-4.663c0-0.646-0.061-1.3-0.181-1.945L28.807,25.413z M20.023,18.797c2.73,0,4.953-2.19,4.953-4.883
				s-2.223-4.883-4.953-4.883c-2.731,0-4.954,2.19-4.954,4.883S17.292,18.797,20.023,18.797z M20.022,11.029
				c1.655,0,3.001,1.327,3.001,2.958c0,1.632-1.346,2.959-3.001,2.959s-3.001-1.327-3.001-2.959
				C17.021,12.356,18.367,11.029,20.022,11.029z"/>
		</g>
	</g>
</g>
</svg>
