<?xml version="1.0" encoding="utf-8"?>
<!-- Generator: Adobe Illustrator 16.0.0, SVG Export Plug-In . SVG Version: 6.00 Build 0)  -->
<!DOCTYPE svg PUBLIC "-//W3C//DTD SVG 1.1//EN" "http://www.w3.org/Graphics/SVG/1.1/DTD/svg11.dtd">
<svg version="1.1" xmlns="http://www.w3.org/2000/svg" xmlns:xlink="http://www.w3.org/1999/xlink" x="0px" y="0px" width="40px"
	 height="40px" viewBox="0 0 40 40" enable-background="new 0 0 40 40" xml:space="preserve">
<g id="Shape_1_1_" enable-background="new    ">
	<g id="Shape_1">
		<g>
			<polygon fill="#FFFFFF" points="27,23 24,21 22,22 18,18 19,16 15,11 12,13 11,16 12,19 16,24 21,28 26,29 28,27 29,25 			"/>
		</g>
	</g>
</g>
<g id="phone_x5F_b_1_" enable-background="new    ">
	<g id="phone_x5F_b">
		<g>
			<path fill="#555555" d="M28.9,22.759c-0.303-0.234-1.236-0.866-2.854-1.95c-0.295-0.197-0.525-0.352-0.627-0.421
				c-0.481-0.328-0.994-0.494-1.522-0.494c-0.402,0-1.335,0.114-2.042,1.078c-0.455-0.442-0.97-0.955-1.423-1.419l-0.017-0.018
				l-0.018-0.017c-0.464-0.453-0.977-0.968-1.419-1.423c0.639-0.469,0.901-1.032,1.006-1.454c0.102-0.407,0.182-1.223-0.423-2.11
				c-0.069-0.102-0.223-0.33-0.419-0.624c-1.085-1.619-1.717-2.555-1.953-2.856c-0.69-0.889-1.494-1.075-2.047-1.075
				c-0.452,0-0.815,0.123-1.08,0.213l-0.087,0.03c-0.643,0.213-1.304,0.488-2.298,1.482c-1.918,1.919-2.228,4.177-0.972,7.106
				c1.201,2.802,4.071,5.719,4.395,6.041c0.323,0.323,3.24,3.194,6.042,4.395c1.183,0.508,2.229,0.754,3.199,0.754
				c1.467,0,2.744-0.564,3.906-1.726c0.994-0.994,1.269-1.654,1.482-2.299l0.029-0.086C29.926,25.405,30.423,23.941,28.9,22.759z
				 M27.801,25.328c-0.136,0.406-0.271,0.781-0.991,1.502c-0.668,0.668-1.405,1.13-2.466,1.13c-0.655,0-1.434-0.177-2.397-0.589
				c-2.521-1.081-5.403-3.963-5.403-3.963s-2.882-2.882-3.962-5.403c-1.081-2.522-0.54-3.782,0.541-4.863
				c0.72-0.721,1.096-0.855,1.501-0.991c0.229-0.076,0.387-0.138,0.522-0.138c0.15,0,0.273,0.075,0.438,0.288
				c0.313,0.402,2.009,2.956,2.296,3.377c0.255,0.375,0.166,0.649-0.285,0.886c-0.63,0.33-1.655,0.993-1.411,1.44
				c0.286,0.525,2.792,2.972,2.792,2.972s2.447,2.507,2.971,2.793c0.046,0.025,0.095,0.036,0.146,0.036
				c0.436,0,0.999-0.883,1.295-1.448c0.15-0.285,0.314-0.426,0.511-0.426c0.113,0,0.237,0.048,0.376,0.142
				c0.42,0.286,2.975,1.983,3.377,2.296C28.056,24.683,27.961,24.846,27.801,25.328z"/>
		</g>
	</g>
</g>
</svg>
