<?xml version="1.0" encoding="utf-8"?>
<!-- Generator: Adobe Illustrator 16.0.3, SVG Export Plug-In . SVG Version: 6.00 Build 0)  -->
<!DOCTYPE svg PUBLIC "-//W3C//DTD SVG 1.1//EN" "http://www.w3.org/Graphics/SVG/1.1/DTD/svg11.dtd">
<svg version="1.1" xmlns="http://www.w3.org/2000/svg" xmlns:xlink="http://www.w3.org/1999/xlink" x="0px" y="0px" width="40px"
	 height="40px" viewBox="0 0 40 40" enable-background="new 0 0 40 40" xml:space="preserve">
<g id="play_3_" opacity="0.102" enable-background="new    ">
	<g id="play">
		<g>
			<path d="M27.254,21.161c-2.604-1.363-7.732-4.049-10.79-5.649C14.025,14.382,14,15.313,14,16.531c0,2.921,0,7.922,0,10.88
				c0,1.594,0.587,2.055,2.472,1.098c3.051-1.598,8.155-4.271,10.763-5.636C28.266,22.376,28.26,21.704,27.254,21.161z"/>
		</g>
	</g>
</g>
<g id="play_2_" enable-background="new    ">
	<g id="play_1_">
		<g>
			<path fill="#FFFFFF" d="M27.254,19.161c-2.604-1.363-7.732-4.049-10.79-5.649C14.025,12.382,14,13.313,14,14.531v10.88
				c0,1.594,0.587,2.055,2.472,1.098c3.051-1.598,8.155-4.271,10.763-5.636C28.266,20.376,28.26,19.704,27.254,19.161z"/>
		</g>
	</g>
</g>
</svg>
