<?xml version="1.0" encoding="utf-8"?>
<!-- Generator: Adobe Illustrator 16.0.0, SVG Export Plug-In . SVG Version: 6.00 Build 0)  -->
<!DOCTYPE svg PUBLIC "-//W3C//DTD SVG 1.1//EN" "http://www.w3.org/Graphics/SVG/1.1/DTD/svg11.dtd">
<svg version="1.1" xmlns="http://www.w3.org/2000/svg" xmlns:xlink="http://www.w3.org/1999/xlink" x="0px" y="0px" width="40px"
	 height="40px" viewBox="0 0 40 40" enable-background="new 0 0 40 40" xml:space="preserve">
<g id="white_1_" enable-background="new    ">
	<g id="white">
		<g>
			<polygon fill="#FFFFFF" points="33,13 25,8 20,11 15,8 6,13 10,16 7,19 11,22 11,27 20,32 29,26 29,22 33,19 29,16 			"/>
		</g>
	</g>
</g>
<g id="presskit_1_" enable-background="new    ">
	<g id="presskit">
		<g>
			<path fill-rule="evenodd" clip-rule="evenodd" fill="#555555" d="M14.967,6.996c0,0-0.248,0.004-0.49,0.121l-8.978,4.977
				C5.166,12.277,5,12.46,5,13c0,0.469,0.514,0.776,0.514,0.776l3.697,1.928l-3.208,1.983C6.008,17.685,5.5,18.094,5.5,18.5
				s0.017,0.54,0.454,0.83l4.063,2.314c0,0-0.016,4.463-0.017,4.855c-0.002,0.406,0.49,0.775,0.49,0.775s8.57,5.345,8.914,5.532
				s0.593,0.195,0.593,0.195l0.001-0.001l0-23.361l-4.588-2.532C15.332,7.067,15.174,6.996,14.967,6.996z M8.426,18.612l2.885-1.809
				l6.81,3.622l-2.68,2.009L8.426,18.612z M19.5,30.5L12,26c0.012,0.006-0.005-3.299-0.005-3.299l2.961,1.698
				c0.262,0.155,1.02-0.003,1.02-0.003L19.5,21.5V30.5z M19.999,19.244l-6.687-3.557l6.687-3.837V19.244z M11.298,14.622
				l-3.292-1.717l6.948-3.851l3.081,1.702L11.298,14.622z M35,13c0-0.54-0.166-0.723-0.499-0.906l-8.978-4.977
				c-0.242-0.117-0.49-0.121-0.49-0.121c-0.207,0-0.365,0.071-0.443,0.112l-4.589,2.532l0.001,23.361l0.001,0.001
				c0,0,0.249-0.008,0.593-0.195s8.914-5.532,8.914-5.532S30.002,26.906,30,26.5c-0.002-0.393-0.018-4.855-0.018-4.855l4.063-2.314
				c0.437-0.29,0.454-0.424,0.454-0.83s-0.508-0.815-0.504-0.813l-3.207-1.983l3.697-1.928C34.486,13.776,35,13.469,35,13z
				 M20.002,19.244v-7.394l6.687,3.837L20.002,19.244z M28,26l-7.5,4.5v-9l3.524,2.896c0,0,0.759,0.158,1.021,0.003l2.961-1.698
				C28.006,22.701,27.988,26.006,28,26z M31.574,18.612l-7.016,3.822l-2.68-2.009l6.811-3.622L31.574,18.612z M28.701,14.622
				l-6.736-3.865l3.081-1.702l6.948,3.851L28.701,14.622z"/>
		</g>
	</g>
</g>
</svg>
