<?xml version="1.0" encoding="utf-8"?>
<!-- Generator: Adobe Illustrator 16.0.0, SVG Export Plug-In . SVG Version: 6.00 Build 0)  -->
<!DOCTYPE svg PUBLIC "-//W3C//DTD SVG 1.1//EN" "http://www.w3.org/Graphics/SVG/1.1/DTD/svg11.dtd">
<svg version="1.1" xmlns="http://www.w3.org/2000/svg" xmlns:xlink="http://www.w3.org/1999/xlink" x="0px" y="0px" width="40px"
	 height="40px" viewBox="0 0 40 40" enable-background="new 0 0 40 40" xml:space="preserve">
<g id="preview_3_" opacity="0.102" enable-background="new    ">
	<g id="preview">
		<g>
			<path fill-rule="evenodd" clip-rule="evenodd" d="M20,14c-6.627,0-12,4.554-12,8s5.373,8,12,8c6.627,0,12-4.554,12-8
				S26.627,14,20,14z M20,28c-3.313,0-6-2.687-6-6s2.687-6,6-6s6,2.687,6,6S23.313,28,20,28z M20,19c-1.657,0-3,1.343-3,3
				s1.343,3,3,3c1.656,0,3-1.343,3-3S21.656,19,20,19z"/>
		</g>
	</g>
</g>
<g id="preview_2_" enable-background="new    ">
	<g id="preview_1_">
		<g>
			<path fill-rule="evenodd" clip-rule="evenodd" fill="#FFFFFF" d="M20,12c-6.627,0-12,4.554-12,8s5.373,8,12,8
				c6.627,0,12-4.554,12-8S26.627,12,20,12z M20,26c-3.313,0-6-2.687-6-6s2.687-6,6-6s6,2.687,6,6S23.313,26,20,26z M20,17
				c-1.657,0-3,1.343-3,3s1.343,3,3,3c1.656,0,3-1.343,3-3S21.656,17,20,17z"/>
		</g>
	</g>
</g>
</svg>
