<?xml version="1.0" encoding="utf-8"?>
<!-- Generator: Adobe Illustrator 16.0.0, SVG Export Plug-In . SVG Version: 6.00 Build 0)  -->
<!DOCTYPE svg PUBLIC "-//W3C//DTD SVG 1.1//EN" "http://www.w3.org/Graphics/SVG/1.1/DTD/svg11.dtd">
<svg version="1.1" xmlns="http://www.w3.org/2000/svg" xmlns:xlink="http://www.w3.org/1999/xlink" x="0px" y="0px" width="40px"
	 height="40px" viewBox="0 0 40 40" enable-background="new 0 0 40 40" xml:space="preserve">
<g id="white_1_" enable-background="new    ">
	<g id="white">
		<g>
			<rect x="9" y="9" fill="#FFFFFF" width="22" height="22"/>
		</g>
	</g>
</g>
<g id="pricing_1_" enable-background="new    ">
	<g id="pricing">
		<g>
			<path fill-rule="evenodd" clip-rule="evenodd" fill="#555555" d="M17.259,26.002h1.742v1.467c0,0.419,0.125,0.5,0.5,0.5
				s0.586-0.001,1,0c0.415,0.002,0.506-0.111,0.5-0.5c-0.003-0.264-0.002-0.952-0.001-1.467h1.72c0.797,0,1.252-0.489,1.281-1.219
				c0-3.229-0.006-5.337-0.006-4.593c0-0.796-0.382-1.189-1.229-1.189h-0.007c-0.003,0-0.005-0.001-0.007-0.001h-4.251
				c-0.427,0-0.5-0.186-0.5-0.5c0,0.749-0.006-0.871-0.006-2c0-0.362,0.086-0.5,0.5-0.5h3.001c0.381,0,0.501,0.095,0.501,0.5
				c0,0.365,0.081,0.5,0.5,0.5H23.5c0.378,0,0.502-0.113,0.502-0.56c0,0,0-0.413,0-1.224c0-0.812-0.463-1.219-1.261-1.219H21
				c-0.001-0.534,0.002-1.279,0.002-1.529c0-0.343-0.123-0.5-0.5-0.5h-1c-0.338,0-0.5,0.119-0.5,0.5v1.529H17.28
				c-0.798,0-1.282,0.488-1.282,1.219v4.524c0,0.014,0.006,0.024,0.006,0.037v0.031c0,0.796,0.382,1.189,1.229,1.189h0.007
				c0.002,0,0.004,0.001,0.007,0.001h4.251c0.427,0,0.501,0.186,0.501,0.5c0,1.188,0.006,1.309,0.006,2c0,0.362-0.087,0.5-0.501,0.5
				h-3.001c-0.381,0-0.5-0.095-0.5-0.5c0-0.365-0.081-0.5-0.5-0.5H16.5c-0.378,0-0.502,0.113-0.502,0.56c0,0,0,0.413,0,1.224
				C15.998,25.595,16.461,26.002,17.259,26.002z M30,8H10c-1.104,0-2,0.896-2,2v20c0,1.104,0.896,2,2,2h20c1.104,0,2-0.896,2-2V10
				C32,8.896,31.104,8,30,8z M30,30H10V10h20V30z"/>
		</g>
	</g>
</g>
</svg>
