<?xml version="1.0" encoding="utf-8"?>
<!-- Generator: Adobe Illustrator 16.0.0, SVG Export Plug-In . SVG Version: 6.00 Build 0)  -->
<!DOCTYPE svg PUBLIC "-//W3C//DTD SVG 1.1//EN" "http://www.w3.org/Graphics/SVG/1.1/DTD/svg11.dtd">
<svg version="1.1" xmlns="http://www.w3.org/2000/svg" xmlns:xlink="http://www.w3.org/1999/xlink" x="0px" y="0px" width="40px"
	 height="40px" viewBox="0 0 40 40" enable-background="new 0 0 40 40" xml:space="preserve">
<g id="promotions_3_" opacity="0.102" enable-background="new    ">
	<g id="promotions">
		<g>
			<path fill-rule="evenodd" clip-rule="evenodd" d="M33.297,16.813l-3.379-1.68l-0.588-3.501c-0.146-0.84-0.882-1.261-1.764-1.261
				l-3.673,0.561l-2.645-2.521c-0.589-0.561-1.47-0.561-2.057,0l-2.939,2.521l-3.673-0.561c-0.881-0.14-1.616,0.421-1.763,1.261
				l-0.587,3.501l-3.38,1.68c-0.734,0.42-1.028,1.261-0.734,1.961l1.763,3.221l-1.616,3.221c-0.294,0.699,0,1.539,0.587,1.96
				l3.38,1.68l0.587,3.501c0.147,0.841,0.882,1.261,1.763,1.261l3.673-0.561l2.645,2.521c0.588,0.561,1.469,0.561,2.057,0
				l2.645-2.521l3.674,0.561c0.881,0.14,1.615-0.42,1.763-1.261l0.588-3.501l3.379-1.68c0.735-0.421,1.029-1.261,0.589-1.96
				l-1.322-3.221l1.615-3.221C34.179,18.074,33.885,17.233,33.297,16.813z M31.498,25.649l-3.795,1.888l-0.672,4.001l-4.164-0.636
				l-2.941,2.804l-2.941-2.804l-4.164,0.636l-0.672-4.001l-3.768-1.874l1.86-3.708l-1.96-3.58l3.867-1.923l0.672-4.001l4.095,0.625
				l3.28-2.814l2.965,2.824l4.162-0.635l0.672,4.001l3.769,1.874l-1.801,3.588L31.498,25.649z M23,16l-8,12h2l8-12H23z M19,19.5
				c0-1.381-1.119-2.5-2.5-2.5S14,18.119,14,19.5s1.119,2.5,2.5,2.5S19,20.881,19,19.5z M23.5,22c-1.381,0-2.5,1.119-2.5,2.5
				s1.119,2.5,2.5,2.5s2.5-1.119,2.5-2.5S24.881,22,23.5,22z"/>
		</g>
	</g>
</g>
<g id="promotions_2_" enable-background="new    ">
	<g id="promotions_1_">
		<g>
			<path fill-rule="evenodd" clip-rule="evenodd" fill="#FFFFFF" d="M23,14l-8,12h2l8-12H23z M19,17.5c0-1.381-1.119-2.5-2.5-2.5
				S14,16.119,14,17.5s1.119,2.5,2.5,2.5S19,18.881,19,17.5z M33.297,14.813l-3.379-1.68L29.33,9.633
				c-0.146-0.84-0.882-1.261-1.764-1.261l-3.673,0.561l-2.645-2.521c-0.589-0.561-1.47-0.561-2.057,0l-2.939,2.521L12.58,8.372
				c-0.881-0.14-1.616,0.421-1.763,1.261l-0.587,3.501l-3.38,1.68c-0.734,0.42-1.028,1.261-0.734,1.961l1.763,3.221l-1.616,3.221
				c-0.294,0.699,0,1.539,0.587,1.96l3.38,1.68l0.587,3.501c0.147,0.841,0.882,1.261,1.763,1.261l3.673-0.561l2.645,2.521
				c0.588,0.561,1.469,0.561,2.057,0l2.645-2.521l3.674,0.561c0.881,0.14,1.615-0.42,1.763-1.261l0.588-3.501l3.379-1.68
				c0.735-0.421,1.029-1.261,0.589-1.96l-1.322-3.221l1.615-3.221C34.179,16.074,33.885,15.233,33.297,14.813z M31.498,23.649
				l-3.795,1.888l-0.672,4.001l-4.164-0.636l-2.941,2.804l-2.941-2.804l-4.164,0.636l-0.672-4.001l-3.768-1.874l1.86-3.708
				l-1.96-3.58l3.867-1.923l0.672-4.001l4.095,0.625l3.28-2.814l2.965,2.824l4.162-0.635l0.672,4.001l3.769,1.874l-1.801,3.588
				L31.498,23.649z M23.5,20c-1.381,0-2.5,1.119-2.5,2.5s1.119,2.5,2.5,2.5s2.5-1.119,2.5-2.5S24.881,20,23.5,20z"/>
		</g>
	</g>
</g>
</svg>
