<?xml version="1.0" encoding="utf-8"?>
<!-- Generator: Adobe Illustrator 16.0.0, SVG Export Plug-In . SVG Version: 6.00 Build 0)  -->
<!DOCTYPE svg PUBLIC "-//W3C//DTD SVG 1.1//EN" "http://www.w3.org/Graphics/SVG/1.1/DTD/svg11.dtd">
<svg version="1.1" xmlns="http://www.w3.org/2000/svg" xmlns:xlink="http://www.w3.org/1999/xlink" x="0px" y="0px" width="40px"
	 height="40px" viewBox="0 0 40 40" enable-background="new 0 0 40 40" xml:space="preserve">
<g id="pen_3_" opacity="0.102" enable-background="new    ">
	<g id="pen">
		<g>
			<path fill-rule="evenodd" clip-rule="evenodd" d="M29,17.022V15h-7v7h4c0,2.803-1.374,5-4,5v3c4.651,0,7-3.159,7-8l0.014-4.978
				H29z M19,15h-7v7h4c0,2.803-1.374,5-4,5v3c4.651,0,7-3.159,7-8l0.014-4.978H19V15z"/>
		</g>
	</g>
</g>
<g id="pen_2_" enable-background="new    ">
	<g id="pen_1_">
		<g>
			<path fill-rule="evenodd" clip-rule="evenodd" fill="#FFFFFF" d="M29,15.022V13h-7v7h4c0,2.803-1.374,5-4,5v3
				c4.651,0,7-3.159,7-8l0.014-4.978H29z M19,13h-7v7h4c0,2.803-1.374,5-4,5v3c4.651,0,7-3.159,7-8l0.014-4.978H19V13z"/>
		</g>
	</g>
</g>
</svg>
