<?xml version="1.0" encoding="utf-8"?>
<!-- Generator: Adobe Illustrator 16.0.0, SVG Export Plug-In . SVG Version: 6.00 Build 0)  -->
<!DOCTYPE svg PUBLIC "-//W3C//DTD SVG 1.1//EN" "http://www.w3.org/Graphics/SVG/1.1/DTD/svg11.dtd">
<svg version="1.1" xmlns="http://www.w3.org/2000/svg" xmlns:xlink="http://www.w3.org/1999/xlink" x="0px" y="0px" width="40px"
	 height="40px" viewBox="0 0 40 40" enable-background="new 0 0 40 40" xml:space="preserve">
<g id="white_1_" enable-background="new    ">
	<g id="white">
		<g>
			<circle fill="#FFFFFF" cx="20" cy="20" r="9"/>
		</g>
	</g>
</g>
<g id="refresh_1_" enable-background="new    ">
	<g id="refresh">
		<g>
			<path fill-rule="evenodd" clip-rule="evenodd" fill="#555555" d="M12.814,17.166c0.441-0.901,1.052-1.693,1.812-2.355
				c0.762-0.663,1.628-1.155,2.574-1.463c0.89-0.288,1.85-0.395,2.85-0.341c0.944,0.07,1.891,0.333,2.741,0.758
				c0.633,0.314,1.264,0.784,1.785,1.271c-0.717,0.597-1.385,1.151-1.855,1.544c-0.569,0.473-0.566,1.291,0.274,1.421
				c0.823,0.128,3.854,0.596,5.272,0.805c1.234,0.182,1.654-0.083,1.688-1.404c0.027-1.058,0.048-4.078,0.016-5.146
				c-0.029-0.981-0.517-1.152-1.15-0.728l-0.001-0.005l-0.04,0.033c-0.055,0.039-0.109,0.074-0.166,0.122
				c-0.256,0.213-0.932,0.774-1.756,1.461c-0.814-0.831-1.76-1.557-2.794-2.07c-1.208-0.605-2.505-0.962-3.866-1.063
				c-1.319-0.078-2.683,0.063-3.957,0.479c-1.332,0.433-2.548,1.122-3.611,2.049c-1.067,0.927-1.922,2.037-2.541,3.301
				c-0.194,0.398-0.506,1.225-0.506,1.225l2.864,0.996C12.446,18.055,12.672,17.455,12.814,17.166z M27.195,21.927
				c0,0-0.222,0.596-0.361,0.883c-0.432,0.896-1.029,1.682-1.773,2.34c-0.746,0.659-1.595,1.147-2.521,1.454
				c-0.871,0.285-1.813,0.391-2.791,0.338c-0.925-0.07-1.852-0.331-2.684-0.752c-0.621-0.313-1.239-0.78-1.75-1.264
				c0.703-0.593,1.356-1.144,1.818-1.534c0.557-0.47,0.555-1.282-0.27-1.412c-0.807-0.127-3.775-0.591-5.164-0.799
				c-1.208-0.181-1.621,0.083-1.653,1.395c-0.026,1.051-0.046,4.053-0.015,5.112c0.029,0.976,0.506,1.146,1.127,0.723l0,0.005
				l0.039-0.033c0.054-0.039,0.107-0.074,0.164-0.121c0.25-0.211,0.912-0.769,1.72-1.451c0.797,0.825,1.723,1.547,2.736,2.057
				c1.183,0.602,2.454,0.956,3.787,1.057c1.292,0.077,2.628-0.063,3.876-0.476c1.304-0.43,2.495-1.114,3.536-2.035
				c1.046-0.921,1.883-2.024,2.489-3.279C29.695,23.736,30,22.916,30,22.916L27.195,21.927z"/>
		</g>
	</g>
</g>
</svg>
