<?xml version="1.0" encoding="utf-8"?>
<!-- Generator: Adobe Illustrator 16.0.0, SVG Export Plug-In . SVG Version: 6.00 Build 0)  -->
<!DOCTYPE svg PUBLIC "-//W3C//DTD SVG 1.1//EN" "http://www.w3.org/Graphics/SVG/1.1/DTD/svg11.dtd">
<svg version="1.1" id="rss_1_" xmlns="http://www.w3.org/2000/svg" xmlns:xlink="http://www.w3.org/1999/xlink" x="0px" y="0px"
	 width="40px" height="40px" viewBox="0 0 40 40" enable-background="new 0 0 40 40" xml:space="preserve">
<g id="rss">
	<g>
		<path fill-rule="evenodd" clip-rule="evenodd" fill="#555555" d="M15.534,20.935c-1.953,0-3.532,1.581-3.532,3.532
			c0,1.95,1.58,3.531,3.532,3.531c1.951,0,3.531-1.581,3.531-3.531C19.064,22.516,17.484,20.935,15.534,20.935z M15.534,15.558
			c-0.77,0-1.395,0.62-1.395,1.386c0,0.773,0.625,1.397,1.395,1.397c3.381,0.004,6.119,2.742,6.122,6.126
			c0,0.769,0.625,1.394,1.395,1.394c0.769,0,1.393-0.625,1.393-1.394C24.44,19.545,20.451,15.558,15.534,15.558z M15.53,10.001
			c-0.766,0-1.391,0.62-1.391,1.39s0.625,1.393,1.391,1.393c6.45,0.012,11.669,5.228,11.681,11.684c0,0.769,0.625,1.394,1.392,1.394
			c0.769,0,1.396-0.625,1.396-1.394C29.994,16.477,23.521,10.001,15.53,10.001z"/>
	</g>
</g>
</svg>
