<?xml version="1.0" encoding="utf-8"?>
<!-- Generator: Adobe Illustrator 16.0.0, SVG Export Plug-In . SVG Version: 6.00 Build 0)  -->
<!DOCTYPE svg PUBLIC "-//W3C//DTD SVG 1.1//EN" "http://www.w3.org/Graphics/SVG/1.1/DTD/svg11.dtd">
<svg version="1.1" xmlns="http://www.w3.org/2000/svg" xmlns:xlink="http://www.w3.org/1999/xlink" x="0px" y="0px" width="40px"
	 height="40px" viewBox="0 0 40 40" enable-background="new 0 0 40 40" xml:space="preserve">
<g id="Ellipse_1_1_" enable-background="new    ">
	<g id="Ellipse_1">
		<g>
			<circle fill="#FFFFFF" cx="19.5" cy="18.5" r="7.5"/>
		</g>
	</g>
</g>
<g id="find_x5F_business_1_" enable-background="new    ">
	<g id="find_x5F_business">
		<g>
			<path fill="#555555" d="M28.054,18.47c0-4.737-3.839-8.577-8.576-8.577c-4.736,0-8.576,3.84-8.576,8.577
				c0,4.736,3.839,8.576,8.576,8.576C24.215,27.046,28.054,23.206,28.054,18.47z M19.479,24.948c-3.578,0-6.478-2.9-6.478-6.479
				s2.9-6.479,6.478-6.479c3.578,0,6.478,2.9,6.478,6.479S23.057,24.948,19.479,24.948z M30.48,26.492l-2.199-2.237
				c-1.043,1.585-2.505,2.863-4.225,3.696l2.484,2.525c0.727,0.736,1.907,0.736,2.635,0l1.305-1.318
				C31.209,28.422,31.209,27.229,30.48,26.492z"/>
		</g>
	</g>
</g>
</svg>
