<svg xmlns="http://www.w3.org/2000/svg" width="40" height="40" viewBox="0 0 40 40">
  <defs>
    <style>
      .cls-1 {
        fill: #fff;
        fill-rule: evenodd;
      }
    </style>
  </defs>
  <path id="find_business" class="cls-1" d="M30.481,29.158l-1.3,1.319a1.849,1.849,0,0,1-2.636,0l-2.484-2.526a10.569,10.569,0,0,0,4.224-3.7l2.2,2.238A1.9,1.9,0,0,1,30.481,29.158Zm-11-2.112a8.576,8.576,0,1,1,8.576-8.576A8.576,8.576,0,0,1,19.478,27.046Zm0-15.055a6.478,6.478,0,1,0,6.478,6.478A6.478,6.478,0,0,0,19.478,11.991Z"/>
</svg>
