<?xml version="1.0" encoding="utf-8"?>
<!-- Generator: Adobe Illustrator 16.0.0, SVG Export Plug-In . SVG Version: 6.00 Build 0)  -->
<!DOCTYPE svg PUBLIC "-//W3C//DTD SVG 1.1//EN" "http://www.w3.org/Graphics/SVG/1.1/DTD/svg11.dtd">
<svg version="1.1" xmlns="http://www.w3.org/2000/svg" xmlns:xlink="http://www.w3.org/1999/xlink" x="0px" y="0px" width="40px"
	 height="40px" viewBox="0 0 40 40" enable-background="new 0 0 40 40" xml:space="preserve">
<g id="white_1_" enable-background="new    ">
	<g id="white">
		<g>
			<path fill-rule="evenodd" clip-rule="evenodd" fill="#FFFFFF" d="M32,5.008c-3.167,0-5.841,2.105-6.704,4.992H12l-3,3.03V17h2v13
				h18V18.325c0.91,0.434,1.925,0.683,3,0.683c3.866,0,7-3.135,7-7C39,8.142,35.866,5.008,32,5.008z"/>
		</g>
	</g>
</g>
<g id="sign_up_1_" enable-background="new    ">
	<g id="sign_up">
		<g>
			<path fill-rule="evenodd" clip-rule="evenodd" fill="#555555" d="M16.003,22.714c0,1.121,0,0.772,0,2.572
				c0,1.713-0.001,1.714,1.497,1.714c1.499,0,1.497-0.001,1.497-1.714c0-1.8,0-1.451,0-2.572c0-1.713,0.002-1.714-1.497-1.714
				C16.001,21,16.003,21.001,16.003,22.714z M8,31h24c0-1.637-0.48-2-2-2v-7.186c-0.696-0.141-1.364-0.357-2-0.634v7.825h-5.006
				L22,30h-4l-0.994-0.994H12V19h12.842c-0.593-0.605-1.104-1.288-1.529-2.028c-0.103,0.011-0.205,0.021-0.313,0.021
				c-1.102,0-2-0.597-2-1.331v-2.66h1.037c-0.033-0.328-0.051-0.659-0.051-0.995c0-1.048,0.162-2.058,0.461-3.007H9.75L7,12.963
				v2.704C7,17.303,8.482,19,10,19v10C8.482,29,8,29.363,8,31z M15,13.002h4v2.66c0,0.734-0.896,1.331-2,1.331
				c-1.102,0-2-0.597-2-1.331V13.002z M9,15.662v-2.66h4v2.66c0,0.734-0.896,1.331-2,1.331C9.898,16.993,9,16.396,9,15.662z
				 M21.003,22.714c0,1.121,0,0.772,0,2.572c0,1.713-0.001,1.714,1.497,1.714c1.499,0,1.497-0.001,1.497-1.714
				c0-1.8,0-1.451,0-2.572c0-1.713,0.002-1.714-1.497-1.714C21.002,21,21.003,21.001,21.003,22.714z"/>
		</g>
	</g>
</g>
<g id="green_1_" enable-background="new    ">
	<g id="green">
		<g>
			<path fill-rule="evenodd" clip-rule="evenodd" fill="#44CE5E" d="M32,4.009c-4.418,0-8,3.581-8,8c0,4.418,3.582,8,8,8
				s8-3.582,8-8C40,7.59,36.418,4.009,32,4.009z M36,12.5c0,0.276-0.224,0.5-0.5,0.5H33v2.5c0,0.276-0.224,0.5-0.5,0.5h-1
				c-0.276,0-0.5-0.224-0.5-0.5V13h-2.5c-0.276,0-0.5-0.224-0.5-0.5v-1c0-0.276,0.224-0.5,0.5-0.5H31V8.5C31,8.224,31.224,8,31.5,8
				h1C32.776,8,33,8.224,33,8.5V11h2.5c0.276,0,0.5,0.224,0.5,0.5V12.5z"/>
		</g>
	</g>
</g>
</svg>
