<?xml version="1.0" encoding="utf-8"?>
<!-- Generator: Adobe Illustrator 16.0.0, SVG Export Plug-In . SVG Version: 6.00 Build 0)  -->
<!DOCTYPE svg PUBLIC "-//W3C//DTD SVG 1.1//EN" "http://www.w3.org/Graphics/SVG/1.1/DTD/svg11.dtd">
<svg version="1.1" xmlns="http://www.w3.org/2000/svg" xmlns:xlink="http://www.w3.org/1999/xlink" x="0px" y="0px" width="40px"
	 height="40px" viewBox="0 0 40 40" enable-background="new 0 0 40 40" xml:space="preserve">
<g id="sign_in_5_" enable-background="new    ">
	<g id="sign_in">
		<g>
			<path fill="#44CE5E" d="M31,7H9C7.896,7,7,7.896,7,9v22c0,1.104,0.896,2,2,2h22c1.104,0,2-0.896,2-2V9C33,7.896,32.104,7,31,7z"
				/>
		</g>
	</g>
</g>
<g id="sign_in_4_" opacity="0.102" enable-background="new    ">
	<g id="sign_in_1_">
		<g>
			<path d="M24,20.989h-8c-0.552,0-1,0.448-1,1v6c0,0.553,0.448,1,1,1h8c0.553,0,1-0.447,1-1v-6C25,21.438,24.553,20.989,24,20.989z
				 M21,26.989h-2v-4h2V26.989z M18,16.989h4v3h2v-3c0-1.104-0.896-2-2-2h-4c-1.104,0-2,0.896-2,2v3h2V16.989z"/>
		</g>
	</g>
</g>
<g id="sign_in_3_" enable-background="new    ">
	<g id="sign_in_2_">
		<g>
			<path fill="#FFFFFF" d="M18,14.989h4v3h2v-3c0-1.104-0.896-2-2-2h-4c-1.104,0-2,0.896-2,2v3h2V14.989z M24,18.989h-8
				c-0.552,0-1,0.448-1,1v6c0,0.553,0.448,1,1,1h8c0.553,0,1-0.447,1-1v-6C25,19.438,24.553,18.989,24,18.989z M21,24.989h-2v-4h2
				V24.989z"/>
		</g>
	</g>
</g>
</svg>
