<?xml version="1.0" encoding="utf-8"?>
<!-- Generator: Adobe Illustrator 16.0.0, SVG Export Plug-In . SVG Version: 6.00 Build 0)  -->
<!DOCTYPE svg PUBLIC "-//W3C//DTD SVG 1.1//EN" "http://www.w3.org/Graphics/SVG/1.1/DTD/svg11.dtd">
<svg version="1.1" xmlns="http://www.w3.org/2000/svg" xmlns:xlink="http://www.w3.org/1999/xlink" x="0px" y="0px" width="40px"
	 height="40px" viewBox="0 0 40 40" enable-background="new 0 0 40 40" xml:space="preserve">
<g id="white_1_" enable-background="new    ">
	<g id="white">
		<g>
			<path fill="#FFFFFF" d="M28.35,18.5c-0.143,0-0.275,0.029-0.414,0.043c0.26-0.594,0.414-1.248,0.414-1.941
				c0-2.622-2.077-4.746-4.639-4.746c-0.838,0-1.611,0.244-2.289,0.642c-0.843-2.051-2.822-3.489-5.132-3.489
				c-3.075,0-5.566,2.549-5.566,5.695c0,0.749,0.15,1.461,0.408,2.117c-2.368,0.656-4.118,2.848-4.118,5.477
				c0,3.146,2.491,6.695,5.566,6.695H28.35c2.562,0,4.638-3.124,4.638-5.746C32.987,20.625,30.911,18.5,28.35,18.5z"/>
		</g>
	</g>
</g>
<g id="technology_1_" enable-background="new    ">
	<g id="technology">
		<g>
			<path fill-rule="evenodd" clip-rule="evenodd" fill="#555555" d="M17.5,18c-1.499,0-1.497,0.001-1.497,1.714
				c0,1.121,0,0.772,0,2.572c0,1.713-0.001,1.714,1.497,1.714s1.497-0.001,1.497-1.714c0-1.8,0-1.451,0-2.572
				C18.997,18.001,18.999,18,17.5,18z M22.5,18c-1.498,0-1.497,0.001-1.497,1.714c0,1.121,0,0.772,0,2.572
				c0,1.713-0.001,1.714,1.497,1.714s1.497-0.001,1.497-1.714c0-1.8,0-1.451,0-2.572C23.997,18.001,23.998,18,22.5,18z
				 M29.619,17.432c0.004-0.088,0.006-0.176,0.006-0.265c0-3.538-2.748-6.417-6.125-6.417c-0.477,0-0.944,0.059-1.402,0.176
				C20.795,9.108,18.739,8,16.5,8c-3.861,0-7,3.291-7,7.333c0,0.324,0.021,0.648,0.063,0.967C7.403,17.578,6,19.994,6,22.667
				C6,26.711,9.139,30,13,30h14.875C31.252,30,34,27.121,34,23.583C34,20.68,32.15,18.22,29.619,17.432z M22,29.011h-4l-1-1h6
				L22,29.011z M27.707,27.993H13.149c-2.838,0-5.138-2.415-5.138-5.396c0-2.49,1.616-4.566,3.801-5.188
				c-0.237-0.621-0.376-1.296-0.376-2.005c0-2.981,2.3-5.396,5.138-5.396c2.132,0,3.959,1.363,4.738,3.306
				c0.625-0.376,1.34-0.607,2.113-0.607c2.364,0,4.281,2.013,4.281,4.496c0,0.657-0.142,1.277-0.383,1.839
				c0.129-0.012,0.252-0.04,0.383-0.04c2.365,0,4.281,2.013,4.281,4.496C31.988,25.98,30.072,27.993,27.707,27.993z"/>
		</g>
	</g>
</g>
</svg>
