<?xml version="1.0" encoding="utf-8"?>
<!-- Generator: Adobe Illustrator 16.0.0, SVG Export Plug-In . SVG Version: 6.00 Build 0)  -->
<!DOCTYPE svg PUBLIC "-//W3C//DTD SVG 1.1//EN" "http://www.w3.org/Graphics/SVG/1.1/DTD/svg11.dtd">
<svg version="1.1" xmlns="http://www.w3.org/2000/svg" xmlns:xlink="http://www.w3.org/1999/xlink" x="0px" y="0px" width="40px"
	 height="40px" viewBox="0 0 40 40" enable-background="new 0 0 40 40" xml:space="preserve">
<g id="user_3_" opacity="0.102" enable-background="new    ">
	<g id="user">
		<g>
			<path fill-rule="evenodd" clip-rule="evenodd" d="M28.807,26.413l-0.251-1.031c-0.291-0.984-0.681-1.803-1.107-2.493
				c-1.47-0.754-2.729-1.856-3.665-3.205c-0.215,0.149-1.4,0.968-1.809,1.207c0.074,0.074,0.977,0.566,0.977,0.566
				c2.345,1.154,3.875,4.098,3.875,6.921c0,1.021-3.277,2.542-6.803,2.542c-4.365,0-6.786-1.558-6.804-2.556
				c-0.05-2.788,1.46-5.729,3.855-6.907l0.879-0.566c-0.967-0.445-1.737-1.237-1.737-1.237s-3.382,1.183-4.727,5.729l-0.247,1.013
				l-0.008,0.038c-0.12,0.646-0.181,1.299-0.181,1.945c0,3.501,4.831,4.663,8.968,4.663c4.137,0,8.968-1.162,8.968-4.663
				c0-0.646-0.061-1.3-0.181-1.945L28.807,26.413z M32,6.009c-4.418,0-8,3.581-8,8c0,4.418,3.582,8,8,8s8-3.582,8-8
				C40,9.59,36.418,6.009,32,6.009z M35.891,16.962l-0.944,0.944c-0.13,0.131-0.354,0.117-0.502-0.029l-2.879-2.865h-0.233
				c-0.185,0-0.334-0.168-0.334-0.376V9.364c0-0.207,0.149-0.376,0.334-0.376h1.336c0.185,0,0.334,0.169,0.334,0.376v4.25
				l2.859,2.846C36.008,16.606,36.021,16.831,35.891,16.962z M20.023,19.797c1.196,0,2.279-0.437,3.137-1.136
				c-0.315-0.596-0.569-1.229-0.76-1.889c-0.549,0.708-1.405,1.174-2.378,1.174c-1.655,0-3.001-1.327-3.001-2.959
				c0-1.631,1.346-2.958,3.001-2.958c0.794,0,1.512,0.311,2.049,0.809c0.084-0.728,0.25-1.429,0.48-2.1
				c-0.742-0.439-1.602-0.707-2.528-0.707c-2.731,0-4.954,2.19-4.954,4.883S17.292,19.797,20.023,19.797z"/>
		</g>
	</g>
</g>
<g id="user_2_" enable-background="new    ">
	<g id="user_1_">
		<g>
			<path fill-rule="evenodd" clip-rule="evenodd" fill="#FFFFFF" d="M28.807,24.413l-0.251-1.031
				c-0.291-0.984-0.681-1.803-1.107-2.493c-1.47-0.754-2.729-1.856-3.665-3.205c-0.215,0.149-1.4,0.969-1.809,1.207
				c0.074,0.074,0.977,0.566,0.977,0.566c2.345,1.154,3.875,4.098,3.875,6.921c0,1.021-3.277,2.542-6.803,2.542
				c-4.365,0-6.786-1.558-6.804-2.556c-0.05-2.788,1.46-5.729,3.855-6.907l0.879-0.566c-0.967-0.445-1.737-1.237-1.737-1.237
				s-3.382,1.183-4.727,5.729l-0.247,1.013l-0.008,0.038c-0.12,0.646-0.181,1.299-0.181,1.945c0,3.501,4.831,4.663,8.968,4.663
				c4.137,0,8.968-1.162,8.968-4.663c0-0.646-0.061-1.3-0.181-1.945L28.807,24.413z M20.023,17.797c1.196,0,2.279-0.437,3.137-1.136
				c-0.315-0.596-0.569-1.229-0.76-1.889c-0.549,0.708-1.405,1.174-2.378,1.174c-1.655,0-3.001-1.327-3.001-2.959
				c0-1.631,1.346-2.958,3.001-2.958c0.794,0,1.512,0.311,2.049,0.809c0.084-0.728,0.25-1.429,0.48-2.1
				c-0.742-0.439-1.602-0.707-2.528-0.707c-2.731,0-4.954,2.19-4.954,4.883S17.292,17.797,20.023,17.797z M32,4.009
				c-4.418,0-8,3.581-8,8c0,4.418,3.582,8,8,8s8-3.582,8-8C40,7.59,36.418,4.009,32,4.009z M35.891,14.962l-0.944,0.944
				c-0.13,0.131-0.354,0.117-0.502-0.029l-2.879-2.865h-0.233c-0.185,0-0.334-0.168-0.334-0.376V7.364
				c0-0.207,0.149-0.376,0.334-0.376h1.336c0.185,0,0.334,0.169,0.334,0.376v4.25l2.859,2.846
				C36.008,14.606,36.021,14.831,35.891,14.962z"/>
		</g>
	</g>
</g>
</svg>
