<?xml version="1.0" encoding="utf-8"?>
<!-- Generator: Adobe Illustrator 16.0.0, SVG Export Plug-In . SVG Version: 6.00 Build 0)  -->
<!DOCTYPE svg PUBLIC "-//W3C//DTD SVG 1.1//EN" "http://www.w3.org/Graphics/SVG/1.1/DTD/svg11.dtd">
<svg version="1.1" xmlns="http://www.w3.org/2000/svg" xmlns:xlink="http://www.w3.org/1999/xlink" x="0px" y="0px" width="40px"
	 height="40px" viewBox="0 0 40 40" enable-background="new 0 0 40 40" xml:space="preserve">
<g id="white_1_" enable-background="new    ">
	<g id="white">
		<g>
			<path fill-rule="evenodd" clip-rule="evenodd" fill="#FFFFFF" d="M24.895,23.547l-0.002-0.011l-0.141-0.54
				c-0.75-2.379-2.635-2.998-2.635-2.998s-1.025-0.953-2.068-0.993c1.633-0.025,2.956-1.36,2.956-3c0-1.657-1.347-3.005-3.001-3.005
				c-1.654,0-3,1.348-3,3.005c0,1.633,1.311,2.961,2.933,2.998c-1.042,0.028-2.064,0.995-2.064,0.995s-1.885,0.619-2.635,2.999
				l-0.138,0.529l-0.004,0.021c-0.067,0.337-0.101,0.68-0.101,1.018c0,1.832,2.693,2.44,5,2.44c2.306,0,5-0.608,5-2.44
				C24.995,24.227,24.961,23.884,24.895,23.547z"/>
		</g>
	</g>
</g>
<g id="user_x5F_mini_1_" enable-background="new    ">
	<g id="user_x5F_mini">
		<g>
			<path fill-rule="evenodd" clip-rule="evenodd" fill="#555555" d="M25.873,23.56l-0.002-0.013l-0.168-0.694
				c-0.825-2.805-2.774-3.697-3.097-3.828c0.85-0.735,1.399-1.809,1.399-3.019c0-2.209-1.794-4.006-4-4.006
				c-2.206,0-4,1.797-4,4.006c0,1.207,0.546,2.277,1.392,3.013c-0.257,0.101-2.269,0.971-3.111,3.834l-0.165,0.682l-0.005,0.025
				c-0.08,0.435-0.121,0.874-0.121,1.31c0,2.355,3.232,3.138,6,3.138c2.767,0,6-0.782,6-3.138
				C25.994,24.435,25.953,23.994,25.873,23.56z M20.004,13.98c1.098,0,1.99,0.896,1.99,2c0,1.103-0.893,1.999-1.99,1.999
				c-1.097,0-1.99-0.896-1.99-1.999C18.014,14.877,18.907,13.98,20.004,13.98z M20.009,25.987c-2.569,0-3.993-0.932-4.004-1.528
				C15.975,22.791,17.59,20.704,19,20l-0.394-0.254c0.438,0.165,0.905,0.267,1.399,0.267c0.483,0,0.941-0.1,1.371-0.258L21,20
				c1.381,0.69,3.014,2.778,3.014,4.467C24.014,25.077,22.084,25.987,20.009,25.987z"/>
		</g>
	</g>
</g>
</svg>
