<?xml version="1.0" encoding="utf-8"?>
<!-- Generator: Adobe Illustrator 16.0.0, SVG Export Plug-In . SVG Version: 6.00 Build 0)  -->
<!DOCTYPE svg PUBLIC "-//W3C//DTD SVG 1.1//EN" "http://www.w3.org/Graphics/SVG/1.1/DTD/svg11.dtd">
<svg version="1.1" xmlns="http://www.w3.org/2000/svg" xmlns:xlink="http://www.w3.org/1999/xlink" x="0px" y="0px" width="40px"
	 height="40px" viewBox="0 0 40 40" enable-background="new 0 0 40 40" xml:space="preserve">
<g id="laptop_x5F_mobile_3_" opacity="0.102" enable-background="new    ">
	<g id="laptop_x5F_mobile">
		<g>
			<path fill-rule="evenodd" clip-rule="evenodd" d="M13,19.009h-2H9H7c-1.104,0-2,0.895-2,1.998v11.988
				c0,1.104,0.896,1.998,2,1.998h6c1.104,0,2-0.895,2-1.998v-0.991V32v-3v-0.01v-7.983C15,19.903,14.104,19.009,13,19.009z
				 M10,19.989l1,1H9L10,19.989z M10,34.011l-1-1h2L10,34.011z M14,31.995H6v-9.988h8V31.995z M31,29V15c0-1.104-0.896-2-2-2H11
				c-1.104,0-2,0.896-2,2v3.014h2V15h18v14H16v3h18v-2L31,29z M22,30.011h-4l-1-1h6L22,30.011z"/>
		</g>
	</g>
</g>
<g id="laptop_x5F_mobile_2_" enable-background="new    ">
	<g id="laptop_x5F_mobile_1_">
		<g>
			<path fill-rule="evenodd" clip-rule="evenodd" fill="#FFFFFF" d="M13,17.009H7c-1.104,0-2,0.895-2,1.998v11.988
				c0,1.104,0.896,1.998,2,1.998h6c1.104,0,2-0.895,2-1.998V19.007C15,17.903,14.104,17.009,13,17.009z M10,17.989l1,1H9L10,17.989z
				 M10,32.011l-1-1h2L10,32.011z M14,29.995H6v-9.988h8V29.995z M31,27V13c0-1.104-0.896-2-2-2H11c-1.104,0-2,0.896-2,2v3.014h2V13
				h18v14H16v3h18v-2L31,27z M22,28.011h-4l-1-1h6L22,28.011z"/>
		</g>
	</g>
</g>
</svg>
