<svg xmlns="http://www.w3.org/2000/svg" width="40" height="40" viewBox="0 0 40 40">
  <metadata><?xpacket begin="﻿" id="W5M0MpCehiHzreSzNTczkc9d"?>
<x:xmpmeta xmlns:x="adobe:ns:meta/" x:xmptk="Adobe XMP Core 5.6-c138 79.159824, 2016/09/14-01:09:01        ">
   <rdf:RDF xmlns:rdf="http://www.w3.org/1999/02/22-rdf-syntax-ns#">
      <rdf:Description rdf:about=""/>
   </rdf:RDF>
</x:xmpmeta>
                                                                                                    
                                                                                                    
                                                                                                    
                                                                                                    
                                                                                                    
                                                                                                    
                                                                                                    
                                                                                                    
                                                                                                    
                                                                                                    
                                                                                                    
                                                                                                    
                                                                                                    
                                                                                                    
                                                                                                    
                                                                                                    
                                                                                                    
                                                                                                    
                                                                                                    
                                                                                                    
                           
<?xpacket end="w"?></metadata>
<defs>
    <style>
      .cls-1 {
        fill: #fff;
      }

      .cls-1, .cls-2 {
        fill-rule: evenodd;
      }

      .cls-2 {
        fill: #555;
      }
    </style>
  </defs>
  <path id="white" class="cls-1" d="M14,29v1H11v2H9V30H6V20H9V18h1V12H30V29H14Z"/>
  <path id="laptop_mobile" class="cls-2" d="M16,30V27H31l3,1h0v2H16Zm1-2.99,1,1h4l1-1H17ZM29,13H11v3.014H9V13a2,2,0,0,1,2-2H29a2,2,0,0,1,2,2V27H29V13ZM9,17.009h4a2,2,0,0,1,2,2V31a2,2,0,0,1-2,2H7a2,2,0,0,1-2-2V19.006a2,2,0,0,1,2-2H9Zm1,0.981-1,1h2ZM10,32.01l1-1H9Zm-4-12V30h8V20.006H6Z"/>
</svg>
