<?xml version="1.0" encoding="utf-8"?>
<!-- Generator: Adobe Illustrator 16.0.0, SVG Export Plug-In . SVG Version: 6.00 Build 0)  -->
<!DOCTYPE svg PUBLIC "-//W3C//DTD SVG 1.1//EN" "http://www.w3.org/Graphics/SVG/1.1/DTD/svg11.dtd">
<svg version="1.1" id="x_1_" xmlns="http://www.w3.org/2000/svg" xmlns:xlink="http://www.w3.org/1999/xlink" x="0px" y="0px"
	 width="40px" height="40px" viewBox="0 0 40 40" enable-background="new 0 0 40 40" xml:space="preserve">
<g id="x">
	<g>
		<path fill-rule="evenodd" clip-rule="evenodd" fill="#555555" d="M22.166,20l4.542-4.643c0.373-0.382,0.373-1,0-1.382l-0.675-0.69
			c-0.373-0.381-0.979-0.381-1.352,0L20,18.073l-4.682-4.788c-0.373-0.381-0.978-0.381-1.351,0l-0.675,0.69
			c-0.373,0.382-0.373,1,0,1.382L17.833,20l-4.541,4.643c-0.373,0.382-0.373,1,0,1.382l0.675,0.69c0.373,0.381,0.978,0.381,1.351,0
			L20,21.928l4.682,4.787c0.373,0.381,0.979,0.381,1.352,0l0.675-0.69c0.373-0.382,0.373-1,0-1.382L22.166,20z"/>
	</g>
</g>
</svg>
