<?xml version="1.0" encoding="utf-8"?>
<!-- Generator: Adobe Illustrator 16.0.0, SVG Export Plug-In . SVG Version: 6.00 Build 0)  -->
<!DOCTYPE svg PUBLIC "-//W3C//DTD SVG 1.1//EN" "http://www.w3.org/Graphics/SVG/1.1/DTD/svg11.dtd">
<svg version="1.1" xmlns="http://www.w3.org/2000/svg" xmlns:xlink="http://www.w3.org/1999/xlink" x="0px" y="0px" width="40px"
	 height="40px" viewBox="0 0 40 40" enable-background="new 0 0 40 40" xml:space="preserve">
<g id="x_x5F_mini_3_" opacity="0.102" enable-background="new    ">
	<g id="x_x5F_mini">
		<g>
			<path fill-rule="evenodd" clip-rule="evenodd" d="M22.285,21.835l2.576-2.574c0.195-0.194,0.194-0.51-0.001-0.704l-1.414-1.413
				c-0.194-0.195-0.511-0.195-0.706-0.001l-2.574,2.571l-2.572-2.575c-0.194-0.194-0.51-0.194-0.705,0.001l-1.413,1.414
				c-0.195,0.195-0.196,0.511-0.001,0.705l2.57,2.573l-2.577,2.574c-0.194,0.194-0.194,0.51,0.001,0.705l1.414,1.413
				c0.195,0.194,0.511,0.195,0.706,0.001l2.575-2.572l2.576,2.578c0.193,0.194,0.51,0.194,0.704-0.001l1.413-1.414
				c0.195-0.195,0.195-0.511,0.001-0.705L22.285,21.835z"/>
		</g>
	</g>
</g>
<g id="x_x5F_mini_2_" enable-background="new    ">
	<g id="x_x5F_mini_1_">
		<g>
			<path fill-rule="evenodd" clip-rule="evenodd" fill="#FFFFFF" d="M22.285,19.834l2.576-2.574c0.195-0.194,0.194-0.51-0.001-0.704
				l-1.414-1.413c-0.194-0.195-0.511-0.195-0.706-0.001l-2.574,2.571l-2.572-2.575c-0.194-0.194-0.51-0.194-0.705,0.001
				l-1.413,1.414c-0.195,0.195-0.196,0.511-0.001,0.705l2.57,2.573l-2.577,2.574c-0.194,0.194-0.194,0.51,0.001,0.705l1.414,1.413
				c0.195,0.194,0.511,0.195,0.706,0.001l2.575-2.572l2.576,2.578c0.193,0.194,0.51,0.194,0.704-0.001l1.413-1.414
				c0.195-0.195,0.195-0.511,0.001-0.705L22.285,19.834z"/>
		</g>
	</g>
</g>
</svg>
