<?xml version="1.0" encoding="utf-8"?>
<!-- Generator: Adobe Illustrator 16.0.3, SVG Export Plug-In . SVG Version: 6.00 Build 0)  -->
<!DOCTYPE svg PUBLIC "-//W3C//DTD SVG 1.1//EN" "http://www.w3.org/Graphics/SVG/1.1/DTD/svg11.dtd">
<svg version="1.1" xmlns="http://www.w3.org/2000/svg" xmlns:xlink="http://www.w3.org/1999/xlink" x="0px" y="0px" width="80px"
	 height="80px" viewBox="0 0 80 80" enable-background="new 0 0 80 80" xml:space="preserve">
<g id="Rounded_box_1_" enable-background="new    ">
	<g id="Rounded_box">
		<g>
			<path fill="#44CE5E" d="M74,0H6C2.686,0,0,2.686,0,6v68c0,3.313,2.686,6,6,6h68c3.313,0,6-2.687,6-6V6C80,2.686,77.313,0,74,0z"
				/>
		</g>
	</g>
</g>
<g id="Gradient_Shine_xA0_Image_1_" display="none" opacity="0.102">
	
		<image display="inline" overflow="visible" width="80" height="78" id="Gradient_Shine_xA0_Image" xlink:href="35AC1B4E.png"  transform="matrix(1 0 0 1 0 2)">
	</image>
</g>
<g id="Color_Fill_1_1_" enable-background="new    ">
	<g id="Color_Fill_1">
		<g>
			<linearGradient id="SVGID_1_" gradientUnits="userSpaceOnUse" x1="35.603" y1="36.0132" x2="78.0384" y2="78.4486">
				<stop  offset="0" style="stop-color:#000000;stop-opacity:0.05"/>
				<stop  offset="1" style="stop-color:#000000;stop-opacity:0"/>
			</linearGradient>
			<path fill="url(#SVGID_1_)" d="M79.621,3.963C51.457,20.033,19.702,46.799,1.063,77.4C2.146,78.969,3.951,80,6,80h68
				c3.313,0,6-2.687,6-6V6C80,5.281,79.853,4.602,79.621,3.963z"/>
		</g>
	</g>
</g>
</svg>
