<?xml version="1.0" encoding="utf-8"?>
<!-- Generator: Adobe Illustrator 16.0.3, SVG Export Plug-In . SVG Version: 6.00 Build 0)  -->
<!DOCTYPE svg PUBLIC "-//W3C//DTD SVG 1.1//EN" "http://www.w3.org/Graphics/SVG/1.1/DTD/svg11.dtd">
<svg version="1.1" id="Layer_1" xmlns="http://www.w3.org/2000/svg" xmlns:xlink="http://www.w3.org/1999/xlink" x="0px" y="0px"
	 width="118px" height="118px" viewBox="0 0 118 118" enable-background="new 0 0 118 118" xml:space="preserve">
<g id="O_-_Button_Shadow_3_" opacity="0.051" enable-background="new    ">
	<g id="O_-_Button_Shadow">
		<g>
			<circle cx="59" cy="62" r="55"/>
		</g>
	</g>
</g>
<g id="O_-_Button_Shadow_2_" enable-background="new    ">
	<g id="O_-_Button_Shadow_1_">
		<g>
			<circle fill="#FFFFFF" cx="59" cy="59" r="55"/>
		</g>
	</g>
</g>
<g id="O_-_Dashed">
	<g opacity="0.1">
		<path d="M57.021,109.464c-1.356-0.053-2.719-0.159-4.052-0.319l0.119-0.992c1.306,0.156,2.642,0.262,3.971,0.313L57.021,109.464z
			 M61.086,109.46l-0.041-1c1.329-0.055,2.665-0.162,3.971-0.319l0.121,0.991C63.805,109.294,62.441,109.402,61.086,109.46z
			 M48.958,108.503c-1.321-0.267-2.649-0.591-3.949-0.965l0.276-0.961c1.273,0.366,2.576,0.685,3.87,0.944L48.958,108.503z
			 M69.148,108.482l-0.199-0.98c1.292-0.264,2.594-0.584,3.867-0.954l0.279,0.961C71.796,107.886,70.468,108.213,69.148,108.482z
			 M41.151,106.257c-1.261-0.477-2.521-1.013-3.744-1.592l0.429-0.904c1.198,0.568,2.433,1.095,3.669,1.562L41.151,106.257z
			 M76.95,106.219l-0.354-0.934c1.238-0.473,2.471-1,3.66-1.565l0.43,0.902C79.473,105.2,78.215,105.737,76.95,106.219z
			 M33.804,102.777c-1.167-0.672-2.323-1.403-3.438-2.172l0.567-0.823c1.093,0.754,2.227,1.47,3.37,2.129L33.804,102.777z
			 M84.277,102.73l-0.5-0.865c1.139-0.659,2.271-1.377,3.365-2.135l0.567,0.821C86.596,101.325,85.439,102.059,84.277,102.73z
			 M27.115,98.165c-1.044-0.853-2.069-1.757-3.045-2.692l0.691-0.723c0.958,0.917,1.962,1.807,2.986,2.641L27.115,98.165z
			 M90.957,98.107l-0.633-0.775c1.018-0.831,2.021-1.721,2.98-2.645l0.692,0.722C93.02,96.352,91.996,97.259,90.957,98.107z
			 M21.249,92.545c-0.897-1.009-1.765-2.066-2.577-3.143l0.798-0.604c0.797,1.057,1.647,2.092,2.526,3.081L21.249,92.545z
			 M96.813,92.477l-0.748-0.664c0.877-0.987,1.726-2.025,2.521-3.086l0.799,0.603C98.573,90.408,97.707,91.468,96.813,92.477z
			 M16.355,86.063c-0.726-1.143-1.413-2.323-2.041-3.515l0.885-0.467c0.616,1.166,1.289,2.325,2,3.444L16.355,86.063z
			 M101.697,85.982l-0.846-0.534c0.709-1.119,1.381-2.28,1.996-3.451l0.885,0.465C103.105,83.656,102.42,84.841,101.697,85.982z
			 M12.564,78.884c-0.532-1.239-1.019-2.518-1.448-3.796l0.948-0.318c0.42,1.254,0.898,2.506,1.419,3.721L12.564,78.884z
			 M105.479,78.789l-0.92-0.393c0.52-1.22,0.994-2.475,1.412-3.729l0.949,0.315C106.492,76.266,106.007,77.545,105.479,78.789z
			 M9.979,71.186c-0.325-1.313-0.6-2.651-0.817-3.981l0.987-0.16c0.212,1.304,0.481,2.615,0.8,3.902L9.979,71.186z M108.048,71.079
			l-0.971-0.238c0.315-1.282,0.582-2.597,0.793-3.903l0.985,0.157C108.643,68.43,108.37,69.77,108.048,71.079z M8.669,63.17
			C8.56,61.828,8.502,60.462,8.5,59.108l1-0.002c0.003,1.328,0.059,2.667,0.167,3.981L8.669,63.17z M109.341,63.061l-0.995-0.08
			c0.104-1.313,0.156-2.653,0.156-3.979l-0.001-0.215h1l0.001,0.208C109.502,60.354,109.448,61.719,109.341,63.061z M9.648,55.125
			l-0.997-0.077c0.104-1.348,0.265-2.707,0.476-4.037l0.987,0.157C9.908,52.473,9.751,53.804,9.648,55.125z M108.328,54.807
			c-0.113-1.329-0.278-2.659-0.493-3.954l0.985-0.163c0.22,1.321,0.389,2.677,0.504,4.032L108.328,54.807z M10.898,47.263
			l-0.972-0.236c0.32-1.314,0.696-2.628,1.12-3.908l0.949,0.314C11.581,44.687,11.212,45.976,10.898,47.263z M107.025,46.952
			c-0.322-1.286-0.7-2.571-1.123-3.822l0.947-0.32c0.432,1.276,0.816,2.588,1.146,3.899L107.025,46.952z M13.401,39.702l-0.921-0.39
			c0.526-1.241,1.11-2.479,1.738-3.678l0.886,0.463C14.49,37.272,13.917,38.485,13.401,39.702z M104.477,39.414
			c-0.523-1.215-1.104-2.423-1.724-3.59l0.883-0.469c0.632,1.19,1.224,2.422,1.759,3.662L104.477,39.414z M17.092,32.643
			l-0.846-0.533c0.72-1.143,1.496-2.27,2.304-3.35l0.801,0.6C18.558,30.417,17.798,31.522,17.092,32.643z M100.743,32.384
			c-0.709-1.112-1.476-2.211-2.276-3.268l0.797-0.604c0.817,1.079,1.6,2.2,2.323,3.334L100.743,32.384z M21.866,26.266l-0.75-0.661
			c0.894-1.014,1.839-2.002,2.809-2.939l0.694,0.72C23.668,24.304,22.742,25.273,21.866,26.266z M95.936,26.04
			c-0.883-0.987-1.813-1.951-2.771-2.864l0.689-0.724c0.977,0.932,1.928,1.915,2.826,2.921L95.936,26.04z M27.594,20.734
			l-0.635-0.772c1.042-0.857,2.133-1.682,3.241-2.453l0.571,0.821C29.685,19.085,28.616,19.895,27.594,20.734z M90.172,20.543
			c-1.025-0.833-2.1-1.636-3.191-2.386l0.565-0.824c1.114,0.765,2.21,1.584,3.257,2.434L90.172,20.543z M34.13,16.19l-0.503-0.864
			c1.167-0.68,2.375-1.319,3.591-1.901l0.432,0.902C36.459,14.896,35.274,15.523,34.13,16.19z M83.604,16.036
			c-1.146-0.659-2.336-1.279-3.533-1.843l0.426-0.904c1.223,0.576,2.436,1.208,3.605,1.88L83.604,16.036z M41.307,12.753
			L40.95,11.82c1.262-0.483,2.558-0.919,3.853-1.298l0.28,0.96C43.814,11.853,42.543,12.28,41.307,12.753z M76.398,12.641
			c-1.241-0.465-2.516-0.885-3.784-1.248l0.274-0.962c1.295,0.37,2.594,0.798,3.86,1.273L76.398,12.641z M48.949,10.519L48.747,9.54
			c1.317-0.272,2.667-0.494,4.011-0.66l0.122,0.992C51.563,10.035,50.24,10.252,48.949,10.519z M68.741,10.456
			c-1.298-0.259-2.622-0.468-3.935-0.621l0.114-0.993c1.34,0.156,2.69,0.37,4.015,0.634L68.741,10.456z M56.849,9.544l-0.043-0.999
			c1.347-0.058,2.711-0.063,4.066-0.013l-0.037,0.999C59.514,9.483,58.169,9.488,56.849,9.544z"/>
	</g>
</g>
<g id="O_5_" opacity="0.102" enable-background="new    ">
	<g id="O">
		<g>
			<circle cx="98" cy="21.999" r="20"/>
		</g>
	</g>
</g>
<g id="O_4_" enable-background="new    ">
	<g id="O_1_">
		<g>
			<circle fill="#FFFFFF" cx="98" cy="19.999" r="20"/>
		</g>
	</g>
</g>
<g id="O_3_" enable-background="new    ">
	<g id="O_2_">
		<g>
			<circle fill="#44CE5E" cx="98" cy="19.999" r="16"/>
		</g>
	</g>
</g>
<path opacity="0.1" fill-rule="evenodd" clip-rule="evenodd" d="M104.229,19.186l-0.478,0.479l-4.398-4.398l0.73-0.729l0,0
	l0.455-0.477c0.363-0.363,0.713-0.562,1.069-0.562c0.649,0,1.211,0.582,1.86,1.254c0.124,0.129,0.645,0.65,0.773,0.774
	c0.67,0.647,1.248,1.206,1.254,1.852c0.003,0.36-0.174,0.713-0.54,1.079L104.229,19.186z M102.664,20.752l-5.912,5.914l-4.406-4.407
	l5.919-5.906L102.664,20.752z M90.622,28.495c-0.009,0.002-0.018,0.004-0.026,0.004c-0.023,0-0.047-0.008-0.064-0.025
	c-0.024-0.023-0.033-0.057-0.023-0.089l0.772-5.017l4.354,4.354L90.622,28.495z"/>
<path fill-rule="evenodd" clip-rule="evenodd" fill="#FFFFFF" d="M104.229,17.186l-0.478,0.479l-4.398-4.398l0.73-0.729l0,0
	l0.455-0.477c0.363-0.363,0.713-0.562,1.069-0.562c0.649,0,1.211,0.582,1.86,1.254c0.124,0.129,0.645,0.65,0.773,0.774
	c0.67,0.647,1.248,1.206,1.254,1.852c0.003,0.36-0.174,0.713-0.54,1.079L104.229,17.186z M102.664,18.752l-5.912,5.914l-4.406-4.407
	l5.919-5.906L102.664,18.752z M90.622,26.495c-0.009,0.002-0.018,0.004-0.026,0.004c-0.023,0-0.047-0.008-0.064-0.025
	c-0.024-0.023-0.033-0.057-0.023-0.089l0.772-5.017l4.354,4.354L90.622,26.495z"/>
<path fill-rule="evenodd" clip-rule="evenodd" fill="#5D5D5D" d="M81.054,63.819c0,0.09-0.453,9.46-3.731,14.125
	c-4.646,6.602-12.476,9.556-18.323,7.012c-1.433,0.626-2.984,0.944-4.631,0.944c-0.005,0,0,0-0.005,0
	c-5.06,0-10.177-2.974-13.682-7.956c-3.279-4.666-3.732-14.035-3.732-14.126c0-9.01,6.943-16.335,15.474-16.335
	c1.506,0,2.967,0.318,4.397,0.792c0.177-1.338,0.6-3.306,1.606-5.231c-1.724,0.938-3.627,1.457-5.554,1.457
	c-2.099,0-4.168-0.592-5.987-1.72c-3.661-2.258-5.926-6.478-5.922-11.01c0-0.856,0.433-1.644,1.139-2.064
	c3.673-2.196,8.342-2.206,11.98,0.038c3.651,2.26,5.914,6.47,5.916,10.989c0.923-1.06,2.097-2.009,3.606-2.698
	c1.171-0.534,2.538,0.034,3.044,1.273c0.506,1.237-0.032,2.679-1.207,3.214c-2.601,1.188-3.552,3.829-3.904,5.62
	c1.321-0.397,2.664-0.658,4.044-0.658C74.109,47.483,81.054,54.809,81.054,63.819z M52.146,33.12
	c-2.13-1.482-4.767-1.751-7.091-0.781c0.432,2.915,1.881,5.435,4.06,6.945c2.134,1.473,4.771,1.756,7.091,0.781
	C55.772,37.15,54.323,34.633,52.146,33.12z M60.222,53.355c-0.756,0.468-1.684,0.468-2.44-0.004
	c-1.798-1.12-3.699-1.695-5.657-1.695c-6.253,0-11.336,5.452-11.341,12.041c0.093,1.771,0.854,9.008,2.95,12.035
	c3.703,5.34,10.032,7.785,14.104,5.391c0.364-0.213,0.76-0.319,1.163-0.319c0.403,0,0.801,0.105,1.165,0.319
	c4.071,2.378,10.404-0.051,14.107-5.391c2.094-3.027,2.855-10.264,2.946-11.913c0-6.711-5.084-12.163-11.336-12.163
	C63.925,51.656,62.023,52.231,60.222,53.355z M67.015,63.929c0,2.242,0,1.545,0,5.143c0,3.428,0.003,3.429-3.002,3.429
	c-3.004,0-3.001-0.001-3.001-3.429c0-3.598,0-2.9,0-5.143c0-3.428-0.003-3.429,3.001-3.429C67.018,60.5,67.015,60.501,67.015,63.929
	z M53.989,72.5c-3.004,0-3.001-0.001-3.001-3.429c0-3.598,0-2.9,0-5.143c0-3.428-0.003-3.429,3.001-3.429
	c3.005,0,3.001,0.001,3.001,3.429c0,2.242,0,1.545,0,5.143C56.99,72.499,56.994,72.5,53.989,72.5z"/>
</svg>
