<?xml version="1.0" encoding="utf-8"?>
<!-- Generator: Adobe Illustrator 16.0.0, SVG Export Plug-In . SVG Version: 6.00 Build 0)  -->
<!DOCTYPE svg PUBLIC "-//W3C//DTD SVG 1.1//EN" "http://www.w3.org/Graphics/SVG/1.1/DTD/svg11.dtd">
<svg version="1.1" id="Layer_1" xmlns="http://www.w3.org/2000/svg" xmlns:xlink="http://www.w3.org/1999/xlink" x="0px" y="0px"
	 width="37px" height="60px" viewBox="11.995 0 37 60" enable-background="new 11.995 0 37 60" xml:space="preserve">
<g id="booxi">
	<path opacity="0.9" fill="#333333" enable-background="new    " d="M47.453,26.003H13.539c-1.526,0-1.539-0.011-1.539-1.398
		s0-1.87,0-2.797c0-2.795-0.077-2.809,3-2.809s3.119,0.012,3.119,2.663c0,1.33-0.008,1.326,1.549,1.326c1.558,0,17.137,0,21.747,0
		c1.522,0,1.532,0.002,1.532-1.328c0-2.651,0.031-2.661,3.053-2.661c2.958,0,2.995,0.014,2.995,2.809c0,0.927,0,1.409,0,2.797
		S48.982,26.003,47.453,26.003z"/>
	<path opacity="0.9" fill="#333333" enable-background="new    " d="M34.993,6c2.999,0,2.995,0.002,2.995,3.142
		c0,2.054,0,1.415,0,4.712c0,3.141,0.004,3.142-2.995,3.142c-3,0-2.997-0.001-2.997-3.142c0-3.297,0-2.658,0-4.712
		C31.996,6.002,31.993,6,34.993,6z"/>
	<path opacity="0.9" fill="#333333" enable-background="new    " d="M26.002,6c3,0,2.996,0.002,2.996,3.142c0,2.054,0,1.415,0,4.712
		c0,3.141,0.003,3.142-2.996,3.142c-3,0-2.997-0.001-2.997-3.142c0-3.297,0-2.658,0-4.712C23.005,6.002,23.002,6,26.002,6z"/>
</g>
<g id="booxi_Shade">
	<path opacity="0.1" enable-background="new    " d="M26.002,8c-3,0-2.997,0.002-2.997,3.142c0-0.567,0-0.906,0-2
		c0-3.14-0.003-3.142,2.997-3.142s2.996,0.002,2.996,3.142c0,1.094,0,1.433,0,2C28.998,8.002,29.001,8,26.002,8z"/>
	<path opacity="0.1" enable-background="new    " d="M35.002,8c-3,0-2.996,0.002-2.996,3.142c0-0.567,0-0.906,0-2
		c0-3.14-0.004-3.142,2.996-3.142s2.996,0.002,2.996,3.142c0,1.094,0,1.433,0,2C37.998,8.002,38.002,8,35.002,8z"/>
	<path opacity="0.1" enable-background="new    " d="M46,20.999c-2.236,0-2.834,0.009-2.993,1.088
		c0.003-0.125,0.003-0.265,0.003-0.427c0-2.387-0.017-2.632,2.182-2.657h1.576c2.189,0.025,2.229,0.278,2.229,2.805
		c0,0.966,0,1.77,0,2C48.995,21.013,48.958,20.999,46,20.999z M14.205,19.003h1.613c2.236,0.025,2.176,0.271,2.176,2.659
		c0,0.14,0,0.256,0.001,0.368c-0.161-1.02-0.76-1.031-2.995-1.031c-2.877,0-2.997,0.014-3,2.299c0-0.376,0-0.903,0-1.49
		c0-0.166,0-0.337,0-0.51C12.003,19.247,12.108,19.026,14.205,19.003z"/>
</g>
<g id="Ticket" enable-background="new    ">
	<g id="Gradient">
		<g>
			
				<linearGradient id="SVGID_1_" gradientUnits="userSpaceOnUse" x1="522.4971" y1="783.4531" x2="522.4971" y2="753.8809" gradientTransform="matrix(1 0 0 1 -492 -731)">
				<stop  offset="0.7312" style="stop-color:#FFFFFF"/>
				<stop  offset="0.7663" style="stop-color:#FBFBFB"/>
				<stop  offset="0.8021" style="stop-color:#EFEFEF"/>
				<stop  offset="0.8383" style="stop-color:#DADADA"/>
				<stop  offset="0.8746" style="stop-color:#BEBEBE"/>
				<stop  offset="0.9112" style="stop-color:#999999"/>
				<stop  offset="0.9474" style="stop-color:#6C6C6C"/>
				<stop  offset="0.9785" style="stop-color:#404040"/>
			</linearGradient>
			<path fill="url(#SVGID_1_)" d="M45.914,24.563c-1.361-0.703-3.253-1.683-3.253-1.683S42.656,23,42.031,23
				c-0.344,0-22.885,0.002-23.188,0.002c-0.281,0-0.447-0.122-0.447-0.122s-2.123,1.016-3.313,1.683
				C13.978,25.182,12,26.102,12,30.813v14.061c0,3.124,0,3.124,3.083,3.124h6.694c0.374,0.125,0.605,0.278,0.799,0.37
				c1.382,0.796,3.031,1.752,4.561,2.636c3.355,1.938,3.346,1.933,6.71-0.011c1.364-0.788,3.172-1.842,4.5-2.605
				c0.147-0.078,0.467-0.252,0.918-0.39h6.646c3.067,0,3.084,0,3.084-3.124V30.813C48.996,26.154,47.514,25.389,45.914,24.563z"/>
		</g>
	</g>
</g>
<g id="_x2D_v-">
	<path opacity="0.1" enable-background="new    " d="M20.478,25.842c1.002,0,1.422,0.261,1.729,0.451
		c0.073,0.045,4.756,3.033,4.756,3.033c1.735,1.111,2.634,1.666,3.533,1.666c0.896,0,1.793-0.552,3.516-1.652l4.598-2.945
		c0.273-0.165,0.914-0.553,1.908-0.553h7.226c-0.308-0.35-0.649-0.611-1.017-0.834h-6.209c-1.184,0-1.939,0.459-2.266,0.654
		l-4.613,2.954c-1.603,1.024-2.408,1.538-3.142,1.538c-0.001,0-0.002,0-0.003,0c-0.736,0-1.545-0.519-3.158-1.551
		c0,0-4.703-3.001-4.765-3.039c-0.357-0.222-0.897-0.557-2.094-0.557h-6.152c-0.315,0.208-0.646,0.469-0.957,0.834L20.478,25.842
		L20.478,25.842z"/>
</g>
<g id="v">
	<path opacity="0.1" enable-background="new    " d="M33.782,44.134c-0.757,0.448-1.942,1.095-2.642,1.49
		c-0.445,0.253-0.869,0.262-1.321,0c-0.708-0.407-2.516-1.418-2.641-1.49c-1.252-0.728-1.32-0.501-1.32,0.796
		c0,1.295-0.014,1.584,0.65,1.956c0.663,0.372,1.647,0.935,2.537,1.438c1.438,0.816,1.434,0.813,2.875-0.006
		c0.854-0.482,2.106-1.202,2.543-1.44c0.634-0.349,0.636-0.644,0.636-1.942C35.1,43.639,35.068,43.371,33.782,44.134z
		 M34.201,44.936c0,0.465,0,0.945-0.045,1.084c-0.008,0-0.045,0.026-0.123,0.069c-0.295,0.162-0.967,0.544-1.635,0.925l-0.92,0.522
		c-0.438,0.249-0.877,0.499-0.998,0.499c-0.121,0-0.563-0.251-0.99-0.493c0,0-2.07-1.177-2.541-1.44
		c-0.125-0.068-0.157-0.104-0.16-0.105c-0.03-0.088-0.03-0.546-0.03-0.988c0-0.021,0-0.049,0-0.074l0.508,0.285
		c0.62,0.35,1.62,0.909,2.104,1.188c0.357,0.207,0.73,0.313,1.105,0.313c0.373,0,0.746-0.104,1.106-0.311l0.821-0.46
		c0.605-0.339,1.287-0.718,1.795-1.017C34.201,44.934,34.201,44.936,34.201,44.936z"/>
</g>
</svg>
