<?xml version="1.0" encoding="utf-8"?>
<!-- Generator: Adobe Illustrator 16.0.0, SVG Export Plug-In . SVG Version: 6.00 Build 0)  -->
<!DOCTYPE svg PUBLIC "-//W3C//DTD SVG 1.1//EN" "http://www.w3.org/Graphics/SVG/1.1/DTD/svg11.dtd">
<svg version="1.1" id="Layer_1" xmlns="http://www.w3.org/2000/svg" xmlns:xlink="http://www.w3.org/1999/xlink" x="0px" y="0px"
	 width="136px" height="60px" viewBox="0.04 0 136 60" enable-background="new 0.04 0 136 60" xml:space="preserve">
<g id="interviewapp">
	<path opacity="0.9" fill="#333333" enable-background="new    " d="M35.479,26.003H1.564c-1.526,0-1.539-0.011-1.539-1.398
		s0-1.87,0-2.797c0-2.795-0.077-2.809,3-2.809c3.077,0,3.119,0.012,3.119,2.663c0,1.33-0.008,1.326,1.549,1.326
		c1.558,0,17.137,0,21.747,0c1.522,0,1.532,0.002,1.532-1.328c0-2.651,0.032-2.661,3.053-2.661c2.958,0,2.995,0.014,2.995,2.809
		c0,0.927,0,1.409,0,2.797S37.009,26.003,35.479,26.003z"/>
	<path opacity="0.9" fill="#333333" enable-background="new    " d="M23.019,6c2.999,0,2.996,0.002,2.996,3.142
		c0,2.054,0,1.415,0,4.712c0,3.141,0.003,3.142-2.996,3.142c-3,0-2.997-0.001-2.997-3.142c0-3.297,0-2.658,0-4.712
		C20.021,6.002,20.019,6,23.019,6z"/>
	<path opacity="0.9" fill="#333333" enable-background="new    " d="M14.027,6c3,0,2.996,0.002,2.996,3.142c0,2.054,0,1.415,0,4.712
		c0,3.141,0.003,3.142-2.996,3.142c-3,0-2.997-0.001-2.997-3.142c0-3.297,0-2.658,0-4.712C11.032,6.002,11.027,6,14.027,6z"/>
</g>
<g id="interviewapp_Shade">
	<path opacity="0.1" enable-background="new    " d="M14.027,8c-3,0-2.997,0.002-2.997,3.142c0-0.567,0-0.906,0-2
		C11.03,6.002,11.027,6,14.027,6s2.996,0.002,2.996,3.142c0,1.094,0,1.433,0,2C17.023,8.002,17.027,8,14.027,8z"/>
	<path opacity="0.1" enable-background="new    " d="M23.027,8c-3,0-2.996,0.002-2.996,3.142c0-0.567,0-0.906,0-2
		c0-3.14-0.004-3.142,2.996-3.142s2.996,0.002,2.996,3.142c0,1.094,0,1.433,0,2C26.023,8.002,26.027,8,23.027,8z"/>
	<path opacity="0.1" enable-background="new    " d="M34.025,20.999c-2.236,0-2.834,0.009-2.993,1.088
		c0.003-0.125,0.003-0.265,0.003-0.427c0-2.387-0.017-2.632,2.182-2.657h1.576c2.189,0.025,2.228,0.278,2.228,2.805
		c0,0.966,0,1.77,0,2C37.021,21.013,36.983,20.999,34.025,20.999z M2.23,19.003h1.613c2.236,0.025,2.176,0.271,2.176,2.659
		c0,0.14,0,0.256,0.001,0.368c-0.161-1.021-0.76-1.031-2.995-1.031c-2.877,0-2.997,0.014-3,2.299c0-0.376,0-0.903,0-1.49
		c0-0.166,0-0.337,0-0.51C0.028,19.247,0.134,19.026,2.23,19.003z"/>
</g>
<g id="Ticket" enable-background="new    ">
	<g id="Gradient">
		<g>
			
				<linearGradient id="SVGID_1_" gradientUnits="userSpaceOnUse" x1="-131.4761" y1="1178.4561" x2="-131.4761" y2="1148.8809" gradientTransform="matrix(1 0 0 1 150 -1126)">
				<stop  offset="0.7312" style="stop-color:#FFFFFF"/>
				<stop  offset="0.7663" style="stop-color:#FBFBFB"/>
				<stop  offset="0.8021" style="stop-color:#EFEFEF"/>
				<stop  offset="0.8383" style="stop-color:#DADADA"/>
				<stop  offset="0.8746" style="stop-color:#BEBEBE"/>
				<stop  offset="0.9112" style="stop-color:#999999"/>
				<stop  offset="0.9474" style="stop-color:#6C6C6C"/>
				<stop  offset="0.9785" style="stop-color:#404040"/>
			</linearGradient>
			<path fill="url(#SVGID_1_)" d="M33.939,24.563c-1.361-0.703-3.253-1.683-3.253-1.683S30.682,23,30.057,23
				c-0.344,0-22.885,0.002-23.188,0.002c-0.281,0-0.447-0.122-0.447-0.122s-2.123,1.016-3.313,1.683
				c-1.105,0.619-3.083,1.539-3.083,6.25c0,3.97,0,12.891,0,14.063c0,3.124,0,3.124,3.083,3.124c0.38,0,3.054,0,6.694,0
				c0.374,0.125,0.605,0.276,0.799,0.37c1.382,0.796,3.031,1.752,4.561,2.636c3.355,1.938,3.346,1.935,6.711-0.011
				c1.365-0.788,3.172-1.844,4.5-2.604c0.148-0.078,0.467-0.254,0.918-0.392c3.063,0,5.523,0,6.646,0c3.068,0,3.084,0,3.084-3.124
				c0-3.125,0-10.093,0-14.063C37.021,26.154,35.54,25.389,33.939,24.563z"/>
		</g>
	</g>
</g>
<g id="_x2D_v-">
	<path opacity="0.1" enable-background="new    " d="M8.503,25.842c1.002,0,1.422,0.261,1.729,0.451
		c0.073,0.045,4.756,3.033,4.756,3.033c1.735,1.111,2.634,1.666,3.533,1.666c0.896,0,1.793-0.552,3.516-1.652l4.598-2.945
		c0.273-0.165,0.914-0.553,1.908-0.553h7.224c-0.306-0.35-0.649-0.611-1.015-0.834h-6.209c-1.184,0-1.941,0.459-2.266,0.654
		l-4.613,2.954c-1.603,1.024-2.408,1.538-3.142,1.538c-0.001,0-0.002,0-0.003,0c-0.736,0-1.545-0.521-3.158-1.551
		c0,0-4.703-3.001-4.765-3.039c-0.357-0.222-0.897-0.557-2.094-0.557H2.351c-0.315,0.208-0.646,0.469-0.957,0.834L8.503,25.842
		L8.503,25.842z"/>
</g>
<g id="v">
	<path opacity="0.1" enable-background="new    " d="M21.809,44.134c-0.756,0.448-1.942,1.095-2.641,1.49
		c-0.446,0.253-0.868,0.262-1.32,0c-0.708-0.407-2.516-1.418-2.641-1.49c-1.252-0.728-1.32-0.501-1.32,0.796
		c0,1.295-0.014,1.584,0.65,1.956c0.663,0.372,1.647,0.938,2.537,1.438c1.438,0.816,1.434,0.813,2.875-0.006
		c0.853-0.482,2.108-1.202,2.543-1.44c0.633-0.349,0.635-0.644,0.635-1.942C23.126,43.639,23.095,43.371,21.809,44.134z
		 M22.228,44.936c0,0.465,0,0.945-0.045,1.084c-0.007,0-0.044,0.026-0.123,0.069c-0.294,0.162-0.966,0.544-1.635,0.925l-0.919,0.522
		c-0.438,0.249-0.877,0.499-0.997,0.499c-0.121,0-0.563-0.251-0.99-0.493c0,0-2.07-1.177-2.541-1.44
		c-0.125-0.066-0.157-0.104-0.16-0.104c-0.03-0.088-0.03-0.546-0.03-0.988c0-0.021,0-0.049,0-0.072l0.508,0.283
		c0.62,0.352,1.62,0.909,2.104,1.188c0.357,0.207,0.73,0.313,1.105,0.313c0.371,0,0.744-0.104,1.106-0.311l0.822-0.46
		c0.605-0.338,1.288-0.72,1.794-1.019C22.228,44.934,22.228,44.936,22.228,44.936z"/>
</g>
<g id="interviewapp_1_">
	<path fill="#FFFFFF" d="M136.052,20.999c0-1.988-0.025-1.991-3-1.991c-2.979,0-2.98,0.016-2.98,1.994s0.016,1.999,3,1.999
		C136.06,23.001,136.052,22.987,136.052,20.999z M136.056,44.938c0-2.299,0-13.838,0-16.893s-0.021-3.053-3.002-3.053
		c-2.979,0-2.982-0.013-2.982,3.042c0,3.054,0,14.573,0,16.892c0,3.076,0.006,3.074,2.992,3.074
		C136.056,48,136.056,47.991,136.056,44.938z"/>
	<path fill="#FFFFFF" d="M127.103,28.063c-0.975,1.58-2.766,4.589-3.828,6.364c-0.354,0.584-0.834,0.916-1.396,0
		c-0.563-0.965-0.75-1.321-1.274-2.215c-0.377-0.642-0.826-1.399-1.317-2.215c-0.248-0.433-0.277-0.608-0.031-0.985
		c0.668-1.09,1.252-2.037,1.521-2.479c0.875-1.458,1.031-1.54,4.18-1.54C128.099,24.991,128.952,25.062,127.103,28.063z"/>
	<path fill="#FFFFFF" d="M127.103,44.924c-0.975-1.58-2.766-4.59-3.828-6.363c-0.354-0.584-0.834-0.916-1.396,0
		c-0.563,0.965-0.75,1.321-1.274,2.215c-0.377,0.646-0.826,1.399-1.317,2.218c-0.248,0.434-0.277,0.606-0.031,0.981
		c0.668,1.09,1.252,2.037,1.521,2.481c0.875,1.458,1.031,1.541,4.18,1.541C128.099,47.997,128.952,47.927,127.103,44.924z"/>
	<path fill="#FFFFFF" d="M87.04,38.814v-4.616c0-9.182-0.004-9.208-9.006-9.208c-8.949,0-8.979-0.018-8.979,9.184v4.641
		c0,9.149-0.015,9.178,8.979,9.178C87.054,47.988,87.04,47.986,87.04,38.814z M81.056,38.863c0,3.14-0.02,3.152-3.014,3.152
		c-2.98,0-2.971-0.017-2.971-3.152v-4.73c0-3.127,0.01-3.123,2.971-3.123c3.008,0,3.014,0.023,3.014,3.123V38.863z"/>
	<path fill="#FFFFFF" d="M67.013,38.828c0-1.827,0-4.541,0-4.541c0-9.164,0.006-9.169-8.977-9.169c-0.761,0-2.209,0.003-2.989,0.179
		c0,0,0-0.173,0-3.23s-0.012-3.056-3-3.056c-2.988,0-2.996-0.001-2.996,3.044c0,3.045,0,16.751,0,16.751
		c0,9.192-0.033,9.18,8.984,9.18C67.056,47.986,67.013,48.009,67.013,38.828z M61.06,38.833c0,3.132,0.021,3.16-2.982,3.16
		c-3.006,0-3.012-0.028-3.012-3.16v-4.697c0-3.116,0.016-3.139,3.008-3.139c2.973,0,2.986-0.026,2.986,3.135V38.833z"/>
	<path fill="#FFFFFF" d="M109.11,28.158c1.047,1.746,3.063,5.259,3.986,6.873c0.59,1.031,0.609,2.007,0,3.051
		c-0.947,1.635-3.826,6.572-3.994,6.859c-1.693,2.894-0.916,3.056,2.104,3.056s3.086-0.017,3.996-1.524
		c0.916-1.521,2.64-4.438,3.83-6.48c1.933-3.313,1.904-3.531,0-6.864c-1.127-1.971-3.25-5.491-3.83-6.482
		c-0.846-1.443-0.994-1.525-4.021-1.525C108.155,25.12,107.331,25.186,109.11,28.158z"/>
	<path fill="#FFFFFF" d="M107.04,38.814v-4.616c0-9.182-0.006-9.208-9.008-9.208c-8.949,0-8.979-0.018-8.979,9.184v4.641
		c0,9.149-0.014,9.178,8.979,9.178C107.054,47.988,107.04,47.986,107.04,38.814z M101.056,38.863c0,3.14-0.021,3.152-3.014,3.152
		c-2.98,0-2.971-0.017-2.971-3.152v-4.73c0-3.127,0.01-3.123,2.971-3.123c3.008,0,3.014,0.023,3.014,3.123V38.863z"/>
</g>
</svg>
