<?xml version="1.0" encoding="utf-8"?>
<!-- Generator: Adobe Illustrator 16.0.0, SVG Export Plug-In . SVG Version: 6.00 Build 0)  -->
<!DOCTYPE svg PUBLIC "-//W3C//DTD SVG 1.1//EN" "http://www.w3.org/Graphics/SVG/1.1/DTD/svg11.dtd">
<svg version="1.1" xmlns="http://www.w3.org/2000/svg" xmlns:xlink="http://www.w3.org/1999/xlink" x="0px" y="0px" width="160px"
	 height="60px" viewBox="0 0 160 60" enable-background="new 0 0 160 60" xml:space="preserve">
<g id="booxi">
	<path opacity="0.9" fill-rule="evenodd" clip-rule="evenodd" fill="#333333" d="M47.418,26.003H13.504
		c-1.526,0-1.539-0.011-1.539-1.398s0-1.87,0-2.797c0-2.795-0.077-2.809,3-2.809s3.119,0.012,3.119,2.663
		c0,1.33-0.008,1.326,1.549,1.326c1.558,0,17.137,0,21.747,0c1.522,0,1.532,0.002,1.532-1.328c0-2.651,0.032-2.661,3.053-2.661
		c2.958,0,2.995,0.014,2.995,2.809c0,0.927,0,1.409,0,2.797S48.948,26.003,47.418,26.003z"/>
	<path opacity="0.9" fill-rule="evenodd" clip-rule="evenodd" fill="#333333" d="M34.958,6c2.999,0,2.996,0.002,2.996,3.142
		c0,2.054,0,1.415,0,4.712c0,3.141,0.003,3.142-2.996,3.142c-3,0-2.997-0.001-2.997-3.142c0-3.297,0-2.658,0-4.712
		C31.961,6.002,31.958,6,34.958,6z"/>
	<path opacity="0.9" fill-rule="evenodd" clip-rule="evenodd" fill="#333333" d="M25.967,6c3,0,2.996,0.002,2.996,3.142
		c0,2.054,0,1.415,0,4.712c0,3.141,0.003,3.142-2.996,3.142c-3,0-2.997-0.001-2.997-3.142c0-3.297,0-2.658,0-4.712
		C22.971,6.002,22.967,6,25.967,6z"/>
</g>
<g id="booxi_Shade">
	<path opacity="0.1" fill-rule="evenodd" clip-rule="evenodd" d="M25.967,8c-3,0-2.997,0.002-2.997,3.142c0-0.567,0-0.906,0-2
		c0-3.14-0.003-3.142,2.997-3.142c3,0,2.996,0.002,2.996,3.142c0,1.094,0,1.433,0,2C28.963,8.002,28.967,8,25.967,8z"/>
	<path opacity="0.1" fill-rule="evenodd" clip-rule="evenodd" d="M34.967,8c-3,0-2.996,0.002-2.996,3.142c0-0.567,0-0.906,0-2
		c0-3.14-0.004-3.142,2.996-3.142s2.996,0.002,2.996,3.142c0,1.094,0,1.433,0,2C37.963,8.002,37.967,8,34.967,8z"/>
	<path opacity="0.1" fill-rule="evenodd" clip-rule="evenodd" d="M45.965,20.999c-2.236,0-2.834,0.009-2.993,1.088
		c0.003-0.125,0.003-0.265,0.003-0.427c0-2.387-0.017-2.632,2.182-2.657h1.576c2.189,0.025,2.228,0.278,2.228,2.805
		c0,0.966,0,1.77,0,2C48.96,21.013,48.923,20.999,45.965,20.999z M14.17,19.003h1.613c2.236,0.025,2.176,0.271,2.176,2.659
		c0,0.14,0,0.256,0.001,0.368c-0.161-1.02-0.76-1.031-2.995-1.031c-2.877,0-2.997,0.014-3,2.299c0-0.376,0-0.903,0-1.49
		c0-0.166,0-0.337,0-0.51C11.968,19.247,12.073,19.026,14.17,19.003z"/>
</g>
<g id="Ticket_Shade" opacity="0.102" enable-background="new    ">
	<g id="shadow">
		<g>
			<path fill-rule="evenodd" clip-rule="evenodd" d="M45.852,26.579c-1.361-0.697-3.084-1.547-3.084-1.547H18.126
				c0,0-1.891,0.887-3.081,1.547c-1.105,0.614-3.08,1.525-3.08,6.194c0,3.932,0,12.774,0,13.936c0,3.097,0,3.097,3.08,3.097
				c0.333,0,2.431,0,5.391,0c1.33,0,1.753,0.395,2.105,0.559c1.382,0.796,3.032,1.752,4.561,2.636
				c3.355,1.939,3.346,1.931,6.71-0.012c1.366-0.787,3.173-1.839,4.501-2.604c0.259-0.138,0.977-0.578,2.145-0.578
				c2.475,0,4.427,0,5.391,0c3.065,0,3.081,0,3.081-3.097s0-10.004,0-13.936C48.929,28.157,47.448,27.398,45.852,26.579z"/>
		</g>
	</g>
</g>
<g id="Ticket" enable-background="new    ">
	<g id="Gradient">
		<g>
			<linearGradient id="SVGID_1_" gradientUnits="userSpaceOnUse" x1="30.4634" y1="52.4512" x2="30.4634" y2="22.8799">
				<stop  offset="0.7312" style="stop-color:#FFFFFF"/>
				<stop  offset="0.7663" style="stop-color:#FBFBFB"/>
				<stop  offset="0.8021" style="stop-color:#EFEFEF"/>
				<stop  offset="0.8383" style="stop-color:#DADADA"/>
				<stop  offset="0.8746" style="stop-color:#BEBEBE"/>
				<stop  offset="0.9112" style="stop-color:#999999"/>
				<stop  offset="0.9474" style="stop-color:#6C6C6C"/>
				<stop  offset="0.9785" style="stop-color:#404040"/>
			</linearGradient>
			<path fill="url(#SVGID_1_)" d="M45.879,24.563c-1.361-0.703-3.253-1.683-3.253-1.683s-0.005,0.12-0.63,0.12
				c-0.344,0-22.885,0.002-23.188,0.002c-0.281,0-0.447-0.122-0.447-0.122s-2.123,1.016-3.313,1.683
				c-1.105,0.619-3.083,1.539-3.083,6.249c0,3.967,0,12.888,0,14.06c0,3.124,0,3.124,3.083,3.124c0.38,0,3.054,0,6.694,0
				c0.374,0.125,0.605,0.28,0.799,0.37c1.382,0.796,3.031,1.752,4.561,2.636c3.355,1.94,3.346,1.931,6.711-0.011
				c1.365-0.788,3.172-1.84,4.5-2.605c0.148-0.079,0.467-0.252,0.918-0.39c3.063,0,5.523,0,6.646,0c3.068,0,3.084,0,3.084-3.124
				c0-3.125,0-10.093,0-14.06C48.961,26.154,47.479,25.389,45.879,24.563z"/>
		</g>
	</g>
</g>
<g id="_x2D_v-">
	<path opacity="0.1" fill-rule="evenodd" clip-rule="evenodd" d="M20.443,25.842c1.002,0,1.422,0.261,1.729,0.451
		c0.073,0.045,4.756,3.033,4.756,3.033c1.735,1.111,2.634,1.666,3.533,1.666c0.896,0,1.793-0.552,3.516-1.652l4.598-2.945
		c0.273-0.165,0.914-0.553,1.908-0.553h7.224c-0.306-0.35-0.649-0.611-1.015-0.834h-6.209c-1.184,0-1.941,0.459-2.266,0.654
		l-4.613,2.954c-1.603,1.024-2.408,1.538-3.142,1.538c-0.001,0-0.002,0-0.003,0c-0.736,0-1.545-0.519-3.158-1.551
		c0,0-4.703-3.001-4.765-3.039c-0.357-0.222-0.897-0.557-2.094-0.557h-6.152c-0.315,0.208-0.646,0.469-0.957,0.834H20.443z"/>
</g>
<g id="v">
	<path opacity="0.1" fill-rule="evenodd" clip-rule="evenodd" d="M33.748,44.134c-0.756,0.448-1.942,1.095-2.641,1.49
		c-0.446,0.253-0.868,0.262-1.32,0c-0.708-0.407-2.516-1.418-2.641-1.49c-1.252-0.728-1.32-0.501-1.32,0.795
		c0,1.295-0.014,1.584,0.65,1.957c0.663,0.372,1.647,0.934,2.537,1.438c1.438,0.816,1.434,0.813,2.875-0.005
		c0.853-0.483,2.108-1.203,2.543-1.441c0.633-0.348,0.635-0.644,0.635-1.942S35.034,43.371,33.748,44.134z M34.167,44.936
		c0,0.465,0,0.945-0.045,1.083c-0.007,0-0.044,0.027-0.123,0.07c-0.294,0.162-0.966,0.544-1.635,0.925l-0.919,0.522
		c-0.438,0.249-0.877,0.499-0.997,0.499c-0.121,0-0.563-0.251-0.99-0.493c0,0-2.07-1.177-2.541-1.441
		c-0.125-0.069-0.157-0.103-0.16-0.106c-0.03-0.088-0.03-0.546-0.03-0.988c0-0.023,0-0.049,0-0.075l0.508,0.286
		c0.62,0.348,1.62,0.909,2.104,1.188c0.357,0.207,0.73,0.313,1.105,0.313c0.371,0,0.744-0.104,1.106-0.31l0.822-0.46
		c0.605-0.337,1.288-0.717,1.794-1.016C34.167,44.933,34.167,44.935,34.167,44.936z"/>
</g>
<g id="shade">
	<path opacity="0.1" d="M147.991,22.999c0-1.988-0.025-1.992-3-1.992c-2.977,0-2.98,0.017-2.98,1.994c0,1.979,0.012,2,3,2
		S147.991,24.987,147.991,22.999z M147.995,46.938c0-2.3,0-13.839,0-16.893c0-3.055-0.021-3.053-3.002-3.053
		s-2.982-0.013-2.982,3.041c0,3.055,0,14.575,0,16.893c0,3.076,0.002,3.074,2.992,3.074C147.995,50,147.995,49.991,147.995,46.938z"
		/>
	<path opacity="0.1" fill-rule="evenodd" clip-rule="evenodd" d="M139.042,30.063c-0.973,1.58-2.764,4.59-3.828,6.364
		c-0.355,0.584-0.834,0.916-1.396,0c-0.564-0.965-0.75-1.321-1.275-2.215c-0.377-0.642-0.826-1.4-1.32-2.215
		c-0.248-0.433-0.277-0.608-0.031-0.985c0.668-1.09,1.252-2.037,1.52-2.48c0.875-1.459,1.031-1.541,4.178-1.541
		S140.891,27.061,139.042,30.063z"/>
	<path opacity="0.1" fill-rule="evenodd" clip-rule="evenodd" d="M139.042,46.924c-0.973-1.58-2.764-4.59-3.828-6.364
		c-0.355-0.584-0.834-0.916-1.396,0c-0.564,0.965-0.75,1.322-1.275,2.215c-0.377,0.642-0.826,1.4-1.32,2.215
		c-0.248,0.434-0.277,0.609-0.031,0.986c0.668,1.089,1.252,2.036,1.52,2.48c0.875,1.458,1.031,1.54,4.178,1.54
		S140.891,49.927,139.042,46.924z"/>
	<path opacity="0.1" d="M98.979,40.814v-4.616c0-9.182-0.004-9.208-9.006-9.208c-8.949,0-8.979-0.017-8.979,9.184v4.641
		c0,9.149-0.012,9.174,8.979,9.174C98.993,49.988,98.979,49.986,98.979,40.814z M92.995,40.863c0,3.14-0.018,3.153-3.012,3.153
		c-2.982,0-2.971-0.014-2.971-3.153v-4.73c0-3.127,0.01-3.123,2.971-3.123c3.006,0,3.012,0.023,3.012,3.123V40.863z"/>
	<path opacity="0.1" d="M78.952,40.828c0-1.826,0-4.541,0-4.541c0-9.165,0.006-9.169-8.977-9.169c-0.76,0-2.209,0.003-2.988,0.178
		c0,0,0-0.172,0-3.229c0-3.057-0.012-3.056-3-3.056s-2.996-0.001-2.996,3.044s0,16.751,0,16.751c0,9.196-0.033,9.181,8.984,9.181
		C78.995,49.986,78.952,50.009,78.952,40.828z M72.999,40.833c0,3.132,0.021,3.16-2.982,3.16c-3.006,0-3.012-0.028-3.012-3.16
		v-4.697c0-3.116,0.016-3.138,3.008-3.138c2.973,0,2.986-0.028,2.986,3.134V40.833z"/>
	<path opacity="0.1" fill-rule="evenodd" clip-rule="evenodd" d="M121.051,30.158c1.045,1.746,3.064,5.259,3.986,6.873
		c0.59,1.032,0.611,2.007,0,3.051c-0.947,1.635-3.826,6.572-3.994,6.86c-1.695,2.894-0.916,3.054,2.105,3.054
		c3.02,0,3.086-0.016,3.996-1.524c0.916-1.521,2.639-4.442,3.83-6.483c1.932-3.308,1.906-3.531,0-6.864
		c-1.127-1.971-3.25-5.491-3.83-6.482c-0.844-1.443-0.994-1.525-4.021-1.525S119.272,27.186,121.051,30.158z"/>
	<path opacity="0.1" d="M118.981,40.814v-4.616c0-9.182-0.006-9.208-9.008-9.208c-8.949,0-8.979-0.017-8.979,9.184v4.641
		c0,9.149-0.012,9.174,8.979,9.174C118.993,49.988,118.981,49.986,118.981,40.814z M112.995,40.863c0,3.14-0.02,3.153-3.012,3.153
		c-2.982,0-2.971-0.014-2.971-3.153v-4.73c0-3.127,0.01-3.123,2.971-3.123c3.006,0,3.012,0.023,3.012,3.123V40.863z"/>
</g>
<g id="booxi_1_">
	<path fill="#FFFFFF" d="M147.991,20.999c0-1.988-0.025-1.991-3-1.991c-2.977,0-2.98,0.016-2.98,1.994c0,1.978,0.012,1.999,3,1.999
		S147.991,22.987,147.991,20.999z M147.995,44.937c0-2.299,0-13.838,0-16.892c0-3.055-0.021-3.053-3.002-3.053
		s-2.982-0.013-2.982,3.042c0,3.054,0,14.574,0,16.892c0,3.076,0.002,3.074,2.992,3.074C147.995,48,147.995,47.991,147.995,44.937z"
		/>
	<path fill-rule="evenodd" clip-rule="evenodd" fill="#FFFFFF" d="M139.042,28.063c-0.973,1.58-2.764,4.59-3.828,6.364
		c-0.355,0.584-0.834,0.916-1.396,0c-0.564-0.965-0.75-1.321-1.275-2.215c-0.377-0.642-0.826-1.4-1.32-2.215
		c-0.248-0.433-0.277-0.608-0.031-0.985c0.668-1.09,1.252-2.037,1.52-2.481c0.875-1.458,1.031-1.54,4.178-1.54
		S140.891,25.062,139.042,28.063z"/>
	<path fill-rule="evenodd" clip-rule="evenodd" fill="#FFFFFF" d="M139.042,44.924c-0.973-1.58-2.764-4.59-3.828-6.364
		c-0.355-0.584-0.834-0.916-1.396,0c-0.564,0.966-0.75,1.322-1.275,2.215c-0.377,0.643-0.826,1.4-1.32,2.215
		c-0.248,0.434-0.277,0.609-0.031,0.985c0.668,1.09,1.252,2.037,1.52,2.481c0.875,1.458,1.031,1.541,4.178,1.541
		S140.891,47.927,139.042,44.924z"/>
	<path fill="#FFFFFF" d="M98.979,38.814v-4.616c0-9.182-0.004-9.208-9.006-9.208c-8.949,0-8.979-0.018-8.979,9.184v4.641
		c0,9.149-0.012,9.174,8.979,9.174C98.993,47.988,98.979,47.986,98.979,38.814z M92.995,38.863c0,3.14-0.018,3.153-3.012,3.153
		c-2.982,0-2.971-0.014-2.971-3.153v-4.73c0-3.127,0.01-3.123,2.971-3.123c3.006,0,3.012,0.023,3.012,3.123V38.863z"/>
	<path fill="#FFFFFF" d="M78.952,38.828c0-1.827,0-4.541,0-4.541c0-9.164,0.006-9.169-8.977-9.169c-0.76,0-2.209,0.003-2.988,0.179
		c0,0,0-0.173,0-3.23c0-3.057-0.012-3.056-3-3.056s-2.996-0.001-2.996,3.044s0,16.752,0,16.752c0,9.195-0.033,9.18,8.984,9.18
		C78.995,47.986,78.952,48.009,78.952,38.828z M72.999,38.833c0,3.132,0.021,3.16-2.982,3.16c-3.006,0-3.012-0.028-3.012-3.16
		v-4.697c0-3.116,0.016-3.139,3.008-3.139c2.973,0,2.986-0.027,2.986,3.135V38.833z"/>
	<path fill-rule="evenodd" clip-rule="evenodd" fill="#FFFFFF" d="M121.051,28.158c1.045,1.746,3.064,5.259,3.986,6.873
		c0.59,1.031,0.611,2.007,0,3.051c-0.947,1.635-3.826,6.572-3.994,6.86c-1.695,2.893-0.916,3.055,2.105,3.055
		c3.02,0,3.086-0.017,3.996-1.525c0.916-1.521,2.639-4.441,3.83-6.483c1.932-3.309,1.906-3.531,0-6.864
		c-1.127-1.971-3.25-5.491-3.83-6.482c-0.844-1.443-0.994-1.525-4.021-1.525S119.272,25.186,121.051,28.158z"/>
	<path fill="#FFFFFF" d="M118.981,38.814v-4.616c0-9.182-0.006-9.208-9.008-9.208c-8.949,0-8.979-0.018-8.979,9.184v4.641
		c0,9.149-0.012,9.174,8.979,9.174C118.993,47.988,118.981,47.986,118.981,38.814z M112.995,38.863c0,3.14-0.02,3.153-3.012,3.153
		c-2.982,0-2.971-0.014-2.971-3.153v-4.73c0-3.127,0.01-3.123,2.971-3.123c3.006,0,3.012,0.023,3.012,3.123V38.863z"/>
</g>
</svg>
