<?xml version="1.0" encoding="utf-8"?>
<!-- Generator: Adobe Illustrator 16.0.3, SVG Export Plug-In . SVG Version: 6.00 Build 0)  -->
<!DOCTYPE svg PUBLIC "-//W3C//DTD SVG 1.1//EN" "http://www.w3.org/Graphics/SVG/1.1/DTD/svg11.dtd">
<svg version="1.1" id="alimenté_par_Google" xmlns="http://www.w3.org/2000/svg" xmlns:xlink="http://www.w3.org/1999/xlink"
	 x="0px" y="0px" width="120px" height="16px" viewBox="0 0 120 16" enable-background="new 0 0 120 16" xml:space="preserve">
<g id="e">
	<g>
		<path fill="#DB4632" d="M118.178,10.956c-1.422,0-2.707-1.103-3.08-2.99l1.15-0.09l3.516-1.414
			c-0.104-0.342-0.301-0.981-1.047-1.473c-0.449-0.283-1.004-0.417-1.541-0.417c-1.541,0-3.426,1.131-3.426,3.438
			c0,1.116,0.463,2.396,1.525,3.141c0.764,0.553,1.512,0.58,1.99,0.58c0.444,0,0.957-0.061,1.448-0.28
			c0.164-0.074,0.328-0.181,0.492-0.271L120,10.436C119.494,10.688,118.939,10.956,118.178,10.956z M115.037,7.132
			c0-1.607,1.121-2.068,1.719-2.068c0.809,0,1.48,0.685,1.48,1.279c0,0.209-0.148,0.298-0.435,0.402l-2.723,1.176
			C115.066,7.652,115.037,7.385,115.037,7.132z"/>
	</g>
</g>
<g id="l">
	<g>
		<path fill="#009655" d="M113.182,11.105c-0.492-0.045-0.598-0.135-0.598-0.715V6.953c0-2.113,0.016-3.929,0.135-5.074
			c0.059-0.521,0.209-0.61,0.672-0.878h-2.139l-1.121,0.536h1.166c-0.014,0.685-0.074,1.637-0.09,2.396
			c-0.045,1.548-0.059,3.199-0.059,4.359v2.426c0,0.298-0.063,0.343-0.404,0.789h2.646l0.555-0.327
			C113.691,11.148,113.436,11.135,113.182,11.105z"/>
	</g>
</g>
<g id="g">
	<g>
		<path fill="#1167E8" d="M108.799,11.209l-0.537-0.416c-0.164-0.135-0.389-0.313-0.389-0.641s0.225-0.536,0.418-0.729
			c0.629-0.491,1.256-1.013,1.256-2.113c0-1.131-0.717-1.727-1.061-2.009h0.926l0.957-0.536h-3.08c-0.809,0-1.824,0.119-2.678,0.818
			c-0.644,0.551-0.957,1.31-0.957,1.994c0,1.159,0.897,2.337,2.482,2.337c0.147,0,0.313-0.016,0.479-0.03
			c-0.076,0.179-0.15,0.327-0.15,0.581c0,0.461,0.238,0.743,0.449,1.012c-0.674,0.045-1.93,0.119-2.855,0.687
			c-0.885,0.521-1.151,1.276-1.151,1.813c0,1.104,1.047,2.129,3.217,2.129c2.571,0,3.937-1.414,3.937-2.813
			C110.057,12.266,109.457,11.76,108.799,11.209z M106.84,9.498c-1.285,0-1.869-1.652-1.869-2.649c0-0.387,0.074-0.788,0.328-1.101
			c0.24-0.298,0.658-0.491,1.049-0.491c1.24,0,1.885,1.667,1.885,2.738c0,0.268-0.028,0.743-0.375,1.086
			C107.617,9.318,107.215,9.498,106.84,9.498z M106.855,15.479c-1.604,0-2.633-0.758-2.633-1.813s0.957-1.413,1.286-1.532
			c0.628-0.209,1.437-0.235,1.568-0.235c0.146,0,0.225,0,0.344,0.015c1.14,0.804,1.634,1.205,1.634,1.965
			C109.055,14.795,108.291,15.479,106.855,15.479z"/>
	</g>
</g>
<g id="o">
	<g>
		<path fill="#FFB800" d="M99.436,4.572c-2.271,0-3.873,1.667-3.873,3.616c0,1.666,1.271,3.512,3.648,3.512
			c2.439,0,3.801-1.859,3.801-3.616C103.012,6.283,101.635,4.572,99.436,4.572z M101.082,10.495
			c-0.344,0.476-0.941,0.759-1.525,0.759c-1.811,0-2.543-2.426-2.543-3.898c0-0.641,0.105-1.295,0.688-1.815
			c0.358-0.313,0.854-0.507,1.348-0.507c1.854,0,2.482,2.5,2.482,3.81C101.531,9.424,101.441,10.02,101.082,10.495z"/>
	</g>
</g>
<g id="o_1_">
	<g>
		<path fill="#DB4632" d="M91.48,4.572c-2.273,0-3.875,1.667-3.875,3.616c0,1.666,1.27,3.512,3.647,3.512
			c2.438,0,3.802-1.859,3.802-3.616C95.055,6.283,93.68,4.572,91.48,4.572z M93.125,10.495c-0.344,0.476-0.941,0.759-1.525,0.759
			c-1.811,0-2.543-2.426-2.543-3.898c0-0.641,0.105-1.295,0.688-1.815c0.358-0.313,0.854-0.507,1.351-0.507
			c1.854,0,2.479,2.5,2.479,3.81C93.574,9.424,93.484,10.02,93.125,10.495z"/>
	</g>
</g>
<g id="G">
	<g>
		<path fill="#1167E8" d="M84.215,8.237l-1.121,0.6l2.117-0.11v2.246c-0.422,0.166-0.883,0.348-1.781,0.348
			c-3.057,0-4.963-2.469-4.963-5.089c0-2.441,1.668-4.115,3.885-4.115c1.652,0,2.523,0.851,3,1.311L85,3.985l0.49-0.111l1.164-1.103
			c-0.309-0.209-0.799-0.572-1.85-0.865c-0.66-0.181-1.392-0.293-2.146-0.293c-3.576,0-5.666,2.512-5.666,5.218
			c0,2.218,1.473,5.05,5.342,5.05c0.771,0,1.502-0.109,2.314-0.236l2.006-0.459V9.479c0-0.14,0.014-0.543,0.027-0.67
			c0.024-0.108,0.043-0.139,0.141-0.223l0.363-0.349H84.215z"/>
	</g>
</g>
<g id="propulse_par">
	<path fill="#999999" d="M1.594,4.876h1.05v0.49c0,0,1.051-0.63,2.087-0.63c1.765,0,2.535,1.05,2.535,3.558
		c0,2.745-0.882,3.726-3.054,3.726c-0.658,0-1.373-0.111-1.569-0.153v3.123h-1.05V4.876z M2.644,6.249v4.679
		c0.182,0.042,0.911,0.153,1.513,0.153c1.541,0,2.045-0.77,2.045-2.815c0-1.891-0.603-2.563-1.611-2.563
		C3.667,5.702,2.644,6.249,2.644,6.249z"/>
	<path fill="#999999" d="M8.972,4.876h1.05v0.925c0,0,1.079-0.813,2.438-1.064v1.093c-1.317,0.252-2.438,0.966-2.438,0.966v5.085
		h-1.05V4.876z"/>
	<path fill="#999999" d="M19.223,8.308c0,2.424-0.617,3.712-2.984,3.712s-3.012-1.176-3.012-3.739c0-2.409,0.799-3.544,3.012-3.544
		C18.354,4.736,19.223,5.913,19.223,8.308z M18.144,8.308c0-1.862-0.561-2.619-1.905-2.619c-1.485,0-1.933,0.673-1.933,2.592
		c0,1.961,0.28,2.801,1.933,2.801S18.144,10.157,18.144,8.308z"/>
	<path fill="#999999" d="M20.927,4.876h1.05v0.49c0,0,1.051-0.63,2.087-0.63c1.765,0,2.535,1.05,2.535,3.558
		c0,2.745-0.882,3.726-3.054,3.726c-0.658,0-1.373-0.111-1.569-0.153v3.123h-1.05V4.876z M21.978,6.249v4.679
		c0.182,0.042,0.911,0.153,1.513,0.153c1.541,0,2.045-0.77,2.045-2.815c0-1.891-0.603-2.563-1.611-2.563
		C23,5.702,21.978,6.249,21.978,6.249z"/>
	<path fill="#999999" d="M33.684,4.876v7.004h-1.037v-0.448c0,0-1.093,0.588-2.073,0.588c-1.961,0-2.367-0.896-2.367-3.487V4.876
		h1.037v3.643c0,1.933,0.168,2.563,1.485,2.563c0.924,0,1.919-0.518,1.919-0.518V4.876H33.684z"/>
	<path fill="#999999" d="M35.879,1.822h1.037V11.88h-1.037V1.822z"/>
	<path fill="#999999" d="M43.68,5.913c0,0-1.555-0.225-2.452-0.225c-0.868,0-1.513,0.225-1.513,1.051
		c0,0.658,0.322,0.854,1.709,1.064c1.849,0.294,2.521,0.672,2.521,2.031c0,1.639-1.037,2.185-2.731,2.185
		c-0.896,0-2.465-0.266-2.465-0.266l0.056-0.91c0,0,1.597,0.237,2.312,0.237c1.148,0,1.765-0.252,1.765-1.204
		c0-0.729-0.364-0.896-1.765-1.121c-1.709-0.266-2.465-0.602-2.465-1.975c0-1.541,1.247-2.045,2.521-2.045
		c1.05,0,2.535,0.266,2.535,0.266L43.68,5.913z"/>
	<path fill="#999999" d="M50.68,10.941l0.027,0.854c0,0-1.583,0.224-2.717,0.224c-2.102,0-2.788-1.218-2.788-3.6
		c0-2.661,1.163-3.684,2.941-3.684c1.849,0,2.816,0.98,2.816,3.277l-0.057,0.813h-4.636c0.014,1.471,0.462,2.241,1.849,2.241
		C49.167,11.067,50.68,10.941,50.68,10.941z M49.909,7.972c0-1.681-0.546-2.297-1.765-2.297c-1.205,0-1.877,0.658-1.877,2.297
		H49.909z M49.657,1.374l0.378,0.98L46.954,3.56l-0.351-0.854L49.657,1.374z"/>
	<path fill="#999999" d="M55.646,4.876h1.051v0.49c0,0,1.05-0.63,2.087-0.63c1.765,0,2.535,1.05,2.535,3.558
		c0,2.745-0.883,3.726-3.054,3.726c-0.658,0-1.373-0.111-1.568-0.153v3.123h-1.051V4.876z M56.697,6.249v4.679
		c0.182,0.042,0.91,0.153,1.513,0.153c1.541,0,2.045-0.77,2.045-2.815c0-1.891-0.603-2.563-1.611-2.563
		C57.72,5.702,56.697,6.249,56.697,6.249z"/>
	<path fill="#999999" d="M67.871,10.465c0.028,0.448,0.364,0.589,0.813,0.645l-0.042,0.91c-0.841,0-1.289-0.153-1.653-0.532
		c0,0-1.261,0.532-2.591,0.532c-1.219,0-1.905-0.77-1.905-2.143c0-1.345,0.687-1.947,2.129-2.073l2.213-0.21V7.02
		c0-0.883-0.448-1.275-1.219-1.275c-1.022,0-2.675,0.183-2.675,0.183l-0.042-0.91c0,0,1.681-0.28,2.76-0.28
		c1.484,0,2.213,0.7,2.213,2.283V10.465z M64.762,8.616c-0.854,0.084-1.205,0.519-1.205,1.232c0,0.813,0.364,1.261,0.994,1.261
		c1.064,0,2.283-0.42,2.283-0.42V8.448L64.762,8.616z"/>
	<path fill="#999999" d="M70.122,4.876h1.051v0.925c0,0,1.078-0.813,2.437-1.064v1.093c-1.316,0.252-2.437,0.966-2.437,0.966v5.085
		h-1.051V4.876z"/>
</g>
</svg>
