<?xml version="1.0" encoding="utf-8"?>
<!-- Generator: Adobe Illustrator 16.0.3, SVG Export Plug-In . SVG Version: 6.00 Build 0)  -->
<!DOCTYPE svg PUBLIC "-//W3C//DTD SVG 1.1//EN" "http://www.w3.org/Graphics/SVG/1.1/DTD/svg11.dtd">
<svg version="1.1" id="powered_by_Google_1_" xmlns="http://www.w3.org/2000/svg" xmlns:xlink="http://www.w3.org/1999/xlink"
	 x="0px" y="0px" width="114px" height="16px" viewBox="0 0 114 16" enable-background="new 0 0 114 16" xml:space="preserve">
<g id="e">
	<g>
		<path fill="#DB4632" d="M111.18,10.956c-1.421,0-2.707-1.102-3.081-2.99l1.151-0.09l3.515-1.414
			c-0.104-0.342-0.299-0.981-1.046-1.473c-0.449-0.283-1.003-0.417-1.541-0.417c-1.541,0-3.426,1.131-3.426,3.438
			c0,1.116,0.464,2.396,1.525,3.14c0.764,0.551,1.512,0.581,1.99,0.581c0.448,0,0.957-0.061,1.451-0.283
			c0.164-0.074,0.328-0.179,0.492-0.268l0.793-0.744C112.496,10.688,111.942,10.956,111.18,10.956z M108.039,7.132
			c0-1.607,1.121-2.068,1.72-2.068c0.808,0,1.48,0.685,1.48,1.279c0,0.209-0.149,0.298-0.434,0.402l-2.722,1.176
			C108.068,7.652,108.039,7.385,108.039,7.132z"/>
	</g>
</g>
<g id="l">
	<g>
		<path fill="#009655" d="M106.184,11.105c-0.493-0.045-0.598-0.135-0.598-0.715V6.953c0-2.113,0.015-3.929,0.135-5.074
			c0.059-0.521,0.209-0.61,0.672-0.878h-2.138l-1.122,0.536h1.166c-0.014,0.685-0.074,1.637-0.09,2.396
			c-0.045,1.548-0.059,3.199-0.059,4.359v2.426c0,0.298-0.061,0.343-0.404,0.789h2.646l0.555-0.327
			C106.693,11.149,106.438,11.135,106.184,11.105z"/>
	</g>
</g>
<g id="g">
	<g>
		<path fill="#1167E8" d="M101.802,11.209l-0.538-0.416c-0.164-0.135-0.389-0.313-0.389-0.641s0.225-0.536,0.418-0.729
			c0.629-0.491,1.256-1.013,1.256-2.113c0-1.131-0.717-1.727-1.061-2.009h0.927l0.957-0.536h-3.081
			c-0.808,0-1.824,0.119-2.678,0.818c-0.643,0.551-0.957,1.31-0.957,1.994c0,1.16,0.898,2.337,2.482,2.337
			c0.15,0,0.314-0.016,0.479-0.03c-0.075,0.179-0.149,0.327-0.149,0.581c0,0.461,0.238,0.743,0.448,1.011
			c-0.673,0.045-1.929,0.119-2.856,0.685c-0.883,0.521-1.152,1.279-1.152,1.815c0,1.102,1.047,2.129,3.216,2.129
			c2.573,0,3.935-1.414,3.935-2.813C103.059,12.266,102.46,11.76,101.802,11.209z M99.842,9.498c-1.285,0-1.869-1.652-1.869-2.649
			c0-0.387,0.074-0.788,0.329-1.101c0.239-0.298,0.658-0.491,1.047-0.491c1.241,0,1.885,1.667,1.885,2.738
			c0,0.268-0.03,0.743-0.374,1.086C100.62,9.319,100.217,9.498,99.842,9.498z M99.857,15.479c-1.601,0-2.633-0.759-2.633-1.815
			s0.957-1.413,1.287-1.532c0.627-0.209,1.436-0.238,1.57-0.238c0.148,0,0.224,0,0.344,0.015c1.137,0.804,1.631,1.205,1.631,1.965
			C102.057,14.795,101.293,15.479,99.857,15.479z"/>
	</g>
</g>
<g id="o">
	<g>
		<path fill="#FFB800" d="M92.438,4.572c-2.272,0-3.874,1.667-3.874,3.616c0,1.666,1.271,3.512,3.65,3.512
			c2.438,0,3.799-1.859,3.799-3.616C96.014,6.283,94.637,4.572,92.438,4.572z M94.084,10.495c-0.344,0.476-0.942,0.759-1.525,0.759
			c-1.811,0-2.543-2.426-2.543-3.898c0-0.641,0.105-1.295,0.688-1.815c0.359-0.313,0.854-0.507,1.347-0.507
			c1.854,0,2.483,2.5,2.483,3.81C94.533,9.424,94.443,10.019,94.084,10.495z"/>
	</g>
</g>
<g id="o_1_">
	<g>
		<path fill="#DB4632" d="M84.482,4.572c-2.273,0-3.875,1.667-3.875,3.616c0,1.666,1.271,3.512,3.65,3.512
			c2.438,0,3.799-1.859,3.799-3.616C88.057,6.283,86.681,4.572,84.482,4.572z M86.127,10.495c-0.344,0.476-0.941,0.759-1.525,0.759
			c-1.81,0-2.543-2.426-2.543-3.898c0-0.641,0.105-1.295,0.688-1.815c0.359-0.313,0.854-0.507,1.348-0.507
			c1.854,0,2.482,2.5,2.482,3.81C86.576,9.424,86.486,10.019,86.127,10.495z"/>
	</g>
</g>
<g id="G">
	<g>
		<path fill="#1167E8" d="M77.217,8.237l-1.121,0.6l2.117-0.111v2.246c-0.421,0.167-0.883,0.349-1.781,0.349
			c-3.057,0-4.963-2.47-4.963-5.092c0-2.441,1.668-4.115,3.884-4.115c1.654,0,2.524,0.851,3.001,1.311l-0.351,0.559l0.49-0.111
			l1.164-1.103c-0.309-0.209-0.8-0.572-1.851-0.865c-0.659-0.181-1.389-0.293-2.146-0.293c-3.575,0-5.665,2.512-5.665,5.218
			c0,2.218,1.473,5.05,5.342,5.05c0.771,0,1.501-0.111,2.314-0.237l2.005-0.46V9.479c0-0.14,0.015-0.544,0.028-0.67
			c0.027-0.111,0.042-0.139,0.141-0.223l0.363-0.349H77.217z"/>
	</g>
</g>
<g id="powered_by">
	<g>
		<path fill-rule="evenodd" clip-rule="evenodd" fill="#999999" d="M3.138,4.939C2.1,4.939,1.048,5.5,1.048,5.5V5.016h-1.052v9.993
			h1.052v-3.087c0.196,0.042,0.912,0.152,1.571,0.152c2.174,0,3.058-0.969,3.058-3.682C5.677,5.915,4.906,4.939,3.138,4.939z
			 M2.563,11.147c-0.603,0-1.333-0.111-1.515-0.152V6.372c0,0,1.024-0.478,1.95-0.478c1.01,0,1.613,0.602,1.613,2.471
			C4.611,10.386,4.106,11.147,2.563,11.147z M9.812,4.971c-2.217,0-3.016,1.027-3.016,3.408c0,2.533,0.645,3.695,3.016,3.695
			c2.371,0,2.988-1.273,2.988-3.668C12.799,6.04,11.93,4.971,9.812,4.971z M9.812,11.147c-1.655,0-1.936-0.831-1.936-2.769
			c0-1.896,0.449-2.467,1.936-2.467c1.346,0,1.908,0.653,1.908,2.494C11.719,10.233,11.466,11.147,9.812,11.147z M20.973,10.995
			h-0.224L19.08,5.154h-1.108l-1.684,5.841h-0.225l-1.402-5.979h-1.052l1.655,6.921h1.753l1.501-5.412l1.473,5.412h1.782
			l1.669-6.921H22.39L20.973,10.995z M27.196,4.971c-1.782,0-2.946,0.917-2.946,3.547c0,2.353,0.688,3.557,2.792,3.557
			c1.136,0,2.721-0.221,2.721-0.221l-0.028-0.845c0,0-1.515,0.125-2.567,0.125c-1.389,0-1.838-0.762-1.852-2.215h4.643l0.056-0.803
			C30.015,5.846,29.047,4.971,27.196,4.971z M25.316,8.074c0-1.619,0.673-2.176,1.88-2.176c1.22,0,1.768,0.515,1.768,2.176H25.316z
			 M32.197,5.016h-1.163v6.921h1.163V6.912c0,0,1.309-0.706,2.767-0.955v-1.08c-1.504,0.249-2.767,1.052-2.767,1.052V5.016z
			 M38.734,4.971c-1.782,0-2.946,0.917-2.946,3.547c0,2.353,0.688,3.557,2.792,3.557c1.136,0,2.721-0.221,2.721-0.221l-0.028-0.845
			c0,0-1.515,0.125-2.567,0.125c-1.389,0-1.837-0.762-1.852-2.215h4.643l0.056-0.803C41.553,5.846,40.585,4.971,38.734,4.971z
			 M36.854,8.074c0-1.619,0.673-2.176,1.88-2.176c1.22,0,1.768,0.515,1.768,2.176H36.854z M47.888,5.079
			c-0.222-0.042-1.169-0.183-1.805-0.183c-2.264,0-3.093,1.102-3.093,3.57c0,3.047,1.213,3.546,2.649,3.546
			c1.11,0,2.249-0.607,2.249-0.607v0.466h1.11V2.028h-1.11V5.079z M47.888,10.518c0,0-1.11,0.521-2.101,0.521
			c-0.873-0.014-1.687-0.287-1.687-2.544c0-1.848,0.488-2.64,2.042-2.64c0.592,0,1.524,0.127,1.746,0.155V10.518z M56.229,4.939
			c-1.033,0-2.125,0.395-2.125,0.395V1.998h-1.091v9.924c0,0,1.572,0.152,2.445,0.152c2.648,0,3.435-0.982,3.435-3.723
			C58.893,5.874,58.208,4.939,56.229,4.939z M55.443,11.147c-0.393,0-1.339-0.083-1.339-0.083V6.206c0,0,1.063-0.312,2.023-0.312
			c1.281,0,1.659,0.686,1.659,2.484C57.786,10.289,57.437,11.147,55.443,11.147z M64.897,5.016l-1.819,5.924h-0.494l-1.819-5.924
			h-1.091l2.066,6.921h1.063l-0.932,3.072h1.092l3.026-9.993H64.897z"/>
	</g>
</g>
</svg>
