<svg xmlns="http://www.w3.org/2000/svg" width="180" height="60" viewBox="0 0 180 60">
  <metadata><?xpacket begin="﻿" id="W5M0MpCehiHzreSzNTczkc9d"?>
<x:xmpmeta xmlns:x="adobe:ns:meta/" x:xmptk="Adobe XMP Core 5.6-c138 79.159824, 2016/09/14-01:09:01        ">
   <rdf:RDF xmlns:rdf="http://www.w3.org/1999/02/22-rdf-syntax-ns#">
      <rdf:Description rdf:about=""/>
   </rdf:RDF>
</x:xmpmeta>
                                                                                                    
                                                                                                    
                                                                                                    
                                                                                                    
                                                                                                    
                                                                                                    
                                                                                                    
                                                                                                    
                                                                                                    
                                                                                                    
                                                                                                    
                                                                                                    
                                                                                                    
                                                                                                    
                                                                                                    
                                                                                                    
                                                                                                    
                                                                                                    
                                                                                                    
                                                                                                    
                           
<?xpacket end="w"?></metadata>
<defs>
    <style>
      .cls-1 {
        fill: #555;
        fill-rule: evenodd;
      }
    </style>
  </defs>
  <path id="b" class="cls-1" d="M166.678,40.792v2.152H164.4V40.792h-5.713V38.964l3.32-8.741h2.509l-3.243,8.417H164.4V34.775h2.278V38.64h1.312v2.152h-1.312ZM152.57,43a26.715,26.715,0,0,1-3.725-.362l0.213-2.019a29.738,29.738,0,0,0,3.512.267c1.95,0,2.876-1.219,2.876-3.2a12.91,12.91,0,0,1-2.721.514c-2.741,0-4.324-1.295-4.324-4,0-2.723,1.834-4.209,4.594-4.209,3.3,0,4.787,2.228,4.787,6.475C157.782,41.421,155.794,43,152.57,43ZM153,32.109a1.99,1.99,0,0,0-2.239,2.095c0,1.371.772,1.961,2.162,1.961a9.63,9.63,0,0,0,2.548-.476C155.446,33.651,154.713,32.109,153,32.109Zm-9.706,2.685c2.856,0,4.342,1.257,4.342,4.018,0,2.78-1.717,4.189-4.593,4.189-3.32,0-4.768-2.323-4.768-6.475,0-4.875,2.008-6.532,5.192-6.532a25,25,0,0,1,3.706.381l-0.193,2.057a29.742,29.742,0,0,0-3.513-.267c-1.911,0-2.856,1.124-2.856,3.2A11.167,11.167,0,0,1,143.289,34.794Zm-2.7,2.514c0.02,1.98.637,3.6,2.452,3.6,1.447,0,2.258-.666,2.258-2.095,0-1.371-.811-1.962-2.2-1.962A12.4,12.4,0,0,0,140.586,37.307ZM142.927,25H141.4V19.29h-2.075V18H145V19.29h-2.075V25Zm-5.737-.368c-0.022-.134-0.042-0.274-0.058-0.422s-0.029-.3-0.039-0.451-0.024-.3-0.043-0.436a1.4,1.4,0,0,0-.33-0.8,1.125,1.125,0,0,0-.824-0.255h-1.523V25h-1.522V18h3.733a2.206,2.206,0,0,1,.839.152,1.931,1.931,0,0,1,.64.417,1.8,1.8,0,0,1,.408.618,2.01,2.01,0,0,1,.14.745A2.126,2.126,0,0,1,138.354,21a1.617,1.617,0,0,1-.839.686V21.7a1.17,1.17,0,0,1,.466.24,1.294,1.294,0,0,1,.3.387,1.842,1.842,0,0,1,.17.485,4.027,4.027,0,0,1,.073.524c0.006,0.111.013,0.242,0.019,0.392s0.018,0.3.034,0.456a3.2,3.2,0,0,0,.078.446,1.027,1.027,0,0,0,.16.363h-1.523A1.78,1.78,0,0,1,137.19,24.629Zm-0.368-5.206a1.164,1.164,0,0,0-.781-0.23h-1.668v1.971h1.668a1.147,1.147,0,0,0,.781-0.235,0.972,0.972,0,0,0,.267-0.765A0.929,0.929,0,0,0,136.822,19.423Zm0.119,10.953-0.193,2.057a29.765,29.765,0,0,0-3.513-.267c-1.911,0-2.857,1.124-2.857,3.2a11.167,11.167,0,0,1,2.683-.571c2.857,0,4.343,1.257,4.343,4.018,0,2.78-1.718,4.189-4.594,4.189-3.32,0-4.767-2.323-4.767-6.475,0-4.875,2.007-6.532,5.192-6.532A25.019,25.019,0,0,1,136.941,30.376ZM132.81,40.907c1.448,0,2.258-.666,2.258-2.095,0-1.371-.81-1.962-2.2-1.962a12.4,12.4,0,0,0-2.509.457C130.378,39.288,131,40.907,132.81,40.907ZM126.566,18h5.179V19.29h-3.656v1.5h3.356v1.2h-3.356V23.7h3.734V25h-5.257V18Zm-5.24,18.378h4.9v2.133h-4.9V36.374Zm3.742-14.584a2.067,2.067,0,0,1-.742.5,2.853,2.853,0,0,1-1.1.191h-1.6V25H120.1V18h3.123a2.853,2.853,0,0,1,1.1.191,2.069,2.069,0,0,1,.742.5,1.933,1.933,0,0,1,.417.721,2.7,2.7,0,0,1,0,1.662A1.935,1.935,0,0,1,125.068,21.79ZM124.031,19.7a0.829,0.829,0,0,0-.3-0.319,1.167,1.167,0,0,0-.427-0.152,3.165,3.165,0,0,0-.5-0.039h-1.183v2.1H122.8a3.153,3.153,0,0,0,.5-0.039,1.164,1.164,0,0,0,.427-0.152,0.828,0.828,0,0,0,.3-0.319A1.365,1.365,0,0,0,124.031,19.7Zm-12.26,21.033,2.992-2.971c1.641-1.638,2.644-2.628,2.644-3.942,0-1.162-.714-1.6-2.316-1.6a20.445,20.445,0,0,0-3.088.324l-0.154-2.057a18.336,18.336,0,0,1,3.783-.5c2.837,0,4.111,1.181,4.111,3.523,0,1.923-.753,3.009-2.644,4.875l-2.3,2.247h5.192v2.152h-8.223V40.735ZM117.674,25l-1.513-2.422L114.619,25H112.9l2.425-3.667L113.1,18h1.765l1.358,2.235L117.625,18h1.668l-2.221,3.343L119.487,25h-1.813Zm-10.329-7h5.179V19.29h-3.656v1.5h3.355v1.2h-3.355V23.7H112.6V25h-5.257V18ZM111.27,36.47c0,4.951-1.989,6.532-5.212,6.532a26.715,26.715,0,0,1-3.725-.362l0.212-2.019a29.765,29.765,0,0,0,3.513.267c1.95,0,2.876-1.219,2.876-3.2a12.926,12.926,0,0,1-2.721.514c-2.741,0-4.324-1.295-4.324-4,0-2.723,1.834-4.209,4.594-4.209C109.783,29.995,111.27,32.223,111.27,36.47Zm-4.787-4.361a1.989,1.989,0,0,0-2.239,2.095c0,1.371.772,1.961,2.162,1.961a9.629,9.629,0,0,0,2.547-.476C108.934,33.651,108.2,32.109,106.483,32.109Zm-7.575-11.8H98.889V25H97.463V18h1.513l2.89,4.7h0.02V18h1.425v7h-1.522Zm1.555,12.123a29.758,29.758,0,0,0-3.513-.267c-1.911,0-2.857,1.124-2.857,3.2a11.168,11.168,0,0,1,2.683-.571c2.857,0,4.343,1.257,4.343,4.018,0,2.78-1.718,4.189-4.594,4.189-3.32,0-4.767-2.323-4.767-6.475,0-4.875,2.007-6.532,5.192-6.532a25.013,25.013,0,0,1,3.706.381Zm-3.938,8.474c1.448,0,2.258-.666,2.258-2.095,0-1.371-.811-1.962-2.2-1.962a12.4,12.4,0,0,0-2.509.457C94.093,39.288,94.711,40.907,96.525,40.907ZM93.584,25a3.2,3.2,0,0,1-2.177-.676,2.616,2.616,0,0,1-.771-2.075V18h1.523v4.256a3.05,3.05,0,0,0,.048.546,1.135,1.135,0,0,0,.2.479,1.062,1.062,0,0,0,.432.335,1.83,1.83,0,0,0,.742.125,1.437,1.437,0,0,0,1.125-.359,1.7,1.7,0,0,0,.31-1.126V18h1.523v4.256a2.593,2.593,0,0,1-.785,2.071A3.209,3.209,0,0,1,93.584,25ZM85.041,36.374h4.9v2.133h-4.9V36.374Zm0.029-12.937H82.48L81.937,25H80.4l2.628-7h1.561l2.589,7H85.593ZM83.8,19.722H83.78l-0.9,2.569h1.794Zm-2.292-3.589h1.524l0.932,1.349H83Zm-5.927,8.5q-0.034-.2-0.058-0.422t-0.039-.451q-0.015-.23-0.044-0.436a1.4,1.4,0,0,0-.33-0.8,1.126,1.126,0,0,0-.824-0.255H72.763V25H71.24V18h3.734a2.207,2.207,0,0,1,.839.152,1.931,1.931,0,0,1,.64.417,1.8,1.8,0,0,1,.407.618,2,2,0,0,1,.141.745A2.123,2.123,0,0,1,76.744,21a1.618,1.618,0,0,1-.839.686V21.7a1.172,1.172,0,0,1,.465.24,1.31,1.31,0,0,1,.3.387,1.878,1.878,0,0,1,.17.485,4.132,4.132,0,0,1,.073.524q0.009,0.167.019,0.392t0.034,0.456a3.257,3.257,0,0,0,.078.446A1.031,1.031,0,0,0,77.2,25H75.682A1.737,1.737,0,0,1,75.58,24.629Zm-0.369-5.206a1.164,1.164,0,0,0-.781-0.23H72.763v1.971h1.668a1.147,1.147,0,0,0,.781-0.235,0.973,0.973,0,0,0,.267-0.765A0.93,0.93,0,0,0,75.212,19.423ZM64.956,18h5.179V19.29H66.479v1.5h3.355v1.2H66.479V23.7h3.734V25H64.956V18ZM59.4,18h1.523V23.7H64.3V25H59.4V18Zm4.49,15.388a2.831,2.831,0,0,1-1.641,2.895,3.283,3.283,0,0,1,1.834,3.1c0,2.685-2.2,3.618-4.864,3.618-2.644,0-4.806-.781-4.806-3.409a3.505,3.505,0,0,1,1.814-3.313,3.029,3.029,0,0,1-1.6-2.914c0-2.171,1.814-3.371,4.594-3.371C61.959,29.995,63.889,31.176,63.889,33.385Zm-4.671,7.484c1.506,0,2.432-.571,2.432-1.809a1.779,1.779,0,0,0-1.525-1.676h-1.8A1.752,1.752,0,0,0,56.844,39.1C56.844,40.3,57.732,40.868,59.218,40.868Zm0.039-8.722c-1.39,0-2.2.419-2.2,1.562A1.84,1.84,0,0,0,58.33,35.4h1.8a1.876,1.876,0,0,0,1.332-1.695C61.457,32.585,60.666,32.147,59.257,32.147Zm-2.519-7.518q-0.034-.2-0.058-0.422t-0.039-.451q-0.015-.23-0.044-0.436a1.4,1.4,0,0,0-.33-0.8,1.126,1.126,0,0,0-.824-0.255H53.92V25H52.4V18h3.734a2.207,2.207,0,0,1,.839.152,1.932,1.932,0,0,1,.64.417,1.8,1.8,0,0,1,.407.618,2,2,0,0,1,.141.745A2.123,2.123,0,0,1,57.9,21a1.618,1.618,0,0,1-.839.686V21.7a1.172,1.172,0,0,1,.466.24,1.31,1.31,0,0,1,.3.387,1.878,1.878,0,0,1,.17.485,4.114,4.114,0,0,1,.073.524q0.01,0.167.019,0.392t0.034,0.456a3.257,3.257,0,0,0,.078.446,1.031,1.031,0,0,0,.16.363H56.839A1.737,1.737,0,0,1,56.738,24.629Zm-0.368-5.206a1.164,1.164,0,0,0-.781-0.23H53.92v1.971h1.668a1.147,1.147,0,0,0,.781-0.235,0.973,0.973,0,0,0,.267-0.765A0.93,0.93,0,0,0,56.369,19.423Zm-6.677,4.015H47.1L46.56,25H45.018l2.628-7h1.561L51.8,25H50.216Zm-1.27-3.716H48.4L47.5,22.29h1.794ZM44.974,21.79a2.066,2.066,0,0,1-.742.5,2.856,2.856,0,0,1-1.105.191h-1.6V25H40V18h3.123a2.856,2.856,0,0,1,1.105.191,2.069,2.069,0,0,1,.742.5,1.941,1.941,0,0,1,.417.721,2.7,2.7,0,0,1,0,1.662A1.944,1.944,0,0,1,44.974,21.79ZM43.936,19.7a0.825,0.825,0,0,0-.3-0.319,1.169,1.169,0,0,0-.427-0.152,3.161,3.161,0,0,0-.5-0.039H41.526v2.1H42.71a3.15,3.15,0,0,0,.5-0.039,1.165,1.165,0,0,0,.427-0.152,0.825,0.825,0,0,0,.3-0.319A1.359,1.359,0,0,0,43.936,19.7Zm1.306,10.521V42.792H42.964v-9.96L40.05,34.718l-1.062-1.79,4.13-2.7h2.123ZM16,32.286V29.714C16,28,16,28,17.5,28S19,28,19,29.714v2.572C19,34,19,34,17.5,34S16,34,16,32.286ZM30,35.5H28v-9c0-3.864-4.052-7.5-8-7.5s-8,3.636-8,7.5c0,0-.04,9,0,9a5.164,5.164,0,0,0,5,5A1.5,1.5,0,0,1,18.5,39h3c1.131,0,1.5.885,1.5,1.992S22.631,43,21.5,43h-3A1.483,1.483,0,0,1,17,41.5a5.833,5.833,0,0,1-6-6H10a3.234,3.234,0,0,1-3-3V29a2.663,2.663,0,0,1,3-3c0.215-4.927,4.914-9,10-9s9.785,4.073,10,9a3.24,3.24,0,0,1,3,3v3.5A3.183,3.183,0,0,1,30,35.5Zm-9-3.214V29.714C21,28,21,28,22.5,28S24,28,24,29.714v2.572C24,34,24,34,22.5,34S21,34,21,32.286Zm31.732,6.221h-4.9V36.374h4.9v2.133Zm20.813-5.84-5,10.34-2.232-.6,4.75-9.782V32.168H64.989V30h8.559v2.671Zm10.44,0-5,10.34-2.232-.6,4.75-9.782V32.168H75.429V30h8.559v2.671Z"/>
</svg>
