<svg xmlns="http://www.w3.org/2000/svg" width="140" height="60" viewBox="0 0 140 60">
  <metadata><?xpacket begin="﻿" id="W5M0MpCehiHzreSzNTczkc9d"?>
<x:xmpmeta xmlns:x="adobe:ns:meta/" x:xmptk="Adobe XMP Core 5.6-c138 79.159824, 2016/09/14-01:09:01        ">
   <rdf:RDF xmlns:rdf="http://www.w3.org/1999/02/22-rdf-syntax-ns#">
      <rdf:Description rdf:about=""/>
   </rdf:RDF>
</x:xmpmeta>
                                                                                                    
                                                                                                    
                                                                                                    
                                                                                                    
                                                                                                    
                                                                                                    
                                                                                                    
                                                                                                    
                                                                                                    
                                                                                                    
                                                                                                    
                                                                                                    
                                                                                                    
                                                                                                    
                                                                                                    
                                                                                                    
                                                                                                    
                                                                                                    
                                                                                                    
                                                                                                    
                           
<?xpacket end="w"?></metadata>
<defs>
    <style>
      .cls-1 {
        fill: #555;
        fill-rule: evenodd;
      }
    </style>
  </defs>
  <path id="b" class="cls-1" d="M125.121,47.01H122.74l2.306-4.954-3.812-8.881h2.222l2.7,6.328,2.462-6.328H131Zm-1.688-22.383c-0.022-.133-0.041-0.273-0.056-0.419s-0.028-.3-0.037-0.448-0.024-.3-0.042-0.433a1.419,1.419,0,0,0-.317-0.8,1.06,1.06,0,0,0-.792-0.253h-1.463v2.717h-1.463V18.039h3.587a2.057,2.057,0,0,1,.806.151,1.834,1.834,0,0,1,.615.414,1.791,1.791,0,0,1,.392.614,2.043,2.043,0,0,1,.135.74,2.162,2.162,0,0,1-.247,1.062,1.569,1.569,0,0,1-.806.682V21.72a1.114,1.114,0,0,1,.447.239,1.286,1.286,0,0,1,.289.385,1.882,1.882,0,0,1,.163.482,4.148,4.148,0,0,1,.07.521c0.006,0.111.012,0.24,0.019,0.39s0.017,0.3.032,0.453a3.47,3.47,0,0,0,.075.443,1.028,1.028,0,0,0,.154.36h-1.463A1.757,1.757,0,0,1,123.433,24.627Zm-0.354-5.171a1.094,1.094,0,0,0-.75-0.229h-1.6v1.957h1.6a1.078,1.078,0,0,0,.75-0.234,0.984,0.984,0,0,0,.256-0.759A0.94,0.94,0,0,0,123.079,19.456ZM120.82,36.413l0,6.582h-2.035a14.286,14.286,0,0,1-.03-1.526,3.737,3.737,0,0,1-1.128,1.127,2.812,2.812,0,0,1-1.567.455,3.032,3.032,0,0,1-2.227-.769,2.347,2.347,0,0,1-.776-2.113,3,3,0,0,1,1.064-2.626,4.619,4.619,0,0,1,3-.773,4.764,4.764,0,0,1,1.622.464V36.4a1.58,1.58,0,0,0-.429-1.176,1.672,1.672,0,0,0-1.227-.424,1.7,1.7,0,0,0-1.133.354,1.134,1.134,0,0,0-.421.91h-2.008l-0.009-.053A2.4,2.4,0,0,1,114.491,34a4.08,4.08,0,0,1,2.716-.875,3.9,3.9,0,0,1,2.618.849A3.03,3.03,0,0,1,120.82,36.413Zm-2.085,2.166a3.837,3.837,0,0,0-1.656-.465,1.7,1.7,0,0,0-1.425.464,2.556,2.556,0,0,0-.515,1.556,1.13,1.13,0,0,0,.348.871,1.4,1.4,0,0,0,.991.323,2.564,2.564,0,0,0,1.42-.407,2.029,2.029,0,0,0,.837-0.928V38.579Zm-4.027-13.7a3.027,3.027,0,0,1-2.087-.66,2.579,2.579,0,0,1-.739-2.026V18.039h1.459v4.155a3.046,3.046,0,0,0,.047.533,1.124,1.124,0,0,0,.195.468,1.02,1.02,0,0,0,.414.328,1.724,1.724,0,0,0,.711.122,1.36,1.36,0,0,0,1.078-.351,1.675,1.675,0,0,0,.3-1.1V18.039h1.46v4.155a2.556,2.556,0,0,1-.753,2.021A3.041,3.041,0,0,1,114.708,24.879Zm-4.862,4.949h1.969v13.2h-1.969v-13.2Zm0.125-5.453a2.576,2.576,0,0,1-.865.449,3.954,3.954,0,0,1-1.194.164,4.038,4.038,0,0,1-1.065-.14,2.678,2.678,0,0,1-.906-0.43,2.157,2.157,0,0,1-.628-0.739,2.186,2.186,0,0,1-.228-1.067H106.5a1.239,1.239,0,0,0,.121.571,1.067,1.067,0,0,0,.321.379,1.382,1.382,0,0,0,.465.215,2.189,2.189,0,0,0,.562.07,2.882,2.882,0,0,0,.419-0.033,1.441,1.441,0,0,0,.418-0.126,0.917,0.917,0,0,0,.326-0.257,0.652,0.652,0,0,0,.13-0.416,0.591,0.591,0,0,0-.172-0.44,1.428,1.428,0,0,0-.451-0.285,3.819,3.819,0,0,0-.632-0.2q-0.354-.079-0.716-0.182a6.32,6.32,0,0,1-.726-0.229,2.487,2.487,0,0,1-.632-0.351,1.667,1.667,0,0,1-.451-0.533,1.643,1.643,0,0,1-.172-0.786,1.756,1.756,0,0,1,.219-0.894,1.976,1.976,0,0,1,.572-0.632,2.482,2.482,0,0,1,.8-0.374,3.388,3.388,0,0,1,.893-0.122,4.2,4.2,0,0,1,1,.117,2.493,2.493,0,0,1,.851.379,1.9,1.9,0,0,1,.59.669,2.059,2.059,0,0,1,.219.987h-1.413a1.2,1.2,0,0,0-.126-0.5,0.822,0.822,0,0,0-.284-0.309,1.191,1.191,0,0,0-.409-0.159,2.49,2.49,0,0,0-.492-0.047,1.717,1.717,0,0,0-.354.037,0.946,0.946,0,0,0-.32.131,0.783,0.783,0,0,0-.238.239,0.637,0.637,0,0,0-.092.351,0.6,0.6,0,0,0,.074.318,0.633,0.633,0,0,0,.293.22,4.418,4.418,0,0,0,.6.206q0.386,0.108,1.009.267c0.08,0.019.186,0.045,0.316,0.079a3.47,3.47,0,0,1,.414.14,2.734,2.734,0,0,1,.437.229,1.926,1.926,0,0,1,.4.346,1.645,1.645,0,0,1,.292.491,1.791,1.791,0,0,1,.112.66,2.049,2.049,0,0,1-.177.851A1.855,1.855,0,0,1,109.971,24.375Zm-2.209,6.567a4.239,4.239,0,0,1,0,5.961,4.821,4.821,0,0,1-3.386,1.122h-2.924v5.016h-2.18V29.811h5.1A4.8,4.8,0,0,1,107.762,30.942Zm-3.386.641h-2.924v4.671h2.924A2.372,2.372,0,0,0,106.2,35.6a2.341,2.341,0,0,0,.61-1.663,2.407,2.407,0,0,0-.61-1.681A2.337,2.337,0,0,0,104.376,31.583ZM95.248,18.039h4.976v1.285H96.711v1.49h3.224V22H96.711v1.7H100.3v1.285h-5.05V18.039Zm-5.9,0h1.463v5.668h3.243v1.285H89.349V18.039Zm0.627,16.017a3.956,3.956,0,0,1,3.63,2.589l0.3,0.72-5.854,2.459A2.244,2.244,0,0,0,90.2,41.163a2.438,2.438,0,0,0,2.139-1.216l1.509,1.017A4.417,4.417,0,0,1,90.188,42.9,4.248,4.248,0,0,1,85.9,38.469a4.156,4.156,0,0,1,4.072-4.412h0Zm-2.218,4.3L91.667,36.7a1.738,1.738,0,0,0-1.616-.944A2.444,2.444,0,0,0,87.758,38.353ZM87.267,24.515a2.285,2.285,0,0,1-.755.36,3.264,3.264,0,0,1-.871.117H82.417V18.039h3.131a3.973,3.973,0,0,1,.867.088,1.829,1.829,0,0,1,.671.287,1.323,1.323,0,0,1,.433.531,1.938,1.938,0,0,1,.154.818,1.556,1.556,0,0,1-.233.872,1.71,1.71,0,0,1-.671.579,1.6,1.6,0,0,1,.918.648,2.21,2.21,0,0,1,.107,2.026A1.753,1.753,0,0,1,87.267,24.515Zm-1.095-4.889a0.638,0.638,0,0,0-.224-0.243,0.92,0.92,0,0,0-.322-0.122,2.046,2.046,0,0,0-.377-0.034H83.88v1.626h1.482A1.02,1.02,0,0,0,86,20.659a0.751,0.751,0,0,0,.252-0.633A0.839,0.839,0,0,0,86.172,19.627Zm0.065,2.5a1.2,1.2,0,0,0-.764-0.229H83.88V23.8h1.566a1.873,1.873,0,0,0,.41-0.044,0.985,0.985,0,0,0,.345-0.146,0.728,0.728,0,0,0,.238-0.277,0.994,0.994,0,0,0,.088-0.448A0.919,0.919,0,0,0,86.237,22.124ZM77.726,46.879a4.2,4.2,0,0,1-3.927-2.6l1.678-.71a2.424,2.424,0,0,0,2.235,1.573A2.205,2.205,0,0,0,80.007,42.7V41.831A2.871,2.871,0,0,1,77.612,42.9a4.426,4.426,0,0,1,.041-8.838,3.071,3.071,0,0,1,2.354,1.014V34.332h1.83v7.94C81.837,45.391,80.059,46.879,77.726,46.879Zm0.1-11.08a2.533,2.533,0,0,0-2.44,2.708A2.5,2.5,0,0,0,77.8,41.168a2.457,2.457,0,0,0,2.357-2.677A2.487,2.487,0,0,0,77.823,35.8ZM79.3,18.039h1.463v6.953H79.3V18.039Zm-5.889,2.3H73.387v4.655h-1.37V18.039h1.454L76.248,22.7h0.019V18.039h1.37v6.953H76.174ZM69.8,23.982a3,3,0,0,1-1.023.736,3.638,3.638,0,0,1-2.752,0A3,3,0,0,1,65,23.982a3.229,3.229,0,0,1-.642-1.1,4.039,4.039,0,0,1-.223-1.352,4.179,4.179,0,0,1,.223-1.38A3.319,3.319,0,0,1,65,19.032a2.945,2.945,0,0,1,1.023-.746,3.638,3.638,0,0,1,2.752,0,2.946,2.946,0,0,1,1.023.746,3.32,3.32,0,0,1,.641,1.119,4.179,4.179,0,0,1,.223,1.38,4.039,4.039,0,0,1-.223,1.352A3.231,3.231,0,0,1,69.8,23.982Zm-0.693-3.3a2.251,2.251,0,0,0-.312-0.732,1.584,1.584,0,0,0-.558-0.513,1.928,1.928,0,0,0-1.674,0A1.581,1.581,0,0,0,66,19.95a2.247,2.247,0,0,0-.311.732,3.65,3.65,0,0,0-.1.848,3.4,3.4,0,0,0,.1.816,2.2,2.2,0,0,0,.311.713,1.6,1.6,0,0,0,.558.508,1.928,1.928,0,0,0,1.674,0,1.6,1.6,0,0,0,.558-0.508,2.207,2.207,0,0,0,.312-0.713,3.4,3.4,0,0,0,.1-0.816A3.65,3.65,0,0,0,69.1,20.682ZM68.29,34.062a4.419,4.419,0,0,1,.03,8.837A4.418,4.418,0,0,1,68.29,34.062Zm0.02,7.1a2.691,2.691,0,1,0-2.493-2.693A2.541,2.541,0,0,0,68.31,41.165ZM58.775,42.9a4.418,4.418,0,0,1-.03-8.837A4.419,4.419,0,0,1,58.775,42.9Zm0-7.1a2.694,2.694,0,1,0,2.449,2.686A2.537,2.537,0,0,0,58.771,35.8Zm3.813-13.99a1.986,1.986,0,0,1-.713.5,2.666,2.666,0,0,1-1.062.19H59.271v2.493H57.808V18.039h3a2.666,2.666,0,0,1,1.062.19,1.987,1.987,0,0,1,.713.5,1.945,1.945,0,0,1,.4.716,2.77,2.77,0,0,1,0,1.651A1.947,1.947,0,0,1,62.583,21.808Zm-1-2.074a0.809,0.809,0,0,0-.284-0.316,1.1,1.1,0,0,0-.41-0.151,2.955,2.955,0,0,0-.485-0.039H59.271v2.084h1.137a2.933,2.933,0,0,0,.485-0.039,1.094,1.094,0,0,0,.41-0.151,0.808,0.808,0,0,0,.284-0.316A1.393,1.393,0,0,0,61.586,19.734Zm-5.675,4.642a2.579,2.579,0,0,1-.865.449,3.958,3.958,0,0,1-1.195.164,4.036,4.036,0,0,1-1.064-.14,2.683,2.683,0,0,1-.907-0.43,2.109,2.109,0,0,1-.855-1.806h1.413a1.232,1.232,0,0,0,.121.571,1.058,1.058,0,0,0,.321.379,1.386,1.386,0,0,0,.465.215,2.189,2.189,0,0,0,.563.07,2.88,2.88,0,0,0,.418-0.033,1.447,1.447,0,0,0,.418-0.126,0.912,0.912,0,0,0,.325-0.257,0.648,0.648,0,0,0,.13-0.416,0.589,0.589,0,0,0-.172-0.44,1.425,1.425,0,0,0-.451-0.285,3.8,3.8,0,0,0-.632-0.2q-0.353-.079-0.716-0.182A6.276,6.276,0,0,1,52.5,21.68a2.477,2.477,0,0,1-.632-0.351A1.663,1.663,0,0,1,51.42,20.8a1.635,1.635,0,0,1-.172-0.786,1.759,1.759,0,0,1,.218-0.894,1.987,1.987,0,0,1,.572-0.632,2.485,2.485,0,0,1,.8-0.374,3.385,3.385,0,0,1,.893-0.122,4.2,4.2,0,0,1,1,.117,2.49,2.49,0,0,1,.851.379,1.915,1.915,0,0,1,.59.669,2.065,2.065,0,0,1,.218.987H54.976a1.189,1.189,0,0,0-.125-0.5,0.826,0.826,0,0,0-.284-0.309,1.2,1.2,0,0,0-.409-0.159,2.5,2.5,0,0,0-.493-0.047,1.71,1.71,0,0,0-.353.037,0.944,0.944,0,0,0-.321.131,0.788,0.788,0,0,0-.237.239,0.637,0.637,0,0,0-.093.351,0.6,0.6,0,0,0,.074.318,0.638,0.638,0,0,0,.293.22,4.444,4.444,0,0,0,.6.206q0.386,0.108,1.009.267,0.121,0.028.316,0.079a3.438,3.438,0,0,1,.414.14,2.7,2.7,0,0,1,.437.229,1.91,1.91,0,0,1,.4.346,1.637,1.637,0,0,1,.293.491,1.8,1.8,0,0,1,.112.66,2.055,2.055,0,0,1-.177.851A1.851,1.851,0,0,1,55.911,24.375Zm-7.645-6.336h1.463v6.953H48.266V18.039ZM52.05,31.032l-1.295,1.357a4.771,4.771,0,0,0-3.331-1.353,5,5,0,0,0-.006,10,4.1,4.1,0,0,0,4.412-3.743H47.411V35.417h6.231a5.688,5.688,0,0,1,.113,1.241,6.015,6.015,0,0,1-6.3,6.249,6.874,6.874,0,1,1-.1-13.747A6.549,6.549,0,0,1,52.05,31.032Zm-5.922-7.042a2.654,2.654,0,0,1-.941.735,3.065,3.065,0,0,1-1.328.268h-2.87V18.039h2.87a3.294,3.294,0,0,1,1.2.214,2.59,2.59,0,0,1,.96.643,2.993,2.993,0,0,1,.634,1.071,4.511,4.511,0,0,1,.228,1.509,5.025,5.025,0,0,1-.186,1.4A3.136,3.136,0,0,1,46.127,23.989Zm-0.811-3.316A1.935,1.935,0,0,0,45,19.948a1.435,1.435,0,0,0-.592-0.463,2.273,2.273,0,0,0-.909-0.161H42.451v4.382h1.3a1.8,1.8,0,0,0,.615-0.107,1.348,1.348,0,0,0,.531-0.355,1.8,1.8,0,0,0,.373-0.648,2.966,2.966,0,0,0,.14-0.974A4.225,4.225,0,0,0,45.317,20.673ZM28.783,34.052l-3.522-4.018,3.5-4.1,5.4,2.973a1.138,1.138,0,0,1,0,2.185Zm-16.979-17A1.112,1.112,0,0,1,12.141,17a1.8,1.8,0,0,1,.857.249L28.762,25.93,24.6,29.364Zm-0.021,25.88a1.309,1.309,0,0,1-.766-1.367l0-23.14a1.3,1.3,0,0,1,.79-1.372L23.939,30.036Zm17-8.881L13,42.741a1.522,1.522,0,0,1-1.215.191L24.6,30.705ZM85.1,43.026H83.128v-13.2H85.1v13.2Z"/>
</svg>
