<svg xmlns="http://www.w3.org/2000/svg" width="140" height="60" viewBox="0 0 140 60">
  <metadata><?xpacket begin="﻿" id="W5M0MpCehiHzreSzNTczkc9d"?>
<x:xmpmeta xmlns:x="adobe:ns:meta/" x:xmptk="Adobe XMP Core 5.6-c138 79.159824, 2016/09/14-01:09:01        ">
   <rdf:RDF xmlns:rdf="http://www.w3.org/1999/02/22-rdf-syntax-ns#">
      <rdf:Description rdf:about=""/>
   </rdf:RDF>
</x:xmpmeta>
                                                                                                    
                                                                                                    
                                                                                                    
                                                                                                    
                                                                                                    
                                                                                                    
                                                                                                    
                                                                                                    
                                                                                                    
                                                                                                    
                                                                                                    
                                                                                                    
                                                                                                    
                                                                                                    
                                                                                                    
                                                                                                    
                                                                                                    
                                                                                                    
                                                                                                    
                                                                                                    
                           
<?xpacket end="w"?></metadata>
<defs>
    <style>
      .cls-1 {
        fill: #555;
        fill-rule: evenodd;
      }
    </style>
  </defs>
  <path id="b" class="cls-1" d="M131.354,24.3a2.264,2.264,0,0,1-.786.457,3.243,3.243,0,0,1-1.087.167,3.3,3.3,0,0,1-.968-0.143,2.34,2.34,0,0,1-.825-0.439,2.16,2.16,0,0,1-.571-0.753,2.455,2.455,0,0,1-.207-1.087H128.2a1.372,1.372,0,0,0,.11.582,1.056,1.056,0,0,0,.291.386,1.217,1.217,0,0,0,.423.219,1.79,1.79,0,0,0,.512.072,2.33,2.33,0,0,0,.38-0.033,1.207,1.207,0,0,0,.381-0.129,0.857,0.857,0,0,0,.3-0.262,0.714,0.714,0,0,0,.118-0.424,0.64,0.64,0,0,0-.156-0.448,1.284,1.284,0,0,0-.41-0.291,3.2,3.2,0,0,0-.575-0.2q-0.323-.081-0.651-0.186a5.282,5.282,0,0,1-.66-0.234,2.2,2.2,0,0,1-.575-0.357,1.659,1.659,0,0,1-.41-0.543,1.823,1.823,0,0,1-.157-0.8,1.911,1.911,0,0,1,.719-1.554,2.164,2.164,0,0,1,.727-0.381,2.778,2.778,0,0,1,.812-0.124,3.427,3.427,0,0,1,.909.119,2.147,2.147,0,0,1,.774.386,1.887,1.887,0,0,1,.537.682,2.3,2.3,0,0,1,.2,1.006h-1.285a1.335,1.335,0,0,0-.115-0.505,0.815,0.815,0,0,0-.258-0.315A1.022,1.022,0,0,0,129.76,19a2.036,2.036,0,0,0-.448-0.048,1.391,1.391,0,0,0-.321.038,0.8,0.8,0,0,0-.292.134,0.758,0.758,0,0,0-.216.243,0.713,0.713,0,0,0-.084.358,0.676,0.676,0,0,0,.067.324,0.593,0.593,0,0,0,.267.224,3.7,3.7,0,0,0,.549.21q0.351,0.11.918,0.272,0.11,0.029.288,0.081a2.943,2.943,0,0,1,.376.143,2.354,2.354,0,0,1,.4.233,1.8,1.8,0,0,1,.364.353,1.7,1.7,0,0,1,.266.5,2.027,2.027,0,0,1,.1.672,2.31,2.31,0,0,1-.161.867A1.863,1.863,0,0,1,131.354,24.3Zm-0.272,9.494A5.766,5.766,0,0,1,132,37.113a5.547,5.547,0,0,1-.085,1.064h-6.939a3.088,3.088,0,0,0,1.006,2.389,3.406,3.406,0,0,0,2.269.738,7.58,7.58,0,0,0,2.808-.5l0.362,1.629a8.578,8.578,0,0,1-3.49.652,5.015,5.015,0,0,1-3.8-1.445,5.381,5.381,0,0,1-1.381-3.876,6.1,6.1,0,0,1,1.285-3.976,4.413,4.413,0,0,1,3.642-1.693A3.86,3.86,0,0,1,131.082,33.79Zm-5.421.892a3.514,3.514,0,0,0-.684,1.824h4.818a3.225,3.225,0,0,0-.448-1.8,2.015,2.015,0,0,0-1.844-.978A2.186,2.186,0,0,0,125.661,34.681Zm-3.715-14.424h-0.017v4.75h-1.243V17.953h1.319l2.52,4.677h0.017V17.953h1.243v7.055h-1.327Zm-0.162,12.034v2.236a3.975,3.975,0,0,0-.73-0.064,2.175,2.175,0,0,0-1.885.935,3.542,3.542,0,0,0-.578,2.084V43.02h-2.312l0.02-7.233q0-1.824-.087-3.322h2.016l0.085,2.02h0.063a3.6,3.6,0,0,1,1.158-1.671,2.768,2.768,0,0,1,1.672-.565A3.637,3.637,0,0,1,121.784,32.291Zm-3.627-8.919H115.9l-0.474,1.636h-1.344l2.291-7.055h1.362l2.258,7.055h-1.378Zm-1.108-3.7h-0.017l-0.786,2.558h1.564Zm-4.1,4.247a2.46,2.46,0,0,1-.854.737,2.587,2.587,0,0,1-1.2.352l-2.6-.083V17.953h2.6a2.744,2.744,0,0,1,1.087.215,2.354,2.354,0,0,1,.871.644,3.08,3.08,0,0,1,.575,1.074,4.963,4.963,0,0,1,.207,1.513,5.518,5.518,0,0,1-.169,1.406A3.267,3.267,0,0,1,112.951,23.919Zm-0.735-3.325a2.047,2.047,0,0,0-.292-0.727,1.327,1.327,0,0,0-.537-0.464,1.891,1.891,0,0,0-.825-0.161h-0.947v4.394H110.8a1.5,1.5,0,0,0,.558-0.107,1.218,1.218,0,0,0,.482-0.356,1.865,1.865,0,0,0,.339-0.649,3.28,3.28,0,0,0,.127-0.976A4.68,4.68,0,0,0,112.216,20.594Zm0.593,13.067a5.607,5.607,0,0,1,1.329,3.865,5.829,5.829,0,0,1-1.372,3.995,4.859,4.859,0,0,1-3.813,1.608,4.624,4.624,0,0,1-3.652-1.541A5.663,5.663,0,0,1,103.94,37.7a5.783,5.783,0,0,1,1.4-4.017,4.828,4.828,0,0,1,3.782-1.564A4.72,4.72,0,0,1,112.809,33.661Zm-5.89,1.436a4.888,4.888,0,0,0-.622,2.549,4.793,4.793,0,0,0,.622,2.5,2.347,2.347,0,0,0,4.175-.021,5.323,5.323,0,0,0,.022-5.031,2.282,2.282,0,0,0-2.076-1.263A2.312,2.312,0,0,0,106.919,35.1Zm-3.812-10.539c-0.019-.133-0.036-0.273-0.05-0.42s-0.026-.3-0.034-0.449-0.021-.3-0.038-0.434a1.5,1.5,0,0,0-.288-0.8,0.906,0.906,0,0,0-.719-0.254h-1.327v2.724H99.323V17.953h3.256a1.716,1.716,0,0,1,.731.151,1.7,1.7,0,0,1,.559.415,1.835,1.835,0,0,1,.355.615,2.256,2.256,0,0,1,.122.742,2.35,2.35,0,0,1-.224,1.064,1.471,1.471,0,0,1-.731.684v0.019a0.994,0.994,0,0,1,.406.239,1.3,1.3,0,0,1,.262.386,2.082,2.082,0,0,1,.148.483,4.561,4.561,0,0,1,.063.522c0.006,0.111.011,0.241,0.017,0.39s0.016,0.3.03,0.454a3.681,3.681,0,0,0,.067.444,1.107,1.107,0,0,0,.14.361H103.2A1.985,1.985,0,0,1,103.107,24.558Zm-0.321-5.185a0.931,0.931,0,0,0-.681-0.229h-1.454v1.963h1.454a0.918,0.918,0,0,0,.681-0.234,1.051,1.051,0,0,0,.233-0.762A1,1,0,0,0,102.786,19.374ZM93.5,17.953H98.02v1.289H94.832v1.494h2.926v1.191H94.832v1.792h3.256v1.289H93.5V17.953Zm0.345,12.689a5.62,5.62,0,0,0-2.763-.675,2.766,2.766,0,0,0-1.905.61A1.75,1.75,0,0,0,88.6,31.9a1.8,1.8,0,0,0,.664,1.433,7.45,7.45,0,0,0,2.1,1.13,7.111,7.111,0,0,1,2.742,1.78,3.764,3.764,0,0,1,.877,2.541,3.925,3.925,0,0,1-1.282,3.04,5.632,5.632,0,0,1-3.933,1.282,6.817,6.817,0,0,1-3.742-.912l0.536-1.955a6.272,6.272,0,0,0,3.344.935,3.13,3.13,0,0,0,2.036-.6,1.961,1.961,0,0,0,.727-1.6,2.049,2.049,0,0,0-.6-1.5,5.571,5.571,0,0,0-1.991-1.132q-3.794-1.434-3.792-4.2a3.745,3.745,0,0,1,1.329-2.959,5.2,5.2,0,0,1,3.536-1.153,6.918,6.918,0,0,1,3.275.7Zm-2.739-6.656a2.1,2.1,0,0,1-.787.724,1.976,1.976,0,0,1-.871.21,2.7,2.7,0,0,1-2.182-1.029,3.415,3.415,0,0,1-.584-1.125,4.6,4.6,0,0,1-.2-1.382,4.76,4.76,0,0,1,.2-1.411,3.515,3.515,0,0,1,.584-1.144,2.719,2.719,0,0,1,.93-0.762,2.749,2.749,0,0,1,1.252-.276,2.634,2.634,0,0,1,.9.157,2.419,2.419,0,0,1,.782.462,2.566,2.566,0,0,1,.579.753A2.729,2.729,0,0,1,92,20.193H90.73a1.46,1.46,0,0,0-.461-0.858,1.233,1.233,0,0,0-.816-0.286,1.41,1.41,0,0,0-.761.2,1.518,1.518,0,0,0-.507.524,2.458,2.458,0,0,0-.283.748,4.178,4.178,0,0,0-.089.867,3.884,3.884,0,0,0,.089.834,2.4,2.4,0,0,0,.283.729,1.53,1.53,0,0,0,.507.52,1.408,1.408,0,0,0,.761.2,1.345,1.345,0,0,0,1.015-.377,1.725,1.725,0,0,0,.423-1.091H89.555V21.079h2.537v3.679H91.246Zm-7.024.655c-0.02-.133-0.037-0.357-0.051-0.5s-0.025-.3-0.034-0.449-0.021-.3-0.038-0.434a1.5,1.5,0,0,0-.288-0.8,0.905,0.905,0,0,0-.719-0.254H81.63v2.807H80.3V17.953h3.256a1.717,1.717,0,0,1,.732.151,1.684,1.684,0,0,1,.558.415,1.832,1.832,0,0,1,.355.615,2.241,2.241,0,0,1,.123.742,2.359,2.359,0,0,1-.224,1.064,1.473,1.473,0,0,1-.732.684v0.019a0.985,0.985,0,0,1,.406.239,1.3,1.3,0,0,1,.262.386,2.058,2.058,0,0,1,.148.483,4.676,4.676,0,0,1,.063.522q0.008,0.166.017,0.39t0.03,0.454a5.175,5.175,0,0,0,.068.527,1.1,1.1,0,0,0,.139.361H84.176A1.922,1.922,0,0,1,84.087,24.642Zm-0.321-5.268a0.931,0.931,0,0,0-.681-0.229H81.63v1.963h1.455a0.918,0.918,0,0,0,.681-0.234A1.051,1.051,0,0,0,84,20.111,1,1,0,0,0,83.766,19.374Zm-4.1,22.17a4.169,4.169,0,0,1-3.192,1.39,3.177,3.177,0,0,1-2.956-1.5H73.474V47H71.161V35.615q0-1.693-.086-3.475h2.034l0.129,1.673H73.28a4.084,4.084,0,0,1,6.588-.414A5.881,5.881,0,0,1,81.1,37.288,6.05,6.05,0,0,1,79.664,41.544Zm-1.607-6.71a2.43,2.43,0,0,0-3.566-.467,2.668,2.668,0,0,0-.91,1.51,3.092,3.092,0,0,0-.108.715v1.759a2.839,2.839,0,0,0,.7,1.944,2.293,2.293,0,0,0,1.81.793,2.361,2.361,0,0,0,2.035-1.02,4.55,4.55,0,0,0,.728-2.694A4.39,4.39,0,0,0,78.058,34.833ZM77.6,23.372H75.347l-0.474,1.636H73.528l2.292-7.055h1.362l2.258,7.055H78.061Zm-1.108-3.7H76.48L75.693,22.23h1.565Zm-5.159,2.246H68.894v3.09H67.566V17.953h1.328v2.675h2.444V17.953h1.328v7.055H71.338v-3.09ZM62.4,22.947a1.53,1.53,0,0,0,.507.52,1.409,1.409,0,0,0,.761.2,1.155,1.155,0,0,0,.951-0.424,2.082,2.082,0,0,0,.419-1.1h1.285a3.821,3.821,0,0,1-.262,1.153,2.781,2.781,0,0,1-.558.877,2.4,2.4,0,0,1-.812.557,2.617,2.617,0,0,1-1.023.2,2.7,2.7,0,0,1-2.182-1.029,3.417,3.417,0,0,1-.584-1.125,4.6,4.6,0,0,1-.2-1.382,4.757,4.757,0,0,1,.2-1.411,3.517,3.517,0,0,1,.584-1.144,2.719,2.719,0,0,1,.93-0.762,2.908,2.908,0,0,1,2.195-.114,2.442,2.442,0,0,1,1.374,1.239,3,3,0,0,1,.288,1.049H64.987a1.324,1.324,0,0,0-.152-0.472,1.465,1.465,0,0,0-.3-0.377,1.335,1.335,0,0,0-.4-0.253,1.243,1.243,0,0,0-.469-0.091,1.411,1.411,0,0,0-.761.2,1.518,1.518,0,0,0-.507.524,2.455,2.455,0,0,0-.283.748,4.178,4.178,0,0,0-.089.867,3.884,3.884,0,0,0,.089.834A2.4,2.4,0,0,0,62.4,22.947Zm-7.256-4.994h4.516v1.289H56.47v1.494H59.4v1.191H56.47v1.764h3.256V24.98H55.142V17.953Zm1.522-.61,0.812-1.354H58.8l-1.3,1.354H56.665Zm-6.876.61h1.328v5.738H54.06V24.98H49.789V17.953Zm-5.819,0h4.516v1.289H45.3v1.494h2.926v1.191H45.3v1.764h3.256V24.98H43.97V17.953Zm1.522-.61L46.3,15.989h1.328l-1.3,1.354H45.493Zm2,11a22.469,22.469,0,0,1-2.19,5.428l-1.439.154a28.009,28.009,0,0,0,1.353-5.364ZM41.129,24.98H39.8V19.242h-1.81V17.953h4.947v1.289h-1.81V24.98Zm-12.1,14.6c-1.162,1.724-2.378,3.407-4.31,3.44-1.877.043-2.509-1.1-4.662-1.1-2.173,0-2.845,1.065-4.646,1.14-1.841.068-3.247-1.84-4.45-3.548-2.4-3.488-4.277-9.83-1.767-14.145A6.906,6.906,0,0,1,15,21.855c1.843-.039,3.552,1.234,4.685,1.234,1.11,0,3.225-1.523,5.4-1.295a6.593,6.593,0,0,1,5.181,2.781,6.375,6.375,0,0,0-3.06,5.35A6.169,6.169,0,0,0,31,35.594,14.067,14.067,0,0,1,29.032,39.579ZM19.466,21.473a5.947,5.947,0,0,1,1.485-4.332A6.45,6.45,0,0,1,25.115,15a6.245,6.245,0,0,1-1.447,4.5A5.338,5.338,0,0,1,19.466,21.473ZM41.438,43.045H39.119V28.306h2.319v14.74ZM53,28.382L57.67,43.02H55.206l-1.35-4.3H49.165l-1.285,4.3h-2.4l4.648-14.638H53Zm0.45,8.534-1.221-3.822q-0.194-.587-0.729-2.758H51.458q-0.215.934-.686,2.758l-1.2,3.822H53.45ZM61,33.813h0.042a4.084,4.084,0,0,1,6.588-.414,5.881,5.881,0,0,1,1.231,3.889,6.051,6.051,0,0,1-1.435,4.256,4.169,4.169,0,0,1-3.192,1.39,3.177,3.177,0,0,1-2.956-1.5H61.232V47H58.919V35.615q0-1.693-.086-3.475h2.034Zm0.236,4.538a2.839,2.839,0,0,0,.7,1.944,2.293,2.293,0,0,0,1.81.793,2.361,2.361,0,0,0,2.035-1.02,4.549,4.549,0,0,0,.728-2.694,4.39,4.39,0,0,0-.686-2.541,2.43,2.43,0,0,0-3.566-.467,2.668,2.668,0,0,0-.91,1.51,3.086,3.086,0,0,0-.108.715v1.759ZM97.813,30.4l2.271-.7v2.628h2.55v1.76h-2.55V39.22q0,1.954,1.351,1.956a4.087,4.087,0,0,0,1.027-.11l0.063,1.781a5.164,5.164,0,0,1-1.8.26,2.748,2.748,0,0,1-2.142-.846,4.2,4.2,0,0,1-.771-2.846v-5.32h-1.52v-1.76h1.52V30.4Z"/>
</svg>
