<svg xmlns="http://www.w3.org/2000/svg" width="140" height="60" viewBox="0 0 140 60">
  <metadata><?xpacket begin="﻿" id="W5M0MpCehiHzreSzNTczkc9d"?>
<x:xmpmeta xmlns:x="adobe:ns:meta/" x:xmptk="Adobe XMP Core 5.6-c138 79.159824, 2016/09/14-01:09:01        ">
   <rdf:RDF xmlns:rdf="http://www.w3.org/1999/02/22-rdf-syntax-ns#">
      <rdf:Description rdf:about=""/>
   </rdf:RDF>
</x:xmpmeta>
                                                                                                    
                                                                                                    
                                                                                                    
                                                                                                    
                                                                                                    
                                                                                                    
                                                                                                    
                                                                                                    
                                                                                                    
                                                                                                    
                                                                                                    
                                                                                                    
                                                                                                    
                                                                                                    
                                                                                                    
                                                                                                    
                                                                                                    
                                                                                                    
                                                                                                    
                                                                                                    
                           
<?xpacket end="w"?></metadata>
<defs>
    <style>
      .cls-1 {
        fill: #555;
        fill-rule: evenodd;
      }
    </style>
  </defs>
  <path id="Apple" class="cls-1" d="M125.311,17.994h4.616v1.3h-3.258v1.5h2.99V22h-2.99v1.721H130v1.3h-4.685V17.994Zm-2.273,3.993h-2.466v3.029h-1.34V17.994h1.34v2.695h2.466V17.994h1.34v7.022h-1.34V21.987ZM119.5,35.081a4.361,4.361,0,0,0-.751-0.062,2.3,2.3,0,0,0-1.939.895,3.213,3.213,0,0,0-.595,1.994v5.3H113.84l0.02-6.922q0-1.746-.089-3.18h2.074l0.087,1.933H116a3.45,3.45,0,0,1,1.191-1.6,2.99,2.99,0,0,1,1.72-.541,4.015,4.015,0,0,1,.595.041v2.141Zm-3.595-10.065H114.4V19.292h-2.06v-1.3h5.631v1.3h-2.06v5.724Zm-9.605,18.3a4.933,4.933,0,0,1-3.758-1.475,5.2,5.2,0,0,1-1.4-3.721,5.3,5.3,0,0,1,1.443-3.845,5.15,5.15,0,0,1,3.89-1.5,5.034,5.034,0,0,1,3.79,1.476,5.134,5.134,0,0,1,1.368,3.7,5.349,5.349,0,0,1-1.411,3.824A5.184,5.184,0,0,1,106.3,43.312Zm2.225-7.687a2.376,2.376,0,0,0-2.136-1.209,2.41,2.41,0,0,0-2.182,1.209,4.423,4.423,0,0,0-.64,2.44,4.338,4.338,0,0,0,.64,2.4,2.5,2.5,0,0,0,4.3-.02A4.785,4.785,0,0,0,108.528,35.625Zm-3.588-15.3h-0.018V25h-1.315v-6.98H105l2.667,4.682h0.017V18.018H109V25H107.6Zm-3.481,3.658a2.884,2.884,0,0,1-.984.739,3.367,3.367,0,0,1-2.648,0,2.892,2.892,0,0,1-.984-0.739,3.276,3.276,0,0,1-.617-1.1,4.209,4.209,0,0,1-.215-1.356,4.356,4.356,0,0,1,.215-1.385,3.37,3.37,0,0,1,.617-1.123,2.842,2.842,0,0,1,.984-0.748,3.367,3.367,0,0,1,2.648,0,2.835,2.835,0,0,1,.984.749,3.375,3.375,0,0,1,.618,1.123,4.364,4.364,0,0,1,.214,1.385,4.217,4.217,0,0,1-.214,1.356A3.281,3.281,0,0,1,101.459,23.983Zm-0.666-3.312a2.322,2.322,0,0,0-.3-0.735,1.546,1.546,0,0,0-.537-0.515,1.788,1.788,0,0,0-1.61,0,1.55,1.55,0,0,0-.537.515,2.31,2.31,0,0,0-.3.735,3.808,3.808,0,0,0-.094.851,3.543,3.543,0,0,0,.094.818,2.26,2.26,0,0,0,.3.716,1.508,1.508,0,0,0,1.342.7,1.581,1.581,0,0,0,.805-0.192,1.561,1.561,0,0,0,.537-0.51,2.272,2.272,0,0,0,.3-0.716,3.581,3.581,0,0,0,.094-0.818A3.85,3.85,0,0,0,100.793,20.671Zm-3.615,9.8v2.515H99.8v1.684H97.178v4.9q0,1.871,1.39,1.872a4.511,4.511,0,0,0,1.057-.105l0.064,1.7a5.677,5.677,0,0,1-1.851.249,2.94,2.94,0,0,1-2.2-.81,3.826,3.826,0,0,1-.794-2.724V34.666H93.278V32.982h1.564v-1.85Zm-9.932-12.48h4.671v1.3h-3.3v1.5h3.026v1.2H88.619V23.7h3.367V25h-4.74V17.987Zm-5.537,0h1.373V23.7h3.044V25H81.709V17.987Zm-1.955,6.53a2.084,2.084,0,0,1-.709.363,2.863,2.863,0,0,1-.818.118H75.2V17.987h2.939a3.474,3.474,0,0,1,.813.088,1.659,1.659,0,0,1,.63.29,1.316,1.316,0,0,1,.407.535,2.082,2.082,0,0,1,.144.825,1.546,1.546,0,0,1-.848,1.463,1.51,1.51,0,0,1,.862.653,2.374,2.374,0,0,1,.1,2.042A1.74,1.74,0,0,1,79.755,24.517Zm-1.028-4.929a0.628,0.628,0,0,0-.21-0.245,0.823,0.823,0,0,0-.3-0.123,1.793,1.793,0,0,0-.354-0.034H76.576v1.64h1.391a0.912,0.912,0,0,0,.6-0.2,0.785,0.785,0,0,0,.236-0.638A0.9,0.9,0,0,0,78.727,19.587Zm0.061,2.519a1.07,1.07,0,0,0-.717-0.231h-1.5V23.8h1.469a1.628,1.628,0,0,0,.385-0.044,0.892,0.892,0,0,0,.324-0.147,0.724,0.724,0,0,0,.223-0.28,1.065,1.065,0,0,0,.083-0.451A0.964,0.964,0,0,0,78.788,22.106ZM77.647,37.722A5.545,5.545,0,0,1,76.171,41.8a4.442,4.442,0,0,1-3.283,1.331,3.344,3.344,0,0,1-3.041-1.434H69.8v5.321H67.422V36.121q0-1.621-.088-3.326h2.093l0.133,1.6H69.6a4.031,4.031,0,0,1,3.615-1.808A4.075,4.075,0,0,1,76.381,34,5.373,5.373,0,0,1,77.647,37.722Zm-3.129-2.349a2.484,2.484,0,0,0-2.072-1,2.561,2.561,0,0,0-1.6.551,2.531,2.531,0,0,0-.936,1.445,2.773,2.773,0,0,0-.111.685V38.74a2.605,2.605,0,0,0,.717,1.861,2.441,2.441,0,0,0,1.862.759,2.492,2.492,0,0,0,2.094-.977,4.133,4.133,0,0,0,.749-2.579A3.984,3.984,0,0,0,74.518,35.373ZM72.412,23.436H70.077L69.587,25H68.2l2.37-7.011h1.408L74.31,25H72.885Zm-1.146-3.722H71.249l-0.814,2.573h1.618Zm-7.942-1.728H64.7V23.7h3.044V25H63.325V17.987Zm1.728,19.736A5.547,5.547,0,0,1,63.577,41.8a4.443,4.443,0,0,1-3.284,1.331,3.343,3.343,0,0,1-3.041-1.434H57.208v5.321h-2.38V36.121q0-1.621-.088-3.326h2.093l0.133,1.6h0.043a4.031,4.031,0,0,1,3.615-1.808A4.075,4.075,0,0,1,63.786,34,5.372,5.372,0,0,1,65.053,37.722Zm-3.13-2.349a2.483,2.483,0,0,0-2.072-1,2.561,2.561,0,0,0-1.6.551,2.53,2.53,0,0,0-.936,1.445,2.763,2.763,0,0,0-.111.685V38.74a2.606,2.606,0,0,0,.717,1.861,2.441,2.441,0,0,0,1.862.759,2.492,2.492,0,0,0,2.094-.977,4.132,4.132,0,0,0,.749-2.579A3.983,3.983,0,0,0,61.923,35.373ZM60.4,17.987h1.373V25H60.4V17.987Zm-2.79,5.45H55.27L54.78,25H53.389l2.37-7.011h1.408L59.5,25H58.077Zm-1.146-3.722H56.442l-0.813,2.573h1.618ZM49.952,25l-2.029-7.011H49.34l1.391,4.929h0.017l1.408-4.929h1.417L51.5,25H49.952Zm-3.271,0-0.472-1.562H43.873L43.383,25H41.993l2.37-7.011h1.408L48.106,25H46.681Zm-1.618-5.283H45.045l-0.813,2.573H45.85ZM48.738,29.2l4.805,14.01H51.009L49.62,39.093H44.793l-1.322,4.115H41L45.785,29.2h2.954ZM49.2,37.367l-1.256-3.658q-0.2-.561-0.75-2.639H47.152q-0.221.894-.706,2.639l-1.235,3.658H49.2Zm-17.982.459c-1.172,1.671-2.4,3.3-4.348,3.334-1.893.042-2.531-1.063-4.7-1.063-2.192,0-2.87,1.032-4.686,1.1-1.857.065-3.275-1.783-4.489-3.439-2.426-3.381-4.314-9.528-1.783-13.711a7.011,7.011,0,0,1,5.857-3.406c1.859-.038,3.584,1.2,4.726,1.2,1.12,0,3.253-1.476,5.451-1.255a6.748,6.748,0,0,1,5.227,2.695,6.17,6.17,0,0,0-3.086,5.186,6.023,6.023,0,0,0,3.823,5.495A13.4,13.4,0,0,1,31.219,37.825Zm-9.65-17.551a5.627,5.627,0,0,1,1.5-4.2A6.6,6.6,0,0,1,27.268,14a5.9,5.9,0,0,1-1.46,4.36A5.475,5.475,0,0,1,21.569,20.274Zm65.14,21.168A3.39,3.39,0,0,0,88.8,40.87a1.825,1.825,0,0,0,.748-1.531,1.892,1.892,0,0,0-.617-1.436,5.846,5.846,0,0,0-2.048-1.084q-3.9-1.373-3.9-4.018a3.482,3.482,0,0,1,1.367-2.832,5.616,5.616,0,0,1,3.637-1.1,7.565,7.565,0,0,1,3.369.665l-0.6,1.83a6.13,6.13,0,0,0-2.843-.646,2.987,2.987,0,0,0-1.96.583,1.624,1.624,0,0,0-.6,1.268,1.672,1.672,0,0,0,.684,1.371,7.845,7.845,0,0,0,2.159,1.082,7.381,7.381,0,0,1,2.821,1.7,3.45,3.45,0,0,1,.9,2.433,3.637,3.637,0,0,1-1.319,2.91,6.078,6.078,0,0,1-4.046,1.226,7.43,7.43,0,0,1-3.85-.873l0.552-1.871A6.817,6.817,0,0,0,86.709,41.442Zm38.854-8.688a4.075,4.075,0,0,1,3.506,1.62,5.243,5.243,0,0,1,.945,3.181,4.93,4.93,0,0,1-.087,1.019h-7.139a2.862,2.862,0,0,0,1.035,2.286,3.676,3.676,0,0,0,2.334.707,8.321,8.321,0,0,0,2.889-.478l0.373,1.559a9.413,9.413,0,0,1-3.591.624,5.376,5.376,0,0,1-3.913-1.383,4.944,4.944,0,0,1-1.42-3.709,5.577,5.577,0,0,1,1.322-3.805A4.68,4.68,0,0,1,125.563,32.754Zm2.182,4.219a2.916,2.916,0,0,0-.462-1.725,2.113,2.113,0,0,0-1.9-.935,2.3,2.3,0,0,0-1.9.915,3.236,3.236,0,0,0-.7,1.746h4.957Z"/>
</svg>
