<svg xmlns="http://www.w3.org/2000/svg" width="140" height="60" viewBox="0 0 140 60">
  <metadata><?xpacket begin="﻿" id="W5M0MpCehiHzreSzNTczkc9d"?>
<x:xmpmeta xmlns:x="adobe:ns:meta/" x:xmptk="Adobe XMP Core 5.6-c138 79.159824, 2016/09/14-01:09:01        ">
   <rdf:RDF xmlns:rdf="http://www.w3.org/1999/02/22-rdf-syntax-ns#">
      <rdf:Description rdf:about=""/>
   </rdf:RDF>
</x:xmpmeta>
                                                                                                    
                                                                                                    
                                                                                                    
                                                                                                    
                                                                                                    
                                                                                                    
                                                                                                    
                                                                                                    
                                                                                                    
                                                                                                    
                                                                                                    
                                                                                                    
                                                                                                    
                                                                                                    
                                                                                                    
                                                                                                    
                                                                                                    
                                                                                                    
                                                                                                    
                                                                                                    
                           
<?xpacket end="w"?></metadata>
<defs>
    <style>
      .cls-1 {
        fill: #555;
        fill-rule: evenodd;
      }
    </style>
  </defs>
  <path id="b" class="cls-1" d="M125.121,47.01H122.74l2.306-4.954-3.812-8.881h2.222l2.7,6.328,2.462-6.328H131ZM118.782,43a14.286,14.286,0,0,1-.03-1.526,3.737,3.737,0,0,1-1.128,1.127,2.812,2.812,0,0,1-1.567.455,3.032,3.032,0,0,1-2.227-.769,2.347,2.347,0,0,1-.776-2.113,3,3,0,0,1,1.064-2.626,4.619,4.619,0,0,1,3-.773,4.764,4.764,0,0,1,1.622.464V36.4a1.58,1.58,0,0,0-.429-1.176,1.672,1.672,0,0,0-1.227-.424,1.7,1.7,0,0,0-1.133.354,1.134,1.134,0,0,0-.421.91h-2.008l-0.009-.053A2.4,2.4,0,0,1,114.491,34a4.08,4.08,0,0,1,2.716-.875,3.9,3.9,0,0,1,2.618.849,3.03,3.03,0,0,1,.995,2.44l0,6.582h-2.035Zm-0.047-4.417a3.837,3.837,0,0,0-1.656-.465,1.7,1.7,0,0,0-1.425.464,2.556,2.556,0,0,0-.515,1.556,1.13,1.13,0,0,0,.348.871,1.4,1.4,0,0,0,.991.323,2.564,2.564,0,0,0,1.42-.407,2.029,2.029,0,0,0,.837-0.928V38.579Zm-8.889-8.751h1.969v13.2h-1.969v-13.2Zm-3.952-9.505h-0.019V25h-1.334v-6.98h1.416l2.705,4.683h0.018V18.015h1.335V25H108.59Zm1.868,10.619a4.239,4.239,0,0,1,0,5.961,4.821,4.821,0,0,1-3.386,1.122h-2.924v5.016h-2.18V29.811h5.1A4.8,4.8,0,0,1,107.762,30.942Zm-3.386.641h-2.924v4.671h2.924A2.372,2.372,0,0,0,106.2,35.6a2.341,2.341,0,0,0,.61-1.663,2.407,2.407,0,0,0-.61-1.681A2.337,2.337,0,0,0,104.376,31.583Zm-2.014-7.6a2.925,2.925,0,0,1-1,.739,3.46,3.46,0,0,1-2.687,0,2.931,2.931,0,0,1-1-.739,3.266,3.266,0,0,1-.626-1.1,4.158,4.158,0,0,1-.218-1.357,4.3,4.3,0,0,1,.218-1.384,3.356,3.356,0,0,1,.626-1.123,2.881,2.881,0,0,1,1-.749,3.465,3.465,0,0,1,2.687,0,2.875,2.875,0,0,1,1,.749,3.376,3.376,0,0,1,.627,1.123,4.31,4.31,0,0,1,.217,1.384,4.165,4.165,0,0,1-.217,1.357A3.286,3.286,0,0,1,102.362,23.981Zm-0.676-3.312a2.3,2.3,0,0,0-.3-0.735,1.57,1.57,0,0,0-.545-0.515,1.836,1.836,0,0,0-1.634,0,1.561,1.561,0,0,0-.545.515,2.291,2.291,0,0,0-.3.735,3.762,3.762,0,0,0-.1.851,3.5,3.5,0,0,0,.1.819,2.247,2.247,0,0,0,.3.716,1.576,1.576,0,0,0,.545.51,1.836,1.836,0,0,0,1.634,0,1.584,1.584,0,0,0,.545-0.51,2.26,2.26,0,0,0,.3-0.716,3.529,3.529,0,0,0,.095-0.819A3.791,3.791,0,0,0,101.686,20.669ZM90.2,41.163a2.438,2.438,0,0,0,2.139-1.216l1.509,1.017A4.417,4.417,0,0,1,90.188,42.9,4.248,4.248,0,0,1,85.9,38.469a4.156,4.156,0,0,1,4.072-4.412h0a3.956,3.956,0,0,1,3.63,2.589l0.3,0.72-5.854,2.459A2.244,2.244,0,0,0,90.2,41.163Zm1.47-4.464a1.738,1.738,0,0,0-1.616-.944,2.444,2.444,0,0,0-2.294,2.6ZM87.982,18.015H92.83v1.291H89.408v1.5h3.141v1.193H89.408v1.711h3.5V25h-4.92v-6.98Zm-5.746,0h1.425v5.69H86.82V25H82.236v-6.98Zm-4.51,28.863a4.2,4.2,0,0,1-3.927-2.6l1.678-.71a2.424,2.424,0,0,0,2.235,1.573A2.205,2.205,0,0,0,80.007,42.7V41.831A2.871,2.871,0,0,1,77.612,42.9a4.426,4.426,0,0,1,.041-8.838,3.071,3.071,0,0,1,2.354,1.014V34.332h1.83v7.94C81.837,45.391,80.059,46.879,77.726,46.879Zm0.1-11.08a2.533,2.533,0,0,0-2.44,2.708A2.5,2.5,0,0,0,77.8,41.168a2.457,2.457,0,0,0,2.357-2.677A2.487,2.487,0,0,0,77.823,35.8Zm2.384-11.282a2.194,2.194,0,0,1-.735.362,3.086,3.086,0,0,1-.849.117H75.482v-6.98h3.05a3.763,3.763,0,0,1,.844.088,1.756,1.756,0,0,1,.654.288,1.32,1.32,0,0,1,.422.533,2,2,0,0,1,.15.821,1.6,1.6,0,0,1-.227.875,1.683,1.683,0,0,1-.654.582,1.561,1.561,0,0,1,.894.65,2.277,2.277,0,0,1,.1,2.034A1.742,1.742,0,0,1,80.207,24.517ZM79.14,19.609a0.632,0.632,0,0,0-.218-0.244,0.881,0.881,0,0,0-.313-0.122,1.942,1.942,0,0,0-.368-0.034H76.907v1.633H78.35a0.972,0.972,0,0,0,.626-0.2,0.765,0.765,0,0,0,.245-0.636A0.861,0.861,0,0,0,79.14,19.609ZM79.2,22.117a1.141,1.141,0,0,0-.744-0.23H76.907V23.8h1.525a1.762,1.762,0,0,0,.4-0.044,0.938,0.938,0,0,0,.336-0.146,0.726,0.726,0,0,0,.232-0.279,1.021,1.021,0,0,0,.086-0.45A0.938,0.938,0,0,0,79.2,22.117Zm-6.618,1.325H70.162L69.653,25H68.21l2.46-6.98h1.461L74.556,25h-1.48ZM71.4,19.736H71.378L70.534,22.3h1.679Zm-8.243-1.721h1.425v5.69h3.159V25H63.154v-6.98ZM58.775,42.9a4.418,4.418,0,0,1-.03-8.837A4.419,4.419,0,0,1,58.775,42.9Zm0-7.1a2.694,2.694,0,1,0,2.449,2.686A2.537,2.537,0,0,0,58.771,35.8Zm1.342-17.782h1.425V25H60.112v-6.98Zm-2.9,5.426H54.793L54.284,25H52.841l2.46-6.98h1.462L59.186,25h-1.48Zm-1.189-3.705H56.009L55.165,22.3h1.68ZM49.273,25l-2.106-6.98h1.471l1.444,4.908H50.1l1.462-4.908h1.471L50.88,25H49.273Zm-3.4,0-0.49-1.554H42.964L42.455,25H41.012l2.46-6.98h1.462L47.357,25h-1.48Zm-1.68-5.26H44.18L43.336,22.3h1.68Zm3.159,9.424a6.549,6.549,0,0,1,4.692,1.872l-1.295,1.357a4.771,4.771,0,0,0-3.331-1.353,5,5,0,0,0-.006,10,4.1,4.1,0,0,0,4.412-3.743H47.411V35.417h6.231a5.688,5.688,0,0,1,.113,1.241,6.015,6.015,0,0,1-6.3,6.249A6.874,6.874,0,1,1,47.358,29.16ZM28.783,34.052l-3.522-4.018,3.5-4.1,5.4,2.973a1.138,1.138,0,0,1,0,2.185Zm-16.979-17A1.112,1.112,0,0,1,12.141,17a1.8,1.8,0,0,1,.857.249L28.762,25.93,24.6,29.364Zm-0.021,25.88a1.309,1.309,0,0,1-.766-1.367l0-23.14a1.3,1.3,0,0,1,.79-1.372L23.939,30.036Zm17-8.881L13,42.741a1.522,1.522,0,0,1-1.215.191L24.6,30.705Zm39.509,0.01a4.419,4.419,0,0,1,.03,8.837A4.418,4.418,0,0,1,68.29,34.062Zm0.02,7.1a2.691,2.691,0,1,0-2.493-2.693A2.541,2.541,0,0,0,68.31,41.165ZM85.1,43.026H83.128v-13.2H85.1v13.2Z"/>
</svg>
