<svg xmlns="http://www.w3.org/2000/svg" width="180" height="60" viewBox="0 0 180 60">
  <metadata><?xpacket begin="﻿" id="W5M0MpCehiHzreSzNTczkc9d"?>
<x:xmpmeta xmlns:x="adobe:ns:meta/" x:xmptk="Adobe XMP Core 5.6-c138 79.159824, 2016/09/14-01:09:01        ">
   <rdf:RDF xmlns:rdf="http://www.w3.org/1999/02/22-rdf-syntax-ns#">
      <rdf:Description rdf:about=""/>
   </rdf:RDF>
</x:xmpmeta>
                                                                                                    
                                                                                                    
                                                                                                    
                                                                                                    
                                                                                                    
                                                                                                    
                                                                                                    
                                                                                                    
                                                                                                    
                                                                                                    
                                                                                                    
                                                                                                    
                                                                                                    
                                                                                                    
                                                                                                    
                                                                                                    
                                                                                                    
                                                                                                    
                                                                                                    
                                                                                                    
                           
<?xpacket end="w"?></metadata>
<defs>
    <style>
      .cls-1 {
        fill: #555;
        fill-rule: evenodd;
      }
    </style>
  </defs>
  <path id="b" class="cls-1" d="M166.678,40.792v2.152H164.4V40.792h-5.713V38.964l3.32-8.741h2.509l-3.243,8.417H164.4V34.775h2.278V38.64h1.312v2.152h-1.312ZM152.57,43a26.715,26.715,0,0,1-3.725-.362l0.213-2.019a29.738,29.738,0,0,0,3.512.267c1.95,0,2.876-1.219,2.876-3.2a12.91,12.91,0,0,1-2.721.514c-2.741,0-4.324-1.295-4.324-4,0-2.723,1.834-4.209,4.594-4.209,3.3,0,4.787,2.228,4.787,6.475C157.782,41.421,155.794,43,152.57,43ZM153,32.109a1.99,1.99,0,0,0-2.239,2.095c0,1.371.772,1.961,2.162,1.961a9.63,9.63,0,0,0,2.548-.476C155.446,33.651,154.713,32.109,153,32.109Zm-9.706,2.685c2.856,0,4.342,1.257,4.342,4.018,0,2.78-1.717,4.189-4.593,4.189-3.32,0-4.768-2.323-4.768-6.475,0-4.875,2.008-6.532,5.192-6.532a25,25,0,0,1,3.706.381l-0.193,2.057a29.742,29.742,0,0,0-3.513-.267c-1.911,0-2.856,1.124-2.856,3.2A11.167,11.167,0,0,1,143.289,34.794Zm-2.7,2.514c0.02,1.98.637,3.6,2.452,3.6,1.447,0,2.258-.666,2.258-2.095,0-1.371-.811-1.962-2.2-1.962A12.4,12.4,0,0,0,140.586,37.307ZM135.937,25h-1.523V19.289h-2.076v-1.3h5.675v1.3h-2.076V25Zm1,5.376-0.193,2.057a29.765,29.765,0,0,0-3.513-.267c-1.911,0-2.857,1.124-2.857,3.2a11.167,11.167,0,0,1,2.683-.571c2.857,0,4.343,1.257,4.343,4.018,0,2.78-1.718,4.189-4.594,4.189-3.32,0-4.767-2.323-4.767-6.475,0-4.875,2.007-6.532,5.192-6.532A25.019,25.019,0,0,1,136.941,30.376ZM132.81,40.907c1.448,0,2.258-.666,2.258-2.095,0-1.371-.81-1.962-2.2-1.962a12.4,12.4,0,0,0-2.509.457C130.378,39.288,131,40.907,132.81,40.907Zm-2.417-16.274c-0.022-.134-0.042-0.275-0.058-0.422s-0.029-.3-0.039-0.451-0.024-.3-0.043-0.437a1.4,1.4,0,0,0-.33-0.8,1.126,1.126,0,0,0-.825-0.255h-1.523V25h-1.523V17.994h3.735a2.206,2.206,0,0,1,.839.152,1.92,1.92,0,0,1,.64.417,1.8,1.8,0,0,1,.408.618,1.993,1.993,0,0,1,.141.746,2.12,2.12,0,0,1-.258,1.07,1.617,1.617,0,0,1-.839.687V21.7a1.169,1.169,0,0,1,.466.24,1.313,1.313,0,0,1,.3.388,1.878,1.878,0,0,1,.169.486,4.036,4.036,0,0,1,.073.525c0.007,0.111.013,0.242,0.02,0.393s0.017,0.3.034,0.456a3.354,3.354,0,0,0,.077.447,1.046,1.046,0,0,0,.16.363H130.5A1.783,1.783,0,0,1,130.393,24.632Zm-0.368-5.21a1.164,1.164,0,0,0-.781-0.231h-1.669v1.972h1.669a1.146,1.146,0,0,0,.781-0.235,0.973,0.973,0,0,0,.267-0.765A0.93,0.93,0,0,0,130.025,19.422Zm-10.258-1.428h5.18v1.3H121.29v1.5h3.356v1.2H121.29V23.7h3.734V25h-5.257V17.994ZM114.8,40.64h5.192v2.152h-8.223V40.735l2.992-2.971c1.641-1.638,2.644-2.628,2.644-3.942,0-1.162-.714-1.6-2.316-1.6a20.445,20.445,0,0,0-3.088.324l-0.154-2.057a18.336,18.336,0,0,1,3.783-.5c2.837,0,4.111,1.181,4.111,3.523,0,1.923-.753,3.009-2.644,4.875Zm3.466-18.848a2.067,2.067,0,0,1-.742.505,2.857,2.857,0,0,1-1.106.191h-1.6V25H113.3V17.994h3.123a2.857,2.857,0,0,1,1.106.191,2.069,2.069,0,0,1,.742.505,1.934,1.934,0,0,1,.417.721,2.705,2.705,0,0,1,0,1.663A1.938,1.938,0,0,1,118.268,21.791ZM117.23,19.7a0.822,0.822,0,0,0-.3-0.319,1.168,1.168,0,0,0-.427-0.152,3.147,3.147,0,0,0-.5-0.039H114.82v2.1H116a3.135,3.135,0,0,0,.5-0.039,1.162,1.162,0,0,0,.427-0.152,0.82,0.82,0,0,0,.3-0.319A1.356,1.356,0,0,0,117.23,19.7ZM110.872,25l-1.514-2.424L107.816,25H106.1l2.425-3.67-2.231-3.336h1.766l1.358,2.237,1.406-2.237h1.669L110.27,21.34,112.686,25h-1.814Zm-10.331-7.006h5.18v1.3h-3.657v1.5h3.356v1.2h-3.356V23.7H105.8V25h-5.257V17.994Zm0.115,12.382-0.193,2.057a29.758,29.758,0,0,0-3.513-.267c-1.911,0-2.857,1.124-2.857,3.2a11.168,11.168,0,0,1,2.683-.571c2.857,0,4.343,1.257,4.343,4.018,0,2.78-1.718,4.189-4.594,4.189-3.32,0-4.767-2.323-4.767-6.475,0-4.875,2.007-6.532,5.192-6.532A25.013,25.013,0,0,1,100.656,30.376ZM96.525,40.907c1.448,0,2.258-.666,2.258-2.095,0-1.371-.811-1.962-2.2-1.962a12.4,12.4,0,0,0-2.509.457C94.093,39.288,94.711,40.907,96.525,40.907ZM92.1,20.31H92.082V25H90.656V17.994h1.513l2.891,4.7H95.08v-4.7h1.426V25H94.983Zm-3.958,3.13h-2.59L85.011,25H83.468L86.1,17.994h1.562L90.249,25H88.668Zm-1.271-3.719H86.854l-0.9,2.571h1.794Zm-7.3,4.27a3.128,3.128,0,0,1-1.067.741,3.926,3.926,0,0,1-2.871,0,3.127,3.127,0,0,1-1.067-.741,3.225,3.225,0,0,1-.669-1.106,3.93,3.93,0,0,1-.233-1.359,4.067,4.067,0,0,1,.233-1.388,3.31,3.31,0,0,1,.669-1.125,3.07,3.07,0,0,1,1.067-.75,3.927,3.927,0,0,1,2.871,0,3.072,3.072,0,0,1,1.067.75,3.31,3.31,0,0,1,.669,1.125,4.065,4.065,0,0,1,.233,1.388,3.928,3.928,0,0,1-.233,1.359A3.225,3.225,0,0,1,79.569,23.991Zm-0.723-3.318a2.221,2.221,0,0,0-.325-0.736,1.633,1.633,0,0,0-.582-0.516,2.079,2.079,0,0,0-1.746,0,1.629,1.629,0,0,0-.582.516,2.217,2.217,0,0,0-.325.736,3.547,3.547,0,0,0-.1.853,3.3,3.3,0,0,0,.1.82,2.175,2.175,0,0,0,.325.717,1.645,1.645,0,0,0,.582.511,2.08,2.08,0,0,0,1.746,0,1.648,1.648,0,0,0,.582-0.511,2.179,2.179,0,0,0,.325-0.717,3.3,3.3,0,0,0,.1-0.82A3.547,3.547,0,0,0,78.846,20.672ZM66.32,42.412l4.75-9.782V32.168H64.989V30h8.559v2.671l-5,10.34ZM71.091,25H69.568V19.289H67.492v-1.3h5.675v1.3H71.091V25Zm-8.274,0-2.086-3.15-0.873.893V25H58.335V17.994h1.523v2.9l2.706-2.9h1.9l-2.706,2.767L64.727,25H62.816Zm1.073,8.384a2.831,2.831,0,0,1-1.641,2.895,3.283,3.283,0,0,1,1.834,3.1c0,2.685-2.2,3.618-4.864,3.618-2.644,0-4.806-.781-4.806-3.409a3.505,3.505,0,0,1,1.814-3.313,3.029,3.029,0,0,1-1.6-2.914c0-2.171,1.814-3.371,4.594-3.371C61.959,29.995,63.889,31.176,63.889,33.385Zm-4.671,7.484c1.506,0,2.432-.571,2.432-1.809a1.779,1.779,0,0,0-1.525-1.676h-1.8A1.752,1.752,0,0,0,56.844,39.1C56.844,40.3,57.732,40.868,59.218,40.868Zm-2.162-7.16A1.84,1.84,0,0,0,58.33,35.4h1.8a1.876,1.876,0,0,0,1.332-1.695c0-1.124-.791-1.562-2.2-1.562C57.867,32.147,57.057,32.566,57.057,33.708ZM52.583,17.994h1.523V23.7h3.376V25h-4.9V17.994Zm-2.9,5.446h-2.59L46.549,25H45.007l2.629-7.006H49.2L51.787,25H50.206Zm-1.271-3.719H48.392l-0.9,2.571h1.794ZM43.59,25H42.067V19.289H39.991v-1.3h5.675v1.3H43.59V25Zm1.651,5.223V42.792H42.964v-9.96L40.05,34.718l-1.062-1.79,4.13-2.7h2.123ZM17.5,34C16,34,16,34,16,32.286V29.714C16,28,16,28,17.5,28S19,28,19,29.714v2.572C19,34,19,34,17.5,34ZM30,35.5H28v-9c0-3.864-4.052-7.5-8-7.5s-8,3.636-8,7.5c0,0-.04,9,0,9a5.164,5.164,0,0,0,5,5A1.5,1.5,0,0,1,18.5,39h3c1.131,0,1.5.885,1.5,1.992S22.631,43,21.5,43h-3A1.483,1.483,0,0,1,17,41.5a5.833,5.833,0,0,1-6-6H10a3.234,3.234,0,0,1-3-3V29a2.663,2.663,0,0,1,3-3c0.215-4.927,4.914-9,10-9s9.785,4.073,10,9a3.24,3.24,0,0,1,3,3v3.5A3.183,3.183,0,0,1,30,35.5Zm-9-3.214V29.714C21,28,21,28,22.5,28S24,28,24,29.714v2.572C24,34,24,34,22.5,34S21,34,21,32.286Zm31.732,6.221h-4.9V36.374h4.9v2.133Zm31.253-5.84-5,10.34-2.232-.6,4.75-9.782V32.168H75.429V30h8.559v2.671Zm5.958,5.84h-4.9V36.374h4.9v2.133Zm16.267-.3c-2.741,0-4.324-1.295-4.324-4,0-2.723,1.834-4.209,4.594-4.209,3.3,0,4.787,2.228,4.787,6.475,0,4.951-1.989,6.532-5.212,6.532a26.715,26.715,0,0,1-3.725-.362l0.212-2.019a29.765,29.765,0,0,0,3.513.267c1.95,0,2.876-1.219,2.876-3.2A12.926,12.926,0,0,1,106.213,38.2Zm2.74-2.514c-0.019-2.038-.752-3.58-2.47-3.58a1.989,1.989,0,0,0-2.239,2.095c0,1.371.772,1.961,2.162,1.961A9.629,9.629,0,0,0,108.953,35.689Zm17.277,2.818h-4.9V36.374h4.9v2.133Z"/>
</svg>
