<?xml version="1.0" encoding="utf-8"?>
<!-- Generator: Adobe Illustrator 12.0.0, SVG Export Plug-In . SVG Version: 6.00 Build 51448)  -->
<!DOCTYPE svg PUBLIC "-//W3C//DTD SVG 1.1//EN" "http://www.w3.org/Graphics/SVG/1.1/DTD/svg11.dtd" [
	<!ENTITY ns_svg "http://www.w3.org/2000/svg">
	<!ENTITY ns_xlink "http://www.w3.org/1999/xlink">
]>
<svg  version="1.1" id="Layer_1" xmlns="&ns_svg;" xmlns:xlink="&ns_xlink;" width="164" height="60" viewBox="0 0 164 60"
	 overflow="visible" enable-background="new 0 0 164 60" xml:space="preserve">
<g id="Layer_2">
</g>
<g id="FR_Download_on_the_App_Store">
	<g>
		<g>
			<path fill="#FFFFFF" d="M26.075,29.677c-0.043-4.815,3.943-7.159,4.125-7.269c-2.257-3.292-5.758-3.742-6.987-3.777
				c-2.94-0.309-5.79,1.759-7.288,1.759c-1.527,0-3.833-1.729-6.317-1.678c-3.197,0.05-6.189,1.901-7.831,4.776
				c-3.385,5.862-0.86,14.477,2.383,19.215c1.623,2.32,3.519,4.912,6,4.818c2.428-0.101,3.335-1.547,6.266-1.547
				c2.904,0,3.754,1.547,6.287,1.489c2.605-0.043,4.247-2.331,5.813-4.673c1.875-2.66,2.628-5.279,2.658-5.414
				C31.125,37.357,26.125,35.45,26.075,29.677z"/>
			<path fill="#FFFFFF" d="M21.293,15.515c1.305-1.634,2.199-3.855,1.951-6.111c-1.89,0.084-4.254,1.307-5.615,2.906
				c-1.204,1.407-2.28,3.715-2.002,5.884C17.75,18.352,19.93,17.123,21.293,15.515z"/>
		</g>
	</g>
	<g>
		<path fill="#FFFFFF" d="M48.513,47.189h-2.905V28.12h2.905V47.189z"/>
		<path fill="#FFFFFF" d="M56.098,28.577c-0.771,2.708-1.686,4.931-2.744,6.67l-1.802,0.188c0.789-2.152,1.354-4.349,1.694-6.589
			L56.098,28.577z"/>
		<path fill="#FFFFFF" d="M70.326,47.189h-3.094l-1.694-5.324h-5.891l-1.614,5.324H55.02l5.836-18.128h3.604L70.326,47.189z
			 M65.027,39.631l-1.533-4.732c-0.162-0.483-0.466-1.623-0.915-3.416h-0.054c-0.18,0.771-0.466,1.91-0.861,3.416l-1.506,4.732
			H65.027z"/>
		<path fill="#FFFFFF" d="M85.334,40.492c0,2.224-0.602,3.98-1.805,5.271c-1.074,1.148-2.41,1.723-4.006,1.723
			c-1.721,0-2.958-0.619-3.711-1.856h-0.054v6.888h-2.905V38.422c0-1.398-0.036-2.833-0.108-4.304H75.3l0.162,2.071h0.053
			c0.968-1.562,2.438-2.34,4.411-2.34c1.542,0,2.828,0.609,3.86,1.827C84.818,36.898,85.334,38.502,85.334,40.492z M82.375,40.602
			c0-1.272-0.288-2.322-0.861-3.146c-0.628-0.861-1.47-1.292-2.528-1.292c-0.717,0-1.368,0.237-1.95,0.714
			c-0.583,0.475-0.964,1.098-1.144,1.868c-0.09,0.358-0.134,0.655-0.134,0.887v2.179c0,0.953,0.291,1.754,0.874,2.408
			c0.583,0.655,1.34,0.982,2.273,0.982c1.094,0,1.945-0.422,2.555-1.266C82.07,43.093,82.375,41.982,82.375,40.602z"/>
		<path fill="#FFFFFF" d="M100.371,40.492c0,2.224-0.602,3.98-1.805,5.271c-1.073,1.148-2.41,1.723-4.008,1.723
			c-1.722,0-2.959-0.619-3.711-1.856h-0.054v6.888h-2.905V38.422c0-1.398-0.035-2.833-0.105-4.304h2.554l0.16,2.071h0.056
			c0.969-1.562,2.438-2.34,4.41-2.34c1.544,0,2.828,0.609,3.861,1.827C99.854,36.898,100.371,38.502,100.371,40.492z M97.411,40.602
			c0-1.272-0.286-2.322-0.86-3.146c-0.628-0.861-1.472-1.292-2.527-1.292c-0.719,0-1.369,0.237-1.949,0.714
			c-0.584,0.475-0.967,1.098-1.145,1.868c-0.091,0.358-0.135,0.655-0.135,0.887v2.179c0,0.953,0.292,1.754,0.873,2.408
			c0.583,0.655,1.344,0.982,2.273,0.982c1.095,0,1.945-0.422,2.557-1.266C97.104,43.093,97.411,41.982,97.411,40.602z"/>
		<path fill="#FFFFFF" d="M117.178,42.107c0,1.541-0.537,2.795-1.607,3.765c-1.182,1.06-2.828,1.587-4.938,1.587
			c-1.952,0-3.517-0.377-4.698-1.13l0.672-2.421c1.271,0.771,2.674,1.156,4.196,1.156c1.095,0,1.946-0.246,2.558-0.74
			c0.608-0.493,0.916-1.154,0.916-1.98c0-0.736-0.252-1.354-0.754-1.859c-0.502-0.502-1.336-0.969-2.5-1.399
			c-3.176-1.185-4.764-2.919-4.764-5.199c0-1.491,0.557-2.712,1.669-3.665c1.112-0.951,2.593-1.428,4.439-1.428
			c1.647,0,3.021,0.287,4.114,0.861l-0.728,2.366c-1.021-0.555-2.18-0.832-3.47-0.832c-1.021,0-1.821,0.25-2.395,0.752
			c-0.484,0.449-0.727,0.996-0.727,1.643c0,0.717,0.277,1.309,0.835,1.773c0.481,0.432,1.36,0.896,2.636,1.398
			c1.559,0.627,2.705,1.362,3.44,2.206C116.809,39.805,117.178,40.852,117.178,42.107z"/>
		<path fill="#FFFFFF" d="M126.779,36.297h-3.197v6.348c0,1.614,0.563,2.422,1.691,2.422c0.521,0,0.951-0.045,1.293-0.135
			l0.08,2.204c-0.572,0.218-1.326,0.323-2.26,0.323c-1.146,0-2.043-0.35-2.688-1.05c-0.647-0.698-0.969-1.872-0.969-3.522v-6.59
			h-1.912v-2.179h1.912v-2.394l2.852-0.861v3.254h3.197V36.297z"/>
		<path fill="#FFFFFF" d="M141.225,40.548c0,2.007-0.576,3.656-1.724,4.948c-1.202,1.326-2.796,1.99-4.786,1.99
			c-1.92,0-3.449-0.637-4.588-1.91c-1.139-1.271-1.707-2.878-1.707-4.814c0-2.025,0.587-3.685,1.764-4.976
			c1.172-1.292,2.754-1.937,4.744-1.937c1.922,0,3.463,0.635,4.627,1.907C140.667,36.996,141.225,38.592,141.225,40.548z
			 M138.211,40.641c0-1.205-0.26-2.238-0.781-3.102c-0.609-1.042-1.478-1.564-2.609-1.564c-1.164,0-2.051,0.522-2.661,1.564
			c-0.521,0.863-0.779,1.914-0.779,3.154c0,1.207,0.261,2.24,0.779,3.103c0.628,1.043,1.506,1.565,2.636,1.565
			c1.112,0,1.98-0.531,2.609-1.592C137.941,42.889,138.211,41.845,138.211,40.641z"/>
		<path fill="#FFFFFF" d="M150.663,36.673c-0.286-0.054-0.59-0.08-0.914-0.08c-1.021,0-1.813,0.386-2.366,1.156
			c-0.484,0.683-0.729,1.544-0.729,2.583v6.857h-2.902l0.025-8.957c0-1.506-0.034-2.877-0.107-4.114h2.53l0.104,2.501h0.082
			c0.307-0.861,0.787-1.551,1.453-2.07c0.645-0.466,1.346-0.699,2.1-0.699c0.269,0,0.511,0.019,0.724,0.053V36.673z"/>
		<path fill="#FFFFFF" d="M163.656,40.035c0,0.521-0.038,0.959-0.108,1.318h-8.715c0.035,1.291,0.459,2.276,1.265,2.959
			c0.735,0.609,1.688,0.912,2.852,0.912c1.29,0,2.467-0.205,3.523-0.617l0.457,2.018c-1.236,0.539-2.699,0.809-4.384,0.809
			c-2.028,0-3.619-0.597-4.774-1.789s-1.733-2.793-1.733-4.802c0-1.974,0.537-3.612,1.61-4.923c1.134-1.398,2.656-2.097,4.574-2.097
			c1.883,0,3.31,0.696,4.277,2.097C163.27,37.032,163.656,38.404,163.656,40.035z M160.887,39.282
			c0.018-0.86-0.174-1.604-0.566-2.232c-0.502-0.807-1.272-1.21-2.314-1.21c-0.947,0-1.719,0.395-2.313,1.184
			c-0.483,0.629-0.771,1.382-0.86,2.26L160.887,39.282L160.887,39.282z"/>
	</g>
	<g>
		<g>
			<path fill="#FFFFFF" d="M52.496,11.737h-2.797v8.45h-1.566v-8.45H45.35v-1.319h7.146V11.737z"/>
			<path fill="#FFFFFF" d="M60.177,16.332c0,0.28-0.021,0.517-0.059,0.71h-4.696c0.019,0.696,0.245,1.227,0.68,1.594
				c0.396,0.329,0.909,0.493,1.536,0.493c0.696,0,1.33-0.111,1.9-0.333l0.245,1.087c-0.667,0.29-1.454,0.435-2.363,0.435
				c-1.091,0-1.95-0.321-2.573-0.964s-0.934-1.505-0.934-2.587c0-1.063,0.289-1.947,0.87-2.653c0.608-0.754,1.429-1.13,2.463-1.13
				c1.014,0,1.783,0.376,2.304,1.13C59.968,14.713,60.177,15.453,60.177,16.332z M58.683,15.926c0.01-0.464-0.092-0.865-0.303-1.203
				c-0.271-0.435-0.686-0.652-1.246-0.652c-0.513,0-0.928,0.212-1.248,0.638c-0.26,0.338-0.414,0.744-0.462,1.218L58.683,15.926
				L58.683,15.926z M59.322,10.186l-1.754,2.102h-1.087l1.261-2.102H59.322z"/>
			<path fill="#FFFFFF" d="M64.016,20.187h-1.565V9.91h1.565V20.187z"/>
			<path fill="#FFFFFF" d="M72.598,16.332c0,0.28-0.021,0.517-0.058,0.71h-4.696c0.019,0.696,0.245,1.227,0.68,1.594
				c0.397,0.329,0.909,0.493,1.537,0.493c0.696,0,1.33-0.111,1.9-0.333l0.245,1.087c-0.667,0.29-1.453,0.435-2.362,0.435
				c-1.092,0-1.95-0.321-2.573-0.964s-0.934-1.505-0.934-2.587c0-1.063,0.289-1.947,0.87-2.653c0.608-0.754,1.428-1.13,2.463-1.13
				c1.014,0,1.783,0.376,2.304,1.13C72.39,14.713,72.598,15.453,72.598,16.332z M71.104,15.926c0.01-0.464-0.092-0.865-0.304-1.203
				c-0.271-0.435-0.686-0.652-1.246-0.652c-0.512,0-0.928,0.212-1.248,0.638c-0.26,0.338-0.415,0.744-0.462,1.218L71.104,15.926
				L71.104,15.926z M71.743,10.186l-1.754,2.102h-1.087l1.261-2.102H71.743z"/>
			<path fill="#FFFFFF" d="M79.902,13.332l-0.304,1.188c-0.396-0.193-0.851-0.29-1.363-0.29c-0.686,0-1.23,0.229-1.631,0.688
				c-0.4,0.459-0.601,1.041-0.601,1.747c0,0.745,0.21,1.333,0.63,1.768c0.42,0.435,0.954,0.652,1.602,0.652
				c0.483,0,0.956-0.096,1.42-0.29l0.217,1.174c-0.512,0.242-1.158,0.363-1.942,0.363c-1.073,0-1.928-0.326-2.565-0.979
				c-0.637-0.653-0.956-1.524-0.956-2.617c0-1.091,0.343-1.988,1.029-2.688c0.686-0.701,1.608-1.051,2.768-1.051
				C78.863,12.998,79.429,13.109,79.902,13.332z"/>
			<path fill="#FFFFFF" d="M88.163,20.187H86.6v-4.005c0-1.263-0.475-1.894-1.423-1.894c-0.724,0-1.222,0.366-1.491,1.099
				c-0.049,0.154-0.072,0.342-0.072,0.564v4.236h-1.566V9.91h1.566v4.246h0.027c0.494-0.772,1.198-1.158,2.117-1.158
				c0.646,0,1.182,0.212,1.608,0.638c0.53,0.531,0.797,1.319,0.797,2.363V20.187z"/>
			<path fill="#FFFFFF" d="M96.193,20.187h-1.405l-0.117-0.811h-0.044c-0.48,0.647-1.167,0.971-2.059,0.971
				c-0.664,0-1.201-0.213-1.606-0.639c-0.368-0.386-0.552-0.865-0.552-1.435c0-0.86,0.357-1.517,1.079-1.971
				c0.722-0.454,1.733-0.676,3.038-0.667v-0.13c0-0.928-0.487-1.392-1.463-1.392c-0.693,0-1.308,0.174-1.836,0.521l-0.316-1.029
				c0.652-0.405,1.462-0.608,2.416-0.608c1.842,0,2.764,0.971,2.764,2.914v2.595C96.091,19.211,96.126,19.772,96.193,20.187z
				 M94.568,17.766V16.68c-1.729-0.029-2.592,0.444-2.592,1.42c0,0.368,0.1,0.643,0.301,0.827c0.201,0.183,0.459,0.275,0.765,0.275
				c0.345,0,0.666-0.109,0.958-0.326c0.294-0.218,0.477-0.495,0.542-0.833C94.559,17.965,94.568,17.873,94.568,17.766z"/>
			<path fill="#FFFFFF" d="M102.557,14.52c-0.154-0.029-0.318-0.043-0.494-0.043c-0.549,0-0.975,0.208-1.274,0.623
				c-0.261,0.368-0.392,0.831-0.392,1.391v3.696h-1.563l0.015-4.826c0-0.812-0.021-1.551-0.059-2.218h1.363l0.058,1.348h0.044
				c0.163-0.464,0.423-0.836,0.782-1.116c0.348-0.251,0.724-0.376,1.13-0.376c0.146,0,0.277,0.01,0.391,0.028V14.52L102.557,14.52z"
				/>
			<path fill="#FFFFFF" d="M110.73,13.143c-0.037,0.571-0.059,1.237-0.059,2v4.029c0,1.517-0.338,2.58-1.013,3.189
				c-0.618,0.561-1.488,0.841-2.608,0.841c-0.979,0-1.767-0.184-2.363-0.551l0.36-1.203c0.591,0.357,1.259,0.536,2.003,0.536
				c1.381,0,2.071-0.744,2.071-2.232V19.07h-0.028c-0.436,0.716-1.127,1.073-2.072,1.073c-0.853,0-1.553-0.323-2.102-0.971
				c-0.552-0.647-0.826-1.469-0.826-2.464c0-1.13,0.318-2.044,0.954-2.739c0.591-0.646,1.312-0.971,2.16-0.971
				c0.957,0,1.644,0.372,2.062,1.116h0.025l0.059-0.971H110.73z M109.107,17.172v-1.246c0-0.474-0.147-0.879-0.442-1.218
				c-0.298-0.339-0.687-0.507-1.173-0.507c-0.534,0-0.973,0.222-1.316,0.667c-0.345,0.445-0.517,1.039-0.517,1.783
				c0,0.676,0.159,1.222,0.481,1.638c0.326,0.454,0.778,0.681,1.352,0.681c0.35,0,0.662-0.104,0.939-0.312
				c0.276-0.207,0.473-0.49,0.59-0.848C109.08,17.636,109.107,17.423,109.107,17.172z"/>
			<path fill="#FFFFFF" d="M119.253,16.332c0,0.28-0.021,0.517-0.06,0.71h-4.695c0.021,0.696,0.245,1.227,0.682,1.594
				c0.396,0.329,0.909,0.493,1.537,0.493c0.694,0,1.328-0.111,1.899-0.333l0.245,1.087c-0.668,0.29-1.453,0.435-2.363,0.435
				c-1.092,0-1.95-0.321-2.571-0.964c-0.625-0.643-0.935-1.505-0.935-2.587c0-1.063,0.289-1.947,0.869-2.653
				c0.606-0.754,1.428-1.13,2.464-1.13c1.013,0,1.782,0.376,2.303,1.13C119.046,14.713,119.253,15.453,119.253,16.332z
				 M117.759,15.926c0.013-0.464-0.091-0.865-0.304-1.203c-0.271-0.435-0.686-0.652-1.246-0.652c-0.511,0-0.93,0.212-1.246,0.638
				c-0.26,0.338-0.415,0.744-0.465,1.218L117.759,15.926L117.759,15.926z"/>
			<path fill="#FFFFFF" d="M125.253,14.52c-0.153-0.029-0.317-0.043-0.493-0.043c-0.552,0-0.975,0.208-1.275,0.623
				c-0.26,0.368-0.391,0.831-0.391,1.391v3.696h-1.566l0.015-4.826c0-0.812-0.019-1.551-0.056-2.218h1.359l0.059,1.348h0.044
				c0.163-0.464,0.427-0.836,0.782-1.116c0.351-0.251,0.727-0.376,1.133-0.376c0.143,0,0.273,0.01,0.391,0.028L125.253,14.52
				L125.253,14.52z"/>
			<path fill="#FFFFFF" d="M137.748,20.187h-1.393l-0.072-1.131h-0.045c-0.442,0.86-1.195,1.291-2.258,1.291
				c-0.854,0-1.557-0.333-2.117-1c-0.559-0.667-0.84-1.532-0.84-2.595c0-1.14,0.304-2.063,0.91-2.768
				c0.59-0.657,1.316-0.986,2.176-0.986c0.947,0,1.609,0.319,1.986,0.957h0.029V9.91h1.564v8.378
				C137.689,18.975,137.709,19.607,137.748,20.187z M136.125,17.216v-1.175c0-0.203-0.016-0.367-0.044-0.493
				c-0.088-0.376-0.276-0.693-0.569-0.949c-0.291-0.256-0.639-0.384-1.048-0.384c-0.581,0-1.039,0.232-1.374,0.696
				c-0.336,0.464-0.502,1.058-0.502,1.783c0,0.696,0.16,1.261,0.48,1.696c0.339,0.463,0.795,0.695,1.365,0.695
				c0.515,0,0.93-0.193,1.237-0.579C135.973,18.148,136.125,17.718,136.125,17.216z"/>
			<path fill="#FFFFFF" d="M145.748,20.187h-1.407l-0.112-0.811h-0.045c-0.483,0.647-1.17,0.971-2.058,0.971
				c-0.668,0-1.205-0.213-1.61-0.639c-0.367-0.386-0.549-0.865-0.549-1.435c0-0.86,0.358-1.517,1.079-1.971
				c0.72-0.454,1.731-0.676,3.035-0.667v-0.13c0-0.928-0.487-1.392-1.459-1.392c-0.694,0-1.308,0.174-1.839,0.521l-0.317-1.029
				c0.656-0.405,1.462-0.608,2.416-0.608c1.845,0,2.765,0.971,2.765,2.914v2.595C145.645,19.211,145.68,19.772,145.748,20.187z
				 M144.125,17.766V16.68c-1.73-0.029-2.596,0.444-2.596,1.42c0,0.368,0.104,0.643,0.305,0.827
				c0.202,0.183,0.456,0.275,0.762,0.275c0.348,0,0.666-0.109,0.961-0.326c0.291-0.218,0.473-0.495,0.539-0.833
				C144.116,17.965,144.125,17.873,144.125,17.766z"/>
			<path fill="#FFFFFF" d="M154.503,20.187h-1.567v-4.034c0-1.243-0.473-1.865-1.418-1.865c-0.465,0-0.841,0.171-1.133,0.513
				c-0.289,0.342-0.435,0.745-0.435,1.208v4.178h-1.563v-5.029c0-0.619-0.021-1.29-0.06-2.015h1.378l0.072,1.101h0.043
				c0.182-0.341,0.453-0.625,0.813-0.85c0.424-0.263,0.898-0.396,1.418-0.396c0.66,0,1.206,0.212,1.641,0.638
				c0.541,0.522,0.813,1.3,0.813,2.333L154.503,20.187L154.503,20.187z"/>
			<path fill="#FFFFFF" d="M161.563,18.163c0,0.655-0.242,1.181-0.724,1.576c-0.483,0.396-1.149,0.593-2.002,0.593
				c-0.803,0-1.481-0.16-2.043-0.479l0.332-1.16c0.543,0.329,1.118,0.493,1.726,0.493c0.803,0,1.203-0.295,1.203-0.884
				c0-0.261-0.086-0.476-0.261-0.645c-0.175-0.168-0.483-0.336-0.928-0.5c-1.255-0.464-1.884-1.14-1.884-2.029
				c0-0.609,0.23-1.117,0.695-1.522c0.463-0.405,1.076-0.608,1.842-0.608c0.693,0,1.289,0.142,1.783,0.425l-0.337,1.125
				c-0.452-0.27-0.931-0.406-1.433-0.406c-0.33,0-0.588,0.077-0.771,0.231c-0.181,0.155-0.273,0.352-0.273,0.593
				c0,0.241,0.097,0.438,0.289,0.593c0.166,0.145,0.484,0.303,0.957,0.477C160.953,16.5,161.563,17.209,161.563,18.163z"/>
		</g>
	</g>
</g>
</svg>
