<?xml version="1.0" encoding="utf-8"?>
<!-- Generator: Adobe Illustrator 12.0.0, SVG Export Plug-In . SVG Version: 6.00 Build 51448)  -->
<!DOCTYPE svg PUBLIC "-//W3C//DTD SVG 1.1//EN" "http://www.w3.org/Graphics/SVG/1.1/DTD/svg11.dtd" [
	<!ENTITY ns_svg "http://www.w3.org/2000/svg">
	<!ENTITY ns_xlink "http://www.w3.org/1999/xlink">
]>
<svg  version="1.1" id="US_UK_Download_on_the" xmlns="&ns_svg;" xmlns:xlink="&ns_xlink;" width="164" height="60"
	 viewBox="0 0 164 60" overflow="visible" enable-background="new 0 0 164 60" xml:space="preserve">
<g>
	<g>
		<path fill="#FFFFFF" d="M26.044,29.27c-0.044-4.829,3.954-7.179,4.137-7.288c-2.264-3.301-5.773-3.752-7.006-3.788
			c-2.948-0.31-5.805,1.764-7.307,1.764c-1.531,0-3.844-1.733-6.334-1.682c-3.206,0.05-6.206,1.906-7.852,4.788
			c-3.395,5.877-0.862,14.516,2.39,19.267c1.627,2.326,3.528,4.925,6.017,4.833c2.435-0.102,3.344-1.553,6.283-1.553
			c2.912,0,3.765,1.553,6.303,1.494c2.613-0.043,4.259-2.338,5.829-4.687c1.88-2.667,2.635-5.294,2.665-5.428
			C31.107,36.973,26.094,35.059,26.044,29.27z"/>
		<path fill="#FFFFFF" d="M21.249,15.07c1.309-1.638,2.205-3.866,1.957-6.127c-1.896,0.084-4.266,1.31-5.63,2.913
			c-1.207,1.411-2.286,3.725-2.007,5.9C17.697,17.914,19.883,16.682,21.249,15.07z"/>
	</g>
</g>
<g>
	<path fill="#FFFFFF" d="M61.279,46.83h-3.402l-1.864-5.857h-6.479L47.76,46.83h-3.313l6.419-19.938h3.964L61.279,46.83z
		 M55.452,38.518l-1.687-5.207c-0.178-0.533-0.513-1.785-1.006-3.756H52.7c-0.197,0.849-0.513,2.1-0.947,3.756l-1.656,5.207H55.452z
		"/>
	<path fill="#FFFFFF" d="M77.786,39.465c0,2.444-0.661,4.378-1.982,5.797c-1.184,1.264-2.652,1.895-4.408,1.895
		c-1.893,0-3.254-0.682-4.082-2.041h-0.06v7.572H64.06v-15.5c0-1.539-0.04-3.115-0.118-4.733h2.81l0.178,2.278h0.059
		c1.065-1.717,2.682-2.574,4.851-2.574c1.697,0,3.111,0.67,4.246,2.011C77.219,35.511,77.786,37.275,77.786,39.465z M74.532,39.582
		c0-1.398-0.315-2.555-0.947-3.461c-0.69-0.946-1.618-1.421-2.781-1.421c-0.789,0-1.504,0.264-2.144,0.784
		c-0.642,0.523-1.061,1.209-1.258,2.058c-0.099,0.396-0.148,0.72-0.148,0.976v2.396c0,1.046,0.321,1.929,0.961,2.647
		c0.641,0.721,1.474,1.08,2.5,1.08c1.203,0,2.14-0.464,2.81-1.391C74.196,42.323,74.532,41.102,74.532,39.582z"/>
	<path fill="#FFFFFF" d="M94.323,39.465c0,2.444-0.661,4.378-1.984,5.797c-1.183,1.264-2.651,1.895-4.407,1.895
		c-1.894,0-3.254-0.682-4.08-2.041h-0.06v7.572h-3.195v-15.5c0-1.539-0.041-3.115-0.119-4.733h2.81l0.178,2.278h0.06
		c1.063-1.717,2.68-2.574,4.852-2.574c1.693,0,3.109,0.67,4.246,2.011C93.755,35.511,94.323,37.275,94.323,39.465z M91.068,39.582
		c0-1.398-0.315-2.555-0.947-3.461c-0.691-0.946-1.615-1.421-2.78-1.421c-0.79,0-1.504,0.264-2.146,0.784
		c-0.641,0.523-1.059,1.209-1.256,2.058c-0.099,0.396-0.147,0.72-0.147,0.976v2.396c0,1.046,0.319,1.929,0.959,2.647
		c0.642,0.721,1.476,1.08,2.502,1.08c1.203,0,2.14-0.464,2.81-1.391S91.068,41.102,91.068,39.582z"/>
	<path fill="#FFFFFF" d="M112.813,41.239c0,1.696-0.588,3.075-1.771,4.141c-1.299,1.165-3.107,1.746-5.432,1.746
		c-2.146,0-3.865-0.414-5.168-1.242l0.74-2.663c1.401,0.85,2.94,1.272,4.617,1.272c1.203,0,2.141-0.271,2.813-0.813
		c0.671-0.544,1.005-1.271,1.005-2.18c0-0.811-0.275-1.491-0.828-2.044c-0.55-0.554-1.47-1.067-2.751-1.543
		c-3.491-1.302-5.235-3.208-5.235-5.718c0-1.639,0.611-2.982,1.835-4.029c1.221-1.047,2.848-1.571,4.881-1.571
		c1.814,0,3.321,0.316,4.524,0.947l-0.799,2.604c-1.124-0.611-2.394-0.917-3.816-0.917c-1.122,0-2.001,0.277-2.63,0.829
		c-0.533,0.493-0.8,1.092-0.8,1.805c0,0.787,0.305,1.438,0.916,1.951c0.532,0.475,1.499,0.985,2.899,1.539
		c1.715,0.69,2.977,1.498,3.787,2.424C112.408,38.705,112.813,39.859,112.813,41.239z"/>
	<path fill="#FFFFFF" d="M123.373,34.85h-3.521v6.98c0,1.775,0.621,2.663,1.864,2.663c0.57,0,1.046-0.05,1.419-0.147l0.088,2.426
		c-0.629,0.235-1.457,0.354-2.484,0.354c-1.262,0-2.246-0.385-2.959-1.153c-0.707-0.77-1.063-2.062-1.063-3.875V34.85h-2.099v-2.396
		h2.099V29.82l3.138-0.946v3.58h3.521L123.373,34.85L123.373,34.85z"/>
	<path fill="#FFFFFF" d="M139.26,39.523c0,2.209-0.632,4.022-1.894,5.441c-1.322,1.461-3.078,2.189-5.267,2.189
		c-2.111,0-3.791-0.7-5.043-2.1c-1.252-1.4-1.879-3.168-1.879-5.297c0-2.229,0.645-4.053,1.938-5.472
		c1.291-1.421,3.031-2.131,5.221-2.131c2.109,0,3.809,0.698,5.089,2.102C138.648,35.619,139.26,37.374,139.26,39.523z
		 M135.943,39.627c0-1.325-0.283-2.463-0.856-3.412c-0.67-1.146-1.627-1.721-2.868-1.721c-1.283,0-2.259,0.572-2.929,1.721
		c-0.573,0.949-0.856,2.105-0.856,3.473c0,1.326,0.283,2.463,0.856,3.41c0.69,1.147,1.655,1.721,2.899,1.721
		c1.221,0,2.178-0.584,2.867-1.75C135.648,42.1,135.943,40.951,135.943,39.627z"/>
	<path fill="#FFFFFF" d="M149.643,35.264c-0.315-0.06-0.651-0.089-1.006-0.089c-1.123,0-1.992,0.425-2.604,1.272
		c-0.532,0.748-0.8,1.695-0.8,2.839v7.544h-3.191l0.029-9.85c0-1.658-0.041-3.168-0.12-4.527h2.782l0.117,2.751h0.088
		c0.336-0.945,0.869-1.706,1.599-2.277c0.711-0.514,1.479-0.77,2.31-0.77c0.295,0,0.562,0.021,0.799,0.059v3.048H149.643z"/>
	<path fill="#FFFFFF" d="M163.93,38.961c0,0.572-0.039,1.057-0.117,1.449h-9.584c0.039,1.42,0.5,2.506,1.391,3.255
		c0.808,0.67,1.854,1.006,3.134,1.006c1.42,0,2.713-0.228,3.878-0.681l0.5,2.218c-1.359,0.593-2.967,0.89-4.818,0.89
		c-2.23,0-3.979-0.656-5.254-1.969c-1.27-1.313-1.908-3.07-1.908-5.281c0-2.168,0.593-3.974,1.776-5.412
		c1.241-1.539,2.919-2.308,5.027-2.308c2.071,0,3.642,0.769,4.706,2.308C163.505,35.657,163.93,37.167,163.93,38.961z
		 M160.883,38.133c0.021-0.945-0.188-1.765-0.619-2.455c-0.555-0.888-1.402-1.33-2.547-1.33c-1.045,0-1.894,0.433-2.543,1.301
		c-0.533,0.69-0.849,1.52-0.945,2.484H160.883z"/>
</g>
<g>
	<g>
		<path fill="#FFFFFF" d="M54.395,14.624c0,1.764-0.528,3.091-1.584,3.983c-0.979,0.823-2.369,1.235-4.17,1.235
			c-0.893,0-1.658-0.039-2.297-0.116V10.09c0.834-0.135,1.734-0.203,2.704-0.203c1.715,0,3.008,0.373,3.88,1.119
			C53.905,11.849,54.395,13.055,54.395,14.624z M52.739,14.668c0-1.143-0.303-2.02-0.909-2.631c-0.605-0.61-1.489-0.915-2.652-0.915
			c-0.495,0-0.916,0.034-1.264,0.102v7.325c0.193,0.029,0.547,0.044,1.061,0.044c1.201,0,2.129-0.334,2.783-1.003
			C52.411,16.921,52.739,15.947,52.739,14.668z"/>
		<path fill="#FFFFFF" d="M63.173,16.165c0,1.085-0.31,1.977-0.931,2.674c-0.649,0.718-1.511,1.076-2.587,1.076
			c-1.037,0-1.862-0.344-2.479-1.032c-0.615-0.688-0.922-1.555-0.922-2.602c0-1.094,0.316-1.991,0.951-2.688
			c0.635-0.698,1.489-1.046,2.565-1.046c1.037,0,1.87,0.344,2.5,1.032C62.872,14.247,63.173,15.109,63.173,16.165z M61.544,16.216
			c0-0.651-0.141-1.21-0.421-1.676c-0.33-0.564-0.799-0.846-1.409-0.846c-0.631,0-1.11,0.282-1.44,0.846
			c-0.281,0.466-0.421,1.035-0.421,1.705c0,0.652,0.141,1.21,0.421,1.677c0.34,0.563,0.813,0.845,1.425,0.845
			c0.6,0,1.069-0.287,1.409-0.86C61.399,17.431,61.544,16.867,61.544,16.216z"/>
		<path fill="#FFFFFF" d="M74.944,12.691l-2.209,7.063h-1.438l-0.916-3.067c-0.232-0.765-0.421-1.526-0.568-2.282h-0.028
			c-0.136,0.775-0.325,1.536-0.567,2.282l-0.973,3.067H66.79l-2.078-7.063h1.614l0.799,3.357c0.193,0.794,0.353,1.55,0.479,2.267
			h0.028c0.117-0.59,0.311-1.342,0.583-2.252l1.002-3.372h1.279l0.96,3.299c0.232,0.804,0.421,1.58,0.566,2.325h0.044
			c0.107-0.727,0.266-1.501,0.48-2.325l0.857-3.299H74.944z"/>
		<path fill="#FFFFFF" d="M83.083,19.755h-1.57V15.71c0-1.247-0.474-1.87-1.424-1.87c-0.465,0-0.843,0.171-1.134,0.515
			c-0.29,0.343-0.436,0.747-0.436,1.21v4.19h-1.57v-5.043c0-0.62-0.019-1.293-0.057-2.021h1.38l0.073,1.104h0.044
			c0.183-0.342,0.455-0.627,0.813-0.853c0.426-0.264,0.901-0.396,1.424-0.396c0.66,0,1.207,0.213,1.643,0.64
			c0.543,0.523,0.813,1.303,0.813,2.339L83.083,19.755L83.083,19.755z"/>
		<path fill="#FFFFFF" d="M87.414,19.755h-1.568V9.451h1.568V19.755z"/>
		<path fill="#FFFFFF" d="M96.658,16.165c0,1.085-0.311,1.977-0.932,2.674c-0.648,0.718-1.513,1.076-2.586,1.076
			c-1.039,0-1.865-0.344-2.479-1.032s-0.923-1.555-0.923-2.602c0-1.094,0.316-1.991,0.951-2.688c0.636-0.698,1.49-1.046,2.563-1.046
			c1.039,0,1.87,0.344,2.502,1.032C96.355,14.247,96.658,15.109,96.658,16.165z M95.027,16.216c0-0.651-0.141-1.21-0.422-1.676
			c-0.326-0.564-0.799-0.846-1.406-0.846c-0.633,0-1.112,0.282-1.439,0.846c-0.281,0.466-0.422,1.035-0.422,1.705
			c0,0.652,0.141,1.21,0.422,1.677c0.34,0.563,0.813,0.845,1.426,0.845c0.6,0,1.067-0.287,1.406-0.86
			C94.885,17.431,95.027,16.867,95.027,16.216z"/>
		<path fill="#FFFFFF" d="M104.258,19.755h-1.41l-0.117-0.813h-0.043c-0.482,0.649-1.172,0.974-2.063,0.974
			c-0.667,0-1.205-0.213-1.612-0.64c-0.367-0.387-0.553-0.867-0.553-1.438c0-0.862,0.359-1.521,1.083-1.977
			c0.724-0.455,1.737-0.678,3.046-0.668V15.06c0-0.93-0.488-1.395-1.466-1.395c-0.696,0-1.312,0.175-1.841,0.523l-0.319-1.031
			c0.656-0.407,1.468-0.61,2.424-0.61c1.847,0,2.771,0.974,2.771,2.921v2.602C104.154,18.776,104.189,19.338,104.258,19.755z
			 M102.628,17.328v-1.089c-1.731-0.029-2.599,0.445-2.599,1.423c0,0.369,0.1,0.645,0.302,0.829
			c0.202,0.184,0.459,0.276,0.767,0.276c0.346,0,0.668-0.109,0.961-0.327c0.295-0.218,0.477-0.496,0.543-0.835
			C102.619,17.526,102.628,17.434,102.628,17.328z"/>
		<path fill="#FFFFFF" d="M113.182,19.755h-1.395l-0.073-1.134h-0.044c-0.443,0.862-1.202,1.294-2.268,1.294
			c-0.853,0-1.561-0.334-2.121-1.003c-0.563-0.669-0.844-1.536-0.844-2.602c0-1.144,0.305-2.069,0.916-2.776
			c0.592-0.659,1.316-0.988,2.181-0.988c0.948,0,1.612,0.32,1.989,0.959h0.029V9.451h1.571v8.4
			C113.125,18.539,113.143,19.173,113.182,19.755z M111.555,16.776v-1.178c0-0.204-0.016-0.368-0.045-0.494
			c-0.088-0.377-0.277-0.695-0.568-0.952c-0.291-0.257-0.644-0.386-1.049-0.386c-0.586,0-1.045,0.233-1.383,0.698
			c-0.333,0.465-0.503,1.061-0.503,1.787c0,0.698,0.161,1.265,0.481,1.701c0.341,0.464,0.8,0.697,1.373,0.697
			c0.516,0,0.928-0.194,1.24-0.581C111.404,17.711,111.555,17.279,111.555,16.776z"/>
		<path fill="#FFFFFF" d="M126.609,16.165c0,1.085-0.312,1.977-0.932,2.674c-0.648,0.718-1.51,1.076-2.587,1.076
			c-1.036,0-1.86-0.344-2.479-1.032c-0.613-0.688-0.922-1.555-0.922-2.602c0-1.094,0.316-1.991,0.951-2.688
			c0.635-0.698,1.489-1.046,2.566-1.046c1.036,0,1.87,0.344,2.499,1.032C126.309,14.247,126.609,15.109,126.609,16.165z
			 M124.982,16.216c0-0.651-0.142-1.21-0.422-1.676c-0.33-0.564-0.799-0.846-1.41-0.846c-0.629,0-1.109,0.282-1.439,0.846
			c-0.281,0.466-0.422,1.035-0.422,1.705c0,0.652,0.141,1.21,0.422,1.677c0.339,0.563,0.813,0.845,1.426,0.845
			c0.6,0,1.07-0.287,1.409-0.86C124.836,17.431,124.982,16.867,124.982,16.216z"/>
		<path fill="#FFFFFF" d="M135.052,19.755h-1.567V15.71c0-1.247-0.475-1.87-1.426-1.87c-0.466,0-0.843,0.171-1.133,0.515
			c-0.289,0.343-0.437,0.747-0.437,1.21v4.19h-1.571v-5.043c0-0.62-0.018-1.293-0.057-2.021h1.38l0.073,1.104h0.043
			c0.185-0.342,0.457-0.627,0.813-0.853c0.427-0.264,0.901-0.396,1.425-0.396c0.658,0,1.207,0.213,1.643,0.64
			c0.544,0.523,0.813,1.303,0.813,2.339L135.052,19.755L135.052,19.755z"/>
		<path fill="#FFFFFF" d="M145.619,13.869h-1.729v3.43c0,0.872,0.307,1.308,0.916,1.308c0.279,0,0.514-0.024,0.698-0.073
			l0.041,1.192c-0.312,0.116-0.717,0.175-1.221,0.175c-0.62,0-1.103-0.189-1.451-0.567c-0.353-0.378-0.522-1.013-0.522-1.904v-3.561
			h-1.033v-1.177h1.033v-1.293l1.539-0.464v1.758h1.729V13.869L145.619,13.869z"/>
		<path fill="#FFFFFF" d="M153.934,19.755h-1.572v-4.016c0-1.267-0.475-1.899-1.422-1.899c-0.729,0-1.227,0.367-1.498,1.102
			c-0.047,0.154-0.073,0.343-0.073,0.565v4.248H147.8V9.451h1.568v4.257h0.028c0.496-0.774,1.203-1.161,2.123-1.161
			c0.648,0,1.188,0.213,1.614,0.64c0.532,0.533,0.8,1.323,0.8,2.369V19.755L153.934,19.755z"/>
		<path fill="#FFFFFF" d="M162.507,15.889c0,0.281-0.021,0.518-0.059,0.712h-4.708c0.021,0.698,0.244,1.23,0.682,1.599
			c0.396,0.33,0.913,0.494,1.542,0.494c0.696,0,1.331-0.111,1.905-0.334l0.246,1.09c-0.672,0.291-1.458,0.436-2.371,0.436
			c-1.094,0-1.955-0.322-2.578-0.966c-0.626-0.645-0.938-1.509-0.938-2.594c0-1.066,0.291-1.953,0.873-2.66
			c0.608-0.756,1.432-1.133,2.469-1.133c1.017,0,1.789,0.377,2.311,1.133C162.299,14.267,162.507,15.008,162.507,15.889z
			 M161.009,15.482c0.013-0.465-0.091-0.868-0.305-1.207c-0.272-0.436-0.688-0.654-1.249-0.654c-0.514,0-0.932,0.213-1.25,0.639
			c-0.262,0.339-0.416,0.747-0.465,1.221L161.009,15.482L161.009,15.482z"/>
	</g>
</g>
</svg>
