<?xml version="1.0" encoding="utf-8"?>
<!-- Generator: Adobe Illustrator 16.0.3, SVG Export Plug-In . SVG Version: 6.00 Build 0)  -->
<!DOCTYPE svg PUBLIC "-//W3C//DTD SVG 1.1//EN" "http://www.w3.org/Graphics/SVG/1.1/DTD/svg11.dtd">
<svg version="1.1" id="New_Business_1_" xmlns="http://www.w3.org/2000/svg" xmlns:xlink="http://www.w3.org/1999/xlink" x="0px"
	 y="0px" width="180px" height="140px" viewBox="0 0 180 140" enable-background="new 0 0 180 140" xml:space="preserve">
<g id="Tree_3_">
	<g id="Trunk_3_">
		<g id="Rectangle_4">
			<g>
				<rect x="156.002" y="124.003" fill="#B48C49" width="2.999" height="11.992"/>
			</g>
		</g>
		<g id="Ellipse_2">
			<g>
				<path fill="#9E7C41" d="M156.002,124.003v4.694c0.331,0.117,0.682,0.19,1.053,0.19c0.736,0,1.406-0.261,1.946-0.682v-4.205
					L156.002,124.003L156.002,124.003z"/>
			</g>
		</g>
	</g>
	<g id="Ellipse_1">
		<g>
			<path fill="#30B148" d="M173,112.322c0-2.895-2.121-5.288-4.904-5.76c-1.169-1.254-2.837-2.043-4.693-2.043
				c-3.533,0-6.398,2.84-6.398,6.34c0,0.961,0.223,1.867,0.605,2.683c-1.885,0.003-3.553,0.901-4.604,2.286
				c-0.299-0.059-0.604-0.092-0.923-0.092c-2.583,0-4.678,2.072-4.678,4.632c0,2.559,2.094,4.632,4.677,4.632
				c0.969,0,1.868-0.292,2.612-0.791c0.858,0.499,1.855,0.791,2.925,0.791c1.374,0,2.634-0.477,3.626-1.268
				c0.729,0.34,1.543,0.535,2.402,0.535c3.127,0,5.662-2.511,5.662-5.606c0-0.304-0.031-0.599-0.078-0.89
				C171.436,116.924,173,114.807,173,112.322z"/>
		</g>
	</g>
	<g id="Ellipse_1_1_">
		<g>
			<path fill="#34BE4E" d="M164.878,96.963c-0.345,0-0.681,0.034-1.011,0.087c-1.436-1.264-3.318-2.037-5.389-2.037
				c-3.166,0-5.902,1.8-7.242,4.419c-3.896,0.281-7.021,3.273-7.467,7.084c-1.561,0.211-2.768,1.522-2.768,3.125
				c0,1.08,0.547,2.03,1.38,2.604c-0.854,0.966-1.38,2.229-1.38,3.612c0,3.03,2.479,5.486,5.538,5.486
				c1.713,0,3.243-0.771,4.259-1.979c0.1,0.01,0.194,0.027,0.295,0.027c1.292,0,2.379-0.826,2.779-1.972
				c0.141,0.011,0.277,0.021,0.42,0.021c2.714,0,5.014-1.74,5.83-4.155c1.736-0.549,3.07-1.983,3.425-3.783
				c0.431,0.09,0.872,0.14,1.328,0.14c3.534,0,6.397-2.839,6.397-6.34S168.412,96.963,164.878,96.963z"/>
		</g>
	</g>
	<g id="Ellipse_1_2_" opacity="0.102">
		<g>
			<path d="M151.404,111.93c0.932,0.745,2.294,0.745,3.227-0.062c0.627-0.543,0.912-1.325,0.846-2.089
				c-0.193,0.521-0.521,1.001-0.973,1.393C153.623,111.936,152.463,112.177,151.404,111.93z M159.482,107.16
				c-1.414,0.688-3.004,0.603-4.293-0.084c0.946,1.289,2.719,1.759,4.213,1.031c1.004-0.487,1.648-1.405,1.832-2.42
				C160.798,106.296,160.207,106.809,159.482,107.16z M143.547,111.604c0.414,2.349,2.477,4.135,4.965,4.135
				c1.672,0,3.15-0.813,4.068-2.053c-0.99,0.529-2.125,0.832-3.33,0.832C146.896,114.518,144.818,113.365,143.547,111.604z"/>
		</g>
	</g>
</g>
<g id="Tree_2_">
	<g id="Trunk_2_">
		<g id="Rectangle_4_1_">
			<g>
				<rect x="16.987" y="121.01" fill="#B48C49" width="3.001" height="14.981"/>
			</g>
		</g>
		<g id="Ellipse_2_1_">
			<g>
				<path fill="#9E7C41" d="M17.335,121.057c-0.119,0-0.231,0.023-0.348,0.035v7.313c0.116,0.012,0.229,0.034,0.348,0.034
					c1.044,0,1.982-0.438,2.654-1.133v-5.115C19.317,121.494,18.379,121.057,17.335,121.057z"/>
			</g>
		</g>
	</g>
	<g id="Ellipse_1_3_">
		<g>
			<path fill="#239939" d="M38.008,108.202c0-3.375-2.454-6.171-5.674-6.722c-1.353-1.461-3.281-2.381-5.43-2.381
				c-4.088,0-7.403,3.312-7.403,7.396c0,1.12,0.256,2.178,0.703,3.129c-2.18,0.004-4.109,1.053-5.329,2.667
				c-0.345-0.068-0.702-0.105-1.068-0.105c-2.988,0-5.41,2.42-5.41,5.403c0,2.985,2.422,5.405,5.41,5.405
				c1.121,0,2.162-0.342,3.025-0.924c0.993,0.584,2.146,0.924,3.381,0.924c1.588,0,3.046-0.557,4.193-1.479
				c0.845,0.396,1.786,0.625,2.782,0.625c3.617,0,6.549-2.93,6.549-6.543c0-0.354-0.036-0.697-0.09-1.035
				C36.198,113.571,38.008,111.102,38.008,108.202z"/>
		</g>
	</g>
	<g id="Ellipse_1_4_">
		<g>
			<path fill="#26A23D" d="M29.613,90.28c-0.399,0-0.788,0.04-1.17,0.102c-1.66-1.475-3.838-2.377-6.233-2.377
				c-3.663,0-6.829,2.101-8.378,5.155c-4.503,0.328-8.123,3.818-8.637,8.266c-1.805,0.247-3.2,1.777-3.2,3.647
				c0,1.26,0.633,2.368,1.596,3.036c-0.99,1.127-1.596,2.601-1.596,4.218c0,3.535,2.868,6.401,6.406,6.401
				c1.981,0,3.751-0.899,4.927-2.313c0.114,0.012,0.224,0.034,0.341,0.034c1.495,0,2.751-0.966,3.215-2.302
				c0.162,0.013,0.322,0.024,0.487,0.024c3.127,0,5.777-2.018,6.732-4.819c2.021-0.633,3.566-2.336,3.977-4.443
				c0.495,0.104,1.007,0.161,1.534,0.161c4.088,0,7.403-3.313,7.403-7.396S33.701,90.28,29.613,90.28z"/>
		</g>
	</g>
	<g id="Ellipse_1_5_" opacity="0.102">
		<g>
			<path d="M13.025,107.744c1.077,0.869,2.654,0.869,3.732-0.072c0.725-0.633,1.056-1.547,0.979-2.438
				c-0.227,0.605-0.603,1.168-1.125,1.625C15.591,107.75,14.25,108.032,13.025,107.744z M22.371,102.18
				c-1.635,0.803-3.475,0.702-4.965-0.099c1.096,1.503,3.144,2.052,4.872,1.204c1.162-0.57,1.911-1.643,2.121-2.824
				C23.893,101.171,23.208,101.77,22.371,102.18z M3.935,107.363c0.479,2.738,2.865,4.822,5.743,4.822
				c1.935,0,3.646-0.945,4.708-2.396c-1.146,0.619-2.458,0.972-3.853,0.972C7.81,110.763,5.407,109.419,3.935,107.363z"/>
		</g>
	</g>
</g>
<g id="My_Business_Icon_1_">
	<g id="shape">
		<g>
			<path fill="#AAAAAA" d="M143.967,27.002H36.039c-4.439,0-8.037,3.611-8.037,8.068v100.924h124.002V35.07
				C152.004,30.613,148.406,27.002,143.967,27.002z"/>
		</g>
	</g>
	<g id="shape_1_">
		<g>
			<rect x="39.007" y="75" fill="#EEEEEE" width="41.981" height="60.994"/>
		</g>
	</g>
	<g id="shape_2_">
		<g>
			<rect x="69.977" y="105.001" fill="#37353A" width="7.02" height="0.996"/>
		</g>
	</g>
	<g id="shape_3_">
		<g>
			<path fill="#33BCF2" d="M42.989,79.013v23.979h34.018V79.013H42.989z M42.989,132.014h34.018v-24.011H42.989V132.014z"/>
		</g>
	</g>
	<g id="ON_2_">
		<g id="shadow" opacity="0.102">
			<g>
				<rect x="51.009" y="86.992" width="18.001" height="10.005"/>
			</g>
		</g>
		<g id="shape_4_">
			<g>
				<rect x="51.009" y="85.992" fill="#FFFFFF" width="18.001" height="10.005"/>
			</g>
		</g>
		<g id="buttonshape">
			<g>
				<rect x="52" y="87" fill="#44CE5E" width="16" height="8"/>
			</g>
		</g>
		<g id="ON">
			<g>
				<path fill="#FFFFFF" d="M56.999,87.986c-1.516,0-1.998,1.098-1.998,3.056s0.481,2.971,1.998,2.971s1.998-1.013,1.998-2.971
					S58.515,87.986,56.999,87.986z M56.999,93.018c-0.793,0-0.992-0.625-0.992-1.957c0-1.33,0.198-2.043,0.992-2.043
					s0.992,0.713,0.992,2.043C57.991,92.393,57.792,93.018,56.999,93.018z M64,88v5l-2.079-4.986h-1.936v5.975L61,94v-5l2.116,4.986
					h1.873v-5.975L64,88z"/>
			</g>
		</g>
	</g>
	<g id="roof_shadow" opacity="0.0706">
		<g>
			<path d="M69.011,58.544c0,5.776,4.471,10.458,9.987,10.458s9.987-4.682,9.987-10.458h0.001V29.006H69.011V58.544z M47.997,29.006
				H35.782c-4.297,0-7.78,3.642-7.78,8.135v21.403c0,5.776,4.478,10.458,10.002,10.458c5.494,0,9.949-4.632,9.998-10.364
				c0.051,5.732,4.727,10.364,10.493,10.364c5.798,0,10.498-4.682,10.498-10.458V29.006H48.006H47.997z M143.443,29.006h-13.449
				h-0.002h-19.993h-0.009H89.004v29.538h-0.001c0,5.776,4.7,10.458,10.497,10.458c5.77,0,10.445-4.634,10.493-10.369
				c0.047,5.735,4.502,10.369,9.998,10.369c5.512,0,9.979-4.66,10.001-10.417v0.716c0,5.91,4.928,10.701,11.006,10.701
				c6.079,0,11.006-4.791,11.006-10.701V37.33C152.004,32.732,148.172,29.006,143.443,29.006z"/>
		</g>
	</g>
	<g id="roof_1">
		<g>
			<path fill="#44CE5E" d="M69.011,56.544c0,5.776,4.471,10.458,9.987,10.458s9.987-4.682,9.987-10.458h0.001V27.006H69.011V56.544z
				 M109.99,27.006v29.538h-0.001c0,5.776,4.478,10.458,10.002,10.458s10.003-4.682,10.003-10.458V27.006H109.99z M28.002,35.141
				v21.403c0,5.776,4.478,10.458,10.002,10.458s10.002-4.682,10.002-10.458V27.006H35.782
				C31.485,27.006,28.002,30.647,28.002,35.141z"/>
		</g>
	</g>
	<g id="shadow_1_" opacity="0.102">
		<g>
			<rect x="90.998" y="76" width="48" height="47.995"/>
		</g>
	</g>
	<g id="shape_5_">
		<g>
			<rect x="90.998" y="75" fill="#EEEEEE" width="48" height="47.995"/>
		</g>
	</g>
	<g id="shape_6_">
		<g>
			<rect x="94.996" y="78.997" fill="#33BCF2" width="40.006" height="40.001"/>
		</g>
	</g>
	<g id="QR_1_">
		<g id="Rectangle_6" opacity="0.102">
			<g>
				<rect x="103" y="88" width="24" height="24"/>
			</g>
		</g>
		<g id="Rectangle_6_1_">
			<g>
				<rect x="103" y="87" fill="#FFFFFF" width="24" height="24"/>
			</g>
		</g>
		<g id="Rectangle_6_2_">
			<g>
				<rect x="105" y="89" fill="#44CE5E" width="20" height="20"/>
			</g>
		</g>
		<g id="Grid">
			<g>
				<path fill="#FFFFFF" d="M112.998,99.998h-5.001c-0.552,0-1,0.447-1,1v5.001c0,0.552,0.448,1,1,1h5.001c0.553,0,1-0.448,1-1
					v-5.001C113.998,100.445,113.551,99.998,112.998,99.998z M111.998,104.999h-3v-3.001h3V104.999z M116.285,101.998h1.429
					c0.157,0,0.286-0.128,0.286-0.285v-1.43c0-0.157-0.129-0.285-0.286-0.285h-1.429c-0.158,0-0.286,0.128-0.286,0.285v1.43
					C115.999,101.87,116.127,101.998,116.285,101.998z M122,90.997h-5c-0.553,0-1.001,0.446-1.001,1v5.001c0,0.552,0.448,1,1.001,1
					h5c0.553,0,1.001-0.448,1.001-1v-5.001C123.001,91.443,122.553,90.997,122,90.997z M121,95.997h-3v-3h3V95.997z M122.572,99.998
					h-2.146c-0.235,0-0.429,0.191-0.429,0.429v2.145c0,0.235,0.189,0.429,0.429,0.429h2.146c0.236,0,0.429-0.189,0.429-0.429v-2.145
					C123.001,100.189,122.809,99.998,122.572,99.998z M112.998,90.997h-5.001c-0.552,0-1,0.446-1,1v5.001c0,0.552,0.448,1,1,1h5.001
					c0.553,0,1-0.448,1-1v-5.001C113.998,91.443,113.551,90.997,112.998,90.997z M111.998,95.997h-3v-3h3V95.997z M118.57,103.998
					h-2.145c-0.234,0-0.429,0.191-0.429,0.429v2.146c0,0.234,0.19,0.429,0.429,0.429h2.145c0.238,0,0.43-0.19,0.43-0.429v-2.146
					C119,104.189,118.809,103.998,118.57,103.998z M122.715,104.999h-1.429c-0.158,0-0.286,0.127-0.286,0.285v1.429
					c0,0.158,0.128,0.286,0.286,0.286h1.429c0.158,0,0.286-0.128,0.286-0.286v-1.429
					C123.001,105.126,122.873,104.999,122.715,104.999z"/>
			</g>
		</g>
	</g>
	<g id="roof_2">
		<g>
			<path fill="#FFFFFF" d="M47.997,56.544c0,5.776,4.7,10.458,10.498,10.458c5.798,0,10.498-4.682,10.498-10.458V27.006H47.997
				V56.544z M89.004,56.544L89.004,56.544C89.003,62.32,93.703,67.002,99.5,67.002c5.799,0,10.498-4.682,10.498-10.458h0.001V27.006
				H89.004V56.544z M143.443,27.006h-13.451v30.295c0,5.91,4.928,10.701,11.006,10.701c6.079,0,11.006-4.791,11.006-10.701V35.33
				C152.004,30.732,148.172,27.006,143.443,27.006z"/>
		</g>
	</g>
	<g id="shadow_2_" opacity="0.0706">
		<g>
			<polygon points="28.002,57.002 28,136 91,75 152,75 152.004,57.111 			"/>
		</g>
	</g>
	<g id="edge_light_2_" opacity="0.3294">
		<g>
			
				<linearGradient id="SVGID_1_" gradientUnits="userSpaceOnUse" x1="-455.0015" y1="1330.5059" x2="-347.9995" y2="1330.5059" gradientTransform="matrix(1 0 0 1 489.9995 -1303)">
				<stop  offset="0" style="stop-color:#FFFFFF;stop-opacity:0"/>
				<stop  offset="0.1022" style="stop-color:#FFFFFF"/>
				<stop  offset="0.8978" style="stop-color:#FFFFFF"/>
				<stop  offset="1" style="stop-color:#FFFFFF;stop-opacity:0"/>
			</linearGradient>
			<rect x="34.998" y="26.898" fill="url(#SVGID_1_)" width="107.002" height="1.216"/>
		</g>
	</g>
</g>
<g id="sidewalk_1_">
	<g id="middle">
		<g>
			<rect x="7.002" y="135.996" fill="#D8D8D8" width="166.012" height="4.008"/>
		</g>
	</g>
	<g id="dark">
		<g>
			<rect x="-0.004" y="135.995" fill="#C0C0C0" width="7.006" height="4.011"/>
		</g>
	</g>
	<g id="light">
		<g>
			<rect x="173.011" y="135.995" fill="#E6E6E6" width="6.995" height="4.011"/>
		</g>
	</g>
</g>
<g id="badge_x2B__1_">
	<g id="O" opacity="0.102">
		<g>
			<circle cx="152" cy="28.994" r="25.003"/>
		</g>
	</g>
	<g id="O_1_">
		<g>
			<circle fill="#FFFFFF" cx="152" cy="27.001" r="25.003"/>
		</g>
	</g>
	<g id="O_2_">
		<g>
			<ellipse fill="#44CE5E" cx="152" cy="27.002" rx="21" ry="20.986"/>
		</g>
	</g>
	<g id="Plus" opacity="0.102">
		<g>
			<path d="M159.672,27.001l-5.674,0.001l0.004-5.67c0-0.55-0.447-0.995-0.998-0.995l-1.998,0.002c-0.551,0-0.999,0.446-1,0.996
				l-0.004,5.668l-5.669,0.001c-0.55,0-0.995,0.447-0.995,1v1.998c-0.001,0.552,0.445,0.999,0.994,0.999L149.999,31l-0.004,5.674
				c0,0.55,0.446,0.995,0.999,0.994l1.996-0.001c0.553,0,1-0.446,1-0.996l0.004-5.672l5.676-0.001c0.551,0,0.996-0.447,0.996-0.999
				V28C160.666,27.448,160.221,27.001,159.672,27.001z"/>
		</g>
	</g>
	<g id="Plus_1_">
		<g>
			<path fill="#FFFFFF" d="M159.672,25.001l-5.674,0.001l0.004-5.67c0-0.55-0.447-0.995-0.998-0.995l-1.998,0.002
				c-0.551,0-0.999,0.446-1,0.996l-0.004,5.668l-5.669,0.001c-0.55,0-0.995,0.447-0.995,1v1.998
				c-0.001,0.552,0.445,0.999,0.994,0.999L149.999,29l-0.004,5.674c0,0.55,0.446,0.995,0.999,0.994l1.996-0.001
				c0.553,0,1-0.446,1-0.996l0.004-5.672l5.676-0.001c0.551,0,0.996-0.447,0.996-0.999V26
				C160.666,25.448,160.221,25.001,159.672,25.001z"/>
		</g>
	</g>
</g>
</svg>
