<?xml version="1.0" encoding="utf-8"?>
<!-- Generator: Adobe Illustrator 16.0.3, SVG Export Plug-In . SVG Version: 6.00 Build 0)  -->
<!DOCTYPE svg PUBLIC "-//W3C//DTD SVG 1.1//EN" "http://www.w3.org/Graphics/SVG/1.1/DTD/svg11.dtd">
<svg version="1.1" id="Layer_1" xmlns="http://www.w3.org/2000/svg" xmlns:xlink="http://www.w3.org/1999/xlink" x="0px" y="0px"
	 width="600px" height="300px" viewBox="0 0 600 300" enable-background="new 0 0 600 300" xml:space="preserve">
<g id="Layer_2">
	<g>
		
			<radialGradient id="SVGID_1_" cx="-95.9766" cy="768.4814" r="270.2412" gradientTransform="matrix(0.9991 0 0 0.9967 395.8486 -490.6082)" gradientUnits="userSpaceOnUse">
			<stop  offset="0" style="stop-color:#000000;stop-opacity:0.3"/>
			<stop  offset="1" style="stop-color:#000000;stop-opacity:0"/>
		</radialGradient>
		<path fill="url(#SVGID_1_)" d="M299.958,5.992c-149.117,0-270,120.589-270,269.343c0,0.219,0.008,0.438,0.009,0.657H569.95
			c0.001-0.221,0.008-0.438,0.008-0.657C569.958,126.581,449.074,5.992,299.958,5.992z"/>
	</g>
</g>
<g id="Layer_3">
	<g>
		<path fill="#FFFFFF" d="M299.666,71.307c-112.666,0-204,91.333-204,204c0,0.229,0.008,0.455,0.009,0.685h407.982
			c0.001-0.229,0.009-0.455,0.009-0.685C503.666,162.641,412.332,71.307,299.666,71.307z"/>
	</g>
</g>
<g id="Layer_1_1_">
	<g>
		<path fill="none" d="M494.876,275.307h-13.405h-13.179h-8.176h-8.491h-8h-11.958h-3.375h-16.585h-7.415h-59.608h-0.025h-11.986
			h-17.62h-32.797h-13.578h-21.358h-4.14h-2.272H219.46h-3.546h-2.727h-4.317h-2.727h-0.697h-1.802h-6.589h-1.818h-2.499h-9.542
			h-1.363h-0.682h-2.499h-3.635h-1.136h-6.362h-2.021h-0.251h-6.735h-5.307h-10.428h-2.272h-3.547h-21.445h-2.727h-4.317h-2.727
			h-2.499h-3.577c0,110.457,89.543,200,200,200c110.458,0,200-89.543,200-200h-4.618H494.876z"/>
		
			<linearGradient id="SVGID_2_" gradientUnits="userSpaceOnUse" x1="-536.7368" y1="1337.3066" x2="-536.7368" y2="1117.2993" gradientTransform="matrix(1 0 0 1 792 -1061.999)">
			<stop  offset="0.1" style="stop-color:#7CC8A5"/>
			<stop  offset="1" style="stop-color:#33BCF2"/>
		</linearGradient>
		<path fill="url(#SVGID_2_)" d="M111.472,230.639h20.819l-0.333-10.498h19v10.498h7.554v11.447h5.481v-24.73h22.25v9.951h19.203
			v15.01h6.005v5.982h8.009v-14.998h3.997v-10.984h17.013v12.976h10.99v5.021h12.988v-10.017h48.015v6.009h6.988v-8.994h14.011
			v8.994h4.136v-6.121h9.854v-10.888h30.016v30.353h3.947v-8.243h15.894v-18.091h6.983v-14.797h-7.126v-11.813h-0.001h-17.269v5.68
			h-5.229V191.25H351.04v17.268h-6.36v-6.588h-7.043v-2.953h-9.09v9.313h-4.258v6.017h-6.839v-9.994h-17.996v7.612h-7.192v-1.215
			h-17.279v-11.508h-13.405v13.856h-3.408v-10.678h-6.135v7.041h-4.544v3.637h-4.317v-3.813H215.91v-5.729h-7.043v-6.311h-13.632
			v9.49h-2.499v6.135h-5.114v-2.123h-4.43v-8.78h-4.544v7.041h-3.635v-4.543h-0.431v-5.226h-7.067v-6.229h-14.312v9.407h-1.567
			v4.328h-8.861v-10.465h-26.861c-3.893,9.035-7.139,18.413-9.68,28.078h5.238V230.639L111.472,230.639z"/>
		
			<linearGradient id="SVGID_3_" gradientUnits="userSpaceOnUse" x1="-536.7368" y1="1337.7607" x2="-536.7368" y2="1117.2971" gradientTransform="matrix(1 0 0 1 792 -1061.999)">
			<stop  offset="0" style="stop-color:#74CCC5"/>
			<stop  offset="1" style="stop-color:#7DCCA9"/>
		</linearGradient>
		<path fill="url(#SVGID_3_)" d="M111.472,230.639h20.819l-0.333-10.498h19v10.498h7.554v11.447h5.481v-24.73h22.25v9.951h19.203
			v15.01h6.005v5.982h8.009v-14.998h3.997v-10.984h17.013v12.976h10.99v5.021h12.988v-10.017h48.015v6.009h6.988v-8.994h14.011
			v8.994h4.136v-6.121h9.854v-10.888h30.016v30.353h3.947v-8.243h15.894v-18.091h6.983v-14.797h-7.126v-11.813h-0.001h-17.269v5.68
			h-5.229V191.25H351.04v17.268h-6.36v-6.588h-7.043v-2.953h-9.09v9.313h-4.258v6.017h-6.839v-9.994h-17.996v7.612h-7.192v-1.215
			h-17.279v-11.508h-13.405v13.856h-3.408v-10.678h-6.135v7.041h-4.544v3.637h-4.317v-3.813H215.91v-5.729h-7.043v-6.311h-13.632
			v9.49h-2.499v6.135h-5.114v-2.123h-4.43v-8.78h-4.544v7.041h-3.635v-4.543h-0.431v-5.226h-7.067v-6.229h-14.312v9.407h-1.567
			v4.328h-8.861v-10.465h-26.861c-3.893,9.035-7.139,18.413-9.68,28.078h5.238V230.639L111.472,230.639z"/>
		
			<linearGradient id="SVGID_4_" gradientUnits="userSpaceOnUse" x1="-311.4429" y1="1337.3066" x2="-311.4429" y2="1117.3011" gradientTransform="matrix(1 0 0 1 792 -1061.999)">
			<stop  offset="0.1" style="stop-color:#7CC8A5"/>
			<stop  offset="1" style="stop-color:#33BCF2"/>
		</linearGradient>
		<path fill="url(#SVGID_4_)" d="M480.608,208.518v9.996h-3.684v-15.899h-8.635v16.682h2.172v11.013h9.98v11.002h12.016v-17.998
			h0.365c-1.848-6.871-4.044-13.599-6.582-20.156v5.363h-5.633V208.518z"/>
		
			<linearGradient id="SVGID_5_" gradientUnits="userSpaceOnUse" x1="-311.4429" y1="1337.7607" x2="-311.4429" y2="1117.2991" gradientTransform="matrix(1 0 0 1 792 -1061.999)">
			<stop  offset="0" style="stop-color:#74CCC5"/>
			<stop  offset="1" style="stop-color:#7DCCA9"/>
		</linearGradient>
		<path fill="url(#SVGID_5_)" d="M480.608,208.518v9.996h-3.684v-15.899h-8.635v16.682h2.172v11.013h9.98v11.002h12.016v-17.998
			h0.365c-1.848-6.871-4.044-13.599-6.582-20.156v5.363h-5.633V208.518z"/>
		
			<linearGradient id="SVGID_6_" gradientUnits="userSpaceOnUse" x1="-374.02" y1="1337.3047" x2="-374.02" y2="1117.3047" gradientTransform="matrix(1 0 0 1 792 -1061.999)">
			<stop  offset="0.1" style="stop-color:#7CC8A5"/>
			<stop  offset="1" style="stop-color:#33BCF2"/>
		</linearGradient>
		<polygon fill="url(#SVGID_6_)" points="411.707,223.311 412.975,223.311 412.975,236.135 415.229,236.135 415.229,226.746 
			424.993,226.746 424.993,236.364 428.292,236.364 428.292,209.473 431.667,209.473 431.667,200.141 404.292,200.141 
			404.292,208.516 411.707,208.516 		"/>
		
			<linearGradient id="SVGID_7_" gradientUnits="userSpaceOnUse" x1="21.98" y1="766.7109" x2="21.98" y2="569.5723" gradientTransform="matrix(1 0 0 1 396 -490.999)">
			<stop  offset="0" style="stop-color:#74CCC5"/>
			<stop  offset="1" style="stop-color:#7DCCA9"/>
		</linearGradient>
		<polygon fill="url(#SVGID_7_)" points="411.707,223.311 412.975,223.311 412.975,236.135 415.229,236.135 415.229,226.746 
			424.993,226.746 424.993,236.364 428.292,236.364 428.292,209.473 431.667,209.473 431.667,200.141 404.292,200.141 
			404.292,208.516 411.707,208.516 		"/>
		
			<linearGradient id="SVGID_8_" gradientUnits="userSpaceOnUse" x1="-384" y1="1337.3027" x2="-384" y2="1117.3027" gradientTransform="matrix(1 0 0 1 792 -1061.999)">
			<stop  offset="0.1" style="stop-color:#7CC8A5"/>
			<stop  offset="1" style="stop-color:#33BCF2"/>
		</linearGradient>
		<rect x="404.292" y="208.516" fill="url(#SVGID_8_)" width="7.415" height="14.795"/>
		
			<linearGradient id="SVGID_9_" gradientUnits="userSpaceOnUse" x1="-384" y1="1337.7568" x2="-384" y2="1117.3007" gradientTransform="matrix(1 0 0 1 792 -1061.999)">
			<stop  offset="0" style="stop-color:#74CCC5"/>
			<stop  offset="1" style="stop-color:#7DCCA9"/>
		</linearGradient>
		<rect x="404.292" y="208.516" fill="url(#SVGID_9_)" width="7.415" height="14.795"/>
		
			<linearGradient id="SVGID_10_" gradientUnits="userSpaceOnUse" x1="12" y1="766.709" x2="12" y2="569.5704" gradientTransform="matrix(1 0 0 1 396 -490.999)">
			<stop  offset="0" style="stop-color:#74CCC5"/>
			<stop  offset="1" style="stop-color:#7DCCA9"/>
		</linearGradient>
		<rect x="404.292" y="208.516" fill="url(#SVGID_10_)" width="7.415" height="14.795"/>
		
			<linearGradient id="SVGID_11_" gradientUnits="userSpaceOnUse" x1="-354.3535" y1="1337.3027" x2="-354.3535" y2="1117.3027" gradientTransform="matrix(1 0 0 1 792 -1061.999)">
			<stop  offset="0.1" style="stop-color:#7CC8A5"/>
			<stop  offset="1" style="stop-color:#33BCF2"/>
		</linearGradient>
		<polygon fill="url(#SVGID_11_)" points="434.528,236.364 434.528,240.256 440.407,240.256 440.407,230.182 443.625,230.182 
			443.625,209.473 431.667,209.473 431.667,236.364 		"/>
		
			<linearGradient id="SVGID_12_" gradientUnits="userSpaceOnUse" x1="41.6465" y1="766.6611" x2="41.6465" y2="593.9948" gradientTransform="matrix(1 0 0 1 396 -490.999)">
			<stop  offset="0" style="stop-color:#74CCC5"/>
			<stop  offset="1" style="stop-color:#7DCCA9"/>
		</linearGradient>
		<polygon fill="url(#SVGID_12_)" points="434.528,236.364 434.528,240.256 440.407,240.256 440.407,230.182 443.625,230.182 
			443.625,209.473 431.667,209.473 431.667,236.364 		"/>
		
			<linearGradient id="SVGID_13_" gradientUnits="userSpaceOnUse" x1="-362.02" y1="1337.3076" x2="-362.02" y2="1117.2916" gradientTransform="matrix(1 0 0 1 792 -1061.999)">
			<stop  offset="0.1" style="stop-color:#7CC8A5"/>
			<stop  offset="1" style="stop-color:#33BCF2"/>
		</linearGradient>
		<rect x="428.292" y="209.473" fill="url(#SVGID_13_)" width="3.375" height="26.892"/>
		
			<linearGradient id="SVGID_14_" gradientUnits="userSpaceOnUse" x1="33.98" y1="766.7139" x2="33.98" y2="569.5609" gradientTransform="matrix(1 0 0 1 396 -490.999)">
			<stop  offset="0" style="stop-color:#74CCC5"/>
			<stop  offset="1" style="stop-color:#7DCCA9"/>
		</linearGradient>
		<rect x="428.292" y="209.473" fill="url(#SVGID_14_)" width="3.375" height="26.892"/>
		
			<linearGradient id="SVGID_15_" gradientUnits="userSpaceOnUse" x1="33.98" y1="766.6621" x2="33.98" y2="593.9886" gradientTransform="matrix(1 0 0 1 396 -490.999)">
			<stop  offset="0" style="stop-color:#74CCC5"/>
			<stop  offset="1" style="stop-color:#7DCCA9"/>
		</linearGradient>
		<rect x="428.292" y="209.473" fill="url(#SVGID_15_)" width="3.375" height="26.892"/>
		
			<linearGradient id="SVGID_16_" gradientUnits="userSpaceOnUse" x1="-336.041" y1="1337.2969" x2="-336.041" y2="1117.3171" gradientTransform="matrix(1 0 0 1 792 -1061.999)">
			<stop  offset="0.1" style="stop-color:#7CC8A5"/>
			<stop  offset="1" style="stop-color:#33BCF2"/>
		</linearGradient>
		<polygon fill="url(#SVGID_16_)" points="451.625,219.293 460.116,219.293 460.116,218.514 467.613,218.514 467.613,202.614 
			468.292,202.614 468.292,198.141 443.625,198.141 443.625,209.473 451.625,209.473 		"/>
		
			<linearGradient id="SVGID_17_" gradientUnits="userSpaceOnUse" x1="59.959" y1="766.7197" x2="59.959" y2="564.345" gradientTransform="matrix(1 0 0 1 396 -490.999)">
			<stop  offset="0" style="stop-color:#74CCC5"/>
			<stop  offset="1" style="stop-color:#7DCCA9"/>
		</linearGradient>
		<polygon fill="url(#SVGID_17_)" points="451.625,219.293 460.116,219.293 460.116,218.514 467.613,218.514 467.613,202.614 
			468.292,202.614 468.292,198.141 443.625,198.141 443.625,209.473 451.625,209.473 		"/>
		
			<linearGradient id="SVGID_18_" gradientUnits="userSpaceOnUse" x1="-327.7954" y1="1337.2969" x2="-327.7954" y2="1117.3226" gradientTransform="matrix(1 0 0 1 792 -1061.999)">
			<stop  offset="0.1" style="stop-color:#7CC8A5"/>
			<stop  offset="1" style="stop-color:#33BCF2"/>
		</linearGradient>
		<polygon fill="url(#SVGID_18_)" points="467.613,202.614 467.613,218.514 460.116,218.514 460.116,219.293 468.292,219.293 
			468.292,202.614 		"/>
		
			<linearGradient id="SVGID_19_" gradientUnits="userSpaceOnUse" x1="-327.7954" y1="1337.751" x2="-327.7954" y2="1117.3206" gradientTransform="matrix(1 0 0 1 792 -1061.999)">
			<stop  offset="0" style="stop-color:#74CCC5"/>
			<stop  offset="1" style="stop-color:#7DCCA9"/>
		</linearGradient>
		<polygon fill="url(#SVGID_19_)" points="467.613,202.614 467.613,218.514 460.116,218.514 460.116,219.293 468.292,219.293 
			468.292,202.614 		"/>
		
			<linearGradient id="SVGID_20_" gradientUnits="userSpaceOnUse" x1="68.2046" y1="766.7188" x2="68.2046" y2="564.3464" gradientTransform="matrix(1 0 0 1 396 -490.999)">
			<stop  offset="0" style="stop-color:#74CCC5"/>
			<stop  offset="1" style="stop-color:#7DCCA9"/>
		</linearGradient>
		<polygon fill="url(#SVGID_20_)" points="467.613,202.614 467.613,218.514 460.116,218.514 460.116,219.293 468.292,219.293 
			468.292,202.614 		"/>
		
			<linearGradient id="SVGID_21_" gradientUnits="userSpaceOnUse" x1="-344.3745" y1="1337.3096" x2="-344.3745" y2="1117.2888" gradientTransform="matrix(1 0 0 1 792 -1061.999)">
			<stop  offset="0.1" style="stop-color:#7CC8A5"/>
			<stop  offset="1" style="stop-color:#33BCF2"/>
		</linearGradient>
		<polygon fill="url(#SVGID_21_)" points="448.474,230.182 448.474,219.293 451.625,219.293 451.625,209.473 443.625,209.473 
			443.625,230.182 		"/>
		
			<linearGradient id="SVGID_22_" gradientUnits="userSpaceOnUse" x1="51.6255" y1="766.6641" x2="51.6255" y2="593.9869" gradientTransform="matrix(1 0 0 1 396 -490.999)">
			<stop  offset="0" style="stop-color:#74CCC5"/>
			<stop  offset="1" style="stop-color:#7DCCA9"/>
		</linearGradient>
		<polygon fill="url(#SVGID_22_)" points="448.474,230.182 448.474,219.293 451.625,219.293 451.625,209.473 443.625,209.473 
			443.625,230.182 		"/>
		
			<linearGradient id="SVGID_23_" gradientUnits="userSpaceOnUse" x1="51.6255" y1="766.7266" x2="51.6255" y2="564.3234" gradientTransform="matrix(1 0 0 1 396 -490.999)">
			<stop  offset="0" style="stop-color:#74CCC5"/>
			<stop  offset="1" style="stop-color:#7DCCA9"/>
		</linearGradient>
		<polygon fill="url(#SVGID_23_)" points="448.474,230.182 448.474,219.293 451.625,219.293 451.625,209.473 443.625,209.473 
			443.625,230.182 		"/>
		
			<linearGradient id="SVGID_24_" gradientUnits="userSpaceOnUse" x1="-540.021" y1="1337.3057" x2="-540.021" y2="1117.3093" gradientTransform="matrix(1 0 0 1 792 -1061.999)">
			<stop  offset="0.1" style="stop-color:#7CC8A5"/>
			<stop  offset="1" style="stop-color:#33BCF2"/>
		</linearGradient>
		<path fill="url(#SVGID_24_)" d="M105.742,275.307h2.727h4.317h2.727h21.445h3.547h2.272h10.428h5.307h6.735h0.251h2.021h6.362
			h1.136h3.635h2.499h0.682h1.363h9.542h2.499h1.818h6.589h1.802h0.697h2.727h4.317h2.727h3.546h21.446h2.272h4.14h21.357h13.578
			h32.797h17.62h11.986h0.024h59.609v-51.996h-6.983v18.092h-15.894v8.242h-3.947v-30.352H347.45v10.889h-9.855v6.119h-4.135v-8.992
			h-14.01v8.992h-6.988v-6.006h-48.014v10.014H251.46v-5.019h-10.99v-12.974h-17.013V233.3h-3.997v14.998h-8.009v-5.983h-6.005
			v-15.008h-19.203v-9.951h-22.25v24.729h-5.481v-11.446h-7.554v-10.498h-19l0.333,10.498h-20.819v-6.316h-5.238
			c-4.279,16.277-6.567,33.363-6.567,50.984h3.577H105.742L105.742,275.307z"/>
		
			<linearGradient id="SVGID_25_" gradientUnits="userSpaceOnUse" x1="-540.021" y1="1337.7588" x2="-540.021" y2="1117.3063" gradientTransform="matrix(1 0 0 1 792 -1061.999)">
			<stop  offset="0" style="stop-color:#74CCC5"/>
			<stop  offset="1" style="stop-color:#7DCCA9"/>
		</linearGradient>
		<path fill="url(#SVGID_25_)" d="M105.742,275.307h2.727h4.317h2.727h21.445h3.547h2.272h10.428h5.307h6.735h0.251h2.021h6.362
			h1.136h3.635h2.499h0.682h1.363h9.542h2.499h1.818h6.589h1.802h0.697h2.727h4.317h2.727h3.546h21.446h2.272h4.14h21.357h13.578
			h32.797h17.62h11.986h0.024h59.609v-51.996h-6.983v18.092h-15.894v8.242h-3.947v-30.352H347.45v10.889h-9.855v6.119h-4.135v-8.992
			h-14.01v8.992h-6.988v-6.006h-48.014v10.014H251.46v-5.019h-10.99v-12.974h-17.013V233.3h-3.997v14.998h-8.009v-5.983h-6.005
			v-15.008h-19.203v-9.951h-22.25v24.729h-5.481v-11.446h-7.554v-10.498h-19l0.333,10.498h-20.819v-6.316h-5.238
			c-4.279,16.277-6.567,33.363-6.567,50.984h3.577H105.742L105.742,275.307z"/>
		
			<linearGradient id="SVGID_26_" gradientUnits="userSpaceOnUse" x1="-308.0205" y1="1337.3057" x2="-308.0205" y2="1117.298" gradientTransform="matrix(1 0 0 1 792 -1061.999)">
			<stop  offset="0.1" style="stop-color:#7CC8A5"/>
			<stop  offset="1" style="stop-color:#33BCF2"/>
		</linearGradient>
		<path fill="url(#SVGID_26_)" d="M492.46,223.311v17.998h-12.016v-11.002h-9.98v-11.014h-2.172v56.014h13.179h13.405h0.172h4.618
			c0-17.988-2.389-35.414-6.841-51.996H492.46z"/>
		
			<linearGradient id="SVGID_27_" gradientUnits="userSpaceOnUse" x1="-308.0205" y1="1337.7588" x2="-308.0205" y2="1117.2949" gradientTransform="matrix(1 0 0 1 792 -1061.999)">
			<stop  offset="0" style="stop-color:#74CCC5"/>
			<stop  offset="1" style="stop-color:#7DCCA9"/>
		</linearGradient>
		<path fill="url(#SVGID_27_)" d="M492.46,223.311v17.998h-12.016v-11.002h-9.98v-11.014h-2.172v56.014h13.179h13.405h0.172h4.618
			c0-17.988-2.389-35.414-6.841-51.996H492.46z"/>
		
			<linearGradient id="SVGID_28_" gradientUnits="userSpaceOnUse" x1="-372" y1="1337.3057" x2="-372" y2="1117.2974" gradientTransform="matrix(1 0 0 1 792 -1061.999)">
			<stop  offset="0.1" style="stop-color:#7CC8A5"/>
			<stop  offset="1" style="stop-color:#33BCF2"/>
		</linearGradient>
		<polygon fill="url(#SVGID_28_)" points="424.993,236.364 424.993,226.746 415.229,226.746 415.229,236.135 412.975,236.135 
			412.975,223.311 411.707,223.311 411.707,275.307 428.292,275.307 428.292,236.364 		"/>
		
			<linearGradient id="SVGID_29_" gradientUnits="userSpaceOnUse" x1="24" y1="766.7119" x2="24" y2="569.5658" gradientTransform="matrix(1 0 0 1 396 -490.999)">
			<stop  offset="0" style="stop-color:#74CCC5"/>
			<stop  offset="1" style="stop-color:#7DCCA9"/>
		</linearGradient>
		<polygon fill="url(#SVGID_29_)" points="424.993,236.364 424.993,226.746 415.229,226.746 415.229,236.135 412.975,236.135 
			412.975,223.311 411.707,223.311 411.707,275.307 428.292,275.307 428.292,236.364 		"/>
		
			<linearGradient id="SVGID_30_" gradientUnits="userSpaceOnUse" x1="-384" y1="1337.3057" x2="-384" y2="1117.2974" gradientTransform="matrix(1 0 0 1 792 -1061.999)">
			<stop  offset="0.1" style="stop-color:#7CC8A5"/>
			<stop  offset="1" style="stop-color:#33BCF2"/>
		</linearGradient>
		<rect x="404.292" y="223.311" fill="url(#SVGID_30_)" width="7.415" height="51.996"/>
		
			<linearGradient id="SVGID_31_" gradientUnits="userSpaceOnUse" x1="-384" y1="1337.7588" x2="-384" y2="1117.2943" gradientTransform="matrix(1 0 0 1 792 -1061.999)">
			<stop  offset="0" style="stop-color:#74CCC5"/>
			<stop  offset="1" style="stop-color:#7DCCA9"/>
		</linearGradient>
		<rect x="404.292" y="223.311" fill="url(#SVGID_31_)" width="7.415" height="51.996"/>
		
			<linearGradient id="SVGID_32_" gradientUnits="userSpaceOnUse" x1="12" y1="766.7119" x2="12" y2="569.5658" gradientTransform="matrix(1 0 0 1 396 -490.999)">
			<stop  offset="0" style="stop-color:#74CCC5"/>
			<stop  offset="1" style="stop-color:#7DCCA9"/>
		</linearGradient>
		<rect x="404.292" y="223.311" fill="url(#SVGID_32_)" width="7.415" height="51.996"/>
		
			<linearGradient id="SVGID_33_" gradientUnits="userSpaceOnUse" x1="-354.3535" y1="1337.3057" x2="-354.3535" y2="1117.3057" gradientTransform="matrix(1 0 0 1 792 -1061.999)">
			<stop  offset="0.1" style="stop-color:#7CC8A5"/>
			<stop  offset="1" style="stop-color:#33BCF2"/>
		</linearGradient>
		<polygon fill="url(#SVGID_33_)" points="440.407,230.182 440.407,240.256 434.528,240.256 434.528,236.364 431.667,236.364 
			431.667,275.307 443.625,275.307 443.625,230.182 		"/>
		
			<linearGradient id="SVGID_34_" gradientUnits="userSpaceOnUse" x1="41.6465" y1="766.6602" x2="41.6465" y2="593.9993" gradientTransform="matrix(1 0 0 1 396 -490.999)">
			<stop  offset="0" style="stop-color:#74CCC5"/>
			<stop  offset="1" style="stop-color:#7DCCA9"/>
		</linearGradient>
		<polygon fill="url(#SVGID_34_)" points="440.407,230.182 440.407,240.256 434.528,240.256 434.528,236.364 431.667,236.364 
			431.667,275.307 443.625,275.307 443.625,230.182 		"/>
		
			<linearGradient id="SVGID_35_" gradientUnits="userSpaceOnUse" x1="-362.02" y1="1337.3057" x2="-362.02" y2="1117.3057" gradientTransform="matrix(1 0 0 1 792 -1061.999)">
			<stop  offset="0.1" style="stop-color:#7CC8A5"/>
			<stop  offset="1" style="stop-color:#33BCF2"/>
		</linearGradient>
		<rect x="428.292" y="236.364" fill="url(#SVGID_35_)" width="3.375" height="38.942"/>
		
			<linearGradient id="SVGID_36_" gradientUnits="userSpaceOnUse" x1="33.98" y1="766.7119" x2="33.98" y2="569.5732" gradientTransform="matrix(1 0 0 1 396 -490.999)">
			<stop  offset="0" style="stop-color:#74CCC5"/>
			<stop  offset="1" style="stop-color:#7DCCA9"/>
		</linearGradient>
		<rect x="428.292" y="236.364" fill="url(#SVGID_36_)" width="3.375" height="38.942"/>
		
			<linearGradient id="SVGID_37_" gradientUnits="userSpaceOnUse" x1="33.98" y1="766.6602" x2="33.98" y2="593.9993" gradientTransform="matrix(1 0 0 1 396 -490.999)">
			<stop  offset="0" style="stop-color:#74CCC5"/>
			<stop  offset="1" style="stop-color:#7DCCA9"/>
		</linearGradient>
		<rect x="428.292" y="236.364" fill="url(#SVGID_37_)" width="3.375" height="38.942"/>
		
			<linearGradient id="SVGID_38_" gradientUnits="userSpaceOnUse" x1="-336.1289" y1="1337.3057" x2="-336.1289" y2="1117.298" gradientTransform="matrix(1 0 0 1 792 -1061.999)">
			<stop  offset="0.1" style="stop-color:#7CC8A5"/>
			<stop  offset="1" style="stop-color:#33BCF2"/>
		</linearGradient>
		<rect x="451.625" y="219.293" fill="url(#SVGID_38_)" width="8.491" height="56.014"/>
		
			<linearGradient id="SVGID_39_" gradientUnits="userSpaceOnUse" x1="59.8711" y1="766.7217" x2="59.8711" y2="564.334" gradientTransform="matrix(1 0 0 1 396 -490.999)">
			<stop  offset="0" style="stop-color:#74CCC5"/>
			<stop  offset="1" style="stop-color:#7DCCA9"/>
		</linearGradient>
		<rect x="451.625" y="219.293" fill="url(#SVGID_39_)" width="8.491" height="56.014"/>
		
			<linearGradient id="SVGID_40_" gradientUnits="userSpaceOnUse" x1="-327.7954" y1="1337.3057" x2="-327.7954" y2="1117.298" gradientTransform="matrix(1 0 0 1 792 -1061.999)">
			<stop  offset="0.1" style="stop-color:#7CC8A5"/>
			<stop  offset="1" style="stop-color:#33BCF2"/>
		</linearGradient>
		<rect x="460.116" y="219.293" fill="url(#SVGID_40_)" width="8.176" height="56.014"/>
		
			<linearGradient id="SVGID_41_" gradientUnits="userSpaceOnUse" x1="-327.7954" y1="1337.7588" x2="-327.7954" y2="1117.2949" gradientTransform="matrix(1 0 0 1 792 -1061.999)">
			<stop  offset="0" style="stop-color:#74CCC5"/>
			<stop  offset="1" style="stop-color:#7DCCA9"/>
		</linearGradient>
		<rect x="460.116" y="219.293" fill="url(#SVGID_41_)" width="8.176" height="56.014"/>
		
			<linearGradient id="SVGID_42_" gradientUnits="userSpaceOnUse" x1="68.2046" y1="766.7217" x2="68.2046" y2="564.334" gradientTransform="matrix(1 0 0 1 396 -490.999)">
			<stop  offset="0" style="stop-color:#74CCC5"/>
			<stop  offset="1" style="stop-color:#7DCCA9"/>
		</linearGradient>
		<rect x="460.116" y="219.293" fill="url(#SVGID_42_)" width="8.176" height="56.014"/>
		
			<linearGradient id="SVGID_43_" gradientUnits="userSpaceOnUse" x1="-344.3745" y1="1337.3057" x2="-344.3745" y2="1117.298" gradientTransform="matrix(1 0 0 1 792 -1061.999)">
			<stop  offset="0.1" style="stop-color:#7CC8A5"/>
			<stop  offset="1" style="stop-color:#33BCF2"/>
		</linearGradient>
		<polygon fill="url(#SVGID_43_)" points="448.474,219.293 448.474,230.182 443.625,230.182 443.625,275.307 451.625,275.307 
			451.625,219.293 		"/>
		
			<linearGradient id="SVGID_44_" gradientUnits="userSpaceOnUse" x1="51.6255" y1="766.6602" x2="51.6255" y2="593.9963" gradientTransform="matrix(1 0 0 1 396 -490.999)">
			<stop  offset="0" style="stop-color:#74CCC5"/>
			<stop  offset="1" style="stop-color:#7DCCA9"/>
		</linearGradient>
		<polygon fill="url(#SVGID_44_)" points="448.474,219.293 448.474,230.182 443.625,230.182 443.625,275.307 451.625,275.307 
			451.625,219.293 		"/>
		
			<linearGradient id="SVGID_45_" gradientUnits="userSpaceOnUse" x1="51.6255" y1="766.7217" x2="51.6255" y2="564.334" gradientTransform="matrix(1 0 0 1 396 -490.999)">
			<stop  offset="0" style="stop-color:#74CCC5"/>
			<stop  offset="1" style="stop-color:#7DCCA9"/>
		</linearGradient>
		<polygon fill="url(#SVGID_45_)" points="448.474,219.293 448.474,230.182 443.625,230.182 443.625,275.307 451.625,275.307 
			451.625,219.293 		"/>
		
			<linearGradient id="SVGID_46_" gradientUnits="userSpaceOnUse" x1="-96.3335" y1="766.3057" x2="-96.3336" y2="538.6387" gradientTransform="matrix(1 0 0 1 396 -490.999)">
			<stop  offset="0" style="stop-color:#91D5C5"/>
			<stop  offset="1" style="stop-color:#7ECCAA"/>
		</linearGradient>
		<path fill="url(#SVGID_46_)" d="M492.825,223.311h-0.365v17.998h-12.016v-11.002h-9.98v-11.014h-2.172h-1.334h-6.842h-2.49h-6.001
			h-0.917h-2.234v10.889h-4.849h-0.917h-2.301v10.074h-5.879v-3.895h-2.861h-0.709h-2.666h-0.834h-2.465v-9.616h-9.767v9.39h-2.254
			v-12.824h-1.268h-0.999h-6.416h-1.333h-5.649v18.092h-15.894v8.242h-3.947v-30.352h-30.016v10.889h-9.854v6.119h-4.136v-8.992
			H319.45v8.992h-6.988v-6.006h-48.015v10.014H251.46v-5.019h-10.99v-12.974h-17.013V233.3h-3.997v14.998h-8.009v-5.983h-6.005
			v-15.008h-19.203v-9.951h-22.25v24.729h-5.481v-11.446h-7.554v-10.498h-19l0.333,10.498h-20.819v-6.316h-5.238
			c-4.279,16.277-6.567,33.363-6.567,50.984h3.577h2.499h2.727h4.317h2.727h21.444h3.547h2.272h10.428h5.307h6.735h0.251h2.021
			h6.362h1.136h3.635h2.499h0.682h1.363h9.542h2.499h1.818h6.589h1.802h0.697h2.727h4.317h2.727h3.546h21.446h2.271h4.14h21.357
			h13.578h32.797h17.62h11.986h0.024h58.276h1.334h6.416h0.999h15.751h0.834h2.666h0.709h11.041h0.917h7.083h0.917h6.001h2.49h6.842
			h1.334h13.179h13.405h0.172h4.618C499.666,257.318,497.277,239.893,492.825,223.311z"/>
		<path fill="#FFFFFF" d="M408.435,149.19c-0.226-0.034-0.445-0.076-0.665-0.127C407.987,149.116,408.209,149.157,408.435,149.19z"
			/>
		<path fill="#FFFFFF" d="M404.05,147.057c-0.162-0.152-0.314-0.312-0.465-0.476C403.733,146.745,403.888,146.905,404.05,147.057z"
			/>
		<path fill="#FFFFFF" d="M404.778,147.666c-0.179-0.131-0.351-0.269-0.517-0.415C404.43,147.396,404.604,147.535,404.778,147.666z"
			/>
		<path opacity="0.8" fill="#D9E0E2" enable-background="new    " d="M422.086,124.504c-5.473,0-10.109,3.54-11.762,8.448
			c-0.216-0.018-0.437-0.033-0.653-0.033c-4.529,0-8.201,3.665-8.201,8.187c0,1.69,0.516,3.261,1.395,4.565
			c5.377-1.775,9.845-5.541,12.521-10.429c1.531,1.487,2.485,3.563,2.485,5.864c0,0.036-0.005,0.07-0.006,0.106
			c5.9-2.458,10.521-7.38,12.547-13.488c2.505,2.267,4.088,5.532,4.088,9.174c0,2.1-0.536,4.069-1.461,5.8h1.438
			c3.553-1.293,6.677-3.465,9.116-6.248c-4.246-4.4-8.687-8.61-13.315-12.606c-0.873,0.61-1.685,1.307-2.396,2.095
			C426.146,125.025,424.179,124.504,422.086,124.504z"/>
		<path fill="#FFFFFF" d="M406.589,148.69c-0.57-0.231-1.105-0.524-1.604-0.872C405.48,148.167,406.02,148.459,406.589,148.69z"/>
		<path fill="#FFFFFF" d="M407.474,148.988c-0.219-0.062-0.432-0.131-0.643-0.208C407.042,148.856,407.255,148.928,407.474,148.988z
			"/>
		<path fill="#FFFFFF" d="M409.671,149.294c-0.326,0-0.646-0.024-0.963-0.062C409.024,149.27,409.345,149.294,409.671,149.294
			h42.601c0.839,0,1.646-0.127,2.406-0.36h-0.001c-0.761,0.233-1.566,0.36-2.405,0.36H409.671z"/>
		<path fill="#FFFFFF" d="M403.418,146.396c-0.197-0.231-0.384-0.472-0.555-0.725C403.034,145.926,403.221,146.165,403.418,146.396z
			"/>
		<path opacity="0.8" fill="#C7D1D3" enable-background="new    " d="M434.476,142.698h-1.438c0.925-1.731,1.461-3.7,1.461-5.8
			c0-3.642-1.583-6.907-4.088-9.174c-2.026,6.108-6.646,11.03-12.547,13.488c0.001-0.036,0.006-0.07,0.006-0.106
			c0-2.301-0.954-4.377-2.485-5.864c-2.678,4.888-7.146,8.654-12.521,10.429l0,0l0.001,0.001c0.171,0.252,0.355,0.493,0.555,0.725
			c0.054,0.063,0.111,0.122,0.167,0.184c0.148,0.165,0.303,0.324,0.465,0.476c0.07,0.066,0.144,0.131,0.214,0.195
			c0.166,0.146,0.338,0.283,0.517,0.415c0.066,0.051,0.135,0.104,0.205,0.153c0.498,0.348,1.034,0.641,1.604,0.872
			c0.08,0.032,0.161,0.059,0.242,0.088c0.211,0.078,0.424,0.147,0.643,0.208c0.1,0.027,0.195,0.052,0.296,0.076
			c0.22,0.052,0.439,0.093,0.666,0.127c0.092,0.014,0.182,0.031,0.272,0.042c0.316,0.037,0.637,0.061,0.963,0.061h42.602
			c0.838,0,1.646-0.127,2.404-0.36c-3.521-4.315-7.221-8.479-11.085-12.484C441.15,139.232,438.026,141.405,434.476,142.698z"/>
		<path fill="#FFFFFF" d="M203.25,139.283c0.046,0.202,0.082,0.409,0.112,0.617C203.332,139.691,203.297,139.484,203.25,139.283z"/>
		<path fill="#FFFFFF" d="M202.989,138.388c0.071,0.2,0.132,0.403,0.188,0.61C203.122,138.791,203.06,138.588,202.989,138.388z"/>
		<path fill="#FFFFFF" d="M202.607,137.482c0.109,0.219,0.208,0.444,0.298,0.674C202.815,137.927,202.716,137.703,202.607,137.482z"
			/>
		<path opacity="0.8" fill="#D9E0E2" enable-background="new    " d="M165.673,137.004c0-0.003,0.001-0.005,0.002-0.008
			c0.03,0.034,0.057,0.072,0.087,0.106c0.188,0.215,0.368,0.436,0.543,0.662c0.03,0.039,0.063,0.075,0.093,0.114
			c3.209-2.629,5.672-6.131,7.006-10.154c2.505,2.268,4.088,5.533,4.088,9.175c0,2.099-0.536,4.068-1.46,5.799h1.439
			c7.261-2.646,12.756-8.949,14.212-16.694c-2.561-2.869-6.279-4.684-10.433-4.684c-4.123,0-7.818,1.789-10.382,4.619
			c-0.92-0.486-1.912-0.851-2.95-1.096c-2.971,2.604-5.863,5.295-8.675,8.068C161.759,133.661,163.971,135.098,165.673,137.004z"/>
		<path opacity="0.8" fill="#D9E0E2" enable-background="new    " d="M193.438,142.19c3.01-1.72,5.402-4.393,6.752-7.617
			c0.981,0.739,1.791,1.693,2.36,2.791c-1.362-2.639-4.111-4.447-7.29-4.447c-0.071,0-0.141,0.009-0.212,0.011
			c0.134,0.773,0.213,1.566,0.213,2.379C195.261,137.813,194.593,140.158,193.438,142.19z"/>
		<path fill="#FFFFFF" d="M203.407,140.188c0.03,0.269,0.046,0.542,0.05,0.819C203.454,140.73,203.437,140.458,203.407,140.188z"/>
		<path fill="#FFFFFF" d="M192.565,127.093c0.146,0.199,0.282,0.404,0.417,0.61C192.848,127.496,192.71,127.291,192.565,127.093z"/>
		<path fill="#FFFFFF" d="M191.768,126.097c0.191,0.218,0.374,0.444,0.552,0.673C192.142,126.54,191.959,126.314,191.768,126.097z"
			/>
		<path fill="#FFFFFF" d="M194.396,130.505c0.015,0.041,0.027,0.082,0.042,0.122C194.423,130.587,194.41,130.546,194.396,130.505z"
			/>
		<path fill="#FFFFFF" d="M193.892,129.312c0.051,0.106,0.095,0.215,0.144,0.322C193.987,129.526,193.942,129.417,193.892,129.312z"
			/>
		<path fill="#FFFFFF" d="M193.278,128.169c0.096,0.161,0.184,0.326,0.274,0.49C193.463,128.495,193.374,128.329,193.278,128.169z"
			/>
		<path opacity="0.8" fill="#C7D1D3" enable-background="new    " d="M177.471,142.698h-1.439c0.924-1.731,1.46-3.7,1.46-5.799
			c0-3.642-1.583-6.907-4.088-9.175c-1.334,4.022-3.797,7.525-7.006,10.154c0.055,0.072,0.107,0.146,0.161,0.219
			c0.142,0.195,0.276,0.396,0.408,0.599c0.104,0.158,0.207,0.315,0.304,0.479c0.093,0.156,0.179,0.316,0.266,0.476
			c0.121,0.22,0.238,0.44,0.347,0.667c0.048,0.101,0.091,0.204,0.137,0.306c0.131,0.292,0.255,0.586,0.367,0.888
			c0.013,0.034,0.023,0.069,0.035,0.104c0.269,0.746,0.478,1.518,0.615,2.316c0.071-0.002,0.141-0.011,0.212-0.011
			c3.177,0,5.926,1.806,7.288,4.441c0.023,0.043,0.042,0.089,0.064,0.133c0.106,0.215,0.203,0.434,0.291,0.658
			c0.019,0.048,0.04,0.094,0.058,0.143h18.311h0.001c4.529,0,8.201-3.665,8.201-8.188c0-0.033-0.005-0.065-0.006-0.098
			c-0.003-0.276-0.02-0.55-0.05-0.819c-0.011-0.098-0.03-0.192-0.044-0.289c-0.031-0.208-0.066-0.415-0.112-0.617
			c-0.022-0.096-0.048-0.19-0.073-0.285c-0.056-0.207-0.117-0.41-0.188-0.61c-0.027-0.077-0.055-0.154-0.084-0.229
			c-0.09-0.23-0.188-0.455-0.298-0.674c-0.02-0.04-0.037-0.08-0.057-0.119c-0.569-1.098-1.379-2.051-2.36-2.791
			c-1.35,3.224-3.742,5.896-6.752,7.617c1.155-2.033,1.823-4.378,1.823-6.883c0-0.813-0.079-1.605-0.213-2.379
			c-0.137-0.793-0.345-1.561-0.611-2.302c-0.015-0.04-0.027-0.082-0.042-0.122c-0.109-0.296-0.232-0.585-0.36-0.871
			c-0.048-0.107-0.093-0.216-0.144-0.322c-0.106-0.222-0.222-0.438-0.339-0.653c-0.09-0.165-0.178-0.33-0.274-0.49
			c-0.095-0.158-0.195-0.312-0.296-0.466c-0.135-0.207-0.271-0.412-0.417-0.61c-0.08-0.109-0.163-0.215-0.246-0.322
			c-0.178-0.229-0.36-0.455-0.552-0.673c-0.029-0.033-0.054-0.068-0.083-0.101c0,0.002-0.001,0.005-0.002,0.008
			C190.227,133.749,184.732,140.053,177.471,142.698z"/>
		<path fill="#EDF9FC" d="M177.242,150.287c0.045,0.198,0.079,0.398,0.11,0.604C177.321,150.688,177.287,150.485,177.242,150.287z"
			/>
		<path fill="#EDF9FC" d="M177.398,151.191c0.03,0.267,0.045,0.535,0.049,0.81C177.443,151.727,177.428,151.458,177.398,151.191z"/>
		<path fill="#EDF9FC" d="M175.58,157.314c-1.504,1.818-3.78,2.979-6.328,2.979h-33.216l-0.001,0.002h33.216
			C171.799,160.295,174.076,159.135,175.58,157.314z"/>
		<path fill="#EDF9FC" d="M176.982,149.396c0.069,0.195,0.129,0.394,0.184,0.596C177.112,149.79,177.051,149.591,176.982,149.396z"
			/>
		<path fill="#EDF9FC" d="M166.305,137.764c-0.175-0.226-0.355-0.447-0.543-0.662C165.95,137.315,166.129,137.538,166.305,137.764z"
			/>
		<path fill="#EDF9FC" d="M176.893,149.152c-0.087-0.225-0.185-0.443-0.291-0.658C176.709,148.708,176.806,148.929,176.893,149.152z
			"/>
		<path fill="#EDF9FC" d="M168.423,141.614c-0.012-0.034-0.022-0.069-0.035-0.104C168.4,141.545,168.411,141.58,168.423,141.614z"/>
		<path fill="#EDF3F4" d="M151.482,147.897c0,2.099-0.536,4.07-1.46,5.8h1.436c7.263-2.646,12.758-8.949,14.215-16.694
			c-1.702-1.906-3.914-3.344-6.43-4.093c-3.12,3.077-6.137,6.256-9.05,9.531C151.01,144.089,151.482,145.935,151.482,147.897z"/>
		<path fill="#EDF3F4" d="M169.25,143.919c-0.071,0-0.141,0.008-0.212,0.011c0.134,0.773,0.213,1.565,0.213,2.377
			c0,2.505-0.668,4.85-1.823,6.882c3.01-1.719,5.402-4.391,6.752-7.614c0.98,0.738,1.789,1.69,2.358,2.787
			C175.176,145.725,172.427,143.919,169.25,143.919z"/>
		<path fill="#EDF9FC" d="M166.967,138.696c-0.132-0.203-0.267-0.403-0.408-0.599C166.701,138.292,166.835,138.494,166.967,138.696z
			"/>
		<path fill="#EDF9FC" d="M168.021,140.624c-0.045-0.103-0.089-0.206-0.137-0.306C167.933,140.417,167.975,140.521,168.021,140.624z
			"/>
		<path fill="#EDF9FC" d="M167.537,139.649c-0.087-0.16-0.173-0.32-0.266-0.476C167.364,139.33,167.45,139.491,167.537,139.649z"/>
		<path opacity="0.8" fill="#D9E0E2" enable-background="new    " d="M175.58,157.314c1.17-1.416,1.874-3.229,1.874-5.209
			c0-0.034-0.006-0.068-0.006-0.104c-0.003-0.273-0.019-0.544-0.049-0.811c-0.011-0.103-0.031-0.2-0.046-0.301
			c-0.031-0.203-0.065-0.407-0.11-0.604c-0.023-0.1-0.05-0.197-0.076-0.296c-0.055-0.202-0.115-0.4-0.184-0.596
			c-0.012-0.033-0.02-0.068-0.032-0.102c-0.018-0.048-0.039-0.094-0.058-0.143c-0.087-0.224-0.184-0.444-0.291-0.658
			c-0.022-0.044-0.042-0.089-0.064-0.133c-0.569-1.096-1.377-2.048-2.358-2.787c-1.35,3.224-3.742,5.896-6.752,7.616
			c1.155-2.035,1.823-4.379,1.823-6.885c0-0.812-0.079-1.604-0.213-2.377c-0.138-0.798-0.347-1.57-0.615-2.316
			c-0.012-0.034-0.022-0.069-0.035-0.103c-0.111-0.302-0.236-0.596-0.367-0.888c-0.046-0.102-0.088-0.206-0.137-0.306
			c-0.109-0.227-0.227-0.448-0.347-0.667c-0.087-0.16-0.173-0.32-0.266-0.476c-0.098-0.163-0.201-0.32-0.304-0.479
			c-0.132-0.202-0.266-0.404-0.408-0.599c-0.054-0.073-0.106-0.147-0.161-0.219c-0.03-0.039-0.063-0.075-0.093-0.114
			c-0.175-0.226-0.354-0.448-0.543-0.662c-0.03-0.034-0.057-0.072-0.087-0.105c0,0.003-0.001,0.005-0.002,0.008
			c-1.457,7.745-6.952,14.049-14.215,16.694h-1.436c0.924-1.73,1.46-3.701,1.46-5.8c0-1.963-0.472-3.809-1.289-5.456
			c-5.045,5.672-9.776,11.629-14.158,17.852h33.216C171.799,160.293,174.076,159.133,175.58,157.314z"/>
	</g>
	
		<linearGradient id="SVGID_47_" gradientUnits="userSpaceOnUse" x1="-490.9185" y1="1337.3047" x2="-490.9185" y2="1117.3062" gradientTransform="matrix(1 0 0 1 792 -1061.999)">
		<stop  offset="0.1" style="stop-color:#7CC8A5"/>
		<stop  offset="1" style="stop-color:#33BCF2"/>
	</linearGradient>
	<path fill="url(#SVGID_47_)" d="M142.775,206.708h8.861v-4.329h1.567v-9.406h14.314v6.229h7.067v5.227h0.431v4.544h3.635v-7.044
		h4.544v8.781h4.43v2.123h5.114v-6.135h2.499v-9.49h13.632v6.312h7.043v5.729h27.264v3.813h4.317v-3.635h4.544v-7.043h6.135v10.678
		h3.408v-13.855h13.405v11.509h17.279v1.215h7.192v-7.612h17.996v9.992h6.839v-6.016h4.258v-9.313h9.09v2.953h7.043v6.588h6.36
		v-17.268h23.629v11.135h5.229v-5.682h17.268h0.001v11.813h7.126v-8.377h27.375v9.334h11.958v-11.334h24.667v4.475h8.635v15.9h3.684
		v-9.996h5.635v-5.363c-7.658-19.79-18.371-38.057-31.565-54.22c-0.762,0.233-1.567,0.36-2.405,0.36h-42.602
		c-0.326,0-0.646-0.024-0.963-0.063c-0.093-0.011-0.183-0.027-0.271-0.042c-0.228-0.034-0.447-0.076-0.666-0.127
		c-0.102-0.023-0.197-0.049-0.297-0.076c-0.219-0.062-0.432-0.131-0.643-0.208c-0.081-0.03-0.162-0.056-0.242-0.088
		c-0.568-0.23-1.105-0.523-1.604-0.872c-0.07-0.049-0.139-0.103-0.205-0.153c-0.178-0.132-0.351-0.269-0.517-0.415
		c-0.07-0.064-0.144-0.128-0.214-0.195c-0.162-0.152-0.314-0.312-0.465-0.476c-0.056-0.062-0.113-0.121-0.167-0.184
		c-0.197-0.232-0.384-0.472-0.555-0.725l-0.001-0.001l0,0c-0.879-1.305-1.395-2.875-1.395-4.565c0-4.522,3.672-8.187,8.201-8.187
		c0.219,0,0.438,0.015,0.653,0.033c1.65-4.908,6.289-8.448,11.762-8.448c2.093,0,4.063,0.521,5.792,1.435
		c0.714-0.788,1.523-1.485,2.396-2.095c-35.043-30.246-80.689-48.538-130.61-48.538c-50.465,0-96.558,18.699-131.748,49.536
		c1.038,0.245,2.03,0.61,2.95,1.096c2.564-2.83,6.259-4.619,10.382-4.619c4.154,0,7.872,1.814,10.433,4.685
		c0-0.002,0.001-0.005,0.002-0.008c0.029,0.033,0.054,0.068,0.083,0.101c0.191,0.218,0.374,0.443,0.552,0.673
		c0.083,0.107,0.166,0.213,0.246,0.322c0.145,0.199,0.282,0.403,0.417,0.61c0.101,0.154,0.201,0.308,0.296,0.466
		c0.096,0.161,0.185,0.326,0.274,0.49c0.118,0.215,0.233,0.431,0.339,0.653c0.05,0.106,0.096,0.215,0.144,0.322
		c0.128,0.286,0.251,0.575,0.36,0.871c0.015,0.041,0.027,0.082,0.042,0.122c0.266,0.741,0.474,1.508,0.611,2.302
		c0.071-0.002,0.141-0.011,0.212-0.011c3.179,0,5.928,1.808,7.29,4.447c0.02,0.039,0.038,0.079,0.057,0.119
		c0.109,0.22,0.208,0.444,0.298,0.674c0.03,0.076,0.057,0.153,0.084,0.23c0.07,0.2,0.133,0.403,0.188,0.61
		c0.025,0.095,0.051,0.188,0.073,0.285c0.046,0.203,0.082,0.409,0.112,0.617c0.015,0.097,0.033,0.191,0.044,0.289
		c0.03,0.27,0.046,0.542,0.05,0.819c0,0.033,0.006,0.065,0.006,0.098c0,4.523-3.672,8.188-8.201,8.188h-0.001H176.95
		c0.012,0.033,0.02,0.068,0.032,0.102c0.068,0.195,0.129,0.394,0.184,0.596c0.026,0.099,0.053,0.196,0.076,0.296
		c0.045,0.198,0.079,0.398,0.11,0.604c0.015,0.101,0.035,0.199,0.046,0.302c0.03,0.266,0.045,0.534,0.049,0.809
		c0,0.035,0.006,0.068,0.006,0.104c0,1.979-0.703,3.795-1.874,5.209c-1.504,1.819-3.781,2.979-6.329,2.979h-33.215
		c-7.881,11.191-14.64,23.229-20.121,35.949h26.861V206.708L142.775,206.708z"/>
	<g id="Cloud_6_">
		<g id="cloud_1_">
			<g>
				<path fill="#FFFFFF" d="M320.771,121.614c-0.072,0-0.146,0.009-0.218,0.011c-1.136-6.598-6.871-11.623-13.797-11.623
					c-4.121,0-7.818,1.791-10.382,4.625c-1.73-0.914-3.699-1.437-5.792-1.437c-5.473,0-10.109,3.544-11.762,8.458
					c-0.216-0.021-0.433-0.033-0.654-0.033c-4.529,0-8.201,3.67-8.201,8.196c0,4.527,3.672,8.197,8.201,8.197h42.603
					c4.526,0,8.2-3.67,8.2-8.197C328.975,125.284,325.302,121.614,320.771,121.614z"/>
			</g>
		</g>
		<g id="dark_2_" opacity="0.051">
			<g>
				<path d="M325.702,123.271c-1.352,3.228-3.741,5.904-6.753,7.625c1.154-2.036,1.822-4.384,1.822-6.894
					c0-3.584-1.358-6.844-3.576-9.321c-1.453,7.758-6.951,14.072-14.217,16.721h-1.438c0.924-1.732,1.46-3.704,1.46-5.806
					c0-3.646-1.583-6.915-4.088-9.185c-2.026,6.115-6.643,11.042-12.547,13.503c0-0.036,0.005-0.07,0.005-0.106
					c0-2.303-0.954-4.382-2.485-5.871c-2.678,4.893-7.147,8.664-12.525,10.438c1.473,2.188,3.972,3.628,6.809,3.628h42.603
					c4.526,0,8.2-3.67,8.2-8.197C328.975,127.136,327.688,124.766,325.702,123.271z"/>
			</g>
		</g>
		<g id="_x3D_" opacity="0.902">
			<g>
				<path fill="#333333" d="M314.469,120.979c-1.505,0-1.503,0.001-1.503,1.597c0,1.044,0,1.149,0,2.825
					c0,1.596-0.002,1.597,1.503,1.597c1.506,0,1.504-0.001,1.504-1.597c0-1.676,0-1.781,0-2.825
					C315.973,120.979,315.975,120.979,314.469,120.979z M309.456,120.984c-1.491,0-1.49,0.001-1.49,1.595c0,1.044,0,1.148,0,2.822
					c0,1.595-0.001,1.595,1.49,1.595c1.489,0,1.487,0,1.487-1.595c0-1.674,0-1.778,0-2.822
					C310.943,120.985,310.945,120.984,309.456,120.984z"/>
			</g>
		</g>
	</g>
</g>
<g id="Layer_4">
	
		<linearGradient id="SVGID_48_" gradientUnits="userSpaceOnUse" x1="-396" y1="766.4736" x2="204" y2="766.4736" gradientTransform="matrix(1 0 0 1 396 -490.999)">
		<stop  offset="0" style="stop-color:#000000;stop-opacity:0"/>
		<stop  offset="0.25" style="stop-color:#231F20;stop-opacity:0.2"/>
		<stop  offset="0.75" style="stop-color:#231F20;stop-opacity:0.2"/>
		<stop  offset="1" style="stop-color:#000000;stop-opacity:0"/>
	</linearGradient>
	<rect y="274.975" fill="url(#SVGID_48_)" width="600" height="1"/>
</g>
<g id="Layer_5">
	<g id="Tree_3_">
		<g id="Trunk_3_">
			<g id="Rectangle_4">
				<g>
					<rect x="366.9" y="283.99" fill="#B48C49" width="3" height="11.99"/>
				</g>
			</g>
			<g id="Ellipse_2">
				<g>
					<path fill="#9E7C41" d="M366.9,283.99v4.693c0.332,0.117,0.684,0.188,1.055,0.188c0.734,0,1.404-0.261,1.945-0.683v-4.205
						L366.9,283.99L366.9,283.99z"/>
				</g>
			</g>
		</g>
		<g id="Ellipse_1">
			<g>
				<path fill="#30B148" d="M383.898,272.309c0-2.896-2.121-5.289-4.904-5.76c-1.168-1.254-2.836-2.043-4.691-2.043
					c-3.531,0-6.396,2.84-6.396,6.34c0,0.961,0.225,1.867,0.604,2.684c-1.885,0.003-3.553,0.9-4.604,2.285
					c-0.299-0.059-0.604-0.092-0.924-0.092c-2.582,0-4.68,2.072-4.68,4.631c0,2.561,2.096,4.633,4.68,4.633
					c0.969,0,1.867-0.293,2.609-0.79c0.857,0.497,1.855,0.79,2.928,0.79c1.373,0,2.633-0.477,3.625-1.268
					c0.729,0.34,1.543,0.535,2.402,0.535c3.127,0,5.66-2.513,5.66-5.607c0-0.303-0.029-0.598-0.076-0.889
					C382.336,276.911,383.898,274.792,383.898,272.309z"/>
			</g>
		</g>
		<g id="Ellipse_1_1_">
			<g>
				<path fill="#34BE4E" d="M375.777,256.95c-0.346,0-0.682,0.032-1.012,0.087c-1.436-1.266-3.318-2.037-5.391-2.037
					c-3.164,0-5.9,1.8-7.24,4.419c-3.896,0.281-7.021,3.272-7.469,7.084c-1.561,0.211-2.768,1.521-2.768,3.125
					c0,1.08,0.547,2.03,1.379,2.604c-0.854,0.967-1.379,2.229-1.379,3.613c0,3.027,2.479,5.483,5.537,5.483
					c1.713,0,3.242-0.771,4.26-1.979c0.102,0.01,0.193,0.025,0.295,0.025c1.291,0,2.379-0.826,2.779-1.972
					c0.141,0.011,0.275,0.021,0.42,0.021c2.713,0,5.014-1.738,5.83-4.154c1.734-0.549,3.068-1.981,3.424-3.781
					c0.434,0.09,0.873,0.142,1.328,0.142c3.535,0,6.396-2.841,6.396-6.342S379.311,256.95,375.777,256.95z"/>
			</g>
		</g>
		<g id="Ellipse_1_2_" opacity="0.102">
			<g>
				<path d="M362.303,271.916c0.932,0.745,2.295,0.745,3.227-0.063c0.627-0.543,0.912-1.324,0.848-2.09
					c-0.191,0.521-0.521,1.002-0.975,1.395C364.521,271.922,363.361,272.163,362.303,271.916z M370.381,267.146
					c-1.414,0.688-3.006,0.604-4.293-0.084c0.943,1.289,2.719,1.76,4.213,1.031c1.004-0.488,1.646-1.406,1.832-2.42
					C371.697,266.283,371.105,266.795,370.381,267.146z M354.445,271.59c0.414,2.35,2.479,4.135,4.967,4.135
					c1.672,0,3.148-0.813,4.066-2.053c-0.99,0.528-2.125,0.832-3.33,0.832C357.795,274.504,355.717,273.352,354.445,271.59z"/>
			</g>
		</g>
	</g>
	<g id="Tree_2_">
		<g id="Trunk_2_">
			<g id="Rectangle_4_1_">
				<g>
					<rect x="227.886" y="280.996" fill="#B48C49" width="3.001" height="14.98"/>
				</g>
			</g>
			<g id="Ellipse_2_1_">
				<g>
					<path fill="#9E7C41" d="M228.234,281.042c-0.119,0-0.231,0.022-0.348,0.035v7.313c0.116,0.012,0.229,0.032,0.348,0.032
						c1.044,0,1.982-0.438,2.654-1.133v-5.115C230.216,281.48,229.278,281.042,228.234,281.042z"/>
				</g>
			</g>
		</g>
		<g id="Ellipse_1_3_">
			<g>
				<path fill="#239939" d="M248.907,268.188c0-3.375-2.454-6.17-5.674-6.721c-1.353-1.461-3.281-2.381-5.43-2.381
					c-4.088,0-7.403,3.311-7.403,7.395c0,1.121,0.256,2.18,0.703,3.129c-2.18,0.006-4.109,1.055-5.329,2.668
					c-0.345-0.067-0.702-0.104-1.068-0.104c-2.988,0-5.41,2.42-5.41,5.403c0,2.984,2.422,5.404,5.41,5.404
					c1.121,0,2.162-0.342,3.025-0.924c0.993,0.584,2.146,0.924,3.381,0.924c1.588,0,3.046-0.557,4.193-1.479
					c0.845,0.395,1.786,0.625,2.782,0.625c3.617,0,6.549-2.932,6.549-6.544c0-0.354-0.036-0.696-0.09-1.034
					C247.097,273.557,248.907,271.088,248.907,268.188z"/>
			</g>
		</g>
		<g id="Ellipse_1_4_">
			<g>
				<path fill="#26A23D" d="M240.512,250.266c-0.399,0-0.788,0.041-1.17,0.104c-1.66-1.477-3.838-2.377-6.233-2.377
					c-3.663,0-6.829,2.101-8.378,5.154c-4.503,0.328-8.123,3.818-8.637,8.267c-1.805,0.247-3.2,1.776-3.2,3.646
					c0,1.262,0.633,2.369,1.596,3.037c-0.99,1.127-1.596,2.602-1.596,4.217c0,3.535,2.868,6.402,6.406,6.402
					c1.981,0,3.751-0.9,4.927-2.314c0.114,0.014,0.224,0.035,0.341,0.035c1.495,0,2.751-0.967,3.215-2.303
					c0.162,0.014,0.322,0.023,0.487,0.023c3.127,0,5.777-2.021,6.732-4.818c2.021-0.634,3.566-2.336,3.977-4.443
					c0.495,0.104,1.007,0.162,1.534,0.162c4.088,0,7.403-3.313,7.403-7.396S244.6,250.266,240.512,250.266z"/>
			</g>
		</g>
		<g id="Ellipse_1_5_" opacity="0.102">
			<g>
				<path d="M223.924,267.73c1.077,0.869,2.654,0.869,3.732-0.071c0.725-0.634,1.056-1.548,0.979-2.438
					c-0.227,0.604-0.603,1.168-1.125,1.625C226.49,267.736,225.149,268.018,223.924,267.73z M233.27,262.166
					c-1.635,0.804-3.475,0.702-4.965-0.1c1.096,1.502,3.144,2.053,4.872,1.203c1.162-0.568,1.911-1.643,2.121-2.822
					C234.792,261.158,234.107,261.756,233.27,262.166z M214.834,267.35c0.479,2.738,2.865,4.822,5.743,4.822
					c1.935,0,3.646-0.945,4.708-2.396c-1.146,0.619-2.458,0.973-3.853,0.973C218.709,270.749,216.306,269.406,214.834,267.35z"/>
			</g>
		</g>
	</g>
	<g id="My_Business_Icon_1_">
		<g id="shape_25_">
			<g>
				<path fill="#AAAAAA" d="M354.865,186.989H246.938c-4.439,0-8.037,3.61-8.037,8.065V295.98h124.001V195.055
					C362.902,190.6,359.305,186.989,354.865,186.989z"/>
			</g>
		</g>
		<g id="shape_24_">
			<g>
				<rect x="249.906" y="234.987" fill="#EEEEEE" width="41.981" height="60.993"/>
			</g>
		</g>
		<g id="shape_23_">
			<g>
				<rect x="280.876" y="264.988" fill="#37353A" width="7.02" height="0.994"/>
			</g>
		</g>
		<g id="shape_22_">
			<g>
				<path fill="#33BCF2" d="M253.888,238.999v23.979h34.018v-23.979H253.888z M253.888,292h34.018v-24.011h-34.018L253.888,292
					L253.888,292z"/>
			</g>
		</g>
		<g id="ON_2_">
			<g id="shadow_11_" opacity="0.102">
				<g>
					<rect x="261.908" y="246.979" width="18.001" height="10.004"/>
				</g>
			</g>
			<g id="shape_21_">
				<g>
					<rect x="261.908" y="245.979" fill="#FFFFFF" width="18.001" height="10.004"/>
				</g>
			</g>
			<g id="buttonshape">
				<g>
					<rect x="262.899" y="246.986" fill="#44CE5E" width="16" height="8"/>
				</g>
			</g>
			<g id="ON">
				<g>
					<path fill="#FFFFFF" d="M267.898,247.973c-1.516,0-1.998,1.099-1.998,3.057c0,1.957,0.481,2.971,1.998,2.971
						s1.998-1.014,1.998-2.971C269.896,249.071,269.414,247.973,267.898,247.973z M267.898,253.004
						c-0.793,0-0.992-0.625-0.992-1.957c0-1.33,0.198-2.043,0.992-2.043s0.992,0.713,0.992,2.043
						C268.89,252.379,268.691,253.004,267.898,253.004z M274.899,247.986v5L272.82,248h-1.936v5.977l1.015,0.012v-5l2.116,4.984
						h1.873v-5.976L274.899,247.986z"/>
				</g>
			</g>
		</g>
		<g id="roof_shadow" opacity="0.0706">
			<g>
				<path d="M279.91,218.531c0,5.773,4.471,10.458,9.987,10.458s9.987-4.685,9.987-10.458h0.001v-29.538H279.91V218.531z
					 M258.896,188.993h-12.215c-4.297,0-7.78,3.643-7.78,8.137v21.401c0,5.773,4.478,10.458,10.002,10.458
					c5.494,0,9.949-4.634,9.998-10.364c0.051,5.73,4.727,10.364,10.493,10.364c5.798,0,10.498-4.685,10.498-10.458v-29.538h-20.987
					H258.896L258.896,188.993z M354.342,188.993h-13.449h-0.002h-19.992h-0.01h-20.986v29.538l0,0
					c0,5.773,4.699,10.458,10.496,10.458c5.771,0,10.445-4.636,10.494-10.369c0.047,5.733,4.502,10.369,9.998,10.369
					c5.512,0,9.979-4.66,10-10.417v0.716c0,5.91,4.928,10.701,11.006,10.701c6.08,0,11.006-4.791,11.006-10.701v-21.972
					C362.902,192.717,359.07,188.993,354.342,188.993z"/>
			</g>
		</g>
		<g id="roof_1">
			<g>
				<path fill="#44CE5E" d="M279.91,216.531c0,5.773,4.471,10.458,9.987,10.458s9.987-4.685,9.987-10.458h0.001v-29.538H279.91
					V216.531z M320.889,186.993v29.538l0,0c0,5.773,4.477,10.458,10.002,10.458c5.521,0,10.002-4.685,10.002-10.458v-29.538H320.889
					L320.889,186.993z M238.901,195.127v21.402c0,5.774,4.478,10.458,10.002,10.458s10.002-4.684,10.002-10.458v-29.538h-12.224
					C242.384,186.993,238.901,190.633,238.901,195.127z"/>
			</g>
		</g>
		<g id="shadow_10_" opacity="0.102">
			<g>
				<rect x="301.896" y="235.987" width="48" height="47.993"/>
			</g>
		</g>
		<g id="shape_20_">
			<g>
				<rect x="301.896" y="234.987" fill="#EEEEEE" width="48" height="47.993"/>
			</g>
		</g>
		<g id="shape_19_">
			<g>
				<rect x="305.895" y="238.982" fill="#33BCF2" width="40.006" height="40.002"/>
			</g>
		</g>
		<g id="QR_1_">
			<g id="Rectangle_6" opacity="0.102">
				<g>
					<rect x="313.898" y="247.986" width="24" height="24"/>
				</g>
			</g>
			<g id="Rectangle_6_1_">
				<g>
					<rect x="313.898" y="246.986" fill="#FFFFFF" width="24" height="24"/>
				</g>
			</g>
			<g id="Rectangle_6_2_">
				<g>
					<rect x="315.898" y="248.986" fill="#44CE5E" width="20" height="20"/>
				</g>
			</g>
			<g id="Grid">
				<g>
					<path fill="#FFFFFF" d="M323.896,259.984h-5c-0.553,0-1,0.447-1,1v5c0,0.554,0.447,1,1,1h5c0.553,0,1-0.446,1-1v-5
						C324.896,260.432,324.449,259.984,323.896,259.984z M322.896,264.984h-3v-3h3V264.984z M327.184,261.984h1.43
						c0.156,0,0.285-0.129,0.285-0.284v-1.431c0-0.156-0.129-0.285-0.285-0.285h-1.43c-0.158,0-0.285,0.129-0.285,0.285v1.431
						C326.898,261.855,327.025,261.984,327.184,261.984z M332.898,250.982h-5c-0.553,0-1,0.447-1,1v5.002c0,0.553,0.447,1,1,1h5
						c0.555,0,1.002-0.447,1.002-1v-5.002C333.9,251.43,333.453,250.982,332.898,250.982z M331.898,255.982h-3v-3h3V255.982z
						 M333.471,259.984h-2.146c-0.232,0-0.43,0.191-0.43,0.43v2.146c0,0.233,0.188,0.43,0.43,0.43h2.146
						c0.234,0,0.43-0.188,0.43-0.43v-2.146C333.9,260.176,333.709,259.984,333.471,259.984z M323.896,250.982h-5
						c-0.553,0-1,0.447-1,1v5.002c0,0.553,0.447,1,1,1h5c0.553,0,1-0.447,1-1v-5.002
						C324.896,251.43,324.449,250.982,323.896,250.982z M322.896,255.982h-3v-3h3V255.982z M329.469,263.984h-2.146
						c-0.232,0-0.43,0.191-0.43,0.43v2.146c0,0.232,0.189,0.43,0.43,0.43h2.146c0.236,0,0.43-0.189,0.43-0.43v-2.146
						C329.898,264.176,329.709,263.984,329.469,263.984z M333.613,264.984h-1.428c-0.158,0-0.287,0.129-0.287,0.285v1.431
						c0,0.157,0.129,0.284,0.287,0.284h1.428c0.158,0,0.287-0.127,0.287-0.284v-1.431
						C333.9,265.113,333.771,264.984,333.613,264.984z"/>
				</g>
			</g>
		</g>
		<g id="roof_2">
			<g>
				<path fill="#FFFFFF" d="M258.896,216.531c0,5.773,4.7,10.458,10.498,10.458c5.798,0,10.498-4.685,10.498-10.458v-29.538h-20.996
					V216.531L258.896,216.531z M299.902,216.531L299.902,216.531c0,5.773,4.699,10.458,10.496,10.458
					c5.799,0,10.498-4.685,10.498-10.458h0.002v-29.538h-20.996V216.531L299.902,216.531z M354.342,186.993h-13.451v30.295
					c0,5.91,4.928,10.701,11.006,10.701c6.08,0,11.006-4.791,11.006-10.701v-21.972C362.902,190.717,359.07,186.993,354.342,186.993
					z"/>
			</g>
		</g>
		<g id="shadow_9_" opacity="0.0706">
			<g>
				<polygon points="238.901,216.989 238.899,295.986 301.898,234.987 362.898,234.987 362.902,217.096 				"/>
			</g>
		</g>
		<g id="edge_light_2_" opacity="0.3294">
			<g>
				
					<linearGradient id="SVGID_49_" gradientUnits="userSpaceOnUse" x1="-838.103" y1="-1292.4912" x2="-731.1016" y2="-1292.4912" gradientTransform="matrix(1 0 0 -1 1084 -1105)">
					<stop  offset="0" style="stop-color:#FFFFFF;stop-opacity:0"/>
					<stop  offset="0.1022" style="stop-color:#FFFFFF"/>
					<stop  offset="0.8978" style="stop-color:#FFFFFF"/>
					<stop  offset="1" style="stop-color:#FFFFFF;stop-opacity:0"/>
				</linearGradient>
				<rect x="245.897" y="186.883" fill="url(#SVGID_49_)" width="107.001" height="1.217"/>
			</g>
		</g>
	</g>
	<g id="sidewalk_2_">
		<g id="middle_1_">
			<g>
				<rect x="217.901" y="295.982" fill="#D8D8D8" width="166.011" height="4.009"/>
			</g>
		</g>
		<g id="dark_1_">
			<g>
				<rect x="210.895" y="295.98" fill="#C0C0C0" width="7.006" height="4.013"/>
			</g>
		</g>
		<g id="light_1_">
			<g>
				<rect x="383.91" y="295.98" fill="#E6E6E6" width="6.994" height="4.013"/>
			</g>
		</g>
	</g>
	<g id="badge_x2B__2_">
		<g id="O_5_" opacity="0.102">
			<g>
				<circle cx="362.898" cy="188.979" r="25.003"/>
			</g>
		</g>
		<g id="O_4_">
			<g>
				<circle fill="#FFFFFF" cx="362.898" cy="186.988" r="25.003"/>
			</g>
		</g>
		<g id="O_3_">
			<g>
				<ellipse fill="#44CE5E" cx="362.898" cy="186.989" rx="21" ry="20.986"/>
			</g>
		</g>
		<g id="done" opacity="0.1">
			<g>
				<path d="M372.117,183.117l-1.342-1.346c-0.371-0.369-0.965-0.377-1.326-0.016l-9.049,9.053l-4.047-4.053
					c-0.363-0.361-0.957-0.355-1.328,0.018l-1.344,1.345c-0.371,0.37-0.379,0.965-0.02,1.325l5.775,5.783
					c0.172,0.172,0.396,0.254,0.625,0.262v0.004h0.02c0.012,0,0.021,0,0.029,0h0.568c0.01,0,0.02,0,0.027,0h0.021v-0.004
					c0.229-0.008,0.451-0.09,0.623-0.262l10.777-10.785C372.496,184.081,372.488,183.488,372.117,183.117z"/>
			</g>
		</g>
		<g id="done_2_">
			<g>
				<path fill="#FFFFFF" d="M372.117,181.117l-1.342-1.346c-0.371-0.369-0.965-0.377-1.326-0.016l-9.049,9.053l-4.047-4.053
					c-0.363-0.361-0.957-0.355-1.328,0.018l-1.344,1.345c-0.371,0.37-0.379,0.965-0.02,1.325l5.775,5.783
					c0.172,0.172,0.396,0.254,0.625,0.262v0.004h0.02c0.012,0,0.021,0,0.029,0h0.568c0.01,0,0.02,0,0.027,0h0.021v-0.004
					c0.229-0.008,0.451-0.09,0.623-0.262l10.777-10.785C372.496,182.081,372.488,181.488,372.117,181.117z"/>
			</g>
		</g>
	</g>
</g>
</svg>
