<?xml version="1.0" encoding="utf-8"?>
<!-- Generator: Adobe Illustrator 16.0.3, SVG Export Plug-In . SVG Version: 6.00 Build 0)  -->
<!DOCTYPE svg PUBLIC "-//W3C//DTD SVG 1.1//EN" "http://www.w3.org/Graphics/SVG/1.1/DTD/svg11.dtd">
<svg version="1.1" id="Layer_1" xmlns="http://www.w3.org/2000/svg" xmlns:xlink="http://www.w3.org/1999/xlink" x="0px" y="0px"
	 width="600px" height="300px" viewBox="0 0 600 300" enable-background="new 0 0 600 300" xml:space="preserve">
<g id="Layer_2">
	<g>
		
			<radialGradient id="SVGID_1_" cx="102.0186" cy="492.3306" r="270.2402" gradientTransform="matrix(0.9991 0 0 -0.9967 198.0317 766.0438)" gradientUnits="userSpaceOnUse">
			<stop  offset="0" style="stop-color:#000000;stop-opacity:0.3"/>
			<stop  offset="1" style="stop-color:#000000;stop-opacity:0"/>
		</radialGradient>
		<path fill="url(#SVGID_1_)" d="M299.958,5.992c-149.117,0-270,120.589-270,269.343c0,0.219,0.008,0.438,0.009,0.657H569.95
			c0.001-0.22,0.008-0.438,0.008-0.657C569.958,126.581,449.074,5.992,299.958,5.992z"/>
	</g>
</g>
<g id="Layer_3">
	<g>
		<path fill="#FFFFFF" d="M299.666,71.307c-112.666,0-204,91.334-204,204c0,0.229,0.008,0.455,0.009,0.684h407.982
			c0.001-0.229,0.009-0.455,0.009-0.684C503.666,162.641,412.332,71.307,299.666,71.307z"/>
	</g>
</g>
<g id="Layer_1_1_">
	<g>
		<path fill="none" d="M494.876,275.307h-13.405h-13.179h-8.176h-8.491h-8h-11.958h-3.375h-16.585h-7.415h-59.608h-0.026h-11.986
			h-17.62h-32.797h-13.578h-21.358h-4.14h-2.272H219.46h-3.546h-2.727h-4.317h-2.727h-0.697h-1.802h-6.589h-1.818h-2.499h-9.542
			h-1.363h-0.682h-2.499h-3.635h-1.136h-6.362h-2.021h-0.251h-6.735h-5.307h-10.428h-2.272h-3.547h-21.445h-2.727h-4.317h-2.727
			h-2.499h-3.577c0,110.457,89.543,200,200,200c110.458,0,200-89.543,200-200h-4.618H494.876z"/>
		
			<linearGradient id="SVGID_2_" gradientUnits="userSpaceOnUse" x1="-338.7368" y1="-77.3062" x2="-338.7368" y2="142.6975" gradientTransform="matrix(1 0 0 -1 594 198.001)">
			<stop  offset="0.1" style="stop-color:#7CC8A5"/>
			<stop  offset="1" style="stop-color:#33BCF2"/>
		</linearGradient>
		<path fill="url(#SVGID_2_)" d="M111.472,230.639h20.819l-0.333-10.498h19v10.498h7.554v11.447h5.481v-24.73h22.25v9.951h19.203
			v15.01h6.005v5.982h8.009v-14.998h3.997v-10.984h17.013v12.975h10.99v5.02h12.988v-10.016h48.015v6.008h6.988v-8.994h14.011v8.994
			h4.136v-6.121h9.854v-10.887h30.016v30.352h3.947v-8.243h15.894v-18.091h6.983v-14.797h-7.126v-11.813h-0.001h-17.268v5.68h-5.229
			V191.25H351.04v17.268h-6.36v-6.588h-7.043v-2.953h-9.09v9.313h-4.258v6.016h-6.839v-9.994h-17.996v7.613h-7.192v-1.215h-17.279
			v-11.508h-13.405v13.857h-3.408v-10.678h-6.135v7.041h-4.544v3.637h-4.317v-3.813H215.91v-5.729h-7.043v-6.31h-13.632v9.49h-2.499
			v6.135h-5.114v-2.123h-4.43v-8.78h-4.544v7.041h-3.635v-4.543h-0.431v-5.226h-7.067v-6.229h-14.312v9.408h-1.567v4.328h-8.861
			v-10.465h-26.861c-3.893,9.035-7.139,18.413-9.68,28.078h5.238V230.639z"/>
		
			<linearGradient id="SVGID_3_" gradientUnits="userSpaceOnUse" x1="-338.7368" y1="-77.7603" x2="-338.7368" y2="142.6996" gradientTransform="matrix(1 0 0 -1 594 198.001)">
			<stop  offset="0" style="stop-color:#74CCC5"/>
			<stop  offset="1" style="stop-color:#7DCCA9"/>
		</linearGradient>
		<path fill="url(#SVGID_3_)" d="M111.472,230.639h20.819l-0.333-10.498h19v10.498h7.554v11.447h5.481v-24.73h22.25v9.951h19.203
			v15.01h6.005v5.982h8.009v-14.998h3.997v-10.984h17.013v12.975h10.99v5.02h12.988v-10.016h48.015v6.008h6.988v-8.994h14.011v8.994
			h4.136v-6.121h9.854v-10.887h30.016v30.352h3.947v-8.243h15.894v-18.091h6.983v-14.797h-7.126v-11.813h-0.001h-17.268v5.68h-5.229
			V191.25H351.04v17.268h-6.36v-6.588h-7.043v-2.953h-9.09v9.313h-4.258v6.016h-6.839v-9.994h-17.996v7.613h-7.192v-1.215h-17.279
			v-11.508h-13.405v13.857h-3.408v-10.678h-6.135v7.041h-4.544v3.637h-4.317v-3.813H215.91v-5.729h-7.043v-6.31h-13.632v9.49h-2.499
			v6.135h-5.114v-2.123h-4.43v-8.78h-4.544v7.041h-3.635v-4.543h-0.431v-5.226h-7.067v-6.229h-14.312v9.408h-1.567v4.328h-8.861
			v-10.465h-26.861c-3.893,9.035-7.139,18.413-9.68,28.078h5.238V230.639z"/>
		
			<linearGradient id="SVGID_4_" gradientUnits="userSpaceOnUse" x1="-113.4419" y1="-77.3066" x2="-113.4419" y2="142.6989" gradientTransform="matrix(1 0 0 -1 594 198.001)">
			<stop  offset="0.1" style="stop-color:#7CC8A5"/>
			<stop  offset="1" style="stop-color:#33BCF2"/>
		</linearGradient>
		<path fill="url(#SVGID_4_)" d="M480.608,208.518v9.996h-3.683v-15.9h-8.635v16.682h2.172v11.012h9.98v11.002h12.016v-17.998h0.365
			c-1.847-6.871-4.044-13.598-6.582-20.156v5.363H480.608z"/>
		
			<linearGradient id="SVGID_5_" gradientUnits="userSpaceOnUse" x1="-113.4419" y1="-77.7607" x2="-113.4419" y2="142.701" gradientTransform="matrix(1 0 0 -1 594 198.001)">
			<stop  offset="0" style="stop-color:#74CCC5"/>
			<stop  offset="1" style="stop-color:#7DCCA9"/>
		</linearGradient>
		<path fill="url(#SVGID_5_)" d="M480.608,208.518v9.996h-3.683v-15.9h-8.635v16.682h2.172v11.012h9.98v11.002h12.016v-17.998h0.365
			c-1.847-6.871-4.044-13.598-6.582-20.156v5.363H480.608z"/>
		
			<linearGradient id="SVGID_6_" gradientUnits="userSpaceOnUse" x1="-176.02" y1="-77.3037" x2="-176.02" y2="142.6904" gradientTransform="matrix(1 0 0 -1 594 198.001)">
			<stop  offset="0.1" style="stop-color:#7CC8A5"/>
			<stop  offset="1" style="stop-color:#33BCF2"/>
		</linearGradient>
		<polygon fill="url(#SVGID_6_)" points="411.707,223.311 412.975,223.311 412.975,236.135 415.228,236.135 415.228,226.746 
			424.993,226.746 424.993,236.364 428.292,236.364 428.292,209.473 431.667,209.473 431.667,200.141 404.292,200.141 
			404.292,208.516 411.707,208.516 		"/>
		
			<linearGradient id="SVGID_7_" gradientUnits="userSpaceOnUse" x1="219.98" y1="493.2896" x2="219.98" y2="690.4229" gradientTransform="matrix(1 0 0 -1 198 769.001)">
			<stop  offset="0" style="stop-color:#74CCC5"/>
			<stop  offset="1" style="stop-color:#7DCCA9"/>
		</linearGradient>
		<polygon fill="url(#SVGID_7_)" points="411.707,223.311 412.975,223.311 412.975,236.135 415.228,236.135 415.228,226.746 
			424.993,226.746 424.993,236.364 428.292,236.364 428.292,209.473 431.667,209.473 431.667,200.141 404.292,200.141 
			404.292,208.516 411.707,208.516 		"/>
		
			<linearGradient id="SVGID_8_" gradientUnits="userSpaceOnUse" x1="-186" y1="-77.3037" x2="-186" y2="142.6963" gradientTransform="matrix(1 0 0 -1 594 198.001)">
			<stop  offset="0.1" style="stop-color:#7CC8A5"/>
			<stop  offset="1" style="stop-color:#33BCF2"/>
		</linearGradient>
		<rect x="404.292" y="208.516" fill="url(#SVGID_8_)" width="7.415" height="14.795"/>
		
			<linearGradient id="SVGID_9_" gradientUnits="userSpaceOnUse" x1="-186" y1="-77.7578" x2="-186" y2="142.6984" gradientTransform="matrix(1 0 0 -1 594 198.001)">
			<stop  offset="0" style="stop-color:#74CCC5"/>
			<stop  offset="1" style="stop-color:#7DCCA9"/>
		</linearGradient>
		<rect x="404.292" y="208.516" fill="url(#SVGID_9_)" width="7.415" height="14.795"/>
		
			<linearGradient id="SVGID_10_" gradientUnits="userSpaceOnUse" x1="210" y1="493.2896" x2="210" y2="690.4282" gradientTransform="matrix(1 0 0 -1 198 769.001)">
			<stop  offset="0" style="stop-color:#74CCC5"/>
			<stop  offset="1" style="stop-color:#7DCCA9"/>
		</linearGradient>
		<rect x="404.292" y="208.516" fill="url(#SVGID_10_)" width="7.415" height="14.795"/>
		
			<linearGradient id="SVGID_11_" gradientUnits="userSpaceOnUse" x1="-156.3535" y1="-77.3037" x2="-156.3535" y2="142.6963" gradientTransform="matrix(1 0 0 -1 594 198.001)">
			<stop  offset="0.1" style="stop-color:#7CC8A5"/>
			<stop  offset="1" style="stop-color:#33BCF2"/>
		</linearGradient>
		<polygon fill="url(#SVGID_11_)" points="434.528,236.364 434.528,240.256 440.407,240.256 440.407,230.182 443.625,230.182 
			443.625,209.473 431.667,209.473 431.667,236.364 		"/>
		
			<linearGradient id="SVGID_12_" gradientUnits="userSpaceOnUse" x1="239.6465" y1="493.3403" x2="239.6465" y2="666.0012" gradientTransform="matrix(1 0 0 -1 198 769.001)">
			<stop  offset="0" style="stop-color:#74CCC5"/>
			<stop  offset="1" style="stop-color:#7DCCA9"/>
		</linearGradient>
		<polygon fill="url(#SVGID_12_)" points="434.528,236.364 434.528,240.256 440.407,240.256 440.407,230.182 443.625,230.182 
			443.625,209.473 431.667,209.473 431.667,236.364 		"/>
		
			<linearGradient id="SVGID_13_" gradientUnits="userSpaceOnUse" x1="-164.02" y1="-77.3062" x2="-164.02" y2="142.7018" gradientTransform="matrix(1 0 0 -1 594 198.001)">
			<stop  offset="0.1" style="stop-color:#7CC8A5"/>
			<stop  offset="1" style="stop-color:#33BCF2"/>
		</linearGradient>
		<rect x="428.292" y="209.473" fill="url(#SVGID_13_)" width="3.375" height="26.891"/>
		
			<linearGradient id="SVGID_14_" gradientUnits="userSpaceOnUse" x1="231.98" y1="493.2876" x2="231.98" y2="690.4335" gradientTransform="matrix(1 0 0 -1 198 769.001)">
			<stop  offset="0" style="stop-color:#74CCC5"/>
			<stop  offset="1" style="stop-color:#7DCCA9"/>
		</linearGradient>
		<rect x="428.292" y="209.473" fill="url(#SVGID_14_)" width="3.375" height="26.891"/>
		
			<linearGradient id="SVGID_15_" gradientUnits="userSpaceOnUse" x1="231.98" y1="493.3384" x2="231.98" y2="666.0056" gradientTransform="matrix(1 0 0 -1 198 769.001)">
			<stop  offset="0" style="stop-color:#74CCC5"/>
			<stop  offset="1" style="stop-color:#7DCCA9"/>
		</linearGradient>
		<rect x="428.292" y="209.473" fill="url(#SVGID_15_)" width="3.375" height="26.891"/>
		
			<linearGradient id="SVGID_16_" gradientUnits="userSpaceOnUse" x1="-138.041" y1="-77.2983" x2="-138.041" y2="142.6814" gradientTransform="matrix(1 0 0 -1 594 198.001)">
			<stop  offset="0.1" style="stop-color:#7CC8A5"/>
			<stop  offset="1" style="stop-color:#33BCF2"/>
		</linearGradient>
		<polygon fill="url(#SVGID_16_)" points="451.625,219.293 460.116,219.293 460.116,218.514 467.613,218.514 467.613,202.614 
			468.292,202.614 468.292,198.141 443.625,198.141 443.625,209.473 451.625,209.473 		"/>
		
			<linearGradient id="SVGID_17_" gradientUnits="userSpaceOnUse" x1="257.959" y1="493.2837" x2="257.959" y2="695.6491" gradientTransform="matrix(1 0 0 -1 198 769.001)">
			<stop  offset="0" style="stop-color:#74CCC5"/>
			<stop  offset="1" style="stop-color:#7DCCA9"/>
		</linearGradient>
		<polygon fill="url(#SVGID_17_)" points="451.625,219.293 460.116,219.293 460.116,218.514 467.613,218.514 467.613,202.614 
			468.292,202.614 468.292,198.141 443.625,198.141 443.625,209.473 451.625,209.473 		"/>
		
			<linearGradient id="SVGID_18_" gradientUnits="userSpaceOnUse" x1="-129.7954" y1="-77.3003" x2="-129.7954" y2="142.6868" gradientTransform="matrix(1 0 0 -1 594 198.001)">
			<stop  offset="0.1" style="stop-color:#7CC8A5"/>
			<stop  offset="1" style="stop-color:#33BCF2"/>
		</linearGradient>
		<polygon fill="url(#SVGID_18_)" points="467.613,202.614 467.613,218.514 460.116,218.514 460.116,219.293 468.292,219.293 
			468.292,202.614 		"/>
		
			<linearGradient id="SVGID_19_" gradientUnits="userSpaceOnUse" x1="-129.7954" y1="-77.7544" x2="-129.7954" y2="142.6889" gradientTransform="matrix(1 0 0 -1 594 198.001)">
			<stop  offset="0" style="stop-color:#74CCC5"/>
			<stop  offset="1" style="stop-color:#7DCCA9"/>
		</linearGradient>
		<polygon fill="url(#SVGID_19_)" points="467.613,202.614 467.613,218.514 460.116,218.514 460.116,219.293 468.292,219.293 
			468.292,202.614 		"/>
		
			<linearGradient id="SVGID_20_" gradientUnits="userSpaceOnUse" x1="266.2046" y1="493.2817" x2="266.2046" y2="695.654" gradientTransform="matrix(1 0 0 -1 198 769.001)">
			<stop  offset="0" style="stop-color:#74CCC5"/>
			<stop  offset="1" style="stop-color:#7DCCA9"/>
		</linearGradient>
		<polygon fill="url(#SVGID_20_)" points="467.613,202.614 467.613,218.514 460.116,218.514 460.116,219.293 468.292,219.293 
			468.292,202.614 		"/>
		
			<linearGradient id="SVGID_21_" gradientUnits="userSpaceOnUse" x1="-146.3745" y1="-77.3101" x2="-146.3745" y2="142.7107" gradientTransform="matrix(1 0 0 -1 594 198.001)">
			<stop  offset="0.1" style="stop-color:#7CC8A5"/>
			<stop  offset="1" style="stop-color:#33BCF2"/>
		</linearGradient>
		<polygon fill="url(#SVGID_21_)" points="448.474,230.182 448.474,219.293 451.625,219.293 451.625,209.473 443.625,209.473 
			443.625,230.182 		"/>
		
			<linearGradient id="SVGID_22_" gradientUnits="userSpaceOnUse" x1="249.6255" y1="493.3345" x2="249.6255" y2="666.0117" gradientTransform="matrix(1 0 0 -1 198 769.001)">
			<stop  offset="0" style="stop-color:#74CCC5"/>
			<stop  offset="1" style="stop-color:#7DCCA9"/>
		</linearGradient>
		<polygon fill="url(#SVGID_22_)" points="448.474,230.182 448.474,219.293 451.625,219.293 451.625,209.473 443.625,209.473 
			443.625,230.182 		"/>
		
			<linearGradient id="SVGID_23_" gradientUnits="userSpaceOnUse" x1="249.6255" y1="493.2729" x2="249.6255" y2="695.6761" gradientTransform="matrix(1 0 0 -1 198 769.001)">
			<stop  offset="0" style="stop-color:#74CCC5"/>
			<stop  offset="1" style="stop-color:#7DCCA9"/>
		</linearGradient>
		<polygon fill="url(#SVGID_23_)" points="448.474,230.182 448.474,219.293 451.625,219.293 451.625,209.473 443.625,209.473 
			443.625,230.182 		"/>
		
			<linearGradient id="SVGID_24_" gradientUnits="userSpaceOnUse" x1="-342.021" y1="-77.3057" x2="-342.021" y2="142.6943" gradientTransform="matrix(1 0 0 -1 594 198.001)">
			<stop  offset="0.1" style="stop-color:#7CC8A5"/>
			<stop  offset="1" style="stop-color:#33BCF2"/>
		</linearGradient>
		<path fill="url(#SVGID_24_)" d="M105.742,275.307h2.727h4.317h2.727h21.445h3.547h2.272h10.428h5.307h6.735h0.251h2.021h6.362
			h1.136h3.635h2.499h0.682h1.363h9.542h2.499h1.818h6.589h1.802h0.697h2.727h4.317h2.727h3.546h21.446h2.272h4.14h21.357h13.578
			h32.797h17.62h11.986h0.025h59.609v-51.996h-6.983v18.092h-15.894v8.242h-3.947v-30.352h-30.016v10.889h-9.855v6.119h-4.135
			v-8.992H319.45v8.992h-6.988v-6.006h-48.014v10.014H251.46v-5.019h-10.99v-12.974h-17.013v10.984h-3.997v14.998h-8.009v-5.984
			h-6.005v-15.008h-19.203v-9.951h-22.25v24.73h-5.481v-11.447h-7.554v-10.498h-19l0.333,10.498h-20.819v-6.316h-5.238
			c-4.279,16.277-6.567,33.363-6.567,50.984h3.577H105.742z"/>
		
			<linearGradient id="SVGID_25_" gradientUnits="userSpaceOnUse" x1="-342.021" y1="-77.7598" x2="-342.021" y2="142.6964" gradientTransform="matrix(1 0 0 -1 594 198.001)">
			<stop  offset="0" style="stop-color:#74CCC5"/>
			<stop  offset="1" style="stop-color:#7DCCA9"/>
		</linearGradient>
		<path fill="url(#SVGID_25_)" d="M105.742,275.307h2.727h4.317h2.727h21.445h3.547h2.272h10.428h5.307h6.735h0.251h2.021h6.362
			h1.136h3.635h2.499h0.682h1.363h9.542h2.499h1.818h6.589h1.802h0.697h2.727h4.317h2.727h3.546h21.446h2.272h4.14h21.357h13.578
			h32.797h17.62h11.986h0.025h59.609v-51.996h-6.983v18.092h-15.894v8.242h-3.947v-30.352h-30.016v10.889h-9.855v6.119h-4.135
			v-8.992H319.45v8.992h-6.988v-6.006h-48.014v10.014H251.46v-5.019h-10.99v-12.974h-17.013v10.984h-3.997v14.998h-8.009v-5.984
			h-6.005v-15.008h-19.203v-9.951h-22.25v24.73h-5.481v-11.447h-7.554v-10.498h-19l0.333,10.498h-20.819v-6.316h-5.238
			c-4.279,16.277-6.567,33.363-6.567,50.984h3.577H105.742z"/>
		
			<linearGradient id="SVGID_26_" gradientUnits="userSpaceOnUse" x1="-110.0205" y1="-77.3057" x2="-110.0205" y2="142.702" gradientTransform="matrix(1 0 0 -1 594 198.001)">
			<stop  offset="0.1" style="stop-color:#7CC8A5"/>
			<stop  offset="1" style="stop-color:#33BCF2"/>
		</linearGradient>
		<path fill="url(#SVGID_26_)" d="M492.46,223.311v17.998h-12.016v-11.002h-9.98v-11.014h-2.172v56.014h13.179h13.405h0.172h4.618
			c0-17.988-2.389-35.414-6.841-51.996H492.46z"/>
		
			<linearGradient id="SVGID_27_" gradientUnits="userSpaceOnUse" x1="-110.0205" y1="-77.7598" x2="-110.0205" y2="142.7041" gradientTransform="matrix(1 0 0 -1 594 198.001)">
			<stop  offset="0" style="stop-color:#74CCC5"/>
			<stop  offset="1" style="stop-color:#7DCCA9"/>
		</linearGradient>
		<path fill="url(#SVGID_27_)" d="M492.46,223.311v17.998h-12.016v-11.002h-9.98v-11.014h-2.172v56.014h13.179h13.405h0.172h4.618
			c0-17.988-2.389-35.414-6.841-51.996H492.46z"/>
		
			<linearGradient id="SVGID_28_" gradientUnits="userSpaceOnUse" x1="-174" y1="-77.3057" x2="-174" y2="142.7026" gradientTransform="matrix(1 0 0 -1 594 198.001)">
			<stop  offset="0.1" style="stop-color:#7CC8A5"/>
			<stop  offset="1" style="stop-color:#33BCF2"/>
		</linearGradient>
		<polygon fill="url(#SVGID_28_)" points="424.993,236.364 424.993,226.746 415.228,226.746 415.228,236.135 412.975,236.135 
			412.975,223.311 411.707,223.311 411.707,275.307 428.292,275.307 428.292,236.364 		"/>
		
			<linearGradient id="SVGID_29_" gradientUnits="userSpaceOnUse" x1="222" y1="493.2876" x2="222" y2="690.4337" gradientTransform="matrix(1 0 0 -1 198 769.001)">
			<stop  offset="0" style="stop-color:#74CCC5"/>
			<stop  offset="1" style="stop-color:#7DCCA9"/>
		</linearGradient>
		<polygon fill="url(#SVGID_29_)" points="424.993,236.364 424.993,226.746 415.228,226.746 415.228,236.135 412.975,236.135 
			412.975,223.311 411.707,223.311 411.707,275.307 428.292,275.307 428.292,236.364 		"/>
		
			<linearGradient id="SVGID_30_" gradientUnits="userSpaceOnUse" x1="-186" y1="-77.3057" x2="-186" y2="142.7026" gradientTransform="matrix(1 0 0 -1 594 198.001)">
			<stop  offset="0.1" style="stop-color:#7CC8A5"/>
			<stop  offset="1" style="stop-color:#33BCF2"/>
		</linearGradient>
		<rect x="404.292" y="223.311" fill="url(#SVGID_30_)" width="7.415" height="51.996"/>
		
			<linearGradient id="SVGID_31_" gradientUnits="userSpaceOnUse" x1="-186" y1="-77.7598" x2="-186" y2="142.7047" gradientTransform="matrix(1 0 0 -1 594 198.001)">
			<stop  offset="0" style="stop-color:#74CCC5"/>
			<stop  offset="1" style="stop-color:#7DCCA9"/>
		</linearGradient>
		<rect x="404.292" y="223.311" fill="url(#SVGID_31_)" width="7.415" height="51.996"/>
		
			<linearGradient id="SVGID_32_" gradientUnits="userSpaceOnUse" x1="210" y1="493.2876" x2="210" y2="690.4337" gradientTransform="matrix(1 0 0 -1 198 769.001)">
			<stop  offset="0" style="stop-color:#74CCC5"/>
			<stop  offset="1" style="stop-color:#7DCCA9"/>
		</linearGradient>
		<rect x="404.292" y="223.311" fill="url(#SVGID_32_)" width="7.415" height="51.996"/>
		
			<linearGradient id="SVGID_33_" gradientUnits="userSpaceOnUse" x1="-156.3535" y1="-77.3057" x2="-156.3535" y2="142.6943" gradientTransform="matrix(1 0 0 -1 594 198.001)">
			<stop  offset="0.1" style="stop-color:#7CC8A5"/>
			<stop  offset="1" style="stop-color:#33BCF2"/>
		</linearGradient>
		<polygon fill="url(#SVGID_33_)" points="440.407,230.182 440.407,240.256 434.528,240.256 434.528,236.364 431.667,236.364 
			431.667,275.307 443.625,275.307 443.625,230.182 		"/>
		
			<linearGradient id="SVGID_34_" gradientUnits="userSpaceOnUse" x1="239.6465" y1="493.3384" x2="239.6465" y2="665.9993" gradientTransform="matrix(1 0 0 -1 198 769.001)">
			<stop  offset="0" style="stop-color:#74CCC5"/>
			<stop  offset="1" style="stop-color:#7DCCA9"/>
		</linearGradient>
		<polygon fill="url(#SVGID_34_)" points="440.407,230.182 440.407,240.256 434.528,240.256 434.528,236.364 431.667,236.364 
			431.667,275.307 443.625,275.307 443.625,230.182 		"/>
		
			<linearGradient id="SVGID_35_" gradientUnits="userSpaceOnUse" x1="-164.02" y1="-77.3057" x2="-164.02" y2="142.6998" gradientTransform="matrix(1 0 0 -1 594 198.001)">
			<stop  offset="0.1" style="stop-color:#7CC8A5"/>
			<stop  offset="1" style="stop-color:#33BCF2"/>
		</linearGradient>
		<rect x="428.292" y="236.364" fill="url(#SVGID_35_)" width="3.375" height="38.943"/>
		
			<linearGradient id="SVGID_36_" gradientUnits="userSpaceOnUse" x1="231.98" y1="493.2876" x2="231.98" y2="690.4313" gradientTransform="matrix(1 0 0 -1 198 769.001)">
			<stop  offset="0" style="stop-color:#74CCC5"/>
			<stop  offset="1" style="stop-color:#7DCCA9"/>
		</linearGradient>
		<rect x="428.292" y="236.364" fill="url(#SVGID_36_)" width="3.375" height="38.943"/>
		
			<linearGradient id="SVGID_37_" gradientUnits="userSpaceOnUse" x1="231.98" y1="493.3384" x2="231.98" y2="666.0036" gradientTransform="matrix(1 0 0 -1 198 769.001)">
			<stop  offset="0" style="stop-color:#74CCC5"/>
			<stop  offset="1" style="stop-color:#7DCCA9"/>
		</linearGradient>
		<rect x="428.292" y="236.364" fill="url(#SVGID_37_)" width="3.375" height="38.943"/>
		
			<linearGradient id="SVGID_38_" gradientUnits="userSpaceOnUse" x1="-138.1289" y1="-77.3057" x2="-138.1289" y2="142.702" gradientTransform="matrix(1 0 0 -1 594 198.001)">
			<stop  offset="0.1" style="stop-color:#7CC8A5"/>
			<stop  offset="1" style="stop-color:#33BCF2"/>
		</linearGradient>
		<rect x="451.625" y="219.293" fill="url(#SVGID_38_)" width="8.491" height="56.014"/>
		
			<linearGradient id="SVGID_39_" gradientUnits="userSpaceOnUse" x1="257.8711" y1="493.2769" x2="257.8711" y2="695.668" gradientTransform="matrix(1 0 0 -1 198 769.001)">
			<stop  offset="0" style="stop-color:#74CCC5"/>
			<stop  offset="1" style="stop-color:#7DCCA9"/>
		</linearGradient>
		<rect x="451.625" y="219.293" fill="url(#SVGID_39_)" width="8.491" height="56.014"/>
		
			<linearGradient id="SVGID_40_" gradientUnits="userSpaceOnUse" x1="-129.7954" y1="-77.3057" x2="-129.7954" y2="142.702" gradientTransform="matrix(1 0 0 -1 594 198.001)">
			<stop  offset="0.1" style="stop-color:#7CC8A5"/>
			<stop  offset="1" style="stop-color:#33BCF2"/>
		</linearGradient>
		<rect x="460.116" y="219.293" fill="url(#SVGID_40_)" width="8.176" height="56.014"/>
		
			<linearGradient id="SVGID_41_" gradientUnits="userSpaceOnUse" x1="-129.7954" y1="-77.7598" x2="-129.7954" y2="142.7041" gradientTransform="matrix(1 0 0 -1 594 198.001)">
			<stop  offset="0" style="stop-color:#74CCC5"/>
			<stop  offset="1" style="stop-color:#7DCCA9"/>
		</linearGradient>
		<rect x="460.116" y="219.293" fill="url(#SVGID_41_)" width="8.176" height="56.014"/>
		
			<linearGradient id="SVGID_42_" gradientUnits="userSpaceOnUse" x1="266.2046" y1="493.2769" x2="266.2046" y2="695.668" gradientTransform="matrix(1 0 0 -1 198 769.001)">
			<stop  offset="0" style="stop-color:#74CCC5"/>
			<stop  offset="1" style="stop-color:#7DCCA9"/>
		</linearGradient>
		<rect x="460.116" y="219.293" fill="url(#SVGID_42_)" width="8.176" height="56.014"/>
		
			<linearGradient id="SVGID_43_" gradientUnits="userSpaceOnUse" x1="-146.3745" y1="-77.3057" x2="-146.3745" y2="142.702" gradientTransform="matrix(1 0 0 -1 594 198.001)">
			<stop  offset="0.1" style="stop-color:#7CC8A5"/>
			<stop  offset="1" style="stop-color:#33BCF2"/>
		</linearGradient>
		<polygon fill="url(#SVGID_43_)" points="448.474,219.293 448.474,230.182 443.625,230.182 443.625,275.307 451.625,275.307 
			451.625,219.293 		"/>
		
			<linearGradient id="SVGID_44_" gradientUnits="userSpaceOnUse" x1="249.6255" y1="493.3384" x2="249.6255" y2="666.0053" gradientTransform="matrix(1 0 0 -1 198 769.001)">
			<stop  offset="0" style="stop-color:#74CCC5"/>
			<stop  offset="1" style="stop-color:#7DCCA9"/>
		</linearGradient>
		<polygon fill="url(#SVGID_44_)" points="448.474,219.293 448.474,230.182 443.625,230.182 443.625,275.307 451.625,275.307 
			451.625,219.293 		"/>
		
			<linearGradient id="SVGID_45_" gradientUnits="userSpaceOnUse" x1="249.6255" y1="493.2769" x2="249.6255" y2="695.668" gradientTransform="matrix(1 0 0 -1 198 769.001)">
			<stop  offset="0" style="stop-color:#74CCC5"/>
			<stop  offset="1" style="stop-color:#7DCCA9"/>
		</linearGradient>
		<polygon fill="url(#SVGID_45_)" points="448.474,219.293 448.474,230.182 443.625,230.182 443.625,275.307 451.625,275.307 
			451.625,219.293 		"/>
		
			<linearGradient id="SVGID_46_" gradientUnits="userSpaceOnUse" x1="101.6665" y1="493.6938" x2="101.6664" y2="721.3607" gradientTransform="matrix(1 0 0 -1 198 769.001)">
			<stop  offset="0" style="stop-color:#91D5C5"/>
			<stop  offset="1" style="stop-color:#7ECCAA"/>
		</linearGradient>
		<path fill="url(#SVGID_46_)" d="M492.825,223.311h-0.365v17.998h-12.016v-11.002h-9.98v-11.014h-2.172h-1.334h-6.842h-2.49h-6.001
			h-0.917h-2.234v10.889h-4.849h-0.917h-2.301v10.074h-5.879v-3.894h-2.861h-0.709h-2.666h-0.834h-2.465v-9.617h-9.766v9.39h-2.254
			v-12.824h-1.268h-0.999h-6.416h-1.333h-5.649v18.092h-15.894v8.242h-3.947v-30.352h-30.016v10.889h-9.854v6.119h-4.136v-8.992
			h-14.011v8.992h-6.988v-6.006h-48.015v10.014H251.46v-5.019h-10.99v-12.974h-17.013v10.984h-3.997v14.998h-8.009v-5.984h-6.005
			v-15.008h-19.203v-9.951h-22.25v24.73h-5.481v-11.447h-7.554v-10.498h-19l0.333,10.498h-20.819v-6.316h-5.238
			c-4.279,16.277-6.567,33.363-6.567,50.984h3.577h2.499h2.727h4.317h2.727h21.444h3.547h2.272h10.428h5.307h6.735h0.251h2.021
			h6.362h1.136h3.635h2.499h0.682h1.363h9.542h2.499h1.818h6.589h1.802h0.697h2.727h4.317h2.727h3.546h21.446h2.272h4.14h21.357
			h13.578h32.797h17.62h11.986h0.025h58.276h1.334h6.416h0.999h15.751h0.834h2.666h0.709h11.041h0.917h7.083h0.917h6.001h2.49h6.842
			h1.334h13.179h13.405h0.172h4.618C499.666,257.319,497.277,239.893,492.825,223.311z"/>
		<path fill="#FFFFFF" d="M408.435,149.19c-0.226-0.034-0.446-0.076-0.666-0.127C407.987,149.116,408.209,149.157,408.435,149.19z"
			/>
		<path fill="#FFFFFF" d="M404.05,147.057c-0.162-0.152-0.315-0.312-0.465-0.476C403.733,146.745,403.888,146.905,404.05,147.057z"
			/>
		<path fill="#FFFFFF" d="M404.778,147.666c-0.178-0.131-0.35-0.269-0.516-0.415C404.43,147.396,404.603,147.535,404.778,147.666z"
			/>
		<path opacity="0.8" fill="#D9E0E2" enable-background="new    " d="M422.086,124.504c-5.473,0-10.109,3.54-11.762,8.448
			c-0.216-0.018-0.436-0.033-0.653-0.033c-4.529,0-8.201,3.665-8.201,8.187c0,1.69,0.515,3.261,1.394,4.565
			c5.377-1.775,9.845-5.541,12.521-10.429c1.531,1.487,2.485,3.563,2.485,5.864c0,0.036-0.005,0.07-0.006,0.106
			c5.901-2.458,10.521-7.38,12.547-13.488c2.505,2.267,4.088,5.532,4.088,9.174c0,2.1-0.536,4.069-1.461,5.8h1.438
			c3.552-1.293,6.676-3.465,9.116-6.248c-4.246-4.4-8.687-8.61-13.316-12.606c-0.873,0.61-1.684,1.307-2.396,2.095
			C426.147,125.025,424.179,124.504,422.086,124.504z"/>
		<path fill="#FFFFFF" d="M406.589,148.69c-0.57-0.231-1.106-0.524-1.604-0.872C405.481,148.167,406.019,148.459,406.589,148.69z"/>
		<path fill="#FFFFFF" d="M407.474,148.988c-0.219-0.061-0.432-0.131-0.643-0.208C407.042,148.856,407.255,148.928,407.474,148.988z
			"/>
		<path fill="#FFFFFF" d="M409.671,149.294c-0.326,0-0.646-0.024-0.963-0.062C409.024,149.27,409.345,149.294,409.671,149.294h42.6
			c0.839,0,1.646-0.127,2.407-0.36h-0.001c-0.761,0.233-1.567,0.36-2.406,0.36H409.671z"/>
		<path fill="#FFFFFF" d="M403.418,146.396c-0.197-0.231-0.384-0.472-0.555-0.725C403.034,145.926,403.221,146.165,403.418,146.396z
			"/>
		<path opacity="0.8" fill="#C7D1D3" enable-background="new    " d="M434.476,142.698h-1.438c0.925-1.731,1.461-3.7,1.461-5.8
			c0-3.642-1.583-6.907-4.088-9.174c-2.026,6.108-6.646,11.03-12.547,13.488c0.001-0.036,0.006-0.07,0.006-0.106
			c0-2.301-0.954-4.377-2.485-5.864c-2.678,4.888-7.146,8.654-12.521,10.429l0,0l0.001,0.001c0.171,0.252,0.356,0.493,0.555,0.725
			c0.054,0.063,0.111,0.122,0.167,0.184c0.148,0.165,0.303,0.324,0.465,0.476c0.07,0.066,0.143,0.131,0.214,0.195
			c0.166,0.146,0.338,0.283,0.516,0.415c0.067,0.051,0.135,0.104,0.205,0.153c0.498,0.348,1.035,0.641,1.604,0.872
			c0.08,0.032,0.161,0.059,0.242,0.088c0.211,0.078,0.424,0.148,0.643,0.208c0.099,0.027,0.195,0.052,0.296,0.076
			c0.219,0.052,0.439,0.093,0.666,0.127c0.091,0.014,0.181,0.031,0.272,0.042c0.316,0.037,0.637,0.061,0.963,0.061h42.601
			c0.838,0,1.646-0.127,2.405-0.36c-3.521-4.315-7.221-8.479-11.085-12.484C441.15,139.232,438.026,141.405,434.476,142.698z"/>
		<path fill="#FFFFFF" d="M203.25,139.283c0.046,0.202,0.082,0.409,0.112,0.617C203.332,139.691,203.297,139.484,203.25,139.283z"/>
		<path fill="#FFFFFF" d="M202.989,138.388c0.071,0.2,0.132,0.403,0.188,0.61C203.122,138.791,203.06,138.588,202.989,138.388z"/>
		<path fill="#FFFFFF" d="M202.607,137.482c0.109,0.219,0.208,0.444,0.298,0.674C202.815,137.927,202.716,137.703,202.607,137.482z"
			/>
		<path opacity="0.8" fill="#D9E0E2" enable-background="new    " d="M165.673,137.004c0-0.003,0.001-0.005,0.002-0.008
			c0.03,0.034,0.057,0.072,0.087,0.106c0.188,0.215,0.368,0.436,0.543,0.662c0.03,0.039,0.063,0.075,0.093,0.114
			c3.209-2.629,5.672-6.131,7.006-10.154c2.505,2.268,4.088,5.533,4.088,9.175c0,2.099-0.536,4.068-1.46,5.799h1.439
			c7.261-2.645,12.756-8.949,14.212-16.694c-2.561-2.869-6.279-4.684-10.433-4.684c-4.123,0-7.818,1.789-10.382,4.619
			c-0.92-0.486-1.912-0.851-2.95-1.096c-2.971,2.604-5.863,5.295-8.675,8.068C161.759,133.661,163.971,135.098,165.673,137.004z"/>
		<path opacity="0.8" fill="#D9E0E2" enable-background="new    " d="M193.438,142.19c3.01-1.72,5.402-4.393,6.752-7.617
			c0.981,0.739,1.791,1.693,2.36,2.791c-1.362-2.639-4.111-4.447-7.29-4.447c-0.071,0-0.141,0.009-0.212,0.011
			c0.134,0.773,0.213,1.566,0.213,2.379C195.261,137.813,194.593,140.158,193.438,142.19z"/>
		<path fill="#FFFFFF" d="M203.407,140.188c0.03,0.269,0.046,0.542,0.05,0.819C203.454,140.73,203.437,140.458,203.407,140.188z"/>
		<path fill="#FFFFFF" d="M192.565,127.093c0.146,0.199,0.282,0.404,0.417,0.61C192.848,127.496,192.71,127.291,192.565,127.093z"/>
		<path fill="#FFFFFF" d="M191.768,126.097c0.191,0.218,0.374,0.444,0.552,0.673C192.142,126.54,191.959,126.314,191.768,126.097z"
			/>
		<path fill="#FFFFFF" d="M194.396,130.505c0.015,0.041,0.027,0.082,0.042,0.122C194.423,130.587,194.41,130.546,194.396,130.505z"
			/>
		<path fill="#FFFFFF" d="M193.892,129.312c0.051,0.106,0.095,0.215,0.144,0.322C193.987,129.526,193.942,129.417,193.892,129.312z"
			/>
		<path fill="#FFFFFF" d="M193.278,128.169c0.096,0.161,0.184,0.326,0.274,0.49C193.463,128.495,193.374,128.329,193.278,128.169z"
			/>
		<path opacity="0.8" fill="#C7D1D3" enable-background="new    " d="M177.471,142.698h-1.439c0.924-1.731,1.46-3.7,1.46-5.799
			c0-3.642-1.583-6.907-4.088-9.175c-1.334,4.022-3.797,7.525-7.006,10.154c0.055,0.072,0.107,0.146,0.161,0.219
			c0.142,0.195,0.276,0.396,0.408,0.599c0.104,0.158,0.207,0.316,0.304,0.479c0.093,0.156,0.179,0.316,0.266,0.476
			c0.121,0.22,0.238,0.44,0.347,0.667c0.048,0.101,0.091,0.204,0.137,0.306c0.131,0.292,0.255,0.586,0.367,0.888
			c0.013,0.034,0.023,0.069,0.035,0.103c0.269,0.746,0.478,1.518,0.615,2.316c0.071-0.002,0.141-0.011,0.212-0.011
			c3.177,0,5.926,1.806,7.288,4.441c0.023,0.043,0.042,0.089,0.064,0.133c0.106,0.215,0.203,0.434,0.291,0.658
			c0.019,0.048,0.04,0.094,0.058,0.143h18.311h0.001c4.529,0,8.201-3.665,8.201-8.188c0-0.033-0.005-0.065-0.006-0.098
			c-0.003-0.276-0.02-0.55-0.05-0.819c-0.011-0.098-0.03-0.192-0.044-0.289c-0.031-0.208-0.066-0.415-0.112-0.617
			c-0.022-0.096-0.048-0.19-0.073-0.285c-0.056-0.207-0.117-0.41-0.188-0.61c-0.027-0.077-0.055-0.154-0.084-0.23
			c-0.09-0.23-0.188-0.455-0.298-0.674c-0.02-0.04-0.037-0.08-0.057-0.119c-0.569-1.098-1.379-2.051-2.36-2.791
			c-1.35,3.224-3.742,5.897-6.752,7.617c1.155-2.033,1.823-4.378,1.823-6.883c0-0.813-0.079-1.605-0.213-2.379
			c-0.137-0.793-0.345-1.561-0.611-2.302c-0.015-0.04-0.027-0.082-0.042-0.122c-0.109-0.296-0.232-0.585-0.36-0.871
			c-0.048-0.107-0.093-0.216-0.144-0.322c-0.106-0.222-0.222-0.438-0.339-0.653c-0.09-0.165-0.178-0.33-0.274-0.49
			c-0.095-0.158-0.195-0.312-0.296-0.466c-0.135-0.207-0.271-0.412-0.417-0.61c-0.08-0.109-0.163-0.215-0.246-0.322
			c-0.178-0.229-0.36-0.455-0.552-0.673c-0.029-0.033-0.054-0.068-0.083-0.101c0,0.002-0.001,0.005-0.002,0.008
			C190.227,133.749,184.732,140.053,177.471,142.698z"/>
		<path fill="#EDF9FC" d="M177.242,150.287c0.045,0.198,0.079,0.399,0.11,0.604C177.321,150.688,177.287,150.485,177.242,150.287z"
			/>
		<path fill="#EDF9FC" d="M177.398,151.192c0.03,0.266,0.045,0.535,0.049,0.809C177.443,151.727,177.428,151.458,177.398,151.192z"
			/>
		<path fill="#EDF9FC" d="M175.58,157.315c-1.504,1.818-3.78,2.979-6.328,2.979h-33.216l-0.001,0.002h33.216
			C171.799,160.295,174.076,159.135,175.58,157.315z"/>
		<path fill="#EDF9FC" d="M176.982,149.396c0.069,0.195,0.129,0.394,0.184,0.596C177.112,149.79,177.051,149.591,176.982,149.396z"
			/>
		<path fill="#EDF9FC" d="M166.305,137.764c-0.175-0.226-0.355-0.447-0.543-0.662C165.95,137.315,166.129,137.538,166.305,137.764z"
			/>
		<path fill="#EDF9FC" d="M176.893,149.152c-0.087-0.225-0.185-0.443-0.291-0.658C176.709,148.708,176.806,148.929,176.893,149.152z
			"/>
		<path fill="#EDF9FC" d="M168.423,141.614c-0.012-0.034-0.022-0.069-0.035-0.103C168.4,141.545,168.411,141.58,168.423,141.614z"/>
		<path fill="#EDF3F4" d="M151.482,147.897c0,2.099-0.536,4.07-1.46,5.8h1.436c7.263-2.645,12.758-8.949,14.215-16.694
			c-1.702-1.906-3.914-3.344-6.43-4.093c-3.12,3.077-6.137,6.256-9.05,9.531C151.01,144.089,151.482,145.935,151.482,147.897z"/>
		<path fill="#EDF3F4" d="M169.25,143.919c-0.071,0-0.141,0.008-0.212,0.011c0.134,0.773,0.213,1.565,0.213,2.377
			c0,2.505-0.668,4.85-1.823,6.883c3.01-1.719,5.402-4.391,6.752-7.615c0.98,0.738,1.789,1.69,2.358,2.787
			C175.176,145.725,172.427,143.919,169.25,143.919z"/>
		<path fill="#EDF9FC" d="M166.967,138.696c-0.132-0.203-0.267-0.403-0.408-0.599C166.701,138.292,166.835,138.494,166.967,138.696z
			"/>
		<path fill="#EDF9FC" d="M168.021,140.624c-0.045-0.103-0.089-0.206-0.137-0.306C167.933,140.417,167.975,140.521,168.021,140.624z
			"/>
		<path fill="#EDF9FC" d="M167.537,139.649c-0.087-0.16-0.173-0.32-0.266-0.476C167.364,139.33,167.45,139.491,167.537,139.649z"/>
		<path opacity="0.8" fill="#D9E0E2" enable-background="new    " d="M175.58,157.315c1.17-1.416,1.874-3.23,1.874-5.209
			c0-0.035-0.006-0.069-0.006-0.104c-0.003-0.273-0.019-0.544-0.049-0.811c-0.011-0.102-0.031-0.2-0.046-0.301
			c-0.031-0.203-0.065-0.406-0.11-0.604c-0.023-0.1-0.05-0.197-0.076-0.296c-0.055-0.202-0.115-0.4-0.184-0.596
			c-0.012-0.033-0.02-0.068-0.032-0.102c-0.018-0.048-0.039-0.094-0.058-0.143c-0.087-0.224-0.184-0.444-0.291-0.658
			c-0.022-0.044-0.042-0.089-0.064-0.133c-0.569-1.096-1.377-2.048-2.358-2.787c-1.35,3.224-3.742,5.897-6.752,7.616
			c1.155-2.034,1.823-4.379,1.823-6.884c0-0.812-0.079-1.604-0.213-2.377c-0.138-0.798-0.347-1.57-0.615-2.316
			c-0.012-0.034-0.022-0.069-0.035-0.103c-0.111-0.302-0.236-0.596-0.367-0.888c-0.046-0.102-0.088-0.206-0.137-0.306
			c-0.109-0.227-0.227-0.448-0.347-0.667c-0.087-0.16-0.173-0.32-0.266-0.476c-0.098-0.163-0.201-0.32-0.304-0.479
			c-0.132-0.202-0.266-0.404-0.408-0.599c-0.054-0.073-0.106-0.147-0.161-0.219c-0.03-0.039-0.063-0.075-0.093-0.114
			c-0.175-0.226-0.354-0.448-0.543-0.662c-0.03-0.034-0.057-0.072-0.087-0.106c0,0.003-0.001,0.005-0.002,0.008
			c-1.457,7.745-6.952,14.049-14.215,16.694h-1.436c0.924-1.73,1.46-3.701,1.46-5.8c0-1.963-0.472-3.809-1.289-5.456
			c-5.045,5.672-9.776,11.629-14.158,17.852h33.216C171.799,160.293,174.076,159.133,175.58,157.315z"/>
	</g>
	
		<linearGradient id="SVGID_47_" gradientUnits="userSpaceOnUse" x1="-292.9199" y1="-77.3057" x2="-292.9199" y2="142.6943" gradientTransform="matrix(1 0 0 -1 594 198.001)">
		<stop  offset="0.1" style="stop-color:#7CC8A5"/>
		<stop  offset="1" style="stop-color:#33BCF2"/>
	</linearGradient>
	<path fill="url(#SVGID_47_)" d="M142.775,206.708h8.861v-4.329h1.567v-9.406h14.314v6.229h7.067v5.227h0.431v4.543h3.635v-7.043
		h4.544v8.781h4.43v2.123h5.114v-6.135h2.499v-9.49h13.632v6.311h7.043v5.729h27.264v3.813h4.317v-3.635h4.544v-7.043h6.135v10.678
		h3.408v-13.856h13.405v11.509h17.279v1.215h7.192v-7.613h17.996v9.992h6.839v-6.015h4.258v-9.313h9.09v2.953h7.043v6.588h6.36
		v-17.267h23.629v11.134h5.229v-5.681h17.268h0.001v11.813h7.126v-8.377h27.375v9.334h11.958v-11.334h24.667v4.474h8.635v15.901
		h3.683v-9.996h5.635v-5.364c-7.658-19.79-18.371-38.056-31.565-54.22c-0.762,0.233-1.568,0.36-2.406,0.36h-42.601
		c-0.326,0-0.646-0.024-0.963-0.063c-0.093-0.011-0.183-0.027-0.272-0.042c-0.227-0.034-0.447-0.076-0.666-0.127
		c-0.101-0.023-0.197-0.049-0.296-0.076c-0.219-0.061-0.432-0.131-0.643-0.208c-0.081-0.03-0.162-0.056-0.242-0.088
		c-0.569-0.23-1.106-0.523-1.604-0.872c-0.07-0.049-0.138-0.102-0.205-0.153c-0.178-0.132-0.35-0.269-0.516-0.415
		c-0.071-0.064-0.144-0.128-0.214-0.195c-0.162-0.152-0.315-0.312-0.465-0.476c-0.056-0.062-0.113-0.121-0.167-0.184
		c-0.197-0.232-0.384-0.472-0.555-0.725l-0.001-0.001l0,0c-0.879-1.305-1.394-2.875-1.394-4.565c0-4.522,3.672-8.187,8.201-8.187
		c0.219,0,0.438,0.015,0.653,0.033c1.651-4.908,6.289-8.448,11.762-8.448c2.093,0,4.063,0.521,5.792,1.435
		c0.714-0.788,1.523-1.485,2.396-2.095c-35.043-30.246-80.689-48.538-130.61-48.538c-50.465,0-96.558,18.699-131.748,49.536
		c1.038,0.245,2.03,0.61,2.95,1.096c2.564-2.83,6.259-4.619,10.382-4.619c4.154,0,7.872,1.815,10.433,4.685
		c0-0.002,0.001-0.005,0.002-0.008c0.029,0.033,0.054,0.068,0.083,0.101c0.191,0.218,0.374,0.443,0.552,0.673
		c0.083,0.107,0.166,0.213,0.246,0.322c0.145,0.199,0.282,0.403,0.417,0.61c0.101,0.154,0.201,0.308,0.296,0.466
		c0.096,0.161,0.185,0.326,0.274,0.49c0.118,0.215,0.233,0.431,0.339,0.653c0.05,0.106,0.096,0.215,0.144,0.322
		c0.128,0.286,0.251,0.575,0.36,0.871c0.015,0.041,0.027,0.082,0.042,0.122c0.266,0.741,0.474,1.508,0.611,2.302
		c0.071-0.002,0.141-0.011,0.212-0.011c3.179,0,5.928,1.808,7.29,4.447c0.02,0.039,0.038,0.079,0.057,0.119
		c0.109,0.22,0.208,0.444,0.298,0.674c0.03,0.076,0.057,0.153,0.084,0.23c0.07,0.2,0.133,0.403,0.188,0.61
		c0.025,0.095,0.051,0.188,0.073,0.285c0.046,0.203,0.082,0.409,0.112,0.617c0.015,0.097,0.033,0.191,0.044,0.289
		c0.03,0.27,0.046,0.542,0.05,0.819c0,0.033,0.006,0.065,0.006,0.098c0,4.523-3.672,8.188-8.201,8.188h-0.001H176.95
		c0.012,0.033,0.02,0.068,0.032,0.102c0.068,0.195,0.129,0.394,0.184,0.596c0.026,0.099,0.053,0.196,0.076,0.296
		c0.045,0.198,0.079,0.399,0.11,0.604c0.015,0.1,0.035,0.199,0.046,0.301c0.03,0.266,0.045,0.535,0.049,0.809
		c0,0.035,0.006,0.068,0.006,0.104c0,1.979-0.703,3.795-1.874,5.209c-1.504,1.82-3.781,2.98-6.329,2.98h-33.215
		c-7.881,11.191-14.64,23.229-20.121,35.949h26.861V206.708z"/>
	<g id="Cloud_6_">
		<g id="cloud_1_">
			<g>
				<path fill="#FFFFFF" d="M320.771,121.614c-0.072,0-0.146,0.009-0.217,0.011c-1.136-6.598-6.871-11.623-13.797-11.623
					c-4.121,0-7.818,1.791-10.382,4.625c-1.73-0.914-3.699-1.437-5.792-1.437c-5.473,0-10.109,3.544-11.762,8.458
					c-0.216-0.021-0.433-0.033-0.654-0.033c-4.529,0-8.201,3.67-8.201,8.196c0,4.527,3.672,8.197,8.201,8.197h42.602
					c4.527,0,8.201-3.67,8.201-8.197C328.975,125.284,325.302,121.614,320.771,121.614z"/>
			</g>
		</g>
		<g id="dark_2_" opacity="0.051">
			<g>
				<path d="M325.702,123.271c-1.351,3.228-3.741,5.904-6.753,7.625c1.154-2.036,1.822-4.384,1.822-6.894
					c0-3.584-1.358-6.844-3.576-9.321c-1.453,7.758-6.951,14.072-14.217,16.721h-1.438c0.924-1.732,1.46-3.704,1.46-5.806
					c0-3.646-1.583-6.915-4.088-9.185c-2.026,6.115-6.643,11.042-12.547,13.503c0-0.036,0.005-0.07,0.005-0.106
					c0-2.303-0.954-4.382-2.485-5.871c-2.678,4.893-7.147,8.664-12.525,10.438c1.473,2.188,3.972,3.628,6.809,3.628h42.602
					c4.527,0,8.201-3.67,8.201-8.197C328.975,127.136,327.688,124.766,325.702,123.271z"/>
			</g>
		</g>
		<g id="_x3D_" opacity="0.902">
			<g>
				<path fill="#333333" d="M314.469,120.979c-1.505,0-1.503,0.001-1.503,1.597c0,1.044,0,1.149,0,2.825
					c0,1.596-0.002,1.597,1.503,1.597c1.506,0,1.504-0.001,1.504-1.597c0-1.676,0-1.781,0-2.825
					C315.973,120.979,315.975,120.979,314.469,120.979z M309.456,120.984c-1.491,0-1.49,0.001-1.49,1.595c0,1.044,0,1.148,0,2.822
					c0,1.595-0.001,1.595,1.49,1.595c1.489,0,1.487,0,1.487-1.595c0-1.674,0-1.778,0-2.822
					C310.943,120.985,310.945,120.984,309.456,120.984z"/>
			</g>
		</g>
	</g>
</g>
<g id="Layer_4">
	
		<linearGradient id="SVGID_48_" gradientUnits="userSpaceOnUse" x1="-198" y1="493.5259" x2="402" y2="493.5259" gradientTransform="matrix(1 0 0 -1 198 769.001)">
		<stop  offset="0" style="stop-color:#000000;stop-opacity:0"/>
		<stop  offset="0.25" style="stop-color:#231F20;stop-opacity:0.2"/>
		<stop  offset="0.75" style="stop-color:#231F20;stop-opacity:0.2"/>
		<stop  offset="1" style="stop-color:#000000;stop-opacity:0"/>
	</linearGradient>
	<rect y="274.975" fill="url(#SVGID_48_)" width="600" height="1"/>
</g>
<g id="Layer_2_1_">
	<g id="Shape_9_" enable-background="new    ">
		<path fill="#BFBFBF" d="M361.599,291.924c0,4.461-3.598,8.076-8.035,8.076H245.659c-4.438,0-8.035-3.615-8.035-8.076v-73.846
			c0-4.461,3.597-8.078,8.035-8.078h107.904c4.438,0,8.035,3.617,8.035,8.078V291.924L361.599,291.924z"/>
	</g>
	<g id="Shape_2_" enable-background="new    ">
		
			<linearGradient id="SVGID_49_" gradientUnits="userSpaceOnUse" x1="101.6113" y1="563.0005" x2="101.6113" y2="473.0005" gradientTransform="matrix(1 0 0 -1 198 769.001)">
			<stop  offset="0" style="stop-color:#FFFFFF"/>
			<stop  offset="1" style="stop-color:#E6E6E6"/>
		</linearGradient>
		<path fill="url(#SVGID_49_)" d="M361.599,287.924c0,4.461-3.598,8.076-8.035,8.076H245.659c-4.438,0-8.035-3.615-8.035-8.076
			v-73.846c0-4.461,3.597-8.078,8.035-8.078h107.904c4.438,0,8.035,3.617,8.035,8.078V287.924L361.599,287.924z"/>
	</g>
	<g id="Shape_4_" enable-background="new    ">
		<path opacity="0.2" enable-background="new    " d="M348.56,296.01h5.021c4.438,0,8.035-3.617,8.035-8.078V218.18l-61.949,43.498
			L348.56,296.01z"/>
	</g>
	<g id="Shape_6_" enable-background="new    ">
		<polygon opacity="0.12" enable-background="new    " points="250.772,296.004 348.56,296.004 299.666,261.67 		"/>
	</g>
	<g id="Shape_8_" enable-background="new    ">
		<path opacity="0.06" enable-background="new    " d="M245.676,296h5.096l48.894-34.332l-62.025-43.553v69.809
			C237.641,292.385,241.238,296,245.676,296z"/>
	</g>
	<g id="shadow_2_" enable-background="new    ">
		<path opacity="0.2" enable-background="new    " d="M361.692,219.309L361.692,219.309 M237.718,218.116l61.894,56.15
			l62.081-56.025l-62.025,43.438L237.718,218.116"/>
	</g>
	<g id="O_5_" opacity="0.102" enable-background="new    ">
		<g id="O">
			<g>
				<circle cx="361.624" cy="207.996" r="25.003"/>
			</g>
		</g>
	</g>
	<g id="O_4_" enable-background="new    ">
		<g id="O_1_">
			<g>
				<circle fill="#FFFFFF" cx="361.624" cy="206.001" r="25.003"/>
			</g>
		</g>
	</g>
	<g id="O_3_" enable-background="new    ">
		<g id="O_2_">
			<g>
				<ellipse fill="#44CE5E" cx="361.624" cy="206.003" rx="21" ry="20.986"/>
			</g>
		</g>
	</g>
	<g id="send_3_" opacity="0.102" enable-background="new    ">
		<g id="send">
			<g>
				<path d="M371.144,207.319c-0.018-0.011-14.987-7.285-14.987-7.285c-0.05-0.023-0.101-0.033-0.153-0.033
					c-0.072,0-0.145,0.021-0.207,0.062c-0.107,0.067-0.172,0.188-0.172,0.313l1,6.506c0,0.201,0.16,0.367,0.363,0.375L369.763,208
					l-12.774,0.744c-0.204,0.01-0.364,0.174-0.364,0.377l-1,6.504c0,0.125,0.064,0.246,0.172,0.314
					c0.063,0.04,0.135,0.061,0.207,0.061c0.051,0,0.104-0.01,0.152-0.031l14.781-7.19c0.364-0.138,0.688-0.389,0.688-0.782
					C371.624,207.67,371.425,207.467,371.144,207.319z"/>
			</g>
		</g>
	</g>
	<g id="send_2_" enable-background="new    ">
		<g id="send_1_">
			<g>
				<path fill="#FFFFFF" d="M371.144,205.319c-0.018-0.011-14.987-7.285-14.987-7.285c-0.05-0.023-0.101-0.033-0.153-0.033
					c-0.072,0-0.145,0.021-0.207,0.062c-0.107,0.067-0.172,0.188-0.172,0.313l1,6.506c0,0.201,0.16,0.367,0.363,0.375L369.763,206
					l-12.774,0.744c-0.204,0.01-0.364,0.174-0.364,0.377l-1,6.504c0,0.125,0.064,0.246,0.172,0.314
					c0.063,0.04,0.135,0.061,0.207,0.061c0.051,0,0.104-0.01,0.152-0.031l14.781-7.19c0.364-0.138,0.688-0.389,0.688-0.782
					C371.624,205.67,371.425,205.467,371.144,205.319z"/>
			</g>
		</g>
	</g>
</g>
</svg>
