<?xml version="1.0" encoding="utf-8"?>
<!-- Generator: Adobe Illustrator 16.0.3, SVG Export Plug-In . SVG Version: 6.00 Build 0)  -->
<!DOCTYPE svg PUBLIC "-//W3C//DTD SVG 1.1//EN" "http://www.w3.org/Graphics/SVG/1.1/DTD/svg11.dtd">
<svg version="1.1" id="Layer_1" xmlns="http://www.w3.org/2000/svg" xmlns:xlink="http://www.w3.org/1999/xlink" x="0px" y="0px"
	 width="600px" height="300px" viewBox="0 0 600 300" enable-background="new 0 0 600 300" xml:space="preserve">
<g id="Layer_2">
	<g>
		
			<radialGradient id="SVGID_1_" cx="-95.9746" cy="768.3301" r="270.2417" gradientTransform="matrix(0.9991 0 0 0.9967 395.8486 -490.6082)" gradientUnits="userSpaceOnUse">
			<stop  offset="0" style="stop-color:#000000;stop-opacity:0.3"/>
			<stop  offset="1" style="stop-color:#000000;stop-opacity:0"/>
		</radialGradient>
		<path fill="url(#SVGID_1_)" d="M299.96,5.839c-149.117,0-270,120.589-270,269.343c0,0.219,0.008,0.438,0.009,0.657h539.983
			c0.001-0.22,0.008-0.438,0.008-0.657C569.96,126.428,449.076,5.839,299.96,5.839z"/>
	</g>
</g>
<g id="Layer_3">
	<g>
		<path fill="#FFFFFF" d="M299.668,71.154c-112.666,0-204,91.334-204,204c0,0.229,0.008,0.455,0.009,0.684h407.982
			c0.001-0.229,0.009-0.455,0.009-0.684C503.668,162.489,412.334,71.154,299.668,71.154z"/>
	</g>
</g>
<g id="Layer_1_1_">
	<g>
		<path fill="none" d="M494.878,275.155h-13.405h-13.179h-8.176h-8.491h-8h-11.958h-3.375h-16.585h-7.415h-59.608h-0.025h-11.986
			h-17.62h-32.797h-13.578H247.32h-4.14h-2.272h-21.446h-3.546h-2.727h-4.317h-2.727h-0.697h-1.802h-6.589h-1.818h-2.499h-9.542
			h-1.363h-0.682h-2.499h-3.635h-1.136h-6.362H165.5h-0.251h-6.735h-5.307h-10.428h-2.272h-3.547h-21.445h-2.727h-4.317h-2.727
			h-2.499h-3.577c0,110.456,89.543,224.676,200,224.676c110.458,0,200-114.22,200-224.676h-4.618H494.878z"/>
		
			<linearGradient id="SVGID_2_" gradientUnits="userSpaceOnUse" x1="-536.7349" y1="1337.1523" x2="-536.7349" y2="1117.1523" gradientTransform="matrix(1 0 0 1 792 -1061.999)">
			<stop  offset="0.1" style="stop-color:#7CC8A5"/>
			<stop  offset="1" style="stop-color:#33BCF2"/>
		</linearGradient>
		<path fill="url(#SVGID_2_)" d="M111.474,230.487h20.819l-0.333-10.498h19v10.498h7.554v11.446h5.481v-24.729h22.25v9.951h19.203
			v15.01h6.005v5.981h8.009v-14.998h3.997v-10.983h17.013v12.976h10.99v5.02h12.988v-10.016h48.015v6.008h6.988v-8.994h14.011v8.994
			h4.136v-6.121h9.854v-10.887h30.016v30.352h3.947v-8.243h15.894v-18.091h6.983v-14.797h-7.126v-11.813h-0.001h-17.268v5.681
			h-5.229V191.1h-23.629v17.268h-6.36v-6.588h-7.043v-2.953h-9.09v9.313h-4.258v6.017h-6.839v-9.994h-17.996v7.612h-7.192v-1.215
			h-17.279v-11.508H261.58v13.857h-3.408V202.23h-6.135v7.041h-4.544v3.637h-4.317v-3.813h-27.264v-5.729h-7.043v-6.31h-13.632
			v9.489h-2.499v6.136h-5.114v-2.123h-4.43v-8.78h-4.544v7.041h-3.635v-4.544h-0.431v-5.226h-7.067v-6.229h-14.312v9.407h-1.567
			v4.328h-8.861V196.09h-26.861c-3.893,9.035-7.139,18.413-9.68,28.078h5.238V230.487z"/>
		
			<linearGradient id="SVGID_3_" gradientUnits="userSpaceOnUse" x1="-536.7349" y1="1337.6064" x2="-536.7349" y2="1117.1503" gradientTransform="matrix(1 0 0 1 792 -1061.999)">
			<stop  offset="0" style="stop-color:#74CCC5"/>
			<stop  offset="1" style="stop-color:#7DCCA9"/>
		</linearGradient>
		<path fill="url(#SVGID_3_)" d="M111.474,230.487h20.819l-0.333-10.498h19v10.498h7.554v11.446h5.481v-24.729h22.25v9.951h19.203
			v15.01h6.005v5.981h8.009v-14.998h3.997v-10.983h17.013v12.976h10.99v5.02h12.988v-10.016h48.015v6.008h6.988v-8.994h14.011v8.994
			h4.136v-6.121h9.854v-10.887h30.016v30.352h3.947v-8.243h15.894v-18.091h6.983v-14.797h-7.126v-11.813h-0.001h-17.268v5.681
			h-5.229V191.1h-23.629v17.268h-6.36v-6.588h-7.043v-2.953h-9.09v9.313h-4.258v6.017h-6.839v-9.994h-17.996v7.612h-7.192v-1.215
			h-17.279v-11.508H261.58v13.857h-3.408V202.23h-6.135v7.041h-4.544v3.637h-4.317v-3.813h-27.264v-5.729h-7.043v-6.31h-13.632
			v9.489h-2.499v6.136h-5.114v-2.123h-4.43v-8.78h-4.544v7.041h-3.635v-4.544h-0.431v-5.226h-7.067v-6.229h-14.312v9.407h-1.567
			v4.328h-8.861V196.09h-26.861c-3.893,9.035-7.139,18.413-9.68,28.078h5.238V230.487z"/>
		
			<linearGradient id="SVGID_4_" gradientUnits="userSpaceOnUse" x1="-311.4409" y1="1337.1523" x2="-311.4409" y2="1117.1523" gradientTransform="matrix(1 0 0 1 792 -1061.999)">
			<stop  offset="0.1" style="stop-color:#7CC8A5"/>
			<stop  offset="1" style="stop-color:#33BCF2"/>
		</linearGradient>
		<path fill="url(#SVGID_4_)" d="M480.61,208.366v9.996h-3.684v-15.9h-8.635v16.683h2.172v11.012h9.98v11.002h12.016V223.16h0.365
			c-1.848-6.871-4.044-13.598-6.582-20.156v5.363L480.61,208.366L480.61,208.366z"/>
		
			<linearGradient id="SVGID_5_" gradientUnits="userSpaceOnUse" x1="-311.4409" y1="1337.6064" x2="-311.4409" y2="1117.1503" gradientTransform="matrix(1 0 0 1 792 -1061.999)">
			<stop  offset="0" style="stop-color:#74CCC5"/>
			<stop  offset="1" style="stop-color:#7DCCA9"/>
		</linearGradient>
		<path fill="url(#SVGID_5_)" d="M480.61,208.366v9.996h-3.684v-15.9h-8.635v16.683h2.172v11.012h9.98v11.002h12.016V223.16h0.365
			c-1.848-6.871-4.044-13.598-6.582-20.156v5.363L480.61,208.366L480.61,208.366z"/>
		
			<linearGradient id="SVGID_6_" gradientUnits="userSpaceOnUse" x1="-374.0181" y1="1337.1494" x2="-374.0181" y2="1117.1613" gradientTransform="matrix(1 0 0 1 792 -1061.999)">
			<stop  offset="0.1" style="stop-color:#7CC8A5"/>
			<stop  offset="1" style="stop-color:#33BCF2"/>
		</linearGradient>
		<polygon fill="url(#SVGID_6_)" points="411.709,223.159 412.977,223.159 412.977,235.982 415.229,235.982 415.229,226.593 
			424.995,226.593 424.995,236.211 428.294,236.211 428.294,209.321 431.669,209.321 431.669,199.989 404.294,199.989 
			404.294,208.364 411.709,208.364 		"/>
		
			<linearGradient id="SVGID_7_" gradientUnits="userSpaceOnUse" x1="21.9819" y1="766.5586" x2="21.9819" y2="569.4252" gradientTransform="matrix(1 0 0 1 396 -490.999)">
			<stop  offset="0" style="stop-color:#74CCC5"/>
			<stop  offset="1" style="stop-color:#7DCCA9"/>
		</linearGradient>
		<polygon fill="url(#SVGID_7_)" points="411.709,223.159 412.977,223.159 412.977,235.982 415.229,235.982 415.229,226.593 
			424.995,226.593 424.995,236.211 428.294,236.211 428.294,209.321 431.669,209.321 431.669,199.989 404.294,199.989 
			404.294,208.364 411.709,208.364 		"/>
		
			<linearGradient id="SVGID_8_" gradientUnits="userSpaceOnUse" x1="-383.998" y1="1337.1514" x2="-383.9981" y2="1117.1514" gradientTransform="matrix(1 0 0 1 792 -1061.999)">
			<stop  offset="0.1" style="stop-color:#7CC8A5"/>
			<stop  offset="1" style="stop-color:#33BCF2"/>
		</linearGradient>
		<rect x="404.294" y="208.364" fill="url(#SVGID_8_)" width="7.415" height="14.795"/>
		
			<linearGradient id="SVGID_9_" gradientUnits="userSpaceOnUse" x1="-383.998" y1="1337.6055" x2="-383.9981" y2="1117.1493" gradientTransform="matrix(1 0 0 1 792 -1061.999)">
			<stop  offset="0" style="stop-color:#74CCC5"/>
			<stop  offset="1" style="stop-color:#7DCCA9"/>
		</linearGradient>
		<rect x="404.294" y="208.364" fill="url(#SVGID_9_)" width="7.415" height="14.795"/>
		
			<linearGradient id="SVGID_10_" gradientUnits="userSpaceOnUse" x1="12.002" y1="766.5586" x2="12.0019" y2="569.4199" gradientTransform="matrix(1 0 0 1 396 -490.999)">
			<stop  offset="0" style="stop-color:#74CCC5"/>
			<stop  offset="1" style="stop-color:#7DCCA9"/>
		</linearGradient>
		<rect x="404.294" y="208.364" fill="url(#SVGID_10_)" width="7.415" height="14.795"/>
		
			<linearGradient id="SVGID_11_" gradientUnits="userSpaceOnUse" x1="-354.3516" y1="1337.1494" x2="-354.3516" y2="1117.1564" gradientTransform="matrix(1 0 0 1 792 -1061.999)">
			<stop  offset="0.1" style="stop-color:#7CC8A5"/>
			<stop  offset="1" style="stop-color:#33BCF2"/>
		</linearGradient>
		<polygon fill="url(#SVGID_11_)" points="434.53,236.211 434.53,240.104 440.409,240.104 440.409,230.03 443.627,230.03 
			443.627,209.321 431.669,209.321 431.669,236.211 		"/>
		
			<linearGradient id="SVGID_12_" gradientUnits="userSpaceOnUse" x1="41.6484" y1="766.5049" x2="41.6484" y2="593.8494" gradientTransform="matrix(1 0 0 1 396 -490.999)">
			<stop  offset="0" style="stop-color:#74CCC5"/>
			<stop  offset="1" style="stop-color:#7DCCA9"/>
		</linearGradient>
		<polygon fill="url(#SVGID_12_)" points="434.53,236.211 434.53,240.104 440.409,240.104 440.409,230.03 443.627,230.03 
			443.627,209.321 431.669,209.321 431.669,236.211 		"/>
		
			<linearGradient id="SVGID_13_" gradientUnits="userSpaceOnUse" x1="-362.0181" y1="1337.1533" x2="-362.0181" y2="1117.1453" gradientTransform="matrix(1 0 0 1 792 -1061.999)">
			<stop  offset="0.1" style="stop-color:#7CC8A5"/>
			<stop  offset="1" style="stop-color:#33BCF2"/>
		</linearGradient>
		<rect x="428.294" y="209.321" fill="url(#SVGID_13_)" width="3.375" height="26.891"/>
		
			<linearGradient id="SVGID_14_" gradientUnits="userSpaceOnUse" x1="33.9819" y1="766.5605" x2="33.9819" y2="569.4147" gradientTransform="matrix(1 0 0 1 396 -490.999)">
			<stop  offset="0" style="stop-color:#74CCC5"/>
			<stop  offset="1" style="stop-color:#7DCCA9"/>
		</linearGradient>
		<rect x="428.294" y="209.321" fill="url(#SVGID_14_)" width="3.375" height="26.891"/>
		
			<linearGradient id="SVGID_15_" gradientUnits="userSpaceOnUse" x1="33.9819" y1="766.5098" x2="33.9819" y2="593.8425" gradientTransform="matrix(1 0 0 1 396 -490.999)">
			<stop  offset="0" style="stop-color:#74CCC5"/>
			<stop  offset="1" style="stop-color:#7DCCA9"/>
		</linearGradient>
		<rect x="428.294" y="209.321" fill="url(#SVGID_15_)" width="3.375" height="26.891"/>
		
			<linearGradient id="SVGID_16_" gradientUnits="userSpaceOnUse" x1="-336.0391" y1="1337.1426" x2="-336.0391" y2="1117.1731" gradientTransform="matrix(1 0 0 1 792 -1061.999)">
			<stop  offset="0.1" style="stop-color:#7CC8A5"/>
			<stop  offset="1" style="stop-color:#33BCF2"/>
		</linearGradient>
		<polygon fill="url(#SVGID_16_)" points="451.627,219.141 460.118,219.141 460.118,218.362 467.615,218.362 467.615,202.461 
			468.294,202.461 468.294,197.989 443.627,197.989 443.627,209.321 451.627,209.321 		"/>
		
			<linearGradient id="SVGID_17_" gradientUnits="userSpaceOnUse" x1="59.9609" y1="766.5605" x2="59.9609" y2="564.2043" gradientTransform="matrix(1 0 0 1 396 -490.999)">
			<stop  offset="0" style="stop-color:#74CCC5"/>
			<stop  offset="1" style="stop-color:#7DCCA9"/>
		</linearGradient>
		<polygon fill="url(#SVGID_17_)" points="451.627,219.141 460.118,219.141 460.118,218.362 467.615,218.362 467.615,202.461 
			468.294,202.461 468.294,197.989 443.627,197.989 443.627,209.321 451.627,209.321 		"/>
		
			<linearGradient id="SVGID_18_" gradientUnits="userSpaceOnUse" x1="-327.7935" y1="1337.1465" x2="-327.7935" y2="1117.1594" gradientTransform="matrix(1 0 0 1 792 -1061.999)">
			<stop  offset="0.1" style="stop-color:#7CC8A5"/>
			<stop  offset="1" style="stop-color:#33BCF2"/>
		</linearGradient>
		<polygon fill="url(#SVGID_18_)" points="467.615,202.461 467.615,218.362 460.118,218.362 460.118,219.141 468.294,219.141 
			468.294,202.461 		"/>
		
			<linearGradient id="SVGID_19_" gradientUnits="userSpaceOnUse" x1="-327.7935" y1="1337.6016" x2="-327.7935" y2="1117.1582" gradientTransform="matrix(1 0 0 1 792 -1061.999)">
			<stop  offset="0" style="stop-color:#74CCC5"/>
			<stop  offset="1" style="stop-color:#7DCCA9"/>
		</linearGradient>
		<polygon fill="url(#SVGID_19_)" points="467.615,202.461 467.615,218.362 460.118,218.362 460.118,219.141 468.294,219.141 
			468.294,202.461 		"/>
		
			<linearGradient id="SVGID_20_" gradientUnits="userSpaceOnUse" x1="68.2065" y1="766.5615" x2="68.2065" y2="564.2012" gradientTransform="matrix(1 0 0 1 396 -490.999)">
			<stop  offset="0" style="stop-color:#74CCC5"/>
			<stop  offset="1" style="stop-color:#7DCCA9"/>
		</linearGradient>
		<polygon fill="url(#SVGID_20_)" points="467.615,202.461 467.615,218.362 460.118,218.362 460.118,219.141 468.294,219.141 
			468.294,202.461 		"/>
		
			<linearGradient id="SVGID_21_" gradientUnits="userSpaceOnUse" x1="-344.3726" y1="1337.1572" x2="-344.3726" y2="1117.1365" gradientTransform="matrix(1 0 0 1 792 -1061.999)">
			<stop  offset="0.1" style="stop-color:#7CC8A5"/>
			<stop  offset="1" style="stop-color:#33BCF2"/>
		</linearGradient>
		<polygon fill="url(#SVGID_21_)" points="448.476,230.03 448.476,219.141 451.627,219.141 451.627,209.321 443.627,209.321 
			443.627,230.03 		"/>
		
			<linearGradient id="SVGID_22_" gradientUnits="userSpaceOnUse" x1="51.6274" y1="766.5137" x2="51.6274" y2="593.8365" gradientTransform="matrix(1 0 0 1 396 -490.999)">
			<stop  offset="0" style="stop-color:#74CCC5"/>
			<stop  offset="1" style="stop-color:#7DCCA9"/>
		</linearGradient>
		<polygon fill="url(#SVGID_22_)" points="448.476,230.03 448.476,219.141 451.627,219.141 451.627,209.321 443.627,209.321 
			443.627,230.03 		"/>
		
			<linearGradient id="SVGID_23_" gradientUnits="userSpaceOnUse" x1="51.6274" y1="766.5742" x2="51.6274" y2="564.171" gradientTransform="matrix(1 0 0 1 396 -490.999)">
			<stop  offset="0" style="stop-color:#74CCC5"/>
			<stop  offset="1" style="stop-color:#7DCCA9"/>
		</linearGradient>
		<polygon fill="url(#SVGID_23_)" points="448.476,230.03 448.476,219.141 451.627,219.141 451.627,209.321 443.627,209.321 
			443.627,230.03 		"/>
		
			<linearGradient id="SVGID_24_" gradientUnits="userSpaceOnUse" x1="-540.019" y1="1337.1543" x2="-540.019" y2="1117.1506" gradientTransform="matrix(1 0 0 1 792 -1061.999)">
			<stop  offset="0.1" style="stop-color:#7CC8A5"/>
			<stop  offset="1" style="stop-color:#33BCF2"/>
		</linearGradient>
		<path fill="url(#SVGID_24_)" d="M105.744,275.155h2.727h4.317h2.727h21.445h3.547h2.272h10.428h5.307h6.735h0.251h2.021h6.362
			h1.136h3.635h2.499h0.682h1.363h9.542h2.499h1.818h6.589h1.802h0.697h2.727h4.317h2.727h3.546h21.446h2.272h4.14h21.357h13.578
			h32.797h17.62h11.986h0.024h59.609v-51.996h-6.983v18.092h-15.894v8.242h-3.947v-30.353h-30.016v10.89h-9.855v6.118h-4.135v-8.991
			h-14.011v8.991h-6.988v-6.006H264.45v10.015h-12.988v-5.019h-10.99v-12.975h-17.013v10.984h-3.997v14.998h-8.009v-5.984h-6.005
			v-15.008h-19.203v-9.951h-22.25v24.73h-5.481v-11.447h-7.554v-10.498h-19l0.333,10.498h-20.819v-6.316h-5.238
			c-4.279,16.277-6.567,33.363-6.567,50.984h3.577L105.744,275.155L105.744,275.155z"/>
		
			<linearGradient id="SVGID_25_" gradientUnits="userSpaceOnUse" x1="-540.019" y1="1337.6074" x2="-540.019" y2="1117.1475" gradientTransform="matrix(1 0 0 1 792 -1061.999)">
			<stop  offset="0" style="stop-color:#74CCC5"/>
			<stop  offset="1" style="stop-color:#7DCCA9"/>
		</linearGradient>
		<path fill="url(#SVGID_25_)" d="M105.744,275.155h2.727h4.317h2.727h21.445h3.547h2.272h10.428h5.307h6.735h0.251h2.021h6.362
			h1.136h3.635h2.499h0.682h1.363h9.542h2.499h1.818h6.589h1.802h0.697h2.727h4.317h2.727h3.546h21.446h2.272h4.14h21.357h13.578
			h32.797h17.62h11.986h0.024h59.609v-51.996h-6.983v18.092h-15.894v8.242h-3.947v-30.353h-30.016v10.89h-9.855v6.118h-4.135v-8.991
			h-14.011v8.991h-6.988v-6.006H264.45v10.015h-12.988v-5.019h-10.99v-12.975h-17.013v10.984h-3.997v14.998h-8.009v-5.984h-6.005
			v-15.008h-19.203v-9.951h-22.25v24.73h-5.481v-11.447h-7.554v-10.498h-19l0.333,10.498h-20.819v-6.316h-5.238
			c-4.279,16.277-6.567,33.363-6.567,50.984h3.577L105.744,275.155L105.744,275.155z"/>
		
			<linearGradient id="SVGID_26_" gradientUnits="userSpaceOnUse" x1="-308.0186" y1="1337.1543" x2="-308.0186" y2="1117.1428" gradientTransform="matrix(1 0 0 1 792 -1061.999)">
			<stop  offset="0.1" style="stop-color:#7CC8A5"/>
			<stop  offset="1" style="stop-color:#33BCF2"/>
		</linearGradient>
		<path fill="url(#SVGID_26_)" d="M492.462,223.159v17.998h-12.016v-11.002h-9.98v-11.015h-2.172v56.015h13.179h13.405h0.172h4.618
			c0-17.988-2.389-35.414-6.841-51.996H492.462z"/>
		
			<linearGradient id="SVGID_27_" gradientUnits="userSpaceOnUse" x1="-308.0186" y1="1337.6074" x2="-308.0186" y2="1117.1398" gradientTransform="matrix(1 0 0 1 792 -1061.999)">
			<stop  offset="0" style="stop-color:#74CCC5"/>
			<stop  offset="1" style="stop-color:#7DCCA9"/>
		</linearGradient>
		<path fill="url(#SVGID_27_)" d="M492.462,223.159v17.998h-12.016v-11.002h-9.98v-11.015h-2.172v56.015h13.179h13.405h0.172h4.618
			c0-17.988-2.389-35.414-6.841-51.996H492.462z"/>
		
			<linearGradient id="SVGID_28_" gradientUnits="userSpaceOnUse" x1="-371.998" y1="1337.1543" x2="-371.9981" y2="1117.1461" gradientTransform="matrix(1 0 0 1 792 -1061.999)">
			<stop  offset="0.1" style="stop-color:#7CC8A5"/>
			<stop  offset="1" style="stop-color:#33BCF2"/>
		</linearGradient>
		<polygon fill="url(#SVGID_28_)" points="424.995,236.211 424.995,226.593 415.229,226.593 415.229,235.982 412.977,235.982 
			412.977,223.159 411.709,223.159 411.709,275.155 428.294,275.155 428.294,236.211 		"/>
		
			<linearGradient id="SVGID_29_" gradientUnits="userSpaceOnUse" x1="24.002" y1="766.5605" x2="24.0019" y2="569.4143" gradientTransform="matrix(1 0 0 1 396 -490.999)">
			<stop  offset="0" style="stop-color:#74CCC5"/>
			<stop  offset="1" style="stop-color:#7DCCA9"/>
		</linearGradient>
		<polygon fill="url(#SVGID_29_)" points="424.995,236.211 424.995,226.593 415.229,226.593 415.229,235.982 412.977,235.982 
			412.977,223.159 411.709,223.159 411.709,275.155 428.294,275.155 428.294,236.211 		"/>
		
			<linearGradient id="SVGID_30_" gradientUnits="userSpaceOnUse" x1="-383.998" y1="1337.1543" x2="-383.9981" y2="1117.1461" gradientTransform="matrix(1 0 0 1 792 -1061.999)">
			<stop  offset="0.1" style="stop-color:#7CC8A5"/>
			<stop  offset="1" style="stop-color:#33BCF2"/>
		</linearGradient>
		<rect x="404.294" y="223.159" fill="url(#SVGID_30_)" width="7.415" height="51.996"/>
		
			<linearGradient id="SVGID_31_" gradientUnits="userSpaceOnUse" x1="-383.998" y1="1337.6074" x2="-383.9981" y2="1117.1431" gradientTransform="matrix(1 0 0 1 792 -1061.999)">
			<stop  offset="0" style="stop-color:#74CCC5"/>
			<stop  offset="1" style="stop-color:#7DCCA9"/>
		</linearGradient>
		<rect x="404.294" y="223.159" fill="url(#SVGID_31_)" width="7.415" height="51.996"/>
		
			<linearGradient id="SVGID_32_" gradientUnits="userSpaceOnUse" x1="12.002" y1="766.5605" x2="12.0019" y2="569.4143" gradientTransform="matrix(1 0 0 1 396 -490.999)">
			<stop  offset="0" style="stop-color:#74CCC5"/>
			<stop  offset="1" style="stop-color:#7DCCA9"/>
		</linearGradient>
		<rect x="404.294" y="223.159" fill="url(#SVGID_32_)" width="7.415" height="51.996"/>
		
			<linearGradient id="SVGID_33_" gradientUnits="userSpaceOnUse" x1="-354.3516" y1="1337.1543" x2="-354.3516" y2="1117.1543" gradientTransform="matrix(1 0 0 1 792 -1061.999)">
			<stop  offset="0.1" style="stop-color:#7CC8A5"/>
			<stop  offset="1" style="stop-color:#33BCF2"/>
		</linearGradient>
		<polygon fill="url(#SVGID_33_)" points="440.409,230.03 440.409,240.104 434.53,240.104 434.53,236.211 431.669,236.211 
			431.669,275.155 443.627,275.155 443.627,230.03 		"/>
		
			<linearGradient id="SVGID_34_" gradientUnits="userSpaceOnUse" x1="41.6484" y1="766.5098" x2="41.6484" y2="593.8489" gradientTransform="matrix(1 0 0 1 396 -490.999)">
			<stop  offset="0" style="stop-color:#74CCC5"/>
			<stop  offset="1" style="stop-color:#7DCCA9"/>
		</linearGradient>
		<polygon fill="url(#SVGID_34_)" points="440.409,230.03 440.409,240.104 434.53,240.104 434.53,236.211 431.669,236.211 
			431.669,275.155 443.627,275.155 443.627,230.03 		"/>
		
			<linearGradient id="SVGID_35_" gradientUnits="userSpaceOnUse" x1="-362.0181" y1="1337.1533" x2="-362.0181" y2="1117.1423" gradientTransform="matrix(1 0 0 1 792 -1061.999)">
			<stop  offset="0.1" style="stop-color:#7CC8A5"/>
			<stop  offset="1" style="stop-color:#33BCF2"/>
		</linearGradient>
		<rect x="428.294" y="236.211" fill="url(#SVGID_35_)" width="3.375" height="38.943"/>
		
			<linearGradient id="SVGID_36_" gradientUnits="userSpaceOnUse" x1="33.9819" y1="766.5605" x2="33.9819" y2="569.4169" gradientTransform="matrix(1 0 0 1 396 -490.999)">
			<stop  offset="0" style="stop-color:#74CCC5"/>
			<stop  offset="1" style="stop-color:#7DCCA9"/>
		</linearGradient>
		<rect x="428.294" y="236.211" fill="url(#SVGID_36_)" width="3.375" height="38.943"/>
		
			<linearGradient id="SVGID_37_" gradientUnits="userSpaceOnUse" x1="33.9819" y1="766.5098" x2="33.9819" y2="593.8445" gradientTransform="matrix(1 0 0 1 396 -490.999)">
			<stop  offset="0" style="stop-color:#74CCC5"/>
			<stop  offset="1" style="stop-color:#7DCCA9"/>
		</linearGradient>
		<rect x="428.294" y="236.211" fill="url(#SVGID_37_)" width="3.375" height="38.943"/>
		
			<linearGradient id="SVGID_38_" gradientUnits="userSpaceOnUse" x1="-336.127" y1="1337.1543" x2="-336.127" y2="1117.1428" gradientTransform="matrix(1 0 0 1 792 -1061.999)">
			<stop  offset="0.1" style="stop-color:#7CC8A5"/>
			<stop  offset="1" style="stop-color:#33BCF2"/>
		</linearGradient>
		<rect x="451.627" y="219.141" fill="url(#SVGID_38_)" width="8.491" height="56.015"/>
		
			<linearGradient id="SVGID_39_" gradientUnits="userSpaceOnUse" x1="59.873" y1="766.5703" x2="59.873" y2="564.1756" gradientTransform="matrix(1 0 0 1 396 -490.999)">
			<stop  offset="0" style="stop-color:#74CCC5"/>
			<stop  offset="1" style="stop-color:#7DCCA9"/>
		</linearGradient>
		<rect x="451.627" y="219.141" fill="url(#SVGID_39_)" width="8.491" height="56.015"/>
		
			<linearGradient id="SVGID_40_" gradientUnits="userSpaceOnUse" x1="-327.7935" y1="1337.1543" x2="-327.7935" y2="1117.1428" gradientTransform="matrix(1 0 0 1 792 -1061.999)">
			<stop  offset="0.1" style="stop-color:#7CC8A5"/>
			<stop  offset="1" style="stop-color:#33BCF2"/>
		</linearGradient>
		<rect x="460.118" y="219.141" fill="url(#SVGID_40_)" width="8.176" height="56.015"/>
		
			<linearGradient id="SVGID_41_" gradientUnits="userSpaceOnUse" x1="-327.7935" y1="1337.6074" x2="-327.7935" y2="1117.1398" gradientTransform="matrix(1 0 0 1 792 -1061.999)">
			<stop  offset="0" style="stop-color:#74CCC5"/>
			<stop  offset="1" style="stop-color:#7DCCA9"/>
		</linearGradient>
		<rect x="460.118" y="219.141" fill="url(#SVGID_41_)" width="8.176" height="56.015"/>
		
			<linearGradient id="SVGID_42_" gradientUnits="userSpaceOnUse" x1="68.2065" y1="766.5703" x2="68.2065" y2="564.1756" gradientTransform="matrix(1 0 0 1 396 -490.999)">
			<stop  offset="0" style="stop-color:#74CCC5"/>
			<stop  offset="1" style="stop-color:#7DCCA9"/>
		</linearGradient>
		<rect x="460.118" y="219.141" fill="url(#SVGID_42_)" width="8.176" height="56.015"/>
		
			<linearGradient id="SVGID_43_" gradientUnits="userSpaceOnUse" x1="-344.3726" y1="1337.1543" x2="-344.3726" y2="1117.1428" gradientTransform="matrix(1 0 0 1 792 -1061.999)">
			<stop  offset="0.1" style="stop-color:#7CC8A5"/>
			<stop  offset="1" style="stop-color:#33BCF2"/>
		</linearGradient>
		<polygon fill="url(#SVGID_43_)" points="448.476,219.141 448.476,230.03 443.627,230.03 443.627,275.155 451.627,275.155 
			451.627,219.141 		"/>
		
			<linearGradient id="SVGID_44_" gradientUnits="userSpaceOnUse" x1="51.6274" y1="766.5098" x2="51.6274" y2="593.8397" gradientTransform="matrix(1 0 0 1 396 -490.999)">
			<stop  offset="0" style="stop-color:#74CCC5"/>
			<stop  offset="1" style="stop-color:#7DCCA9"/>
		</linearGradient>
		<polygon fill="url(#SVGID_44_)" points="448.476,219.141 448.476,230.03 443.627,230.03 443.627,275.155 451.627,275.155 
			451.627,219.141 		"/>
		
			<linearGradient id="SVGID_45_" gradientUnits="userSpaceOnUse" x1="51.6274" y1="766.5703" x2="51.6274" y2="564.1756" gradientTransform="matrix(1 0 0 1 396 -490.999)">
			<stop  offset="0" style="stop-color:#74CCC5"/>
			<stop  offset="1" style="stop-color:#7DCCA9"/>
		</linearGradient>
		<polygon fill="url(#SVGID_45_)" points="448.476,219.141 448.476,230.03 443.627,230.03 443.627,275.155 451.627,275.155 
			451.627,219.141 		"/>
		
			<linearGradient id="SVGID_46_" gradientUnits="userSpaceOnUse" x1="-96.3315" y1="766.1533" x2="-96.3316" y2="538.4865" gradientTransform="matrix(1 0 0 1 396 -490.999)">
			<stop  offset="0" style="stop-color:#91D5C5"/>
			<stop  offset="1" style="stop-color:#7ECCAA"/>
		</linearGradient>
		<path fill="url(#SVGID_46_)" d="M492.827,223.159h-0.365v17.998h-12.016v-11.002h-9.98v-11.015h-2.172h-1.334h-6.842h-2.49h-6.001
			h-0.917h-2.234v10.89h-4.849h-0.917h-2.301v10.073h-5.879v-3.894h-2.861h-0.709h-2.666h-0.834h-2.465v-9.617h-9.767v9.39h-2.254
			v-12.823h-1.268h-0.999h-6.416h-1.333h-5.648v18.092h-15.895v8.242h-3.947v-30.353h-30.016v10.89H337.6v6.118h-4.136v-8.991
			h-14.011v8.991h-6.988v-6.006H264.45v10.015h-12.988v-5.019h-10.99v-12.975h-17.013v10.984h-3.997v14.998h-8.009v-5.984h-6.005
			v-15.008h-19.203v-9.951h-22.25v24.73h-5.481v-11.447h-7.554v-10.498h-19l0.333,10.498h-20.819v-6.316h-5.238
			c-4.279,16.277-6.567,33.363-6.567,50.984h3.577h2.499h2.727h4.317h2.727h21.444h3.547h2.272h10.428h5.307h6.735h0.251h2.021
			h6.362h1.136h3.635h2.499h0.682h1.363h9.542h2.499h1.818h6.589h1.802h0.697h2.727h4.317h2.727h3.546h21.446h2.272h4.14h21.357
			h13.578h32.797h17.62h11.986h0.024h58.276h1.334h6.416h0.999h15.751h0.834h2.666h0.709h11.041h0.917h7.083h0.917h6.001h2.49h6.842
			h1.334h13.179h13.405h0.172h4.618C499.668,257.167,497.279,239.741,492.827,223.159z"/>
		<path fill="#FFFFFF" d="M408.438,149.038c-0.227-0.033-0.446-0.075-0.666-0.127C407.989,148.963,408.211,149.004,408.438,149.038z
			"/>
		<path fill="#FFFFFF" d="M404.052,146.905c-0.162-0.152-0.314-0.313-0.465-0.478C403.735,146.592,403.89,146.752,404.052,146.905z"
			/>
		<path fill="#FFFFFF" d="M404.78,147.513c-0.179-0.131-0.351-0.269-0.517-0.415C404.432,147.245,404.604,147.382,404.78,147.513z"
			/>
		<path opacity="0.8" fill="#D9E0E2" enable-background="new    " d="M422.088,124.352c-5.473,0-10.109,3.539-11.762,8.447
			c-0.216-0.018-0.437-0.033-0.653-0.033c-4.528,0-8.201,3.665-8.201,8.188c0,1.689,0.516,3.261,1.395,4.564
			c5.377-1.775,9.845-5.541,12.521-10.429c1.531,1.487,2.485,3.563,2.485,5.864c0,0.035-0.005,0.07-0.006,0.105
			c5.9-2.457,10.521-7.38,12.547-13.488c2.505,2.268,4.088,5.533,4.088,9.174c0,2.101-0.536,4.07-1.461,5.801h1.438
			c3.552-1.293,6.676-3.465,9.115-6.248c-4.246-4.4-8.687-8.609-13.315-12.605c-0.873,0.609-1.685,1.307-2.396,2.094
			C426.149,124.874,424.181,124.352,422.088,124.352z"/>
		<path fill="#FFFFFF" d="M406.591,148.538c-0.569-0.23-1.105-0.523-1.604-0.871C405.483,148.014,406.021,148.307,406.591,148.538z"
			/>
		<path fill="#FFFFFF" d="M407.476,148.835c-0.219-0.062-0.432-0.132-0.643-0.208C407.044,148.704,407.257,148.776,407.476,148.835z
			"/>
		<path fill="#FFFFFF" d="M409.673,149.141c-0.326,0-0.646-0.023-0.963-0.061C409.026,149.118,409.347,149.141,409.673,149.141
			h42.601c0.839,0,1.646-0.127,2.406-0.359h-0.001c-0.761,0.232-1.566,0.359-2.405,0.359H409.673z"/>
		<path fill="#FFFFFF" d="M403.42,146.245c-0.197-0.231-0.384-0.473-0.555-0.725C403.036,145.774,403.223,146.012,403.42,146.245z"
			/>
		<path opacity="0.8" fill="#C7D1D3" enable-background="new    " d="M434.479,142.545h-1.438c0.925-1.73,1.461-3.7,1.461-5.801
			c0-3.641-1.583-6.906-4.088-9.174c-2.026,6.107-6.646,11.031-12.547,13.488c0.001-0.035,0.006-0.07,0.006-0.105
			c0-2.301-0.954-4.377-2.485-5.864c-2.678,4.888-7.146,8.653-12.521,10.429l0,0l0.001,0.002c0.171,0.252,0.355,0.492,0.555,0.725
			c0.054,0.063,0.111,0.121,0.167,0.184c0.148,0.165,0.303,0.324,0.465,0.477c0.07,0.065,0.144,0.131,0.214,0.194
			c0.166,0.146,0.339,0.283,0.517,0.415c0.066,0.051,0.135,0.104,0.205,0.152c0.498,0.349,1.035,0.642,1.604,0.873
			c0.08,0.031,0.161,0.059,0.242,0.088c0.211,0.078,0.424,0.148,0.644,0.208c0.099,0.026,0.194,0.052,0.296,0.075
			c0.219,0.053,0.438,0.094,0.665,0.127c0.092,0.015,0.182,0.031,0.272,0.043c0.316,0.037,0.637,0.061,0.963,0.061h42.602
			c0.838,0,1.646-0.127,2.404-0.359c-3.521-4.315-7.221-8.479-11.085-12.484C441.152,139.081,438.028,141.252,434.479,142.545z"/>
		<path fill="#FFFFFF" d="M203.252,139.13c0.046,0.202,0.082,0.409,0.112,0.616C203.334,139.54,203.299,139.333,203.252,139.13z"/>
		<path fill="#FFFFFF" d="M202.991,138.235c0.071,0.201,0.132,0.403,0.188,0.61C203.124,138.638,203.062,138.436,202.991,138.235z"
			/>
		<path fill="#FFFFFF" d="M202.609,137.331c0.109,0.219,0.208,0.443,0.298,0.674C202.817,137.774,202.718,137.55,202.609,137.331z"
			/>
		<path opacity="0.8" fill="#D9E0E2" enable-background="new    " d="M165.675,136.852c0-0.004,0.001-0.006,0.002-0.009
			c0.03,0.034,0.057,0.071,0.087,0.106c0.188,0.215,0.368,0.436,0.543,0.662c0.03,0.039,0.063,0.074,0.093,0.113
			c3.209-2.629,5.672-6.131,7.006-10.154c2.505,2.269,4.088,5.533,4.088,9.176c0,2.099-0.536,4.068-1.46,5.799h1.439
			c7.261-2.645,12.756-8.949,14.212-16.693c-2.561-2.869-6.279-4.685-10.433-4.685c-4.123,0-7.818,1.788-10.382,4.618
			c-0.92-0.485-1.912-0.85-2.95-1.096c-2.971,2.604-5.863,5.295-8.675,8.068C161.761,133.508,163.973,134.946,165.675,136.852z"/>
		<path opacity="0.8" fill="#D9E0E2" enable-background="new    " d="M193.44,142.038c3.01-1.719,5.402-4.393,6.752-7.616
			c0.981,0.739,1.791,1.692,2.36,2.791c-1.362-2.64-4.111-4.447-7.29-4.447c-0.071,0-0.141,0.009-0.212,0.011
			c0.134,0.773,0.213,1.566,0.213,2.379C195.263,137.661,194.595,140.005,193.44,142.038z"/>
		<path fill="#FFFFFF" d="M203.409,140.036c0.03,0.27,0.046,0.543,0.05,0.82C203.456,140.579,203.439,140.305,203.409,140.036z"/>
		<path fill="#FFFFFF" d="M192.567,126.94c0.146,0.199,0.282,0.404,0.417,0.61C192.85,127.343,192.712,127.138,192.567,126.94z"/>
		<path fill="#FFFFFF" d="M191.77,125.944c0.191,0.219,0.374,0.444,0.552,0.674C192.144,126.387,191.961,126.163,191.77,125.944z"/>
		<path fill="#FFFFFF" d="M194.398,130.352c0.015,0.041,0.027,0.082,0.042,0.122C194.425,130.434,194.412,130.393,194.398,130.352z"
			/>
		<path fill="#FFFFFF" d="M193.894,129.159c0.051,0.106,0.095,0.215,0.144,0.322C193.989,129.374,193.944,129.265,193.894,129.159z"
			/>
		<path fill="#FFFFFF" d="M193.28,128.016c0.096,0.161,0.184,0.326,0.274,0.49C193.465,128.342,193.376,128.176,193.28,128.016z"/>
		<path opacity="0.8" fill="#C7D1D3" enable-background="new    " d="M177.473,142.545h-1.439c0.924-1.73,1.46-3.7,1.46-5.799
			c0-3.643-1.583-6.907-4.088-9.176c-1.334,4.022-3.797,7.525-7.006,10.154c0.055,0.072,0.107,0.146,0.161,0.219
			c0.142,0.195,0.276,0.396,0.408,0.6c0.104,0.158,0.207,0.316,0.304,0.479c0.093,0.156,0.179,0.316,0.266,0.477
			c0.121,0.22,0.238,0.439,0.347,0.666c0.048,0.102,0.091,0.205,0.137,0.307c0.131,0.292,0.255,0.586,0.367,0.889
			c0.013,0.033,0.023,0.067,0.035,0.103c0.269,0.745,0.478,1.519,0.615,2.315c0.071-0.002,0.141-0.01,0.212-0.01
			c3.177,0,5.926,1.805,7.288,4.441c0.023,0.043,0.042,0.089,0.064,0.133c0.106,0.215,0.203,0.434,0.291,0.658
			c0.019,0.048,0.04,0.094,0.058,0.143h18.311h0.001c4.529,0,8.201-3.666,8.201-8.189c0-0.032-0.005-0.064-0.006-0.098
			c-0.003-0.275-0.02-0.55-0.05-0.818c-0.011-0.098-0.03-0.192-0.044-0.289c-0.031-0.209-0.066-0.416-0.112-0.617
			c-0.022-0.096-0.048-0.188-0.073-0.285c-0.056-0.207-0.117-0.41-0.188-0.609c-0.027-0.078-0.055-0.154-0.084-0.23
			c-0.09-0.229-0.188-0.455-0.298-0.674c-0.02-0.041-0.037-0.08-0.057-0.119c-0.569-1.098-1.379-2.051-2.36-2.791
			c-1.35,3.225-3.742,5.896-6.752,7.617c1.155-2.033,1.823-4.379,1.823-6.883c0-0.813-0.079-1.605-0.213-2.379
			c-0.137-0.793-0.345-1.563-0.611-2.303c-0.015-0.039-0.027-0.082-0.042-0.121c-0.109-0.297-0.232-0.586-0.36-0.871
			c-0.048-0.107-0.093-0.217-0.144-0.322c-0.106-0.223-0.222-0.438-0.339-0.653c-0.09-0.165-0.178-0.33-0.274-0.49
			c-0.095-0.157-0.195-0.312-0.296-0.466c-0.135-0.207-0.271-0.412-0.417-0.609c-0.08-0.109-0.163-0.215-0.246-0.322
			c-0.178-0.229-0.36-0.455-0.552-0.674c-0.029-0.033-0.054-0.067-0.083-0.101c0,0.002-0.001,0.005-0.002,0.009
			C190.229,133.596,184.734,139.901,177.473,142.545z"/>
		<path fill="#EDF9FC" d="M177.244,150.134c0.045,0.198,0.079,0.399,0.11,0.604C177.323,150.536,177.289,150.333,177.244,150.134z"
			/>
		<path fill="#EDF9FC" d="M177.4,151.04c0.03,0.267,0.045,0.535,0.049,0.81C177.445,151.575,177.43,151.305,177.4,151.04z"/>
		<path fill="#EDF9FC" d="M175.582,157.163c-1.504,1.817-3.78,2.979-6.328,2.979h-33.216l-0.001,0.002h33.216
			C171.801,160.143,174.078,158.982,175.582,157.163z"/>
		<path fill="#EDF9FC" d="M176.984,149.243c0.069,0.195,0.129,0.395,0.184,0.597C177.114,149.637,177.053,149.438,176.984,149.243z"
			/>
		<path fill="#EDF9FC" d="M166.307,137.612c-0.175-0.228-0.355-0.447-0.543-0.662C165.952,137.163,166.131,137.385,166.307,137.612z
			"/>
		<path fill="#EDF9FC" d="M176.895,149c-0.087-0.225-0.185-0.443-0.291-0.658C176.711,148.556,176.808,148.776,176.895,149z"/>
		<path fill="#EDF9FC" d="M168.425,141.461c-0.012-0.034-0.022-0.068-0.035-0.104C168.402,141.393,168.413,141.427,168.425,141.461z
			"/>
		<path fill="#EDF3F4" d="M151.484,147.745c0,2.1-0.536,4.069-1.46,5.801h1.436c7.263-2.646,12.758-8.949,14.215-16.693
			c-1.702-1.906-3.914-3.345-6.43-4.094c-3.12,3.077-6.137,6.256-9.05,9.531C151.012,143.936,151.484,145.782,151.484,147.745z"/>
		<path fill="#EDF3F4" d="M169.252,143.766c-0.071,0-0.141,0.008-0.212,0.012c0.134,0.772,0.213,1.564,0.213,2.377
			c0,2.504-0.668,4.85-1.823,6.883c3.01-1.72,5.402-4.391,6.752-7.615c0.98,0.738,1.789,1.689,2.358,2.787
			C175.178,145.573,172.429,143.766,169.252,143.766z"/>
		<path fill="#EDF9FC" d="M166.969,138.543c-0.132-0.203-0.267-0.403-0.408-0.6C166.703,138.139,166.837,138.341,166.969,138.543z"
			/>
		<path fill="#EDF9FC" d="M168.023,140.471c-0.045-0.104-0.089-0.206-0.137-0.307C167.935,140.265,167.977,140.37,168.023,140.471z"
			/>
		<path fill="#EDF9FC" d="M167.539,139.497c-0.087-0.159-0.173-0.319-0.266-0.475C167.366,139.177,167.452,139.338,167.539,139.497z
			"/>
		<path opacity="0.8" fill="#D9E0E2" enable-background="new    " d="M175.582,157.163c1.17-1.416,1.874-3.229,1.874-5.209
			c0-0.035-0.006-0.069-0.006-0.104c-0.003-0.272-0.019-0.543-0.049-0.811c-0.011-0.102-0.031-0.2-0.046-0.301
			c-0.031-0.203-0.065-0.406-0.11-0.604c-0.023-0.1-0.05-0.197-0.076-0.296c-0.055-0.202-0.115-0.399-0.184-0.597
			c-0.012-0.032-0.02-0.067-0.032-0.103c-0.018-0.048-0.039-0.094-0.058-0.143c-0.087-0.223-0.184-0.443-0.291-0.657
			c-0.022-0.044-0.042-0.089-0.064-0.134c-0.569-1.096-1.377-2.047-2.358-2.786c-1.35,3.224-3.742,5.897-6.752,7.616
			c1.155-2.034,1.823-4.379,1.823-6.885c0-0.812-0.079-1.604-0.213-2.377c-0.138-0.797-0.347-1.57-0.615-2.315
			c-0.012-0.034-0.022-0.069-0.035-0.103c-0.111-0.303-0.236-0.597-0.367-0.889c-0.046-0.102-0.088-0.206-0.137-0.307
			c-0.109-0.227-0.227-0.447-0.347-0.666c-0.087-0.16-0.173-0.32-0.266-0.477c-0.098-0.162-0.201-0.32-0.304-0.479
			c-0.132-0.202-0.266-0.404-0.408-0.6c-0.054-0.072-0.106-0.146-0.161-0.219c-0.03-0.039-0.063-0.074-0.093-0.113
			c-0.175-0.227-0.354-0.449-0.543-0.662c-0.03-0.035-0.057-0.072-0.087-0.106c0,0.003-0.001,0.005-0.002,0.009
			c-1.457,7.744-6.952,14.049-14.215,16.693h-1.436c0.924-1.73,1.46-3.701,1.46-5.801c0-1.963-0.472-3.809-1.289-5.455
			c-5.045,5.672-9.776,11.629-14.158,17.852h33.216C171.801,160.141,174.078,158.98,175.582,157.163z"/>
	</g>
	
		<linearGradient id="SVGID_47_" gradientUnits="userSpaceOnUse" x1="-490.9165" y1="1337.1523" x2="-490.9165" y2="1117.1538" gradientTransform="matrix(1 0 0 1 792 -1061.999)">
		<stop  offset="0.1" style="stop-color:#7CC8A5"/>
		<stop  offset="1" style="stop-color:#33BCF2"/>
	</linearGradient>
	<path fill="url(#SVGID_47_)" d="M142.777,206.557h8.861v-4.33h1.567v-9.405h14.314v6.229h7.067v5.228h0.431v4.543h3.635v-7.043
		h4.544v8.781h4.43v2.123h5.114v-6.136h2.499v-9.489h13.632v6.311h7.043v5.729h27.264v3.813h4.317v-3.636h4.544v-7.043h6.135v10.679
		h3.408V199.05h13.405v11.509h17.279v1.215h7.192v-7.612h17.996v9.991h6.839v-6.015h4.258v-9.313h9.09v2.952h7.043v6.589h6.36V191.1
		h23.629v11.133h5.229v-5.681h17.268h0.001v11.813h7.126v-8.377h27.375v9.334h11.958v-11.334h24.667v4.474h8.635v15.901h3.684
		v-9.996h5.635v-5.364c-7.658-19.79-18.371-38.056-31.565-54.22c-0.762,0.232-1.567,0.359-2.405,0.359h-42.602
		c-0.326,0-0.646-0.023-0.963-0.063c-0.093-0.01-0.183-0.026-0.271-0.041c-0.228-0.034-0.447-0.076-0.666-0.127
		c-0.102-0.023-0.197-0.049-0.297-0.076c-0.219-0.061-0.432-0.131-0.643-0.208c-0.081-0.03-0.162-0.056-0.242-0.089
		c-0.568-0.23-1.105-0.523-1.604-0.871c-0.07-0.049-0.139-0.102-0.205-0.153c-0.178-0.132-0.351-0.269-0.516-0.415
		c-0.071-0.064-0.145-0.128-0.215-0.195c-0.162-0.151-0.314-0.313-0.465-0.477c-0.056-0.062-0.113-0.12-0.167-0.185
		c-0.196-0.231-0.384-0.471-0.555-0.725h-0.001l0,0c-0.879-1.306-1.395-2.875-1.395-4.566c0-4.521,3.672-8.186,8.201-8.186
		c0.219,0,0.438,0.014,0.653,0.032c1.651-4.907,6.289-8.448,11.762-8.448c2.093,0,4.063,0.521,5.792,1.436
		c0.714-0.789,1.523-1.485,2.396-2.096c-35.043-30.246-80.689-48.538-130.61-48.538c-50.465,0-96.558,18.699-131.748,49.536
		c1.038,0.246,2.03,0.61,2.95,1.096c2.564-2.83,6.259-4.619,10.382-4.619c4.154,0,7.872,1.816,10.433,4.686
		c0-0.003,0.001-0.006,0.002-0.009c0.029,0.033,0.054,0.067,0.083,0.101c0.191,0.219,0.374,0.443,0.552,0.674
		c0.083,0.106,0.166,0.213,0.246,0.322c0.145,0.198,0.282,0.402,0.417,0.609c0.101,0.154,0.201,0.309,0.296,0.466
		c0.096,0.161,0.185,0.326,0.274,0.49c0.118,0.215,0.233,0.431,0.339,0.653c0.05,0.104,0.096,0.215,0.144,0.322
		c0.128,0.285,0.251,0.574,0.36,0.871c0.015,0.041,0.027,0.082,0.042,0.121c0.266,0.741,0.474,1.508,0.611,2.303
		c0.071-0.002,0.141-0.012,0.212-0.012c3.179,0,5.928,1.81,7.29,4.447c0.021,0.039,0.038,0.078,0.057,0.119
		c0.109,0.22,0.208,0.443,0.298,0.674c0.03,0.076,0.057,0.152,0.084,0.23c0.07,0.199,0.133,0.402,0.188,0.609
		c0.025,0.096,0.051,0.188,0.073,0.285c0.046,0.203,0.082,0.408,0.112,0.617c0.015,0.097,0.033,0.191,0.044,0.289
		c0.03,0.27,0.046,0.541,0.05,0.818c0,0.033,0.006,0.065,0.006,0.098c0,4.522-3.672,8.188-8.201,8.188h-0.001h-18.311
		c0.012,0.033,0.02,0.067,0.032,0.104c0.068,0.195,0.129,0.394,0.184,0.596c0.026,0.1,0.053,0.195,0.076,0.296
		c0.045,0.198,0.079,0.399,0.11,0.604c0.015,0.101,0.035,0.199,0.046,0.302c0.03,0.266,0.045,0.535,0.049,0.809
		c0,0.035,0.006,0.068,0.006,0.104c0,1.979-0.703,3.795-1.874,5.209c-1.504,1.82-3.781,2.979-6.329,2.979h-33.215
		c-7.881,11.191-14.64,23.229-20.121,35.949h26.861L142.777,206.557L142.777,206.557z"/>
	<g id="Cloud_6_">
		<g id="cloud_1_">
			<g>
				<path fill="#FFFFFF" d="M320.773,121.461c-0.072,0-0.146,0.009-0.218,0.011c-1.136-6.598-6.871-11.623-13.797-11.623
					c-4.12,0-7.818,1.791-10.382,4.625c-1.73-0.914-3.699-1.437-5.792-1.437c-5.473,0-10.109,3.544-11.762,8.458
					c-0.216-0.021-0.433-0.032-0.654-0.032c-4.529,0-8.201,3.67-8.201,8.196c0,4.527,3.672,8.197,8.201,8.197h42.603
					c4.526,0,8.2-3.67,8.2-8.197C328.977,125.131,325.304,121.461,320.773,121.461z"/>
			</g>
		</g>
		<g id="dark_2_" opacity="0.051">
			<g>
				<path d="M325.704,123.118c-1.351,3.229-3.741,5.904-6.753,7.625c1.154-2.035,1.822-4.383,1.822-6.893
					c0-3.585-1.358-6.845-3.576-9.322c-1.453,7.757-6.951,14.072-14.217,16.72h-1.438c0.924-1.732,1.46-3.703,1.46-5.805
					c0-3.646-1.583-6.916-4.088-9.186c-2.026,6.115-6.643,11.042-12.547,13.503c0-0.036,0.005-0.069,0.005-0.105
					c0-2.303-0.954-4.381-2.485-5.871c-2.678,4.894-7.147,8.664-12.525,10.438c1.473,2.188,3.972,3.628,6.809,3.628h42.603
					c4.526,0,8.2-3.67,8.2-8.197C328.977,126.983,327.689,124.614,325.704,123.118z"/>
			</g>
		</g>
		<g id="_x3D_" opacity="0.902">
			<g>
				<path fill="#333333" d="M314.471,120.826c-1.505,0-1.503,0.001-1.503,1.597c0,1.044,0,1.149,0,2.825
					c0,1.596-0.002,1.597,1.503,1.597c1.506,0,1.504-0.001,1.504-1.597c0-1.676,0-1.781,0-2.825
					C315.975,120.827,315.977,120.826,314.471,120.826z M309.458,120.832c-1.491,0-1.49,0.001-1.49,1.595c0,1.044,0,1.147,0,2.821
					c0,1.596-0.001,1.596,1.49,1.596c1.489,0,1.487,0,1.487-1.596c0-1.674,0-1.777,0-2.821
					C310.945,120.833,310.947,120.832,309.458,120.832z"/>
			</g>
		</g>
	</g>
</g>
<g id="Layer_4">
	
		<linearGradient id="SVGID_48_" gradientUnits="userSpaceOnUse" x1="-395.998" y1="766.3223" x2="204.002" y2="766.3223" gradientTransform="matrix(1 0 0 1 396 -490.999)">
		<stop  offset="0" style="stop-color:#000000;stop-opacity:0"/>
		<stop  offset="0.25" style="stop-color:#231F20;stop-opacity:0.2"/>
		<stop  offset="0.75" style="stop-color:#231F20;stop-opacity:0.2"/>
		<stop  offset="1" style="stop-color:#000000;stop-opacity:0"/>
	</linearGradient>
	<rect x="0.002" y="274.823" fill="url(#SVGID_48_)" width="600" height="1"/>
</g>
<g id="Layer_5">
	<g id="Personnel_1_">
		<g>
			<g>
				<g>
					<defs>
						<rect id="SVGID_49_" x="218.249" y="192.157" width="162.002" height="83.995"/>
					</defs>
					<clipPath id="SVGID_50_">
						<use xlink:href="#SVGID_49_"  overflow="visible"/>
					</clipPath>
					<g id="Personnel_2_3_" clip-path="url(#SVGID_50_)">
						<g id="shape">
							<g>
								<path fill="#33BCF2" d="M325.249,251.141c-22.765,0-41.286,7.539-41.992,24.094c0.296,2.771,2.606,4.925,5.414,4.925h73.156
									c2.809,0,5.117-2.153,5.414-4.925C366.536,258.68,348.014,251.141,325.249,251.141z"/>
							</g>
						</g>
						<g id="shadow" opacity="0.2">
							<g>
								<path d="M332.934,251.301c-2.405-0.184-4.877-0.277-7.403-0.277c-23.041,0-41.793,7.507-42.507,23.988
									c0.3,2.758,2.638,4.904,5.48,4.904h14.771l13.826-14.189h16.556L332.934,251.301z"/>
							</g>
						</g>
						<g id="shape_1_">
							<g>
								<path fill="#CFE4DF" d="M304.811,253.202l12.563,12.541l8.276-8.263l-12.493-12.608L304.811,253.202z M338.146,244.872
									l-12.494,12.608l8.276,8.263l12.565-12.541L338.146,244.872z"/>
							</g>
						</g>
						<g id="shape_2_">
							<g>
								<polygon fill="#D19090" points="312.999,245.359 325.591,257.926 338.304,245.236 								"/>
							</g>
						</g>
						<g id="shape_3_">
							<g>
								<ellipse fill="#725826" cx="325.595" cy="219.404" rx="24.423" ry="24.372"/>
							</g>
						</g>
						<g id="shadow_1_" opacity="0.251">
							<g>
								<path d="M306.695,218.01l-5.271,5.26c1.113,6.15,4.533,11.5,9.34,15.117L306.695,218.01z"/>
							</g>
						</g>
						<g id="shape_4_">
							<g>
								<path fill="#FFCCCC" d="M325.595,195.006c-10.439,0-18.904,8.447-18.904,18.869v17.248c0,10.421,8.465,18.867,18.904,18.867
									c10.443,0,18.908-8.446,18.908-18.867v-17.247C344.503,203.456,336.038,195.006,325.595,195.006z"/>
							</g>
						</g>
						<g id="shadow_2_" opacity="0.149">
							<g>
								<path d="M325.595,195.008c-10.439,0-18.904,8.447-18.904,18.868v17.247c0,10.369,8.383,18.783,18.756,18.865v-30.607h19.061
									v-5.505C344.503,203.456,336.038,195.008,325.595,195.008z"/>
							</g>
						</g>
						<g id="shape_5_">
							<g>
								<path fill="#725826" d="M325.104,193.459c-22.144,0-18.586,23.566-18.586,23.566l11.558-11.531
									c0,0,2.623,12.438,26.26,12.438C346.316,217.93,347.243,193.459,325.104,193.459z"/>
							</g>
						</g>
						<g id="Darken" opacity="0.2">
							<g>
								<path d="M346.005,253.691l0.49-0.489l-8.175-8.151c2.771-2.523,4.785-5.854,5.668-9.623
									c3.75-4.283,6.026-9.888,6.026-16.021c0-7.729-3.605-14.608-9.227-19.074c-3.043-3.885-7.955-6.871-15.689-6.871
									c-8.532,0-13.239,3.503-15.813,7.808c-4.979,4.461-8.115,10.934-8.115,18.139c0,1.301,0.104,2.576,0.302,3.82l-0.048,0.047
									c0.144,0.791,0.328,1.566,0.546,2.332c0.969,3.689,2.786,7.037,5.229,9.826c0.006,0.02,0.012,0.039,0.016,0.057
									c0.102,0.416,0.193,0.834,0.318,1.24c0.064,0.215,0.155,0.42,0.229,0.631c0.129,0.369,0.252,0.74,0.402,1.099
									c0.1,0.233,0.221,0.454,0.328,0.687c0.152,0.321,0.295,0.647,0.465,0.961c0.129,0.237,0.279,0.461,0.42,0.692
									c0.172,0.287,0.336,0.582,0.521,0.856c0.164,0.242,0.35,0.469,0.521,0.703c0.188,0.248,0.358,0.506,0.561,0.746
									c0.195,0.24,0.416,0.461,0.625,0.688c0.195,0.217,0.383,0.438,0.588,0.646c0.23,0.231,0.482,0.442,0.729,0.664l0,0
									l-8.117,8.104l0.221,0.222c-12.759,3.385-21.523,10.424-22.007,21.588c0.145,1.332,0.773,2.516,1.696,3.389
									c0.993,1.074,2.389,1.76,3.955,1.76h73.155c2.811,0,5.119-2.152,5.414-4.926
									C366.771,264.173,358.337,257.143,346.005,253.691z"/>
							</g>
						</g>
					</g>
				</g>
			</g>
		</g>
		<g>
			<g>
				<g>
					<defs>
						<rect id="SVGID_51_" x="218.249" y="192.157" width="162.002" height="83.995"/>
					</defs>
					<clipPath id="SVGID_52_">
						<use xlink:href="#SVGID_51_"  overflow="visible"/>
					</clipPath>
					<g id="Personnel_2_2_" clip-path="url(#SVGID_52_)">
						<g id="shape_6_">
							<g>
								<path fill="#33BCF2" d="M274.75,251.141c-23.042,0-41.793,7.539-42.507,24.094c0.3,2.771,2.638,4.925,5.48,4.925h74.054
									c2.842,0,5.182-2.153,5.479-4.925C316.542,258.68,297.793,251.141,274.75,251.141z"/>
							</g>
						</g>
						<g id="shadow_3_" opacity="0.2">
							<g>
								<path d="M281.697,251.48c-2.405-0.182-4.876-0.274-7.403-0.274c-23.042,0-41.455,7.845-42.169,24.326
									c0.3,2.758,2.299,4.563,5.142,4.563h14.772l13.825-14.188h16.556L281.697,251.48z"/>
							</g>
						</g>
						<g id="shape_7_">
							<g>
								<path fill="#CFE4DF" d="M253.574,253.202l12.565,12.541l8.277-8.263l-12.493-12.608L253.574,253.202z M286.913,244.872
									l-12.495,12.608l8.278,8.263l12.565-12.541L286.913,244.872z"/>
							</g>
						</g>
						<g id="shape_8_">
							<g>
								<polygon fill="#D19090" points="261.765,245.359 274.356,257.926 287.07,245.236 								"/>
							</g>
						</g>
						<g id="shape_9_">
							<g>
								<ellipse fill="#725826" cx="274.361" cy="219.404" rx="24.422" ry="24.372"/>
							</g>
						</g>
						<g id="shadow_4_" opacity="0.251">
							<g>
								<path d="M255.463,218.01l-5.27,5.26c1.113,6.15,4.533,11.5,9.339,15.117L255.463,218.01z"/>
							</g>
						</g>
						<g id="shape_10_">
							<g>
								<path fill="#FFCCCC" d="M274.361,195.006c-10.442,0-18.907,8.447-18.907,18.869v17.248c0,10.421,8.465,18.867,18.907,18.867
									s18.908-8.446,18.908-18.867v-17.247C293.27,203.456,284.803,195.006,274.361,195.006z"/>
							</g>
						</g>
						<g id="shadow_5_" opacity="0.149">
							<g>
								<path d="M274.361,195.008c-10.442,0-18.907,8.447-18.907,18.868v17.247c0,10.369,8.384,18.783,18.756,18.865v-30.607h19.059
									v-5.505C293.27,203.456,284.803,195.008,274.361,195.008z"/>
							</g>
						</g>
						<g id="shape_11_">
							<g>
								<path fill="#725826" d="M273.867,193.459c-22.141,0-18.586,23.566-18.586,23.566l11.557-11.531
									c0,0,2.624,12.438,26.258,12.438C295.084,217.93,296.009,193.459,273.867,193.459z"/>
							</g>
						</g>
						<g id="shape_12_" opacity="0.2">
							<g>
								<path d="M292.756,235.426c3.75-4.285,6.027-9.887,6.027-16.023c0-7.727-3.607-14.606-9.228-19.071
									c-3.043-3.885-7.956-6.871-15.688-6.871c-8.533,0-13.24,3.504-15.814,7.81c-4.979,4.461-8.114,10.934-8.114,18.137
									c0,1.301,0.104,2.576,0.301,3.82l-0.047,0.047c0.144,0.793,0.328,1.568,0.546,2.334c0.97,3.688,2.787,7.031,5.228,9.82
									c0.008,0.035,0.019,0.069,0.027,0.104c0.096,0.397,0.186,0.804,0.307,1.188c0.072,0.23,0.167,0.453,0.248,0.68
									c0.125,0.354,0.24,0.707,0.385,1.05c0.106,0.252,0.235,0.487,0.352,0.733c0.145,0.305,0.28,0.615,0.44,0.912
									c0.138,0.254,0.298,0.492,0.447,0.738c0.164,0.271,0.317,0.551,0.495,0.813c0.173,0.258,0.369,0.498,0.555,0.746
									c0.176,0.234,0.341,0.479,0.528,0.703c0.208,0.252,0.437,0.486,0.658,0.728c0.186,0.202,0.361,0.416,0.556,0.61
									c0.232,0.232,0.484,0.445,0.729,0.666l-8.119,8.103l0.637,0.638c-12.845,3.284-21.599,10.25-22.086,21.514
									c0.3,2.758,2.299,4.563,5.142,4.563h14.772l13.825-14.188h0.26l0.016,0.017l0.016-0.017h16.265l-0.014-0.271l0.289,0.287
									l12.565-12.541l-8.172-8.152C289.86,242.523,291.874,239.195,292.756,235.426z"/>
							</g>
						</g>
					</g>
				</g>
			</g>
		</g>
	</g>
	<g id="My_Account_Icon_1_">
		<g id="shape_13_">
			<g>
				<path fill="#44CE5E" d="M300.27,263.395c-32.521,0-58.985,10.328-59.995,33.008c0.156,1.398,0.706,2.684,1.535,3.746h116.918
					c0.829-1.063,1.377-2.348,1.533-3.746C359.255,273.723,332.79,263.395,300.27,263.395z"/>
			</g>
		</g>
		<g id="shadow_6_" opacity="0.149">
			<g>
				<path d="M300.245,263.359c-32.522,0-58.988,10.33-59.996,33.009c0.175,1.565,0.844,2.981,1.846,4.112h29.372l16.879-16.889
					h23.366l-1.021-19.85C307.298,263.493,303.811,263.359,300.245,263.359z"/>
			</g>
		</g>
		<g id="shape_14_">
			<g>
				<path fill="#CFE4DF" d="M271.001,266.359l17.734,17.255l11.683-11.367l-17.633-17.353L271.001,266.359z M318.052,254.895
					l-17.635,17.353l11.685,11.367l17.733-17.255L318.052,254.895z"/>
			</g>
		</g>
		<g id="shape_15_">
			<g>
				<polygon fill="#D19090" points="282.562,255.568 300.331,272.857 318.273,255.398 				"/>
			</g>
		</g>
		<g id="shape_16_">
			<g>
				<ellipse fill="#725826" cx="300.339" cy="219.852" rx="34.47" ry="33.535"/>
			</g>
		</g>
		<g id="shadow_7_" opacity="0.251">
			<g>
				<path d="M273.667,217.938l-7.438,7.234c1.571,8.465,6.397,15.824,13.182,20.801L273.667,217.938z"/>
			</g>
		</g>
		<g id="shape_17_">
			<g>
				<path fill="#FFCCCC" d="M300.339,186.284c-14.738,0-26.687,11.623-26.687,25.963v23.731c0,14.338,11.948,25.963,26.687,25.963
					c14.739,0,26.688-11.625,26.688-25.963v-23.731C327.023,197.907,315.077,186.284,300.339,186.284z"/>
			</g>
		</g>
		<g id="shadow_8_" opacity="0.149">
			<g>
				<path d="M300.339,186.286c-14.738,0-26.687,11.623-26.687,25.963v23.731c0,14.271,11.833,25.845,26.472,25.959v-42.116h26.899
					v-7.574C327.023,197.909,315.075,186.286,300.339,186.286z"/>
			</g>
		</g>
		<g id="shape_18_">
			<g>
				<path fill="#725826" d="M299.643,184.152c-31.25,0-26.232,32.431-26.232,32.431l16.31-15.867c0,0,3.704,17.109,37.061,17.109
					C329.585,217.825,330.893,184.152,299.643,184.152z"/>
			</g>
		</g>
	</g>
	<g id="sidewalk_1_">
		<g id="middle">
			<g>
				<rect x="240.257" y="296.145" fill="#D8D8D8" width="120.013" height="4.008"/>
			</g>
		</g>
		<g id="dark">
			<g>
				<rect x="233.252" y="296.143" fill="#C0C0C0" width="7.006" height="4.013"/>
			</g>
		</g>
		<g id="light">
			<g>
				<rect x="360.267" y="296.143" fill="#E6E6E6" width="6.994" height="4.013"/>
			</g>
		</g>
	</g>
	<g id="badge_x2B__1_">
		<g id="O" opacity="0.102">
			<g>
				<circle cx="330.255" cy="189.144" r="25.003"/>
			</g>
		</g>
		<g id="O_1_">
			<g>
				<circle fill="#FFFFFF" cx="330.255" cy="187.149" r="25.003"/>
			</g>
		</g>
		<g id="O_2_">
			<g>
				<ellipse fill="#44CE5E" cx="330.255" cy="187.151" rx="21" ry="20.986"/>
			</g>
		</g>
	</g>
</g>
<g id="done" opacity="0.1">
	<g>
		<path d="M340.218,183.125l-1.342-1.344c-0.371-0.371-0.965-0.379-1.326-0.019l-9.049,9.056l-4.047-4.056
			c-0.362-0.36-0.956-0.354-1.327,0.019l-1.345,1.344c-0.371,0.371-0.378,0.965-0.018,1.326l5.774,5.785
			c0.172,0.172,0.396,0.254,0.626,0.26v0.004h0.022c0.008,0,0.015,0,0.021,0h0.575c0.008,0,0.015,0,0.021,0h0.024v-0.004
			c0.228-0.007,0.452-0.089,0.623-0.26l10.777-10.785C340.597,184.09,340.589,183.497,340.218,183.125z"/>
	</g>
</g>
<g id="done_2_">
	<g>
		<path fill="#FFFFFF" d="M340.218,181.125l-1.342-1.344c-0.371-0.371-0.965-0.379-1.326-0.019l-9.049,9.056l-4.047-4.056
			c-0.362-0.36-0.956-0.354-1.327,0.019l-1.345,1.344c-0.371,0.371-0.378,0.965-0.018,1.326l5.774,5.785
			c0.172,0.172,0.396,0.254,0.626,0.26v0.004h0.022c0.008,0,0.015,0,0.021,0h0.575c0.008,0,0.015,0,0.021,0h0.024v-0.004
			c0.228-0.007,0.452-0.089,0.623-0.26l10.777-10.785C340.597,182.09,340.589,181.497,340.218,181.125z"/>
	</g>
</g>
</svg>
