<?xml version="1.0" encoding="utf-8"?>
<!-- Generator: Adobe Illustrator 12.0.0, SVG Export Plug-In . SVG Version: 6.00 Build 51448)  -->
<!DOCTYPE svg PUBLIC "-//W3C//DTD SVG 1.1//EN" "http://www.w3.org/Graphics/SVG/1.1/DTD/svg11.dtd" [
	<!ENTITY ns_svg "http://www.w3.org/2000/svg">
	<!ENTITY ns_xlink "http://www.w3.org/1999/xlink">
]>
<svg  version="1.1" id="Layer_1" xmlns="&ns_svg;" xmlns:xlink="&ns_xlink;" width="161.872" height="41.906"
	 viewBox="0 0 161.872 41.906" overflow="visible" enable-background="new 0 0 161.872 41.906" xml:space="preserve">
<g>
	<path fill="#FFFFFF" d="M45.125,8.609l-0.623-1.637h-3.885l-0.622,1.637h-1.69l3.328-8.471h1.854l3.327,8.471H45.125z M42.56,1.625
		l-1.524,4.039h3.048L42.56,1.625z"/>
	<path fill="#FFFFFF" d="M47.853,8.609v-8.47h3.734c1.777,0,2.756,1.207,2.756,2.655c0,1.435-0.992,2.641-2.756,2.641h-2.248V8.61
		L47.853,8.609L47.853,8.609z M52.817,2.793c0-0.813-0.597-1.346-1.435-1.346h-2.044v2.679h2.044
		C52.22,4.126,52.817,3.593,52.817,2.793"/>
	<path fill="#FFFFFF" d="M55.711,8.609v-8.47h3.735c1.777,0,2.754,1.207,2.754,2.655c0,1.435-0.99,2.641-2.754,2.641h-2.25V8.61
		L55.711,8.609L55.711,8.609z M60.677,2.793c0-0.813-0.597-1.346-1.436-1.346h-2.045v2.679h2.045
		C60.08,4.126,60.677,3.593,60.677,2.793"/>
	<polygon fill="#FFFFFF" points="63.467,8.609 63.467,0.139 64.953,0.139 64.953,7.301 68.687,7.301 68.687,8.609 	"/>
	<rect x="70.12" y="0.139" fill="#FFFFFF" width="1.484" height="8.471"/>
	<path fill="#FFFFFF" d="M82.879,8.609l-0.623-1.637h-3.885L77.75,8.609h-1.689l3.326-8.471h1.855l3.327,8.471H82.879z
		 M80.314,1.625L78.79,5.664h3.048L80.314,1.625z"/>
	<polygon fill="#FFFFFF" points="91.513,8.609 87.092,2.551 87.092,8.609 85.606,8.609 85.606,0.139 87.131,0.139 91.461,6.006 
		91.461,0.139 92.946,0.139 92.946,8.609 	"/>
	<path fill="#FFFFFF" d="M94.874,8.61V0.139h3.151c2.651,0,4.431,1.753,4.431,4.23c0,2.501-1.779,4.241-4.418,4.241H94.874z
		 M100.931,4.369c0-1.626-1.015-2.921-2.894-2.921h-1.679v5.854h1.666C99.866,7.302,100.931,5.981,100.931,4.369"/>
	<path fill="#FFFFFF" d="M108.854,8.609l-1.867-3.161H105.5v3.161h-1.484V0.138h3.722c1.677,0,2.781,1.08,2.781,2.655
		c0,1.499-0.992,2.325-2.021,2.489l2.082,3.327H108.854z M108.995,2.781c0-0.813-0.609-1.334-1.449-1.334H105.5v2.692h2.045
		C108.385,4.139,108.995,3.606,108.995,2.781"/>
	<path fill="#FFFFFF" d="M111.758,4.381c0-2.527,1.791-4.381,4.33-4.381c2.527,0,4.332,1.854,4.332,4.381
		c0,2.528-1.805,4.382-4.332,4.382C113.549,8.763,111.758,6.909,111.758,4.381 M118.896,4.381c0-1.752-1.106-3.061-2.808-3.061
		c-1.715,0-2.807,1.309-2.807,3.061c0,1.74,1.092,3.06,2.807,3.06C117.79,7.441,118.896,6.121,118.896,4.381"/>
	<rect x="121.965" y="0.139" fill="#FFFFFF" width="1.486" height="8.471"/>
	<path fill="#FFFFFF" d="M125.381,8.61V0.139h3.15c2.65,0,4.432,1.753,4.432,4.23c0,2.501-1.78,4.241-4.42,4.241H125.381z
		 M131.438,4.369c0-1.626-1.016-2.921-2.895-2.921h-1.676v5.854h1.664C130.374,7.302,131.438,5.981,131.438,4.369"/>
	<path fill="#FFFFFF" d="M137.375,7.416l0.84-1.155c0.57,0.622,1.496,1.18,2.681,1.18c1.218,0,1.688-0.596,1.688-1.168
		c0-1.777-4.928-0.673-4.928-3.785c0-1.409,1.219-2.488,3.084-2.488c1.312,0,2.391,0.431,3.166,1.193l-0.84,1.105
		c-0.674-0.673-1.574-0.978-2.465-0.978c-0.863,0-1.423,0.431-1.423,1.054c0,1.588,4.929,0.61,4.929,3.76
		c0,1.409-1.005,2.629-3.277,2.629C139.269,8.763,138.139,8.203,137.375,7.416"/>
	<path fill="#FFFFFF" d="M145.592,5.258V0.139h1.511v5.08c0,1.347,0.749,2.222,2.158,2.222c1.411,0,2.157-0.875,2.157-2.222v-5.08
		h1.514v5.119c0,2.094-1.207,3.505-3.671,3.505C146.81,8.763,145.592,7.352,145.592,5.258"/>
	<path fill="#FFFFFF" d="M159.7,8.61l-1.871-3.162h-1.484V8.61h-1.483V0.138h3.72c1.676,0,2.78,1.08,2.78,2.655
		c0,1.499-0.991,2.325-2.021,2.489l2.086,3.328H159.7z M159.836,2.781c0-0.813-0.609-1.334-1.446-1.334h-2.046v2.692h2.046
		C159.227,4.139,159.836,3.606,159.836,2.781"/>
	<path fill="#FFFFFF" d="M56.718,25.818h-8.673v2.627h6.151c-0.304,3.682-3.307,5.252-6.141,5.252c-3.626,0-6.79-2.911-6.79-6.99
		c0-3.977,3.016-7.035,6.798-7.035c2.918,0,4.637,1.896,4.637,1.896l1.802-1.903c0,0-2.313-2.627-6.531-2.627
		c-5.372,0-9.527,4.626-9.527,9.623c0,4.896,3.909,9.669,9.664,9.669c5.061,0,8.767-3.538,8.767-8.77
		C56.875,26.456,56.718,25.818,56.718,25.818z M63.822,23.918c-3.559,0-6.109,2.838-6.109,6.148c0,3.358,2.474,6.25,6.151,6.25
		c3.329,0,6.056-2.596,6.056-6.178C69.92,26.032,66.749,23.918,63.822,23.918 M63.851,33.884c-1.94,0-3.47-1.585-3.47-3.78
		c0-2.146,1.511-3.75,3.478-3.75c1.75,0,3.408,1.442,3.408,3.77C67.267,32.398,65.615,33.884,63.851,33.884 M77.109,23.918
		c-3.559,0-6.109,2.838-6.109,6.148c0,3.358,2.473,6.25,6.151,6.25c3.328,0,6.055-2.596,6.055-6.178
		C83.208,26.032,80.035,23.918,77.109,23.918 M77.136,33.884c-1.939,0-3.469-1.585-3.469-3.78c0-2.146,1.511-3.75,3.477-3.75
		c1.75,0,3.408,1.442,3.408,3.77C80.552,32.398,78.901,33.884,77.136,33.884 M93.417,25.348c-0.781-0.861-1.854-1.424-3.274-1.424
		c-3.269,0-5.834,2.919-5.834,6.195c0,3.73,2.976,6.207,5.776,6.207c1.732,0,2.652-0.702,3.332-1.508v1.224
		c0,2.14-1.271,3.42-3.192,3.42c-1.856,0-2.787-1.409-3.111-2.208l-2.336,0.997c0.829,1.787,2.497,3.649,5.466,3.649
		c3.248,0,5.725-2.086,5.725-6.463V24.297h-2.549v1.051H93.417z M90.342,33.889c-1.741,0-3.361-1.441-3.361-3.732
		c0-2.381,1.684-3.801,3.396-3.801c1.603,0,3.246,1.396,3.246,3.776C93.624,32.555,91.982,33.889,90.342,33.889 M112.349,27.543
		c-0.788-1.98-2.624-3.633-5.054-3.633v-0.001c-3.082,0-5.67,2.502-5.67,6.19c0,3.905,2.885,6.223,5.965,6.223
		c2.57,0,4.148-1.437,5.092-2.723l-2.102-1.426c-0.545,0.863-1.457,1.707-2.978,1.707c-1.709,0-2.494-0.954-2.981-1.879l8.149-3.449
		L112.349,27.543z M104.208,29.938c-0.234-1.797,1.435-3.645,3.192-3.645c1.11,0,1.909,0.602,2.249,1.324L104.208,29.938z
		 M97.763,36.386h2.741V17.723h-2.741V36.386z M126.724,23.65c-1.888,0-3.517,1.029-4.403,2.326V23.97h-1.369v17.62h1.369v-6.925
		c1.025,1.452,2.621,2.376,4.403,2.376c3.387,0,5.671-2.641,5.671-6.708C132.395,26.238,130.11,23.65,126.724,23.65 M126.495,35.8
		c-1.76,0-3.443-1.444-4.175-2.659v-5.643c0.731-1.213,2.415-2.605,4.175-2.605c2.834,0,4.432,2.354,4.432,5.44
		C130.926,33.424,129.329,35.8,126.495,35.8 M134.602,37.068h1.363V19.104h-1.363V37.068z M160.329,23.971l-4.572,11.146
		l-4.616-11.146h-1.522l5.379,12.861l-0.992,2.271c-0.524,1.215-1.105,1.561-1.941,1.561c-0.316,0-0.814-0.082-1.105-0.211
		l-0.234,1.268c0.34,0.107,0.924,0.188,1.365,0.188c1.472,0,2.543-0.774,3.224-2.377l6.563-15.559h-1.547V23.971z M148.192,34.109
		v-6.293c0-1.349-0.458-2.377-1.365-3.09c-0.91-0.72-2.115-1.08-3.604-1.08c-1.494,0-2.709,0.365-3.637,1.095
		c-0.93,0.731-1.369,1.575-1.316,2.539l0.027,0.067h1.398c0-0.715,0.317-1.308,0.946-1.785c0.637-0.47,1.474-0.711,2.504-0.711
		c1.126,0,1.996,0.265,2.614,0.784c0.617,0.521,0.927,1.239,0.927,2.152v1.585H143.5c-1.705,0-3.086,0.354-4.152,1.064
		c-1.069,0.711-1.605,1.641-1.605,2.782c0,1.146,0.371,2.05,1.104,2.718c0.739,0.668,1.771,0.998,3.104,0.998
		c1.104,0,1.911-0.226,2.756-0.68c0.851-0.454,1.514-1.031,1.981-1.723c0,0.337,0.022,0.67,0.065,0.992
		c0.051,0.326,0.117,0.718,0.209,1.156h1.574c-0.121-0.408-0.213-0.834-0.271-1.261C148.211,34.998,148.192,34.563,148.192,34.109
		 M146.688,32.914c-0.303,0.811-0.879,1.479-1.725,1.994c-0.853,0.516-1.688,0.775-2.848,0.775c-0.891,0-1.589-0.222-2.098-0.666
		c-0.51-0.439-0.766-1.022-0.766-1.75c0-0.771,0.403-1.435,1.199-1.981c0.799-0.55,1.812-0.821,3.032-0.821h3.202v2.449H146.688z"/>
	<path fill="#FFFFFF" d="M19.067,15.904L2.132,6.514c-0.329-0.183-0.641-0.27-0.921-0.27c-0.128,0-0.249,0.018-0.361,0.054
		l13.746,13.323L19.067,15.904z M24.871,19.122l-5.802-3.217l-3.763,4.441l3.784,4.347l5.781-3.207
		C26.044,20.834,26.044,19.773,24.871,19.122 M0.849,6.297C0.334,6.46,0,6.987,0,7.783l0.004,25.041c0,0.789,0.323,1.308,0.823,1.48
		l13.058-13.958L0.849,6.297z M0.827,34.305c0.36,0.123,0.813,0.065,1.305-0.207l16.956-9.404l-4.492-3.62L0.827,34.305z"/>
</g>
</svg>
