<?xml version="1.0" encoding="utf-8"?>
<!-- Generator: Adobe Illustrator 12.0.0, SVG Export Plug-In . SVG Version: 6.00 Build 51448)  -->
<!DOCTYPE svg PUBLIC "-//W3C//DTD SVG 1.1//EN" "http://www.w3.org/Graphics/SVG/1.1/DTD/svg11.dtd" [
	<!ENTITY ns_svg "http://www.w3.org/2000/svg">
	<!ENTITY ns_xlink "http://www.w3.org/1999/xlink">
]>
<svg  version="1.1" id="Layer_1" xmlns="&ns_svg;" xmlns:xlink="&ns_xlink;" width="161.872" height="41.861"
	 viewBox="0 0 161.872 41.861" overflow="visible" enable-background="new 0 0 161.872 41.861" xml:space="preserve">
<g>
	<path fill="#FFFFFF" d="M56.718,25.774h-8.673v2.627h6.151c-0.304,3.683-3.307,5.252-6.141,5.252c-3.626,0-6.79-2.91-6.79-6.989
		c0-3.977,3.016-7.035,6.798-7.035c2.918,0,4.637,1.896,4.637,1.896l1.802-1.903c0,0-2.313-2.627-6.531-2.627
		c-5.372,0-9.527,4.626-9.527,9.623c0,4.895,3.909,9.669,9.664,9.669c5.061,0,8.767-3.538,8.767-8.771
		C56.875,26.412,56.718,25.773,56.718,25.774L56.718,25.774z M63.822,23.874c-3.559,0-6.109,2.838-6.109,6.147
		c0,3.359,2.474,6.25,6.151,6.25c3.329,0,6.056-2.595,6.056-6.178C69.92,25.988,66.749,23.874,63.822,23.874 M63.85,33.839
		c-1.939,0-3.469-1.585-3.469-3.78c0-2.146,1.511-3.751,3.477-3.751c1.751,0,3.409,1.443,3.409,3.771
		C67.267,32.354,65.615,33.839,63.85,33.839 M77.109,23.874c-3.559,0-6.109,2.838-6.109,6.147c0,3.359,2.473,6.25,6.151,6.25
		c3.328,0,6.055-2.595,6.055-6.178C83.208,25.988,80.035,23.874,77.109,23.874 M77.136,33.839c-1.94,0-3.469-1.585-3.469-3.78
		c0-2.146,1.511-3.751,3.477-3.751c1.75,0,3.408,1.443,3.408,3.771C80.552,32.354,78.901,33.839,77.136,33.839 M93.417,25.302
		c-0.781-0.861-1.854-1.423-3.274-1.423c-3.269,0-5.834,2.919-5.834,6.195c0,3.73,2.976,6.207,5.776,6.207
		c1.731,0,2.652-0.702,3.332-1.509v1.225c0,2.139-1.271,3.42-3.192,3.42c-1.856,0-2.788-1.408-3.111-2.208l-2.336,0.997
		c0.829,1.787,2.497,3.649,5.466,3.649c3.248,0,5.725-2.087,5.725-6.464v-11.14h-2.549v1.05H93.417z M90.342,33.844
		c-1.741,0-3.361-1.442-3.361-3.733c0-2.381,1.684-3.801,3.396-3.801c1.603,0,3.246,1.396,3.246,3.777
		C93.624,32.509,91.982,33.844,90.342,33.844 M112.349,27.499c-0.788-1.98-2.624-3.633-5.054-3.633v-0.001
		c-3.082,0-5.67,2.501-5.67,6.19c0,3.905,2.885,6.222,5.965,6.222c2.57,0,4.148-1.436,5.092-2.722l-2.102-1.426
		c-0.545,0.864-1.457,1.707-2.978,1.707c-1.709,0-2.494-0.955-2.981-1.879l8.148-3.449L112.349,27.499z M104.208,29.894
		c-0.234-1.797,1.435-3.645,3.192-3.645c1.11,0,1.909,0.602,2.249,1.324L104.208,29.894z M97.763,36.341h2.741V17.678h-2.741V36.341
		z M126.723,23.607c-1.887,0-3.516,1.028-4.402,2.326v-2.007h-1.369v17.619h1.369V34.62c1.025,1.452,2.621,2.376,4.402,2.376
		c3.388,0,5.672-2.642,5.672-6.708C132.395,26.194,130.11,23.607,126.723,23.607 M126.495,35.755c-1.76,0-3.443-1.444-4.175-2.66
		v-5.642c0.731-1.213,2.415-2.605,4.175-2.605c2.834,0,4.432,2.354,4.432,5.44C130.926,33.379,129.329,35.755,126.495,35.755
		 M134.602,37.024h1.363V19.06h-1.363V37.024z M160.329,23.926l-4.572,11.145l-4.616-11.145h-1.522l5.379,12.861l-0.992,2.271
		c-0.524,1.216-1.105,1.562-1.941,1.562c-0.316,0-0.814-0.082-1.105-0.211l-0.234,1.268c0.34,0.106,0.924,0.187,1.365,0.187
		c1.472,0,2.543-0.773,3.224-2.377l6.563-15.559L160.329,23.926L160.329,23.926z M148.192,34.065v-6.292
		c0-1.349-0.458-2.378-1.365-3.091c-0.91-0.719-2.115-1.08-3.604-1.08c-1.494,0-2.709,0.366-3.637,1.097
		c-0.93,0.729-1.369,1.573-1.316,2.537l0.027,0.067h1.398c0-0.714,0.317-1.307,0.946-1.785c0.637-0.469,1.474-0.71,2.504-0.71
		c1.126,0,1.996,0.265,2.614,0.784c0.617,0.521,0.927,1.239,0.927,2.152v1.585H143.5c-1.705,0-3.086,0.353-4.152,1.064
		c-1.069,0.711-1.605,1.641-1.605,2.782c0,1.145,0.371,2.049,1.104,2.716c0.739,0.67,1.771,0.999,3.104,0.999
		c1.104,0,1.911-0.225,2.756-0.679c0.851-0.454,1.514-1.031,1.981-1.723c0,0.337,0.022,0.67,0.065,0.992
		c0.051,0.325,0.117,0.718,0.209,1.156h1.574c-0.123-0.409-0.213-0.835-0.271-1.261C148.211,34.954,148.192,34.517,148.192,34.065
		 M146.688,32.87c-0.303,0.81-0.879,1.479-1.725,1.994c-0.853,0.516-1.688,0.774-2.848,0.774c-0.891,0-1.589-0.221-2.098-0.666
		c-0.51-0.438-0.766-1.021-0.766-1.749c0-0.771,0.403-1.435,1.199-1.981c0.797-0.55,1.811-0.821,3.032-0.821h3.202v2.449H146.688z"
		/>
	<path fill="#FFFFFF" d="M45.903,8.608L45.28,6.971h-3.884l-0.621,1.638h-1.689l3.325-8.467h1.854l3.327,8.467L45.903,8.608
		L45.903,8.608z M43.339,1.625l-1.524,4.037h3.048L43.339,1.625z"/>
	<polygon fill="#FFFFFF" points="54.722,8.608 50.304,2.552 50.304,8.608 48.819,8.608 48.819,0.142 50.343,0.142 54.672,6.006 
		54.672,0.142 56.157,0.142 56.157,8.608 	"/>
	<path fill="#FFFFFF" d="M58.272,8.608V0.141h3.149c2.653,0,4.431,1.751,4.431,4.228c0,2.501-1.778,4.239-4.419,4.239H58.272z
		 M64.328,4.368c0-1.625-1.016-2.919-2.895-2.919h-1.676V7.3h1.664C63.261,7.3,64.328,5.98,64.328,4.368"/>
	<path fill="#FFFFFF" d="M72.436,8.609l-1.865-3.16h-1.486v3.16h-1.484V0.141h3.719c1.676,0,2.78,1.079,2.78,2.653
		c0,1.498-0.991,2.324-2.019,2.489l2.083,3.325H72.436z M72.577,2.782c0-0.813-0.61-1.333-1.447-1.333h-2.045v2.691h2.045
		C71.967,4.141,72.577,3.605,72.577,2.782"/>
	<path fill="#FFFFFF" d="M75.532,4.381C75.532,1.855,77.32,0,79.86,0c2.526,0,4.329,1.854,4.329,4.381s-1.803,4.38-4.329,4.38
		C77.32,8.761,75.532,6.907,75.532,4.381 M82.667,4.381c0-1.753-1.104-3.061-2.806-3.061c-1.714,0-2.806,1.308-2.806,3.061
		c0,1.739,1.092,3.06,2.806,3.06C81.562,7.441,82.667,6.12,82.667,4.381"/>
	<rect x="85.926" y="0.142" fill="#FFFFFF" width="1.484" height="8.467"/>
	<path fill="#FFFFFF" d="M89.529,8.608V0.141h3.149c2.65,0,4.431,1.751,4.431,4.228c0,2.501-1.778,4.239-4.42,4.239H89.529z
		 M95.584,4.368c0-1.625-1.016-2.919-2.896-2.919h-1.675V7.3h1.664C94.52,7.3,95.584,5.98,95.584,4.368"/>
	<path fill="#FFFFFF" d="M108.391,8.608l-0.623-1.638h-3.885l-0.623,1.638h-1.688l3.325-8.467h1.854l3.326,8.467H108.391z
		 M105.827,1.625l-1.525,4.037h3.046L105.827,1.625z"/>
	<path fill="#FFFFFF" d="M111.304,8.608V0.141h3.733c1.776,0,2.754,1.205,2.754,2.653c0,1.434-0.99,2.64-2.754,2.64h-2.248v3.174
		H111.304z M116.269,2.794c0-0.813-0.597-1.345-1.437-1.345h-2.043v2.678h2.043C115.672,4.127,116.269,3.594,116.269,2.794"/>
	<path fill="#FFFFFF" d="M119.351,8.608V0.141h3.733c1.775,0,2.754,1.205,2.754,2.653c0,1.434-0.989,2.64-2.754,2.64h-2.248v3.174
		H119.351z M124.313,2.794c0-0.813-0.598-1.345-1.434-1.345h-2.043v2.678h2.043C123.717,4.127,124.313,3.594,124.313,2.794"/>
	<path fill="#FFFFFF" d="M130.618,4.381c0-2.526,1.791-4.381,4.329-4.381c2.526,0,4.33,1.854,4.33,4.381s-1.804,4.38-4.33,4.38
		C132.409,8.761,130.618,6.907,130.618,4.381 M137.754,4.381c0-1.753-1.104-3.061-2.808-3.061c-1.712,0-2.804,1.308-2.804,3.061
		c0,1.739,1.092,3.06,2.804,3.06C136.649,7.441,137.754,6.12,137.754,4.381"/>
	<polygon fill="#FFFFFF" points="146.917,8.608 142.499,2.552 142.499,8.608 141.014,8.608 141.014,0.142 142.538,0.142 
		146.866,6.006 146.866,0.142 148.351,0.142 148.351,8.608 	"/>
	<path fill="#FFFFFF" d="M19.067,15.86L2.132,6.469c-0.329-0.183-0.641-0.27-0.921-0.27c-0.128,0-0.249,0.019-0.361,0.054
		l13.746,13.324L19.067,15.86z M24.871,19.077l-5.802-3.218l-3.763,4.441l3.784,4.348l5.781-3.207
		C26.044,20.791,26.044,19.729,24.871,19.077 M0.849,6.253C0.334,6.416,0,6.943,0,7.74l0.004,25.041
		c0,0.788,0.323,1.308,0.823,1.479l13.058-13.957L0.849,6.253z M0.827,34.26c0.36,0.123,0.813,0.065,1.305-0.207l16.956-9.404
		l-4.492-3.621L0.827,34.26z"/>
</g>
</svg>
