<svg xmlns="http://www.w3.org/2000/svg" xmlns:xlink="http://www.w3.org/1999/xlink" preserveAspectRatio="xMidYMid" width="210" height="60" viewBox="0 0 210 60">
  <defs>
    <style>
      .cls-1 {
        fill: #fff;
        fill-rule: evenodd;
      }
    </style>
  </defs>
  <g>
    <path d="M195.823,45.061 L195.823,40.322 C195.823,37.424 195.869,36.182 194.213,36.182 C193.292,36.182 192.073,36.619 192.073,36.619 C192.073,36.619 192.165,38.206 192.165,39.103 L192.165,45.061 L189.083,45.061 L189.083,39.149 C189.083,37.079 188.899,36.182 187.473,36.182 C186.714,36.182 185.426,36.573 185.426,36.573 L185.426,45.061 L182.343,45.061 L182.343,33.582 L185.403,33.582 L185.403,34.134 C185.403,34.134 186.162,33.766 186.967,33.513 C187.358,33.398 187.795,33.306 188.117,33.306 C189.405,33.306 190.302,33.628 190.923,34.250 C192.096,33.812 193.614,33.306 194.857,33.306 C197.985,33.306 198.905,35.124 198.905,39.057 L198.905,45.061 L195.823,45.061 ZM175.167,45.337 C171.165,45.337 169.877,42.852 169.877,39.310 C169.877,35.768 171.165,33.306 175.167,33.306 C179.170,33.306 180.458,35.768 180.458,39.310 C180.458,42.852 179.170,45.337 175.167,45.337 ZM175.167,36.090 C173.465,36.090 173.005,37.194 173.005,39.310 C173.005,41.426 173.465,42.553 175.167,42.553 C176.869,42.553 177.329,41.426 177.329,39.310 C177.329,37.194 176.869,36.090 175.167,36.090 ZM165.622,42.392 C166.496,42.392 168.290,42.208 168.290,42.208 L168.382,44.854 C168.382,44.854 165.921,45.337 164.633,45.337 C161.206,45.337 159.848,43.519 159.848,39.195 C159.848,35.124 161.275,33.306 164.702,33.306 C166.036,33.306 168.382,33.789 168.382,33.789 L168.290,36.435 C168.290,36.435 166.473,36.251 165.599,36.251 C163.391,36.251 162.977,37.010 162.977,39.195 C162.977,41.656 163.414,42.392 165.622,42.392 ZM154.835,41.242 L158.147,41.242 L158.147,45.061 L154.835,45.061 L154.835,41.242 ZM149.637,33.582 L152.719,33.582 L152.719,45.061 L149.637,45.061 L149.637,33.582 ZM149.637,28.936 L152.719,28.936 L152.719,32.087 L149.637,32.087 L149.637,28.936 ZM145.497,45.061 L143.634,41.541 L141.793,45.061 L138.504,45.061 L141.632,39.333 L138.504,33.582 L141.793,33.582 L143.634,37.125 L145.497,33.582 L148.786,33.582 L145.635,39.333 L148.786,45.061 L145.497,45.061 ZM132.179,45.337 C128.177,45.337 126.889,42.852 126.889,39.310 C126.889,35.768 128.177,33.306 132.179,33.306 C136.181,33.306 137.470,35.768 137.470,39.310 C137.470,42.852 136.181,45.337 132.179,45.337 ZM132.179,36.090 C130.477,36.090 130.017,37.194 130.017,39.310 C130.017,41.426 130.477,42.553 132.179,42.553 C133.881,42.553 134.341,41.426 134.341,39.310 C134.341,37.194 133.881,36.090 132.179,36.090 ZM119.988,45.337 C115.986,45.337 114.698,42.852 114.698,39.310 C114.698,35.768 115.986,33.306 119.988,33.306 C123.991,33.306 125.279,35.768 125.279,39.310 C125.279,42.852 123.991,45.337 119.988,45.337 ZM119.988,36.090 C118.286,36.090 117.826,37.194 117.826,39.310 C117.826,41.426 118.286,42.553 119.988,42.553 C121.691,42.553 122.151,41.426 122.151,39.310 C122.151,37.194 121.691,36.090 119.988,36.090 ZM107.821,45.337 C106.717,45.337 103.336,45.015 103.336,45.015 L103.336,28.959 L106.418,28.959 L106.418,33.835 C106.418,33.835 107.890,33.306 108.902,33.306 C112.031,33.306 113.549,34.802 113.549,39.195 C113.549,44.117 111.869,45.337 107.821,45.337 ZM108.488,36.159 C107.729,36.159 106.418,36.343 106.418,36.343 L106.418,42.438 C106.418,42.438 107.476,42.553 107.821,42.553 C109.937,42.553 110.420,41.656 110.420,39.195 C110.420,36.895 109.684,36.159 108.488,36.159 ZM97.126,41.242 L100.438,41.242 L100.438,45.061 L97.126,45.061 L97.126,41.242 ZM89.145,45.337 C88.294,45.337 87.236,45.153 87.236,45.153 L87.236,49.891 L84.153,49.891 L84.153,33.582 L87.236,33.582 L87.236,34.111 C87.236,34.111 88.708,33.306 89.835,33.306 C92.871,33.306 94.366,34.802 94.366,39.218 C94.366,44.117 92.664,45.337 89.145,45.337 ZM89.237,36.136 C88.455,36.136 87.236,36.573 87.236,36.573 L87.236,42.438 C87.236,42.438 88.271,42.553 88.915,42.553 C90.755,42.553 91.238,41.656 91.238,39.218 C91.238,36.895 90.456,36.136 89.237,36.136 ZM76.586,45.337 C75.735,45.337 74.677,45.153 74.677,45.153 L74.677,49.891 L71.595,49.891 L71.595,33.582 L74.677,33.582 L74.677,34.111 C74.677,34.111 76.149,33.306 77.276,33.306 C80.313,33.306 81.808,34.802 81.808,39.218 C81.808,44.117 80.106,45.337 76.586,45.337 ZM76.678,36.136 C75.896,36.136 74.677,36.573 74.677,36.573 L74.677,42.438 C74.677,42.438 75.712,42.553 76.356,42.553 C78.197,42.553 78.680,41.656 78.680,39.218 C78.680,36.895 77.897,36.136 76.678,36.136 ZM66.236,44.555 C66.236,44.555 64.304,45.337 62.717,45.337 C60.439,45.337 59.289,43.864 59.289,41.564 C59.289,38.965 60.761,38.206 63.292,38.022 L65.776,37.861 L65.776,37.286 C65.776,36.665 65.293,36.251 64.626,36.251 C62.924,36.251 60.163,36.435 60.163,36.435 L60.071,33.812 C60.071,33.812 63.131,33.306 64.810,33.306 C67.386,33.306 68.858,34.319 68.858,37.263 L68.858,41.518 C68.858,42.369 68.950,42.599 69.594,42.714 L69.502,45.337 C67.501,45.337 66.972,45.038 66.236,44.555 ZM65.776,40.207 L63.683,40.299 C62.878,40.345 62.395,40.644 62.395,41.472 C62.395,42.277 62.694,42.691 63.338,42.691 C64.281,42.691 65.776,42.346 65.776,42.346 L65.776,40.207 Z" class="cls-1"/>
    <path d="M165.854,22.731 L165.854,23.725 L159.530,23.725 L159.530,14.622 L165.815,14.622 L165.815,15.616 L160.741,15.616 L160.741,18.536 L165.471,18.536 L165.471,19.530 L160.741,19.530 L160.741,22.731 L165.854,22.731 ZM150.465,16.419 L150.439,16.419 L150.439,23.725 L149.292,23.725 L149.292,14.622 L150.579,14.622 L155.373,22.004 L155.399,22.004 L155.399,14.622 L156.546,14.622 L156.546,23.725 L155.220,23.725 L150.465,16.419 ZM145.033,14.622 L146.245,14.622 L146.245,23.725 L145.033,23.725 L145.033,14.622 ZM136.873,14.622 L138.085,14.622 L138.085,22.731 L142.904,22.731 L142.904,23.725 L136.873,23.725 L136.873,14.622 ZM127.808,16.419 L127.783,16.419 L127.783,23.725 L126.635,23.725 L126.635,14.622 L127.923,14.622 L132.717,22.004 L132.743,22.004 L132.743,14.622 L133.890,14.622 L133.890,23.725 L132.564,23.725 L127.808,16.419 ZM123.053,22.488 C122.687,22.930 122.232,23.283 121.688,23.547 C121.144,23.810 120.511,23.942 119.789,23.942 C119.066,23.942 118.433,23.810 117.889,23.547 C117.345,23.283 116.890,22.930 116.525,22.488 C116.159,22.046 115.885,21.538 115.702,20.965 C115.519,20.391 115.428,19.794 115.428,19.173 C115.428,18.553 115.519,17.956 115.702,17.382 C115.885,16.808 116.159,16.300 116.525,15.858 C116.890,15.416 117.345,15.064 117.889,14.800 C118.433,14.537 119.066,14.405 119.789,14.405 C120.511,14.405 121.144,14.537 121.688,14.800 C122.232,15.064 122.687,15.416 123.053,15.858 C123.418,16.300 123.692,16.808 123.875,17.382 C124.058,17.956 124.149,18.553 124.149,19.173 C124.149,19.794 124.058,20.391 123.875,20.965 C123.692,21.538 123.418,22.046 123.053,22.488 ZM122.759,17.806 C122.640,17.357 122.453,16.953 122.198,16.593 C121.943,16.234 121.616,15.945 121.217,15.727 C120.817,15.509 120.341,15.399 119.789,15.399 C119.236,15.399 118.760,15.509 118.361,15.727 C117.961,15.945 117.634,16.234 117.379,16.593 C117.124,16.953 116.937,17.357 116.818,17.806 C116.699,18.256 116.639,18.711 116.639,19.173 C116.639,19.636 116.699,20.091 116.818,20.541 C116.937,20.990 117.124,21.394 117.379,21.754 C117.634,22.113 117.961,22.402 118.361,22.620 C118.760,22.838 119.236,22.947 119.789,22.947 C120.341,22.947 120.817,22.838 121.217,22.620 C121.616,22.402 121.943,22.113 122.198,21.754 C122.453,21.394 122.640,20.990 122.759,20.541 C122.878,20.091 122.938,19.636 122.938,19.173 C122.938,18.711 122.878,18.256 122.759,17.806 ZM102.309,16.419 L102.283,16.419 L102.283,23.725 L101.136,23.725 L101.136,14.622 L102.423,14.622 L107.217,22.004 L107.243,22.004 L107.243,14.622 L108.390,14.622 L108.390,23.725 L107.064,23.725 L102.309,16.419 ZM97.387,14.622 L98.599,14.622 L98.599,23.725 L97.387,23.725 L97.387,14.622 ZM85.237,16.419 L85.211,16.419 L85.211,23.725 L84.064,23.725 L84.064,14.622 L85.351,14.622 L90.145,22.004 L90.171,22.004 L90.171,14.622 L91.318,14.622 L91.318,23.725 L89.992,23.725 L85.237,16.419 ZM80.443,22.590 C80.264,22.828 80.062,23.032 79.837,23.202 C79.612,23.372 79.372,23.513 79.117,23.623 C78.862,23.733 78.598,23.814 78.326,23.865 C78.054,23.916 77.786,23.942 77.523,23.942 C76.843,23.942 76.235,23.814 75.700,23.559 C75.164,23.304 74.710,22.964 74.336,22.539 C73.961,22.114 73.677,21.626 73.481,21.073 C73.286,20.521 73.188,19.947 73.188,19.352 C73.188,18.689 73.279,18.058 73.462,17.458 C73.645,16.859 73.917,16.334 74.278,15.884 C74.639,15.433 75.090,15.074 75.630,14.806 C76.169,14.539 76.801,14.405 77.523,14.405 C78.016,14.405 78.481,14.462 78.919,14.577 C79.357,14.692 79.748,14.872 80.092,15.119 C80.436,15.365 80.725,15.678 80.959,16.056 C81.193,16.434 81.352,16.891 81.437,17.427 L80.226,17.427 C80.167,17.082 80.056,16.781 79.895,16.523 C79.733,16.265 79.533,16.054 79.295,15.890 C79.057,15.726 78.787,15.604 78.486,15.522 C78.184,15.440 77.863,15.399 77.523,15.399 C76.970,15.399 76.497,15.511 76.101,15.733 C75.706,15.956 75.383,16.249 75.132,16.613 C74.882,16.976 74.697,17.391 74.578,17.858 C74.459,18.324 74.399,18.801 74.399,19.289 C74.399,19.768 74.467,20.228 74.603,20.669 C74.739,21.110 74.939,21.499 75.203,21.837 C75.466,22.175 75.791,22.445 76.178,22.646 C76.565,22.847 77.013,22.947 77.523,22.947 C77.990,22.947 78.409,22.870 78.779,22.714 C79.149,22.558 79.461,22.344 79.716,22.072 C79.971,21.800 80.160,21.480 80.283,21.112 C80.407,20.745 80.460,20.349 80.443,19.926 L77.536,19.926 L77.536,18.931 L81.527,18.931 L81.527,23.725 L80.762,23.725 L80.443,22.590 ZM69.363,14.622 L70.575,14.622 L70.575,23.725 L69.363,23.725 L69.363,14.622 ZM65.666,23.311 C65.326,23.527 64.945,23.687 64.525,23.789 C64.104,23.891 63.685,23.942 63.269,23.942 C62.759,23.942 62.276,23.878 61.822,23.751 C61.367,23.623 60.967,23.428 60.623,23.164 C60.279,22.901 60.007,22.567 59.807,22.163 C59.607,21.760 59.508,21.281 59.508,20.729 L60.655,20.729 C60.655,21.116 60.729,21.449 60.878,21.729 C61.027,22.008 61.222,22.238 61.465,22.419 C61.707,22.599 61.987,22.732 62.306,22.818 C62.625,22.905 62.958,22.947 63.307,22.947 C63.579,22.947 63.853,22.922 64.129,22.870 C64.406,22.819 64.654,22.731 64.875,22.607 C65.096,22.483 65.275,22.314 65.411,22.099 C65.547,21.885 65.615,21.611 65.615,21.277 C65.615,20.960 65.532,20.703 65.366,20.506 C65.200,20.309 64.982,20.149 64.710,20.025 C64.437,19.900 64.127,19.798 63.779,19.716 C63.430,19.635 63.073,19.556 62.708,19.479 C62.342,19.403 61.985,19.312 61.637,19.205 C61.288,19.099 60.976,18.957 60.700,18.778 C60.423,18.600 60.202,18.374 60.037,18.102 C59.871,17.830 59.788,17.486 59.788,17.070 C59.788,16.611 59.882,16.213 60.069,15.877 C60.255,15.542 60.504,15.265 60.814,15.049 C61.125,14.832 61.477,14.671 61.873,14.564 C62.268,14.458 62.674,14.405 63.090,14.405 C63.558,14.405 63.991,14.460 64.391,14.571 C64.790,14.681 65.139,14.855 65.436,15.093 C65.734,15.331 65.972,15.631 66.150,15.992 C66.329,16.354 66.426,16.785 66.444,17.286 L65.296,17.286 C65.228,16.623 64.992,16.142 64.588,15.845 C64.185,15.548 63.668,15.399 63.039,15.399 C62.784,15.399 62.534,15.425 62.287,15.476 C62.040,15.528 61.822,15.614 61.630,15.734 C61.439,15.854 61.286,16.014 61.171,16.216 C61.057,16.417 60.999,16.668 60.999,16.968 C60.999,17.251 61.082,17.480 61.248,17.656 C61.414,17.831 61.635,17.975 61.911,18.086 C62.187,18.198 62.499,18.290 62.848,18.363 C63.197,18.436 63.554,18.515 63.919,18.600 C64.284,18.685 64.641,18.784 64.990,18.899 C65.339,19.014 65.649,19.169 65.921,19.365 C66.193,19.560 66.412,19.809 66.577,20.110 C66.743,20.412 66.826,20.784 66.826,21.226 C66.826,21.711 66.718,22.125 66.501,22.469 C66.284,22.813 66.006,23.094 65.666,23.311 Z" class="cls-1"/>
    <path d="M22.988,43.009 L22.988,44.245 C22.988,45.765 21.824,46.997 20.388,46.997 L12.590,46.997 C11.155,46.997 9.991,45.765 9.991,44.245 L9.991,27.730 C9.991,26.211 11.155,24.979 12.590,24.979 L16.995,24.979 L16.995,24.983 L20.009,24.983 L20.009,24.979 L20.388,24.979 C21.824,24.979 22.988,26.211 22.988,27.730 L22.988,38.980 L46.061,38.980 L50.009,40.323 L50.009,43.009 L22.988,43.009 ZM16.488,44.999 L17.995,43.984 L14.981,43.984 L16.488,44.999 ZM16.488,27.001 L14.981,27.993 L17.995,27.993 L16.488,27.001 ZM21.981,29.005 L10.997,29.005 L10.997,43.003 L21.981,43.003 L21.981,29.005 ZM23.994,38.997 L22.990,38.997 L22.990,42.983 L23.994,42.983 L23.994,38.997 ZM26.978,38.994 L28.456,39.986 L34.530,39.986 L36.007,38.994 L26.978,38.994 ZM37.002,28.275 C37.002,29.768 37.002,29.304 37.002,31.699 C37.002,33.979 37.004,33.981 34.998,33.981 C32.993,33.981 32.995,33.979 32.995,31.699 C32.995,29.304 32.995,29.768 32.995,28.275 C32.995,25.995 32.993,25.993 34.998,25.993 C37.004,25.993 37.002,25.995 37.002,28.275 ZM29.992,28.275 C29.992,29.768 29.992,29.304 29.992,31.699 C29.992,33.979 29.994,33.981 27.988,33.981 C25.983,33.981 25.985,33.979 25.985,31.699 C25.985,29.304 25.985,29.768 25.985,28.275 C25.985,25.995 25.983,25.993 27.988,25.993 C29.994,25.993 29.992,25.995 29.992,28.275 ZM43.010,19.981 L20.007,19.981 L20.007,23.996 L16.995,23.996 L16.995,19.750 C16.995,18.233 18.169,17.003 19.618,17.003 L43.369,17.003 C44.817,17.003 45.991,18.233 45.991,19.750 L45.991,38.980 L43.010,38.980 L43.010,19.981 Z" class="cls-1"/>
  </g>
</svg>
