<svg xmlns="http://www.w3.org/2000/svg" xmlns:xlink="http://www.w3.org/1999/xlink" preserveAspectRatio="xMidYMid" width="210" height="60" viewBox="0 0 210 60">
  <defs>
    <style>
      .cls-1 {
        fill: #fff;
        fill-rule: evenodd;
      }
    </style>
  </defs>
  <g>
    <path d="M195.823,45.061 L195.823,40.322 C195.823,37.424 195.869,36.182 194.213,36.182 C193.292,36.182 192.073,36.619 192.073,36.619 C192.073,36.619 192.165,38.206 192.165,39.103 L192.165,45.061 L189.083,45.061 L189.083,39.149 C189.083,37.079 188.899,36.182 187.473,36.182 C186.714,36.182 185.426,36.573 185.426,36.573 L185.426,45.061 L182.343,45.061 L182.343,33.582 L185.403,33.582 L185.403,34.134 C185.403,34.134 186.162,33.766 186.967,33.513 C187.358,33.398 187.795,33.306 188.117,33.306 C189.405,33.306 190.302,33.628 190.923,34.250 C192.096,33.812 193.614,33.306 194.857,33.306 C197.985,33.306 198.905,35.124 198.905,39.057 L198.905,45.061 L195.823,45.061 ZM175.167,45.337 C171.165,45.337 169.877,42.852 169.877,39.310 C169.877,35.768 171.165,33.306 175.167,33.306 C179.170,33.306 180.458,35.768 180.458,39.310 C180.458,42.852 179.170,45.337 175.167,45.337 ZM175.167,36.090 C173.465,36.090 173.005,37.194 173.005,39.310 C173.005,41.426 173.465,42.553 175.167,42.553 C176.869,42.553 177.329,41.426 177.329,39.310 C177.329,37.194 176.869,36.090 175.167,36.090 ZM165.622,42.392 C166.496,42.392 168.290,42.208 168.290,42.208 L168.382,44.854 C168.382,44.854 165.921,45.337 164.633,45.337 C161.206,45.337 159.848,43.519 159.848,39.195 C159.848,35.124 161.275,33.306 164.702,33.306 C166.036,33.306 168.382,33.789 168.382,33.789 L168.290,36.435 C168.290,36.435 166.473,36.251 165.599,36.251 C163.391,36.251 162.977,37.010 162.977,39.195 C162.977,41.656 163.414,42.392 165.622,42.392 ZM154.835,41.242 L158.147,41.242 L158.147,45.061 L154.835,45.061 L154.835,41.242 ZM149.637,33.582 L152.719,33.582 L152.719,45.061 L149.637,45.061 L149.637,33.582 ZM149.637,28.936 L152.719,28.936 L152.719,32.087 L149.637,32.087 L149.637,28.936 ZM145.497,45.061 L143.634,41.541 L141.793,45.061 L138.504,45.061 L141.632,39.333 L138.504,33.582 L141.793,33.582 L143.634,37.125 L145.497,33.582 L148.786,33.582 L145.635,39.333 L148.786,45.061 L145.497,45.061 ZM132.179,45.337 C128.177,45.337 126.889,42.852 126.889,39.310 C126.889,35.768 128.177,33.306 132.179,33.306 C136.181,33.306 137.470,35.768 137.470,39.310 C137.470,42.852 136.181,45.337 132.179,45.337 ZM132.179,36.090 C130.477,36.090 130.017,37.194 130.017,39.310 C130.017,41.426 130.477,42.553 132.179,42.553 C133.881,42.553 134.341,41.426 134.341,39.310 C134.341,37.194 133.881,36.090 132.179,36.090 ZM119.988,45.337 C115.986,45.337 114.698,42.852 114.698,39.310 C114.698,35.768 115.986,33.306 119.988,33.306 C123.991,33.306 125.279,35.768 125.279,39.310 C125.279,42.852 123.991,45.337 119.988,45.337 ZM119.988,36.090 C118.286,36.090 117.826,37.194 117.826,39.310 C117.826,41.426 118.286,42.553 119.988,42.553 C121.691,42.553 122.151,41.426 122.151,39.310 C122.151,37.194 121.691,36.090 119.988,36.090 ZM107.821,45.337 C106.717,45.337 103.336,45.015 103.336,45.015 L103.336,28.959 L106.418,28.959 L106.418,33.835 C106.418,33.835 107.890,33.306 108.902,33.306 C112.031,33.306 113.549,34.802 113.549,39.195 C113.549,44.117 111.870,45.337 107.821,45.337 ZM108.488,36.159 C107.729,36.159 106.418,36.343 106.418,36.343 L106.418,42.438 C106.418,42.438 107.476,42.553 107.821,42.553 C109.937,42.553 110.420,41.656 110.420,39.195 C110.420,36.895 109.684,36.159 108.488,36.159 ZM97.126,41.242 L100.438,41.242 L100.438,45.061 L97.126,45.061 L97.126,41.242 ZM89.145,45.337 C88.294,45.337 87.236,45.153 87.236,45.153 L87.236,49.891 L84.153,49.891 L84.153,33.582 L87.236,33.582 L87.236,34.111 C87.236,34.111 88.708,33.306 89.835,33.306 C92.871,33.306 94.366,34.802 94.366,39.218 C94.366,44.117 92.664,45.337 89.145,45.337 ZM89.237,36.136 C88.455,36.136 87.236,36.573 87.236,36.573 L87.236,42.438 C87.236,42.438 88.271,42.553 88.915,42.553 C90.755,42.553 91.238,41.656 91.238,39.218 C91.238,36.895 90.456,36.136 89.237,36.136 ZM76.586,45.337 C75.735,45.337 74.677,45.153 74.677,45.153 L74.677,49.891 L71.595,49.891 L71.595,33.582 L74.677,33.582 L74.677,34.111 C74.677,34.111 76.149,33.306 77.276,33.306 C80.313,33.306 81.808,34.802 81.808,39.218 C81.808,44.117 80.106,45.337 76.586,45.337 ZM76.678,36.136 C75.896,36.136 74.677,36.573 74.677,36.573 L74.677,42.438 C74.677,42.438 75.712,42.553 76.356,42.553 C78.197,42.553 78.680,41.656 78.680,39.218 C78.680,36.895 77.897,36.136 76.678,36.136 ZM66.236,44.555 C66.236,44.555 64.304,45.337 62.717,45.337 C60.439,45.337 59.289,43.864 59.289,41.564 C59.289,38.965 60.761,38.206 63.292,38.022 L65.776,37.861 L65.776,37.286 C65.776,36.665 65.293,36.251 64.626,36.251 C62.924,36.251 60.163,36.435 60.163,36.435 L60.071,33.812 C60.071,33.812 63.131,33.306 64.810,33.306 C67.386,33.306 68.858,34.319 68.858,37.263 L68.858,41.518 C68.858,42.369 68.950,42.599 69.594,42.714 L69.502,45.337 C67.501,45.337 66.972,45.038 66.236,44.555 ZM65.776,40.207 L63.683,40.299 C62.878,40.345 62.395,40.644 62.395,41.472 C62.395,42.277 62.694,42.691 63.338,42.691 C64.281,42.691 65.776,42.346 65.776,42.346 L65.776,40.207 Z" class="cls-1"/>
    <path d="M150.949,23.725 L146.194,16.419 L146.168,16.419 L146.168,23.725 L145.021,23.725 L145.021,14.622 L146.308,14.622 L151.102,22.004 L151.128,22.004 L151.128,14.622 L152.275,14.622 L152.275,23.725 L150.949,23.725 ZM140.163,22.488 C139.797,22.930 139.343,23.283 138.799,23.547 C138.255,23.810 137.621,23.942 136.899,23.942 C136.176,23.942 135.543,23.810 134.999,23.547 C134.455,23.283 134.000,22.930 133.635,22.488 C133.269,22.046 132.995,21.538 132.813,20.965 C132.630,20.391 132.539,19.794 132.539,19.173 C132.539,18.553 132.630,17.956 132.813,17.382 C132.995,16.808 133.269,16.300 133.635,15.858 C134.000,15.416 134.455,15.064 134.999,14.800 C135.543,14.537 136.176,14.405 136.899,14.405 C137.621,14.405 138.255,14.537 138.799,14.800 C139.343,15.064 139.797,15.416 140.163,15.858 C140.528,16.300 140.803,16.808 140.985,17.382 C141.168,17.956 141.260,18.553 141.260,19.173 C141.260,19.794 141.168,20.391 140.985,20.965 C140.803,21.538 140.528,22.046 140.163,22.488 ZM139.870,17.806 C139.751,17.357 139.564,16.953 139.309,16.593 C139.054,16.234 138.726,15.945 138.327,15.727 C137.927,15.509 137.451,15.399 136.899,15.399 C136.346,15.399 135.870,15.509 135.471,15.727 C135.071,15.945 134.744,16.234 134.489,16.593 C134.234,16.953 134.047,17.357 133.928,17.806 C133.809,18.256 133.750,18.711 133.750,19.173 C133.750,19.636 133.809,20.091 133.928,20.541 C134.047,20.990 134.234,21.394 134.489,21.754 C134.744,22.113 135.071,22.402 135.471,22.620 C135.870,22.838 136.346,22.947 136.899,22.947 C137.451,22.947 137.927,22.838 138.327,22.620 C138.726,22.402 139.054,22.113 139.309,21.754 C139.564,21.394 139.751,20.990 139.870,20.541 C139.989,20.091 140.048,19.636 140.048,19.173 C140.048,18.711 139.989,18.256 139.870,17.806 ZM126.992,14.622 L128.204,14.622 L128.204,23.725 L126.992,23.725 L126.992,14.622 ZM121.676,23.725 L119.228,19.964 L116.703,23.725 L115.339,23.725 L118.514,19.046 L115.518,14.622 L116.971,14.622 L119.241,18.179 L121.612,14.622 L122.964,14.622 L119.955,19.046 L123.155,23.725 L121.676,23.725 ZM105.496,14.622 L111.782,14.622 L111.782,15.616 L106.707,15.616 L106.707,18.536 L111.438,18.536 L111.438,19.530 L106.707,19.530 L106.707,22.731 L111.820,22.731 L111.820,23.725 L105.496,23.725 L105.496,14.622 ZM95.411,16.419 L95.386,16.419 L95.386,23.725 L94.238,23.725 L94.238,14.622 L95.526,14.622 L100.320,22.004 L100.345,22.004 L100.345,14.622 L101.493,14.622 L101.493,23.725 L100.167,23.725 L95.411,16.419 ZM84.166,16.419 L84.140,16.419 L84.140,23.725 L82.993,23.725 L82.993,14.622 L84.281,14.622 L89.075,22.004 L89.100,22.004 L89.100,14.622 L90.248,14.622 L90.248,23.725 L88.922,23.725 L84.166,16.419 ZM78.390,22.488 C78.025,22.930 77.570,23.283 77.026,23.547 C76.482,23.810 75.849,23.942 75.126,23.942 C74.404,23.942 73.770,23.810 73.226,23.547 C72.682,23.283 72.228,22.930 71.862,22.488 C71.497,22.046 71.222,21.538 71.040,20.965 C70.857,20.391 70.766,19.794 70.766,19.173 C70.766,18.553 70.857,17.956 71.040,17.382 C71.222,16.808 71.497,16.300 71.862,15.858 C72.228,15.416 72.682,15.064 73.226,14.800 C73.770,14.537 74.404,14.405 75.126,14.405 C75.849,14.405 76.482,14.537 77.026,14.800 C77.570,15.064 78.025,15.416 78.390,15.858 C78.756,16.300 79.030,16.808 79.213,17.382 C79.395,17.956 79.487,18.553 79.487,19.173 C79.487,19.794 79.395,20.391 79.213,20.965 C79.030,21.538 78.756,22.046 78.390,22.488 ZM78.097,17.806 C77.978,17.357 77.791,16.953 77.536,16.593 C77.281,16.234 76.954,15.945 76.554,15.727 C76.155,15.509 75.679,15.399 75.126,15.399 C74.574,15.399 74.098,15.509 73.698,15.727 C73.299,15.945 72.971,16.234 72.716,16.593 C72.461,16.953 72.274,17.357 72.155,17.806 C72.036,18.256 71.977,18.711 71.977,19.173 C71.977,19.636 72.036,20.091 72.155,20.541 C72.274,20.990 72.461,21.394 72.716,21.754 C72.971,22.113 73.299,22.402 73.698,22.620 C74.098,22.838 74.574,22.947 75.126,22.947 C75.679,22.947 76.155,22.838 76.554,22.620 C76.954,22.402 77.281,22.113 77.536,21.754 C77.791,21.394 77.978,20.990 78.097,20.541 C78.216,20.091 78.275,19.636 78.275,19.173 C78.275,18.711 78.216,18.256 78.097,17.806 ZM61.528,21.811 C61.779,22.158 62.100,22.434 62.491,22.639 C62.882,22.845 63.350,22.947 63.894,22.947 C64.293,22.947 64.648,22.881 64.958,22.748 C65.268,22.615 65.536,22.430 65.761,22.194 C65.987,21.958 66.163,21.677 66.291,21.351 C66.418,21.025 66.495,20.673 66.520,20.295 L67.731,20.295 C67.612,21.434 67.215,22.327 66.539,22.973 C65.863,23.619 64.947,23.942 63.792,23.942 C63.086,23.942 62.470,23.819 61.943,23.572 C61.416,23.326 60.978,22.990 60.630,22.565 C60.281,22.140 60.020,21.638 59.845,21.060 C59.671,20.482 59.584,19.862 59.584,19.199 C59.584,18.536 59.678,17.913 59.865,17.331 C60.051,16.749 60.326,16.241 60.687,15.807 C61.048,15.374 61.497,15.032 62.032,14.781 C62.568,14.530 63.188,14.405 63.894,14.405 C64.370,14.405 64.820,14.469 65.245,14.596 C65.670,14.724 66.048,14.911 66.380,15.157 C66.711,15.404 66.987,15.712 67.209,16.081 C67.430,16.451 67.574,16.878 67.642,17.363 L66.431,17.363 C66.363,17.036 66.252,16.749 66.099,16.504 C65.946,16.258 65.757,16.054 65.532,15.890 C65.307,15.727 65.054,15.604 64.773,15.522 C64.493,15.440 64.195,15.399 63.881,15.399 C63.337,15.399 62.871,15.502 62.485,15.708 C62.098,15.913 61.779,16.189 61.528,16.535 C61.278,16.882 61.093,17.278 60.974,17.723 C60.855,18.168 60.795,18.630 60.795,19.109 C60.795,19.631 60.855,20.125 60.974,20.592 C61.093,21.058 61.278,21.465 61.528,21.811 Z" class="cls-1"/>
    <path d="M22.988,43.009 L22.988,44.245 C22.988,45.765 21.824,46.997 20.388,46.997 L12.590,46.997 C11.155,46.997 9.991,45.765 9.991,44.245 L9.991,27.730 C9.991,26.211 11.155,24.979 12.590,24.979 L16.995,24.979 L16.995,24.983 L20.009,24.983 L20.009,24.979 L20.388,24.979 C21.824,24.979 22.988,26.211 22.988,27.730 L22.988,38.980 L46.061,38.980 L50.009,40.323 L50.009,43.009 L22.988,43.009 ZM16.488,44.999 L17.995,43.984 L14.981,43.984 L16.488,44.999 ZM16.488,27.001 L14.981,27.993 L17.995,27.993 L16.488,27.001 ZM21.981,29.005 L10.997,29.005 L10.997,43.003 L21.981,43.003 L21.981,29.005 ZM23.994,38.997 L22.990,38.997 L22.990,42.983 L23.994,42.983 L23.994,38.997 ZM26.978,38.994 L28.456,39.986 L34.530,39.986 L36.007,38.994 L26.978,38.994 ZM37.002,28.275 C37.002,29.768 37.002,29.304 37.002,31.699 C37.002,33.979 37.004,33.981 34.998,33.981 C32.993,33.981 32.995,33.979 32.995,31.699 C32.995,29.304 32.995,29.768 32.995,28.275 C32.995,25.995 32.993,25.993 34.998,25.993 C37.004,25.993 37.002,25.995 37.002,28.275 ZM29.992,28.275 C29.992,29.768 29.992,29.304 29.992,31.699 C29.992,33.979 29.994,33.981 27.988,33.981 C25.983,33.981 25.985,33.979 25.985,31.699 C25.985,29.304 25.985,29.768 25.985,28.275 C25.985,25.995 25.983,25.993 27.988,25.993 C29.994,25.993 29.992,25.995 29.992,28.275 ZM43.010,19.981 L20.007,19.981 L20.007,23.996 L16.995,23.996 L16.995,19.750 C16.995,18.233 18.169,17.003 19.618,17.003 L43.369,17.003 C44.817,17.003 45.991,18.233 45.991,19.750 L45.991,38.980 L43.010,38.980 L43.010,19.981 Z" class="cls-1"/>
  </g>
</svg>
