<?xml version="1.0" encoding="utf-8"?>
<!-- Generator: Adobe Illustrator 16.0.3, SVG Export Plug-In . SVG Version: 6.00 Build 0)  -->
<!DOCTYPE svg PUBLIC "-//W3C//DTD SVG 1.1//EN" "http://www.w3.org/Graphics/SVG/1.1/DTD/svg11.dtd">
<svg version="1.1" id="Layer_1" xmlns="http://www.w3.org/2000/svg" xmlns:xlink="http://www.w3.org/1999/xlink" x="0px" y="0px"
	 width="480px" height="220px" viewBox="0 0 480 220" enable-background="new 0 0 480 220" xml:space="preserve">
<g id="City_1_">
	<g id="Sky">
		<g>
			
				<linearGradient id="SVGID_1_" gradientUnits="userSpaceOnUse" x1="41.998" y1="469.002" x2="41.998" y2="689" gradientTransform="matrix(1 0 0 -1 198 689)">
				<stop  offset="0.1" style="stop-color:#7CC8A5"/>
				<stop  offset="1" style="stop-color:#33BCF2"/>
			</linearGradient>
			<rect x="-0.004" fill="url(#SVGID_1_)" width="480.004" height="219.998"/>
		</g>
	</g>
	<g id="City_Back">
		<g>
			
				<linearGradient id="SVGID_2_" gradientUnits="userSpaceOnUse" x1="42" y1="468.5459" x2="42" y2="689.0021" gradientTransform="matrix(1 0 0 -1 198 689)">
				<stop  offset="0" style="stop-color:#74CCC5"/>
				<stop  offset="1" style="stop-color:#7DCCA9"/>
			</linearGradient>
			<path fill="url(#SVGID_2_)" d="M472.906,153.21v-11.813H455.64v5.681h-5.226v-11.132h-23.629v17.266h-8.635v9.996h-0.681v-15.902
				h-9.314v15.902h-7.497V220h21.355v-2.045h13.405h0.172v0.249H480V153.21H472.906z M337.707,141.396h-17.268v5.68h-5.227v-11.133
				h-23.629v17.267h-6.361v-6.588h-7.043v-2.953h-9.089v9.313h1.591v6.015h-12.688v-9.993h-17.996v7.613h-7.192v-1.215h-17.279
				v-11.508h-13.405v13.858h-3.408v-10.678h-6.135v7.042h-4.544v3.636h-4.317v-3.812h-27.264v-5.73h-7.043V141.9h-13.632v9.49
				h-2.499v6.135h-0.874v-2.123h-8.669v-8.781h-4.544v7.042h-3.635v-4.543h-0.431v-5.226h-7.067v-0.228H93.745v3.407h-1.567v4.329
				h-8.861v-10.464h-29.99v7.271H49.01v-8.31H35.377v11.49h-2.499v6.133h-9.542V146.62h-4.544v7.042h-3.635v-4.543H7.659v-5.452H0
				v74.286h5.387h2.272h6.362h1.136h3.635h2.5h0.682h1.363h9.542h2.499h1.818h6.589h2.499h2.727h4.317h2.727h24.992h2.272h10.428
				h12.042h0.251h2.021h6.362h1.136h3.635h2.499h0.682h1.363h9.542h2.499h1.818h6.589h2.499h2.727h4.317h2.727h24.992h2.272h4.14
				V220h21.357v-2.045h13.578v0.249h32.797h17.62h11.986v-0.249h0.026h67.025V153.21h-14.541v-11.813H337.707z"/>
		</g>
	</g>
	<g id="City_Front">
		<g>
			
				<linearGradient id="SVGID_3_" gradientUnits="userSpaceOnUse" x1="42.0005" y1="469.0137" x2="42.0004" y2="689.0132" gradientTransform="matrix(1 0 0 -1 198 689)">
				<stop  offset="0" style="stop-color:#91D5C5"/>
				<stop  offset="1" style="stop-color:#7ECCAA"/>
			</linearGradient>
			<path fill="url(#SVGID_3_)" d="M52.014,169.016H35v8.981h-5.997v15.998h-7.009v-6.983h-6.005v-15.01H7.005v-10.014H0v57.998
				h99.054v-44.653h-47.04V169.016z M464.889,174.875v10.075h-8.879v-3.966h-6.998v-12.979h-16.01v17.997h-12.016V175h-9.98v-11.013
				h-21.99v10.888h-8.067v10.075h-5.879v-3.894h-9.535v-9.617h-9.765v9.389h-2.253v-12.823h-15.666v18.091h-15.894v8.243h-3.947
				v-30.352h-30.016v10.888h-9.855v6.12h-4.135v-8.993h-14.011v8.993h-6.988v-6.007H204.99v10.015h-12.988v-5.019h-10.99v-12.973
				h-17.013v10.984h-3.997v14.998h-8.009v-5.983h-6.005v-15.01h-19.203v-9.951h-22.25v24.731h3.468v33.203h37.985l0,0h14.014l0,0
				H480v-45.11L464.889,174.875L464.889,174.875z"/>
		</g>
	</g>
</g>
<g id="Right_Business_1_">
	<g id="wall">
		<g>
			<path fill="#AAAAAA" d="M433.66,126.995h-85.319c-3.509,0-6.354,2.846-6.354,6.356v82.661h98.025v-82.661
				C440.014,129.841,437.17,126.995,433.66,126.995z"/>
		</g>
	</g>
	<g id="door">
		<g>
			<rect x="351.01" y="167.007" fill="#EEECDF" width="34.004" height="49.007"/>
		</g>
	</g>
	<g id="handle">
		<g>
			<rect x="376.998" y="191.004" fill="#37353A" width="5.014" height="1.003"/>
		</g>
	</g>
	<g id="door_window">
		<g>
			<path fill="#66B0CE" d="M353.989,169.984v20.015h28.015v-20.015H353.989z M353.989,213.005h28.015V192.99h-28.015V213.005z"/>
		</g>
	</g>
	<g id="shadow" opacity="0.102">
		<g>
			<rect x="363.017" y="178.002" width="9.993" height="4.985"/>
		</g>
	</g>
	<g id="sign">
		<g>
			<rect x="363.017" y="177.002" fill="#EEECDF" width="9.993" height="4.985"/>
		</g>
	</g>
	<g id="red">
		<g>
			<rect x="363.984" y="178.004" fill="#FF7070" width="8.022" height="3.008"/>
		</g>
	</g>
	<g id="roof_1">
		<g>
			<path fill="#D5D5D5" d="M374.986,152.72c0,4.567,3.584,8.271,8.007,8.271S391,157.288,391,152.72h0.002v-25.728h-16.016V152.72z
				 M408.016,126.992v25.728c0,4.567,3.578,8.271,7.992,8.271c4.413,0,7.991-3.702,7.991-8.271v-25.728H408.016z M341.988,133.424
				v19.296c0,4.567,3.584,8.271,8.007,8.271s8.007-3.702,8.007-8.271v-25.728h-9.786
				C344.775,126.992,341.988,129.872,341.988,133.424z"/>
		</g>
	</g>
	<g id="shadow_1_" opacity="0.102">
		<g>
			<rect x="392.003" y="168.007" width="39.987" height="39.982"/>
		</g>
	</g>
	<g id="window_border">
		<g>
			<rect x="392.003" y="167.007" fill="#EEECDF" width="39.987" height="39.982"/>
		</g>
	</g>
	<g id="window">
		<g>
			<rect x="395.014" y="169.984" fill="#66B0CE" width="33.998" height="34.026"/>
		</g>
	</g>
	<g id="roof_2">
		<g>
			<path fill="#F3F3F3" d="M358.002,152.72c0,4.567,3.802,8.271,8.492,8.271c4.688,0,8.491-3.702,8.491-8.271v-25.728h-16.983
				V152.72z M391.002,152.72H391c0,4.567,3.803,8.271,8.492,8.271c4.688,0,8.492-3.702,8.492-8.271v-25.728h-16.982V152.72z
				 M433.785,126.992h-9.786v25.728c0,4.567,3.585,8.271,8.007,8.271c4.423,0,8.008-3.702,8.008-8.271v-19.296
				C440.014,129.872,437.226,126.992,433.785,126.992z"/>
		</g>
	</g>
	<g id="edge_light" opacity="0.3294">
		<g>
			
				<linearGradient id="SVGID_4_" gradientUnits="userSpaceOnUse" x1="149" y1="561.5" x2="237" y2="561.5" gradientTransform="matrix(1 0 0 -1 198 689)">
				<stop  offset="0" style="stop-color:#FFFFFF;stop-opacity:0"/>
				<stop  offset="0.1022" style="stop-color:#FFFFFF"/>
				<stop  offset="0.8978" style="stop-color:#FFFFFF"/>
				<stop  offset="1" style="stop-color:#FFFFFF;stop-opacity:0"/>
			</linearGradient>
			<rect x="347" y="127" fill="url(#SVGID_4_)" width="88" height="1"/>
		</g>
	</g>
	<polyline id="Shadow" opacity="0.1" enable-background="new    " points="440.014,152.008 342,152 342,216 392,167 440,167 
		440.014,152.008 	"/>
</g>
<g id="Left_Business">
	<g id="wall_2_">
		<g>
			<path fill="#AAAAAA" d="M131.66,126.995H46.34c-3.509,0-6.354,2.846-6.354,6.356v82.661h98.026v-82.661
				C138.013,129.841,135.169,126.995,131.66,126.995z"/>
		</g>
	</g>
	<g id="door_1_">
		<g>
			<rect x="49.009" y="167.007" fill="#EEECDF" width="34.004" height="49.007"/>
		</g>
	</g>
	<g id="handle_1_">
		<g>
			<rect x="74.998" y="191.004" fill="#37353A" width="5.014" height="1.003"/>
		</g>
	</g>
	<g id="door_window_1_">
		<g>
			<path fill="#66B0CE" d="M51.989,169.984v20.015h28.015v-20.015H51.989z M51.989,213.005h28.015V192.99H51.989V213.005z"/>
		</g>
	</g>
	<g id="shadow_4_" opacity="0.102">
		<g>
			<rect x="61.016" y="178.002" width="9.993" height="4.985"/>
		</g>
	</g>
	<g id="sign_1_">
		<g>
			<rect x="61.016" y="177.002" fill="#EEECDF" width="9.993" height="4.985"/>
		</g>
	</g>
	<g id="red_1_">
		<g>
			<rect x="61.984" y="178.004" fill="#FF7070" width="8.023" height="3.008"/>
		</g>
	</g>
	<g id="roof_1_2_">
		<g>
			<path fill="#D5D5D5" d="M72.986,152.72c0,4.567,3.584,8.271,8.007,8.271c4.423,0,8.007-3.703,8.007-8.271h0.002v-25.728H72.986
				V152.72z M106.015,126.992v25.728c0,4.567,3.578,8.271,7.992,8.271c4.413,0,7.991-3.702,7.991-8.271v-25.728H106.015z
				 M39.988,133.424v19.296c0,4.567,3.584,8.271,8.007,8.271c4.423,0,8.007-3.702,8.007-8.271v-25.728h-9.786
				C42.775,126.992,39.988,129.872,39.988,133.424z"/>
		</g>
	</g>
	<g id="shadow_2_" opacity="0.102">
		<g>
			<rect x="90.002" y="168.007" width="39.987" height="39.982"/>
		</g>
	</g>
	<g id="window_border_1_">
		<g>
			<rect x="90.002" y="167.007" fill="#EEECDF" width="39.987" height="39.982"/>
		</g>
	</g>
	<g id="window_1_">
		<g>
			<rect x="93.013" y="169.984" fill="#66B0CE" width="33.998" height="34.026"/>
		</g>
	</g>
	<g id="roof_2_2_">
		<g>
			<path fill="#F3F3F3" d="M56.001,152.72c0,4.567,3.802,8.271,8.492,8.271c4.689,0,8.491-3.702,8.491-8.271v-25.728H56.001V152.72z
				 M89.001,152.72L89.001,152.72c-0.001,4.567,3.802,8.271,8.491,8.271s8.492-3.702,8.492-8.271v-25.728H89.001V152.72z
				 M131.785,126.992h-9.786v25.728c0,4.567,3.585,8.271,8.007,8.271c4.423,0,8.008-3.702,8.008-8.271v-19.296
				C138.013,129.872,135.225,126.992,131.785,126.992z"/>
		</g>
	</g>
	<g id="edge_light_2_" opacity="0.3294">
		<g>
			
				<linearGradient id="SVGID_5_" gradientUnits="userSpaceOnUse" x1="149.0005" y1="561.5" x2="237.0005" y2="561.5" gradientTransform="matrix(1 0 0 -1 -104.0005 689)">
				<stop  offset="0" style="stop-color:#FFFFFF;stop-opacity:0"/>
				<stop  offset="0.1022" style="stop-color:#FFFFFF"/>
				<stop  offset="0.8978" style="stop-color:#FFFFFF"/>
				<stop  offset="1" style="stop-color:#FFFFFF;stop-opacity:0"/>
			</linearGradient>
			<rect x="45" y="127" fill="url(#SVGID_5_)" width="88" height="1"/>
		</g>
	</g>
	<polyline id="Shadow_1_" opacity="0.1" enable-background="new    " points="138.013,152.008 40,152 40,216 90,167 138,167 
		138.013,152.008 	"/>
</g>
<g id="Sidewalk_1_">
	<g id="dark">
		<g>
			<rect x="26.008" y="216.016" fill="#C0C0C0" width="6.981" height="3.978"/>
		</g>
	</g>
	<g id="middle">
		<g>
			<rect x="32.989" y="216.016" fill="#D8D8D8" width="414.023" height="3.978"/>
		</g>
	</g>
	<g id="light">
		<g>
			<rect x="446.99" y="216.014" fill="#E6E6E6" width="7.014" height="3.979"/>
		</g>
	</g>
</g>
<g id="Clouds_1_">
	<g id="Cloud_7_" opacity="0.902">
		<g id="cloud">
			<g>
				<path fill="#FFFFFF" d="M392.813,67.611c-0.072,0-0.145,0.009-0.217,0.011c-1.133-6.59-6.87-11.61-13.793-11.61
					c-4.124,0-7.818,1.789-10.383,4.62c-1.73-0.913-3.699-1.435-5.792-1.435c-5.473,0-10.109,3.54-11.762,8.448
					c-0.216-0.018-0.434-0.033-0.653-0.033c-4.529,0-8.201,3.665-8.201,8.187c0,4.522,3.672,8.188,8.201,8.188h42.6
					c4.529,0,8.201-3.665,8.201-8.188C401.014,71.276,397.342,67.611,392.813,67.611z"/>
			</g>
		</g>
		<g id="dark_1_" opacity="0.051">
			<g>
				<path d="M397.741,69.266c-1.351,3.224-3.741,5.898-6.752,7.617c1.154-2.034,1.823-4.379,1.823-6.884
					c0-3.581-1.359-6.836-3.576-9.311c-1.454,7.75-6.952,14.057-14.218,16.703h-1.438c0.925-1.731,1.461-3.7,1.461-5.8
					c0-3.642-1.583-6.907-4.088-9.174c-2.026,6.108-6.644,11.03-12.547,13.488c0.001-0.036,0.006-0.07,0.006-0.106
					c0-2.301-0.954-4.377-2.485-5.864c-2.678,4.888-7.146,8.654-12.523,10.429c1.473,2.185,3.973,3.623,6.809,3.623h42.6
					c4.529,0,8.201-3.665,8.201-8.188C401.014,73.126,399.726,70.76,397.741,69.266z"/>
			</g>
		</g>
	</g>
	<g id="Cloud_6_">
		<g id="cloud_1_">
			<g>
				<path fill="#FFFFFF" d="M260.814,55.622c-0.073,0-0.146,0.009-0.217,0.011c-1.134-6.598-6.871-11.623-13.795-11.623
					c-4.123,0-7.818,1.791-10.382,4.625c-1.73-0.914-3.699-1.437-5.792-1.437c-5.473,0-10.109,3.544-11.762,8.458
					c-0.216-0.019-0.433-0.033-0.654-0.033c-4.529,0-8.201,3.67-8.201,8.196c0,4.527,3.672,8.197,8.201,8.197h42.6
					c4.529,0,8.201-3.67,8.201-8.197C269.016,59.292,265.344,55.622,260.814,55.622z"/>
			</g>
		</g>
		<g id="dark_2_" opacity="0.051">
			<g>
				<path d="M265.744,57.279c-1.35,3.228-3.741,5.904-6.753,7.625c1.155-2.036,1.823-4.384,1.823-6.892
					c0-3.584-1.359-6.844-3.576-9.321c-1.454,7.758-6.952,14.072-14.217,16.721h-1.438c0.924-1.733,1.46-3.704,1.46-5.806
					c0-3.646-1.583-6.915-4.088-9.185c-2.026,6.115-6.643,11.042-12.547,13.503c0-0.036,0.005-0.07,0.005-0.106
					c0-2.303-0.954-4.382-2.485-5.871c-2.678,4.893-7.147,8.664-12.525,10.44c1.473,2.188,3.972,3.628,6.809,3.628h42.6
					c4.529,0,8.201-3.67,8.201-8.197C269.016,61.144,267.729,58.775,265.744,57.279z"/>
			</g>
		</g>
		<g id="_x3D_" opacity="0.902">
			<g>
				<path fill="#333333" d="M254.511,54.987c-1.505,0-1.503,0.001-1.503,1.597c0,1.044,0,1.149,0,2.825
					c0,1.596-0.002,1.597,1.503,1.597s1.503-0.001,1.503-1.597c0-1.676,0-1.781,0-2.825
					C256.014,54.988,256.016,54.987,254.511,54.987z M249.498,54.993c-1.491,0-1.49,0.001-1.49,1.595c0,1.044,0,1.148,0,2.822
					c0,1.595-0.001,1.595,1.49,1.595c1.49,0,1.488,0,1.488-1.595c0-1.674,0-1.778,0-2.822
					C250.986,54.994,250.988,54.993,249.498,54.993z"/>
			</g>
		</g>
	</g>
	<g id="Cloud_5_" opacity="0.6">
		<g id="cloud_2_">
			<g>
				<path fill="#FFFFFF" d="M155.802,67.611c-0.073,0-0.144,0.009-0.217,0.011c-1.133-6.59-6.869-11.609-13.793-11.609
					c-4.123,0-7.818,1.789-10.382,4.619c-1.73-0.913-3.699-1.436-5.792-1.436c-5.473,0-10.108,3.54-11.761,8.448
					c-0.216-0.017-0.433-0.033-0.654-0.033c-4.529,0-8.201,3.666-8.201,8.188c0,4.522,3.672,8.188,8.201,8.188h42.6
					c4.529,0,8.201-3.665,8.201-8.188C164.003,71.277,160.332,67.611,155.802,67.611z"/>
			</g>
		</g>
		<g id="dark_3_" opacity="0.051">
			<g>
				<path d="M160.732,69.267c-1.35,3.224-3.742,5.897-6.752,7.617c1.155-2.033,1.823-4.378,1.823-6.883
					c0-3.581-1.359-6.837-3.576-9.312c-1.454,7.749-6.95,14.056-14.214,16.702h-1.439c0.924-1.731,1.46-3.7,1.46-5.799
					c0-3.642-1.583-6.907-4.088-9.175c-2.026,6.108-6.642,11.03-12.547,13.488c0-0.036,0.005-0.07,0.005-0.106
					c0-2.301-0.954-4.376-2.484-5.864c-2.678,4.888-7.147,8.654-12.525,10.429c1.473,2.185,3.972,3.623,6.809,3.623h42.6
					c4.529,0,8.201-3.665,8.201-8.188C164.003,73.127,162.715,70.761,160.732,69.267z"/>
			</g>
		</g>
	</g>
	<g id="Cloud_4_">
		<g id="cloud_3_">
			<g>
				<path fill="#EDF9FC" d="M129.792,78.612c-0.073,0-0.144,0.009-0.217,0.011c-1.132-6.59-6.869-11.609-13.793-11.609
					c-4.123,0-7.818,1.789-10.382,4.619c-1.73-0.913-3.699-1.436-5.792-1.436c-5.473,0-10.109,3.54-11.761,8.448
					c-0.216-0.018-0.433-0.033-0.654-0.033c-4.529,0-8.201,3.666-8.201,8.188c0,4.522,3.672,8.188,8.201,8.188h42.6
					c4.529,0,8.201-3.666,8.201-8.188C137.994,82.278,134.322,78.612,129.792,78.612z"/>
			</g>
		</g>
		<g id="dark_4_" opacity="0.051">
			<g>
				<path d="M134.722,80.268c-1.35,3.224-3.742,5.897-6.752,7.616c1.155-2.034,1.823-4.379,1.823-6.884
					c0-3.581-1.359-6.836-3.576-9.311c-1.455,7.749-6.952,14.057-14.217,16.702h-1.436c0.924-1.731,1.46-3.701,1.46-5.8
					c0-3.642-1.583-6.906-4.088-9.174c-2.026,6.109-6.643,11.031-12.547,13.488c0-0.036,0.005-0.07,0.005-0.106
					c0-2.301-0.954-4.377-2.484-5.864c-2.678,4.888-7.147,8.654-12.525,10.428c1.473,2.186,3.972,3.624,6.809,3.624h42.6
					c4.529,0,8.201-3.666,8.201-8.188C137.994,84.128,136.706,81.762,134.722,80.268z"/>
			</g>
		</g>
	</g>
</g>
</svg>
