<?xml version="1.0" encoding="utf-8"?>
<!-- Generator: Adobe Illustrator 16.0.3, SVG Export Plug-In . SVG Version: 6.00 Build 0)  -->
<!DOCTYPE svg PUBLIC "-//W3C//DTD SVG 1.1//EN" "http://www.w3.org/Graphics/SVG/1.1/DTD/svg11.dtd">
<svg version="1.1" id="Layer_1" xmlns="http://www.w3.org/2000/svg" xmlns:xlink="http://www.w3.org/1999/xlink" x="0px" y="0px"
	 width="118px" height="118px" viewBox="0 0 118 118" enable-background="new 0 0 118 118" xml:space="preserve">
<g id="O_-_Button_Shadow_3_" opacity="0.051" enable-background="new    ">
	<g id="O_-_Button_Shadow">
		<g>
			<circle cx="59" cy="62" r="55"/>
		</g>
	</g>
</g>
<g id="O_-_Button_Shadow_2_" enable-background="new    ">
	<g id="O_-_Button_Shadow_1_">
		<g>
			<circle fill="#FFFFFF" cx="59" cy="59" r="55"/>
		</g>
	</g>
</g>
<g id="O_-_Dashed">
	<g opacity="0.1">
		<path d="M57.021,109.464c-1.356-0.053-2.719-0.159-4.052-0.319l0.119-0.992c1.306,0.156,2.642,0.266,3.971,0.313L57.021,109.464z
			 M61.086,109.46l-0.041-1c1.329-0.055,2.665-0.162,3.971-0.319l0.121,0.991C63.805,109.294,62.441,109.402,61.086,109.46z
			 M48.958,108.503c-1.321-0.267-2.649-0.591-3.949-0.965l0.276-0.961c1.273,0.366,2.576,0.685,3.87,0.944L48.958,108.503z
			 M69.148,108.482l-0.199-0.98c1.292-0.264,2.594-0.584,3.867-0.954l0.279,0.961C71.796,107.886,70.468,108.213,69.148,108.482z
			 M41.151,106.257c-1.261-0.477-2.521-1.013-3.744-1.592l0.429-0.904c1.198,0.568,2.433,1.095,3.669,1.563L41.151,106.257z
			 M76.95,106.219l-0.354-0.934c1.238-0.473,2.471-1,3.66-1.565l0.43,0.902C79.473,105.2,78.215,105.737,76.95,106.219z
			 M33.804,102.777c-1.167-0.672-2.323-1.403-3.438-2.172l0.567-0.823c1.093,0.754,2.227,1.47,3.37,2.129L33.804,102.777z
			 M84.277,102.73l-0.5-0.865c1.139-0.659,2.271-1.377,3.365-2.135l0.563,0.817C86.596,101.325,85.439,102.059,84.277,102.73z
			 M27.115,98.165c-1.044-0.853-2.069-1.757-3.045-2.692l0.691-0.723c0.958,0.917,1.962,1.807,2.986,2.641L27.115,98.165z
			 M90.957,98.107l-0.633-0.775c1.018-0.831,2.021-1.721,2.98-2.645l0.688,0.722C93.02,96.352,91.996,97.259,90.957,98.107z
			 M21.249,92.545c-0.897-1.009-1.765-2.066-2.577-3.143l0.798-0.604c0.797,1.058,1.647,2.093,2.526,3.081L21.249,92.545z
			 M96.813,92.477l-0.748-0.664c0.877-0.983,1.729-2.021,2.521-3.086l0.799,0.604C98.573,90.408,97.707,91.468,96.813,92.477z
			 M16.355,86.063c-0.726-1.143-1.413-2.319-2.041-3.515l0.885-0.467c0.616,1.166,1.289,2.325,2,3.444L16.355,86.063z
			 M101.697,85.982l-0.846-0.534c0.709-1.119,1.381-2.28,1.996-3.451l0.885,0.465C103.105,83.656,102.42,84.841,101.697,85.982z
			 M12.564,78.884c-0.532-1.239-1.019-2.518-1.448-3.796l0.948-0.318c0.42,1.254,0.898,2.506,1.419,3.725L12.564,78.884z
			 M105.479,78.789l-0.92-0.393c0.521-1.224,0.994-2.479,1.412-3.729l0.949,0.315C106.492,76.266,106.007,77.545,105.479,78.789z
			 M9.979,71.186c-0.325-1.313-0.6-2.647-0.817-3.979l0.987-0.16c0.212,1.307,0.481,2.615,0.8,3.902L9.979,71.186z M108.048,71.079
			l-0.971-0.238c0.315-1.282,0.582-2.597,0.793-3.903l0.985,0.157C108.643,68.43,108.37,69.77,108.048,71.079z M8.669,63.17
			C8.56,61.828,8.502,60.462,8.5,59.108l1-0.002c0.003,1.328,0.059,2.667,0.167,3.981L8.669,63.17z M109.341,63.061l-0.995-0.08
			c0.104-1.313,0.156-2.649,0.156-3.979l-0.001-0.215h1l0.001,0.208C109.502,60.354,109.448,61.719,109.341,63.061z M9.648,55.125
			l-0.997-0.077c0.104-1.348,0.265-2.707,0.476-4.037l0.987,0.157C9.908,52.473,9.751,53.804,9.648,55.125z M108.328,54.807
			c-0.113-1.329-0.278-2.659-0.493-3.954l0.985-0.163c0.22,1.321,0.389,2.677,0.504,4.032L108.328,54.807z M10.898,47.263
			l-0.972-0.236c0.32-1.314,0.696-2.628,1.12-3.908l0.949,0.314C11.581,44.687,11.212,45.976,10.898,47.263z M107.025,46.952
			c-0.322-1.286-0.7-2.571-1.123-3.822l0.947-0.32c0.432,1.276,0.813,2.588,1.146,3.899L107.025,46.952z M13.401,39.702l-0.921-0.39
			c0.526-1.241,1.11-2.479,1.738-3.678l0.886,0.463C14.49,37.272,13.917,38.485,13.401,39.702z M104.477,39.414
			c-0.521-1.215-1.104-2.423-1.724-3.59l0.883-0.469c0.632,1.19,1.224,2.422,1.759,3.662L104.477,39.414z M17.092,32.643
			l-0.846-0.533c0.72-1.143,1.496-2.27,2.304-3.35l0.801,0.6C18.558,30.417,17.798,31.522,17.092,32.643z M100.743,32.384
			c-0.709-1.112-1.476-2.211-2.276-3.268l0.797-0.604c0.817,1.079,1.6,2.2,2.323,3.334L100.743,32.384z M21.866,26.266l-0.75-0.661
			c0.894-1.014,1.839-2.002,2.809-2.939l0.694,0.72C23.668,24.304,22.742,25.273,21.866,26.266z M95.936,26.04
			c-0.883-0.987-1.813-1.951-2.771-2.864l0.688-0.724c0.978,0.932,1.929,1.915,2.826,2.921L95.936,26.04z M27.594,20.734
			l-0.635-0.772c1.042-0.857,2.133-1.682,3.241-2.453l0.571,0.821C29.685,19.085,28.616,19.895,27.594,20.734z M90.172,20.543
			c-1.025-0.833-2.1-1.636-3.191-2.386l0.565-0.824c1.114,0.765,2.21,1.584,3.257,2.434L90.172,20.543z M34.13,16.19l-0.503-0.864
			c1.167-0.68,2.375-1.319,3.591-1.901l0.432,0.902C36.459,14.896,35.274,15.523,34.13,16.19z M83.604,16.036
			c-1.146-0.659-2.336-1.279-3.533-1.843l0.43-0.904c1.227,0.576,2.438,1.208,3.604,1.88L83.604,16.036z M41.307,12.753L40.95,11.82
			c1.262-0.483,2.558-0.919,3.853-1.298l0.28,0.96C43.814,11.853,42.543,12.28,41.307,12.753z M76.398,12.641
			c-1.241-0.465-2.52-0.885-3.784-1.248l0.274-0.962c1.295,0.37,2.594,0.798,3.856,1.273L76.398,12.641z M48.949,10.519L48.747,9.54
			c1.317-0.272,2.667-0.494,4.011-0.66l0.122,0.992C51.563,10.035,50.24,10.252,48.949,10.519z M68.741,10.456
			c-1.298-0.259-2.622-0.468-3.935-0.621l0.11-0.993c1.34,0.156,2.688,0.37,4.019,0.634L68.741,10.456z M56.849,9.544l-0.043-0.999
			c1.347-0.058,2.711-0.063,4.066-0.013l-0.037,0.999C59.514,9.483,58.169,9.488,56.849,9.544z"/>
	</g>
</g>
<g id="O_5_" opacity="0.102" enable-background="new    ">
	<g id="O">
		<g>
			<circle cx="98" cy="21.999" r="20"/>
		</g>
	</g>
</g>
<g id="O_4_" enable-background="new    ">
	<g id="O_1_">
		<g>
			<circle fill="#FFFFFF" cx="98" cy="19.999" r="20"/>
		</g>
	</g>
</g>
<g id="O_3_" enable-background="new    ">
	<g id="O_2_">
		<g>
			<circle fill="#44CE5E" cx="98" cy="19.999" r="16"/>
		</g>
	</g>
</g>
<path fill-rule="evenodd" clip-rule="evenodd" fill="#555555" d="M77,82H41c-3.158,0-6-2.842-6-6V58c0-1.157,0.843-2,2-2h6V42
	c0-1.157,0.843-2,2-2h35.904C82.062,40,83,40.938,83,42.096V76C83,79.158,80.158,82,77,82z M43,60h-4v16c0,0.849,1.152,2,2,2
	s2-1.151,2-2V60z M79,44H47v32c0,0.532-0.671,1.506-0.808,1.996L77,78c0.848,0,2-1.151,2-2V44z M74.233,55.984h-22.45
	c-0.43,0-0.779-0.406-0.779-0.906v-6.195c0-0.502,0.35-0.906,0.779-0.906h22.45c0.431,0,0.779,0.405,0.779,0.906v6.195
	C75.013,55.578,74.664,55.984,74.233,55.984z M52.045,59.973h21.904c0.572,0,1.035,0.455,1.035,1.017s-0.463,1.016-1.035,1.016
	H52.045c-0.572,0-1.035-0.454-1.035-1.016S51.474,59.973,52.045,59.973z M52.045,65.974h21.904c0.572,0,1.035,0.454,1.035,1.016
	s-0.463,1.016-1.035,1.016H52.045c-0.572,0-1.035-0.454-1.035-1.016S51.474,65.974,52.045,65.974z M52.045,71.974h11.904
	c0.572,0,1.035,0.454,1.035,1.016s-0.463,1.016-1.035,1.016H52.045c-0.572,0-1.035-0.454-1.035-1.016S51.474,71.974,52.045,71.974z"
	/>
<g id="rss" opacity="0.1">
	<g>
		<path fill-rule="evenodd" clip-rule="evenodd" d="M93.289,23.106c-1.952,0-3.531,1.581-3.531,3.532
			c0,1.95,1.579,3.531,3.531,3.531c1.951,0,3.531-1.581,3.531-3.531C96.82,24.688,95.24,23.106,93.289,23.106z M93.29,17.729
			c-0.77,0-1.396,0.62-1.396,1.386c0,0.773,0.626,1.397,1.396,1.397c3.382,0.004,6.119,2.742,6.122,6.126
			c0,0.769,0.625,1.394,1.395,1.394c0.769,0,1.393-0.625,1.393-1.394C102.196,21.717,98.207,17.729,93.29,17.729z M93.286,12.173
			c-0.766,0-1.392,0.62-1.392,1.39s0.626,1.393,1.392,1.393c6.45,0.012,11.669,5.228,11.681,11.684c0,0.769,0.625,1.394,1.392,1.394
			c0.769,0,1.396-0.625,1.396-1.394C107.75,18.648,101.277,12.173,93.286,12.173z"/>
	</g>
</g>
<g id="rss_2_">
	<g>
		<path fill-rule="evenodd" clip-rule="evenodd" fill="#FFFFFF" d="M93.289,21.106c-1.952,0-3.531,1.581-3.531,3.532
			c0,1.95,1.579,3.531,3.531,3.531c1.951,0,3.531-1.581,3.531-3.531C96.82,22.688,95.24,21.106,93.289,21.106z M93.29,15.729
			c-0.77,0-1.396,0.62-1.396,1.386c0,0.773,0.626,1.397,1.396,1.397c3.382,0.004,6.119,2.742,6.122,6.126
			c0,0.769,0.625,1.394,1.395,1.394c0.769,0,1.393-0.625,1.393-1.394C102.196,19.717,98.207,15.729,93.29,15.729z M93.286,10.173
			c-0.766,0-1.392,0.62-1.392,1.39s0.626,1.393,1.392,1.393c6.45,0.012,11.669,5.228,11.681,11.684c0,0.769,0.625,1.394,1.392,1.394
			c0.769,0,1.396-0.625,1.396-1.394C107.75,16.648,101.277,10.173,93.286,10.173z"/>
	</g>
</g>
</svg>
