<?xml version="1.0" encoding="utf-8"?>
<!-- Generator: Adobe Illustrator 17.0.0, SVG Export Plug-In . SVG Version: 6.00 Build 0)  -->
<!DOCTYPE svg PUBLIC "-//W3C//DTD SVG 1.1//EN" "http://www.w3.org/Graphics/SVG/1.1/DTD/svg11.dtd">
<svg version="1.1" id="Layer_1" xmlns="http://www.w3.org/2000/svg" xmlns:xlink="http://www.w3.org/1999/xlink" x="0px" y="0px"
	 width="118px" height="118px" viewBox="0 0 118 118" enable-background="new 0 0 118 118" xml:space="preserve">
<g id="O_-_Button_Shadow_3_" opacity="0.051" enable-background="new    ">
	<g id="O_-_Button_Shadow">
		<g>
			<circle cx="59" cy="62" r="55"/>
		</g>
	</g>
</g>
<g id="O_-_Button_Shadow_2_" enable-background="new    ">
	<g id="O_-_Button_Shadow_1_">
		<g>
			<circle fill="#FFFFFF" cx="59" cy="59" r="55"/>
		</g>
	</g>
</g>
<g id="O_-_Dashed">
	<g opacity="0.1">
		<path d="M57.021,109.464c-1.356-0.053-2.719-0.159-4.052-0.319l0.119-0.992c1.306,0.156,2.642,0.261,3.971,0.312L57.021,109.464z
			 M61.086,109.46l-0.041-1c1.329-0.055,2.665-0.162,3.971-0.32l0.121,0.992C63.805,109.294,62.441,109.403,61.086,109.46z
			 M48.958,108.503c-1.321-0.267-2.649-0.591-3.949-0.965l0.276-0.961c1.273,0.366,2.576,0.685,3.87,0.945L48.958,108.503z
			 M69.148,108.482l-0.199-0.98c1.292-0.264,2.594-0.584,3.867-0.954l0.279,0.961C71.796,107.886,70.468,108.213,69.148,108.482z
			 M41.151,106.257c-1.261-0.477-2.521-1.013-3.744-1.592l0.429-0.904c1.198,0.568,2.433,1.094,3.669,1.561L41.151,106.257z
			 M76.95,106.219l-0.355-0.934c1.239-0.473,2.471-1,3.661-1.565l0.43,0.902C79.472,105.2,78.215,105.737,76.95,106.219z
			 M33.804,102.778c-1.167-0.673-2.323-1.404-3.438-2.172l0.567-0.824c1.093,0.754,2.227,1.47,3.37,2.129L33.804,102.778z
			 M84.278,102.73l-0.501-0.865c1.139-0.659,2.271-1.377,3.365-2.135l0.568,0.822C86.596,101.325,85.44,102.059,84.278,102.73z
			 M27.115,98.165c-1.044-0.852-2.069-1.757-3.045-2.692l0.691-0.723c0.958,0.917,1.962,1.806,2.986,2.64L27.115,98.165z
			 M90.957,98.107l-0.633-0.775c1.018-0.831,2.021-1.721,2.98-2.644l0.693,0.721C93.019,96.351,91.996,97.259,90.957,98.107z
			 M21.249,92.545c-0.897-1.009-1.765-2.066-2.577-3.142l0.798-0.604c0.797,1.056,1.647,2.092,2.526,3.081L21.249,92.545z
			 M96.813,92.477l-0.748-0.664c0.876-0.988,1.725-2.026,2.521-3.086l0.799,0.602C98.573,90.408,97.707,91.468,96.813,92.477z
			 M16.355,86.063c-0.726-1.143-1.413-2.324-2.041-3.515l0.885-0.467c0.616,1.166,1.289,2.325,2,3.444L16.355,86.063z
			 M101.697,85.983l-0.846-0.535c0.709-1.119,1.381-2.28,1.996-3.451l0.885,0.465C103.105,83.656,102.42,84.841,101.697,85.983z
			 M12.564,78.884c-0.532-1.24-1.019-2.518-1.448-3.796l0.948-0.318c0.42,1.253,0.898,2.505,1.419,3.72L12.564,78.884z
			 M105.478,78.789l-0.92-0.393c0.52-1.219,0.995-2.474,1.413-3.729l0.949,0.316C106.492,76.265,106.007,77.545,105.478,78.789z
			 M9.979,71.186c-0.325-1.313-0.6-2.652-0.817-3.982l0.987-0.16c0.212,1.303,0.481,2.615,0.8,3.902L9.979,71.186z M108.048,71.079
			l-0.971-0.238c0.315-1.283,0.582-2.597,0.793-3.904l0.986,0.158C108.642,68.43,108.37,69.77,108.048,71.079z M8.669,63.17
			C8.56,61.828,8.502,60.462,8.5,59.108l1-0.002c0.003,1.327,0.059,2.667,0.167,3.981L8.669,63.17z M109.341,63.061l-0.996-0.08
			c0.104-1.314,0.157-2.654,0.157-3.98l-0.001-0.215h1l0.001,0.208C109.502,60.353,109.448,61.719,109.341,63.061z M9.648,55.125
			l-0.997-0.077c0.104-1.348,0.265-2.707,0.476-4.037l0.987,0.157C9.908,52.473,9.751,53.804,9.648,55.125z M108.328,54.807
			c-0.113-1.329-0.278-2.659-0.493-3.954l0.986-0.163c0.219,1.321,0.388,2.677,0.503,4.032L108.328,54.807z M10.898,47.263
			l-0.972-0.236c0.32-1.314,0.696-2.628,1.12-3.908l0.949,0.314C11.581,44.687,11.212,45.976,10.898,47.263z M107.025,46.952
			c-0.322-1.286-0.7-2.571-1.123-3.822l0.947-0.32c0.432,1.276,0.817,2.588,1.146,3.899L107.025,46.952z M13.401,39.702l-0.921-0.39
			c0.526-1.241,1.11-2.479,1.738-3.678l0.886,0.463C14.49,37.272,13.917,38.485,13.401,39.702z M104.477,39.414
			c-0.524-1.215-1.104-2.423-1.724-3.59l0.883-0.469c0.632,1.19,1.224,2.422,1.759,3.662L104.477,39.414z M17.092,32.643
			l-0.846-0.533c0.72-1.143,1.496-2.27,2.304-3.35l0.801,0.6C18.558,30.417,17.798,31.522,17.092,32.643z M100.743,32.384
			c-0.709-1.112-1.476-2.211-2.276-3.268l0.797-0.604c0.817,1.079,1.599,2.2,2.323,3.334L100.743,32.384z M21.866,26.266
			l-0.75-0.661c0.894-1.014,1.839-2.002,2.809-2.939l0.694,0.72C23.668,24.304,22.742,25.273,21.866,26.266z M95.935,26.04
			c-0.882-0.987-1.813-1.951-2.771-2.864l0.689-0.724c0.977,0.932,1.928,1.915,2.827,2.921L95.935,26.04z M27.594,20.734
			l-0.635-0.772c1.042-0.857,2.133-1.682,3.241-2.453l0.571,0.821C29.685,19.085,28.616,19.895,27.594,20.734z M90.172,20.543
			c-1.025-0.833-2.1-1.636-3.192-2.386l0.566-0.824c1.114,0.765,2.21,1.584,3.257,2.434L90.172,20.543z M34.13,16.19l-0.503-0.864
			c1.167-0.68,2.375-1.319,3.591-1.901l0.432,0.902C36.459,14.896,35.274,15.523,34.13,16.19z M83.604,16.036
			c-1.147-0.659-2.337-1.279-3.534-1.843l0.426-0.904c1.223,0.576,2.436,1.208,3.606,1.88L83.604,16.036z M41.307,12.753
			L40.95,11.82c1.262-0.483,2.558-0.919,3.853-1.298l0.28,0.96C43.814,11.853,42.543,12.28,41.307,12.753z M76.398,12.641
			c-1.241-0.465-2.515-0.885-3.784-1.248l0.275-0.962c1.295,0.37,2.594,0.798,3.86,1.273L76.398,12.641z M48.949,10.519L48.747,9.54
			c1.317-0.272,2.667-0.494,4.011-0.66l0.122,0.992C51.563,10.035,50.24,10.252,48.949,10.519z M68.741,10.456
			c-1.298-0.259-2.622-0.468-3.935-0.621l0.115-0.993c1.34,0.156,2.69,0.37,4.015,0.634L68.741,10.456z M56.849,9.544l-0.043-0.999
			c1.347-0.058,2.712-0.063,4.066-0.013l-0.037,0.999C59.513,9.483,58.169,9.488,56.849,9.544z"/>
	</g>
</g>
<g id="O_5_" opacity="0.102" enable-background="new    ">
	<g id="O">
		<g>
			<circle cx="98" cy="21.999" r="20"/>
		</g>
	</g>
</g>
<g id="O_4_" enable-background="new    ">
	<g id="O_1_">
		<g>
			<circle fill="#FFFFFF" cx="98" cy="19.999" r="20"/>
		</g>
	</g>
</g>
<g id="O_3_" enable-background="new    ">
	<g id="O_2_">
		<g>
			<circle fill="#44CE5E" cx="98" cy="19.999" r="16"/>
		</g>
	</g>
</g>
<g id="notifications_3_" opacity="0.102" enable-background="new    ">
	<g id="notifications">
		<g>
			<path d="M98,32.011c1.646,0,1.998-0.677,1.998-2.003h-4.002C95.996,31.318,96.354,32.011,98,32.011z M105.305,24.423
				c-0.311-0.128-1.143-1.179-1.143-1.925c0,0-0.496-2.509-0.496-5.981s-2.047-4.527-4.656-4.527h-2.03
				c-2.609,0.001-4.646,1.056-4.646,4.527c0,3.473-0.501,5.936-0.501,5.936L91.832,22.5c0,0.746-0.832,1.796-1.137,1.922
				c0,0-0.691,0.116-0.691,0.781c0,0.434,0,1.026,0,1.415c0,1.022,0.33,1.391,1.318,1.391c0.533,0,9.836-0.001,13.344-0.001
				c1.016,0,1.324-0.335,1.324-1.412c0-0.337,0.002-0.912,0.004-1.35C105.994,24.534,105.305,24.423,105.305,24.423z M92.998,25.005
				c1.036,0,1.668-0.768,1.668-2.647c0,0,0.278-3.07,0.278-4.715s0.911-2.647,2.226-2.647h1.66c1.314,0,2.226,0.883,2.226,2.647
				s0.278,4.715,0.278,4.715c0,1.84,0.79,2.647,1.668,2.647H92.998z"/>
		</g>
	</g>
</g>
<g id="notifications_2_" enable-background="new    ">
	<g id="notifications_1_">
		<g>
			<path fill="#FFFFFF" d="M98,30.011c1.646,0,1.998-0.677,1.998-2.003h-4.002C95.996,29.318,96.354,30.011,98,30.011z
				 M105.305,22.423c-0.311-0.128-1.143-1.179-1.143-1.925c0,0-0.496-2.509-0.496-5.981S101.619,9.99,99.01,9.99h-2.03
				c-2.609,0.001-4.646,1.056-4.646,4.527c0,3.473-0.501,5.936-0.501,5.936L91.832,20.5c0,0.746-0.832,1.796-1.137,1.922
				c0,0-0.691,0.115-0.691,0.781v1.415c0,1.022,0.33,1.391,1.318,1.391c0.533,0,9.836-0.001,13.344-0.001
				c1.016,0,1.324-0.335,1.324-1.412c0-0.337,0.002-0.912,0.004-1.35C105.994,22.534,105.305,22.423,105.305,22.423z M92.998,23.005
				c1.036,0,1.668-0.768,1.668-2.647c0,0,0.278-3.07,0.278-4.715s0.911-2.647,2.226-2.647h1.66c1.314,0,2.226,0.883,2.226,2.647
				s0.278,4.715,0.278,4.715c0,1.84,0.79,2.647,1.668,2.647H92.998z"/>
		</g>
	</g>
</g>
<g id="clients_2_">
	<g>
		<path fill-rule="evenodd" clip-rule="evenodd" fill="#555555" d="M64,64.021c2.997,0,2.994-0.002,2.994-3.429
			c0-3.598,0-2.901,0-5.143c0-3.427,0.003-3.429-2.994-3.429c-2.997,0-2.994,0.002-2.994,3.429c0,2.242,0,1.545,0,5.143
			C61.006,64.019,61.003,64.021,64,64.021z M54,64.021c2.997,0,2.994-0.002,2.994-3.429c0-3.598,0-2.901,0-5.143
			c0-3.427,0.003-3.429-2.994-3.429c-2.997,0-2.994,0.002-2.994,3.429c0,2.242,0,1.545,0,5.143
			C51.006,64.019,51.003,64.021,54,64.021z M83,49.979v-8h-3.993v-3.546c0-1.18-0.659-2.454-2.007-2.454l-38.073,0L39,38
			l-1.498-0.021c-1.387,0-2.511,1.14-2.511,2.545l0.001,37.016c0,1.35,1.086,2.445,2.426,2.445h39.148
			c1.348,0,2.441-1.073,2.441-2.397v-3.609H83v-8h-3.993v-4H83v-8h-3.993v-4H83z M41,76h-2V42h2V76z M63,77.99h-8l-2-2h12L63,77.99z
			 M75,75.979H43v-36h32V75.979z M81,67.979v4h-4v-4H81z M81,55.979v4h-4v-4H81z M77,47.979v-4h4v4H77z"/>
	</g>
</g>
</svg>
