<?xml version="1.0" encoding="utf-8"?>
<!-- Generator: Adobe Illustrator 16.0.3, SVG Export Plug-In . SVG Version: 6.00 Build 0)  -->
<!DOCTYPE svg PUBLIC "-//W3C//DTD SVG 1.1//EN" "http://www.w3.org/Graphics/SVG/1.1/DTD/svg11.dtd">
<svg version="1.1" id="Layer_1" xmlns="http://www.w3.org/2000/svg" xmlns:xlink="http://www.w3.org/1999/xlink" x="0px" y="0px"
	 width="118px" height="118px" viewBox="0 0 118 118" enable-background="new 0 0 118 118" xml:space="preserve">
<g id="O_-_Button_Shadow_3_" opacity="0.051" enable-background="new    ">
	<g id="O_-_Button_Shadow">
		<g>
			<circle cx="59" cy="62" r="55"/>
		</g>
	</g>
</g>
<g id="O_-_Button_Shadow_2_" enable-background="new    ">
	<g id="O_-_Button_Shadow_1_">
		<g>
			<circle fill="#FFFFFF" cx="59" cy="59" r="55"/>
		</g>
	</g>
</g>
<g id="O_-_Dashed">
	<g opacity="0.1">
		<path d="M57.021,109.464c-1.356-0.053-2.719-0.159-4.052-0.319l0.119-0.992c1.306,0.156,2.642,0.263,3.971,0.313L57.021,109.464z
			 M61.086,109.46l-0.041-1c1.329-0.055,2.665-0.162,3.971-0.319l0.121,0.991C63.805,109.294,62.441,109.402,61.086,109.46z
			 M48.958,108.503c-1.321-0.267-2.649-0.591-3.949-0.965l0.276-0.961c1.273,0.366,2.576,0.685,3.87,0.944L48.958,108.503z
			 M69.148,108.482l-0.199-0.98c1.292-0.264,2.594-0.584,3.867-0.954l0.279,0.961C71.796,107.886,70.468,108.213,69.148,108.482z
			 M41.151,106.257c-1.261-0.477-2.521-1.013-3.744-1.592l0.429-0.904c1.198,0.568,2.433,1.095,3.669,1.563L41.151,106.257z
			 M76.95,106.219l-0.354-0.934c1.238-0.473,2.471-1,3.66-1.565l0.43,0.902C79.473,105.2,78.215,105.737,76.95,106.219z
			 M33.804,102.777c-1.167-0.672-2.323-1.403-3.438-2.172l0.567-0.823c1.093,0.754,2.227,1.47,3.37,2.129L33.804,102.777z
			 M84.277,102.73l-0.5-0.865c1.139-0.659,2.271-1.377,3.365-2.135l0.566,0.82C86.596,101.325,85.439,102.059,84.277,102.73z
			 M27.115,98.165c-1.044-0.853-2.069-1.757-3.045-2.692l0.691-0.723c0.958,0.917,1.962,1.807,2.986,2.641L27.115,98.165z
			 M90.957,98.107l-0.633-0.775c1.018-0.831,2.021-1.721,2.98-2.645l0.691,0.722C93.02,96.352,91.996,97.259,90.957,98.107z
			 M21.249,92.545c-0.897-1.009-1.765-2.066-2.577-3.143l0.798-0.604c0.797,1.058,1.647,2.093,2.526,3.081L21.249,92.545z
			 M96.813,92.477l-0.748-0.664c0.877-0.986,1.727-2.024,2.521-3.086l0.799,0.604C98.573,90.408,97.707,91.468,96.813,92.477z
			 M16.355,86.063c-0.726-1.143-1.413-2.322-2.041-3.515l0.885-0.467c0.616,1.166,1.289,2.325,2,3.444L16.355,86.063z
			 M101.697,85.982l-0.846-0.534c0.709-1.119,1.381-2.28,1.996-3.451l0.885,0.465C103.105,83.656,102.42,84.841,101.697,85.982z
			 M12.564,78.884c-0.532-1.239-1.019-2.518-1.448-3.796l0.948-0.318c0.42,1.254,0.898,2.506,1.419,3.722L12.564,78.884z
			 M105.479,78.789l-0.92-0.393c0.521-1.221,0.994-2.476,1.412-3.729l0.949,0.315C106.492,76.266,106.007,77.545,105.479,78.789z
			 M9.979,71.186c-0.325-1.313-0.6-2.65-0.817-3.98l0.987-0.16c0.212,1.305,0.481,2.615,0.8,3.902L9.979,71.186z M108.048,71.079
			l-0.971-0.238c0.315-1.282,0.582-2.597,0.793-3.903l0.985,0.157C108.643,68.43,108.37,69.77,108.048,71.079z M8.669,63.17
			C8.56,61.828,8.502,60.462,8.5,59.108l1-0.002c0.003,1.328,0.059,2.667,0.167,3.981L8.669,63.17z M109.341,63.061l-0.995-0.08
			c0.104-1.313,0.156-2.652,0.156-3.979l-0.001-0.215h1l0.001,0.208C109.502,60.354,109.448,61.719,109.341,63.061z M9.648,55.125
			l-0.997-0.077c0.104-1.348,0.265-2.707,0.476-4.037l0.987,0.157C9.908,52.473,9.751,53.804,9.648,55.125z M108.328,54.807
			c-0.113-1.329-0.278-2.659-0.493-3.954l0.985-0.163c0.22,1.321,0.389,2.677,0.504,4.032L108.328,54.807z M10.898,47.263
			l-0.972-0.236c0.32-1.314,0.696-2.628,1.12-3.908l0.949,0.314C11.581,44.687,11.212,45.976,10.898,47.263z M107.025,46.952
			c-0.322-1.286-0.7-2.571-1.123-3.822l0.947-0.32c0.432,1.276,0.815,2.588,1.146,3.899L107.025,46.952z M13.401,39.702l-0.921-0.39
			c0.526-1.241,1.11-2.479,1.738-3.678l0.886,0.463C14.49,37.272,13.917,38.485,13.401,39.702z M104.477,39.414
			c-0.522-1.215-1.104-2.423-1.724-3.59l0.883-0.469c0.632,1.19,1.224,2.422,1.759,3.662L104.477,39.414z M17.092,32.643
			l-0.846-0.533c0.72-1.143,1.496-2.27,2.304-3.35l0.801,0.6C18.558,30.417,17.798,31.522,17.092,32.643z M100.743,32.384
			c-0.709-1.112-1.476-2.211-2.276-3.268l0.797-0.604c0.817,1.079,1.6,2.2,2.323,3.334L100.743,32.384z M21.866,26.266l-0.75-0.661
			c0.894-1.014,1.839-2.002,2.809-2.939l0.694,0.72C23.668,24.304,22.742,25.273,21.866,26.266z M95.936,26.04
			c-0.883-0.987-1.813-1.951-2.771-2.864l0.688-0.724c0.978,0.932,1.929,1.915,2.826,2.921L95.936,26.04z M27.594,20.734
			l-0.635-0.772c1.042-0.857,2.133-1.682,3.241-2.453l0.571,0.821C29.685,19.085,28.616,19.895,27.594,20.734z M90.172,20.543
			c-1.025-0.833-2.1-1.636-3.191-2.386l0.565-0.824c1.114,0.765,2.21,1.584,3.257,2.434L90.172,20.543z M34.13,16.19l-0.503-0.864
			c1.167-0.68,2.375-1.319,3.591-1.901l0.432,0.902C36.459,14.896,35.274,15.523,34.13,16.19z M83.604,16.036
			c-1.146-0.659-2.336-1.279-3.533-1.843l0.427-0.904c1.224,0.576,2.437,1.208,3.604,1.88L83.604,16.036z M41.307,12.753
			L40.95,11.82c1.262-0.483,2.558-0.919,3.853-1.298l0.28,0.96C43.814,11.853,42.543,12.28,41.307,12.753z M76.398,12.641
			c-1.241-0.465-2.517-0.885-3.784-1.248l0.274-0.962c1.295,0.37,2.594,0.798,3.859,1.273L76.398,12.641z M48.949,10.519
			L48.747,9.54c1.317-0.272,2.667-0.494,4.011-0.66l0.122,0.992C51.563,10.035,50.24,10.252,48.949,10.519z M68.741,10.456
			c-1.298-0.259-2.622-0.468-3.935-0.621l0.113-0.993c1.34,0.156,2.689,0.37,4.016,0.634L68.741,10.456z M56.849,9.544l-0.043-0.999
			c1.347-0.058,2.711-0.063,4.066-0.013l-0.037,0.999C59.514,9.483,58.169,9.488,56.849,9.544z"/>
	</g>
</g>
<g id="O_5_" opacity="0.102" enable-background="new    ">
	<g id="O">
		<g>
			<circle cx="98" cy="21.999" r="20"/>
		</g>
	</g>
</g>
<g id="O_4_" enable-background="new    ">
	<g id="O_1_">
		<g>
			<circle fill="#FFFFFF" cx="98" cy="19.999" r="20"/>
		</g>
	</g>
</g>
<g id="O_3_" enable-background="new    ">
	<g id="O_2_">
		<g>
			<circle fill="#44CE5E" cx="98" cy="19.999" r="16"/>
		</g>
	</g>
</g>
<g id="refresh" opacity="0.102">
	<g>
		<path fill-rule="evenodd" clip-rule="evenodd" d="M105.195,23.927c0,0-0.222,0.596-0.361,0.883
			c-0.432,0.896-1.029,1.682-1.773,2.34c-0.746,0.659-1.595,1.147-2.521,1.454c-0.871,0.285-1.813,0.391-2.791,0.338
			c-0.925-0.07-1.852-0.331-2.684-0.752c-0.622-0.313-1.236-0.782-1.747-1.266c0.7-0.591,1.354-1.144,1.815-1.532
			c0.557-0.47,0.555-1.282-0.27-1.412c-0.807-0.127-3.775-0.591-5.164-0.799c-1.208-0.181-1.62,0.083-1.652,1.395
			c-0.027,1.051-0.047,4.053-0.016,5.112c0.029,0.976,0.506,1.146,1.127,0.723l0.001,0.005l0.038-0.033
			c0.055-0.039,0.107-0.074,0.164-0.121c0.25-0.211,0.912-0.77,1.721-1.452c0.798,0.825,1.723,1.548,2.734,2.058
			c1.184,0.602,2.454,0.956,3.787,1.057c1.292,0.077,2.628-0.063,3.875-0.476c1.305-0.43,2.496-1.114,3.537-2.035
			c1.046-0.921,1.883-2.024,2.489-3.279c0.19-0.396,0.495-1.217,0.495-1.217L105.195,23.927z M90.814,19.166
			c0.441-0.901,1.052-1.693,1.812-2.355c0.762-0.663,1.628-1.155,2.573-1.463c0.891-0.288,1.851-0.395,2.851-0.341
			c0.944,0.07,1.891,0.333,2.741,0.758c0.634,0.315,1.262,0.786,1.783,1.273c-0.715,0.595-1.384,1.15-1.854,1.542
			c-0.569,0.473-0.566,1.291,0.274,1.421c0.823,0.128,3.854,0.596,5.272,0.805c1.234,0.182,1.654-0.083,1.688-1.404
			c0.027-1.058,0.048-4.078,0.016-5.146c-0.029-0.981-0.517-1.152-1.15-0.728l-0.001-0.005l-0.04,0.033
			c-0.055,0.039-0.109,0.074-0.166,0.122c-0.256,0.213-0.932,0.774-1.756,1.461c-0.814-0.831-1.76-1.557-2.794-2.07
			c-1.208-0.605-2.505-0.962-3.866-1.063c-1.319-0.078-2.684,0.063-3.957,0.479c-1.332,0.433-2.549,1.122-3.611,2.049
			c-1.067,0.927-1.922,2.037-2.541,3.301c-0.194,0.398-0.506,1.225-0.506,1.225l2.864,0.996
			C90.446,20.055,90.672,19.455,90.814,19.166z"/>
	</g>
</g>
<g id="refresh_1_">
	<g>
		<path fill-rule="evenodd" clip-rule="evenodd" fill="#FFFFFF" d="M90.814,17.166c0.441-0.901,1.052-1.693,1.812-2.355
			c0.762-0.663,1.628-1.155,2.573-1.463c0.891-0.288,1.851-0.395,2.851-0.341c0.944,0.07,1.891,0.333,2.741,0.758
			c0.633,0.314,1.264,0.784,1.785,1.271c-0.717,0.597-1.385,1.151-1.855,1.544c-0.569,0.473-0.566,1.291,0.274,1.421
			c0.823,0.128,3.854,0.596,5.272,0.805c1.234,0.182,1.654-0.083,1.688-1.404c0.027-1.058,0.048-4.078,0.016-5.146
			c-0.029-0.981-0.517-1.152-1.15-0.728l-0.001-0.005l-0.04,0.033c-0.055,0.039-0.109,0.074-0.166,0.122
			c-0.256,0.213-0.932,0.774-1.756,1.461c-0.814-0.831-1.76-1.557-2.794-2.07c-1.208-0.605-2.505-0.962-3.866-1.063
			c-1.319-0.078-2.684,0.063-3.957,0.479c-1.332,0.433-2.549,1.122-3.611,2.049c-1.067,0.927-1.922,2.037-2.541,3.301
			c-0.194,0.398-0.506,1.225-0.506,1.225l2.864,0.996C90.446,18.055,90.672,17.455,90.814,17.166z M105.195,21.927
			c0,0-0.222,0.596-0.361,0.883c-0.432,0.896-1.029,1.682-1.773,2.34c-0.746,0.659-1.595,1.147-2.521,1.454
			c-0.871,0.285-1.813,0.391-2.791,0.338c-0.925-0.07-1.852-0.331-2.684-0.752c-0.621-0.313-1.239-0.78-1.75-1.264
			c0.703-0.593,1.355-1.144,1.818-1.534c0.557-0.47,0.555-1.282-0.27-1.412c-0.807-0.127-3.775-0.591-5.164-0.799
			c-1.208-0.181-1.62,0.083-1.652,1.395c-0.027,1.051-0.047,4.053-0.016,5.112c0.029,0.976,0.506,1.146,1.127,0.723l0.001,0.005
			l0.038-0.033c0.055-0.039,0.107-0.074,0.164-0.121c0.25-0.211,0.912-0.769,1.72-1.451c0.798,0.825,1.724,1.547,2.735,2.057
			c1.184,0.602,2.454,0.956,3.787,1.057c1.292,0.077,2.628-0.063,3.876-0.476c1.304-0.43,2.495-1.114,3.536-2.035
			c1.046-0.921,1.883-2.024,2.489-3.279c0.19-0.396,0.495-1.217,0.495-1.217L105.195,21.927z"/>
	</g>
</g>
<g id="technology_2_">
	<g>
		<path fill-rule="evenodd" clip-rule="evenodd" fill="#555555" d="M55,53c-2.997,0-2.994,0.001-2.994,3.429
			c0,2.242,0,1.545,0,5.143C52.006,64.999,52.003,65,55,65s2.994-0.001,2.994-3.429c0-3.598,0-2.9,0-5.143
			C57.994,53.001,57.997,53,55,53z M79.24,52.863c0.006-0.176,0.01-0.351,0.01-0.53C79.25,45.258,73.754,39.5,67,39.5
			c-0.951,0-1.889,0.118-2.807,0.351C61.59,36.217,57.478,34,53,34c-7.721,0-14,6.581-14,14.667c0,0.647,0.041,1.296,0.126,1.934
			C34.806,53.157,32,57.987,32,63.333C32,71.422,38.279,78,46,78h29.75C82.504,78,88,72.242,88,65.167
			C88,59.358,84.301,54.438,79.24,52.863z M64,76.021h-8l-2-2h12L64,76.021z M75.414,73.985H46.299
			c-5.676,0-10.275-4.83-10.275-10.791c0-4.981,3.231-9.134,7.603-10.377c-0.475-1.243-0.752-2.593-0.752-4.012
			c0-5.961,4.6-10.791,10.276-10.791c4.265,0,7.919,2.726,9.475,6.61c1.251-0.751,2.681-1.215,4.227-1.215
			c4.729,0,8.563,4.025,8.563,8.993c0,1.313-0.283,2.554-0.765,3.678C74.905,56.057,75.15,56,75.414,56
			c4.729,0,8.563,4.025,8.563,8.993C83.977,69.96,80.144,73.985,75.414,73.985z M65,53c-2.997,0-2.994,0.001-2.994,3.429
			c0,2.242,0,1.545,0,5.143C62.006,64.999,62.003,65,65,65s2.994-0.001,2.994-3.429c0-3.598,0-2.9,0-5.143
			C67.994,53.001,67.997,53,65,53z"/>
	</g>
</g>
</svg>
