<?xml version="1.0" encoding="utf-8"?>
<!-- Generator: Adobe Illustrator 16.0.3, SVG Export Plug-In . SVG Version: 6.00 Build 0)  -->
<!DOCTYPE svg PUBLIC "-//W3C//DTD SVG 1.1//EN" "http://www.w3.org/Graphics/SVG/1.1/DTD/svg11.dtd">
<svg version="1.1" id="action_1_" xmlns="http://www.w3.org/2000/svg" xmlns:xlink="http://www.w3.org/1999/xlink" x="0px" y="0px"
	 width="32px" height="32px" viewBox="0 0 32 32" enable-background="new 0 0 32 32" xml:space="preserve">
<g id="action">
	<g>
		<path fill-rule="evenodd" clip-rule="evenodd" fill="#555555" d="M17.334,20h-2.667C14.298,20,14,20.299,14,20.667v2.666
			C14,23.701,14.298,24,14.667,24h2.667C17.701,24,18,23.701,18,23.333v-2.666C18,20.299,17.701,20,17.334,20z M17.334,14h-2.667
			C14.298,14,14,14.299,14,14.667v2.666C14,17.701,14.298,18,14.667,18h2.667C17.701,18,18,17.701,18,17.333v-2.666
			C18,14.299,17.701,14,17.334,14z M17.334,8h-2.667C14.298,8,14,8.299,14,8.667v2.666C14,11.701,14.298,12,14.667,12h2.667
			C17.701,12,18,11.701,18,11.333V8.667C18,8.299,17.701,8,17.334,8z"/>
	</g>
</g>
</svg>
