<svg xmlns="http://www.w3.org/2000/svg" width="180" height="60" viewBox="0 0 180 60">
  <defs>
    <style>
      .cls-1 {
        fill: #555;
        fill-rule: evenodd;
      }
    </style>
  </defs>
  <path id="_-_AVAILABLE_ON" data-name="- AVAILABLE ON" class="cls-1" d="M156.913,47.785h-2.941l2.849-5.989L152.112,31.06h2.745l3.336,7.65,3.041-7.65h2.941Zm-7.829-4.854a17.076,17.076,0,0,1-.037-1.845,4.563,4.563,0,0,1-1.394,1.362,3.526,3.526,0,0,1-1.934.55,3.794,3.794,0,0,1-2.751-.93,2.81,2.81,0,0,1-.959-2.554,3.59,3.59,0,0,1,1.314-3.174,5.8,5.8,0,0,1,3.7-.935,5.977,5.977,0,0,1,2,.562V34.953a1.887,1.887,0,0,0-.53-1.421,2.094,2.094,0,0,0-1.516-.513,2.134,2.134,0,0,0-1.4.427,1.361,1.361,0,0,0-.519,1.1h-2.481l-0.01-.064a2.871,2.871,0,0,1,1.213-2.426A5.116,5.116,0,0,1,147.139,31a4.881,4.881,0,0,1,3.233,1.026,3.623,3.623,0,0,1,1.229,2.949l0,7.957h-2.514Zm-0.058-5.339a4.815,4.815,0,0,0-2.046-.561,2.119,2.119,0,0,0-1.759.561,3.045,3.045,0,0,0-.636,1.881,1.352,1.352,0,0,0,.429,1.052,1.756,1.756,0,0,0,1.224.39,3.217,3.217,0,0,0,1.754-.491,2.467,2.467,0,0,0,1.034-1.122v-1.71ZM138.047,27.014h2.432V42.968h-2.432V27.014Zm-6.06-10.364h-0.022v5.342H130.34V14.013h1.725l3.294,5.353h0.022V14.013h1.625v7.979H135.27Zm-4.3,4.181a3.569,3.569,0,0,1-1.216.845,4.471,4.471,0,0,1-3.272,0,3.559,3.559,0,0,1-1.216-.845,3.676,3.676,0,0,1-.763-1.262,4.485,4.485,0,0,1-.265-1.551,4.64,4.64,0,0,1,.265-1.583,3.773,3.773,0,0,1,.763-1.283A3.492,3.492,0,0,1,123.2,14.3a4.469,4.469,0,0,1,3.272,0,3.5,3.5,0,0,1,1.216.855,3.787,3.787,0,0,1,.762,1.283,4.64,4.64,0,0,1,.265,1.583,4.485,4.485,0,0,1-.265,1.551A3.689,3.689,0,0,1,127.688,20.832Zm-0.824-3.786a2.537,2.537,0,0,0-.37-0.84,1.867,1.867,0,0,0-.663-0.588,2.368,2.368,0,0,0-1.99,0,1.85,1.85,0,0,0-.663.588,2.539,2.539,0,0,0-.371.84,4.07,4.07,0,0,0-.116.973,3.784,3.784,0,0,0,.116.936,2.49,2.49,0,0,0,.371.818,1.868,1.868,0,0,0,.663.583,2.368,2.368,0,0,0,1.99,0,1.885,1.885,0,0,0,.663-0.583,2.488,2.488,0,0,0,.37-0.818,3.784,3.784,0,0,0,.116-0.936A4.07,4.07,0,0,0,126.864,17.046ZM113.779,40.717a3.023,3.023,0,0,0,2.642-1.47l1.864,1.229a5.485,5.485,0,0,1-4.517,2.344,5.19,5.19,0,0,1-5.293-5.359,5.072,5.072,0,0,1,5.03-5.334h0a4.879,4.879,0,0,1,4.484,3.13l0.376,0.871L111.134,39.1A2.775,2.775,0,0,0,113.779,40.717Zm1.816-5.4a2.155,2.155,0,0,0-2-1.141,2.977,2.977,0,0,0-2.833,3.14Zm-5.416-21.307h5.9v1.475h-4.167V17.2h3.825v1.363h-3.825v1.956h4.256v1.475h-5.991V14.013Zm-7,0h1.735v6.5h3.847v1.475h-5.582V14.013Zm-2.471,7.431a2.745,2.745,0,0,1-.895.414,4,4,0,0,1-1.033.134H94.958V14.013h3.714a4.867,4.867,0,0,1,1.028.1,2.206,2.206,0,0,1,.8.33,1.533,1.533,0,0,1,.514.609,2.155,2.155,0,0,1,.182.939,1.743,1.743,0,0,1-.276,1,2.01,2.01,0,0,1-.8.665,1.9,1.9,0,0,1,1.089.743,2.464,2.464,0,0,1,.127,2.324A2.027,2.027,0,0,1,100.711,21.444Zm-1.3-5.61a0.741,0.741,0,0,0-.265-0.279,1.111,1.111,0,0,0-.381-0.14,2.5,2.5,0,0,0-.448-0.039H96.694v1.866h1.757a1.237,1.237,0,0,0,.763-0.223,0.848,0.848,0,0,0,.3-0.726A0.937,0.937,0,0,0,99.413,15.835ZM99.49,18.7a1.452,1.452,0,0,0-.906-0.263h-1.89v2.19h1.857a2.294,2.294,0,0,0,.486-0.05,1.188,1.188,0,0,0,.409-0.168,0.842,0.842,0,0,0,.282-0.318,1.107,1.107,0,0,0,.105-0.514A1.038,1.038,0,0,0,99.49,18.7Zm-8.058,1.514H88.481l-0.619,1.777H86.1l3-7.979h1.78l2.951,7.979h-1.8ZM89.984,15.98H89.962l-1.028,2.928h2.045Zm2.148,21.512a5.416,5.416,0,1,1-5.411-5.359A5.265,5.265,0,0,1,92.132,37.492Zm-8.465-.03a3.06,3.06,0,1,0,3.086-3.232A3.1,3.1,0,0,0,83.667,37.462Zm-3.72-23.449h1.735v6.5H85.53v1.475H79.948V14.013Zm-3.7,0H77.98v7.979H76.245V14.013Zm-3.526,6.2H69.767l-0.619,1.777H67.391l3-7.979h1.78l2.951,7.979h-1.8ZM71.271,15.98H71.248L70.22,18.908h2.045Zm-8.224,6.012-2.564-7.979h1.791l1.758,5.61h0.022l1.78-5.61h1.791L65,21.992H63.047Zm-4.134,0-0.6-1.777H55.364l-0.619,1.777H52.988l3-7.979h1.78l2.951,7.979h-1.8ZM56.868,15.98H56.846l-1.028,2.928h2.045Zm4,10.226a8.163,8.163,0,0,1,5.8,2.263l-1.6,1.64a6.033,6.033,0,1,0-4.121,10.448c2.514,0,5.179-1.353,5.448-4.524H60.933V33.771h7.7a6.72,6.72,0,0,1,.139,1.5c0,4.507-3.288,7.554-7.779,7.554A8.312,8.312,0,1,1,60.868,26.206Zm7.761,7.564h0Zm-31.188.486L33.186,29.51l4.231-4.847,6.523,3.512c1.318,0.711,1.318,1.87,0,2.581ZM16.934,14.176a1.38,1.38,0,0,1,.406-0.059,2.209,2.209,0,0,1,1.036.294l19.039,10.25-5.027,4.057Zm-0.026,30.57a1.542,1.542,0,0,1-.925-1.615l0-27.333a1.532,1.532,0,0,1,.954-1.621L31.589,29.512Zm20.53-10.49L18.375,44.52a1.872,1.872,0,0,1-1.467.226L32.387,30.3Zm37.494-2.124a5.341,5.341,0,1,1,.037,10.682A5.342,5.342,0,1,1,74.932,32.133Zm0.024,8.586a3.248,3.248,0,1,0-3.078-3.256A3.1,3.1,0,0,0,74.957,40.718Zm23.278,2.1a5.345,5.345,0,0,1,.05-10.683h0a3.83,3.83,0,0,1,2.907,1.226v-0.9h2.261v9.6c0,3.771-2.2,5.569-5.078,5.569a5.187,5.187,0,0,1-4.85-3.145l2.072-.858a2.987,2.987,0,0,0,2.76,1.9,2.692,2.692,0,0,0,2.834-2.946V41.524A3.575,3.575,0,0,1,98.235,42.822Zm3.14-5.335a3.032,3.032,0,0,0-2.88-3.254,3.091,3.091,0,0,0-3.014,3.274,3.047,3.047,0,0,0,2.983,3.216A3,3,0,0,0,101.375,37.486Zm6.1,5.482h-2.432V27.015h2.432V42.968Zm27.995-14.608a4.62,4.62,0,0,1,1.512,3.6,4.611,4.611,0,0,1-1.512,3.609,6.042,6.042,0,0,1-4.183,1.357h-3.612v6.064h-2.692V26.993h6.3A6.011,6.011,0,0,1,135.474,28.361Zm-7.795,6.421h3.612a2.965,2.965,0,0,0,2.249-.791,2.8,2.8,0,0,0,.754-2.01,2.877,2.877,0,0,0-.754-2.032,2.92,2.92,0,0,0-2.249-.813h-3.612v5.646Z"/>
</svg>
