<svg xmlns="http://www.w3.org/2000/svg" width="180" height="60" viewBox="0 0 180 60">
  <defs>
    <style>
      .cls-1 {
        fill: #555;
        fill-rule: evenodd;
      }
    </style>
  </defs>
  <path id="_-_DISPONIBLE_SUR" data-name="- DISPONIBLE SUR" class="cls-1" d="M156.913,47.785h-2.941l2.849-5.989L152.112,31.06h2.745l3.336,7.65,3.041-7.65h2.941Zm-6.781-26.213c-0.026-.153-0.048-0.313-0.067-0.48s-0.033-.339-0.044-0.514-0.028-.341-0.05-0.5a1.585,1.585,0,0,0-.378-0.916,1.292,1.292,0,0,0-.944-0.291h-1.744v3.117h-1.743V14.014h4.276a2.549,2.549,0,0,1,.961.173,2.217,2.217,0,0,1,.733.475,2.051,2.051,0,0,1,.466.7,2.27,2.27,0,0,1,.161.849,2.412,2.412,0,0,1-.294,1.218,1.852,1.852,0,0,1-.961.782v0.022a1.343,1.343,0,0,1,.533.274,1.492,1.492,0,0,1,.345.441,2.174,2.174,0,0,1,.194.553,4.627,4.627,0,0,1,.083.6c0.008,0.127.015,0.276,0.022,0.447s0.021,0.345.039,0.519a3.764,3.764,0,0,0,.089.508,1.188,1.188,0,0,0,.183.413h-1.743A1.97,1.97,0,0,1,150.132,21.572Zm-0.422-5.933a1.338,1.338,0,0,0-.894-0.263h-1.911v2.246h1.911a1.318,1.318,0,0,0,.894-0.268,1.1,1.1,0,0,0,.3-0.871A1.055,1.055,0,0,0,149.71,15.639ZM147.139,31a4.881,4.881,0,0,1,3.233,1.026,3.623,3.623,0,0,1,1.229,2.949l0,7.957h-2.514a17.076,17.076,0,0,1-.037-1.845,4.563,4.563,0,0,1-1.394,1.362,3.526,3.526,0,0,1-1.934.55,3.794,3.794,0,0,1-2.751-.93,2.81,2.81,0,0,1-.959-2.554,3.59,3.59,0,0,1,1.314-3.174,5.8,5.8,0,0,1,3.7-.935,5.977,5.977,0,0,1,2,.562V34.953a1.887,1.887,0,0,0-.53-1.421,2.094,2.094,0,0,0-1.516-.513,2.134,2.134,0,0,0-1.4.427,1.361,1.361,0,0,0-.519,1.1h-2.481l-0.01-.064a2.871,2.871,0,0,1,1.213-2.426A5.116,5.116,0,0,1,147.139,31Zm-0.159,6.032a2.119,2.119,0,0,0-1.759.561,3.045,3.045,0,0,0-.636,1.881,1.352,1.352,0,0,0,.429,1.052,1.756,1.756,0,0,0,1.224.39,3.217,3.217,0,0,0,1.754-.491,2.467,2.467,0,0,0,1.034-1.122v-1.71A4.815,4.815,0,0,0,146.98,37.031Zm-7.248-15.169a3.7,3.7,0,0,1-2.488-.757,2.9,2.9,0,0,1-.881-2.324V14.013h1.74V18.78a3.362,3.362,0,0,0,.056.612,1.251,1.251,0,0,0,.232.537,1.214,1.214,0,0,0,.493.376,2.135,2.135,0,0,0,.848.14,1.664,1.664,0,0,0,1.286-.4,1.878,1.878,0,0,0,.354-1.262V14.013h1.74V18.78a2.875,2.875,0,0,1-.9,2.319A3.718,3.718,0,0,1,139.732,21.862Zm-4.258,13.706a6.042,6.042,0,0,1-4.183,1.357h-3.612v6.064h-2.692V26.993h6.3a6.011,6.011,0,0,1,4.183,1.368,4.62,4.62,0,0,1,1.512,3.6A4.611,4.611,0,0,1,135.474,35.567Zm-1.934-5.619a2.92,2.92,0,0,0-2.249-.813h-3.612v5.646h3.612a2.965,2.965,0,0,0,2.249-.791,2.8,2.8,0,0,0,.754-2.01A2.877,2.877,0,0,0,133.54,29.948Zm0.546-8.665a3.12,3.12,0,0,1-1.031.515,4.891,4.891,0,0,1-1.424.188,4.987,4.987,0,0,1-1.269-.161,3.249,3.249,0,0,1-1.08-.494,2.5,2.5,0,0,1-.748-0.848,2.425,2.425,0,0,1-.272-1.224h1.685a1.37,1.37,0,0,0,.144.655,1.228,1.228,0,0,0,.382.435,1.69,1.69,0,0,0,.554.247,2.708,2.708,0,0,0,.671.081,3.556,3.556,0,0,0,.5-0.038,1.768,1.768,0,0,0,.5-0.145,1.089,1.089,0,0,0,.388-0.3,0.728,0.728,0,0,0,.155-0.478,0.66,0.66,0,0,0-.205-0.5,1.716,1.716,0,0,0-.537-0.328,4.669,4.669,0,0,0-.754-0.225q-0.421-.091-0.853-0.209a7.711,7.711,0,0,1-.865-0.263,2.975,2.975,0,0,1-.753-0.4,1.932,1.932,0,0,1-.538-0.612,1.815,1.815,0,0,1-.205-0.9,1.955,1.955,0,0,1,.261-1.025,2.3,2.3,0,0,1,.681-0.725,3.025,3.025,0,0,1,.953-0.429,4.19,4.19,0,0,1,1.064-.14,5.2,5.2,0,0,1,1.192.134,3.033,3.033,0,0,1,1.014.435,2.222,2.222,0,0,1,.7.768,2.29,2.29,0,0,1,.261,1.133h-1.685a1.34,1.34,0,0,0-.149-0.569,0.964,0.964,0,0,0-.338-0.354A1.464,1.464,0,0,0,132,15.319a3.1,3.1,0,0,0-.587-0.054,2.121,2.121,0,0,0-.422.043,1.156,1.156,0,0,0-.382.15,0.907,0.907,0,0,0-.282.274,0.709,0.709,0,0,0-.111.4,0.672,0.672,0,0,0,.088.365,0.76,0.76,0,0,0,.349.252,5.439,5.439,0,0,0,.721.236q0.459,0.124,1.2.306c0.1,0.021.222,0.052,0.377,0.091a4.167,4.167,0,0,1,.493.161,3.249,3.249,0,0,1,.521.263,2.24,2.24,0,0,1,.477.4,1.874,1.874,0,0,1,.349.564,2.015,2.015,0,0,1,.133.757,2.286,2.286,0,0,1-.211.977A2.128,2.128,0,0,1,134.086,21.283Zm-16.425-7.269h5.931v1.475h-4.187V17.2h3.843v1.363h-3.843v1.955h4.276v1.475h-6.02V14.014Zm-7.03,0h1.743v6.5h3.866v1.475h-5.609V14.014Zm-2.483,7.43a2.765,2.765,0,0,1-.9.413,4.033,4.033,0,0,1-1.039.134h-3.843V14.014H106.1a4.912,4.912,0,0,1,1.033.1,2.226,2.226,0,0,1,.8.33,1.531,1.531,0,0,1,.516.609,2.153,2.153,0,0,1,.184.939,1.736,1.736,0,0,1-.278,1,2.016,2.016,0,0,1-.8.665,1.907,1.907,0,0,1,1.094.743,2.452,2.452,0,0,1,.128,2.324A2.035,2.035,0,0,1,108.148,21.444Zm-1.3-5.609a0.737,0.737,0,0,0-.266-0.279,1.124,1.124,0,0,0-.383-0.14,2.545,2.545,0,0,0-.45-0.039h-1.633v1.866h1.766a1.247,1.247,0,0,0,.766-0.223,0.846,0.846,0,0,0,.3-0.726A0.928,0.928,0,0,0,106.843,15.835Zm0.078,2.866a1.465,1.465,0,0,0-.911-0.263h-1.9v2.19h1.866a2.317,2.317,0,0,0,.489-0.05,1.2,1.2,0,0,0,.411-0.168,0.851,0.851,0,0,0,.283-0.319,1.106,1.106,0,0,0,.105-0.514A1.036,1.036,0,0,0,106.921,18.7Zm-3.468,13.759v9.6c0,3.771-2.2,5.569-5.078,5.569a5.187,5.187,0,0,1-4.85-3.145l2.072-.858a2.987,2.987,0,0,0,2.76,1.9,2.692,2.692,0,0,0,2.834-2.946V41.524a3.575,3.575,0,0,1-2.957,1.3,5.345,5.345,0,0,1,.05-10.683h0a3.83,3.83,0,0,1,2.907,1.226v-0.9h2.261Zm-4.958,1.773a3.091,3.091,0,0,0-3.014,3.274,3.047,3.047,0,0,0,2.983,3.216,3,3,0,0,0,2.912-3.236A3.032,3.032,0,0,0,98.495,34.232Zm0.152-20.218h1.744v7.977H98.646V14.014Zm-7.019,2.637H91.6v5.341H89.972V14.014H91.7l3.31,5.352h0.022V14.014h1.633v7.977H94.926Zm-4.3,4.181a3.573,3.573,0,0,1-1.219.845,4.493,4.493,0,0,1-3.28,0,3.573,3.573,0,0,1-1.219-.845,3.678,3.678,0,0,1-.765-1.262,4.476,4.476,0,0,1-.266-1.551,4.631,4.631,0,0,1,.266-1.583,3.775,3.775,0,0,1,.765-1.283,3.505,3.505,0,0,1,1.219-.855,4.491,4.491,0,0,1,3.28,0,3.506,3.506,0,0,1,1.219.855,3.774,3.774,0,0,1,.765,1.283,4.633,4.633,0,0,1,.266,1.583,4.479,4.479,0,0,1-.266,1.551A3.677,3.677,0,0,1,87.324,20.832ZM86.5,17.046a2.533,2.533,0,0,0-.371-0.84,1.862,1.862,0,0,0-.665-0.588,2.379,2.379,0,0,0-1.995,0,1.861,1.861,0,0,0-.665.588,2.531,2.531,0,0,0-.371.84,4.04,4.04,0,0,0-.116.973,3.756,3.756,0,0,0,.116.936,2.482,2.482,0,0,0,.371.818,1.879,1.879,0,0,0,.665.583,2.379,2.379,0,0,0,1.995,0,1.88,1.88,0,0,0,.665-0.583,2.484,2.484,0,0,0,.371-0.818,3.756,3.756,0,0,0,.116-0.936A4.04,4.04,0,0,0,86.5,17.046ZM74.97,42.815a5.342,5.342,0,1,1-.037-10.682A5.341,5.341,0,1,1,74.97,42.815Zm-0.006-8.584a3.251,3.251,0,1,0,3.024,3.247A3.1,3.1,0,0,0,74.964,34.231Zm3.763-15.893a2.367,2.367,0,0,1-.85.575,3.285,3.285,0,0,1-1.266.218H74.778v2.86H73.034V14.014H76.61a3.287,3.287,0,0,1,1.266.218,2.37,2.37,0,0,1,.85.575,2.21,2.21,0,0,1,.478.821,3.066,3.066,0,0,1,0,1.894A2.214,2.214,0,0,1,78.726,18.338Zm-1.188-2.38a0.942,0.942,0,0,0-.339-0.363,1.345,1.345,0,0,0-.489-0.173,3.654,3.654,0,0,0-.578-0.045H74.778v2.391h1.355a3.619,3.619,0,0,0,.578-0.045A1.338,1.338,0,0,0,77.2,17.55a0.941,0.941,0,0,0,.339-0.363A1.541,1.541,0,0,0,77.538,15.958Zm-6.765,5.325a3.118,3.118,0,0,1-1.031.515,4.891,4.891,0,0,1-1.424.188,4.986,4.986,0,0,1-1.269-.161,3.254,3.254,0,0,1-1.081-.494,2.511,2.511,0,0,1-.748-0.848,2.426,2.426,0,0,1-.271-1.224h1.685a1.369,1.369,0,0,0,.144.655,1.229,1.229,0,0,0,.382.435,1.684,1.684,0,0,0,.554.247,2.7,2.7,0,0,0,.67.081,3.567,3.567,0,0,0,.5-0.038,1.774,1.774,0,0,0,.5-0.145,1.082,1.082,0,0,0,.388-0.3,0.725,0.725,0,0,0,.155-0.478,0.662,0.662,0,0,0-.205-0.5,1.709,1.709,0,0,0-.538-0.328,4.66,4.66,0,0,0-.754-0.225q-0.421-.091-0.853-0.209a7.708,7.708,0,0,1-.864-0.263,2.991,2.991,0,0,1-.754-0.4,1.929,1.929,0,0,1-.538-0.612,1.817,1.817,0,0,1-.2-0.9,1.958,1.958,0,0,1,.26-1.025,2.313,2.313,0,0,1,.682-0.725A3.016,3.016,0,0,1,67.11,14.1a4.184,4.184,0,0,1,1.064-.14,5.194,5.194,0,0,1,1.191.134,3.025,3.025,0,0,1,1.014.435,2.226,2.226,0,0,1,.7.768,2.3,2.3,0,0,1,.26,1.133H69.659a1.327,1.327,0,0,0-.15-0.569,0.963,0.963,0,0,0-.338-0.354,1.461,1.461,0,0,0-.488-0.182,3.092,3.092,0,0,0-.587-0.054,2.111,2.111,0,0,0-.421.043,1.15,1.15,0,0,0-.382.15,0.922,0.922,0,0,0-.283.274,0.71,0.71,0,0,0-.111.4,0.671,0.671,0,0,0,.089.365,0.758,0.758,0,0,0,.349.252,5.415,5.415,0,0,0,.72.236q0.46,0.124,1.2.306,0.144,0.032.377,0.091a4.2,4.2,0,0,1,.493.161,3.257,3.257,0,0,1,.521.263,2.252,2.252,0,0,1,.477.4,1.867,1.867,0,0,1,.349.564,2,2,0,0,1,.133.757,2.281,2.281,0,0,1-.211.977A2.132,2.132,0,0,1,70.773,21.283Zm-9.112-7.269H63.4v7.977H61.661V14.014Zm5,14.456-1.6,1.64a6.033,6.033,0,1,0-4.121,10.448c2.514,0,5.179-1.353,5.448-4.524H60.933V33.771h7.7a6.72,6.72,0,0,1,.139,1.5c0,4.507-3.288,7.554-7.779,7.554a8.312,8.312,0,1,1-.121-16.618A8.163,8.163,0,0,1,66.663,28.469Zm1.966,5.3h0ZM59.112,20.84a3.15,3.15,0,0,1-1.122.844,3.775,3.775,0,0,1-1.583.307H52.986V14.014h3.421a4.063,4.063,0,0,1,1.427.246A3.1,3.1,0,0,1,58.978,15a3.409,3.409,0,0,1,.755,1.229,5,5,0,0,1,.272,1.732,5.56,5.56,0,0,1-.222,1.609A3.548,3.548,0,0,1,59.112,20.84Zm-0.966-3.8a2.181,2.181,0,0,0-.383-0.832,1.7,1.7,0,0,0-.705-0.531,2.8,2.8,0,0,0-1.083-.184H54.73v5.028h1.555a2.226,2.226,0,0,0,.733-0.123,1.613,1.613,0,0,0,.633-0.408,2.053,2.053,0,0,0,.444-0.743,3.285,3.285,0,0,0,.167-1.117A4.68,4.68,0,0,0,58.145,17.036ZM37.44,34.256L33.186,29.51l4.231-4.847,6.523,3.512c1.318,0.711,1.318,1.87,0,2.581ZM16.934,14.176a1.38,1.38,0,0,1,.406-0.059,2.209,2.209,0,0,1,1.036.294l19.039,10.25-5.027,4.057Zm-0.026,30.57a1.542,1.542,0,0,1-.925-1.615l0-27.333a1.532,1.532,0,0,1,.954-1.621L31.589,29.512Zm20.53-10.49L18.375,44.52a1.872,1.872,0,0,1-1.467.226L32.387,30.3Zm49.284-2.124a5.341,5.341,0,1,1,.037,10.682A5.342,5.342,0,1,1,86.722,32.133Zm0.024,8.586a3.248,3.248,0,1,0-3.079-3.256A3.1,3.1,0,0,0,86.746,40.718Zm20.733,2.25h-2.432V27.015h2.432V42.968Zm6.026-10.843h0a4.879,4.879,0,0,1,4.484,3.13l0.376,0.871L111.134,39.1a2.775,2.775,0,0,0,2.645,1.619,3.023,3.023,0,0,0,2.642-1.47l1.864,1.229a5.485,5.485,0,0,1-4.517,2.344,5.19,5.19,0,0,1-5.293-5.359A5.072,5.072,0,0,1,113.505,32.125Zm-2.739,5.194,4.829-2a2.155,2.155,0,0,0-2-1.141A2.977,2.977,0,0,0,110.766,37.319Zm29.713,5.649h-2.432V27.014h2.432V42.968Z"/>
</svg>
