<svg xmlns="http://www.w3.org/2000/svg" width="40" height="40" viewBox="0 0 40 40">
  <metadata><?xpacket begin="﻿" id="W5M0MpCehiHzreSzNTczkc9d"?>
<x:xmpmeta xmlns:x="adobe:ns:meta/" x:xmptk="Adobe XMP Core 5.6-c138 79.159824, 2016/09/14-01:09:01        ">
   <rdf:RDF xmlns:rdf="http://www.w3.org/1999/02/22-rdf-syntax-ns#">
      <rdf:Description rdf:about=""/>
   </rdf:RDF>
</x:xmpmeta>
                                                                                                    
                                                                                                    
                                                                                                    
                                                                                                    
                                                                                                    
                                                                                                    
                                                                                                    
                                                                                                    
                                                                                                    
                                                                                                    
                                                                                                    
                                                                                                    
                                                                                                    
                                                                                                    
                                                                                                    
                                                                                                    
                                                                                                    
                                                                                                    
                                                                                                    
                                                                                                    
                           
<?xpacket end="w"?></metadata>
<defs>
    <style>
      .cls-1 {
        fill: #fff;
      }

      .cls-2 {
        fill: #555;
        fill-rule: evenodd;
      }
    </style>
  </defs>
  <circle id="w" class="cls-1" cx="20" cy="20" r="20"/>
  <path id="b" class="cls-2" d="M20,40A20,20,0,1,1,40,20,20,20,0,0,1,20,40ZM20,1A19,19,0,1,0,39,20,19,19,0,0,0,20,1Zm6.976,20.986H21.981l0,4.99a1.016,1.016,0,0,1-.993,1.036l-1.984,0a1.012,1.012,0,0,1-.991-1.034l0-4.992H13.028A1.014,1.014,0,0,1,11.993,21V19.01a1.015,1.015,0,0,1,1.035-.993h4.988l0-4.986a1.016,1.016,0,0,1,.993-1.036l1.984,0a1.012,1.012,0,0,1,.991,1.034l0,4.988h4.992a1.014,1.014,0,0,1,1.035.992v1.985A1.015,1.015,0,0,1,26.975,21.985Z"/>
</svg>
