<svg xmlns="http://www.w3.org/2000/svg" width="40" height="40" viewBox="0 0 40 40">
  <metadata><?xpacket begin="﻿" id="W5M0MpCehiHzreSzNTczkc9d"?>
<x:xmpmeta xmlns:x="adobe:ns:meta/" x:xmptk="Adobe XMP Core 5.6-c138 79.159824, 2016/09/14-01:09:01        ">
   <rdf:RDF xmlns:rdf="http://www.w3.org/1999/02/22-rdf-syntax-ns#">
      <rdf:Description rdf:about=""/>
   </rdf:RDF>
</x:xmpmeta>
                                                                                                    
                                                                                                    
                                                                                                    
                                                                                                    
                                                                                                    
                                                                                                    
                                                                                                    
                                                                                                    
                                                                                                    
                                                                                                    
                                                                                                    
                                                                                                    
                                                                                                    
                                                                                                    
                                                                                                    
                                                                                                    
                                                                                                    
                                                                                                    
                                                                                                    
                                                                                                    
                           
<?xpacket end="w"?></metadata>
<defs>
    <style>
      .cls-1 {
        fill: #fff;
        fill-rule: evenodd;
      }
    </style>
  </defs>
  <path id="w" class="cls-1" d="M34.048,19.994l-1.508.018a0.985,0.985,0,0,1-.99-0.979V18.989a0.985,0.985,0,0,1,.955-1.013l1.508-.018a0.984,0.984,0,0,1,.989.979v0.044A0.985,0.985,0,0,1,34.048,19.994Zm-0.626-6.929-1.3.775a0.978,0.978,0,0,1-1.343-.35l-0.022-.038a0.992,0.992,0,0,1,.325-1.358l1.3-.775a0.977,0.977,0,0,1,1.343.349l0.023,0.038A0.992,0.992,0,0,1,33.422,13.065ZM27.743,8.393a0.978,0.978,0,0,1-1.337.374l-0.038-.022a0.991,0.991,0,0,1-.393-1.339L26.714,6.08a0.977,0.977,0,0,1,1.336-.374l0.038,0.022a0.992,0.992,0,0,1,.393,1.34ZM27.305,25.422A0.821,0.821,0,0,1,28,26.2c0,0.434,0,.4,0,0.79,0,1.461-.506,2.016-2.006,2.016H14.01c-1.5,0-2.006-.556-2.006-2.016,0-.388,0-0.356,0-0.79a0.821,0.821,0,0,1,.691-0.781A2.855,2.855,0,0,0,14,23.947c0.25-.75.271-1.31,0.521-6.43,0.169-3.468,1.851-4.527,4.46-4.527h2.039c2.609,0,4.29,1.059,4.46,4.527,0.25,5.12.271,5.68,0.521,6.43A2.855,2.855,0,0,0,27.305,25.422ZM19.95,7.476H19.907a0.985,0.985,0,0,1-.964-1l0.031-1.519A0.984,0.984,0,0,1,19.987,4h0.044a0.984,0.984,0,0,1,.963,1L20.964,6.522A0.984,0.984,0,0,1,19.95,7.476ZM13.632,8.745l-0.038.022a0.978,0.978,0,0,1-1.337-.374L11.519,7.068a0.992,0.992,0,0,1,.393-1.34l0.038-.022a0.977,0.977,0,0,1,1.336.374l0.739,1.325A0.991,0.991,0,0,1,13.632,8.745ZM9.218,13.491a0.977,0.977,0,0,1-1.343.35l-1.3-.775a0.992,0.992,0,0,1-.325-1.358l0.023-.038a0.977,0.977,0,0,1,1.343-.349l1.3,0.775a0.992,0.992,0,0,1,.325,1.358Zm-0.768,5.5v0.044a0.985,0.985,0,0,1-.99.979l-1.508-.018A0.985,0.985,0,0,1,5,18.981V18.937a0.984,0.984,0,0,1,.989-0.979L7.5,17.976A0.985,0.985,0,0,1,8.45,18.989ZM20,33.01c-1.646,0-2-.692-2-2h4C22,32.334,21.646,33.01,20,33.01Z"/>
</svg>
