<?xml version="1.0" encoding="utf-8"?>
<!-- Generator: Adobe Illustrator 16.0.0, SVG Export Plug-In . SVG Version: 6.00 Build 0)  -->
<!DOCTYPE svg PUBLIC "-//W3C//DTD SVG 1.1//EN" "http://www.w3.org/Graphics/SVG/1.1/DTD/svg11.dtd">
<svg version="1.1" xmlns="http://www.w3.org/2000/svg" xmlns:xlink="http://www.w3.org/1999/xlink" x="0px" y="0px" width="40px"
	 height="40px" viewBox="0 0 40 40" enable-background="new 0 0 40 40" xml:space="preserve">
<g id="f_3_" opacity="0.102" enable-background="new    ">
	<g id="f">
		<g>
			<path d="M21.016,19.005c0-1.551,0-2.251,0-2.548c0,0.019,0-0.015,0-0.169c0-1.046,0.219-1.676,1.584-1.676
				c1.264,0,2.42,0.013,2.42,0.013l0.09-3.54c0,0-1.135-0.147-2.669-0.147c-3.789,0-5.434,2.336-5.434,4.881
				c0,1.685,0,3.188,0,3.188l-2.403,0.05v3.893h2.403v10.068h4.009V22.947h3.883l0.23-3.942H21.016z"/>
		</g>
	</g>
</g>
<g id="f_2_" enable-background="new    ">
	<g id="f_1_">
		<g>
			<path fill="#FFFFFF" d="M21.016,17.005v-2.548c0,0.019,0-0.015,0-0.169c0-1.046,0.219-1.676,1.584-1.676
				c1.264,0,2.42,0.013,2.42,0.013l0.09-3.54c0,0-1.135-0.147-2.669-0.147c-3.789,0-5.434,2.336-5.434,4.881
				c0,1.685,0,3.188,0,3.188l-2.403,0.05v3.893h2.403v10.068h4.009V20.947h3.883l0.23-3.942H21.016z"/>
		</g>
	</g>
</g>
</svg>
