<svg xmlns="http://www.w3.org/2000/svg" width="40" height="40" viewBox="0 0 40 40">
  <defs>
    <style>
      .cls-1 {
        fill: #555;
        fill-rule: evenodd;
      }
    </style>
  </defs>
  <path id="b" class="cls-1" d="M29.931,14.988V18.92H26v3.147h3.927V26h3.142V22.067H37V18.92H33.073V14.988H29.931ZM15.518,12a8.517,8.517,0,0,0-7.578,4.621l-0.018.033h0a8.472,8.472,0,0,0-.033,7.632h0A8.527,8.527,0,0,0,21.3,26.744h0A8.431,8.431,0,0,0,23.88,18.91H15.655V22.1h4.759a5.074,5.074,0,0,1-1.847,2.536,4.979,4.979,0,0,1-2.918.95,5.036,5.036,0,0,1-4.8-3.566l0,0a5.145,5.145,0,0,1,.053-3.2,4.994,4.994,0,0,1,8.051-2.151l2.416-2.344A8.529,8.529,0,0,0,15.518,12h0Z"/>
</svg>
