<?xml version="1.0" encoding="utf-8"?>
<!-- Generator: Adobe Illustrator 16.0.0, SVG Export Plug-In . SVG Version: 6.00 Build 0)  -->
<!DOCTYPE svg PUBLIC "-//W3C//DTD SVG 1.1//EN" "http://www.w3.org/Graphics/SVG/1.1/DTD/svg11.dtd">
<svg version="1.1" id="twitter_1_" xmlns="http://www.w3.org/2000/svg" xmlns:xlink="http://www.w3.org/1999/xlink" x="0px" y="0px"
	 width="40px" height="40px" viewBox="0 0 40 40" enable-background="new 0 0 40 40" xml:space="preserve">
<g id="twitter">
	<g>
		<path fill="#555555" d="M32.561,12.381c-0.904,0.4-1.876,0.672-2.896,0.794c1.041-0.624,1.842-1.612,2.217-2.789
			c-0.974,0.577-2.053,0.997-3.201,1.223c-0.92-0.979-2.229-1.592-3.68-1.592c-2.785,0-5.042,2.258-5.042,5.041
			c0,0.396,0.045,0.78,0.131,1.149c-4.19-0.21-7.905-2.218-10.392-5.268c-0.434,0.744-0.682,1.61-0.682,2.534
			c0,1.749,0.89,3.293,2.243,4.196c-0.827-0.025-1.604-0.252-2.284-0.63c0,0.021,0,0.042,0,0.063c0,2.442,1.738,4.481,4.044,4.944
			c-0.423,0.115-0.869,0.177-1.328,0.177c-0.325,0-0.641-0.032-0.949-0.091c0.642,2.004,2.503,3.461,4.709,3.502
			c-1.725,1.352-3.899,2.158-6.261,2.158c-0.407,0-0.808-0.023-1.203-0.07c2.231,1.431,4.881,2.265,7.729,2.265
			c9.273,0,14.344-7.683,14.344-14.345c0-0.219-0.004-0.437-0.014-0.652C31.029,14.279,31.885,13.392,32.561,12.381z"/>
	</g>
</g>
</svg>
