<?xml version="1.0" encoding="utf-8"?>
<!-- Generator: Adobe Illustrator 16.0.0, SVG Export Plug-In . SVG Version: 6.00 Build 0)  -->
<!DOCTYPE svg PUBLIC "-//W3C//DTD SVG 1.1//EN" "http://www.w3.org/Graphics/SVG/1.1/DTD/svg11.dtd">
<svg version="1.1" xmlns="http://www.w3.org/2000/svg" xmlns:xlink="http://www.w3.org/1999/xlink" x="0px" y="0px" width="40px"
	 height="40px" viewBox="0 0 40 40" enable-background="new 0 0 40 40" xml:space="preserve">
<g id="link_x5F_w_3_" opacity="0.102" enable-background="new    ">
	<g id="link_x5F_w">
		<g>
			<path fill-rule="evenodd" clip-rule="evenodd" d="M11.042,22.58c-0.076-0.494-0.036-0.488-0.015-1.127
				C11.153,20.625,11.072,19.999,12,20h7c-0.579-1.133-1.912-3-3.339-3h-2.786C10.181,17,8,19.238,8,22c0,2.764,2.181,5,4.875,5
				h2.786c1.427,0,2.76-1.866,3.339-3h-7C11.079,24,11.266,23.363,11.042,22.58z M13.991,21.997c0,0.553,0.504,1.003,1.126,1.003
				h9.764c0.615,0,1.128-0.45,1.128-1.003S25.496,21,24.881,21H15.12C14.497,20.998,13.991,21.444,13.991,21.997z M27.125,17h-2.786
				c-1.427,0-2.761,1.867-3.339,3h7c0.928-0.001,0.847,0.625,0.973,1.453c0.021,0.639,0.061,0.633-0.016,1.127
				C28.734,23.363,28.921,24,28,24h-7c0.578,1.134,1.912,3,3.339,3h2.786C29.818,27,32,24.764,32,22C32,19.238,29.818,17,27.125,17z
				"/>
		</g>
	</g>
</g>
<g id="link_x5F_w_2_" enable-background="new    ">
	<g id="link_x5F_w_1_">
		<g>
			<path fill-rule="evenodd" clip-rule="evenodd" fill="#FFFFFF" d="M11.042,20.58c-0.076-0.494-0.036-0.488-0.015-1.127
				C11.153,18.625,11.072,17.999,12,18h7c-0.579-1.133-1.912-3-3.339-3h-2.786C10.181,15,8,17.238,8,20c0,2.764,2.181,5,4.875,5
				h2.786c1.427,0,2.76-1.866,3.339-3h-7C11.079,22,11.266,21.363,11.042,20.58z M13.991,19.997c0,0.553,0.504,1.003,1.126,1.003
				h9.764c0.615,0,1.128-0.45,1.128-1.003S25.496,19,24.881,19H15.12C14.497,18.998,13.991,19.444,13.991,19.997z M27.125,15h-2.786
				c-1.427,0-2.761,1.867-3.339,3h7c0.928-0.001,0.847,0.625,0.973,1.453c0.021,0.639,0.061,0.633-0.016,1.127
				C28.734,21.363,28.921,22,28,22h-7c0.578,1.134,1.912,3,3.339,3h2.786C29.818,25,32,22.764,32,20C32,17.238,29.818,15,27.125,15z
				"/>
		</g>
	</g>
</g>
</svg>
