<?xml version="1.0" encoding="utf-8"?>
<!-- Generator: Adobe Illustrator 16.0.0, SVG Export Plug-In . SVG Version: 6.00 Build 0)  -->
<!DOCTYPE svg PUBLIC "-//W3C//DTD SVG 1.1//EN" "http://www.w3.org/Graphics/SVG/1.1/DTD/svg11.dtd">
<svg version="1.1" xmlns="http://www.w3.org/2000/svg" xmlns:xlink="http://www.w3.org/1999/xlink" x="0px" y="0px" width="40px"
	 height="40px" viewBox="0 0 40 40" enable-background="new 0 0 40 40" xml:space="preserve">
<g id="share_3_" opacity="0.102" enable-background="new    ">
	<g id="share">
		<g>
			<path d="M29,19c-1.423-1.284-4.485-4.01-5.318-4.75c-0.852-0.756-1.691-0.03-1.691,0.98c0,1.755,0.01,2.332,0.01,2.77
				c-6.172,0-11.012,2.793-11.012,10c0,0.15,2.464-5,11.012-5c0.035,0-0.01,0.911-0.01,2.703c0,1.304,0.606,1.827,1.749,0.894
				c1.12-0.916,4.2-3.627,5.261-4.597C30.325,20.789,30.238,20.117,29,19z"/>
		</g>
	</g>
</g>
<g id="share_2_" enable-background="new    ">
	<g id="share_1_">
		<g>
			<path fill="#FFFFFF" d="M29,17c-1.423-1.284-4.485-4.01-5.318-4.75c-0.852-0.756-1.691-0.03-1.691,0.98
				c0,1.755,0.01,2.332,0.01,2.77c-6.172,0-11.012,2.793-11.012,10c0,0.15,2.464-5,11.012-5c0.035,0-0.01,0.911-0.01,2.703
				c0,1.304,0.606,1.827,1.749,0.894c1.12-0.916,4.2-3.627,5.261-4.597C30.325,18.789,30.238,18.117,29,17z"/>
		</g>
	</g>
</g>
</svg>
