<svg xmlns="http://www.w3.org/2000/svg" width="40" height="40" viewBox="0 0 40 40">
  <defs>
    <style>
      .cls-1 {
        fill: #fff;
      }

      .cls-2 {
        fill: #555;
        fill-rule: evenodd;
      }
    </style>
  </defs>
  <rect id="white" class="cls-1" x="11" y="13" width="18" height="14"/>
  <path class="cls-2" d="M5,12H35V28H5V12Zm7,15H28V13H12V27Zm8-13.009L19.137,15.9l-0.124.186-0.185-.011-0.18-.061L18,15.48l0.535,2.88-0.033.352-0.064.108-0.129,0-0.168-.146-1.115-1.352-0.1.394-0.151.258-0.176.2-0.345-.025-1.023-.318,0.258,0.99,0.1,0.8-0.04.212L15,20.082l2.518,2.363v0.282l-0.289.715,2.586-.483-0.111,3.055H20.3l-0.112-3.055,2.585,0.483-0.289-.715V22.445L25,20.082l-0.544-.256-0.041-.212,0.1-.8,0.259-.99-1.024.318-0.345.025-0.176-.2-0.151-.258-0.1-.394L21.86,18.67l-0.168.146-0.129,0L21.5,18.711l-0.034-.353L22,15.479l-0.648.534-0.182.061-0.183.011L20.866,15.9Z"/>
</svg>
