<svg xmlns="http://www.w3.org/2000/svg" width="40" height="40" viewBox="0 0 40 40">
  <defs>
    <style>
      .cls-1 {
        fill: #fff;
      }

      .cls-1, .cls-2 {
        fill-rule: evenodd;
      }

      .cls-2 {
        fill: #555;
      }
    </style>
  </defs>
  <path class="cls-1" d="M5.435,12.391H34.674V27.609H5.435V12.391Z"/>
  <path class="cls-2" d="M5,12.009H35V28H5V12.009Zm16.4,6.6H33.971v-1H27.835l6.136-3.085V13L24.794,17.61H22.545l9.177-4.615H30.93l-8.538,4.293V12.995H21.4v5.614Zm-2.8-5.614H17.608v4.293L9.07,12.995H6.029l9.177,4.615H12.958L6.029,14.126v0.4l6.136,3.085H6.029v1H18.6V12.995h0Zm0,8.438H6.029v1h6.136L6.029,25.517v1.53l9.177-4.615h2.249L8.277,27.046H9.07l8.538-4.293v4.262H18.6V21.433Zm2.8,5.582h0.991V22.753l8.538,4.293h3.041l-9.177-4.615h2.249l6.928,3.485v-0.4l-6.136-3.086h6.136v-1H21.4v5.582h0Z"/>
</svg>
