<svg xmlns="http://www.w3.org/2000/svg" width="40" height="40" viewBox="0 0 40 40">
  <defs>
    <style>
      .cls-1 {
        fill: #fff;
      }

      .cls-1, .cls-2 {
        fill-rule: evenodd;
      }

      .cls-2 {
        fill: #555;
      }
    </style>
  </defs>
  <path class="cls-1" d="M5.287,12.184h29.2V27.356H5.287V12.184Z"/>
  <path class="cls-2" d="M5,12H35V28H5V12ZM34,25.538H6v1.23H34v-1.23Zm0-2.461H6v1.231H34V23.077Zm0-6.154V15.693H16.581V14.462H34V13.231H16.581V12.2h-0.19v8.42H6v1.231H34V20.615H16.581v-1.23H34V18.154H16.581V16.924H34ZM15.144,12.682l0.224,0.165-0.085.267,0.224-.165,0.223,0.165-0.085-.267,0.223-.165H15.592l-0.085-.268-0.085.268H15.144Zm0,7.106,0.224,0.165-0.085.268,0.224-.165,0.223,0.165-0.085-.268,0.223-.165H15.592l-0.085-.267-0.085.267H15.144Zm0-3.553L15.368,16.4l-0.085.268,0.224-.165,0.223,0.165L15.645,16.4l0.223-.166H15.592l-0.085-.267-0.085.267H15.144Zm0-1.776,0.224,0.165-0.085.267,0.224-.165,0.223,0.165-0.085-.267,0.223-.165H15.592l-0.085-.268-0.085.268H15.144Zm0,3.554,0.224,0.165-0.085.267,0.224-.165,0.223,0.165-0.085-.267,0.223-.165H15.592l-0.085-.269-0.085.269H15.144Zm-4.788.887,0.225,0.166-0.086.267,0.225-.165,0.223,0.165-0.086-.267,0.225-.166H10.8l-0.085-.267-0.086.267H10.356Zm0-3.553,0.225,0.165-0.086.269,0.225-.165,0.223,0.165-0.086-.269,0.225-.165H10.8l-0.085-.267-0.086.267H10.356Zm0-1.776,0.225,0.165L10.494,14l0.225-.165L10.943,14l-0.086-.267,0.225-.165H10.8L10.719,13.3l-0.086.269H10.356Zm0,3.553,0.225,0.165-0.086.267,0.225-.166,0.223,0.166-0.086-.267,0.225-.165H10.8l-0.085-.268-0.086.268H10.356Zm2.873-4.442,0.223,0.165-0.086.267,0.225-.165,0.225,0.165-0.086-.267,0.225-.165H13.677l-0.086-.268-0.086.268H13.229Zm0,7.106,0.223,0.165-0.086.268,0.225-.165,0.225,0.165-0.086-.268,0.225-.165H13.677l-0.086-.267-0.086.267H13.229Zm0-3.553L13.452,16.4l-0.086.268,0.225-.165,0.225,0.165L13.73,16.4l0.225-.166H13.677l-0.086-.267-0.086.267H13.229Zm0-1.776,0.223,0.165-0.086.267,0.225-.165,0.225,0.165-0.086-.267,0.225-.165H13.677l-0.086-.268-0.086.268H13.229Zm0,3.554,0.223,0.165-0.086.267,0.225-.165,0.225,0.165-0.086-.267,0.225-.165H13.677l-0.086-.269-0.086.269H13.229Zm-1.915-5.331,0.224,0.165-0.085.267,0.223-.165L11.9,13.115l-0.085-.267,0.224-.165H11.761l-0.085-.268-0.085.268H11.314Zm0,7.106,0.224,0.165-0.085.268,0.223-.165L11.9,20.221l-0.085-.268,0.224-.165H11.761l-0.085-.267-0.085.267H11.314Zm0-3.553L11.538,16.4l-0.085.268,0.223-.165L11.9,16.668,11.814,16.4l0.224-.166H11.761l-0.085-.267-0.085.267H11.314Zm0-1.776,0.224,0.165-0.085.267,0.223-.165L11.9,14.891l-0.085-.267,0.224-.165H11.761l-0.085-.268-0.085.268H11.314Zm0,3.554,0.224,0.165-0.085.267,0.223-.165L11.9,18.444l-0.085-.267,0.224-.165H11.761l-0.085-.269-0.085.269H11.314ZM9.4,12.682l0.225,0.165-0.086.267,0.225-.165,0.224,0.165L9.9,12.848l0.223-.165H9.847l-0.085-.268-0.086.268H9.4Zm0,7.106,0.225,0.165-0.086.268,0.225-.165,0.224,0.165L9.9,19.953l0.223-.165H9.847l-0.085-.267-0.086.267H9.4Zm0-3.553L9.623,16.4l-0.086.268L9.762,16.5l0.224,0.165L9.9,16.4l0.223-.166H9.847l-0.085-.267-0.086.267H9.4Zm0-1.776,0.225,0.165-0.086.267,0.225-.165,0.224,0.165L9.9,14.624l0.223-.165H9.847l-0.085-.268-0.086.268H9.4Zm0,3.554,0.225,0.165-0.086.267,0.225-.165,0.224,0.165L9.9,18.177l0.223-.165H9.847l-0.085-.269-0.086.269H9.4ZM7.484,12.682l0.223,0.165-0.085.267,0.224-.165L8.07,13.115l-0.086-.267,0.224-.165H7.931l-0.086-.268-0.085.268H7.484Zm0,7.106,0.223,0.165-0.085.268,0.224-.165L8.07,20.221l-0.086-.268,0.224-.165H7.931l-0.086-.267-0.085.267H7.484Zm0-3.553L7.707,16.4l-0.085.268L7.846,16.5,8.07,16.668,7.984,16.4l0.224-.166H7.931l-0.086-.267-0.085.267H7.484Zm0-1.776,0.223,0.165-0.085.267,0.224-.165L8.07,14.891l-0.086-.267,0.224-.165H7.931l-0.086-.268-0.085.268H7.484Zm0,3.554,0.223,0.165-0.085.267,0.224-.165L8.07,18.444l-0.086-.267,0.224-.165H7.931l-0.086-.269-0.085.269H7.484ZM5.569,12.682l0.224,0.165-0.085.267,0.224-.165,0.223,0.165L6.07,12.848l0.224-.165H6.016l-0.085-.268-0.085.268H5.569Zm0,7.106,0.224,0.165-0.085.268,0.224-.165,0.223,0.165L6.07,19.953l0.224-.165H6.016l-0.085-.267-0.085.267H5.569Zm0-3.553L5.793,16.4l-0.085.268L5.932,16.5l0.223,0.165L6.07,16.4l0.224-.166H6.016l-0.085-.267-0.085.267H5.569Zm0-1.776,0.224,0.165-0.085.267,0.224-.165,0.223,0.165L6.07,14.624l0.224-.165H6.016l-0.085-.268-0.085.268H5.569Zm0,3.554,0.224,0.165-0.085.267,0.224-.165,0.223,0.165L6.07,18.177l0.224-.165H6.016l-0.085-.269-0.085.269H5.569ZM6.526,18.9l0.225,0.166-0.086.267,0.223-.165,0.225,0.165-0.086-.267L7.252,18.9H6.974l-0.086-.267L6.8,18.9H6.526Zm0-3.553,0.225,0.165-0.086.269,0.223-.165L7.113,15.78l-0.086-.269,0.225-.165H6.974L6.888,15.08,6.8,15.347H6.526Zm0-1.776,0.225,0.165L6.665,14l0.223-.165L7.113,14l-0.086-.267,0.225-.165H6.974L6.888,13.3,6.8,13.571H6.526Zm0,3.553,0.225,0.165-0.086.267,0.223-.166,0.225,0.166-0.086-.267,0.225-.165H6.974l-0.086-.268L6.8,17.124H6.526ZM8.441,18.9l0.224,0.166-0.085.267L8.8,19.168l0.224,0.165-0.085-.267L9.167,18.9H8.889L8.8,18.633,8.718,18.9H8.441Zm0-3.553,0.224,0.165L8.58,15.78,8.8,15.615,9.028,15.78l-0.085-.269,0.224-.165H8.889L8.8,15.08l-0.085.267H8.441Zm0-1.776,0.224,0.165L8.58,14,8.8,13.837,9.028,14l-0.085-.267,0.224-.165H8.889L8.8,13.3l-0.085.269H8.441Zm0,3.553,0.224,0.165-0.085.267L8.8,17.391l0.224,0.166-0.085-.267,0.224-.165H8.889L8.8,16.856l-0.085.268H8.441ZM12.272,18.9L12.5,19.066l-0.085.267,0.224-.165,0.224,0.165-0.085-.267L13,18.9H12.719l-0.085-.267-0.086.267H12.272Zm0-3.553L12.5,15.512l-0.085.269,0.224-.165,0.224,0.165-0.085-.269L13,15.347H12.719l-0.085-.267-0.086.267H12.272Zm0-1.776L12.5,13.736,12.41,14l0.224-.165L12.858,14l-0.085-.267L13,13.571H12.719L12.634,13.3l-0.086.269H12.272Zm0,3.553L12.5,17.289l-0.085.267,0.224-.166,0.224,0.166-0.085-.267L13,17.124H12.719l-0.085-.268-0.086.268H12.272ZM14.186,18.9l0.224,0.166-0.085.267,0.224-.165,0.225,0.165-0.086-.267L14.91,18.9H14.635l-0.086-.267-0.085.267H14.186Zm0-3.553,0.224,0.165-0.085.269,0.224-.165,0.225,0.165-0.086-.269,0.223-.165H14.635l-0.086-.267-0.085.267H14.186Zm0-1.776,0.224,0.165L14.324,14l0.224-.165L14.773,14l-0.086-.267,0.223-.165H14.635L14.548,13.3l-0.085.269H14.186Zm0,3.553,0.224,0.165-0.085.267,0.224-.166,0.225,0.166-0.086-.267,0.223-.165H14.635l-0.086-.268-0.085.268H14.186Z"/>
</svg>
