<svg xmlns="http://www.w3.org/2000/svg" width="40" height="40" viewBox="0 0 40 40">
  <defs>
    <style>
      .cls-1 {
        fill: #fff;
      }

      .cls-2 {
        fill: #555;
        fill-rule: evenodd;
      }
    </style>
  </defs>
  <circle id="white" class="cls-1" cx="20" cy="20" r="11"/>
  <path id="seo" class="cls-2" d="M20,8A12,12,0,1,1,8,20,12,12,0,0,1,20,8Zm-7.1,4.9a9.791,9.791,0,0,1,4.047-2.5,15.649,15.649,0,0,0-2.17,4.223,14.957,14.957,0,0,1-2.45-1.1C12.511,13.3,12.694,13.1,12.9,12.9Zm-1.17,1.376A15.629,15.629,0,0,0,14.5,15.541,16.533,16.533,0,0,0,14,19.5H10A9.363,9.363,0,0,1,11.731,14.276ZM12,26.077A9.386,9.386,0,0,1,10,20.5h4a16.627,16.627,0,0,0,.629,4.415A14.767,14.767,0,0,0,12,26.077Zm0.9,1.03c-0.1-.1-0.191-0.191-0.279-0.287a14.238,14.238,0,0,1,2.31-1A15.641,15.641,0,0,0,16.955,29.6,9.724,9.724,0,0,1,12.9,27.107ZM19.5,30a10.4,10.4,0,0,1-1.081-.068c-0.228-.272-0.449-0.552-0.647-0.831a14.875,14.875,0,0,1-1.92-3.554A16.359,16.359,0,0,1,19.5,25v5h0Zm0-6a16.6,16.6,0,0,0-3.958.642A15.813,15.813,0,0,1,15,20.5h4.5V24Zm0-4.5H15a15.3,15.3,0,0,1,.417-3.672A17.19,17.19,0,0,0,19.5,16.5v3Zm0-4a15.346,15.346,0,0,1-3.811-.591,14.935,14.935,0,0,1,2.722-4.841A10.657,10.657,0,0,1,19.5,10v5.5h0Zm7.608-2.6c0.2,0.2.39,0.4,0.566,0.618a14.675,14.675,0,0,1-2.156,1,15.608,15.608,0,0,0-2.031-3.973A9.891,9.891,0,0,1,27.108,12.9ZM20.5,10a10.465,10.465,0,0,1,1.472.134,15.087,15.087,0,0,1,2.641,4.686,15.662,15.662,0,0,1-4.113.68V10Zm0,6.5a16.807,16.807,0,0,0,4.393-.76A15.628,15.628,0,0,1,25.5,19.5h-5v-3Zm0,4h5a15.653,15.653,0,0,1-.739,4.23A16.422,16.422,0,0,0,20.5,24V20.5Zm1.465,9.374A10.424,10.424,0,0,1,20.5,30V25a16.068,16.068,0,0,1,3.952.628A14.873,14.873,0,0,1,22.568,29.1C22.377,29.359,22.178,29.616,21.965,29.874Zm5.143-2.766H27.1a9.842,9.842,0,0,1-3.612,2.347,15.666,15.666,0,0,0,1.876-3.531,14.534,14.534,0,0,1,2.016.9C27.292,26.916,27.2,27.012,27.108,27.107Zm0.9-1.03a15.21,15.21,0,0,0-2.34-1.059A16.819,16.819,0,0,0,26.5,20.5H30A9.424,9.424,0,0,1,28.013,26.077ZM26.5,19.5a16.646,16.646,0,0,0-.7-4.062,16.432,16.432,0,0,0,2.472-1.162A9.415,9.415,0,0,1,30,19.5H26.5ZM20,30A10,10,0,1,1,30,20,10,10,0,0,1,20,30Zm0-19a9,9,0,1,0,9,9A9,9,0,0,0,20,11Z"/>
</svg>
