<svg xmlns="http://www.w3.org/2000/svg" width="180" height="100" viewBox="0 0 180 100">
  <defs>
    <style>
      .cls-1 {
        fill-rule: evenodd;
        opacity: 0.15;
      }
    </style>
  </defs>
  <path id="World" class="cls-1" d="M83.3,19.635a7.222,7.222,0,0,1,.486-2.04,9.161,9.161,0,0,1,.571-1.062,9.818,9.818,0,0,0,.81-1.6,7.265,7.265,0,0,0,.39-2.226c0.021-.345.043-0.7,0.1-1.073a4.192,4.192,0,0,1,.95-1.99L86.8,9.377c0.078-.11.171-0.222,0.263-0.337C87.56,8.433,88.477,7.3,87.5,6a3.469,3.469,0,0,0-2.113-1.019,3.787,3.787,0,0,1-1.255-.433,4.6,4.6,0,0,1-.8-0.957,3.267,3.267,0,0,0-2.8-1.654A16.26,16.26,0,0,0,77.4,2C77,2.03,76.616,2.063,76.072,2.09c-1.336.063-2.6,0.128-3.416-.546A5.088,5.088,0,0,0,68.412.013,16.485,16.485,0,0,0,61.6,1.048c-2.1.944-3.166,1.743-3.5,3.658C58,4.622,57.893,4.519,57.764,4.4c-0.575-.549-1.775-1.688-3.356-0.348-0.016.012-.03,0.028-0.045,0.04l0.121-.866-1.5.723a9.582,9.582,0,0,1-2.059.371c-1.869.228-3.8,0.463-4.608,1.606a1.947,1.947,0,0,0-.284,1.619,5.651,5.651,0,0,0,3.372,3.6,6.757,6.757,0,0,0,2.017.168h0.057c-0.215.043-.477,0.083-0.806,0.129-0.264.037-.537,0.073-0.853,0.131a5.018,5.018,0,0,1-2.248.152,0.97,0.97,0,0,1-.336-0.443,3.352,3.352,0,0,0-6.29,2.1l0.069,0.452a5.052,5.052,0,0,0-1.976-.984,4.135,4.135,0,0,0-1.264-.032,1.8,1.8,0,0,1-.853-0.04,1.626,1.626,0,0,1-.28-0.4,2.891,2.891,0,0,0-.853-1.016,9.178,9.178,0,0,0-2.2-.984,6.271,6.271,0,0,1-2.29-1.134,2.8,2.8,0,0,1-.331-0.418,2.485,2.485,0,0,0-1.4-1.131,3.163,3.163,0,0,0-2.267.614,4.393,4.393,0,0,1-.4.213c-0.488.21-.967,0.366-1.433,0.521a9.455,9.455,0,0,0-3.083,1.483l-0.207.16a2.781,2.781,0,0,0-1.083,1.489,4.231,4.231,0,0,0-.26.77,1.089,1.089,0,0,1-.215.122,0.723,0.723,0,0,1-.417.06,1.54,1.54,0,0,0-1.686,1.391,2.481,2.481,0,0,0,.595,2.314,2.713,2.713,0,0,0-2.447,1.394,3.642,3.642,0,0,0-1.142,3.262,2.463,2.463,0,0,0,1.457,2.045c0.054,0.031.108,0.058,0.158,0.089a14.7,14.7,0,0,1-5.171,2.815,24.023,24.023,0,0,1-5.179.757l-3.3.262L4.95,28.821c2.316,2.157,6.39,1.305,9.4.215,2.441-.886,4.354-1.737,6.479-2.739a7.749,7.749,0,0,0,1.51-.973,2.438,2.438,0,0,1,1.783-.718c0.163,0,.373,0,0.593-0.007a6.261,6.261,0,0,1,2.173.181c0.727,0.455.553,2.307,0.416,3.794a10.162,10.162,0,0,0-.013,2.987l0.132,0.571L28,32.234a1.921,1.921,0,0,1,1.391.806,2.54,2.54,0,0,1,.091,2.064A24.009,24.009,0,0,0,28.433,42.2a6.25,6.25,0,0,0,1.456,4.083,8.123,8.123,0,0,1,.979,1.641l0.1,0.245c0.855,2.047,1.823,4.364,3.759,5.724l1.115,0.784a3.678,3.678,0,0,0,.6.992A18.3,18.3,0,0,0,38.8,58.028a4.363,4.363,0,0,0,2.828.61,4.714,4.714,0,0,1,1.41.1,3.769,3.769,0,0,1,1.7,1.244c0.144,0.153.291,0.307,0.442,0.457a5.808,5.808,0,0,0,2.862,1.534,11.94,11.94,0,0,1,1.3.426,2.464,2.464,0,0,0,.486.143v0.017c-0.009.184-.02,0.21-0.373,0.46A3.1,3.1,0,0,0,48.4,64.1c-0.7,1.27-.537,3.383-0.322,5.085a7.938,7.938,0,0,0,3.094,4.922,10.046,10.046,0,0,0,1.117.784,4.6,4.6,0,0,1,1.775,1.568c0.334,0.818.082,2.677-.083,3.908-0.061.448-.116,0.854-0.146,1.188A47.55,47.55,0,0,0,53.722,88c0.035,0.714,0,1.508-.032,2.325a15.3,15.3,0,0,0,.34,5.08,2.612,2.612,0,0,0,1.2,1.663c0.144,0.1.317,0.222,0.537,0.4a3.938,3.938,0,0,1,.644.8,3.853,3.853,0,0,0,1.371,1.389A4.644,4.644,0,0,0,59.7,100a4.907,4.907,0,0,0,2.716-.683,1.523,1.523,0,0,0,.662-1.512,3.332,3.332,0,0,0-1.6-1.859,4.833,4.833,0,0,1-.845-0.7c-0.47-.665-0.609-1.885-0.411-3.637a8.824,8.824,0,0,1,.413-1.776l0.072-.221a1.122,1.122,0,0,1,.2-0.44c0.132-.1.319-0.237,0.6-0.481a7.694,7.694,0,0,1,.843-0.622,2.817,2.817,0,0,0,1.581-2.207c2.047-.467,3.446-3.49,4-5.484a3.112,3.112,0,0,1,1.659-1.764,5,5,0,0,0,2.494-2.834,7.137,7.137,0,0,0,.2-2.3,3.388,3.388,0,0,1,.477-2.382,5.2,5.2,0,0,1,.863-0.7,2.869,2.869,0,0,0,1.537-1.982,2.387,2.387,0,0,0-.945-1.88,14.491,14.491,0,0,0-4.675-2.125,9.764,9.764,0,0,0-1.675-.25,3.6,3.6,0,0,1-1.947-.476,1.954,1.954,0,0,1-.194-0.612,3.522,3.522,0,0,0-.42-1.166,10.333,10.333,0,0,0-2.9-2.582,24.361,24.361,0,0,0-3.985-1.68c-2.45-.8-4.3.027-5.937,0.751a10.523,10.523,0,0,1-2.61.9l0.005-.022a2.934,2.934,0,0,0-.165-2.739,2.3,2.3,0,0,0-1.882-1.016,2.668,2.668,0,0,0,.187-0.494,2.51,2.51,0,0,0-.066-1.7L47.637,52.3l-0.7.031a1.8,1.8,0,0,0-1.461.835c-1.318.77-2.514,0.7-2.872,0.351-0.276-.267-0.158-0.944.306-1.769,0.794-1.413,1.2-1.8,2.549-1.8h0.007a1.313,1.313,0,0,1,1.436.93,2.928,2.928,0,0,0,2.028,1.7,2.335,2.335,0,0,0,1.826-.218,2.648,2.648,0,0,0,.977-1.878,3.872,3.872,0,0,1,.213-0.808c0.257-.581.5-1.045,0.753-1.512s0.492-.924.755-1.5a7.4,7.4,0,0,1,2.462-2.7c0.225-.179.456-0.361,0.687-0.549a8.567,8.567,0,0,0,.682-0.641,2.719,2.719,0,0,1,.889-0.7,2.2,2.2,0,0,1,.764-0.068,3.727,3.727,0,0,0,1.715-.283,10.341,10.341,0,0,0,1.41-.811,3.364,3.364,0,0,1,1.952-.694c1.721-.147,3.5-0.3,3.34-3.282a5.247,5.247,0,0,0-1.619-3.366c-0.211-.244-0.43-0.494-0.638-0.775a5.157,5.157,0,0,1-1.009-2.769,8.362,8.362,0,0,1,.757-3.153c0.6-1.621,1.29-3.456.519-5.392a14.129,14.129,0,0,0-.895-1.718l-0.341-.6a2.175,2.175,0,0,0-.7-0.719,0.736,0.736,0,0,0-.151-0.1,2.267,2.267,0,0,1-.042-0.47,3.408,3.408,0,0,0-.121-0.941,7.876,7.876,0,0,0-1.755-3.091,4.765,4.765,0,0,0,1.52-1.357,9.944,9.944,0,0,0,.572-0.864c0.217-.35.408-0.643,0.579-0.878-0.037,1.309.1,2.98,2.081,3.525a3.676,3.676,0,0,0,1.315.082c0.416-.032.416-0.032,0.5,0.082a7,7,0,0,1,.046,2.945c-0.132.673-.285,1.324-0.437,1.968a21.9,21.9,0,0,0-.779,5.418A6.423,6.423,0,0,0,68.1,28.3a4.545,4.545,0,0,1,.93,2.081l0.047,0.8,0.8,0.033c1.827,0.077,3.039-.271,3.908-2.289a4.729,4.729,0,0,0,.266-1.142,1.709,1.709,0,0,1,.246-0.786,1.824,1.824,0,0,0,1.114-.325,3.43,3.43,0,0,0,1.163-1.616,1.975,1.975,0,0,1,.549-0.888,5.724,5.724,0,0,1,.859-0.142c0.255-.031.477-0.058,0.618-0.09a9.086,9.086,0,0,0,.957-0.312c0.213-.078.426-0.157,0.621-0.215C82.914,22.6,83.113,21.092,83.3,19.635ZM49.975,64.94a1.463,1.463,0,0,1,.511-0.481,2.209,2.209,0,0,0,1.125-1.813,1.486,1.486,0,0,0-.821-1.735,14.536,14.536,0,0,0,2.422-.9c1.535-.682,2.86-1.268,4.652-0.688a22.634,22.634,0,0,1,3.684,1.554A8.749,8.749,0,0,1,63.8,62.861a2.25,2.25,0,0,1,.183.6,3,3,0,0,0,.595,1.394,4.519,4.519,0,0,0,3.13,1.07,8.365,8.365,0,0,1,1.353.189A13.442,13.442,0,0,1,72.99,67.82a1.808,1.808,0,0,1,.387.462,3.206,3.206,0,0,1-.8.675,6.467,6.467,0,0,0-1.183,1,4.862,4.862,0,0,0-.9,3.569,5.784,5.784,0,0,1-.125,1.749,3.309,3.309,0,0,1-1.744,1.852,4.759,4.759,0,0,0-2.422,2.785c-0.549,1.96-1.911,4.535-3.028,4.219l-1.427-.378,0.329,1.428c0.185,0.808.062,0.889-.739,1.426a9.187,9.187,0,0,0-1.026.765c-0.227.2-.378,0.314-0.487,0.4a1.967,1.967,0,0,0-.819,1.311l-0.07.213a10.483,10.483,0,0,0-.487,2.125c-0.255,2.255-.024,3.8.725,4.852a5.509,5.509,0,0,0,1.25,1.108,9.679,9.679,0,0,1,.794.614,4.407,4.407,0,0,1-2.645.082,2.819,2.819,0,0,1-.693-0.8,5.363,5.363,0,0,0-.989-1.166c-0.257-.208-0.463-0.355-0.633-0.472a0.955,0.955,0,0,1-.526-0.752,14.134,14.134,0,0,1-.259-4.479c0.035-.873.069-1.718,0.032-2.48a45.765,45.765,0,0,1,.111-6.208c0.029-.31.079-0.689,0.136-1.1,0.216-1.585.484-3.558-.032-4.813a5.812,5.812,0,0,0-2.459-2.383,8.7,8.7,0,0,1-.917-0.637,6.294,6.294,0,0,1-2.492-3.81C49.6,66.915,49.635,65.561,49.975,64.94ZM41.693,14.122a5.53,5.53,0,0,0,1.461-.017c-0.027.119-.051,0.242-0.074,0.365-0.045.227-.092,0.457-0.144,0.682a6.115,6.115,0,0,1-1.443-.949l-0.176-.138Zm39.844,5.286c-0.169,1.288-.24,1.82-1.862,2.3-0.23.068-.48,0.157-0.732,0.249a6.842,6.842,0,0,1-.748.251c-0.092.022-.243,0.036-0.414,0.056a3.774,3.774,0,0,0-1.585.4,3.416,3.416,0,0,0-1.255,1.694,1.422,1.422,0,0,1-.66.869,1.73,1.73,0,0,0-1.507.758,3.281,3.281,0,0,0-.48,1.534,4.1,4.1,0,0,1-.143.706,1.523,1.523,0,0,1-1.482,1.222,7.66,7.66,0,0,0-1.066-2.1,4.9,4.9,0,0,1-1.05-2.592,20.261,20.261,0,0,1,.734-4.995c0.155-.665.313-1.338,0.449-2.035,0.005-.031.539-3.125-0.361-4.325a2.075,2.075,0,0,0-2.075-.8,2,2,0,0,1-.7-0.025c-0.741-.2-0.827-0.651-0.758-2.193a12.216,12.216,0,0,0,.012-1.264l-0.042-.689L65.124,8.3c-1.53-.281-2.485,1.274-3.184,2.408a7.927,7.927,0,0,1-.459.7c-0.713.909-1.066,1.011-2.64,1.455L53.085,14.5l5.987,0.1c1.079,0.017,1.939,1.554,2.349,2.868a2.479,2.479,0,0,1,.041.472,2.833,2.833,0,0,0,.213,1.169,2.009,2.009,0,0,0,.717.769c0.064,0.048.163,0.118,0.177,0.131l0.359,0.634a13.182,13.182,0,0,1,.784,1.488c0.519,1.309.034,2.616-.534,4.131-0.175.469-.343,0.946-0.491,1.43a5.6,5.6,0,0,0-1.646-.922,5.845,5.845,0,0,0-3.083-.942c-0.351-.02-0.7-0.014-1.037-0.007l-0.584.005a9.854,9.854,0,0,1-1.457-.257c-1.857-.409-4.662-1.029-5.507,1.019a9.761,9.761,0,0,0-.062,3.668,2.4,2.4,0,0,0,1.894,2.27l0.225,0.089c0.181,0.075.35,0.15,0.514,0.225a4.024,4.024,0,0,0,1.676.472,2.49,2.49,0,0,0,1.122-.273A4.466,4.466,0,0,0,56.6,30.53c0.116-.355.2-0.747,0.292-1.145,0.314-1.431.5-1.779,1-1.786a2.636,2.636,0,0,1,.964.218c0.225,0.1.534,0.218,0.868,0.346,0.139,0.049.3,0.111,0.47,0.179a1.7,1.7,0,0,1,.467.54l0.362-.182a1.928,1.928,0,0,1,.467.293l1.142-1.125a6.449,6.449,0,0,0,1.039,5.992c0.234,0.31.477,0.593,0.711,0.866a3.645,3.645,0,0,1,1.2,2.309c0.068,1.276.035,1.28-1.714,1.43a5.108,5.108,0,0,0-2.783.982,9.208,9.208,0,0,1-1.194.685,2.1,2.1,0,0,1-.926.112,3.679,3.679,0,0,0-1.434.189,4.257,4.257,0,0,0-1.51,1.1,7.063,7.063,0,0,1-.551.518l-0.658.528a8.982,8.982,0,0,0-2.974,3.35c-0.247.54-.479,0.975-0.708,1.406-0.269.506-.533,1-0.81,1.629a5.632,5.632,0,0,0-.327,1.174,2.94,2.94,0,0,1-.2.74,0.98,0.98,0,0,1-.475-0.031,1.231,1.231,0,0,1-.845-0.832,3.046,3.046,0,0,0-2.994-1.841H45.471c-2.4,0-3.246,1.172-4.108,2.7-1.232,2.192-.526,3.381.005,3.9,1.028,1,3.038.992,4.84,0.014-0.044.082-.1,0.167-0.156,0.259a2.786,2.786,0,0,0-.5,1.288l-0.07.9,0.913,0.048c0.285,0.012.556,0.007,0.811,0,0.747-.024.868,0,1.044,0.254a1.379,1.379,0,0,1-.076,1.224,4.6,4.6,0,0,0-.255,1.321,3.485,3.485,0,0,1-1.473-.9c-0.137-.133-0.268-0.271-0.4-0.411a5.437,5.437,0,0,0-2.491-1.726,5.052,5.052,0,0,0-1.468-.182c-0.171,0-.336,0-0.5.009a2.831,2.831,0,0,1-1.75-.281,17.094,17.094,0,0,1-2.03-2.06,3.212,3.212,0,0,1-.566-1.329,5.846,5.846,0,0,0-.66-1.67c-0.2-.315-0.421-0.62-0.651-0.927a4.671,4.671,0,0,0-1.38-2.391,7.366,7.366,0,0,1-.546-0.642,2.915,2.915,0,0,1-.1-0.607l-0.127-.678L33.3,46.179l-2.418-3.09,0.565,2.3-0.093-.131A4.591,4.591,0,0,1,30.217,42.2a22.356,22.356,0,0,1,.975-6.581,4.232,4.232,0,0,0-.282-3.5,3.462,3.462,0,0,0-1.943-1.459,16.349,16.349,0,0,1,.109-1.919c0.193-2.072.412-4.421-1.241-5.453a6.254,6.254,0,0,0-3.164-.453l-0.541.01a4.258,4.258,0,0,0-2.9,1.092,6.216,6.216,0,0,1-1.181.769c-1.207.569-2.346,1.091-3.553,1.595A10.763,10.763,0,0,0,19.1,24.132l0.431-.525-0.4-.545a3.576,3.576,0,0,0-1.285-1.07,0.778,0.778,0,0,1-.564-0.753,1.849,1.849,0,0,1,.547-1.674l-0.168-.22,0.523,0.049c0.062-.644.206-0.729,1.39-0.825a6.827,6.827,0,0,0,1.225-.177c0.7-.187,1.57-0.421,1.6-1.244a1.341,1.341,0,0,0-1.218-1.183,3.288,3.288,0,0,1-.748-0.317,0.717,0.717,0,0,1-.193-0.678c0.007-.027.014-0.049,0.021-0.071a2.377,2.377,0,0,0,1.152-.245,1.846,1.846,0,0,0,1.142-1.3,4.024,4.024,0,0,1,.21-0.55,1.231,1.231,0,0,1,.509-0.724l0.222-.173a7.813,7.813,0,0,1,2.538-1.19c0.514-.169,1.038-0.345,1.577-0.575a6.273,6.273,0,0,0,.572-0.3A4.451,4.451,0,0,1,29.094,9.4a1.085,1.085,0,0,1,.4.435,4.593,4.593,0,0,0,.553.677,7.769,7.769,0,0,0,2.941,1.53,7.87,7.87,0,0,1,1.782.773,1.59,1.59,0,0,1,.321.445A2.617,2.617,0,0,0,36,14.3a3.09,3.09,0,0,0,1.913.283,2.713,2.713,0,0,1,.742-0.005,4.4,4.4,0,0,1,1.716,1.011,5.752,5.752,0,0,0,3.094,1.506l0.7,0.068L44.4,16.5a12.347,12.347,0,0,0,.426-1.69,9.847,9.847,0,0,1,.336-1.371l0.381-1.082-1.152-.092a6.59,6.59,0,0,0-1.318.063c-0.116.014-.229,0.026-0.338,0.037a1.564,1.564,0,0,1,2.649-.679,1.863,1.863,0,0,1,.283.428,2.547,2.547,0,0,0,1.081,1.167,6.063,6.063,0,0,0,3.424.01c0.25-.043.5-0.078,0.74-0.11,1.282-.176,3.042-0.417,3.245-2.49l0.067-.671L53.59,9.787a5.856,5.856,0,0,0-2.2-.244,5.6,5.6,0,0,1-1.5-.1,3.9,3.9,0,0,1-2.126-2.3,0.219,0.219,0,0,1,.01-0.2c0.349-.5,2.235-0.726,3.362-0.861,0.2-.026.4-0.049,0.6-0.073a4.992,4.992,0,0,0-.309.528l-0.5,1.029L52.054,7.78c1.29,0.251,1.972,0,2.386-.453a1.561,1.561,0,0,0,.306,1.347,1.5,1.5,0,0,0,1.179.476q0.108,0,.227-0.01L55.913,7.506l-1.377-.3a3.2,3.2,0,0,0,.438-0.841,2.06,2.06,0,0,1,.594-0.97c0.35-.3.35-0.3,0.962,0.283a2.863,2.863,0,0,0,2.5,1.046L59.742,6.6l0.027-.714c0.07-1.811.431-2.263,2.571-3.228a14.572,14.572,0,0,1,6.067-.874A3.44,3.44,0,0,1,71.513,2.9c1.354,1.114,3.1,1.029,4.812.944,0.4-.019.8-0.054,1.218-0.087A15.1,15.1,0,0,1,80.338,3.7a1.585,1.585,0,0,1,1.515.89,6.292,6.292,0,0,0,1.095,1.286,4.627,4.627,0,0,0,2.025.831,3.8,3.8,0,0,1,1.095.356c0.109,0.143.154,0.2-.392,0.874-0.12.147-.236,0.291-0.337,0.435l-0.187.263a5.824,5.824,0,0,0-1.26,2.749c-0.065.425-.09,0.83-0.116,1.224A5.749,5.749,0,0,1,83.5,14.32a8.264,8.264,0,0,1-.679,1.322,10.747,10.747,0,0,0-.673,1.265A8.79,8.79,0,0,0,81.536,19.408ZM55.574,27.517a8.946,8.946,0,0,0-.423,1.489c-0.074.337-.146,0.672-0.242,0.973a2.824,2.824,0,0,1-.955,1.478,1.3,1.3,0,0,1-1.263-.222c-0.186-.087-0.383-0.175-0.593-0.259l-0.238-.092c-0.693-.273-0.693-0.273-0.781-0.879a8.826,8.826,0,0,1-.052-2.747,0.972,0.972,0,0,1,.954-0.344,13.176,13.176,0,0,1,2.514.385C54.885,27.381,55.246,27.462,55.574,27.517Zm60.447,43.061-0.086.965-1.143-.336a12.545,12.545,0,0,1-.72,1.287c-1.5,2.509-2.571,4.521-1.746,5.76a1.805,1.805,0,0,0,1.616.746,3.864,3.864,0,0,0,.484-0.034c1.949-.256,3.969-3.667,3.919-5.869A2.393,2.393,0,0,0,116.021,70.578Zm-1.828,6.629c-0.21.031-.332,0.024-0.375,0.037-0.09-.706,1.268-2.98,1.791-3.853,0.244-.411.433-0.731,0.577-0.994a0.67,0.67,0,0,1,.378.733C116.6,74.743,114.963,77.111,114.193,77.207Zm53.083-2.321c-0.134-.266-0.263-0.547-0.4-0.833-0.636-1.382-1.358-2.947-3-3.686l-0.553-.252,0.265-.307c0.115-.133.257-0.285,0.405-0.438a7.717,7.717,0,0,0,2.283.854c0.1,0.026.192,0.051,0.29,0.075a6.48,6.48,0,0,0,2.026.852l4.16,0.968-3.424-2.536a6.088,6.088,0,0,0-2.028-.917c-0.287-.194-0.564-0.409-0.859-0.638a9.952,9.952,0,0,0-2.118-1.353A9.661,9.661,0,0,0,161.208,66c-0.39-.038-0.769-0.075-1.14-0.133l0-.893h-0.437c-0.448,0-.9,0-1.342.014l-0.713.019-0.134.694a4.57,4.57,0,0,0-.066.672c0.007-.475.024-0.954,0-1.418l-0.044-.876-0.886.037c-0.039,0-.142,0-0.111.014L155.5,63.9l-0.256.813c-0.069.218-.129,0.4-0.184,0.55a1.783,1.783,0,0,0-.346-0.01,1.844,1.844,0,0,0-1.072.413l-0.066-4.758c0.86,1.254,1.386,1.927,2.169,1.626a1.609,1.609,0,0,0,1.166-1.377c0.144-1.454-1.8-2.987-2.1-3.166-0.925-.562-0.923-0.617-0.873-1.513a11.985,11.985,0,0,0,.015-1.387l-0.084-.743-0.743-.092a2.542,2.542,0,0,0-.745,0l-0.71.109-0.045.709c-0.027.46-.027,0.934-0.026,1.4v0.218h-0.024a2.238,2.238,0,0,0-1.695.767l-1.233,1.469,1.928-.02a2.986,2.986,0,0,1,1.322.218l1.547,6.7c-0.05.044-.1,0.092-0.145,0.133a0.17,0.17,0,0,0-.019.02l-0.1-.194-1.137.46,0.428,0.283-0.157-.034L152,66.411a2.106,2.106,0,0,0-.072.663l0.045,0.7,0.691,0.119a2.259,2.259,0,0,0,.387.036,1.848,1.848,0,0,0,.771-0.166,4.316,4.316,0,0,0,1.532-.266,1.678,1.678,0,0,0,1.192.388l0.791-.051,0.041-.782c0-.08,0-0.159,0-0.237a6.137,6.137,0,0,0,.038.624l0.1,0.719,0.732,0.041c0.743,0.039,1.475.065,2.2,0.087,0.519,0.019,1.034.036,1.553,0.056v0.01c0.006,0.317.009,0.634,0.03,0.941l0.032,0.457-0.78-.038a30.144,30.144,0,0,0-4.243.184l-0.762.075-0.043.757a7.584,7.584,0,0,0,.007.976,2.06,2.06,0,0,0,.04.411,1.006,1.006,0,0,1-.275.124,1.867,1.867,0,0,1-.52-0.077,3.368,3.368,0,0,0-1.17-.109,2.445,2.445,0,0,0-2.033,1.067l-0.138.153a4.777,4.777,0,0,0-.8,1.648,3.432,3.432,0,0,1-.385.912,1.938,1.938,0,0,1-.595,0,3.249,3.249,0,0,0-1.289.087,2.031,2.031,0,0,0-1.6,2.36,4.846,4.846,0,0,1-.028.847,37.866,37.866,0,0,0-.436,7.234l0.044,0.787,0.8,0.046a8.426,8.426,0,0,0,3.15-.515c0.376-.118.765-0.24,1.2-0.341,0.29-.066.553-0.111,0.8-0.152a6.108,6.108,0,0,0,2.119-.659,1.729,1.729,0,0,0,.452-0.351,8.5,8.5,0,0,0,2.47,1.958A9.242,9.242,0,0,1,159.7,88.3a4.374,4.374,0,0,1,.873,2.609,9.9,9.9,0,0,0,.461,2.19l0.154,0.412,0.427,0.126a2.257,2.257,0,0,0,.632.1,1.685,1.685,0,0,0,.861-0.228,3.082,3.082,0,0,0,1.133-2.224c0.055-.267.141-0.69,0.168-0.84,1.622-.554,2.021-2.154,2.384-3.608l0.07-.276a6.375,6.375,0,0,1,1.375-2.4,6.546,6.546,0,0,0,1.747-3.8,5.753,5.753,0,0,0-1.664-3.949A9.85,9.85,0,0,1,167.276,74.886Zm-5.1-3.432,0.452-.525-0.006.218a4.3,4.3,0,0,1-.476,1.909c0-.29,0-0.579,0-0.869,0-.472,0-0.941-0.017-1.411Zm4.666,11.619a7.974,7.974,0,0,0-1.7,3.057l-0.072.279c-0.368,1.479-.581,2.18-1.313,2.4l-0.021-.048a1.867,1.867,0,0,0-.185.1,3.831,3.831,0,0,1-1.007-.007L162.351,90.6c0.072,0.008.144,0.014,0.213,0.019-0.023.107-.045,0.21-0.066,0.312s-0.041.211-.068,0.331c-0.031-.187-0.055-0.388-0.083-0.584a5.778,5.778,0,0,0-1.4-3.649,10.631,10.631,0,0,0-1.969-1.4,5.507,5.507,0,0,1-2.3-2.018l-0.211-.426L156,83.125a2.28,2.28,0,0,0-.294-0.019,1.611,1.611,0,0,0-1.435.878,4.3,4.3,0,0,1-1.553.463c-0.287.046-.588,0.1-0.918,0.175-0.475.109-.906,0.245-1.324,0.375a9.157,9.157,0,0,1-1.706.413,39.794,39.794,0,0,1,.459-6.052,6.986,6.986,0,0,0,.039-1.123,4.49,4.49,0,0,1,0-.46,1.055,1.055,0,0,1,.378-0.177,1.946,1.946,0,0,1,.586,0,2.39,2.39,0,0,0,1.936-.457,3.7,3.7,0,0,0,.88-1.674,3.7,3.7,0,0,1,.45-1.04l0.137-.16a0.942,0.942,0,0,1,.9-0.462,2.1,2.1,0,0,1,.578.082,2.732,2.732,0,0,0,1.444.032,1.931,1.931,0,0,0,1.467-2.308,0.118,0.118,0,0,1,0-.034c0.779-.065,1.574-0.119,2.348-0.123,0,0.24,0,.479,0,0.719,0,0.607-.009,1.215.032,1.813l0.03,0.474L160.84,74.7a1.955,1.955,0,0,0,2,.092,3.17,3.17,0,0,0,1.327-2,9.648,9.648,0,0,1,1.1,1.99c0.141,0.307.28,0.61,0.425,0.893a11.157,11.157,0,0,0,1.228,1.813,4.216,4.216,0,0,1,1.3,2.75A4.91,4.91,0,0,1,166.84,83.073Zm12.491,7.384c-0.037-.131-0.079-0.281-0.123-0.481a0.948,0.948,0,0,0-.315-0.489,1.389,1.389,0,0,0,.191-0.671,2.924,2.924,0,0,0-.8-2.362,1.831,1.831,0,0,0-1.544-.385l-0.495.082-0.185.463a10.645,10.645,0,0,0-.528,2.652,5.726,5.726,0,0,1-.8,2.952,5.91,5.91,0,0,1-1.378.866c-1.389.719-3.719,1.926-2.472,4.644l0.243,0.533,0.591-.014a2.19,2.19,0,0,0,2.171-1.932l-1.551-.187c0.107-.494.678-0.873,1.843-1.476,0.055-.032.112-0.061,0.17-0.089-0.23.174-.452,0.332-0.66,0.474l1.005,1.46a24,24,0,0,0,3.828-3.323C179.548,92.023,179.624,91.508,179.331,90.457ZM177.183,92c-0.179.193-.378,0.4-0.6,0.619a7.347,7.347,0,0,0,.6-2.246,2.416,2.416,0,0,0,.357.322c0.023,0.084.043,0.162,0.066,0.237a2.8,2.8,0,0,1,.089.378A2.315,2.315,0,0,1,177.183,92ZM55.577,54.56a5.6,5.6,0,0,1-1.056.257,3.464,3.464,0,0,1-1.889-.317,3.265,3.265,0,0,1-.675-0.6,2.818,2.818,0,0,0-2.531-1.145l0.217,1.755a1.125,1.125,0,0,1,1.016.6,4.709,4.709,0,0,0,1.084.924,5.02,5.02,0,0,0,2.436.562c0.2,0,.36-0.007.482-0.017a7.065,7.065,0,0,0,1.436-.327c1.186-.361,1.656-0.419,1.922-0.048l1.456-1.019C58.417,53.7,56.709,54.218,55.577,54.56ZM10.851,51.8a1.754,1.754,0,0,0-1.468.208l0.947,1.483a2.17,2.17,0,0,1,.954,1.094l1.626-.723A3.863,3.863,0,0,0,10.851,51.8ZM80.8,24.616a1.6,1.6,0,0,0,.311,1.762,2.559,2.559,0,0,0,1.915.954,2.063,2.063,0,0,0,.532-0.068c1.537-.416,1.941-1.367,1.805-2.12a2.487,2.487,0,0,0-2.768-1.707L82.74,25.2c0.04,0,.081,0,0.121,0,0.425,0,.7.184,0.767,0.114a1.209,1.209,0,0,1-.544.251,0.75,0.75,0,0,1-.66-0.4,0.425,0.425,0,0,1-.052.283,0.364,0.364,0,0,1-.053.075l0.107-1.641A1.53,1.53,0,0,0,80.8,24.616Zm90.131,4.3,0.877-1.537a0.212,0.212,0,0,1-.038-0.078l-1.7.511A1.811,1.811,0,0,0,170.927,28.921Zm4,0.535a1.2,1.2,0,0,1,.342.073l0.787-1.587a3.522,3.522,0,0,0-1.76-.232c-0.172-.106-0.357-0.2-0.524-0.3L172.8,28.889a20.941,20.941,0,0,0,1.859,1.075Zm-6.688-3.988L167.342,27a0.373,0.373,0,0,1,.194.235l1.7-.521A2.136,2.136,0,0,0,168.242,25.468ZM143.911,66.014a6.481,6.481,0,0,1-.583-0.392,4.644,4.644,0,0,1-.983-1.309c-0.124-.215-0.248-0.426-0.382-0.624,0.11,0.048.224,0.1,0.332,0.143a4.084,4.084,0,0,1,1.191.627l1.946,2.389L145.061,63.8a2.777,2.777,0,0,0-.894-1.612,1.9,1.9,0,0,1-.451-0.605,1.93,1.93,0,0,1-.068-0.492,2.18,2.18,0,0,0,1.933.738,2.621,2.621,0,0,0,1.65-1.847,3.7,3.7,0,0,0-.447-3.419l-0.18-.346c-0.053-.1-0.1-0.2-0.139-0.291a2.133,2.133,0,0,0,.532.068,1.406,1.406,0,0,0,1.454-1.166,10.039,10.039,0,0,1,1.044-.518,5.87,5.87,0,0,0,2.516-1.772c1.4-1.841,1.1-3.7.691-5.382l0.56,0.106a1.738,1.738,0,0,0,1.6-.412c0.021-.021.035-0.044,0.054-0.066a5,5,0,0,0-.061,1.556L155,49.78,156.23,49a4.825,4.825,0,0,0,1.356-1.466,2.955,2.955,0,0,1,.839-0.944,2.435,2.435,0,0,1,.806-0.15,2.569,2.569,0,0,0,2.582-1.656,4.4,4.4,0,0,0-.445-3.015A3.609,3.609,0,0,1,160.94,40a1.648,1.648,0,0,1,.57-0.7,3.9,3.9,0,0,0,1-1.2l-1.265-.61-0.185-.787a1.3,1.3,0,0,1-.863-0.191L161,36.5l-0.063-.922a10.529,10.529,0,0,0-1.207-3.448c-0.131-.271-0.258-0.532-0.37-0.777a4.721,4.721,0,0,1-.194-0.6,3.418,3.418,0,0,0-.844-1.677,2.855,2.855,0,0,0-1.629-.567,3.756,3.756,0,0,1-.76-0.147,15.979,15.979,0,0,1-1.612-.809c-0.079-.131-0.1-0.21-0.117-0.218a3.434,3.434,0,0,1,.963-0.436,6.09,6.09,0,0,0,.7-0.274,10.813,10.813,0,0,0,1.641-1.055,4.249,4.249,0,0,1,2.808-1.125l0.169,0c-0.2,1.568-.406,3.187.261,4.325a3.362,3.362,0,0,0,1.1,1.062,1.3,1.3,0,0,1,.639.642,5.739,5.739,0,0,1,.033,1.861,11.09,11.09,0,0,0-.049,1.481l0.294,4.405,1.762-5.1c0.383-1.08.741-2.1,1.047-3.258a8.233,8.233,0,0,1,.469-1.186,6.866,6.866,0,0,0,.717-2.236A3.831,3.831,0,0,0,166,24.068a3.868,3.868,0,0,1-.469-0.91,1.541,1.541,0,0,1-.031-0.337,1.114,1.114,0,0,0,.364.082h0.021c1.136,0,1.7-1.844,1.887-2.642a5.022,5.022,0,0,0,.1-0.816,3.318,3.318,0,0,1,.091-0.7,0.3,0.3,0,0,1,.244-0.126,1.67,1.67,0,0,0,.886-0.521,2.293,2.293,0,0,0,.684-1.65,1.849,1.849,0,0,0-.861-1.244,2.142,2.142,0,0,1-.518-0.492,2.215,2.215,0,0,1-.313-1.389,1.957,1.957,0,0,0,1.805-.724,2.523,2.523,0,0,0-.323-2.611A1.909,1.909,0,0,0,169.4,8.5a2.852,2.852,0,0,0-2.25-1.109c-0.649-.072-1.294-0.124-1.933-0.175-0.8-.065-1.586-0.129-2.348-0.23a13.293,13.293,0,0,0-6.239.9c-0.158.06-.347,0.141-0.558,0.234a4.526,4.526,0,0,1-1.628.511l-0.385-.764-0.78.349a3.663,3.663,0,0,1-2.834.224,7.826,7.826,0,0,0-2.645-.353c-0.193.009-.435,0.035-0.709,0.063a6.017,6.017,0,0,1-1.943.019,1.1,1.1,0,0,1-.085-0.288,1.6,1.6,0,0,0-1.127-1.364,0.986,0.986,0,0,1,.693-0.311,2.287,2.287,0,0,0,2.016-1.7l0.276-1.179-1.215.1a2.719,2.719,0,0,0-1.5.758,0.553,0.553,0,0,0-.234.252,1.816,1.816,0,0,1-.331-0.215,2.394,2.394,0,0,0-1.2-.535,7.863,7.863,0,0,0-4.466,1.574,1.43,1.43,0,0,0-.474,1.145l0.038,0.432,0.55,0.353c0.12,0.08.24,0.157,0.306,0.194l0.182,0.106L138.794,7.5c0.385,0.022.767,0.037,1.145,0.049,0.55,0.02,1.076.037,1.588,0.082,0.044,0.409.115,0.787,0.182,1.157a12.131,12.131,0,0,1,.2,1.335,7.089,7.089,0,0,1-2.121-.747,7.454,7.454,0,0,0-3.944-.656l-1.028.038L135,9.763a1.594,1.594,0,0,1-.019.321c-1.061-.073-2.056-0.911-3.18-1.855C130.087,6.791,127.959,5,125.2,6.482l-0.348.185-0.044.183L124.371,5.7l1.284-.638a2.315,2.315,0,0,0-2.566-1.177,2.854,2.854,0,0,1-.829-0.019,3.29,3.29,0,0,1-1.124-.653,3.674,3.674,0,0,0-3.1-.96l-0.7.123-0.039.7c-0.059,1.021-.181,3.148,1.652,4.028a6.437,6.437,0,0,0,2.517.383,11.553,11.553,0,0,0,3.3-.43,9.872,9.872,0,0,0-.179.982,1.681,1.681,0,0,0-1.175.239,1.712,1.712,0,0,0-.6,1.438,2.592,2.592,0,0,1-.188.989,11.355,11.355,0,0,1-1.5,1.558c0-.123,0-0.233,0-0.305l0.034-2.548-1.619,1.981a3.125,3.125,0,0,0-.467,2.445,2.281,2.281,0,0,0,.228.608h-0.225V14.332c-0.13,0-.271-0.009-0.419-0.019a2.606,2.606,0,0,0-2.68,1.019,3.821,3.821,0,0,0-.3,1.769,3.862,3.862,0,0,1-.089,1.016l-0.076.208c-0.017.044-.032,0.084-0.043,0.119-0.122.039-.278,0.1-0.483,0.177-0.184.073-.347,0.15-0.5,0.223a3.028,3.028,0,0,1-.472.2,11.056,11.056,0,0,1,.246-3.887l0.135-.8a5.1,5.1,0,0,1,.714-1.607,4.945,4.945,0,0,0,.945-3.146l-0.083-.656L115.3,8.84c-2.172-.363-3.123,1.465-3.743,2.676a9.6,9.6,0,0,1-.5.9l-0.249.368A8.083,8.083,0,0,0,109.27,16a4.93,4.93,0,0,0,1.616,4.274,0.052,0.052,0,0,0-.024.014,5.5,5.5,0,0,0-1.018.692,2.5,2.5,0,0,1-1.05.593,2,2,0,0,1-1.27.01,2.112,2.112,0,0,1-1-.7,4.769,4.769,0,0,0-1.112-.912,13.81,13.81,0,0,0-2.479-.965,7.383,7.383,0,0,0-5.871,1.047,7.264,7.264,0,0,0-3.477,4.656c-0.034.208-.053,0.419-0.076,0.631a2.017,2.017,0,0,1-.248,1.009,1.882,1.882,0,0,1-.679.511,2.91,2.91,0,0,0-.813,4.659,2.125,2.125,0,0,0,1.261.492,15.649,15.649,0,0,0-.143,2.057c0,0.072,0,.14,0,0.211a4.34,4.34,0,0,0-1.957.815,2.272,2.272,0,0,0-.4.453,4.111,4.111,0,0,0,.292-2.059l-0.106-.7L90,32.743c-0.255-.017-0.516-0.026-0.779-0.029,0.027-.218.069-0.457,0.117-0.73l-0.673-.061a0.758,0.758,0,0,1,.475-0.617L88.37,29.715A2.868,2.868,0,0,0,86.827,32.6a2.489,2.489,0,0,0-1.382.871,1.848,1.848,0,0,0-.175,1.99,1.207,1.207,0,0,0,1.03.765,1.478,1.478,0,0,0,1.251-.8,2.732,2.732,0,0,0,2.029.951L90.01,36.4a1.371,1.371,0,0,1-.1.16,3.65,3.65,0,0,1-.87.358,2.7,2.7,0,0,0-1.881,1.264,1.573,1.573,0,0,0,.107,1.367,2.125,2.125,0,0,0,1.369,1,0.587,0.587,0,0,0,.233.048,0.581,0.581,0,0,1-.213.163,6.25,6.25,0,0,1-1.924.218,9.423,9.423,0,0,0-1.715.135l-0.662.145-0.074,1.22c-0.12,1.44-.284,3.415.89,4.211a2.5,2.5,0,0,0,.984.322,4.489,4.489,0,0,1-.687,1.223,19.362,19.362,0,0,1-1.733,1.513,0.552,0.552,0,0,1-.379.061,1.811,1.811,0,0,0-1.672.751,5.356,5.356,0,0,0-.75,3.079c-0.01.245-.021,0.472-0.04,0.661l-0.072.668a13.339,13.339,0,0,0-.072,3.644,5.514,5.514,0,0,0,2.514,3.548,9.092,9.092,0,0,0,5.45,1.643c0.458,0.017.945-.01,1.451-0.041a4.4,4.4,0,0,1,2.757.348,1.105,1.105,0,0,1,.375,1.009,3.071,3.071,0,0,0,.375,1.5,2.356,2.356,0,0,0,1.44,1.026,1.141,1.141,0,0,1,.457.206c0.505,0.489.629,1.752,0.337,3.373a16.576,16.576,0,0,0-.337,5.522l0.041,0.31a5.482,5.482,0,0,0,.49,1.878,3.41,3.41,0,0,0,.923,1.137,3.37,3.37,0,0,1,.478.475,3.53,3.53,0,0,1,.478,2.42l-0.007.576h0.89l0,1.029a13.078,13.078,0,0,1,1.437.135,18.165,18.165,0,0,0,2.17.182,4.356,4.356,0,0,0,1.636-.263,6.439,6.439,0,0,0,2.338-2.341c0.194-.273.373-0.521,0.531-0.709a11.044,11.044,0,0,0,2.119-4.019,3.577,3.577,0,0,0,.029-1.128,1.419,1.419,0,0,1,.018-0.641,1.6,1.6,0,0,1,.5-0.136,2.4,2.4,0,0,0,1.059-.385c1.591-1.2,1.344-3.142,1.141-4.707-0.144-1.149-.285-2.232.213-2.822a2.3,2.3,0,0,1,1.207-.651,3.128,3.128,0,0,0,2.337-1.936A7.736,7.736,0,0,0,116,62.892a8.1,8.1,0,0,1,.208-1.5l-0.656-.184,0.393-.671c-0.184-.108-0.392-0.244-0.591-0.373a7.555,7.555,0,0,0,3.334-.949,5.8,5.8,0,0,0,2.609-3.16,3.133,3.133,0,0,0,.2-2.582c0.169,0.012.27,0.019,0.536,0.019l0.647-.007c1.161-.022,1.172-0.024,1.691.91l0.22,0.389a15.342,15.342,0,0,1,.8,1.551,5.244,5.244,0,0,0,1.636,2.353,14.048,14.048,0,0,1,1.051,1.186,14.491,14.491,0,0,0,1.352,1.491,7.206,7.206,0,0,1,.693.78,2.459,2.459,0,0,0,1.708,1.2,2.048,2.048,0,0,0,1.547-.723c1.587-1.582.777-3.218,0.292-4.2a2.25,2.25,0,0,1-.368-1.1,1.92,1.92,0,0,1,1.166-.689l0.528-.187,0.06-.552a0.66,0.66,0,0,1,.328-0.639,2.008,2.008,0,0,1,1.653.325,1.438,1.438,0,0,1,.658,1.026,3.378,3.378,0,0,0,.944,1.663,3.039,3.039,0,0,0,.983.607,1.385,1.385,0,0,1,.136.371,3.037,3.037,0,0,1-.053.862,3.1,3.1,0,0,0,.172,2.038,3.286,3.286,0,0,0,1.433,1.23l-0.8.855-0.9.249c0.653,2.36,2.472,3.534,4.074,4.574l1.753,1.169,0.328-1.2C146.183,67.456,144.758,66.556,143.911,66.014Zm-24.183-60.5a1.521,1.521,0,0,1-.668-1.492,3.273,3.273,0,0,1,.993.6,4.861,4.861,0,0,0,1.753.956,3.136,3.136,0,0,0,.781.1A7.686,7.686,0,0,1,119.728,5.513Zm32.74,40.7c-0.041-.165-0.1-0.383-0.179-0.63a15.215,15.215,0,0,1-.446-1.873,3.14,3.14,0,0,1,.4.55,5.652,5.652,0,0,1,.248,1.551c0.017,0.239.034,0.467,0.055,0.678l0.01,0.066Zm5.753-4.785a7.135,7.135,0,0,0-.611,1.384c-0.1.326-.158,0.583-0.211,0.794a1.3,1.3,0,0,1-.813,1.053,5.654,5.654,0,0,0-1.114.975,12.03,12.03,0,0,0-.161-3.739,9.621,9.621,0,0,1-.152-1.385,0.64,0.64,0,0,1,.549-0.658,3.636,3.636,0,0,0,1.366-.97,7.743,7.743,0,0,0,1.117-2.171l0.38-.049c0.036,0,.076,0,0.112-0.008l-0.062.358a5.656,5.656,0,0,0,.069,1.844,4.347,4.347,0,0,1,.086,1.15A4.14,4.14,0,0,1,158.221,41.43Zm1.9,2.792c-0.1.307-.207,0.38-1.052,0.455-0.043.005-.086,0.009-0.131,0.012a5.308,5.308,0,0,0,.193-0.661c0.048-.191.108-0.426,0.192-0.722a4.6,4.6,0,0,1,.385-0.885A3.276,3.276,0,0,1,160.12,44.221ZM140.65,5.808a4.913,4.913,0,0,1,1.63-.365,0.891,0.891,0,0,1,.17.1,1.9,1.9,0,0,0-.184.389C141.726,5.865,141.185,5.831,140.65,5.808Zm-29.613,10.43a6.81,6.81,0,0,1,1.248-2.475l0.258-.38a11.194,11.194,0,0,0,.6-1.069,5.628,5.628,0,0,1,.943-1.471,9.375,9.375,0,0,1-.539,1.022,6.463,6.463,0,0,0-.932,2.221l-0.129.758a13.689,13.689,0,0,0-.3,4.233A3.209,3.209,0,0,1,111.037,16.239ZM95.742,45.825l0-.441c-0.55,0-1.076-.038-1.6-0.072-0.571-.038-1.126-0.053-1.724-0.075-0.162,0-.339.022-0.505,0.031,0.093-.106.2-0.2,0.289-0.309l0.26-.293a3.814,3.814,0,0,0,.66-1.1c0.036-.082.069-0.157,0.106-0.23a0.058,0.058,0,0,1,.007.012,2.534,2.534,0,0,0,1.44,1.222L95.713,44.8l0.036-.7a4.46,4.46,0,0,0,1.09.88,5.49,5.49,0,0,0,1.966.542,5.219,5.219,0,0,1,1.036.208,4.829,4.829,0,0,1,1.04.624c0.236,0.167.476,0.337,0.736,0.491a8.523,8.523,0,0,0-1.735-.123l-0.471.017-0.251.4a2.742,2.742,0,0,0-.261.545,4.047,4.047,0,0,1-1.858-.651,1.973,1.973,0,0,1-.05-0.784c0.005-.147.014-0.29,0.014-0.429H95.742v0Zm-8.36,1.247L87.4,47.1l-0.072-.025C87.342,47.074,87.364,47.072,87.383,47.072Zm52.906,10.177a1.439,1.439,0,0,1-.457-0.293,1.734,1.734,0,0,1-.443-0.873,3.132,3.132,0,0,0-1.437-2.019,3.632,3.632,0,0,0-3.369-.4,2.32,2.32,0,0,0-1.206,1.488,2.979,2.979,0,0,0-1.74,1.5,3.013,3.013,0,0,0,.423,2.541c0.543,1.1.677,1.539,0.043,2.168-0.082.084-.144,0.133-0.173,0.169-0.114-.107-0.289-0.329-0.423-0.492a9.037,9.037,0,0,0-.872-0.978,12.794,12.794,0,0,1-1.186-1.316,17.51,17.51,0,0,0-1.235-1.384,3.506,3.506,0,0,1-1.186-1.716,16.5,16.5,0,0,0-.89-1.73l-0.21-.382c-0.995-1.793-1.715-1.851-3.29-1.824l-0.615.007H122a5.12,5.12,0,0,1-2.732-.856c-0.346-.184-0.712-0.38-1.131-0.576-0.145-.068-0.286-0.14-0.416-0.215-0.219-.208-0.457-0.416-0.688-0.617a8.167,8.167,0,0,1-.7-0.653l-1.414,1.069a5.477,5.477,0,0,0,1.706,1.609,1.189,1.189,0,0,1,.088.092,1.134,1.134,0,0,1,.2.351,2.462,2.462,0,0,0,.874,1.138,8.357,8.357,0,0,0,1.414.791c0.882,0.413.882,0.413,0.433,1.551a3.945,3.945,0,0,1-1.8,2.25c-2.334,1.261-4.524.934-6.157-.912A5.623,5.623,0,0,1,111,55.663a8.977,8.977,0,0,0-.742-1.23c-0.187-.249-0.407-0.508-0.641-0.774-0.688-.8-1.4-1.626-1.269-2.381l-1.758-.3c-0.27,1.573.806,2.824,1.672,3.829,0.2,0.235.4,0.465,0.568,0.683a7.8,7.8,0,0,1,.591.99,6.994,6.994,0,0,0,.909,1.425,6.869,6.869,0,0,0,2.052,1.585l-0.27.878a9.27,9.27,0,0,1,1.973,1.086c0.09,0.058.172,0.106,0.258,0.163-0.058.378-.1,0.757-0.129,1.128a6.386,6.386,0,0,1-.294,1.76,1.425,1.425,0,0,1-1.206.891,3.885,3.885,0,0,0-2.045,1.2c-0.994,1.181-.791,2.773-0.612,4.177,0.2,1.556.266,2.538-.416,3.054a2.251,2.251,0,0,1-.337.077,2.344,2.344,0,0,0-1.65.879,2.6,2.6,0,0,0-.323,1.791,2.541,2.541,0,0,1,.01.6,9.32,9.32,0,0,1-1.746,3.262c-0.182.215-.392,0.5-0.617,0.821a6.1,6.1,0,0,1-1.566,1.73,7.494,7.494,0,0,1-2.9-.039c-0.262-.036-0.513-0.065-0.757-0.089a4.931,4.931,0,0,0-.863-3.412,4.847,4.847,0,0,0-.7-0.709,1.659,1.659,0,0,1-.5-0.6,3.869,3.869,0,0,1-.323-1.316L97.329,76.5a14.969,14.969,0,0,1,.326-4.968c0.289-1.6.378-3.756-.842-4.945a2.724,2.724,0,0,0-1.155-.625,0.649,0.649,0,0,1-.46-0.251,1.539,1.539,0,0,1-.126-0.7,2.8,2.8,0,0,0-1.047-2.292c-1.134-.9-2.641-0.811-3.973-0.726a11.99,11.99,0,0,1-1.267.036,7.306,7.306,0,0,1-4.459-1.29A3.77,3.77,0,0,1,82.5,58.3a12.138,12.138,0,0,1,.088-3.143l0.074-.69c0.022-.216.033-0.476,0.046-0.758a4.915,4.915,0,0,1,.35-2.038l-0.692-.559,0.9,0.455a2.357,2.357,0,0,0,1.3-.271A16.589,16.589,0,0,0,86.8,49.4a5.679,5.679,0,0,0,.933-1.576l0.059,0.126a12.325,12.325,0,0,1,4.626-.947c0.484,0,1.076.034,1.605,0.072,0.4,0.027.8,0.041,1.2,0.055a2.073,2.073,0,0,0,.385.968c0.746,0.993,2.8,1.35,3.955,1.472l1.069,0.112-0.085-1.06c0-.043,0-0.085,0-0.121a13.834,13.834,0,0,1,2.124.373,7.714,7.714,0,0,0,4.558.1c1.044-.389,1.516-0.941,1.41-1.636-0.244-1.541-3.647-1.726-3.8-1.733-0.258-.012-0.516-0.005-0.77,0a3.164,3.164,0,0,1-1.262-.123,5.459,5.459,0,0,1-.9-0.559,6.152,6.152,0,0,0-1.461-.845,6.526,6.526,0,0,0-1.413-.3,3.944,3.944,0,0,1-1.361-.346,6.815,6.815,0,0,1-1.97-2.469L94.259,38l-0.241,3.282c-0.007.085-.01,0.172-0.014,0.259a1.311,1.311,0,0,0-.746-0.262,1.473,1.473,0,0,0-1.279.7,3.82,3.82,0,0,0-.5.893,2.17,2.17,0,0,1-.349.617l-0.278.314a4.648,4.648,0,0,1-1.211,1.108,7.543,7.543,0,0,1-3.466.326c-0.294-.288-0.193-1.795-0.14-2.468,0.229-.012.481-0.019,0.728-0.026a6.53,6.53,0,0,0,2.71-.416,1.852,1.852,0,0,0,.979-2.517,1.893,1.893,0,0,0-1.276-.943c-0.052-.019-0.118-0.037-0.18-0.065,0.183-.075.423-0.153,0.591-0.208a3.829,3.829,0,0,0,1.586-.8,3.564,3.564,0,0,0,.6-0.883,1.7,1.7,0,0,1,.308-0.472,3.244,3.244,0,0,1,1.26-.452c0.227-.048.447-0.1,0.656-0.157l0.612-.177,0.031-.63c0.017-.312.024-0.615,0.031-0.914a15.292,15.292,0,0,1,.1-1.68c0.186-.031.354-0.072,0.512-0.106,0.052-.014.1-0.024,0.15-0.036a5.8,5.8,0,0,0,.362.881,4.729,4.729,0,0,1,.258.61l0.137,0.44,0.444,0.14c1.356,0.436,2.267-.627,2.808-1.258a4.708,4.708,0,0,1,.478-0.511l0.337-.269a2.177,2.177,0,0,0,.974-2.342c-0.029-.641-0.017-1.264-0.008-1.89,0.01-.649.019-1.3-0.007-1.956l-0.038-.9-0.911.058c-1.42.092-1.952,1.626-2.423,2.979a5.168,5.168,0,0,1-.818,1.752,1.168,1.168,0,0,1-.251-0.184,2.135,2.135,0,0,0-1.133-.573,1.714,1.714,0,0,0-1.815.712,0.357,0.357,0,0,1-.131.14,0.843,0.843,0,0,1-.778.058,1.061,1.061,0,0,1-.141-1.063,1.013,1.013,0,0,1,.674-0.7,3.567,3.567,0,0,0,1.234-.992,3.53,3.53,0,0,0,.6-1.905c0.014-.167.031-0.334,0.058-0.5a5.458,5.458,0,0,1,2.66-3.454,5.72,5.72,0,0,1,4.427-.85,12.523,12.523,0,0,1,2.092.8,3.238,3.238,0,0,1,.717.608,3.8,3.8,0,0,0,1.792,1.167,3.75,3.75,0,0,0,2.183.007,4.1,4.1,0,0,0,1.748-.941,4.064,4.064,0,0,1,.7-0.487,1.576,1.576,0,0,1,.564-0.1,3.153,3.153,0,0,0,1.04-.2l1.6-.663-0.3-.186a5.8,5.8,0,0,0,.656-0.271c0.124-.06.258-0.121,0.406-0.182,0.185-.075.323-0.119,0.424-0.153a1.5,1.5,0,0,0,1.105-1.176l0.073-.194a4.79,4.79,0,0,0,.2-1.6,4.1,4.1,0,0,1,.081-0.944,1.656,1.656,0,0,1,1.025-.107c0.029,0,.053,0,0.082,0l0,0.135,0.486-.005a12.367,12.367,0,0,0,1.387-.061l0.66-.085,0.105-.649a3.607,3.607,0,0,0,.015-1.159,9.386,9.386,0,0,0,2.94-2.78,4.251,4.251,0,0,0,.367-1.649c0.115,0.023.272,0.061,0.476,0.12l0.923,0.266,0.2-.932c0.062-.293.105-0.591,0.148-0.892,0.026-.174.048-0.348,0.077-0.521,1.428-.553,2.568.305,4.237,1.707,1.5,1.26,3.2,2.691,5.388,2.176l0.8-.188-0.127-.809a1.376,1.376,0,0,1,.015-0.282,4.855,4.855,0,0,1,2.295.5,6.949,6.949,0,0,0,3.877.919l0.76-.077,0.039-.754a9.047,9.047,0,0,0-.144-2.108,1.785,1.785,0,0,0,.5.606c0.773,0.607,2.136.464,3.233,0.348,0.234-.025.443-0.047,0.606-0.055a5.947,5.947,0,0,1,2.1.295,5.331,5.331,0,0,0,3.4-.073c1,0.723,2.574.022,3.406-.344,0.176-.077.332-0.147,0.461-0.2a11.491,11.491,0,0,1,5.371-.8c0.79,0.106,1.608.173,2.442,0.239,0.622,0.051,1.251.1,1.879,0.171a1.311,1.311,0,0,1,.9.221,0.853,0.853,0,0,1-.112.426l-0.222.586,0.445,0.428a1.992,1.992,0,0,1,.365.735c-0.164.01-.391,0-0.542,0a4.933,4.933,0,0,0-.624,0l-0.8.047-0.047.977a4.686,4.686,0,0,0,.578,3.121,3.793,3.793,0,0,0,.911.913c0.034,0.024.07,0.055,0.106,0.082a2.2,2.2,0,0,1-.233.249,2.014,2.014,0,0,0-1.248.895,3.177,3.177,0,0,0-.347,1.515,3.883,3.883,0,0,1-.052.523,6.189,6.189,0,0,1-.227.683l-0.278-.017a0.547,0.547,0,0,1,.249.1c0,0.01-.009.024-0.014,0.036l-0.438.2-1.382-.174c-0.027.225-.07,0.438-0.11,0.651a4.672,4.672,0,0,0-.02,2.321,5.225,5.225,0,0,0,.666,1.35,2.237,2.237,0,0,1,.509,1.328,5.861,5.861,0,0,1-.567,1.641,11.253,11.253,0,0,0-.536,1.346,3.6,3.6,0,0,0-1.021-.932,1.866,1.866,0,0,1-.571-0.493c-0.368-.627-0.187-2.018-0.031-3.239a12.077,12.077,0,0,0,.151-3.069l-0.037-.28-0.193-.206a3.958,3.958,0,0,0-1.488-.97l-1.117-.4L159.5,20.9c-0.027.457-.027,0.919-0.027,1.384v0.443a6.329,6.329,0,0,0-3.027,1.428,9.137,9.137,0,0,1-1.373.893,5.121,5.121,0,0,1-.5.187,2.969,2.969,0,0,0-2.052,1.5,1.972,1.972,0,0,0,.261,1.732c0.416,0.7,2.48,1.544,2.5,1.554a4.939,4.939,0,0,0,1.167.251,3.579,3.579,0,0,1,.658.121,2.745,2.745,0,0,1,.337.856,6.008,6.008,0,0,0,.282.835c0.115,0.256.249,0.532,0.386,0.818,0.225,0.47.468,0.971,0.662,1.455a2.144,2.144,0,0,0-.687-0.5l-1.369-.644,0.1,1.5a6.888,6.888,0,0,1-1.108,3.037,1.977,1.977,0,0,1-.762.511,2.329,2.329,0,0,0-1.564,1.99,7.516,7.516,0,0,0,.151,1.909c0.036,0.254.09,0.637,0.141,1.056a7.606,7.606,0,0,0-.591-0.764,4.175,4.175,0,0,1-.66-0.925l-0.326-.779-0.8.288c-2,.721-1.174,3.536-0.731,5.053,0.066,0.218.119,0.406,0.157,0.552l0.11,0.457c0.429,1.7.764,3.037-.262,4.383a4.152,4.152,0,0,1-1.825,1.227,10.768,10.768,0,0,0-1.227.619,1.522,1.522,0,0,0-.3.225l0.069-.387-1.121.058a1.767,1.767,0,0,0-1.543.838c-0.409.7-.287,1.668,0.371,2.96l0.193,0.37a2.027,2.027,0,0,1,.354,1.98c-0.175.471-.318,0.661-0.325,0.718a4.584,4.584,0,0,1-.765-0.66,4.418,4.418,0,0,0-1.244-.978l-1.176-.518-0.117,1.759a8.417,8.417,0,0,0-.013,2.025,1.354,1.354,0,0,1-.507-0.443,2.79,2.79,0,0,1,.043-0.912,3.856,3.856,0,0,0,.01-1.583A1.937,1.937,0,0,0,140.289,57.249ZM104.1,47.374h0.02c0.214-.007.425-0.014,0.636,0a7.446,7.446,0,0,1,1,.133A6.038,6.038,0,0,1,104.1,47.374ZM97.147,31.782c1.287-.054,1.856-1.426,2.293-2.66,0,0.307,0,.617.017,0.929a4.775,4.775,0,0,1,0,.632,2.912,2.912,0,0,1-.294.246l-0.382.3a6.36,6.36,0,0,0-.693.726,4.744,4.744,0,0,1-.6.622c-0.026-.056-0.055-0.111-0.081-0.169A4.557,4.557,0,0,1,97.147,31.782Zm51.315,39.335a8.226,8.226,0,0,1,1.244-.274,11.187,11.187,0,0,0,2.946.532A2.151,2.151,0,0,0,154.957,70l0.378-1.1-1.171-.068a25.593,25.593,0,0,0-4.312.2c-0.276-.082-0.574-0.172-0.9-0.274a13.353,13.353,0,0,0-2-.537l-0.216,1.754a11.731,11.731,0,0,1,1.481.406Zm-0.1-3.773,0.592-.015c1.223-.01,2.488-0.017,2.791-2.219a2.141,2.141,0,0,0-1.532-2.751L150,63.093l-0.685-.63a2.989,2.989,0,0,1-1.155.477c-0.941.261-2.362,0.658-2.5,2.253a1.954,1.954,0,0,0,.459,1.6,2.25,2.25,0,0,0,1.724.568C148.013,67.358,148.192,67.352,148.36,67.345Zm-0.93-2c0.03-.312.246-0.436,1.212-0.706a6.463,6.463,0,0,0,1.327-.486,0.165,0.165,0,0,1,.033.026,1.805,1.805,0,0,1-.026.694,1.735,1.735,0,0,1-.155.626,4.313,4.313,0,0,1-1.055.065l-0.478.014c-0.292.014-.784,0.032-0.849,0.039A0.646,0.646,0,0,1,147.43,65.346Zm23.813,1.53a4.665,4.665,0,0,0-2.408-.576v0.75l-0.014,0,0.014,0.079,0,0.937c0.06,0,.118,0,0.179,0l0.134,0.718a4.768,4.768,0,0,1,2.1.625,1.983,1.983,0,0,0,1.428.722c0.036,0,.078,0,0.116,0l2.478-.176-2.025-1.426a8.657,8.657,0,0,0-.868-0.52c-0.053-.063-0.108-0.128-0.151-0.182A4.1,4.1,0,0,0,171.243,66.876Zm4.455,8.049,1.176-.339-0.048-1.358a1.214,1.214,0,0,0-.958.476A1.352,1.352,0,0,0,175.7,74.925Zm-1.09,1.263,0.3,1.51,1.382-.791A1.539,1.539,0,0,0,174.608,76.188ZM110.525,40.675l-0.717.019a9.353,9.353,0,0,1-2.423-.331c-0.47-.1-0.933-0.2-1.4-0.273l0.068-.279a2.025,2.025,0,0,0-1.987.324,1.459,1.459,0,0,0-.384,1.416l0.137,0.7,0.722,0.01a6.714,6.714,0,0,1,2.183.687,7.288,7.288,0,0,0,2.75.8A2.649,2.649,0,0,0,110,43.7l0.541-.106,0.146-.525a3.95,3.95,0,0,0,.007-1.7Zm5.512,0.566c-0.062-.039-0.146-0.1-0.164-0.059-0.01-.152.014-0.458,0.024-0.617,0.016-.2.028-0.375,0.025-0.489l-0.023-.738-0.739-.109a3.646,3.646,0,0,0-.772-0.027l0.031,0.377-1.275-.077a1.635,1.635,0,0,0-.765,1.254,2.63,2.63,0,0,0,.934,1.934l0.172,0.186c0.2,0.225.384,0.412,0.556,0.583a1.322,1.322,0,0,1,.6,1.3l-0.1,2.106,1.585-1.409a2.7,2.7,0,0,0,.622-3.523A1.762,1.762,0,0,0,116.037,41.24ZM63.169,94.3l-0.035.119-0.623-.542a1.443,1.443,0,0,0-.44,1.51l0.136,0.481L62.691,96a4.911,4.911,0,0,0,1.3.218,2.6,2.6,0,0,0,.379-0.027l-0.257-1.748A2.694,2.694,0,0,1,63.169,94.3ZM55.237,22.227a1.66,1.66,0,0,0,.6,1.663l-0.03.037,0.371,0.283a6.214,6.214,0,0,0,.588.451l0.451,0.346a15.335,15.335,0,0,1,3.022-1.915l2.566-.826-2.556-.854a4.571,4.571,0,0,0-1.165-.211c-0.055-.119-0.115-0.239-0.173-0.358a3.162,3.162,0,0,1-.282-0.671l-0.413-2.2-1.214,1.89a6.763,6.763,0,0,0-.739,1.634A1.159,1.159,0,0,0,55.237,22.227Zm0.669-3.739a4.122,4.122,0,0,1-.272-2.679l-1.5-.954c-0.7,1.089-.461,4.1.633,4.99Zm-4.734-3.909V14.27l0-.632V13.619l-1.783.01c0,0.216-.02.465-0.037,0.731-0.075,1.082-.16,2.309.57,3.071a1.74,1.74,0,0,0,.59.4l-0.127.569a3.407,3.407,0,0,0,.72.084,1.807,1.807,0,0,0,1.473-.629,1.787,1.787,0,0,0,.15-1.919A2.669,2.669,0,0,0,51.172,14.579ZM67.685,6.314a4.231,4.231,0,0,1-1.921.777l0.229,1.752a5.945,5.945,0,0,0,2.642-1.032,10.375,10.375,0,0,1,.915-0.528L68.743,5.706C68.337,5.91,68,6.119,67.685,6.314ZM61.409,38.567c0.021,0.07.044,0.138,0.07,0.206l0.222-.082a1.762,1.762,0,0,0,.721.056l-0.04-.31,0.766-.286a2.107,2.107,0,0,1-.021-1.244l0.229-.98-1.009-.1a1.534,1.534,0,0,0-1.494.682A1.479,1.479,0,0,0,61.409,38.567Z"/>
</svg>
