<svg xmlns="http://www.w3.org/2000/svg" width="40" height="40" viewBox="0 0 40 40">
  <defs>
    <style>
      .cls-1 {
        fill: #fff;
      }

      .cls-2 {
        fill: #555;
        fill-rule: evenodd;
      }
    </style>
  </defs>
  <circle id="w" class="cls-1" cx="20" cy="20" r="11"/>
  <path id="b" class="cls-2" d="M20,8A12,12,0,1,0,32,20,12,12,0,0,0,20,8ZM9.924,20a10.045,10.045,0,0,1,1.825-5.764,5.632,5.632,0,0,0,1.521,3.543c1.347,1.615,2.76,2.29,4.983,3.636s1.884,1.951,1.344,2.558-1.816,2.825.2,4.038c1.555,0.931,1.82,1.008,1.55,1.816-0.02.059-.041,0.1-0.062,0.156A10,10,0,0,1,9.924,20Zm14.565,9.006a12.2,12.2,0,0,0,1.366-2.745c0.945-2.624,1.414-6.057-.4-5.653-1.6.355-3.567,0.74-4.511,0.874s-2.086-.808-3.364-1.48-2.019-1.818-1.011-2.558,3.029,1.818,3.7,1.01,0.2-1.55,1.076-3.3,0.958-1.429,1.616-2.894a2.282,2.282,0,0,0,.06-1.87A10.063,10.063,0,0,1,24.489,29.006Z"/>
</svg>
