<svg xmlns="http://www.w3.org/2000/svg" width="40" height="40" viewBox="0 0 40 40">
  <metadata><?xpacket begin="﻿" id="W5M0MpCehiHzreSzNTczkc9d"?>
<x:xmpmeta xmlns:x="adobe:ns:meta/" x:xmptk="Adobe XMP Core 5.6-c138 79.159824, 2016/09/14-01:09:01        ">
   <rdf:RDF xmlns:rdf="http://www.w3.org/1999/02/22-rdf-syntax-ns#">
      <rdf:Description rdf:about=""/>
   </rdf:RDF>
</x:xmpmeta>
                                                                                                    
                                                                                                    
                                                                                                    
                                                                                                    
                                                                                                    
                                                                                                    
                                                                                                    
                                                                                                    
                                                                                                    
                                                                                                    
                                                                                                    
                                                                                                    
                                                                                                    
                                                                                                    
                                                                                                    
                                                                                                    
                                                                                                    
                                                                                                    
                                                                                                    
                                                                                                    
                           
<?xpacket end="w"?></metadata>
<defs>
    <style>
      .cls-1 {
        fill: #fff;
      }

      .cls-1, .cls-2 {
        fill-rule: evenodd;
      }

      .cls-2 {
        fill: #555;
      }
    </style>
  </defs>
  <path id="w" class="cls-1" d="M15,11l4,5-1,2,4,4,2-1,3,2,2,2-1,2-2,2-5-1-5-4-4-5-1-3,1-3Z"/>
  <path id="b" class="cls-2" d="M33.048,20.994l-1.508.018a0.985,0.985,0,0,1-.99-0.979V19.989a0.985,0.985,0,0,1,.955-1.013l1.508-.018a0.984,0.984,0,0,1,.989.979v0.044A0.985,0.985,0,0,1,33.048,20.994Zm-0.626-6.929-1.3.775a0.977,0.977,0,0,1-1.343-.35l-0.022-.038a0.992,0.992,0,0,1,.325-1.358l1.3-.775a0.977,0.977,0,0,1,1.343.349l0.023,0.038A0.992,0.992,0,0,1,32.422,14.065Zm-2.66,11.822-0.029.086a5.249,5.249,0,0,1-1.483,2.3A5.343,5.343,0,0,1,24.344,30a8.148,8.148,0,0,1-3.2-.754A23.449,23.449,0,0,1,15.1,24.849a23.422,23.422,0,0,1-4.395-6.042c-1.255-2.929-.946-5.187.973-7.106a5.242,5.242,0,0,1,2.3-1.483l0.087-.03a3.228,3.228,0,0,1,1.08-.213,2.535,2.535,0,0,1,2.047,1.075c0.235,0.3.868,1.237,1.953,2.857,0.2,0.293.35,0.522,0.419,0.624a2.588,2.588,0,0,1,.423,2.111A2.555,2.555,0,0,1,18.98,18.1c0.442,0.455.954,0.969,1.418,1.422l0.018,0.017,0.017,0.018c0.453,0.464.967,0.977,1.423,1.418A2.516,2.516,0,0,1,23.9,19.893a2.674,2.674,0,0,1,1.522.494c0.1,0.07.332,0.224,0.627,0.421,1.618,1.084,2.552,1.716,2.853,1.95A2.577,2.577,0,0,1,29.762,25.887ZM27.65,24.368c-0.4-.313-2.956-2.009-3.377-2.3a0.686,0.686,0,0,0-.375-0.141,0.625,0.625,0,0,0-.511.426c-0.3.565-.86,1.448-1.3,1.448a0.3,0.3,0,0,1-.145-0.037,36.2,36.2,0,0,1-2.971-2.792A36.235,36.235,0,0,1,16.183,18c-0.244-.448.781-1.111,1.411-1.441,0.451-.237.54-0.51,0.285-0.886-0.287-.421-1.984-2.975-2.3-3.377a0.557,0.557,0,0,0-.438-0.288,1.915,1.915,0,0,0-.522.138,3.285,3.285,0,0,0-1.5.991C12.04,14.222,11.5,15.483,12.581,18a22.037,22.037,0,0,0,9.366,9.366,6.182,6.182,0,0,0,2.4.589,3.324,3.324,0,0,0,2.465-1.13,3.291,3.291,0,0,0,.991-1.5C27.962,24.845,28.056,24.683,27.65,24.368ZM26.743,9.393a0.978,0.978,0,0,1-1.337.374l-0.038-.022a0.991,0.991,0,0,1-.393-1.339L25.714,7.08a0.977,0.977,0,0,1,1.336-.374l0.038,0.022a0.992,0.992,0,0,1,.393,1.34ZM18.95,8.476H18.907a0.985,0.985,0,0,1-.964-1l0.031-1.519A0.984,0.984,0,0,1,18.987,5h0.044a0.984,0.984,0,0,1,.963,1L19.964,7.522A0.984,0.984,0,0,1,18.95,8.476Z"/>
</svg>
