<svg xmlns="http://www.w3.org/2000/svg" width="40" height="40" viewBox="0 0 40 40">
  <defs>
    <style>
      .cls-1 {
        fill: #fff;
      }

      .cls-2 {
        fill: #555;
        fill-rule: evenodd;
      }
    </style>
  </defs>
  <circle id="w" class="cls-1" cx="20" cy="20" r="11"/>
  <path id="b" class="cls-2" d="M20,32A12,12,0,1,1,32,20,12,12,0,0,1,20,32Zm0-22A10,10,0,1,0,30,20,10,10,0,0,0,20,10Zm3.439,7.446a1.194,1.194,0,0,1-.768.041,0.962,0.962,0,0,1-.577-0.417A2.535,2.535,0,0,0,20,15.882c-1.231,0-2,.631-2,1.647a0.925,0.925,0,0,0,.544.968,7.362,7.362,0,0,0,1.179.5l0.7,0.262,0.594,0.218a8.584,8.584,0,0,1,1.607.7,2.631,2.631,0,0,1,1.358,2.3A3.382,3.382,0,0,1,21,25.655v0.522a0.754,0.754,0,0,1-.292.582A1.107,1.107,0,0,1,20,27a0.925,0.925,0,0,1-1-.823V25.628a4.574,4.574,0,0,1-2.9-1.976,0.71,0.71,0,0,1-.1-0.365,0.829,0.829,0,0,1,.56-0.745,1.191,1.191,0,0,1,.768-0.042,0.963,0.963,0,0,1,.578.417A2.544,2.544,0,0,0,20,24.118a1.71,1.71,0,0,0,1.995-1.647,0.951,0.951,0,0,0-.544-0.98,6.754,6.754,0,0,0-1.127-.467l-1.352-.5a8.6,8.6,0,0,1-1.606-.7,2.631,2.631,0,0,1-1.358-2.3A3.382,3.382,0,0,1,19,14.345V13.824a1.018,1.018,0,0,1,2,0v0.548a4.548,4.548,0,0,1,2.9,1.965,0.711,0.711,0,0,1,.1.364A0.831,0.831,0,0,1,23.439,17.446Z"/>
</svg>
