<?xml version="1.0" encoding="utf-8"?>
<!-- Generator: Adobe Illustrator 16.0.0, SVG Export Plug-In . SVG Version: 6.00 Build 0)  -->
<!DOCTYPE svg PUBLIC "-//W3C//DTD SVG 1.1//EN" "http://www.w3.org/Graphics/SVG/1.1/DTD/svg11.dtd">
<svg version="1.1" xmlns="http://www.w3.org/2000/svg" xmlns:xlink="http://www.w3.org/1999/xlink" x="0px" y="0px" width="40px"
	 height="40px" viewBox="0 0 40 40" enable-background="new 0 0 40 40" xml:space="preserve">
<g id="white_1_" enable-background="new    ">
	<g id="white">
		<g>
			<circle fill="#FFFFFF" cx="20" cy="20" r="11"/>
		</g>
	</g>
</g>
<g id="good_1_" enable-background="new    ">
	<g id="good">
		<g>
			<path fill="#555555" d="M22.5,20c1.498,0,1.497-0.001,1.497-1.714c0-1.8,0-1.451,0-2.572c0-1.713,0.001-1.714-1.497-1.714
				s-1.497,0.001-1.497,1.714c0,1.121,0,0.772,0,2.572C21.003,19.999,21.002,20,22.5,20z M17.5,20c1.499,0,1.497-0.001,1.497-1.714
				c0-1.8,0-1.451,0-2.572c0-1.713,0.001-1.714-1.497-1.714s-1.497,0.001-1.497,1.714c0,1.121,0,0.772,0,2.572
				C16.003,19.999,16.001,20,17.5,20z M25.668,22.606c-0.321-0.174-0.732-0.071-0.92,0.228c-0.694,1.113-2.355,2.413-4.75,2.413
				c-2.395,0-4.056-1.3-4.751-2.413c-0.187-0.3-0.598-0.401-0.919-0.228s-0.43,0.557-0.244,0.856
				C14.4,23.97,16.173,26.5,19.998,26.5s5.598-2.53,5.915-3.037C26.099,23.163,25.989,22.78,25.668,22.606z M20,8
				C13.373,8,8,13.373,8,20s5.373,12,12,12c6.627,0,12-5.373,12-12S26.627,8,20,8z M20,30c-5.523,0-10-4.478-10-10s4.477-10,10-10
				c5.523,0,10,4.478,10,10S25.523,30,20,30z"/>
		</g>
	</g>
</g>
</svg>
