<svg xmlns="http://www.w3.org/2000/svg" width="40" height="40" viewBox="0 0 40 40">
  <metadata><?xpacket begin="﻿" id="W5M0MpCehiHzreSzNTczkc9d"?>
<x:xmpmeta xmlns:x="adobe:ns:meta/" x:xmptk="Adobe XMP Core 5.6-c138 79.159824, 2016/09/14-01:09:01        ">
   <rdf:RDF xmlns:rdf="http://www.w3.org/1999/02/22-rdf-syntax-ns#">
      <rdf:Description rdf:about=""/>
   </rdf:RDF>
</x:xmpmeta>
                                                                                                    
                                                                                                    
                                                                                                    
                                                                                                    
                                                                                                    
                                                                                                    
                                                                                                    
                                                                                                    
                                                                                                    
                                                                                                    
                                                                                                    
                                                                                                    
                                                                                                    
                                                                                                    
                                                                                                    
                                                                                                    
                                                                                                    
                                                                                                    
                                                                                                    
                                                                                                    
                           
<?xpacket end="w"?></metadata>
<defs>
    <style>
      .cls-1 {
        fill: #fff;
      }

      .cls-1, .cls-2 {
        fill-rule: evenodd;
      }

      .cls-2 {
        fill: #555;
      }
    </style>
  </defs>
  <path id="w" class="cls-1" d="M31.994,19.248v1.5q0,1.006-.123,2.225-0.055.6-.109,1.006l-0.041.225a5.269,5.269,0,0,1-.164.532,2.677,2.677,0,0,1-.71,1.219,3.192,3.192,0,0,1-1.311.7,3.053,3.053,0,0,1-.56.095l-0.437.047q-2.008.13-5.232,0.177L21.3,27H20.492q-1.489-.012-3.21-0.036-3.456-.059-4.6-0.154-0.028-.012-0.492-0.059-0.369-.048-0.642-0.107a3.094,3.094,0,0,1-1.407-.686,2.849,2.849,0,0,1-.71-1.219,3.586,3.586,0,0,1-.15-0.532l-0.055-.225q-0.054-.4-0.109-1.006Q9,21.757,9,20.751v-1.5q0-1.006.109-2.213l0.109-1.006a7.112,7.112,0,0,1,.2-0.769,2.847,2.847,0,0,1,.71-1.207,3.118,3.118,0,0,1,1.312-.71,5.155,5.155,0,0,1,.574-0.095q0.164-.024.424-0.047,2.008-.118,5.232-0.166Q19.276,13,20.492,13L21.3,13.011q1.011,0,2.022.024,3.21,0.048,5.218.166,0.123,0.012.437,0.047a5.262,5.262,0,0,1,.56.095,3.117,3.117,0,0,1,1.311.71,2.675,2.675,0,0,1,.71,1.207,4.427,4.427,0,0,1,.2.769l0.109,1.006A21.975,21.975,0,0,1,31.994,19.248Z"/>
  <path id="b" class="cls-2" d="M32.86,23.4q-0.059.69-.119,1.15l-0.044.257a6.284,6.284,0,0,1-.178.608,3.092,3.092,0,0,1-.772,1.393,3.419,3.419,0,0,1-1.425.8,3.174,3.174,0,0,1-.609.108q-0.342.041-.475,0.054-2.183.149-5.687,0.2L21.367,28H20.491Q18.873,27.987,17,27.96q-3.756-.068-5-0.176-0.03-.014-0.535-0.068-0.4-.054-0.7-0.122a3.3,3.3,0,0,1-1.529-.785,3.294,3.294,0,0,1-.772-1.393A4.268,4.268,0,0,1,8.3,24.808l-0.059-.257q-0.059-.459-0.119-1.15Q8,22.008,8,20.858V19.141q0-1.149.119-2.529l0.119-1.15a8.476,8.476,0,0,1,.223-0.879,3.29,3.29,0,0,1,.772-1.38,3.344,3.344,0,0,1,1.426-.811,5.356,5.356,0,0,1,.624-0.108q0.178-.027.46-0.054,2.183-.135,5.687-0.189Q19.17,12,20.491,12l0.876,0.013q1.1,0,2.2.027,3.489,0.054,5.672.189c0.089,0.009.247,0.027,0.475,0.054a5.464,5.464,0,0,1,.609.108,3.342,3.342,0,0,1,1.425.811,3.088,3.088,0,0,1,.772,1.38,5.269,5.269,0,0,1,.223.879l0.119,1.15q0.133,1.38.133,2.529v1.718Q32.994,22.008,32.86,23.4ZM16.994,16v8L25,20.008Z"/>
</svg>
