<?xml version="1.0" encoding="utf-8"?>
<!-- Generator: Adobe Illustrator 16.0.3, SVG Export Plug-In . SVG Version: 6.00 Build 0)  -->
<!DOCTYPE svg PUBLIC "-//W3C//DTD SVG 1.1//EN" "http://www.w3.org/Graphics/SVG/1.1/DTD/svg11.dtd">
<svg version="1.1" id="icon_1_" xmlns="http://www.w3.org/2000/svg" xmlns:xlink="http://www.w3.org/1999/xlink" x="0px" y="0px"
	 width="72px" height="74px" viewBox="0 0 72 74" enable-background="new 0 0 72 74" xml:space="preserve">
<g id="shadow" opacity="0.051">
	<g>
		<path d="M66,2H6C2.686,2,0,4.686,0,8v60c0,3.313,2.686,6,6,6h60c3.313,0,6-2.687,6-6V8C72,4.686,69.313,2,66,2z"/>
	</g>
</g>
<g id="Rounded_box">
	<g>
		<path fill="#44CE5E" d="M66,0H6C2.686,0,0,2.687,0,6v59.999C0,69.313,2.686,72,6,72h60c3.313,0,6-2.687,6-6.001V6
			C72,2.687,69.313,0,66,0z"/>
	</g>
</g>
<g id="Photos" opacity="0.102">
	<g>
		<path fill-rule="evenodd" clip-rule="evenodd" d="M52,44.674l-8-6.339l-8,6.339l-8-12.679l-7.998,6.281v12.73H51.99L52,44.674z
			 M56,14.979H16c-2.209,0-4,1.849-4,4.129v35.785c0,2.28,1.791,4.129,4,4.129h40c2.209,0,4-1.849,4-4.129V19.107
			C60,16.827,58.209,14.979,56,14.979z M56,54.893H16V19.107h40V54.893z M49,28.993c1.656,0,3-1.345,3-3.003
			c0-1.659-1.344-3.003-3-3.003s-3,1.344-3,3.003C46,27.648,47.344,28.993,49,28.993z"/>
	</g>
</g>
<g id="Photos_1_">
	<g>
		<path fill-rule="evenodd" clip-rule="evenodd" fill="#FFFFFF" d="M52,42.674l-8-6.339l-8,6.339l-8-12.679l-7.998,6.281v12.73
			H51.99L52,42.674z M56,12.979H16c-2.209,0-4,1.849-4,4.129v35.785c0,2.28,1.791,4.129,4,4.129h40c2.209,0,4-1.849,4-4.129V17.107
			C60,14.827,58.209,12.979,56,12.979z M56,52.986H16V17.014h40V52.986z M49,26.993c1.656,0,3-1.345,3-3.003
			c0-1.659-1.344-3.003-3-3.003s-3,1.344-3,3.003C46,25.648,47.344,26.993,49,26.993z"/>
	</g>
</g>
</svg>
