<?xml version="1.0" encoding="utf-8"?>
<!-- Generator: Adobe Illustrator 16.0.3, SVG Export Plug-In . SVG Version: 6.00 Build 0)  -->
<!DOCTYPE svg PUBLIC "-//W3C//DTD SVG 1.1//EN" "http://www.w3.org/Graphics/SVG/1.1/DTD/svg11.dtd">
<svg version="1.1" id="icon_1_" xmlns="http://www.w3.org/2000/svg" xmlns:xlink="http://www.w3.org/1999/xlink" x="0px" y="0px"
	 width="72px" height="74px" viewBox="0 0 72 74" enable-background="new 0 0 72 74" xml:space="preserve">
<g id="shadow" opacity="0.051">
	<g>
		<path d="M66,2H6C2.686,2,0,4.686,0,8v60c0,3.313,2.686,6,6,6h60c3.313,0,6-2.687,6-6V8C72,4.686,69.313,2,66,2z"/>
	</g>
</g>
<g id="Rounded_box">
	<g>
		<path fill="#44CE5E" d="M66,0H6C2.686,0,0,2.687,0,6v59.999C0,69.313,2.686,72,6,72h60c3.313,0,6-2.687,6-6.001V6
			C72,2.687,69.313,0,66,0z"/>
	</g>
</g>
<g id="notifications" opacity="0.102">
	<g>
		<path fill-rule="evenodd" clip-rule="evenodd" d="M36,54.989c3.291,0,3.996-1.351,3.996-4h-8.003
			C31.993,53.607,32.708,54.989,36,54.989z M50.61,42.282c-0.622-0.24-2.286-2.206-2.286-3.603c0,0-0.99-4.696-0.99-11.194
			c0-6.499-4.096-8.474-9.313-8.474h-4.061c-5.218,0.001-9.294,1.975-9.294,8.474c0,6.498-1.001,11.109-1.001,11.109l-0.002,0.088
			c0,1.396-1.664,3.362-2.273,3.598c0,0-1.382,0.217-1.382,1.462c0,0.812,0.001,1.922,0.001,2.648c0,1.915,0.658,2.604,2.638,2.604
			c1.063,0,19.672-0.002,26.688-0.003c2.029,0,2.646-0.627,2.646-2.642c0-0.632,0.004-1.707,0.008-2.526
			C51.987,42.49,50.61,42.282,50.61,42.282z M23.994,44.994C25.647,43.744,28,43.309,28,39.181c0,0,0.667-6.741,0.667-10.353
			s2.186-5.813,5.341-5.814h3.984c3.154,0,5.342,1.94,5.342,5.814S44,39.181,44,39.181c0,4.039,2.353,4.563,4.006,5.813H23.994z"/>
	</g>
</g>
<g id="notifications_1_">
	<g>
		<path fill-rule="evenodd" clip-rule="evenodd" fill="#FFFFFF" d="M36,52.989c3.291,0,3.996-1.351,3.996-4h-8.003
			C31.993,51.607,32.708,52.989,36,52.989z M50.61,40.282c-0.622-0.24-2.286-2.206-2.286-3.603c0,0-0.99-4.696-0.99-11.194
			c0-6.499-4.096-8.474-9.313-8.474h-4.061c-5.218,0.001-9.294,1.975-9.294,8.474c0,6.498-1.001,11.109-1.001,11.109l-0.002,0.088
			c0,1.396-1.664,3.362-2.273,3.598c0,0-1.382,0.217-1.382,1.462c0,0.812,0.001,1.922,0.001,2.648c0,1.915,0.658,2.604,2.638,2.604
			c1.063,0,19.672-0.002,26.688-0.003c2.029,0,2.646-0.627,2.646-2.642c0-0.632,0.004-1.707,0.008-2.526
			C51.987,40.49,50.61,40.282,50.61,40.282z M23.994,42.994C25.647,41.744,28,41.308,28,37.181c0,0,0.667-6.741,0.667-10.353
			s2.186-5.813,5.341-5.814h3.984c3.154,0,5.342,1.94,5.342,5.814S44,37.181,44,37.181c0,4.039,2.353,4.563,4.006,5.813H23.994z"/>
	</g>
</g>
</svg>
