<?xml version="1.0" encoding="utf-8"?>
<!-- Generator: Adobe Illustrator 16.0.3, SVG Export Plug-In . SVG Version: 6.00 Build 0)  -->
<!DOCTYPE svg PUBLIC "-//W3C//DTD SVG 1.1//EN" "http://www.w3.org/Graphics/SVG/1.1/DTD/svg11.dtd">
<svg version="1.1" id="icon_1_" xmlns="http://www.w3.org/2000/svg" xmlns:xlink="http://www.w3.org/1999/xlink" x="0px" y="0px"
	 width="72px" height="74px" viewBox="0 0 72 74" enable-background="new 0 0 72 74" xml:space="preserve">
<g id="shadow" opacity="0.051">
	<g>
		<path d="M66,2H6C2.686,2,0,4.686,0,8v60c0,3.313,2.686,6,6,6h60c3.313,0,6-2.687,6-6V8C72,4.686,69.313,2,66,2z"/>
	</g>
</g>
<g id="Rounded_box">
	<g>
		<path fill="#44CE5E" d="M66,0H6C2.686,0,0,2.686,0,6v60c0,3.313,2.686,6,6,6h60c3.313,0,6-2.687,6-6V6C72,2.686,69.313,0,66,0z"/>
	</g>
</g>
<g id="clients" opacity="0.102">
	<g>
		<path fill-rule="evenodd" clip-rule="evenodd" d="M34.003,36.321c3.678,0,6.669-2.993,6.669-6.671
			c0-3.679-2.991-6.672-6.669-6.672c-3.677,0-6.669,2.993-6.669,6.672C27.334,33.328,30.326,36.321,34.003,36.321z M34.002,25.709
			c2.229,0,3.999,1.731,3.999,3.938s-1.794,4.001-3.999,4.001s-4-1.795-4-4.001S31.774,25.709,34.002,25.709z M58,28.979v-8h-3.993
			v-3.546c0-1.18-0.659-2.454-2.007-2.454H16.502c-1.387,0-2.511,1.14-2.511,2.545l0.001,39.017c0,1.35,1.086,2.444,2.426,2.444
			h35.147c1.349,0,2.441-1.073,2.441-2.397v-3.608H58v-8h-3.993v-4H58v-8h-3.993v-4H58z M50,54.979H18v-36h32V54.979z M56,46.979v4
			h-4v-4H56z M56,34.979v4h-4v-4H56z M52,26.979v-4h4v4H52z M34.003,50.979c5.536,0,11.999-1.563,11.999-6.27
			c0-0.868-0.081-1.748-0.241-2.615l-0.005-0.026l-0.336-1.387c-0.963-3.27-2.77-4.636-4.172-5.708
			c-0.998,1.056-1.066,1.072-1.914,2.007c2.324,1.827,4.001,4.674,4.001,7.874c0,1.39-4.495,3.461-9.332,3.461
			c-5.987,0-9.307-2.12-9.332-3.479c-0.058-3.159,1.637-6.014,3.996-7.856c-0.985-0.958-1.065-1.063-1.98-1.952
			c-1.389,1.081-3.153,2.439-4.1,5.654l-0.33,1.36l-0.011,0.052c-0.16,0.867-0.242,1.747-0.242,2.615
			C22.004,49.416,28.468,50.979,34.003,50.979z"/>
	</g>
</g>
<g id="clients_1_">
	<g>
		<path fill-rule="evenodd" clip-rule="evenodd" fill="#FFFFFF" d="M34.003,34.321c3.678,0,6.669-2.993,6.669-6.671
			c0-3.679-2.991-6.672-6.669-6.672c-3.677,0-6.669,2.993-6.669,6.672C27.334,31.328,30.326,34.321,34.003,34.321z M34.002,23.709
			c2.229,0,3.999,1.731,3.999,3.938s-1.794,4.001-3.999,4.001s-4-1.795-4-4.001S31.774,23.709,34.002,23.709z M34.003,48.979
			c5.536,0,11.999-1.563,11.999-6.27c0-0.868-0.081-1.748-0.241-2.615l-0.005-0.026l-0.336-1.387
			c-0.963-3.27-2.77-4.636-4.172-5.708c-0.998,1.056-1.066,1.072-1.914,2.007c2.324,1.827,4.001,4.674,4.001,7.874
			c0,1.39-4.495,3.461-9.332,3.461c-5.987,0-9.307-2.12-9.332-3.479c-0.058-3.159,1.637-6.014,3.996-7.856
			c-0.985-0.958-1.065-1.063-1.98-1.952c-1.389,1.081-3.153,2.439-4.1,5.654l-0.33,1.36l-0.011,0.052
			c-0.16,0.867-0.242,1.747-0.242,2.615C22.004,47.416,28.468,48.979,34.003,48.979z M58,26.979v-8h-3.993v-3.546
			c0-1.18-0.659-2.454-2.007-2.454H16.502c-1.387,0-2.511,1.14-2.511,2.545l0.001,39.017c0,1.35,1.086,2.444,2.426,2.444h35.147
			c1.349,0,2.441-1.073,2.441-2.397v-3.608H58v-8h-3.993v-4H58v-8h-3.993v-4H58z M50,52.979H18v-36h32V52.979z M56,44.979v4h-4v-4
			H56z M56,32.979v4h-4v-4H56z M52,24.979v-4h4v4H52z"/>
	</g>
</g>
</svg>
