<?xml version="1.0" encoding="utf-8"?>
<!-- Generator: Adobe Illustrator 16.0.3, SVG Export Plug-In . SVG Version: 6.00 Build 0)  -->
<!DOCTYPE svg PUBLIC "-//W3C//DTD SVG 1.1//EN" "http://www.w3.org/Graphics/SVG/1.1/DTD/svg11.dtd">
<svg version="1.1" id="icon_1_" xmlns="http://www.w3.org/2000/svg" xmlns:xlink="http://www.w3.org/1999/xlink" x="0px" y="0px"
	 width="72px" height="74px" viewBox="0 0 72 74" enable-background="new 0 0 72 74" xml:space="preserve">
<g id="shadow" opacity="0.051">
	<g>
		<path d="M66,2H6C2.686,2,0,4.686,0,8v60c0,3.313,2.686,6,6,6h60c3.313,0,6-2.687,6-6V8C72,4.686,69.313,2,66,2z"/>
	</g>
</g>
<g id="Rounded_box">
	<g>
		<path fill="#44CE5E" d="M66,0H6C2.686,0,0,2.686,0,6v60c0,3.313,2.686,6,6,6h60c3.313,0,6-2.687,6-6V6C72,2.686,69.313,0,66,0z"/>
	</g>
</g>
<g id="calendar" opacity="0.102">
	<g>
		<path fill-rule="evenodd" clip-rule="evenodd" d="M43.998,33.021h-3.996v4.009h3.996V33.021z M43.998,39.021h-3.996v4.009h3.996
			V39.021z M43.998,45.021h-3.996v4.009h3.996V45.021z M49.998,39.021h-3.996v4.009h3.996V39.021z M49.998,33.021h-3.996v4.009
			h3.996V33.021z M37.998,33.021h-3.996v4.009h3.996V33.021z M55.334,21.021h-3.342v-4.015H44v4.015H27.992v-4.015H20v4.015h-3.333
			c-1.675,0-2.667,1.06-2.667,2.667v30.667c0,1.649,1.032,2.666,2.667,2.666h38c1.676,0,3.334-0.997,3.334-2.666V23.688
			C58,22.08,57.029,21.021,55.334,21.021z M46.001,19.015h3.996v3.999h-3.996V19.015z M22.001,19.015h3.996v3.999h-3.996V19.015z
			 M53.992,53.014H18.007V29.02h35.985V53.014z M25.999,39.021h-3.996v4.009h3.996V39.021z M25.999,45.021h-3.996v4.009h3.996
			V45.021z M37.998,39.021h-3.996v4.009h3.996V39.021z M31.999,45.021h-3.996v4.009h3.996V45.021z M37.998,45.021h-3.996v4.009
			h3.996V45.021z M31.999,33.021h-3.996v4.009h3.996V33.021z M31.999,39.021h-3.996v4.009h3.996V39.021z"/>
	</g>
</g>
<g id="calendar_1_">
	<g>
		<path fill-rule="evenodd" clip-rule="evenodd" fill="#FFFFFF" d="M37.998,37.021h-3.996v4.009h3.996V37.021z M37.998,31.021
			h-3.996v4.009h3.996V31.021z M43.998,37.021h-3.996v4.009h3.996V37.021z M43.998,43.021h-3.996v4.009h3.996V43.021z
			 M49.998,37.021h-3.996v4.009h3.996V37.021z M49.998,31.021h-3.996v4.009h3.996V31.021z M43.998,31.021h-3.996v4.009h3.996V31.021
			z M25.999,43.021h-3.996v4.009h3.996V43.021z M25.999,37.021h-3.996v4.009h3.996V37.021z M55.334,19.021h-3.342v-4.015H44v4.015
			H27.992v-4.015H20v4.015h-3.333c-1.675,0-2.667,1.06-2.667,2.667v30.667c0,1.649,1.032,2.666,2.667,2.666h38
			c1.676,0,3.334-0.997,3.334-2.666V21.688C58,20.08,57.029,19.021,55.334,19.021z M46.001,17.015h3.996v3.999h-3.996V17.015z
			 M22.001,17.015h3.996v3.999h-3.996V17.015z M53.992,51.014H18.007V27.02h35.985V51.014z M31.999,43.021h-3.996v4.009h3.996
			V43.021z M31.999,31.021h-3.996v4.009h3.996V31.021z M31.999,37.021h-3.996v4.009h3.996V37.021z M37.998,43.021h-3.996v4.009
			h3.996V43.021z"/>
	</g>
</g>
</svg>
