<?xml version="1.0" encoding="utf-8"?>
<!-- Generator: Adobe Illustrator 16.0.3, SVG Export Plug-In . SVG Version: 6.00 Build 0)  -->
<!DOCTYPE svg PUBLIC "-//W3C//DTD SVG 1.1//EN" "http://www.w3.org/Graphics/SVG/1.1/DTD/svg11.dtd">
<svg version="1.1" id="icon_1_" xmlns="http://www.w3.org/2000/svg" xmlns:xlink="http://www.w3.org/1999/xlink" x="0px" y="0px"
	 width="72px" height="74px" viewBox="0 0 72 74" enable-background="new 0 0 72 74" xml:space="preserve">
<g id="shadow" opacity="0.051">
	<g>
		<path d="M66,2H6C2.686,2,0,4.686,0,8v60c0,3.313,2.686,6,6,6h60c3.313,0,6-2.687,6-6V8C72,4.686,69.313,2,66,2z"/>
	</g>
</g>
<g id="Rounded_box">
	<g>
		<path fill="#44CE5E" d="M66,0H6C2.686,0,0,2.686,0,6v60c0,3.313,2.686,6,6,6h60c3.313,0,6-2.687,6-6V6C72,2.686,69.313,0,66,0z"/>
	</g>
</g>
<g id="personnel" opacity="0.102">
	<g>
		<path fill-rule="evenodd" clip-rule="evenodd" d="M55.641,30.586l-0.233-0.127l-0.169,0.204c-0.41,0.497-0.895,0.938-1.439,1.313
			l-0.453,0.312l0.5,0.232c3.359,1.556,5.529,5.585,5.529,9.479c0,1.126-0.416,2.218-3.144,2.849l0.63,2.614
			c4.094-0.973,5.07-2.913,5.07-5.463C61.932,37.34,59.521,32.7,55.641,30.586z M12.718,41.999c0-3.895,2.17-7.924,5.529-9.479
			l0.5-0.232l-0.454-0.312c-0.543-0.374-1.028-0.815-1.439-1.313l-0.169-0.203l-0.233,0.127C12.572,32.7,10.162,37.34,10.162,42
			c0,2.551,0.977,4.491,5.071,5.463l0.3,0.071l0.654-2.609l-0.326-0.075C13.134,44.218,12.718,43.126,12.718,41.999z M24.057,31.238
			c0.44-0.078,0.876-0.205,1.298-0.377l0.377-0.154l-0.241-0.324c-0.38-0.51-0.712-1.052-0.988-1.609l-0.122-0.248l-0.339,0.11
			c-0.144,0.048-0.288,0.096-0.44,0.123c-2.081,0.373-4.08-0.993-4.458-3.045c-0.378-2.051,1.008-4.021,3.089-4.394
			c0.404-0.073,0.826-0.071,1.291,0.004l0.276,0.045l0.082-0.264c0.183-0.594,0.424-1.18,0.717-1.743l0.186-0.357l-0.396-0.093
			c-0.865-0.202-1.743-0.227-2.611-0.071c-3.468,0.62-5.777,3.905-5.148,7.324C17.257,29.583,20.589,31.858,24.057,31.238z
			 M47.998,31.221c3.464,0.642,6.811-1.615,7.461-5.029c0.652-3.415-1.637-6.715-5.101-7.355c-0.868-0.161-1.746-0.143-2.612,0.055
			l-0.396,0.09l0.184,0.359c0.291,0.568,0.527,1.156,0.706,1.746l0.079,0.265l0.275-0.042c0.467-0.071,0.891-0.07,1.293,0.004
			c2.078,0.386,3.451,2.365,3.059,4.414c-0.389,2.049-2.396,3.403-4.475,3.018c-0.16-0.029-0.308-0.08-0.514-0.15l-0.266-0.09
			l-0.125,0.249c-0.277,0.556-0.613,1.096-0.997,1.604l-0.243,0.323l0.375,0.156C47.124,31.01,47.56,31.14,47.998,31.221z
			 M53.614,46.826l-0.503-2.063c-2.691-9.093-9.454-11.456-9.454-11.456s-2.81,1.95-3.708,2.475
			c0.149,0.149,1.952,1.134,1.952,1.134c4.69,2.308,7.752,8.195,7.752,13.84c0,2.042-6.556,5.085-13.607,5.085
			c-8.729,0-13.571-3.115-13.607-5.11c-0.101-5.576,2.92-11.459,7.711-13.814l1.758-1.134c-1.934-0.891-3.474-2.475-3.474-2.475
			s-6.763,2.364-9.453,11.458l-0.493,2.023l-0.017,0.077c-0.24,1.29-0.361,2.599-0.361,3.891c0,7.002,9.662,9.326,17.937,9.326
			c8.273,0,17.936-2.324,17.936-9.326c0-1.292-0.121-2.601-0.361-3.891L53.614,46.826z M36.047,33.593
			c5.462,0,9.906-4.381,9.906-9.766s-4.444-9.766-9.906-9.766c-5.463,0-9.907,4.381-9.907,9.766S30.583,33.593,36.047,33.593z
			 M36.045,18.059c3.309,0,6.002,2.654,6.002,5.917s-2.693,5.917-6.002,5.917c-3.311,0-6.003-2.654-6.003-5.917
			S32.734,18.059,36.045,18.059z"/>
	</g>
</g>
<g id="personnel_1_">
	<g>
		<path fill-rule="evenodd" clip-rule="evenodd" fill="#FFFFFF" d="M55.641,28.586l-0.233-0.127l-0.169,0.204
			c-0.41,0.497-0.895,0.938-1.439,1.313l-0.453,0.312l0.5,0.232c3.359,1.556,5.529,5.585,5.529,9.479
			c0,1.126-0.416,2.218-3.144,2.849l0.63,2.614c4.094-0.973,5.07-2.913,5.07-5.463C61.932,35.34,59.521,30.7,55.641,28.586z
			 M12.718,39.999c0-3.895,2.17-7.924,5.529-9.479l0.5-0.232l-0.454-0.312c-0.543-0.374-1.028-0.815-1.439-1.313l-0.169-0.203
			l-0.233,0.127C12.572,30.7,10.162,35.34,10.162,40c0,2.551,0.977,4.491,5.071,5.463l0.3,0.071l0.654-2.609l-0.326-0.075
			C13.134,42.218,12.718,41.126,12.718,39.999z M24.057,29.238c0.44-0.078,0.876-0.205,1.298-0.377l0.377-0.154l-0.241-0.324
			c-0.38-0.51-0.712-1.052-0.988-1.609l-0.122-0.248l-0.339,0.11c-0.144,0.048-0.288,0.096-0.44,0.123
			c-2.081,0.373-4.08-0.993-4.458-3.045c-0.378-2.051,1.008-4.021,3.089-4.394c0.404-0.073,0.826-0.071,1.291,0.004l0.276,0.045
			l0.082-0.264c0.183-0.594,0.424-1.18,0.717-1.743l0.186-0.357l-0.396-0.093c-0.865-0.202-1.743-0.227-2.611-0.071
			c-3.468,0.62-5.777,3.905-5.148,7.324C17.257,27.583,20.589,29.858,24.057,29.238z M47.998,29.221
			c3.464,0.642,6.811-1.615,7.461-5.029c0.652-3.415-1.637-6.715-5.101-7.355c-0.868-0.161-1.746-0.143-2.612,0.055l-0.396,0.09
			l0.184,0.359c0.291,0.568,0.527,1.156,0.706,1.746l0.079,0.265l0.275-0.042c0.467-0.071,0.891-0.07,1.293,0.004
			c2.078,0.386,3.451,2.365,3.059,4.414c-0.389,2.049-2.396,3.403-4.475,3.018c-0.16-0.029-0.308-0.08-0.514-0.15l-0.266-0.09
			l-0.125,0.249c-0.277,0.556-0.613,1.096-0.997,1.604l-0.243,0.323l0.375,0.156C47.124,29.01,47.56,29.14,47.998,29.221z
			 M53.614,44.826l-0.503-2.063c-2.691-9.093-9.454-11.456-9.454-11.456s-2.81,1.95-3.708,2.475
			c0.149,0.149,1.952,1.134,1.952,1.134c4.69,2.308,7.752,8.195,7.752,13.84c0,2.042-6.556,5.085-13.607,5.085
			c-8.729,0-13.571-3.115-13.607-5.11c-0.101-5.576,2.92-11.459,7.711-13.814l1.758-1.134c-1.934-0.891-3.474-2.475-3.474-2.475
			s-6.763,2.364-9.453,11.458l-0.493,2.023l-0.017,0.077c-0.24,1.29-0.361,2.599-0.361,3.891c0,7.002,9.662,9.326,17.937,9.326
			c8.273,0,17.936-2.324,17.936-9.326c0-1.292-0.121-2.601-0.361-3.891L53.614,44.826z M36.047,31.593
			c5.462,0,9.906-4.381,9.906-9.766s-4.444-9.766-9.906-9.766c-5.463,0-9.907,4.381-9.907,9.766S30.583,31.593,36.047,31.593z
			 M36.045,16.059c3.309,0,6.002,2.654,6.002,5.917s-2.693,5.917-6.002,5.917c-3.311,0-6.003-2.654-6.003-5.917
			S32.734,16.059,36.045,16.059z"/>
	</g>
</g>
</svg>
