<?xml version="1.0" encoding="utf-8"?>
<!-- Generator: Adobe Illustrator 16.0.3, SVG Export Plug-In . SVG Version: 6.00 Build 0)  -->
<!DOCTYPE svg PUBLIC "-//W3C//DTD SVG 1.1//EN" "http://www.w3.org/Graphics/SVG/1.1/DTD/svg11.dtd">
<svg version="1.1" id="icon_1_" xmlns="http://www.w3.org/2000/svg" xmlns:xlink="http://www.w3.org/1999/xlink" x="0px" y="0px"
	 width="72px" height="74px" viewBox="0 0 72 74" enable-background="new 0 0 72 74" xml:space="preserve">
<g id="shadow" opacity="0.051">
	<g>
		<path d="M66,2H6C2.686,2,0,4.686,0,8v60c0,3.313,2.686,6,6,6h60c3.313,0,6-2.687,6-6V8C72,4.686,69.313,2,66,2z"/>
	</g>
</g>
<g id="Rounded_box">
	<g>
		<path fill="#44CE5E" d="M66,0H6C2.686,0,0,2.686,0,6v60c0,3.313,2.686,6,6,6h60c3.313,0,6-2.687,6-6V6C72,2.686,69.313,0,66,0z"/>
	</g>
</g>
<g id="services" opacity="0.102">
	<g>
		<path fill-rule="evenodd" clip-rule="evenodd" d="M48,41H24v2h24V41z M45.334,27l-3.386-5.257c0,0,0-6.298,0-7.142
			s-0.671-1.595-1.468-1.595s-8.085,0-8.929,0s-1.537,0.845-1.537,1.595s0,7.042,0,7.042L26.667,27H45.334z M36.01,15.991
			c1.656,0,3,1.345,3,3.003s-1.344,3.002-3,3.002c-1.657,0-3-1.344-3-3.002S34.353,15.991,36.01,15.991z M48,35H24v2h24V35z M52,19
			h-8l3,4h5v34H20V23h5l3-4h-8c-2.209,0-4,1.791-4,4v34c0,2.209,1.791,4,4,4h32c2.209,0,4-1.791,4-4V23C56,20.791,54.209,19,52,19z
			 M24,49h14v-2H24V49z"/>
	</g>
</g>
<g id="services_1_">
	<g>
		<path fill-rule="evenodd" clip-rule="evenodd" fill="#FFFFFF" d="M48,39H24v2h24V39z M45.334,25l-3.386-5.257c0,0,0-6.298,0-7.142
			s-0.671-1.595-1.468-1.595h-8.929c-0.844,0-1.537,0.845-1.537,1.595s0,7.042,0,7.042L26.667,25H45.334z M36.01,13.991
			c1.656,0,3,1.345,3,3.003s-1.344,3.002-3,3.002c-1.657,0-3-1.344-3-3.002S34.353,13.991,36.01,13.991z M52,17h-8l3,4h5v34H20V21h5
			l3-4h-8c-2.209,0-4,1.791-4,4v34c0,2.209,1.791,4,4,4h32c2.209,0,4-1.791,4-4V21C56,18.791,54.209,17,52,17z M48,33H24v2h24V33z
			 M24,47h14v-2H24V47z"/>
	</g>
</g>
</svg>
