<svg xmlns="http://www.w3.org/2000/svg" width="180" height="60" viewBox="0 0 180 60">
  <defs>
    <style>
      .cls-1 {
        fill: #555;
        fill-rule: evenodd;
      }
    </style>
  </defs>
  <path id="AVAILABLE_ON_THE" data-name="AVAILABLE ON THE" class="cls-1" d="M160.17,13.986h5.757v1.484h-4.065v1.72h3.73v1.372h-3.73v1.967h4.151v1.484H160.17V13.986Zm-2.836,4.564h-3.077v3.462h-1.672V13.986h1.672v3.08h3.077v-3.08h1.671v8.027h-1.671V18.55Zm-4.248,15.458a5.306,5.306,0,0,0-.955-0.083,2.859,2.859,0,0,0-2.463,1.2,4.469,4.469,0,0,0-.756,2.672v7.1H145.89l0.027-9.274q0-2.339-.114-4.26h2.635l0.111,2.59h0.082a4.623,4.623,0,0,1,1.513-2.143,3.665,3.665,0,0,1,2.185-.724,4.854,4.854,0,0,1,.757.055v2.868Zm-4.646-12h-1.886V15.469h-2.569V13.986h7.024v1.484H148.44v6.543ZM136.315,45.036a6.1,6.1,0,0,1-4.773-1.976,7.175,7.175,0,0,1-1.778-4.985,7.327,7.327,0,0,1,1.833-5.151,6.369,6.369,0,0,1,4.943-2.005,6.227,6.227,0,0,1,4.815,1.978,7.1,7.1,0,0,1,1.737,4.956,7.39,7.39,0,0,1-1.793,5.122A6.41,6.41,0,0,1,136.315,45.036Zm2.828-10.3a2.993,2.993,0,0,0-2.714-1.62,3.033,3.033,0,0,0-2.773,1.62,6.19,6.19,0,0,0-.813,3.269,6.07,6.07,0,0,0,.813,3.211,3.1,3.1,0,0,0,5.458-.028A6.709,6.709,0,0,0,139.143,34.738ZM133.987,16.65h-0.022v5.342H132.34V14.013h1.725l3.294,5.353h0.022V14.013h1.625v7.979H137.27Zm-4.3,4.181a3.569,3.569,0,0,1-1.216.845,4.471,4.471,0,0,1-3.272,0,3.559,3.559,0,0,1-1.216-.845,3.676,3.676,0,0,1-.763-1.262,4.485,4.485,0,0,1-.265-1.551,4.64,4.64,0,0,1,.265-1.583,3.773,3.773,0,0,1,.763-1.283A3.492,3.492,0,0,1,125.2,14.3a4.469,4.469,0,0,1,3.272,0,3.5,3.5,0,0,1,1.216.855,3.787,3.787,0,0,1,.762,1.283,4.64,4.64,0,0,1,.265,1.583,4.485,4.485,0,0,1-.265,1.551A3.689,3.689,0,0,1,129.688,20.832Zm-0.824-3.786a2.537,2.537,0,0,0-.37-0.84,1.867,1.867,0,0,0-.663-0.588,2.368,2.368,0,0,0-1.99,0,1.85,1.85,0,0,0-.663.588,2.539,2.539,0,0,0-.371.84,4.07,4.07,0,0,0-.116.973,3.784,3.784,0,0,0,.116.936,2.49,2.49,0,0,0,.371.818,1.868,1.868,0,0,0,.663.583,2.368,2.368,0,0,0,1.99,0,1.885,1.885,0,0,0,.663-0.583,2.488,2.488,0,0,0,.37-0.818,3.784,3.784,0,0,0,.116-0.936A4.07,4.07,0,0,0,128.864,17.046Zm-4.141,10.781V31.2h3.333v2.256h-3.333v6.571q0,2.506,1.766,2.508a5.454,5.454,0,0,0,1.343-.14l0.082,2.284a6.873,6.873,0,0,1-2.352.333,3.626,3.626,0,0,1-2.8-1.085,5.312,5.312,0,0,1-1.008-3.648V33.453h-1.988V31.2h1.988V28.718ZM112.179,14.013h5.9v1.475h-4.167V17.2h3.825v1.363h-3.825v1.956h4.256v1.475h-5.991V14.013Zm-7,0h1.735v6.5h3.847v1.475h-5.582V14.013Zm-2.47,7.431a2.759,2.759,0,0,1-.9.414,3.993,3.993,0,0,1-1.033.134H96.958V14.013h3.714a4.862,4.862,0,0,1,1.028.1,2.206,2.206,0,0,1,.8.33,1.533,1.533,0,0,1,.514.609,2.155,2.155,0,0,1,.182.939,1.743,1.743,0,0,1-.276,1,2.01,2.01,0,0,1-.8.665,1.9,1.9,0,0,1,1.089.743,2.464,2.464,0,0,1,.127,2.324A2.034,2.034,0,0,1,102.712,21.444Zm-1.3-5.61a0.745,0.745,0,0,0-.266-0.279,1.1,1.1,0,0,0-.381-0.14,2.505,2.505,0,0,0-.448-0.039H98.694v1.866h1.757a1.237,1.237,0,0,0,.763-0.223,0.848,0.848,0,0,0,.3-0.726A0.94,0.94,0,0,0,101.413,15.835ZM101.49,18.7a1.45,1.45,0,0,0-.906-0.263H98.694v2.19h1.858a2.3,2.3,0,0,0,.486-0.05,1.185,1.185,0,0,0,.409-0.168,0.84,0.84,0,0,0,.282-0.318,1.107,1.107,0,0,0,.105-0.514A1.039,1.039,0,0,0,101.49,18.7ZM99.911,37.547A7.667,7.667,0,0,1,98.035,43a5.5,5.5,0,0,1-4.172,1.782A4.175,4.175,0,0,1,90,42.865H89.944v7.129H86.921V35.4q0-2.171-.112-4.456h2.659l0.168,2.145h0.055a5.4,5.4,0,0,1,8.611-.53A7.447,7.447,0,0,1,99.911,37.547ZM95.935,34.4A3.1,3.1,0,0,0,93.3,33.062a3.148,3.148,0,0,0-2.029.738,3.411,3.411,0,0,0-1.19,1.936,3.888,3.888,0,0,0-.14.917V38.91a3.6,3.6,0,0,0,.91,2.493A3.024,3.024,0,0,0,93.22,42.42a3.1,3.1,0,0,0,2.66-1.309,5.751,5.751,0,0,0,.951-3.454A5.549,5.549,0,0,0,95.935,34.4Zm-2.5-14.184H90.481l-0.619,1.777H88.1l3-7.979h1.78l2.951,7.979h-1.8ZM91.984,15.98H91.962l-1.028,2.928h2.045ZM81.948,14.013h1.735v6.5H87.53v1.475H81.948V14.013Zm-3.7,0H79.98v7.979H78.245V14.013Zm-3.526,6.2H71.767l-0.619,1.777H69.391l3-7.979h1.78l2.951,7.979h-1.8ZM73.271,15.98H73.248L72.22,18.908h2.045Zm-8.224,6.012-2.564-7.979h1.791l1.757,5.61h0.022l1.78-5.61h1.791L67,21.992H65.047Zm-4.134,0-0.6-1.777H57.364l-0.619,1.777H54.988l3-7.979h1.78l2.951,7.979h-1.8ZM58.868,15.98H58.846l-1.028,2.928h2.045Zm4.317,10.148,6.1,18.769h-3.22L64.3,39.384H58.173L56.493,44.9H53.357l6.075-18.769h3.752Zm0.588,10.943-1.6-4.9q-0.253-.752-0.953-3.536H61.17q-0.281,1.2-.9,3.536l-1.568,4.9h5.068ZM41.1,40.485c-1.486,2.211-3.043,4.369-5.516,4.41-2.4.055-3.211-1.406-5.966-1.406-2.781,0-3.641,1.365-5.945,1.461-2.356.087-4.155-2.359-5.695-4.549C14.9,35.929,12.508,27.8,15.72,22.264a8.836,8.836,0,0,1,7.43-4.506c2.358-.05,4.546,1.583,6,1.583,1.421,0,4.127-1.952,6.916-1.661a8.432,8.432,0,0,1,6.631,3.565,8.174,8.174,0,0,0-3.916,6.86,7.908,7.908,0,0,0,4.85,7.269A18.06,18.06,0,0,1,41.1,40.485ZM28.862,17.268a7.635,7.635,0,0,1,1.9-5.554,8.248,8.248,0,0,1,5.329-2.742,8.018,8.018,0,0,1-1.852,5.767A6.827,6.827,0,0,1,28.862,17.268ZM73.636,33.091h0.055a5.4,5.4,0,0,1,8.611-.53,7.447,7.447,0,0,1,1.609,4.986A7.667,7.667,0,0,1,82.035,43a5.5,5.5,0,0,1-4.172,1.782A4.175,4.175,0,0,1,74,42.865H73.944v7.129H70.921V35.4q0-2.171-.112-4.456h2.659Zm0.308,5.819a3.6,3.6,0,0,0,.91,2.493A3.024,3.024,0,0,0,77.22,42.42a3.1,3.1,0,0,0,2.66-1.309,5.751,5.751,0,0,0,.951-3.454,5.549,5.549,0,0,0-.9-3.257A3.1,3.1,0,0,0,77.3,33.062a3.148,3.148,0,0,0-2.029.738,3.411,3.411,0,0,0-1.19,1.936,3.888,3.888,0,0,0-.14.917V38.91Zm37.48,3.62a4.145,4.145,0,0,0,2.661-.767,2.494,2.494,0,0,0,.95-2.051,2.6,2.6,0,0,0-.784-1.924,7.309,7.309,0,0,0-2.6-1.452q-4.958-1.839-4.956-5.383a4.762,4.762,0,0,1,1.737-3.794,6.885,6.885,0,0,1,4.621-1.478,9.189,9.189,0,0,1,4.28.891l-0.756,2.452a7.458,7.458,0,0,0-3.612-.865,3.659,3.659,0,0,0-2.489.782,2.224,2.224,0,0,0-.757,1.7,2.285,2.285,0,0,0,.869,1.837,9.784,9.784,0,0,0,2.743,1.449,9.314,9.314,0,0,1,3.584,2.282,4.772,4.772,0,0,1,1.146,3.259,4.988,4.988,0,0,1-1.675,3.9,7.453,7.453,0,0,1-5.14,1.643,9.044,9.044,0,0,1-4.891-1.169l0.7-2.507A8.319,8.319,0,0,0,111.424,42.531Zm49.36-11.64a5.079,5.079,0,0,1,4.454,2.171,7.3,7.3,0,0,1,1.2,4.261,6.968,6.968,0,0,1-.111,1.365h-9.069a3.92,3.92,0,0,0,1.314,3.063,4.509,4.509,0,0,0,2.966.946,10.084,10.084,0,0,0,3.67-.641l0.473,2.088a11.4,11.4,0,0,1-4.561.836,6.624,6.624,0,0,1-4.971-1.852,6.823,6.823,0,0,1-1.805-4.969,7.725,7.725,0,0,1,1.68-5.1A5.811,5.811,0,0,1,160.784,30.891Zm2.771,5.653a4.071,4.071,0,0,0-.585-2.311,2.647,2.647,0,0,0-2.41-1.253,2.875,2.875,0,0,0-2.408,1.226,4.455,4.455,0,0,0-.893,2.339h6.3Z"/>
</svg>
