<svg xmlns="http://www.w3.org/2000/svg" width="180" height="60" viewBox="0 0 180 60">
  <defs>
    <style>
      .cls-1 {
        fill: #555;
        fill-rule: evenodd;
      }
    </style>
  </defs>
  <path id="CONNEXION" class="cls-1" d="M172.2,40.948V36.526c0-2.7.042-3.864-1.444-3.864-0.826,0-.92.408-0.92,0.408s0.083,1.481.083,2.318v5.559h-2.766V35.431c0-1.932-.166-2.769-1.445-2.769a0.7,0.7,0,0,0-.781.365v7.92h-2.766V30.237H164.9v0.515a11.484,11.484,0,0,1,1.4-.58c0.35-.107-0.313-0.193-0.024-0.193a3.292,3.292,0,0,1,2.518.88c1.053-.408,1.415-0.88,2.529-0.88,2.808,0,3.633,1.7,3.633,5.366v5.6H172.2Zm-16.18-.011c-3.592,0-4.748-2.263-4.748-5.489s1.156-5.468,4.748-5.468,4.747,2.242,4.747,5.468S159.609,40.937,156.018,40.937Zm0-8.422c-1.528,0-1.94,1.006-1.94,2.933s0.412,2.954,1.94,2.954,1.94-1.027,1.94-2.954S157.545,32.514,156.018,32.514Zm-8.612,5.741c0.816,0,2.492-.168,2.492-0.168l0.086,2.409a25.94,25.94,0,0,1-3.5.44c-3.2,0-4.468-1.655-4.468-5.594,0-3.708,1.332-5.364,4.533-5.364a23.519,23.519,0,0,1,3.437.44L149.9,32.829s-1.7-.168-2.513-0.168c-2.063,0-2.683.691-2.683,2.682C144.7,37.585,145.344,38.255,147.406,38.255Zm-9.39.3h2.358v2.38h-2.358v-2.38ZM133.216,30h2.766V40.978h-2.766V30Zm0-3.039h2.766v2.083h-2.766V26.961Zm-4.469,13.987-1.672-3.366-1.651,3.366h-2.952l2.807-5.479-2.807-5.5h2.952l1.651,3.388,1.672-3.388H131.7l-2.828,5.5,2.828,5.479h-2.952Zm-8.781-24.328h-0.022V21.96h-1.623V13.983h1.722l3.289,5.352h0.022V13.983h1.622V21.96h-1.732ZM122.1,35.448c0,3.227-1.156,5.489-4.747,5.489s-4.748-2.263-4.748-5.489,1.156-5.468,4.748-5.468S122.1,32.221,122.1,35.448Zm-4.747-2.933c-1.528,0-1.941,1.006-1.941,2.933s0.413,2.954,1.941,2.954,1.94-1.027,1.94-2.954S118.884,32.514,117.357,32.514Zm-1.684-11.687a3.56,3.56,0,0,1-1.214.848,4.44,4.44,0,0,1-3.267,0,3.56,3.56,0,0,1-1.214-.848,3.708,3.708,0,0,1-.762-1.267A4.543,4.543,0,0,1,108.951,18a4.7,4.7,0,0,1,.265-1.589,3.805,3.805,0,0,1,.762-1.288,3.5,3.5,0,0,1,1.214-.859,4.44,4.44,0,0,1,3.267,0,3.5,3.5,0,0,1,1.214.859,3.787,3.787,0,0,1,.761,1.288A4.675,4.675,0,0,1,116.7,18a4.519,4.519,0,0,1-.265,1.557A3.691,3.691,0,0,1,115.673,20.827Zm-0.823-3.8a2.55,2.55,0,0,0-.369-0.843,1.866,1.866,0,0,0-.662-0.59,2.352,2.352,0,0,0-1.987,0,1.858,1.858,0,0,0-.662.59,2.531,2.531,0,0,0-.37.843,4.1,4.1,0,0,0-.116.977,3.813,3.813,0,0,0,.116.939,2.482,2.482,0,0,0,.37.821,1.875,1.875,0,0,0,.662.585,2.352,2.352,0,0,0,1.987,0,1.884,1.884,0,0,0,.662-0.585,2.5,2.5,0,0,0,.369-0.821A3.766,3.766,0,0,0,114.966,18,4.05,4.05,0,0,0,114.85,17.026ZM106.5,40.937c-3.592,0-4.747-2.263-4.747-5.489s1.155-5.468,4.747-5.468,4.747,2.242,4.747,5.468S110.089,40.937,106.5,40.937Zm0-8.422c-1.527,0-1.94,1.006-1.94,2.933s0.413,2.954,1.94,2.954,1.94-1.027,1.94-2.954S108.025,32.514,106.5,32.514Zm-0.9-18.5h1.733v7.977H105.6V14.014Zm-3.2,7.946-1.722-2.76L98.92,21.96H96.966l2.759-4.179-2.538-3.8H99.2l1.546,2.547,1.6-2.547h1.9l-2.527,3.81,2.748,4.167H102.4ZM90.119,14.014h5.893v1.475H91.851V17.2H95.67v1.363H91.851v1.955H96.1v1.475H90.119V14.014ZM86.61,38.556h2.358v2.38H86.61v-2.38ZM83.226,16.651H83.2v5.34H81.582V14.014H83.3l3.289,5.352h0.022V14.014h1.622v7.977H86.5ZM85.068,35.3c0,4.407-1.527,5.5-4.686,5.5a11.989,11.989,0,0,1-1.713-.166V44.9H75.9V30.227h2.766V30.7A6.114,6.114,0,0,1,81,29.979C83.727,29.979,85.068,31.324,85.068,35.3Zm-4.6-2.772a6.952,6.952,0,0,0-1.8.393v5.276s0.929,0.1,1.507.1c1.651,0,2.085-.807,2.085-3C82.261,33.207,81.559,32.524,80.465,32.524ZM74.607,16.651H74.585v5.34H72.962V14.014h1.722l3.289,5.352h0.022V14.014h1.622v7.977H77.885Zm-4.293,4.176a3.559,3.559,0,0,1-1.214.848,4.44,4.44,0,0,1-3.267,0,3.558,3.558,0,0,1-1.214-.848,3.7,3.7,0,0,1-.761-1.267A4.531,4.531,0,0,1,63.593,18a4.687,4.687,0,0,1,.265-1.589,3.8,3.8,0,0,1,.761-1.288,3.493,3.493,0,0,1,1.214-.859,4.44,4.44,0,0,1,3.267,0,3.494,3.494,0,0,1,1.214.859,3.8,3.8,0,0,1,.762,1.288A4.684,4.684,0,0,1,71.34,18a4.528,4.528,0,0,1-.265,1.557A3.7,3.7,0,0,1,70.314,20.827Zm-0.822-3.8a2.555,2.555,0,0,0-.37-0.843,1.861,1.861,0,0,0-.662-0.59,2.351,2.351,0,0,0-1.987,0,1.857,1.857,0,0,0-.662.59,2.547,2.547,0,0,0-.37.843,4.085,4.085,0,0,0-.116.977,3.8,3.8,0,0,0,.116.939,2.5,2.5,0,0,0,.37.821,1.874,1.874,0,0,0,.662.585,2.351,2.351,0,0,0,1.987,0,1.878,1.878,0,0,0,.662-0.585,2.506,2.506,0,0,0,.37-0.821A3.8,3.8,0,0,0,69.607,18,4.09,4.09,0,0,0,69.491,17.026ZM63.553,40.937a4.237,4.237,0,0,1-2.931-.712,10.065,10.065,0,0,1-3.158.712c-2.043,0-3.075-1.341-3.075-3.436,0-2.368,1.321-3.059,3.592-3.227l2.229-.147V33.6a0.946,0.946,0,0,0-1.032-.943c-1.527,0-4,.168-4,0.168L55.09,30.44a35,35,0,0,1,4.252-.461c2.312,0,3.633.922,3.633,3.6v3.876c0,0.775.082,0.985,0.66,1.089Zm-3.344-4.672-1.878.084a1,1,0,0,0-1.156,1.069c0,0.733.268,1.11,0.846,1.11a12.468,12.468,0,0,0,2.188-.314V36.265Zm-3.017-16.5a1.875,1.875,0,0,0,.662.585,2.068,2.068,0,0,0,.993.22,1.617,1.617,0,0,0,1.242-.478,2.171,2.171,0,0,0,.546-1.24h1.678a3.817,3.817,0,0,1-.342,1.3,3.116,3.116,0,0,1-.728.988,3.183,3.183,0,0,1-1.059.628,3.9,3.9,0,0,1-1.335.22,4.067,4.067,0,0,1-1.633-.311A3.557,3.557,0,0,1,56,20.827a3.7,3.7,0,0,1-.761-1.267A4.528,4.528,0,0,1,54.973,18a4.684,4.684,0,0,1,.265-1.589A3.8,3.8,0,0,1,56,15.126a3.492,3.492,0,0,1,1.214-.859,4.351,4.351,0,0,1,2.864-.129,3.369,3.369,0,0,1,1.037.531,2.9,2.9,0,0,1,.756.864,3.031,3.031,0,0,1,.375,1.181H60.569a1.354,1.354,0,0,0-.2-0.532,1.715,1.715,0,0,0-.386-0.424,1.8,1.8,0,0,0-.524-0.284,1.849,1.849,0,0,0-.613-0.1,2.07,2.07,0,0,0-.993.22,1.858,1.858,0,0,0-.662.59,2.551,2.551,0,0,0-.37.843,4.09,4.09,0,0,0-.116.977,3.8,3.8,0,0,0,.116.939A2.5,2.5,0,0,0,57.191,19.764ZM33,25.292v3.42c0,2.278,0,2.279-1.992,2.279s-1.992,0-1.992-2.279v-3.42c0-2.278,0-2.28,1.992-2.28S33,23.013,33,25.292Zm-7,0v3.42c0,2.278,0,2.279-2.008,2.279s-2.007,0-2.007-2.279v-3.42c0-2.278,0-2.28,2.007-2.28S26,23.013,26,25.292Zm-7.01,11.717h4.014l1.5,0.983h6l1.5-.983h8.015V17H14.992v3.009H12.01V22h2.982v0.16a2.885,2.885,0,0,1,2.021,2.713V37.009h0v3.983h0v1.124a2.94,2.94,0,0,1-3,2.873H7a2.94,2.94,0,0,1-3-2.873V24.873A2.94,2.94,0,0,1,7,22h5V16.865a2.893,2.893,0,0,1,2.908-2.878H40.083a2.893,2.893,0,0,1,2.908,2.878V37H43l4,1.339v2.652H18.993V37.009Zm-10,5.986h3v-1h-3v1Zm3-19.006h-3v1h3v-1ZM5.986,27V41.015H15V27H5.986Zm61.684,3.7A6.114,6.114,0,0,1,70,29.979c2.725,0,4.066,1.345,4.066,5.317,0,4.407-1.527,5.5-4.686,5.5a11.989,11.989,0,0,1-1.713-.166V44.9H64.9V30.227h2.766V30.7Zm0,7.489s0.929,0.1,1.507.1c1.651,0,2.085-.807,2.085-3,0-2.09-.7-2.772-1.8-2.772a6.952,6.952,0,0,0-1.8.393v5.276Zm26.1-7.254A8.643,8.643,0,0,1,96,30.479c2.807,0,4.169,1.3,4.169,5.119,0,4.279-1.507,5.339-5.14,5.339-0.991,0-4.025-.28-4.025-0.28V26.988h2.766v3.951Zm0,7.479s0.95,0.1,1.259.1c1.9,0,2.332-.78,2.332-2.919,0-2-.66-2.64-1.734-2.64a18.372,18.372,0,0,0-1.858.16v5.3Z"/>
</svg>
