<svg xmlns="http://www.w3.org/2000/svg" width="180" height="60" viewBox="0 0 180 60">
  <defs>
    <style>
      .cls-1 {
        fill: #555;
        fill-rule: evenodd;
      }
    </style>
  </defs>
  <path id="SIGN_IN_ONLINE" data-name="SIGN IN ONLINE" class="cls-1" d="M172.2,40.948V36.526c0-2.7.042-3.864-1.444-3.864-0.826,0-.92.408-0.92,0.408s0.083,1.481.083,2.318v5.559h-2.766V35.431c0-1.932-.166-2.769-1.445-2.769a0.7,0.7,0,0,0-.781.365v7.92h-2.766V30.237H164.9v0.515a11.484,11.484,0,0,1,1.4-.58c0.35-.107-0.313-0.193-0.024-0.193a3.292,3.292,0,0,1,2.518.88c1.053-.408,1.415-0.88,2.529-0.88,2.808,0,3.633,1.7,3.633,5.366v5.6H172.2Zm-16.18-.011c-3.592,0-4.748-2.263-4.748-5.489s1.156-5.468,4.748-5.468,4.747,2.242,4.747,5.468S159.609,40.937,156.018,40.937Zm0-8.422c-1.528,0-1.94,1.006-1.94,2.933s0.412,2.954,1.94,2.954,1.94-1.027,1.94-2.954S157.545,32.514,156.018,32.514Zm-8.612,5.741c0.816,0,2.492-.168,2.492-0.168l0.086,2.409a25.94,25.94,0,0,1-3.5.44c-3.2,0-4.468-1.655-4.468-5.594,0-3.708,1.332-5.364,4.533-5.364a23.519,23.519,0,0,1,3.437.44L149.9,32.829s-1.7-.168-2.513-0.168c-2.063,0-2.683.691-2.683,2.682C144.7,37.585,145.344,38.255,147.406,38.255Zm-7.433-24.261h5.939v1.481h-4.193v1.716h3.848v1.368h-3.848v1.963H146V22h-6.028V13.994Zm-6.8,2.647H133.15V22h-1.62V13.994h1.719l3.284,5.372h0.022V13.994h1.62V22h-1.73Zm-5.251-2.647h1.811V22h-1.811V13.994ZM131.7,29.969l-2.828,5.5,2.828,5.479h-2.952l-1.672-3.366-1.651,3.366h-2.952l2.807-5.479-2.807-5.5h2.952l1.651,3.388,1.672-3.388H131.7ZM121.283,13.994h1.689v6.528h3.742V22h-5.431V13.994Zm-7.24,2.647h-0.024V22h-1.762V13.994h1.87l3.573,5.372h0.024V13.994h1.762V22H117.6Zm-7.545,24.3c-3.592,0-4.747-2.263-4.747-5.489s1.155-5.468,4.747-5.468,4.747,2.242,4.747,5.468S110.089,40.937,106.5,40.937Zm0-8.422c-1.527,0-1.94,1.006-1.94,2.933s0.413,2.954,1.94,2.954,1.94-1.027,1.94-2.954S108.025,32.514,106.5,32.514Zm3.51-11.666a3.6,3.6,0,0,1-1.228.846,4.543,4.543,0,0,1-3.3,0,3.6,3.6,0,0,1-1.228-.846,3.7,3.7,0,0,1-.77-1.264,4.48,4.48,0,0,1-.267-1.554,4.635,4.635,0,0,1,.267-1.586,3.8,3.8,0,0,1,.77-1.286,3.531,3.531,0,0,1,1.228-.857,4.543,4.543,0,0,1,3.3,0,3.531,3.531,0,0,1,1.228.857,3.783,3.783,0,0,1,.77,1.286,4.635,4.635,0,0,1,.268,1.586,4.48,4.48,0,0,1-.268,1.554A3.685,3.685,0,0,1,110.008,20.849Zm-0.832-3.793a2.528,2.528,0,0,0-.373-0.841,1.881,1.881,0,0,0-.67-0.589,2.406,2.406,0,0,0-2.009,0,1.869,1.869,0,0,0-.669.589,2.51,2.51,0,0,0-.374.841,4.034,4.034,0,0,0-.117.975,3.753,3.753,0,0,0,.117.938,2.463,2.463,0,0,0,.374.82,1.889,1.889,0,0,0,.669.584,2.406,2.406,0,0,0,2.009,0,1.9,1.9,0,0,0,.67-0.584,2.482,2.482,0,0,0,.373-0.82,3.708,3.708,0,0,0,.118-0.938A3.985,3.985,0,0,0,109.176,17.055ZM95.025,40.937c-0.991,0-4.025-.28-4.025-0.28V26.988h2.766v3.951A8.643,8.643,0,0,1,96,30.479c2.807,0,4.169,1.3,4.169,5.119C100.165,39.877,98.658,40.937,95.025,40.937Zm0.6-7.979a18.372,18.372,0,0,0-1.858.16v5.3s0.95,0.1,1.259.1c1.9,0,2.332-.78,2.332-2.919C97.358,33.6,96.7,32.958,95.624,32.958Zm-2.68-16.317H92.92V22H91.158V13.994h1.87L96.6,19.367h0.024V13.994h1.762V22H96.5Zm-5.41-2.647h1.811V22H87.534V13.994Zm1.434,26.942H86.61v-2.38h2.358v2.38ZM80.383,40.8a11.989,11.989,0,0,1-1.713-.166V44.9H75.9V30.227h2.766V30.7A6.114,6.114,0,0,1,81,29.979c2.725,0,4.066,1.345,4.066,5.317C85.068,39.7,83.541,40.8,80.383,40.8Zm0.083-8.276a6.952,6.952,0,0,0-1.8.393v5.276s0.929,0.1,1.507.1c1.651,0,2.085-.807,2.085-3C82.261,33.207,81.559,32.524,80.465,32.524Zm-3.8-15.883H76.645V22H74.883V13.994h1.87l3.573,5.372H80.35V13.994h1.762V22H80.23ZM69.383,40.8a11.989,11.989,0,0,1-1.713-.166V44.9H64.9V30.227h2.766V30.7A6.114,6.114,0,0,1,70,29.979c2.725,0,4.066,1.345,4.066,5.317C74.068,39.7,72.541,40.8,69.383,40.8Zm0.083-8.276a6.952,6.952,0,0,0-1.8.393v5.276s0.929,0.1,1.507.1c1.651,0,2.085-.807,2.085-3C71.261,33.207,70.559,32.524,69.465,32.524Zm2.343-11.568a2.608,2.608,0,0,1-1.015.814,2.86,2.86,0,0,1-1.124.236,3.987,3.987,0,0,1-1.615-.311,3.517,3.517,0,0,1-1.2-.846,3.7,3.7,0,0,1-.753-1.264,4.561,4.561,0,0,1-.262-1.554,4.719,4.719,0,0,1,.262-1.586,3.8,3.8,0,0,1,.753-1.286,3.451,3.451,0,0,1,1.2-.857,3.987,3.987,0,0,1,1.615-.311,3.851,3.851,0,0,1,1.162.177,3.25,3.25,0,0,1,1.009.52,2.973,2.973,0,0,1,.747.846,2.77,2.77,0,0,1,.365,1.157H71.318a1.6,1.6,0,0,0-.595-0.964,1.742,1.742,0,0,0-1.053-.321,2.03,2.03,0,0,0-.982.22,1.842,1.842,0,0,0-.654.589,2.552,2.552,0,0,0-.365.841,4.109,4.109,0,0,0-.115.975,3.822,3.822,0,0,0,.115.938,2.5,2.5,0,0,0,.365.82,1.861,1.861,0,0,0,.654.584,2.029,2.029,0,0,0,.982.22,1.885,1.885,0,0,0,1.309-.423,1.813,1.813,0,0,0,.546-1.227H69.8V17.688h3.273v4.136H71.983ZM62.82,13.994h1.811V22H62.82V13.994ZM60.8,21.3a3.108,3.108,0,0,1-1.028.514,4.873,4.873,0,0,1-1.42.188,4.969,4.969,0,0,1-1.265-.161,3.244,3.244,0,0,1-1.078-.493,2.506,2.506,0,0,1-.746-0.846,2.426,2.426,0,0,1-.271-1.222h1.68a1.367,1.367,0,0,0,.144.654,1.225,1.225,0,0,0,.381.434,1.674,1.674,0,0,0,.553.246,2.7,2.7,0,0,0,.669.08,3.547,3.547,0,0,0,.5-0.037,1.769,1.769,0,0,0,.5-0.145,1.081,1.081,0,0,0,.387-0.295,0.725,0.725,0,0,0,.155-0.477,0.661,0.661,0,0,0-.2-0.5,1.7,1.7,0,0,0-.536-0.327,4.643,4.643,0,0,0-.751-0.225q-0.42-.091-0.851-0.209a7.718,7.718,0,0,1-.862-0.263,2.982,2.982,0,0,1-.751-0.4,1.923,1.923,0,0,1-.536-0.611,1.814,1.814,0,0,1-.2-0.9,1.954,1.954,0,0,1,.26-1.023,2.3,2.3,0,0,1,.68-0.723,3.006,3.006,0,0,1,.951-0.429,4.164,4.164,0,0,1,1.061-.139,5.17,5.17,0,0,1,1.188.134,3.01,3.01,0,0,1,1.011.434,2.221,2.221,0,0,1,.7.766,2.293,2.293,0,0,1,.26,1.131h-1.68a1.322,1.322,0,0,0-.149-0.568,0.96,0.96,0,0,0-.337-0.354,1.455,1.455,0,0,0-.486-0.182,3.075,3.075,0,0,0-.586-0.054,2.1,2.1,0,0,0-.42.043,1.148,1.148,0,0,0-.381.15,0.92,0.92,0,0,0-.282.273,0.708,0.708,0,0,0-.111.4,0.669,0.669,0,0,0,.088.364,0.756,0.756,0,0,0,.348.252,5.4,5.4,0,0,0,.718.236q0.459,0.123,1.2.305,0.143,0.032.376,0.091a4.179,4.179,0,0,1,.492.161,3.24,3.24,0,0,1,.519.262,2.245,2.245,0,0,1,.475.4,1.862,1.862,0,0,1,.348.563,2,2,0,0,1,.133.755,2.281,2.281,0,0,1-.21.975A2.128,2.128,0,0,1,60.8,21.3ZM57.98,34.274l2.229-.147V33.6a0.946,0.946,0,0,0-1.032-.943c-1.527,0-4,.168-4,0.168L55.09,30.44a35,35,0,0,1,4.252-.461c2.312,0,3.633.922,3.633,3.6v3.876c0,0.775.082,0.985,0.66,1.089l-0.083,2.389a4.237,4.237,0,0,1-2.931-.712,10.065,10.065,0,0,1-3.158.712c-2.043,0-3.075-1.341-3.075-3.436C54.388,35.133,55.709,34.442,57.98,34.274Zm0.041,4.253a12.468,12.468,0,0,0,2.188-.314V36.265l-1.878.084a1,1,0,0,0-1.156,1.069C57.175,38.15,57.443,38.528,58.021,38.528ZM33,25.292v3.42c0,2.278,0,2.279-1.992,2.279s-1.992,0-1.992-2.279v-3.42c0-2.278,0-2.28,1.992-2.28S33,23.013,33,25.292Zm-7,0v3.42c0,2.278,0,2.279-2.008,2.279s-2.007,0-2.007-2.279v-3.42c0-2.278,0-2.28,2.007-2.28S26,23.013,26,25.292Zm-7.01,11.717h4.014l1.5,0.983h6l1.5-.983h8.015V17H14.992v3.009H12.01V22h2.982v0.16a2.885,2.885,0,0,1,2.021,2.713V37.009h0v3.983h0v1.124a2.94,2.94,0,0,1-3,2.873H7a2.94,2.94,0,0,1-3-2.873V24.873A2.94,2.94,0,0,1,7,22h5V16.865a2.893,2.893,0,0,1,2.908-2.878H40.083a2.893,2.893,0,0,1,2.908,2.878V37H43l4,1.339v2.652H18.993V37.009Zm-10,5.986h3v-1h-3v1Zm3-19.006h-3v1h3v-1ZM5.986,27V41.015H15V27H5.986Zm111.371,2.975c3.591,0,4.747,2.242,4.747,5.468s-1.156,5.489-4.747,5.489-4.748-2.263-4.748-5.489S113.765,29.979,117.357,29.979Zm0,8.423c1.527,0,1.94-1.027,1.94-2.954s-0.413-2.933-1.94-2.933-1.941,1.006-1.941,2.933S115.829,38.4,117.357,38.4Zm18.625-9.358h-2.766V26.961h2.766v2.083Zm0,11.934h-2.766V30h2.766V40.978Zm4.392-.042h-2.358v-2.38h2.358v2.38Z"/>
</svg>
