<svg xmlns="http://www.w3.org/2000/svg" width="180" height="60" viewBox="0 0 180 60">
  <defs>
    <style>
      .cls-1 {
        fill: #555;
        fill-rule: evenodd;
      }
    </style>
  </defs>
  <path id="TÉLÉCHARGER_DANS" data-name="TÉLÉCHARGER DANS" class="cls-1" d="M169.512,21.158a3.12,3.12,0,0,1-1.031.515,4.891,4.891,0,0,1-1.424.188,4.987,4.987,0,0,1-1.269-.161,3.264,3.264,0,0,1-1.081-.494,2.52,2.52,0,0,1-.748-0.848,2.425,2.425,0,0,1-.271-1.224h1.684a1.37,1.37,0,0,0,.144.655,1.231,1.231,0,0,0,.383.435,1.681,1.681,0,0,0,.554.247,2.7,2.7,0,0,0,.67.081,3.559,3.559,0,0,0,.5-0.038,1.778,1.778,0,0,0,.5-0.145,1.089,1.089,0,0,0,.388-0.3,0.728,0.728,0,0,0,.155-0.478,0.664,0.664,0,0,0-.2-0.5,1.71,1.71,0,0,0-.538-0.328,4.655,4.655,0,0,0-.753-0.225q-0.422-.091-0.854-0.209a7.759,7.759,0,0,1-.864-0.263,3,3,0,0,1-.754-0.4,1.929,1.929,0,0,1-.537-0.612,1.815,1.815,0,0,1-.2-0.9,1.964,1.964,0,0,1,.26-1.025A2.319,2.319,0,0,1,164.9,14.4a3.005,3.005,0,0,1,.953-0.429,4.18,4.18,0,0,1,1.064-.14,5.191,5.191,0,0,1,1.191.134,3.015,3.015,0,0,1,1.014.435,2.225,2.225,0,0,1,.7.768,2.3,2.3,0,0,1,.26,1.133H168.4a1.325,1.325,0,0,0-.15-0.569,0.964,0.964,0,0,0-.338-0.354,1.458,1.458,0,0,0-.487-0.182,3.1,3.1,0,0,0-.588-0.054,2.111,2.111,0,0,0-.421.043,1.147,1.147,0,0,0-.382.15,0.921,0.921,0,0,0-.283.274,0.709,0.709,0,0,0-.111.4,0.672,0.672,0,0,0,.089.365,0.755,0.755,0,0,0,.349.252,5.467,5.467,0,0,0,.72.236q0.461,0.124,1.2.306c0.1,0.021.221,0.052,0.377,0.091a4.228,4.228,0,0,1,.493.161,3.291,3.291,0,0,1,.521.263,2.26,2.26,0,0,1,.476.4,1.855,1.855,0,0,1,.349.564,2,2,0,0,1,.133.757,2.285,2.285,0,0,1-.21.977A2.138,2.138,0,0,1,169.512,21.158Zm-0.274,11.9a7.3,7.3,0,0,1,1.2,4.261,6.968,6.968,0,0,1-.111,1.365h-9.069a3.92,3.92,0,0,0,1.314,3.063,4.509,4.509,0,0,0,2.966.946,10.084,10.084,0,0,0,3.67-.641l0.473,2.088a11.4,11.4,0,0,1-4.561.836,6.624,6.624,0,0,1-4.971-1.852,6.823,6.823,0,0,1-1.805-4.969,7.725,7.725,0,0,1,1.68-5.1,5.811,5.811,0,0,1,4.759-2.171A5.079,5.079,0,0,1,169.238,33.062ZM162.152,34.2a4.455,4.455,0,0,0-.893,2.339h6.3a4.071,4.071,0,0,0-.585-2.311,2.647,2.647,0,0,0-2.41-1.253A2.875,2.875,0,0,0,162.152,34.2Zm-4.97-17.6H157.16V21.96h-1.629V14.014h1.729l3.3,5.268h0.022V14.014h1.629V21.96h-1.74Zm-0.1,14.531v2.868a5.306,5.306,0,0,0-.955-0.083,2.859,2.859,0,0,0-2.463,1.2,4.469,4.469,0,0,0-.756,2.672v7.1H149.89l0.027-9.274q0-2.339-.114-4.26h2.635l0.111,2.59h0.082a4.623,4.623,0,0,1,1.513-2.143,3.665,3.665,0,0,1,2.185-.724A4.854,4.854,0,0,1,157.086,31.14Zm-4.868-11.022h-2.959l-0.621,1.843h-1.762l3-7.946h1.784l2.959,7.946h-1.806Zm-1.452-4.168h-0.022l-1.031,2.882h2.05Zm-5.37,4.784a3.136,3.136,0,0,1-1.119.83,3.805,3.805,0,0,1-1.579.4l-3.413-.094V14.014H142.7a4.105,4.105,0,0,1,1.424.242,3.1,3.1,0,0,1,1.141.726,3.34,3.34,0,0,1,.754,1.21,4.86,4.86,0,0,1,.272,1.7,5.393,5.393,0,0,1-.222,1.584A3.469,3.469,0,0,1,145.4,20.733Zm-0.964-3.745a2.128,2.128,0,0,0-.382-0.819,1.693,1.693,0,0,0-.7-0.522,2.828,2.828,0,0,0-1.08-.182h-1.242v4.949h1.552a2.243,2.243,0,0,0,.731-0.121,1.61,1.61,0,0,0,.632-0.4,2,2,0,0,0,.443-0.731,3.189,3.189,0,0,0,.167-1.1A4.521,4.521,0,0,0,144.432,16.989ZM145.355,32.9a7.1,7.1,0,0,1,1.737,4.956,7.39,7.39,0,0,1-1.793,5.122,6.41,6.41,0,0,1-4.984,2.062,6.1,6.1,0,0,1-4.773-1.976,7.175,7.175,0,0,1-1.778-4.985,7.327,7.327,0,0,1,1.833-5.151,6.369,6.369,0,0,1,4.943-2.005A6.227,6.227,0,0,1,145.355,32.9Zm-7.7,1.841a6.19,6.19,0,0,0-.813,3.269,6.07,6.07,0,0,0,.813,3.211,3.1,3.1,0,0,0,5.458-.028,6.709,6.709,0,0,0,.029-6.452,2.993,2.993,0,0,0-2.714-1.62A3.033,3.033,0,0,0,137.656,34.738ZM132.5,21.454c-0.026-.15-0.048-0.308-0.067-0.473s-0.033-.334-0.044-0.506-0.028-.335-0.05-0.49a1.554,1.554,0,0,0-.377-0.9,1.3,1.3,0,0,0-.942-0.286h-1.74v3.069h-1.74V14.014H131.8a2.568,2.568,0,0,1,.959.17,2.212,2.212,0,0,1,.731.467,2.032,2.032,0,0,1,.466.693,2.2,2.2,0,0,1,.16.836,2.354,2.354,0,0,1-.293,1.2,1.845,1.845,0,0,1-.959.77v0.022a1.345,1.345,0,0,1,.532.269,1.486,1.486,0,0,1,.344.434,2.081,2.081,0,0,1,.193.544,4.494,4.494,0,0,1,.084.588c0.007,0.125.014,0.271,0.022,0.44s0.02,0.339.039,0.511a3.506,3.506,0,0,0,.088.5,1.161,1.161,0,0,0,.183.407h-1.74A1.915,1.915,0,0,1,132.5,21.454Zm-0.421-5.84a1.35,1.35,0,0,0-.893-0.258h-1.906v2.211h1.906a1.33,1.33,0,0,0,.893-0.264,1.08,1.08,0,0,0,.3-0.858A1.032,1.032,0,0,0,132.076,15.614Zm-12.163-1.6h5.918v1.452h-4.178v1.683h3.834V18.49h-3.834v2.018h4.266V21.96h-6.006V14.014Zm0.662,15.012a7.458,7.458,0,0,0-3.612-.865,3.659,3.659,0,0,0-2.489.782,2.224,2.224,0,0,0-.757,1.7,2.285,2.285,0,0,0,.869,1.837,9.784,9.784,0,0,0,2.743,1.449,9.314,9.314,0,0,1,3.584,2.282,4.772,4.772,0,0,1,1.146,3.259,4.988,4.988,0,0,1-1.675,3.9,7.453,7.453,0,0,1-5.14,1.643,9.044,9.044,0,0,1-4.891-1.169l0.7-2.507a8.319,8.319,0,0,0,4.371,1.2,4.145,4.145,0,0,0,2.661-.767,2.494,2.494,0,0,0,.95-2.051,2.6,2.6,0,0,0-.784-1.924,7.309,7.309,0,0,0-2.6-1.452q-4.958-1.839-4.956-5.383a4.762,4.762,0,0,1,1.737-3.794,6.885,6.885,0,0,1,4.621-1.478,9.189,9.189,0,0,1,4.28.891Zm-3.8-8.216a2.647,2.647,0,0,1-1.031.816,2.941,2.941,0,0,1-1.142.236,4.1,4.1,0,0,1-1.64-.311,3.581,3.581,0,0,1-1.219-.848,3.7,3.7,0,0,1-.764-1.267,4.5,4.5,0,0,1-.266-1.557,4.652,4.652,0,0,1,.266-1.589A3.794,3.794,0,0,1,111.745,15a3.512,3.512,0,0,1,1.219-.859,4.1,4.1,0,0,1,1.64-.311,3.963,3.963,0,0,1,1.181.177,3.319,3.319,0,0,1,1.025.521,2.984,2.984,0,0,1,.759.848,2.749,2.749,0,0,1,.371,1.16h-1.662a1.6,1.6,0,0,0-.6-0.966,1.786,1.786,0,0,0-1.07-.322,2.085,2.085,0,0,0-1,.22,1.867,1.867,0,0,0-.665.59,2.532,2.532,0,0,0-.371.843,4.049,4.049,0,0,0-.117.977,3.766,3.766,0,0,0,.117.939,2.483,2.483,0,0,0,.371.821,1.884,1.884,0,0,0,.665.585,2.083,2.083,0,0,0,1,.22,1.93,1.93,0,0,0,1.33-.424,1.8,1.8,0,0,0,.554-1.229h-1.751V17.535h3.325v4.144h-1.108Zm-9.2.738c-0.026-.15-0.048-0.4-0.067-0.567s-0.033-.334-0.044-0.506-0.028-.335-0.05-0.49a1.554,1.554,0,0,0-.377-0.9,1.3,1.3,0,0,0-.942-0.286h-1.74V21.96h-1.739V14.014h4.266a2.568,2.568,0,0,1,.959.17,2.212,2.212,0,0,1,.731.467,2.018,2.018,0,0,1,.466.693,2.2,2.2,0,0,1,.16.836,2.354,2.354,0,0,1-.293,1.2,1.845,1.845,0,0,1-.959.77v0.022a1.345,1.345,0,0,1,.532.269,1.486,1.486,0,0,1,.344.434,2.12,2.12,0,0,1,.194.544,4.667,4.667,0,0,1,.083.588c0.007,0.125.014,0.271,0.022,0.44s0.02,0.339.039,0.511a5.141,5.141,0,0,0,.088.594,1.161,1.161,0,0,0,.183.407h-1.74A1.916,1.916,0,0,1,107.573,21.548Zm-0.421-5.934a1.349,1.349,0,0,0-.892-0.258h-1.907v2.211h1.907a1.329,1.329,0,0,0,.892-0.264,1.08,1.08,0,0,0,.3-0.858A1.032,1.032,0,0,0,107.152,15.614ZM102.035,43a5.5,5.5,0,0,1-4.171,1.782A4.175,4.175,0,0,1,94,42.865H93.944v7.129H90.921V35.4q0-2.171-.112-4.456h2.659l0.168,2.145h0.055a5.4,5.4,0,0,1,8.611-.53,7.447,7.447,0,0,1,1.609,4.986A7.666,7.666,0,0,1,102.035,43Zm-2.1-8.6A3.1,3.1,0,0,0,97.3,33.062a3.148,3.148,0,0,0-2.029.738,3.411,3.411,0,0,0-1.19,1.936,3.888,3.888,0,0,0-.14.917V38.91a3.6,3.6,0,0,0,.91,2.493A3.024,3.024,0,0,0,97.22,42.42a3.1,3.1,0,0,0,2.66-1.309,5.748,5.748,0,0,0,.951-3.454A5.552,5.552,0,0,0,99.935,34.4ZM99.078,20.118H96.119L95.5,21.96H93.737l3-7.946h1.784l2.959,7.946H99.677Zm-1.452-4.168H97.6l-1.031,2.882h2.05Zm-6.76,2.53h-3.2V21.96h-1.74V14.014h1.74v3.013h3.2V14.014h1.74V21.96h-1.74V18.479Zm-11.714,1.16a1.879,1.879,0,0,0,.665.585,2.083,2.083,0,0,0,1,.22,1.627,1.627,0,0,0,1.247-.478,2.166,2.166,0,0,0,.549-1.24h1.685a3.8,3.8,0,0,1-.343,1.3,3.118,3.118,0,0,1-.731.988,3.2,3.2,0,0,1-1.064.628,3.926,3.926,0,0,1-1.341.22,4.1,4.1,0,0,1-1.64-.311,3.572,3.572,0,0,1-1.219-.848,3.7,3.7,0,0,1-.765-1.267,4.513,4.513,0,0,1-.266-1.557,4.669,4.669,0,0,1,.266-1.589A3.8,3.8,0,0,1,77.955,15a3.5,3.5,0,0,1,1.219-.859,4.388,4.388,0,0,1,2.876-.129,3.39,3.39,0,0,1,1.042.532,2.9,2.9,0,0,1,.759.864,3.021,3.021,0,0,1,.377,1.181H82.543a1.351,1.351,0,0,0-.2-0.531,1.716,1.716,0,0,0-.388-0.424,1.812,1.812,0,0,0-.527-0.284,1.864,1.864,0,0,0-.615-0.1,2.085,2.085,0,0,0-1,.22,1.862,1.862,0,0,0-.665.59,2.543,2.543,0,0,0-.371.843,4.069,4.069,0,0,0-.116.977,3.785,3.785,0,0,0,.116.939A2.494,2.494,0,0,0,79.152,19.639Zm-9.509-5.625h5.918v1.452H71.384v1.683h3.835V18.49H71.384v1.987H75.65v1.452H69.644V14.014Zm1.995-.687L72.7,11.8h1.74l-1.707,1.524h-1.1Zm-9.01.688h1.74v6.463h3.857v1.452h-5.6V14.014Zm-7.625,0h5.918v1.452H56.744v1.683h3.835V18.49H56.744v1.987h4.267v1.452H55V14.014ZM57,13.326L58.063,11.8H59.8L58.1,13.326H57Zm-5.718,8.6h-1.74V15.465H47.169V14.014h6.483v1.452H51.28v6.463ZM36.1,40.485c-1.486,2.211-3.043,4.369-5.516,4.41-2.4.055-3.211-1.406-5.966-1.406-2.781,0-3.641,1.365-5.945,1.461-2.356.087-4.155-2.359-5.7-4.549C9.9,35.929,7.508,27.8,10.72,22.264a8.836,8.836,0,0,1,7.43-4.506c2.358-.05,4.546,1.583,6,1.583,1.421,0,4.127-1.952,6.916-1.661a8.432,8.432,0,0,1,6.631,3.565,8.174,8.174,0,0,0-3.916,6.86,7.908,7.908,0,0,0,4.85,7.269A18.06,18.06,0,0,1,36.1,40.485ZM23.862,17.268a7.635,7.635,0,0,1,1.9-5.554,8.248,8.248,0,0,1,5.33-2.742,8.018,8.018,0,0,1-1.852,5.767A6.827,6.827,0,0,1,23.862,17.268ZM52.074,44.929H49.043V26.03h3.031v18.9ZM59.99,26.081a28.508,28.508,0,0,1-2.863,6.96l-1.881.2a35.354,35.354,0,0,0,1.768-6.878Zm7.195,0.047L73.289,44.9h-3.22L68.3,39.384H62.173L60.493,44.9H57.357l6.075-18.769h3.752Zm0.589,10.943-1.6-4.9q-0.253-.752-0.953-3.536H65.17q-0.281,1.2-.9,3.536l-1.568,4.9h5.068Zm9.863-3.98h0.055a5.4,5.4,0,0,1,8.611-.53,7.447,7.447,0,0,1,1.609,4.986A7.667,7.667,0,0,1,86.035,43a5.5,5.5,0,0,1-4.172,1.782A4.175,4.175,0,0,1,78,42.865H77.944v7.129H74.921V35.4q0-2.171-.112-4.456h2.659Zm0.308,5.819a3.6,3.6,0,0,0,.91,2.493A3.024,3.024,0,0,0,81.22,42.42a3.1,3.1,0,0,0,2.66-1.309,5.751,5.751,0,0,0,.951-3.454,5.549,5.549,0,0,0-.9-3.257A3.1,3.1,0,0,0,81.3,33.062a3.148,3.148,0,0,0-2.029.738,3.411,3.411,0,0,0-1.19,1.936,3.888,3.888,0,0,0-.14.917V38.91Zm47.812-10.192,2.967-.891V31.2h3.333v2.256h-3.333v6.571q0,2.506,1.766,2.508a5.454,5.454,0,0,0,1.343-.14l0.082,2.284a6.873,6.873,0,0,1-2.352.333,3.626,3.626,0,0,1-2.8-1.085,5.312,5.312,0,0,1-1.008-3.648V33.453h-1.988V31.2h1.988V28.718Z"/>
</svg>
