<?xml version="1.0" encoding="utf-8"?>
<!-- Generator: Adobe Illustrator 16.0.3, SVG Export Plug-In . SVG Version: 6.00 Build 0)  -->
<!DOCTYPE svg PUBLIC "-//W3C//DTD SVG 1.1//EN" "http://www.w3.org/Graphics/SVG/1.1/DTD/svg11.dtd">
<svg version="1.1" xmlns="http://www.w3.org/2000/svg" xmlns:xlink="http://www.w3.org/1999/xlink" x="0px" y="0px" width="32px"
	 height="32px" viewBox="0 0 32 32" enable-background="new 0 0 32 32" xml:space="preserve">
<g id="Ellipse_1_1_" enable-background="new    ">
	<g id="Ellipse_1">
		<g>
			<circle fill="#FFFFFF" cx="16" cy="16" r="6"/>
		</g>
	</g>
</g>
<g id="settings_1_" enable-background="new    ">
	<g id="settings">
		<g>
			<path fill-rule="evenodd" clip-rule="evenodd" fill="#555555" d="M25.731,18.158C25.924,17.545,26,16.637,26,16
				s-0.076-1.545-0.269-2.158l-3.236-0.364c-0.041-0.104-0.076-0.211-0.122-0.313l2.016-2.526c-0.298-0.57-0.887-1.267-1.336-1.716
				c-0.45-0.45-1.146-1.039-1.717-1.336l-2.54,2.026c-0.094-0.041-0.181-0.095-0.276-0.132l-0.361-3.212C17.545,6.076,16.637,6,16,6
				c-0.636,0-1.544,0.076-2.158,0.269l-0.36,3.204c-0.099,0.038-0.188,0.092-0.284,0.134l-2.534-2.021
				c-0.57,0.297-1.266,0.886-1.716,1.336c-0.45,0.449-1.039,1.146-1.336,1.716l2.002,2.509c-0.049,0.108-0.087,0.222-0.131,0.333
				l-3.214,0.361C6.076,14.455,6,15.363,6,16s0.076,1.545,0.269,2.158l3.192,0.359c0.044,0.115,0.101,0.225,0.151,0.337
				l-2.001,2.508c0.298,0.57,0.886,1.267,1.336,1.716c0.45,0.45,1.146,1.039,1.716,1.336l2.534-2.021
				c0.095,0.042,0.187,0.09,0.284,0.127l0.361,3.211C14.456,25.924,15.364,26,16,26c0.637,0,1.545-0.076,2.158-0.269l0.362-3.22
				c0.095-0.037,0.183-0.084,0.275-0.124l2.54,2.026c0.57-0.297,1.267-0.886,1.717-1.336c0.449-0.449,1.038-1.146,1.336-1.716
				l-2.014-2.524c0.047-0.106,0.101-0.209,0.143-0.318L25.731,18.158z M16,21.003c-2.76,0-4.998-2.239-4.998-5.001
				C11.001,13.239,13.239,11,16,11s4.999,2.239,4.999,5.002C20.998,18.764,18.76,21.003,16,21.003z"/>
		</g>
	</g>
</g>
</svg>
