<?xml version="1.0" encoding="utf-8"?>
<!-- Generator: Adobe Illustrator 16.0.0, SVG Export Plug-In . SVG Version: 6.00 Build 0)  -->
<!DOCTYPE svg PUBLIC "-//W3C//DTD SVG 1.1//EN" "http://www.w3.org/Graphics/SVG/1.1/DTD/svg11.dtd">
<svg version="1.1" xmlns="http://www.w3.org/2000/svg" xmlns:xlink="http://www.w3.org/1999/xlink" x="0px" y="0px" width="40px"
	 height="40px" viewBox="0 0 40 40" enable-background="new 0 0 40 40" xml:space="preserve">
<g id="Shape_1_1_" enable-background="new    ">
	<g id="Shape_1">
		<g>
			<polygon fill="#FFFFFF" points="13,11 13,19 9,19 9,27 10,28 10,29 11,30 29,30 30,29 31,28 31,11 			"/>
		</g>
	</g>
</g>
<g id="press_x5F_kit_1_" enable-background="new    ">
	<g id="press_x5F_kit">
		<g>
			<path fill-rule="evenodd" clip-rule="evenodd" fill="#555555" d="M30.952,10H13c-0.579,0-1,0.422-1,1v7H9c-0.579,0-1,0.421-1,1v9
				c0,1.579,1.421,3,3,3h18c1.579,0,3-1.421,3-3V11.048C32,10.469,31.531,10,30.952,10z M12,28c0,0.425-0.576,1-1,1s-1-0.576-1-1v-8
				h2V28z M30,28c0,0.425-0.576,1-1,1l-15.404-0.002C13.665,28.753,14,28.267,14,28V12h16V28z M16.392,17.992h11.225
				c0.215,0,0.389-0.203,0.389-0.453v-3.098c0-0.251-0.174-0.453-0.389-0.453H16.392c-0.215,0-0.39,0.202-0.39,0.453v3.098
				C16.002,17.789,16.177,17.992,16.392,17.992z M27.475,22.986H16.522c-0.286,0-0.518,0.228-0.518,0.509
				c0,0.28,0.232,0.508,0.518,0.508h10.952c0.286,0,0.518-0.228,0.518-0.508C27.992,23.214,27.761,22.986,27.475,22.986z
				 M22.475,25.986h-5.952c-0.286,0-0.518,0.228-0.518,0.509c0,0.28,0.232,0.508,0.518,0.508h5.952c0.286,0,0.518-0.228,0.518-0.508
				C22.992,26.214,22.761,25.986,22.475,25.986z M27.475,19.986H16.522c-0.286,0-0.518,0.228-0.518,0.509
				c0,0.28,0.232,0.508,0.518,0.508h10.952c0.286,0,0.518-0.228,0.518-0.508C27.992,20.214,27.761,19.986,27.475,19.986z"/>
		</g>
	</g>
</g>
</svg>
