<svg xmlns="http://www.w3.org/2000/svg" width="40" height="40" viewBox="0 0 40 40">
  <defs>
    <style>
      .cls-1 {
        fill: #fff;
      }

      .cls-1, .cls-2, .cls-3 {
        fill-rule: evenodd;
      }

      .cls-2 {
        fill: #555;
      }

      .cls-3 {
        fill: #44ce5e;
      }
    </style>
  </defs>
  <path id="w" class="cls-1" d="M32,19.007a7.016,7.016,0,0,1-1-.08V28l-1,1-1,1H11l-1-1V28L9,27V19h4V11H25.081A7,7,0,1,1,32,19.007Z"/>
  <path id="b" class="cls-2" d="M16,14.441a0.425,0.425,0,0,1,.39-0.453H22.2a9.938,9.938,0,0,0,1.813,4H16.392A0.425,0.425,0,0,1,16,17.539v-3.1Zm0.52,5.545h9.488a9.986,9.986,0,0,0,1.613.986,0.513,0.513,0,0,1-.149.029H16.523A0.508,0.508,0,1,1,16.523,19.987Zm0,6h5.952a0.508,0.508,0,1,1,0,1.016H16.523A0.508,0.508,0,1,1,16.523,25.987Zm0-3H27.475a0.508,0.508,0,1,1,0,1.016H16.523A0.508,0.508,0,1,1,16.523,22.987ZM22,11.992S22,12,22,12H14V28a5.414,5.414,0,0,1-.4,1L29,29a1.224,1.224,0,0,0,1-1V21.791a10.044,10.044,0,0,0,2,.2V28a3.105,3.105,0,0,1-3,3H11a3.105,3.105,0,0,1-3-3V19a0.968,0.968,0,0,1,1-1h3V11a0.968,0.968,0,0,1,1-1h9.2A10.044,10.044,0,0,0,22,11.992ZM12,20H10v8a1.224,1.224,0,0,0,1,1,1.224,1.224,0,0,0,1-1V20Z"/>
  <path id="g" class="cls-3" d="M32,20.008a8,8,0,1,1,8-8A8,8,0,0,1,32,20.008ZM36.75,11.5h-2.5L33.2,13.24,31,6l-2,5.5H27.25a0.889,0.889,0,0,0-.75.784,0.82,0.82,0,0,0,.75.716h2.5L31,10.5,33,17l2-4h1.75a0.82,0.82,0,0,0,.75-0.716A0.889,0.889,0,0,0,36.75,11.5Z"/>
</svg>
