<svg xmlns="http://www.w3.org/2000/svg" width="40" height="40" viewBox="0 0 40 40">
  <metadata><?xpacket begin="﻿" id="W5M0MpCehiHzreSzNTczkc9d"?>
<x:xmpmeta xmlns:x="adobe:ns:meta/" x:xmptk="Adobe XMP Core 5.6-c138 79.159824, 2016/09/14-01:09:01        ">
   <rdf:RDF xmlns:rdf="http://www.w3.org/1999/02/22-rdf-syntax-ns#">
      <rdf:Description rdf:about=""/>
   </rdf:RDF>
</x:xmpmeta>
                                                                                                    
                                                                                                    
                                                                                                    
                                                                                                    
                                                                                                    
                                                                                                    
                                                                                                    
                                                                                                    
                                                                                                    
                                                                                                    
                                                                                                    
                                                                                                    
                                                                                                    
                                                                                                    
                                                                                                    
                                                                                                    
                                                                                                    
                                                                                                    
                                                                                                    
                                                                                                    
                           
<?xpacket end="w"?></metadata>
<defs>
    <style>
      .cls-1 {
        fill: #fff;
      }

      .cls-1, .cls-2, .cls-3 {
        fill-rule: evenodd;
      }

      .cls-2 {
        fill: #555;
      }

      .cls-3 {
        fill: #44ce5e;
      }
    </style>
  </defs>
  <path id="w" class="cls-1" d="M32,19.007a7.016,7.016,0,0,1-1-.08V29H9V13H25.079a6.325,6.325,0,0,1,0-2H25V9h0.686A7,7,0,1,1,32,19.007ZM13,9h2v2H13V9Z"/>
  <path id="b" class="cls-2" d="M16,22.3V19.725c0-1.713,0-1.714,1.5-1.714s1.5,0,1.5,1.714V22.3c0,1.713,0,1.714-1.5,1.714S16,24.01,16,22.3ZM24,22.3c0,1.713,0,1.714-1.5,1.714S21,24.01,21,22.3V19.725c0-1.713,0-1.714,1.5-1.714s1.5,0,1.5,1.714V22.3Zm-2-10.3a10.044,10.044,0,0,0,.2,2.017H10v14H30V21.791a10.047,10.047,0,0,0,2,.2v6.685a1.511,1.511,0,0,1-1.667,1.333h-21A1.238,1.238,0,0,1,8,28.677V11.344A1.239,1.239,0,0,1,9.333,10.01H12V8h4V10.01h6.2A10.045,10.045,0,0,0,22,11.992ZM18,29.01h4l1-1H17Zm-3-20H13v2h2v-2Z"/>
  <path id="g" class="cls-3" d="M32,20.008a8,8,0,1,1,8-8A8,8,0,0,1,32,20.008ZM36,11.5a0.5,0.5,0,0,0-.5-0.5H33V8.5A0.5,0.5,0,0,0,32.5,8h-1a0.5,0.5,0,0,0-.5.5V11H28.5a0.5,0.5,0,0,0-.5.5v1a0.5,0.5,0,0,0,.5.5H31v2.5a0.5,0.5,0,0,0,.5.5h1a0.5,0.5,0,0,0,.5-0.5V13h2.5a0.5,0.5,0,0,0,.5-0.5v-1Z"/>
</svg>
