<svg xmlns="http://www.w3.org/2000/svg" width="40" height="40" viewBox="0 0 40 40">
  <defs>
    <style>
      .cls-1 {
        fill: #fff;
      }

      .cls-1, .cls-2, .cls-3 {
        fill-rule: evenodd;
      }

      .cls-2 {
        fill: #555;
      }

      .cls-3 {
        fill: #44ce5e;
      }
    </style>
  </defs>
  <path id="w" class="cls-1" d="M32,19.007a6.959,6.959,0,0,1-3-.683V30H11V17H9V13H9.03L12,10H25.3A7,7,0,1,1,32,19.007Z"/>
  <path id="b" class="cls-2" d="M16,25.286V22.714C16,21,16,21,17.5,21S19,21,19,22.714v2.572C19,27,19,27,17.5,27S16,27,16,25.286Zm5,0V22.714C21,21,21,21,22.5,21S24,21,24,22.714v2.572C24,27,24,27,22.5,27S21,27,21,25.286Zm1-13.294A10.085,10.085,0,0,0,22.051,13H21v2.661c0,0.734.9,1.33,2,1.33a2.749,2.749,0,0,0,.323-0.043A10.032,10.032,0,0,0,24.872,19H12V29.005h5.006L18,30h4l0.995-.995H28V21.154a9.912,9.912,0,0,0,2,.637V29c1.52,0,2,.364,2,2H8c0-1.636.483-2,2-2V19a3.43,3.43,0,0,1-3-3.333v-2.7L9.75,9H22.457A9.993,9.993,0,0,0,22,11.992ZM13,13H9v2.661c0,0.734.9,1.33,2,1.33s2-.6,2-1.33V13Zm6,0H15v2.661c0,0.734.9,1.33,2,1.33s2-.6,2-1.33V13Z"/>
  <path id="g" class="cls-3" d="M32,20.008a8,8,0,1,1,8-8A8,8,0,0,1,32,20.008ZM30.5,16.5a1.625,1.625,0,0,0,3,0V16h-3v0.5ZM32,7a4,4,0,0,0-2.994,6.653A14.2,14.2,0,0,1,30,15h4a7.173,7.173,0,0,1,.994-1.347A4,4,0,0,0,32,7Zm1.25,6.5h-2.5a5.783,5.783,0,0,0-.606-0.825,2.5,2.5,0,1,1,3.713,0A3.852,3.852,0,0,0,33.25,13.5Z"/>
</svg>
