<svg xmlns="http://www.w3.org/2000/svg" width="40" height="40" viewBox="0 0 40 40">
  <metadata><?xpacket begin="﻿" id="W5M0MpCehiHzreSzNTczkc9d"?>
<x:xmpmeta xmlns:x="adobe:ns:meta/" x:xmptk="Adobe XMP Core 5.6-c138 79.159824, 2016/09/14-01:09:01        ">
   <rdf:RDF xmlns:rdf="http://www.w3.org/1999/02/22-rdf-syntax-ns#">
      <rdf:Description rdf:about=""/>
   </rdf:RDF>
</x:xmpmeta>
                                                                                                    
                                                                                                    
                                                                                                    
                                                                                                    
                                                                                                    
                                                                                                    
                                                                                                    
                                                                                                    
                                                                                                    
                                                                                                    
                                                                                                    
                                                                                                    
                                                                                                    
                                                                                                    
                                                                                                    
                                                                                                    
                                                                                                    
                                                                                                    
                                                                                                    
                                                                                                    
                           
<?xpacket end="w"?></metadata>
<defs>
    <style>
      .cls-1 {
        fill: #fff;
      }

      .cls-1, .cls-2, .cls-3 {
        fill-rule: evenodd;
      }

      .cls-2 {
        fill: #555;
      }

      .cls-3 {
        fill: #44ce5e;
      }
    </style>
  </defs>
  <path id="white" class="cls-1" d="M32,19.007a6.941,6.941,0,0,1-1-.1V22H29v2h2v4H29v2H11V29H10V12h1V10H25.328A6.986,6.986,0,1,1,32,19.007Z"/>
  <path id="clients" class="cls-2" d="M16,21.3V18.725c0-1.713,0-1.714,1.5-1.714s1.5,0,1.5,1.714V21.3c0,1.713,0,1.714-1.5,1.714S16,23.01,16,21.3ZM22.46,8.99a9.947,9.947,0,0,0-.41,2H12v18h5v0.005l1,1h4l1-1V28.99h5V21.154a9.955,9.955,0,0,0,3.949.835H30v2h2v4H30v1.8a1.21,1.21,0,0,1-1.221,1.2H9.209A1.218,1.218,0,0,1,8,29.77V11.262A1.264,1.264,0,0,1,9.251,9.99L10,10,9.964,8.99h12.5Zm6.54,18h2v-2H29v2ZM10,29h1V12H10V29ZM24,18.725V21.3c0,1.713,0,1.714-1.5,1.714S21,23.01,21,21.3V18.725c0-1.713,0-1.714,1.5-1.714a7.334,7.334,0,0,1,.878.03,10,10,0,0,0,.607.913C23.994,18.164,24,18.407,24,18.725Z"/>
  <path id="clients-2" data-name="clients" class="cls-3" d="M32,20.008a8,8,0,1,1,8-8A8,8,0,0,1,32,20.008ZM36.75,11.5h-2.5L33.2,13.24,31,6l-2,5.5H27.25a0.889,0.889,0,0,0-.75.784,0.82,0.82,0,0,0,.75.716h2.5L31,10.5,33,17l2-4h1.75a0.82,0.82,0,0,0,.75-0.716A0.889,0.889,0,0,0,36.75,11.5Z"/>
</svg>
