<svg xmlns="http://www.w3.org/2000/svg" width="40" height="40" viewBox="0 0 40 40">
  <defs>
    <style>
      .cls-1 {
        fill: #fff;
      }

      .cls-1, .cls-2, .cls-3 {
        fill-rule: evenodd;
      }

      .cls-2 {
        fill: #555;
      }

      .cls-3 {
        fill: #44ce5e;
      }
    </style>
  </defs>
  <path id="w" class="cls-1" d="M32,19.007h0V29H8V12H25A7,7,0,1,1,32,19.007Z"/>
  <path id="b" class="cls-2" d="M22,11.992c0,0.043.006,0.085,0.006,0.129A5.774,5.774,0,0,0,20.352,13h0.116V28.61A4.324,4.324,0,0,1,22.5,28H29V21.533a9.913,9.913,0,0,0,1,.258V28h1V21.942c0.329,0.033.663,0.05,1,.05s0.671-.018,1-0.05V28.5A1.371,1.371,0,0,1,31.5,30h-9c-0.645,0-1.706,1-2.5,1s-1.856-1-2.5-1h-9A1.371,1.371,0,0,1,7,28.5v-16A1.371,1.371,0,0,1,8.5,11H9V10h8.388A4.9,4.9,0,0,1,20,11a5.017,5.017,0,0,1,2.192-.947A10.038,10.038,0,0,0,22,11.992ZM10,13H9V28h1V13Zm7.465-1H11V28h6.5a4.31,4.31,0,0,1,1.969.578V13h0.179A5.087,5.087,0,0,0,17.465,12Z"/>
  <path id="g" class="cls-3" d="M32,20.008a8,8,0,1,1,8-8A8,8,0,0,1,32,20.008ZM31.5,16c0,0.419.124,0.5,0.5,0.5s0.087,0,.5,0,0.506-.111.5-0.5,0-.157,0-0.5a0.423,0.423,0,0,0-.5-0.5H32a0.423,0.423,0,0,0-.5.5V16Zm3-6.784A1.168,1.168,0,0,0,33.22,8H30.759A1.114,1.114,0,0,0,29.5,9.217V9.94c0,0.446.125,0.56,0.5,0.56h0.5A0.4,0.4,0,0,0,31,10a0.4,0.4,0,0,1,.5-0.5h1a0.406,0.406,0,0,1,.5.5v1a2.565,2.565,0,0,1,0,.5c-0.456,0-.018,0-0.271,0A1.057,1.057,0,0,0,31.5,12.69v0.742A0.462,0.462,0,0,0,32,14h0.5c0.466,0,.5-0.186.5-0.5a0.415,0.415,0,0,1,.5-0.5H33.254A1.194,1.194,0,0,0,34.5,11.742V9.217Z"/>
</svg>
