<svg xmlns="http://www.w3.org/2000/svg" width="40" height="40" viewBox="0 0 40 40">
  <defs>
    <style>
      .cls-1 {
        fill: #fff;
      }

      .cls-1, .cls-2, .cls-3 {
        fill-rule: evenodd;
      }

      .cls-2 {
        fill: #555;
      }

      .cls-3 {
        fill: #44ce5e;
      }
    </style>
  </defs>
  <path id="w" class="cls-1" d="M32,19.007c-0.108,0-.209-0.027-0.316-0.032a7.546,7.546,0,0,1,.065.974v8.877c0,1.969-.01,1.969-1.97,1.969h-3.44a2.678,2.678,0,0,0-1.372.367c-0.849.487-2.005,1.156-2.878,1.656-2.152,1.235-2.145,1.241-4.291.007-0.978-.562-2.033-1.17-2.917-1.676a2.3,2.3,0,0,0-1.346-.355h-3.44c-1.97,0-1.97,0-1.97-1.969V19.95C8.125,16,10.75,16,10.75,16H26.261A6.993,6.993,0,1,1,32,19.007Z"/>
  <path id="b" class="cls-2" d="M22.051,10.981C21.02,10.918,21,10.6,21,9V6c0-2,0-2,2-2,1.52,0,1.881.006,1.967,0.887A9.967,9.967,0,0,0,22.051,10.981ZM17,11c-2,0-2,0-2-2V6c0-2,0-2,2-2s2,0,2,2V9C19,11,19,11,17,11Zm6.354,6H9c-0.99,0-1-.008-1-1V14c0-2,0-2,2-2s2,0,2,2c0,1-.005,1,1,1h9.462A9.928,9.928,0,0,0,23.354,17ZM20.936,28.571C20,29.1,20,29.1,19.069,28.574c-0.577-.326-1.216-0.689-1.647-0.929S17,27.6,17,26.85s0.044-.8.857-0.326c0.081,0.047,1.255.7,1.714,0.962a0.8,0.8,0,0,0,.857,0c0.453-.255,1.224-0.673,1.714-0.962,0.835-.493.857-0.295,0.857,0.33s0,0.561-.413.786C22.3,27.794,21.489,28.259,20.936,28.571ZM9.25,17.235V17.03H9.842c0.09-.013.158-0.018,0.158-0.018h2.564c-0.029,0-.074.013-0.109,0.018H13.5a2.439,2.439,0,0,1,1.358.326l3.091,1.779A4.932,4.932,0,0,0,20,20.042h0a4.9,4.9,0,0,0,2.038-.9L24.018,18q0.273,0.363.577,0.7l-2.316,1.338A5.138,5.138,0,0,1,20,21a5.163,5.163,0,0,1-2.292-.975l-3.085-1.776a1.987,1.987,0,0,0-1.122-.264H10.773A3.87,3.87,0,0,0,10,20.555v7.569c0,0.855,0,.855.909,0.855H14.4l0.008,0.015a2.094,2.094,0,0,1,1.176.293c0.772,0.419,1.694.921,2.549,1.386,1.875,1.02,1.869,1.015,3.749-.006,0.763-.414,1.773-0.967,2.515-1.37a2.436,2.436,0,0,1,1.2-.3L25.6,28.98H29.09c0.914,0,.909,0,0.909-0.855V21.791a10.051,10.051,0,0,0,2,.2V29c0,2-.01,2-2,2H26.5a2.718,2.718,0,0,0-1.393.373c-0.862.494-2.036,1.174-2.922,1.682-2.185,1.254-2.178,1.26-4.357.008-0.993-.571-2.064-1.188-2.961-1.7A2.334,2.334,0,0,0,13.5,31H10c-2,0-2,0-2-2V20C8,18.245,8.682,17.534,9.25,17.235Z"/>
  <path id="g" class="cls-3" d="M32,20.008a8,8,0,1,1,8-8A8,8,0,0,1,32,20.008ZM36.98,8.134c-0.014-.493-0.253-0.578-0.563-0.365v0L36.4,7.783c-0.027.019-.054,0.037-0.082,0.061l-0.859.732A5.149,5.149,0,0,0,34.09,7.539,4.933,4.933,0,0,0,32.2,7.005a5.163,5.163,0,0,0-1.936.24,5.025,5.025,0,0,0-1.767,1.028,5.22,5.22,0,0,0-1.243,1.655c-0.1.2-.247,0.614-0.247,0.614l1.4,0.5s0.111-.3.18-0.446a3.734,3.734,0,0,1,.886-1.181,3.594,3.594,0,0,1,1.259-.734,3.762,3.762,0,0,1,1.394-.171,3.563,3.563,0,0,1,1.341.38,3.843,3.843,0,0,1,.874.638l-0.908.774c-0.278.237-.277,0.648,0.135,0.713s1.886,0.3,2.58.4c0.6,0.091.809-.042,0.826-0.7C36.986,10.184,37,8.669,36.98,8.134Zm-1.388,4.781s-0.111.3-.181,0.45a3.77,3.77,0,0,1-.888,1.194,3.593,3.593,0,0,1-1.261.742,3.738,3.738,0,0,1-1.4.172,3.545,3.545,0,0,1-1.343-.384,3.852,3.852,0,0,1-.875-0.645l0.91-.783c0.279-.24.278-0.654-0.135-0.72s-1.889-.3-2.584-0.408c-0.6-.092-0.811.042-0.827,0.712C27,13.782,26.989,15.314,27,15.854c0.015,0.5.253,0.585,0.564,0.369v0l0.019-.017c0.027-.02.054-0.038,0.082-0.062l0.861-.74A5.164,5.164,0,0,0,29.9,16.456a4.908,4.908,0,0,0,1.895.539,5.127,5.127,0,0,0,1.939-.242,5.025,5.025,0,0,0,1.77-1.039,5.271,5.271,0,0,0,1.245-1.673c0.1-.2.248-0.621,0.248-0.621Z"/>
</svg>
