<svg xmlns="http://www.w3.org/2000/svg" width="40" height="40" viewBox="0 0 40 40">
  <metadata><?xpacket begin="﻿" id="W5M0MpCehiHzreSzNTczkc9d"?>
<x:xmpmeta xmlns:x="adobe:ns:meta/" x:xmptk="Adobe XMP Core 5.6-c138 79.159824, 2016/09/14-01:09:01        ">
   <rdf:RDF xmlns:rdf="http://www.w3.org/1999/02/22-rdf-syntax-ns#">
      <rdf:Description rdf:about=""/>
   </rdf:RDF>
</x:xmpmeta>
                                                                                                    
                                                                                                    
                                                                                                    
                                                                                                    
                                                                                                    
                                                                                                    
                                                                                                    
                                                                                                    
                                                                                                    
                                                                                                    
                                                                                                    
                                                                                                    
                                                                                                    
                                                                                                    
                                                                                                    
                                                                                                    
                                                                                                    
                                                                                                    
                                                                                                    
                                                                                                    
                           
<?xpacket end="w"?></metadata>
<defs>
    <style>
      .cls-1 {
        fill: #fff;
      }

      .cls-1, .cls-2, .cls-3 {
        fill-rule: evenodd;
      }

      .cls-2 {
        fill: #555;
      }

      .cls-3 {
        fill: #44ce5e;
      }
    </style>
  </defs>
  <path id="w" class="cls-1" d="M32,19a6.971,6.971,0,0,1-6-3.447V28H21v2H19V28H14V12h5V11h2v1h4v0A7,7,0,1,1,32,19Z"/>
  <path id="b" class="cls-2" d="M17,18h4v1H17V18Zm6,4H17V21h6v1ZM22,11.992c0,0.34.018,0.676,0.051,1.008H15V27H25V19.128a10.032,10.032,0,0,0,2,1.516V29a2,2,0,0,1-2,2H15a2,2,0,0,1-2-2V11a2,2,0,0,1,2-2h7.456A9.993,9.993,0,0,0,22,11.992Zm-3,18H21V28H19v1.992ZM21,11.008H19v0.987H21V11.008Z"/>
  <path id="g" class="cls-3" d="M32,20.008a8,8,0,1,1,8-8A8,8,0,0,1,32,20.008Zm0-3a0.83,0.83,0,0,0,1-1H31A0.834,0.834,0,0,0,32,17.005Zm3.653-3.794a1.466,1.466,0,0,1-.572-0.962s-0.248-.254-0.248-1.991a2.032,2.032,0,0,0-2.328-2.264H31.491a2.028,2.028,0,0,0-2.324,2.264c0,1.736-.25,1.968-0.25,1.968V12.25a1.469,1.469,0,0,1-.568.961A0.41,0.41,0,0,0,28,13.6c0,0.217,0,.513,0,0.707a0.564,0.564,0,0,0,.659.7h6.672C35.841,15,36,14.836,36,14.3c0-.169,0-0.456,0-0.675A0.415,0.415,0,0,0,35.653,13.211Zm-4.986-1.268a2.3,2.3,0,0,0,.111-0.886A0.923,0.923,0,0,1,31.669,10h0.664a0.9,0.9,0,0,1,.89,1.059,2.011,2.011,0,0,0,.111.886C33.334,12.679,33.65,13,34,13H30C30.414,13,30.667,12.695,30.667,11.943Z"/>
</svg>
