<svg xmlns="http://www.w3.org/2000/svg" width="40" height="40" viewBox="0 0 40 40">
  <defs>
    <style>
      .cls-1 {
        fill: #fff;
      }

      .cls-1, .cls-2, .cls-3 {
        fill-rule: evenodd;
      }

      .cls-2 {
        fill: #555;
      }

      .cls-3 {
        fill: #44ce5e;
      }
    </style>
  </defs>
  <path id="w" class="cls-1" d="M30,9H13.5l-1,2.5L10,12V31l1,1H27l0.5-1V29L30,28V9Zm2-4.507a7.5,7.5,0,1,1-7.5,7.5A7.5,7.5,0,0,1,32,4.493Z"/>
  <path id="b" class="cls-2" d="M14,15h8.462A9.955,9.955,0,0,0,24,17.974V19H14V15Zm0,6H24v1H14V21Zm0,7V27h6v1H14Zm0-4H24v1H14V24Zm8.2-14H14v1h8.05c-0.032.326-.05,0.657-0.05,0.992,0,0,0,.005,0,0.008H11V31H27V20.643a9.939,9.939,0,0,0,1,.511V28h1V21.533a9.953,9.953,0,0,0,2,.409V28a2,2,0,0,1-2,2h0v1a2,2,0,0,1-2,2H11a2,2,0,0,1-2-2V12a2,2,0,0,1,2-2h1a2,2,0,0,1,2-2h8.834A9.919,9.919,0,0,0,22.2,10Z"/>
  <path id="g" class="cls-3" d="M32,20.008a8,8,0,1,1,8-8A8,8,0,0,1,32,20.008Zm-3.978-5.491a1.494,1.494,0,1,0,1.494-1.494A1.493,1.493,0,0,0,28.022,14.517Zm1.633-3.176a3.006,3.006,0,0,1,3,3,0.683,0.683,0,0,0,1.367,0,4.37,4.37,0,0,0-4.369-4.368A0.682,0.682,0,1,0,29.655,11.341ZM29.7,6.995a0.7,0.7,0,1,0,0,1.406,5.909,5.909,0,0,1,5.9,5.9,0.7,0.7,0,0,0,1.408,0A7.31,7.31,0,0,0,29.7,6.995Z"/>
</svg>
