<svg xmlns="http://www.w3.org/2000/svg" width="40" height="40" viewBox="0 0 40 40">
  <metadata><?xpacket begin="﻿" id="W5M0MpCehiHzreSzNTczkc9d"?>
<x:xmpmeta xmlns:x="adobe:ns:meta/" x:xmptk="Adobe XMP Core 5.6-c138 79.159824, 2016/09/14-01:09:01        ">
   <rdf:RDF xmlns:rdf="http://www.w3.org/1999/02/22-rdf-syntax-ns#">
      <rdf:Description rdf:about=""/>
   </rdf:RDF>
</x:xmpmeta>
                                                                                                    
                                                                                                    
                                                                                                    
                                                                                                    
                                                                                                    
                                                                                                    
                                                                                                    
                                                                                                    
                                                                                                    
                                                                                                    
                                                                                                    
                                                                                                    
                                                                                                    
                                                                                                    
                                                                                                    
                                                                                                    
                                                                                                    
                                                                                                    
                                                                                                    
                                                                                                    
                           
<?xpacket end="w"?></metadata>
<defs>
    <style>
      .cls-1 {
        fill: #fff;
      }

      .cls-1, .cls-2, .cls-3 {
        fill-rule: evenodd;
      }

      .cls-2 {
        fill: #555;
      }

      .cls-3 {
        fill: #44ce5e;
      }
    </style>
  </defs>
  <path id="white" class="cls-1" d="M9,12H31V28H9V12ZM32,5.007a7,7,0,1,1-7,7A7,7,0,0,1,32,5.007Z"/>
  <path id="payment-method" class="cls-2" d="M22,21v2H20V21h2Zm5.994,2H26V21h1.686c0.1,0.05.2,0.1,0.31,0.149v1.855ZM23,21h2v2H23V21Zm-1-9.01c0,0.336.018,0.668,0.05,1H10.015v3H22.838A10.009,10.009,0,0,0,24.872,19H10.015v8H29.988v-5.21a10.042,10.042,0,0,0,2,.2V27.67A1.509,1.509,0,0,1,30.325,29H9.345A1.238,1.238,0,0,1,8.014,27.67V12.334A1.238,1.238,0,0,1,9.345,11h12.7C22.018,11.327,22,11.657,22,11.992Z"/>
  <path id="payment-method-2" data-name="payment-method" class="cls-3" d="M32,20.008a8,8,0,1,1,8-8A8,8,0,0,1,32,20.008Zm3.386-9.2c-2.025-1.348-3.776-2.5-5.413-3.6a0.6,0.6,0,0,0-.683-0.156A0.523,0.523,0,0,0,29,7.667c0,1.939,0,4.441,0,6.514-0.006.911,0.671,1.324,1.247,0.742,1.253-1.268,1.633-1.733,1.633-1.733l2.053,3.624,1.18-.551-2.053-3.624s0.978-.262,2.316-0.465C36.206,12.047,36.169,11.334,35.386,10.813Z"/>
</svg>
