<svg xmlns="http://www.w3.org/2000/svg" width="40" height="40" viewBox="0 0 40 40">
  <defs>
    <style>
      .cls-1 {
        fill: #fff;
      }

      .cls-1, .cls-2, .cls-3 {
        fill-rule: evenodd;
      }

      .cls-2 {
        fill: #555;
      }

      .cls-3 {
        fill: #44ce5e;
      }
    </style>
  </defs>
  <path id="w" class="cls-1" d="M32.92,18.94L33,19l-4,3v4l-9,6-9-5V22L7,19l3-3L6,13l9-5,5,3,5-3,0.908,0.567A7,7,0,1,1,32.92,18.94Z"/>
  <path id="b" class="cls-2" d="M22.1,10.685l-0.131.072,0.11,0.063a9.611,9.611,0,0,0-.021,2.208L20,11.851v7.393l3.564-1.9a10.032,10.032,0,0,0,1.2,1.54l-2.891,1.538,2.68,2.009,2.862-1.559a9.914,9.914,0,0,0,2.563.913c0,0.747.015,4.36,0.017,4.711a1.231,1.231,0,0,1-.49.775s-8.57,5.345-8.914,5.533A1.458,1.458,0,0,1,20,33h0V9.641L22.784,8.1A9.939,9.939,0,0,0,22.1,10.685ZM20.5,30.5L28,26c-0.012.006,0.005-3.3,0.005-3.3l-2.961,1.7a2.174,2.174,0,0,1-1.02,0L20.5,21.5v9ZM20,33a1.458,1.458,0,0,1-.593-0.195c-0.344-.187-8.914-5.533-8.914-5.533A1.231,1.231,0,0,1,10,26.5c0-.392.017-4.855,0.017-4.855L5.954,19.331A0.759,0.759,0,0,1,5.5,18.5,1.378,1.378,0,0,1,6,17.687L9.211,15.7l-3.7-1.928A1.065,1.065,0,0,1,5,13a0.849,0.849,0,0,1,.5-0.907l8.978-4.976A1.314,1.314,0,0,1,14.967,7a0.959,0.959,0,0,1,.444.112L20,9.641V33h0Zm-8-7,7.5,4.5v-9l-3.525,2.9a2.174,2.174,0,0,1-1.02,0l-2.961-1.7S12.012,26.006,12,26ZM8.426,18.612l7.016,3.823,2.68-2.009L11.311,16.8Zm6.528-9.558L8.006,12.906,11.3,14.622l6.737-3.865ZM20,11.851l-6.687,3.836L20,19.244V11.851Z"/>
  <path id="g" class="cls-3" d="M32,20.008a8,8,0,1,1,8-8A8,8,0,0,1,32,20.008Zm-3.978-5.491a1.494,1.494,0,1,0,1.494-1.494A1.493,1.493,0,0,0,28.022,14.517Zm1.633-3.176a3.006,3.006,0,0,1,3,3,0.683,0.683,0,0,0,1.367,0,4.37,4.37,0,0,0-4.369-4.368A0.682,0.682,0,1,0,29.655,11.341ZM29.7,6.995a0.7,0.7,0,1,0,0,1.406,5.909,5.909,0,0,1,5.9,5.9,0.7,0.7,0,0,0,1.408,0A7.31,7.31,0,0,0,29.7,6.995Z"/>
</svg>
