<svg xmlns="http://www.w3.org/2000/svg" width="40" height="40" viewBox="0 0 40 40">
  <metadata><?xpacket begin="﻿" id="W5M0MpCehiHzreSzNTczkc9d"?>
<x:xmpmeta xmlns:x="adobe:ns:meta/" x:xmptk="Adobe XMP Core 5.6-c138 79.159824, 2016/09/14-01:09:01        ">
   <rdf:RDF xmlns:rdf="http://www.w3.org/1999/02/22-rdf-syntax-ns#">
      <rdf:Description rdf:about=""/>
   </rdf:RDF>
</x:xmpmeta>
                                                                                                    
                                                                                                    
                                                                                                    
                                                                                                    
                                                                                                    
                                                                                                    
                                                                                                    
                                                                                                    
                                                                                                    
                                                                                                    
                                                                                                    
                                                                                                    
                                                                                                    
                                                                                                    
                                                                                                    
                                                                                                    
                                                                                                    
                                                                                                    
                                                                                                    
                                                                                                    
                           
<?xpacket end="w"?></metadata>
<defs>
    <style>
      .cls-1 {
        fill: #fff;
      }

      .cls-1, .cls-2, .cls-3 {
        fill-rule: evenodd;
      }

      .cls-2 {
        fill: #555;
      }

      .cls-3 {
        fill: #44ce5e;
      }
    </style>
  </defs>
  <path id="w" class="cls-1" d="M9,9H31V27H9V9Zm9,17h4v5H18V26ZM32,5.007a7,7,0,1,1-7,7A7,7,0,0,1,32,5.007Z"/>
  <path id="b" class="cls-2" d="M16,20.016v3.978H12V20.016h4Zm6-4.01v7.989H18V16.006h4Zm2,1.968a10.022,10.022,0,0,0,4,3.181V24H24V17.974ZM22.2,10H10V25.992H30v-4.2a10.045,10.045,0,0,0,2,.2h0v4.8c0,0.662-1.046,1.2-1.721,1.2H9.209A1.217,1.217,0,0,1,8,26.772V9.277A1.264,1.264,0,0,1,9.251,8.005h13.58A9.918,9.918,0,0,0,22.2,10ZM17,30V28h1v2h4V28h1v2h0a2,2,0,0,1,2,2H15A2,2,0,0,1,17,30Z"/>
  <path id="g" class="cls-3" d="M32,20.008a8,8,0,1,1,8-8A8,8,0,0,1,32,20.008ZM31.5,9.84a1.267,1.267,0,0,1,.74-0.176,4.39,4.39,0,0,1,1.15.117,5.78,5.78,0,0,1,.654.189l0.221-.024,0.4-1.411-0.089-.15a4.5,4.5,0,0,0-.789-0.237,5.392,5.392,0,0,0-.946-0.1V7H31.168V8.151A2.688,2.688,0,0,0,29.7,8.92a2.046,2.046,0,0,0-.6,1.477,1.9,1.9,0,0,0,.671,1.484,4.711,4.711,0,0,0,1.675.855,4.129,4.129,0,0,1,1.034.442,0.552,0.552,0,0,1,.3.447,0.475,0.475,0,0,1-.3.416,1.866,1.866,0,0,1-.851.177,4.13,4.13,0,0,1-1.1-.122,4.59,4.59,0,0,1-.884-0.259l-0.223-.042-0.394,1.57,0.074,0.122a4.056,4.056,0,0,0,.938.286,6.392,6.392,0,0,0,1.086.106V17h1.68V15.768a2.746,2.746,0,0,0,1.574-.8A2.1,2.1,0,0,0,35,13.465a2.032,2.032,0,0,0-.52-1.45,3.929,3.929,0,0,0-1.694-.953,5.669,5.669,0,0,1-1.173-.487,0.487,0.487,0,0,1-.291-0.389A0.425,0.425,0,0,1,31.5,9.84Z"/>
</svg>
