<svg xmlns="http://www.w3.org/2000/svg" width="40" height="40" viewBox="0 0 40 40">
  <metadata><?xpacket begin="﻿" id="W5M0MpCehiHzreSzNTczkc9d"?>
<x:xmpmeta xmlns:x="adobe:ns:meta/" x:xmptk="Adobe XMP Core 5.6-c138 79.159824, 2016/09/14-01:09:01        ">
   <rdf:RDF xmlns:rdf="http://www.w3.org/1999/02/22-rdf-syntax-ns#">
      <rdf:Description rdf:about=""/>
   </rdf:RDF>
</x:xmpmeta>
                                                                                                    
                                                                                                    
                                                                                                    
                                                                                                    
                                                                                                    
                                                                                                    
                                                                                                    
                                                                                                    
                                                                                                    
                                                                                                    
                                                                                                    
                                                                                                    
                                                                                                    
                                                                                                    
                                                                                                    
                                                                                                    
                                                                                                    
                                                                                                    
                                                                                                    
                                                                                                    
                           
<?xpacket end="w"?></metadata>
<defs>
    <style>
      .cls-1 {
        fill: #fff;
      }

      .cls-1, .cls-2, .cls-3 {
        fill-rule: evenodd;
      }

      .cls-2 {
        fill: #555;
      }

      .cls-3 {
        fill: #44ce5e;
      }
    </style>
  </defs>
  <path id="w" class="cls-1" d="M32,19a7,7,0,1,1,7-7A7,7,0,0,1,32,19Zm-1,8.716c-1.139.639-4.361,2.289-5.509,2.933-0.66-.37-3.359-2.065-5.991-3.561-2.632,1.5-5.331,3.191-5.991,3.561C12.361,30.005,9.139,28.355,8,27.716V21.839c0.656-.368,3.266-2.064,6.015-3.561v-7C15.2,10.64,18.353,8.99,19.5,8.345c1.148,0.644,4.266,2.294,5.455,2.934v7c2.749,1.5,5.389,3.193,6.045,3.561v5.877Z"/>
  <path id="b" class="cls-2" d="M22.07,10.87L19.512,9.406l-4.5,2.578v5.882c0.982,0.561,3.515,1.98,4.5,2.546,0.967-.553,3.4-1.917,4.426-2.5a10.055,10.055,0,0,0,.976,1.156l-0.408-.233L21.63,20.478l-1.6.933v5.176c1.007,0.575,4.5,2.439,5.478,3,0.989-.566,3.522-1.891,4.5-2.452V21.971l-0.5-.287A9.984,9.984,0,0,0,32,22.011V28.2l-6.513,3.791L19.514,28.5l-6,3.493L7,28.2V20.72L12.981,17.3V10.732l6.513-3.727,3.059,1.75A9.919,9.919,0,0,0,22.07,10.87Zm-7.544,7.962c-0.989.566-4.521,2.578-5.5,3.139v5.164c0.982,0.562,3.515,1.887,4.5,2.452,0.989-.566,4.521-2.453,5.5-3.014V21.45l-4.2-2.443Z"/>
  <path id="b-2" data-name="b" class="cls-3" d="M32,20.008a8,8,0,1,1,8-8A8,8,0,0,1,32,20.008Zm3.861-5.548L33,11.614V7.364a0.357,0.357,0,0,0-.334-0.376H31.332A0.357,0.357,0,0,0,31,7.364v5.272a0.357,0.357,0,0,0,.334.376h0.233l2.879,2.865a0.357,0.357,0,0,0,.5.029l0.945-.945A0.357,0.357,0,0,0,35.861,14.46Z"/>
</svg>
