<?xml version="1.0" encoding="utf-8"?>
<!-- Generator: Adobe Illustrator 16.0.0, SVG Export Plug-In . SVG Version: 6.00 Build 0)  -->
<!DOCTYPE svg PUBLIC "-//W3C//DTD SVG 1.1//EN" "http://www.w3.org/Graphics/SVG/1.1/DTD/svg11.dtd">
<svg version="1.1" id="Circle" xmlns="http://www.w3.org/2000/svg" xmlns:xlink="http://www.w3.org/1999/xlink" x="0px" y="0px"
	 width="720px" height="720px" viewBox="0 0 720 720" enable-background="new 0 0 720 720" xml:space="preserve">
<linearGradient id="Grey_2_" gradientUnits="userSpaceOnUse" x1="359.9995" y1="0" x2="359.9995" y2="720.0005">
	<stop  offset="0" style="stop-color:#000000"/>
	<stop  offset="1" style="stop-color:#000000;stop-opacity:0"/>
</linearGradient>
<path id="Grey_1_" opacity="0.05" fill="url(#Grey_2_)" d="M360,80c37.835,0,74.496,7.392,108.965,21.971
	c33.332,14.099,63.285,34.299,89.025,60.039c25.74,25.741,45.94,55.693,60.039,89.026C632.608,285.504,640,322.165,640,360
	c0,37.835-7.392,74.496-21.971,108.965c-14.099,33.332-34.299,63.285-60.039,89.025s-55.693,45.94-89.025,60.039
	C434.496,632.608,397.835,640,360,640s-74.496-7.392-108.964-21.971c-33.333-14.099-63.285-34.299-89.026-60.039
	s-45.94-55.693-60.04-89.025C87.392,434.496,80,397.835,80,360s7.392-74.496,21.971-108.964
	c14.099-33.333,34.299-63.285,60.04-89.026c25.741-25.74,55.693-45.94,89.026-60.039C285.504,87.392,322.165,80,360,80 M360,0
	C161.178,0,0,161.177,0,360s161.178,360,360,360c198.823,0,360-161.177,360-360S558.823,0,360,0L360,0z"/>
<path id="C" fill="#EEE555" d="M630.339,571.243c-7.331,0.001-14.747-2.013-21.396-6.232
	c-18.652-11.838-24.177-36.555-12.339-55.206C624.994,465.072,640,413.271,640,360c0-154.393-125.607-280-280-280
	c-74.831,0-145.172,29.153-198.067,82.088c-15.614,15.627-40.941,15.636-56.568,0.022c-15.627-15.615-15.637-40.942-0.022-56.569
	c33.053-33.079,71.56-59.054,114.452-77.206C264.222,9.533,311.394,0,360,0c48.582,0,95.732,9.524,140.141,28.307
	c42.873,18.134,81.369,44.086,114.418,77.135c33.049,33.048,59.001,71.544,77.135,114.418C710.477,264.268,720,311.418,720,360
	c0,68.477-19.313,135.102-55.851,192.672C656.531,564.676,643.576,571.242,630.339,571.243z"/>
</svg>
