<svg xmlns="http://www.w3.org/2000/svg" xmlns:xlink="http://www.w3.org/1999/xlink" width="87" height="30" viewBox="0 0 87 30">
  <metadata><?xpacket begin="﻿" id="W5M0MpCehiHzreSzNTczkc9d"?>
<x:xmpmeta xmlns:x="adobe:ns:meta/" x:xmptk="Adobe XMP Core 5.6-c138 79.159824, 2016/09/14-01:09:01        ">
   <rdf:RDF xmlns:rdf="http://www.w3.org/1999/02/22-rdf-syntax-ns#">
      <rdf:Description rdf:about=""/>
   </rdf:RDF>
</x:xmpmeta>
                                                                                                    
                                                                                                    
                                                                                                    
                                                                                                    
                                                                                                    
                                                                                                    
                                                                                                    
                                                                                                    
                                                                                                    
                                                                                                    
                                                                                                    
                                                                                                    
                                                                                                    
                                                                                                    
                                                                                                    
                                                                                                    
                                                                                                    
                                                                                                    
                                                                                                    
                                                                                                    
                           
<?xpacket end="w"?></metadata>
<defs>
    <style>
      .cls-1 {
        fill: #fff;
      }

      .cls-1, .cls-2, .cls-3, .cls-4 {
        fill-rule: evenodd;
      }

      .cls-2 {
        fill: #333;
        fill-opacity: 0.9;
      }

      .cls-3 {
        fill: url(#linear-gradient);
      }

      .cls-4 {
        opacity: 0.1;
      }
    </style>
    <linearGradient id="linear-gradient" x1="12" y1="30" x2="12" y2="11" gradientUnits="userSpaceOnUse">
      <stop offset="0" stop-color="#fff"/>
      <stop offset="0.7" stop-color="#fff"/>
      <stop offset="0.875" stop-color="#efefef"/>
      <stop offset="0.95" stop-color="#bcbcbc"/>
      <stop offset="0.97" stop-color="#595959"/>
      <stop offset="1" stop-color="#595959"/>
    </linearGradient>
  </defs>
  <path id="white" class="cls-1" d="M85,27c-2,0-2,0-2-2V13.984C83,11.992,83,12,84.99,12S87,12,87,13.991V25.005C87,27,87,27,85,27ZM85,11c-2,0-2-.016-2-1.505S83,8,84.989,8s2,0,2,1.5S87,11,85,11ZM80.045,27c-1.971,0-2.068-.054-2.617-1-0.167-.288-0.532-0.9-0.951-1.611a0.5,0.5,0,0,1,.019-0.64c0.309-.529.59-1.021,0.827-1.438,0.329-.58.445-0.812,0.8-1.439,0.354-.595.652-0.379,0.875,0,0.667,1.152,1.789,3.107,2.4,4.133C82.552,26.954,82.016,27,80.045,27ZM79,18.129c-0.223.379-.521,0.595-0.875,0-0.353-.627-0.469-0.858-0.8-1.438-0.237-.417-0.517-0.91-0.827-1.438a0.5,0.5,0,0,1-.019-0.64C76.9,13.9,77.26,13.289,77.428,13c0.549-.947.646-1,2.617-1s2.507,0.046,1.349,2C80.785,15.021,79.663,16.976,79,18.129ZM76.565,21.75C75.789,23.088,74.668,25,74.071,26s-0.636,1-2.6,1-2.475-.106-1.371-2c0.11-.189,1.984-3.426,2.6-4.5a1.854,1.854,0,0,0,0-2c-0.6-1.058-1.916-3.361-2.6-4.506C68.944,12.045,69.481,12,71.453,12s2.069,0.054,2.619,1c0.377,0.65,1.76,2.958,2.494,4.25C77.807,19.435,77.822,19.581,76.565,21.75ZM62.988,26.995c-6,0-5.988-.016-5.988-5.982V17.987c0-6,.018-5.988,5.988-5.988,6,0,6.007.017,6.007,6v3.01C69,26.993,69,26.995,62.988,26.995Zm2.009-9c0-1.969,0-1.984-2.013-1.984C61.007,16.007,61,16,61,17.99v3c0,1.994-.008,2,1.984,2s2.013-.009,2.013-2v-3Zm-15.008,9c-6,0-5.988-.016-5.988-5.982V17.987c0-6,.019-5.988,5.988-5.988,6,0,6.007.017,6.007,6v3.01C56,26.993,56,26.995,49.989,26.995Zm2.009-9c0-1.969,0-1.984-2.013-1.984C48.007,16.007,48,16,48,17.99v3c0,1.994-.008,2,1.984,2s2.013-.009,2.013-2v-3Zm-15,9c-6.025,0-6,.01-6-6.019V9.993C31,8,31,8,33,8s2,0,2,2v2.118A11.682,11.682,0,0,1,37,12c6,0,6,0,6,6.01v2.977C42.994,27.008,43.023,26.993,37,26.993Zm2-9c0-2.014-.009-2-1.994-2s-2.01.014-2.01,2V20.99C34.993,22.985,35,23,37,23S39,22.985,39,20.99V18Z"/>
  <path id="dark" class="cls-2" d="M23,13H1c-0.99,0-1-.008-1-1V10C0,8,0,8,2,8s2,0,2,2c0,1,0,1,1,1H19c1,0,1,0,1-1,0-2,0-2,2-2s2,0,2,2v2C24,12.992,23.991,13,23,13ZM15,7c-2,0-2,0-2-2V2c0-2,0-2,2-2s2,0,2,2V5C17,7,17,7,15,7ZM9,7C7,7,7,7,7,5V2C7,0,7,0,9,0s2,0,2,2V5C11,7,11,7,9,7Z"/>
  <path id="gradient" class="cls-3" d="M22,27H18.5a2.719,2.719,0,0,0-1.393.373c-0.862.494-2.035,1.173-2.922,1.682-2.185,1.254-2.178,1.26-4.356.007-0.993-.571-2.064-1.188-2.962-1.7A2.334,2.334,0,0,0,5.5,27H2c-2,0-2,0-2-2V16c0-3.016,1.282-3.6,2-4,0.773-.427,2-1,2-1H20s1.119,0.549,2,1c1.037,0.529,2,1.019,2,4v9C24,27,23.989,27,22,27Z"/>
  <path id="gray" class="cls-4" d="M14.142,25.274c-0.491.29-1.261,0.707-1.714,0.962a0.8,0.8,0,0,1-.857,0c-0.459-.263-1.633-0.916-1.714-0.962C9.043,24.8,9,24.95,9,25.787s-0.009,1.024.422,1.264,1.07,0.6,1.647.929c0.934,0.527.931,0.525,1.867,0,0.554-.312,1.369-0.777,1.651-0.931C15,26.822,15,26.63,15,25.792S14.977,24.781,14.142,25.274Zm0.328,1.559c-0.19.1-.624,0.349-1.043,0.587l-0.622.352a2.12,2.12,0,0,1-.806.36,2.178,2.178,0,0,1-.811-0.363l-0.42-.237c-0.45-.255-0.9-0.509-1.228-0.692-0.287-.16-0.3-0.2-0.3-1v-0.05a3.206,3.206,0,0,1,.028-0.528,2.188,2.188,0,0,1,.465.226L10.116,25.7c0.405,0.226,1.028.575,1.334,0.749A1.09,1.09,0,0,0,12,26.6a1.121,1.121,0,0,0,.55-0.156c0.149-.084.331-0.185,0.527-0.293,0.4-.223.859-0.476,1.192-0.672a2.291,2.291,0,0,1,.466-0.233,3.666,3.666,0,0,1,.024.541C14.756,26.656,14.736,26.688,14.47,26.833ZM12,16a5.062,5.062,0,0,1-2.229-.957L6.682,13.265a2.1,2.1,0,0,0-1.183-.28H0V12.75H5.5a2.324,2.324,0,0,1,1.3.31c0.043,0.024,3.089,1.779,3.089,1.779C12,16.058,12,16.058,14.1,14.846l2.99-1.728A2.793,2.793,0,0,1,18.5,12.75H24v0.235H18.5a2.576,2.576,0,0,0-1.3.339L14.216,15.05A5.036,5.036,0,0,1,12,16Z"/>
</svg>
