<?xml version="1.0" encoding="utf-8"?>
<!-- Generator: Adobe Illustrator 16.0.0, SVG Export Plug-In . SVG Version: 6.00 Build 0)  -->
<!DOCTYPE svg PUBLIC "-//W3C//DTD SVG 1.1//EN" "http://www.w3.org/Graphics/SVG/1.1/DTD/svg11.dtd">
<svg version="1.1" id="iPhone_1_" xmlns="http://www.w3.org/2000/svg" xmlns:xlink="http://www.w3.org/1999/xlink" x="0px" y="0px"
	 width="360px" height="748px" viewBox="0 0 360 748" enable-background="new 0 0 360 748" xml:space="preserve">
<g id="Shadows">
	<linearGradient id="SVGID_1_" gradientUnits="userSpaceOnUse" x1="0" y1="740" x2="360" y2="740">
		<stop  offset="0" style="stop-color:#000000;stop-opacity:0"/>
		<stop  offset="0.1" style="stop-color:#231F20"/>
		<stop  offset="0.9" style="stop-color:#231F20"/>
		<stop  offset="1" style="stop-color:#000000;stop-opacity:0"/>
	</linearGradient>
	<ellipse opacity="0.05" fill="url(#SVGID_1_)" cx="180" cy="740" rx="180" ry="8"/>
	<linearGradient id="SVGID_2_" gradientUnits="userSpaceOnUse" x1="15" y1="740" x2="345" y2="740">
		<stop  offset="0" style="stop-color:#000000;stop-opacity:0"/>
		<stop  offset="0.1" style="stop-color:#231F20"/>
		<stop  offset="0.9" style="stop-color:#231F20"/>
		<stop  offset="1" style="stop-color:#000000;stop-opacity:0"/>
	</linearGradient>
	<ellipse opacity="0.1" fill="url(#SVGID_2_)" cx="180" cy="740" rx="165" ry="4"/>
	<linearGradient id="SVGID_3_" gradientUnits="userSpaceOnUse" x1="30" y1="740" x2="330" y2="740">
		<stop  offset="0" style="stop-color:#000000;stop-opacity:0"/>
		<stop  offset="0.1" style="stop-color:#231F20"/>
		<stop  offset="0.9" style="stop-color:#231F20"/>
		<stop  offset="1" style="stop-color:#000000;stop-opacity:0"/>
	</linearGradient>
	<ellipse opacity="0.2" fill="url(#SVGID_3_)" cx="180" cy="740" rx="150" ry="2"/>
</g>
<g id="HardwareButtons">
	<g>
		<path fill-rule="evenodd" clip-rule="evenodd" fill="#DDDDDD" d="M11.787,230.455H9.878c-1.188,0-1.873,0.522-1.873,1.175v51.953
			c0,0.966,1.153,1.41,1.873,1.41c0,0,2.125,0,2.532,0c0.408,0,0.601-0.313,0.601-0.731v-51.979
			C13.011,231.108,12.147,230.455,11.787,230.455z M11.787,162.988H9.878c-1.188,0-1.873,0.522-1.873,1.175v51.982
			c0,0.967,1.153,1.411,1.873,1.411c0,0,2.125,0,2.532,0c0.408,0,0.601-0.313,0.601-0.731v-52.009
			C13.011,163.642,12.147,162.988,11.787,162.988z M350.121,162.988h-1.908c-0.359,0-1.225,0.658-1.225,1.843v52.426
			c0,0.421,0.193,0.737,0.602,0.737c0.407,0,2.531,0,2.531,0c0.721,0,1.873-0.448,1.873-1.422v-52.399
			C351.994,163.515,351.311,162.988,350.121,162.988z M9.258,129.003h1.144c0.381,0,0.589-0.521,0.589-1.186c0,0,0-28.061,0-28.349
			c0-0.287-0.346-0.484-0.589-0.484H9.212c-0.461,0-1.224,0.197-1.224,0.808v28.294C7.988,128.661,8.658,129.003,9.258,129.003z"/>
	</g>
</g>
<g id="Rounded_Rectangle_1">
	<g>
		<path fill="#DDDDDD" d="M298.709,8.013H61.298c-28.277,0-51.283,23.021-51.283,51.318v629.35
			c0,28.297,23.005,51.318,51.283,51.318h237.411c28.277,0,51.283-23.021,51.283-51.318V59.331
			C349.992,31.034,326.986,8.013,298.709,8.013z"/>
	</g>
</g>
<g id="White">
	<g>
		<path fill="#FFFFFF" d="M298.709,10.013H61.298c-27.219,0-49.283,22.08-49.283,49.318v629.35
			c0,27.238,22.064,49.318,49.283,49.318h237.411c27.219,0,49.283-22.08,49.283-49.318V59.331
			C347.992,32.093,325.928,10.013,298.709,10.013z"/>
	</g>
</g>
<g id="White_2_">
	<g>
		<path fill="#FFFFFF" d="M298.709,10.013H61.298c-27.219,0-49.283,22.08-49.283,49.318v629.35
			c0,27.238,22.064,49.318,49.283,49.318h237.411c27.219,0,49.283-22.08,49.283-49.318V59.331
			C347.992,32.093,325.928,10.013,298.709,10.013z"/>
	</g>
</g>
<g id="Home">
	<g>
		<path fill="#DDDDDD" d="M180.012,672.988c-14.335,0-25.998,11.667-25.998,26.008s11.663,26.008,25.998,26.008
			c14.336,0,25.998-11.667,25.998-26.008S194.348,672.988,180.012,672.988z M180.012,721.138c-12.204,0-22.133-9.939-22.133-22.157
			c0-12.217,9.929-22.156,22.133-22.156s22.133,9.939,22.133,22.156C202.145,711.198,192.216,721.138,180.012,721.138z"/>
	</g>
</g>
<g id="Cam_micro">
	<g>
		<path fill-rule="evenodd" clip-rule="evenodd" fill="#DDDDDD" d="M211.555,45.999h-45.108c-1.907,0-3.453,1.564-3.453,3.494
			c0,1.929,1.546,3.493,3.453,3.493h45.108c1.906,0,3.453-1.564,3.453-3.493C215.008,47.563,213.461,45.999,211.555,45.999z
			 M150.988,43.996c-3.316,0-6.004,2.688-6.004,6.005s2.688,6.005,6.004,6.005s6.004-2.688,6.004-6.005
			S154.304,43.996,150.988,43.996z"/>
	</g>
</g>
</svg>
